<?xml version="1.0" encoding="UTF-8" standalone="no"?>
<svg xmlns:dc="http://purl.org/dc/elements/1.1/" xmlns:cc="http://creativecommons.org/ns#" xmlns:rdf="http://www.w3.org/1999/02/22-rdf-syntax-ns#" xmlns:svg="http://www.w3.org/2000/svg" xmlns="http://www.w3.org/2000/svg" width="70" height="70" id="svg9" xml:space="preserve"><defs id="defs6"/><g transform="matrix(1.25,0,0,-1.25,0,70)" id="g10"><g transform="scale(0.022,0.022)" id="g12"><path d="M 2246.88,1220.13 C 2162.32,1135.59 1304.65,277.891 1220.1,193.332 1135.55,277.891 277.875,1135.59 193.328,1220.13 c 84.547,84.56 942.222,942.25 1026.762,1026.79 84.55,-84.54 942.23,-942.23 1026.79,-1026.79 z M 0,1220.13 1220.1,0 2440.2,1220.13 1220.09,2440.25 0,1220.13" id="path14" style="fill:#ef2f32;fill-opacity:1;fill-rule:nonzero;stroke:none"/><path d="m 813.52,1222.4 805.8,0" id="path16" style="fill:none;stroke:#100f0d;stroke-width:50;stroke-linecap:butt;stroke-linejoin:miter;stroke-miterlimit:4;stroke-opacity:1;stroke-dasharray:none"/><path d="m 921.996,1013.31 99.184,57.33 4.65,244.75 -122.424,66.63 c 0,0 -18.601,12.4 -44.937,4.66 -9.297,-3.12 -21.696,-6.21 -21.696,-6.21 0,0 66.633,55.78 79.039,51.15 12.391,-4.65 99.178,-46.51 99.178,-46.51 0,0 -9.31,65.09 -32.549,83.69 -23.246,18.61 -113.132,89.88 -113.132,89.88 l 0,17.06 122.425,-74.38 c 0,0 4.653,71.26 -20.14,113.11 -24.801,41.84 -43.391,79.04 -43.391,79.04 l 7.75,6.2 60.434,-92.98 20.143,63.54 12.4,3.09 c 0,0 -15.5,-89.88 -4.64,-117.77 10.85,-27.89 51.13,-179.76 51.13,-179.76 l 60.43,86.78 c 0,0 1.56,35.64 -1.54,60.43 -3.1,24.8 -7.75,139.47 -7.75,139.47 l 10.85,0 17.05,-125.53 97.58,113.13 0,-12.39 c 0,0 -96.04,-120.88 -91.39,-147.23 4.66,-26.35 9.31,-41.83 -7.75,-79.03 -17.05,-37.19 -27.89,-63.54 -27.89,-63.54 0,0 51.14,60.44 74.38,65.09 23.26,1.56 54.2,-1.55 75.9,17.05 21.69,18.6 74.39,77.49 74.39,77.49 l -82.13,-127.08 c 0,0 -38.71,-1.55 -54.21,-18.6 -15.49,-17.04 -79.03,-89.88 -79.03,-89.88 l 0,-167.26 105.36,-52.69 -128.61,-18.6 -30.99,-44.928 -41.85,35.638 -116.224,-10.84" id="path18" style="fill:#100f0d;fill-opacity:1;fill-rule:nonzero;stroke:none"/><path d="m 921.996,1013.31 99.184,57.33 4.65,244.75 -122.424,66.63 c 0,0 -18.601,12.4 -44.937,4.66 -9.297,-3.12 -21.696,-6.21 -21.696,-6.21 0,0 66.633,55.78 79.039,51.15 12.391,-4.65 99.178,-46.51 99.178,-46.51 0,0 -9.31,65.09 -32.549,83.69 -23.246,18.61 -113.132,89.88 -113.132,89.88 l 0,17.06 122.425,-74.38 c 0,0 4.653,71.26 -20.14,113.11 -24.801,41.84 -43.391,79.04 -43.391,79.04 l 7.75,6.2 60.434,-92.98 20.143,63.54 12.4,3.09 c 0,0 -15.5,-89.88 -4.64,-117.77 10.85,-27.89 51.13,-179.76 51.13,-179.76 l 60.43,86.78 c 0,0 1.56,35.64 -1.54,60.43 -3.1,24.8 -7.75,139.47 -7.75,139.47 l 10.85,0 17.05,-125.53 97.58,113.13 0,-12.39 c 0,0 -96.04,-120.88 -91.39,-147.23 4.66,-26.35 9.31,-41.83 -7.75,-79.03 -17.05,-37.19 -27.89,-63.54 -27.89,-63.54 0,0 51.14,60.44 74.38,65.09 23.26,1.56 54.2,-1.55 75.9,17.05 21.69,18.6 74.39,77.49 74.39,77.49 l -82.13,-127.08 c 0,0 -38.71,-1.55 -54.21,-18.6 -15.49,-17.04 -79.03,-89.88 -79.03,-89.88 l 0,-167.26 105.36,-52.69 -128.61,-18.6 -30.99,-44.928 -41.85,35.638 -116.224,-10.84 z" id="path20" style="fill:none;stroke:#100f0d;stroke-width:40;stroke-linecap:butt;stroke-linejoin:miter;stroke-miterlimit:4;stroke-opacity:1;stroke-dasharray:none"/><path d="m 816.633,867.629 c 0,0 141.012,41.84 164.258,24.801 30.989,13.941 257.229,110.03 257.229,103.82 0,-6.211 260.33,80.59 260.33,80.59 l 94.52,-68.18 -89.87,-43.398 120.87,-10.864 -32.53,-43.386 66.63,0 1.55,-48.032 -842.987,4.649" id="path22" style="fill:#100f0d;fill-opacity:1;fill-rule:nonzero;stroke:none"/><path d="m 816.633,867.629 c 0,0 141.012,41.84 164.258,24.801 30.989,13.941 257.229,110.03 257.229,103.82 0,-6.211 260.33,80.59 260.33,80.59 l 94.52,-68.18 -89.87,-43.398 120.87,-10.864 -32.53,-43.386 66.63,0 1.55,-48.032 -842.987,4.649 z" id="path24" style="fill:none;stroke:#100f0d;stroke-width:40;stroke-linecap:butt;stroke-linejoin:miter;stroke-miterlimit:4;stroke-opacity:1;stroke-dasharray:none"/><path d="m 1131.21,990.039 c 0,0 40.29,1.563 58.88,9.313 29.5,12.288 77.46,32.538 105.35,72.828 28.85,41.66 131.72,216.86 272.74,202.91 -7.74,-18.59 -32.55,-58.89 -32.55,-58.89 l 100.74,31 c 0,0 1.56,-133.18 -189.07,-218.41 -88.33,-30.989 -106.92,-32.54 -114.67,-43.392 -7.74,-10.839 -43.38,-65.078 -43.38,-65.078 l -158.04,69.719" id="path26" style="fill:#ffffff;fill-opacity:1;fill-rule:nonzero;stroke:none"/><path d="m 1131.21,990.039 c 0,0 40.29,1.563 58.88,9.313 29.5,12.288 77.46,32.538 105.35,72.828 28.85,41.66 131.72,216.86 272.74,202.91 -7.74,-18.59 -32.55,-58.89 -32.55,-58.89 l 100.74,31 c 0,0 1.56,-133.18 -189.07,-218.41 -88.33,-30.989 -106.92,-32.54 -114.67,-43.392 -7.74,-10.839 -43.38,-65.078 -43.38,-65.078 l -158.04,69.719 z" id="path28" style="fill:none;stroke:#100f0d;stroke-width:50;stroke-linecap:butt;stroke-linejoin:miter;stroke-miterlimit:4;stroke-opacity:1;stroke-dasharray:none"/><path d="m 1543.39,1169.05 c 0,8.12 7.64,14.69 17.05,14.69 9.41,0 17.04,-6.57 17.04,-14.69 0,-8.13 -7.63,-14.73 -17.04,-14.73 -9.41,0 -17.05,6.6 -17.05,14.73" id="path30" style="fill:#100f0d;fill-opacity:1;fill-rule:nonzero;stroke:none"/></g></g></svg>