<?xml version="1.0" encoding="UTF-8" standalone="no"?>
<svg xmlns:dc="http://purl.org/dc/elements/1.1/" xmlns:cc="http://creativecommons.org/ns#" xmlns:rdf="http://www.w3.org/1999/02/22-rdf-syntax-ns#" xmlns:svg="http://www.w3.org/2000/svg" xmlns="http://www.w3.org/2000/svg" width="70" height="70" id="svg3" xml:space="preserve"><defs id="defs6"/><g transform="matrix(1.25,0,0,-1.25,0,70)" id="g10"><g transform="scale(0.022,0.022)" id="g12"><path d="M 2246.88,1220.13 C 2162.32,1135.59 1304.65,277.891 1220.1,193.332 1135.55,277.891 277.875,1135.59 193.328,1220.13 c 84.547,84.56 942.222,942.25 1026.762,1026.79 84.55,-84.54 942.23,-942.23 1026.79,-1026.79 z M 0,1220.13 1220.1,0 2440.2,1220.13 1220.09,2440.25 0,1220.13" id="path14" style="fill:#ef2f32;fill-opacity:1;fill-rule:nonzero;stroke:none"/><path d="m 1143.23,803.832 -237.664,0 0,-100.094 660.344,0 0,100.094 -268.04,0 c -24.77,-6.102 -50.66,-9.352 -77.31,-9.352 -26.66,0 -52.55,3.25 -77.33,9.352" id="path16" style="fill:#100f0d;fill-opacity:1;fill-rule:nonzero;stroke:none"/><path d="m 1220.56,887.16 c -127.05,0 -230.029,102.981 -230.029,230.03 0,127.02 102.979,230.01 230.029,230.01 127.02,0 230.02,-102.99 230.02,-230.01 0,-127.049 -103,-230.03 -230.02,-230.03 z m 299.68,236.61 10.59,82.35 c -12.99,45.46 -35.72,86.8 -65.76,121.66 l -20.66,-17.36 -14.32,18.02 -8.01,40.78 c -30.26,24.22 -64.96,43.1 -102.7,55.24 l -16.79,-25.94 -11.12,33.54 c -22.83,5.11 -46.56,7.83 -70.91,7.83 -25.86,0 -51,-3.06 -75.1,-8.8 l 0.32,-14 -31.71,-8.04 -5.7,10.79 c -27.01,-10.02 -52.33,-23.55 -75.37,-40.03 l 7.89,-19.53 -31,1.36 c -31.609,-27.26 -57.87,-60.55 -77.003,-98.08 l 0.636,-35.9 -19.484,-159.22 -14.754,18.27 C 912.207,948.789 1011.9,836.121 1143.23,803.832 c 24.78,-6.102 50.67,-9.352 77.33,-9.352 26.65,0 52.54,3.25 77.31,9.352 115.61,28.43 206.71,119.137 235.67,234.528 l -12.24,-19.59 -1.06,105" id="path18" style="fill:#100f0d;fill-opacity:1;fill-rule:nonzero;stroke:none"/><path d="m 1190.22,1995.5 0,-80.08 -21.01,-109.21 -27.05,-67.87 -34.25,44.94 -15.17,29.24 -8.66,30.34 -55.24,67.15 13.07,-49.47 -27.15,-51.26 -10.82,-75.81 13.46,-108.78 -48.615,25.68 -32.004,47.35 -43.324,51.98 11.918,-73.64 0.57,-124.02 12.028,-65.01 -59.164,36.31 -53.082,40.07 11.914,-114.8 0,-142.97 24.918,-129.98 25.992,-50.89 30.734,-38.06 14.754,-18.27 19.484,159.22 -0.636,35.9 -0.719,39.36 -16.93,68.28 -7.695,50.34 44.297,-43.22 26.765,-15.31 31.285,-1.37 31,-1.36 -7.89,19.53 -13.96,34.55 24.59,83.59 11.58,85.02 24.39,-108.7 28.77,-54.43 5.7,-10.79 31.71,8.04 -0.32,14 -1.32,58.12 48.4,94.82 1.06,73.18 59.93,-71.06 12.72,-77.94 25.22,-76.15 11.12,-33.54 16.79,25.94 70.41,108.66 32.29,-163.9 8.01,-40.78 14.32,-18.02 20.66,17.36 29.2,24.53 45.06,31.82 -0.53,-116.13 -7.97,-61.88 -10.59,-82.35 1.06,-105 12.24,19.59 69.95,111.93 37.3,110.94 0,135.4 -36.83,152.71 0,-24.92 -40.08,-37.91 -46.57,-21.65 13.54,63.49 23.85,79.54 -25.98,93.32 -14.66,-39.23 -25.98,-27.04 -45.5,-21.66 10.83,62.78 0,74.73 -62.81,135.39 0,-28.16 -13,-60.66 -24.91,-47.66 -47.65,-23.82 0,110.48 -26.01,86.64 -35.74,85.57 -25.83,105.18 -27.24,-118.25" id="path20" style="fill:#100f0d;fill-opacity:1;fill-rule:nonzero;stroke:none"/></g></g></svg>