<?xml version="1.0" encoding="UTF-8" standalone="no"?>
<svg xmlns:dc="http://purl.org/dc/elements/1.1/" xmlns:cc="http://creativecommons.org/ns#" xmlns:rdf="http://www.w3.org/1999/02/22-rdf-syntax-ns#" xmlns:svg="http://www.w3.org/2000/svg" xmlns="http://www.w3.org/2000/svg" width="70" height="70" id="svg1" xml:space="preserve"><defs id="defs6"/><g transform="matrix(1.25,0,0,-1.25,0,70)" id="g10"><g transform="scale(0.022,0.022)" id="g12"><path d="M 2246.88,1220.13 C 2162.32,1135.59 1304.65,277.891 1220.1,193.332 1135.55,277.891 277.875,1135.59 193.328,1220.13 c 84.547,84.56 942.222,942.25 1026.762,1026.79 84.55,-84.54 942.23,-942.23 1026.79,-1026.79 z M 0,1220.13 1220.1,0 2440.2,1220.13 1220.09,2440.25 0,1220.13" id="path14" style="fill:#ef2f32;fill-opacity:1;fill-rule:nonzero;stroke:none"/><path d="m 640.316,1123.73 c 17.899,-66.71 65.243,-111.96 105.743,-101.09 l 791.771,212.5 c 24.86,6.68 41.35,33.01 46.24,67.82 l 0.01,-0.07 c 2.62,17.72 15.44,33.08 33.84,38.03 l 167.68,45.09 c 18.66,5.01 28.71,28.05 22.43,51.45 -6.26,23.38 -26.48,38.26 -45.14,33.25 l -167.69,-45.02 c -18.53,-4.98 -37.46,2.04 -48.54,16.27 l 0.02,-0.07 c -21.59,27.41 -48.91,41.78 -73.68,35.14 l -791.77,-212.8 c -40.492,-10.9 -58.812,-73.79 -40.914,-140.5" id="path16" style="fill:#100f0d;fill-opacity:1;fill-rule:nonzero;stroke:none"/></g></g></svg>