<?xml version="1.0" encoding="UTF-8" standalone="no"?>
<svg xmlns:dc="http://purl.org/dc/elements/1.1/" xmlns:cc="http://creativecommons.org/ns#" xmlns:rdf="http://www.w3.org/1999/02/22-rdf-syntax-ns#" xmlns:svg="http://www.w3.org/2000/svg" xmlns="http://www.w3.org/2000/svg" width="70" height="70" id="svg7" xml:space="preserve"><defs id="defs6"/><g transform="matrix(1.25,0,0,-1.25,0,70)" id="g10"><g transform="scale(0.022,0.022)" id="g12"><path d="M 2246.88,1220.13 C 2162.32,1135.59 1304.65,277.891 1220.1,193.332 1135.55,277.891 277.875,1135.59 193.328,1220.13 c 84.547,84.56 942.222,942.25 1026.762,1026.79 84.55,-84.54 942.23,-942.23 1026.79,-1026.79 z M 0,1220.13 1220.1,0 2440.2,1220.13 1220.09,2440.25 0,1220.13" id="path14" style="fill:#ef2f32;fill-opacity:1;fill-rule:nonzero;stroke:none"/><path d="m 1222.11,990.238 c -75.09,0 -135.96,-64.328 -135.96,-143.648 0,-79.352 60.87,-143.649 135.96,-143.649 75.08,0 135.95,64.297 135.95,143.649 0,79.32 -60.87,143.648 -135.95,143.648" id="path16" style="fill:#100f0d;fill-opacity:1;fill-rule:nonzero;stroke:none"/><path d="m 1044.93,1742.23 c 0,-1.53 0.09,-3.07 0.17,-4.58 l -0.1,0 0.15,-1.01 c 0.28,-3.93 0.85,-7.8 1.71,-11.62 l 84.15,-567.99 c 2.94,-48.37 42.59,-86.67 91.1,-86.67 48.23,0 87.69,37.87 91,85.86 l 84.01,567.89 c 1.04,4.32 1.69,8.74 1.96,13.19 l 0.04,0.35 -0.04,0 c 0.1,1.51 0.19,3.05 0.19,4.58 0,64.41 -79.32,116.61 -177.16,116.61 -97.86,0 -177.18,-52.19 -177.18,-116.61" id="path18" style="fill:#100f0d;fill-opacity:1;fill-rule:nonzero;stroke:none"/></g></g></svg>