<?xml version="1.0" encoding="UTF-8" standalone="no"?>
<svg xmlns:dc="http://purl.org/dc/elements/1.1/" xmlns:cc="http://creativecommons.org/ns#" xmlns:rdf="http://www.w3.org/1999/02/22-rdf-syntax-ns#" xmlns:svg="http://www.w3.org/2000/svg" xmlns="http://www.w3.org/2000/svg" width="70" height="70" id="svg8" xml:space="preserve"><defs id="defs6"/><g transform="matrix(1.25,0,0,-1.25,0,70)" id="g10"><g transform="scale(0.022,0.022)" id="g12"><path d="M 2246.88,1220.13 C 2162.32,1135.59 1304.65,277.891 1220.1,193.332 1135.55,277.891 277.875,1135.59 193.328,1220.13 c 84.547,84.56 942.222,942.25 1026.762,1026.79 84.55,-84.54 942.23,-942.23 1026.79,-1026.79 z M 0,1220.13 1220.1,0 2440.2,1220.13 1220.09,2440.25 0,1220.13" id="path14" style="fill:#ef2f32;fill-opacity:1;fill-rule:nonzero;stroke:none"/><path d="m 1093.74,1094.32 c -9.83,0 -17.81,-7.97 -17.81,-17.8 0,-9.85 7.98,-17.82 17.81,-17.82 9.84,0 17.82,7.97 17.82,17.82 0,9.83 -7.98,17.8 -17.82,17.8" id="path16" style="fill:#100f0d;fill-opacity:1;fill-rule:nonzero;stroke:none"/><path d="m 1363.67,923.359 c 0,10.25 -8.31,18.582 -18.59,18.582 -10.28,0 -18.59,-8.332 -18.59,-18.582 0,-2.371 0.47,-4.578 1.24,-6.668 -6.72,-0.941 -11.93,-6.679 -11.93,-13.691 0,-1.949 0.43,-3.801 1.15,-5.5 1.96,-4.918 6.71,-8.398 12.31,-8.398 l 0.36,0.039 0.03,0 c 7.68,0 13.89,6.218 13.89,13.859 0,0.629 -0.09,1.23 -0.18,1.84 0.58,-0.059 1.14,-0.09 1.72,-0.09 10.28,0 18.59,8.34 18.59,18.609" id="path18" style="fill:#100f0d;fill-opacity:1;fill-rule:nonzero;stroke:none"/><path d="m 1182.08,901.148 c 0,-9.589 7.76,-17.359 17.33,-17.359 9.6,0 17.35,7.77 17.35,17.359 0,9.563 -7.75,17.321 -17.35,17.321 -9.57,0 -17.33,-7.758 -17.33,-17.321" id="path20" style="fill:#100f0d;fill-opacity:1;fill-rule:nonzero;stroke:none"/><path d="m 1126.33,991.559 c 9.58,0 17.34,7.75 17.34,17.351 0,9.56 -7.76,17.35 -17.34,17.35 -4.77,0 -9.1,-1.96 -12.24,-5.08 -1.32,5.49 -6.22,9.57 -12.12,9.57 -6.9,0 -12.48,-5.58 -12.48,-12.46 0,-6.91 5.58,-12.51 12.48,-12.51 2.64,0 5.09,0.84 7.11,2.24 0.47,-9.168 7.98,-16.461 17.25,-16.461" id="path22" style="fill:#100f0d;fill-opacity:1;fill-rule:nonzero;stroke:none"/><path d="m 1317.38,1054.73 c -3.05,0 -5.92,-0.73 -8.46,-2.02 -1.72,5.74 -7,9.95 -13.3,9.95 -7.71,0 -13.94,-6.25 -13.94,-13.93 0,-7.7 6.23,-13.95 13.94,-13.95 1.11,0 2.17,0.16 3.22,0.4 0.5,-9.8 8.61,-17.62 18.54,-17.62 1.35,0 2.68,0.14 3.96,0.43 8.64,0.99 15.36,8.25 15.36,17.15 0,3.15 -0.89,6.09 -2.39,8.63 -2.89,6.47 -9.38,10.96 -16.93,10.96" id="path24" style="fill:#100f0d;fill-opacity:1;fill-rule:nonzero;stroke:none"/><path d="m 1250.5,1165.39 c 0,9.58 -7.76,17.34 -17.35,17.34 -9.59,0 -17.34,-7.76 -17.34,-17.34 0,-6.63 3.76,-12.3 9.22,-15.24 -5.22,-1.5 -9.05,-6.24 -9.05,-11.93 0,-6.91 5.61,-12.49 12.51,-12.49 6.89,0 12.48,5.58 12.48,12.49 0,4.17 -2.05,7.82 -5.2,10.1 8.33,1.27 14.73,8.39 14.73,17.07" id="path26" style="fill:#100f0d;fill-opacity:1;fill-rule:nonzero;stroke:none"/><path d="m 1098.23,915.941 c -7.68,0 -13.88,-6.191 -13.88,-13.863 0,-7.668 6.2,-13.879 13.88,-13.879 7.66,0 13.86,6.211 13.86,13.879 0,7.672 -6.2,13.863 -13.86,13.863" id="path28" style="fill:#100f0d;fill-opacity:1;fill-rule:nonzero;stroke:none"/><path d="m 1196.31,1095.12 c 0,-6.9 5.59,-12.5 12.47,-12.5 6.91,0 12.51,5.6 12.51,12.5 0,6.88 -5.6,12.48 -12.51,12.48 -6.88,0 -12.47,-5.6 -12.47,-12.48" id="path30" style="fill:#100f0d;fill-opacity:1;fill-rule:nonzero;stroke:none"/><path d="m 1253.71,758.73 c 0,7.801 -4.66,14.5 -11.35,17.54 1.17,2.019 1.87,4.32 1.87,6.789 0,7.679 -6.21,13.882 -13.87,13.882 -7.66,0 -13.89,-6.203 -13.89,-13.882 0,-4.129 1.86,-7.809 4.73,-10.36 -3.72,-3.488 -6.04,-8.469 -6.04,-13.969 0,-10.648 8.62,-19.281 19.28,-19.281 10.64,0 19.27,8.633 19.27,19.281" id="path32" style="fill:#100f0d;fill-opacity:1;fill-rule:nonzero;stroke:none"/><path d="m 1207.68,613.172 c 4.61,3.508 7.61,9.039 7.61,15.297 0,6.543 -3.26,12.301 -8.23,15.769 2.79,3.344 4.47,7.641 4.47,12.352 0,10.629 -8.62,19.281 -19.27,19.281 -1.62,0 -3.16,-0.23 -4.64,-0.601 2.15,4.46 3.4,9.46 3.4,14.75 0,4.968 -1.09,9.64 -2.99,13.902 10,0.719 17.87,9.019 17.87,19.187 0,8.301 -5.24,15.352 -12.58,18.063 7.18,6.238 11.76,15.418 11.76,25.68 0,11.75 -5.97,22.109 -15.02,28.199 5.24,6 8.46,13.828 8.46,22.41 0,7.527 -2.48,14.449 -6.62,20.059 5.37,1.921 9.21,7 9.21,13.011 0,7.688 -6.2,13.879 -13.86,13.879 -4.69,0 -8.82,-2.32 -11.33,-5.898 -6.22,7.699 -15.71,12.609 -26.38,12.609 -4.98,0 -9.7,-1.09 -13.96,-3.039 -3.25,6.066 -9.64,10.199 -16.98,10.199 -10.66,0 -19.28,-8.621 -19.28,-19.281 0,-9.668 7.13,-17.648 16.42,-19.031 -0.06,-0.731 -0.14,-1.438 -0.14,-2.168 -5.9,4.871 -13.44,7.82 -21.68,7.82 -12.39,0 -23.18,-6.641 -29.12,-16.519 -5.03,5.519 -12.29,9.046 -20.37,9.046 -12.85,0 -23.61,-8.828 -26.65,-20.738 -4.41,3.031 -9.76,4.809 -15.51,4.809 -15.204,0 -27.528,-12.321 -27.528,-27.528 0,-2.14 0.262,-4.203 0.723,-6.191 -7.305,6.648 -16.981,10.73 -27.637,10.73 -16.961,0 -31.512,-10.269 -37.805,-24.929 -4.414,3.027 -9.753,4.82 -15.511,4.82 -15.203,0 -27.535,-12.34 -27.535,-27.543 0,-2.219 0.257,-4.367 0.757,-6.449 L 1201.56,406 c 4.36,1.84 7.42,6.129 7.42,11.16 0,4.77 -2.76,8.86 -6.75,10.828 4.72,1.672 8.13,6.133 8.13,11.434 0,5 -3.02,9.289 -7.34,11.117 4.27,2.84 7.08,7.672 7.08,13.16 0,7.512 -5.24,13.762 -12.25,15.371 13.98,9.629 23.14,25.739 23.14,44.012 0,11.277 -3.5,21.727 -9.46,30.359 9.63,5.989 16.04,16.629 16.04,28.809 0,13.75 -8.16,25.559 -19.89,30.922" id="path34" style="fill:#100f0d;fill-opacity:1;fill-rule:nonzero;stroke:none"/><path d="m 1582.58,764.98 c -3.31,0 -6.42,-0.839 -9.16,-2.32 -3.33,11.449 -13.89,19.828 -26.4,19.828 -5.41,0 -10.43,-1.59 -14.68,-4.269 0.04,0.711 0.09,1.402 0.09,2.133 0,18.769 -15.2,33.968 -33.97,33.968 -4.39,0 -8.59,-0.851 -12.44,-2.379 -0.49,10.207 -8.89,18.34 -19.22,18.34 -10.64,0 -19.27,-8.621 -19.27,-19.261 0,-0.829 0.06,-1.661 0.18,-2.461 -4.85,7.882 -13.52,13.152 -23.47,13.152 -1.56,0 -3.11,-0.152 -4.61,-0.422 -0.22,18.602 -15.33,33.602 -33.97,33.602 -1.89,0 -3.76,-0.211 -5.56,-0.5 -0.92,9.789 -9.15,17.449 -19.18,17.449 -8.29,0 -15.34,-5.25 -18.07,-12.621 -0.85,0.051 -1.72,0.133 -2.59,0.133 -3.86,0 -7.6,-0.582 -11.15,-1.582 -3.31,8.73 -11.74,14.96 -21.62,14.96 -12.78,0 -23.11,-10.371 -23.11,-23.109 0,-3.961 0.97,-7.66 2.7,-10.902 -3.32,2.761 -7.57,4.429 -12.25,4.429 -10.63,0 -19.27,-8.636 -19.27,-19.269 0,-9.18 6.39,-16.82 14.96,-18.77 -2.51,-4.738 -3.96,-10.121 -3.96,-15.871 0,-11.019 5.29,-20.789 13.43,-26.988 -3.12,-5.801 -4.88,-12.422 -4.88,-19.441 0,-10.918 4.26,-20.778 11.19,-28.149 -2.27,-5.101 -3.55,-10.73 -3.55,-16.68 0,-2.289 0.23,-4.531 0.6,-6.718 -2.79,1.929 -6.1,3.168 -9.69,3.41 2.37,3.207 3.78,7.137 3.78,11.418 0,10.64 -8.64,19.281 -19.28,19.281 -10.64,0 -19.26,-8.641 -19.26,-19.281 0,-5.11 1.99,-9.75 5.22,-13.18 -8.06,-2.32 -13.97,-9.719 -13.97,-18.519 0,-10.641 8.63,-19.27 19.28,-19.27 0.6,0 1.19,0.098 1.78,0.149 -3.55,-6.071 -5.62,-13.141 -5.62,-20.68 0,-14.34 7.33,-26.93 18.47,-34.301 -14.72,-6.258 -25.03,-20.848 -25.03,-37.859 0,-12.321 5.43,-23.352 14.03,-30.879 -8.9,-6.121 -14.75,-16.391 -14.75,-28.012 0,-4.719 0.98,-9.258 2.73,-13.34 -2.48,-4.14 -3.92,-8.937 -3.92,-14.109 0,-5.988 1.92,-11.488 5.16,-16 -2.82,-2.211 -4.63,-5.61 -4.63,-9.449 0,-4.18 2.11,-7.821 5.29,-10.012 -3.32,-2.18 -5.51,-5.899 -5.51,-10.168 0,-0.762 0.08,-1.512 0.22,-2.25 -2.78,-2.231 -4.58,-5.602 -4.58,-9.43 0,-5.019 3.04,-9.351 7.41,-11.191 l 360.25,331.648 c 0.73,2.043 1.13,4.203 1.13,6.461 0,10.66 -8.65,19.281 -19.28,19.281" id="path36" style="fill:#100f0d;fill-opacity:1;fill-rule:nonzero;stroke:none"/><path d="m 1554.51,1137.55 0.02,-0.16 c -3.43,0.84 -7,1.33 -10.72,1.33 -24.76,0 -44.85,-20.08 -44.85,-44.86 0,-2.32 0.23,-4.6 0.57,-6.82 -2.64,1.15 -5.57,1.8 -8.63,1.8 -7.08,0 -13.34,-3.41 -17.27,-8.69 -4.06,1.35 -8.4,2.09 -12.91,2.09 -22.1,0 -40.09,-17.45 -41.02,-39.34 -1.42,0.27 -2.86,0.45 -4.36,0.45 -11.9,0 -21.55,-9.65 -21.55,-21.58 0,-3.6 0.9,-7 2.46,-10.01 -3.43,1.94 -7.36,3.05 -11.58,3.05 -13.1,0 -23.7,-10.6 -23.7,-23.701 0,-6.839 2.89,-12.98 7.53,-17.289 l 0.03,-0.25 c -5.51,-0.519 -10.06,-4.211 -11.82,-9.261 -0.7,-1.547 -1.09,-3.258 -1.09,-5.079 0,-4.371 2.27,-8.218 5.7,-10.449 2.35,-1.84 5.29,-2.961 8.5,-2.961 5.96,0 11,3.739 13,9.008 3.25,-1.758 6.96,-2.777 10.87,-2.777 1.78,0 3.51,0.211 5.17,0.609 -0.14,-1.43 -0.23,-2.871 -0.23,-4.34 0,-5.422 1.07,-10.601 2.97,-15.351 -7.64,-1.778 -13.37,-8.637 -13.37,-16.821 0,-2.546 0.59,-4.929 1.56,-7.089 2.45,-6.258 8.53,-10.707 15.68,-10.707 5.9,0 11.06,3.058 14.09,7.66 1.1,1.57 1.99,3.308 2.57,5.187 5.35,-2.551 11.31,-4 17.62,-4 1.94,0 3.84,0.192 5.74,0.442 -1.12,-3 -1.76,-6.219 -1.76,-9.602 0,-4.461 1.11,-8.629 2.98,-12.348 -0.88,0.168 -1.79,0.27 -2.71,0.27 -7.67,0 -13.87,-6.231 -13.87,-13.871 0,-7.66 6.2,-13.871 13.87,-13.871 6.92,0 12.6,5.07 13.64,11.691 3.75,-14.719 17.04,-25.601 32.91,-25.601 7.14,0 13.74,2.211 19.19,5.953 1.64,-13.641 13.23,-24.231 27.31,-24.231 7.17,0 13.68,2.77 18.58,7.258 -0.05,-0.809 -0.13,-1.648 -0.13,-2.469 0,-18.789 15.22,-33.988 33.99,-33.988 6.43,0 12.42,1.797 17.55,4.887 -2.56,-3.489 -4.11,-7.809 -4.11,-12.489 0,-11.699 9.49,-21.191 21.19,-21.191 7.09,0 13.35,3.473 17.2,8.813 l 0.01,0 184.03,169.398 0,124.07 c 0,37.61 -40.52,84.63 -89.47,101.39 -10.99,3.77 -83.54,27.44 -83.54,27.44 -8.35,-0.64 -15.14,-6.82 -16.76,-14.85 -2.56,1.31 -5.43,2.06 -8.5,2.06 -10.26,0 -18.6,-8.33 -18.6,-18.6 0,-1.01 0.11,-2 0.27,-2.96 -5.65,4.22 -12.64,6.74 -20.24,6.74 -18.77,0 -34.01,-15.21 -34.01,-33.99" id="path38" style="fill:#100f0d;fill-opacity:1;fill-rule:nonzero;stroke:none"/><path d="m 1171.13,1166.66 -0.07,-0.75 -0.86,0.47 c 0.32,0.08 0.62,0.2 0.93,0.28 z m -206.759,551.6 c 0,-101.45 37.919,-243.77 111.859,-331.04 l -9.02,-92.53 -198.355,-71.77 c 3.176,-15.48 16.875,-27.13 33.297,-27.13 2.903,0 5.684,0.4 8.375,1.08 3.789,-14.62 17.035,-25.45 32.856,-25.45 1.676,0 3.305,0.17 4.914,0.39 3.887,-14.48 17.074,-25.15 32.781,-25.15 4.637,0 9.027,0.94 13.047,2.61 1.086,-10.91 10.255,-19.41 21.455,-19.41 2.2,0 4.33,0.34 6.33,0.93 2.76,-15.99 16.67,-28.18 33.46,-28.18 13.05,0 24.39,7.4 30.07,18.19 5.71,-4.34 12.8,-6.93 20.53,-6.93 5,0 9.73,1.09 14.01,3.03 4.43,-9.37 12.64,-16.61 22.66,-19.74 -0.4,-1.25 -0.67,-2.54 -0.67,-3.93 0,-6.89 5.58,-12.48 12.48,-12.48 6.89,0 12.48,5.59 12.48,12.48 0,1.55 -0.31,3 -0.83,4.37 14.58,5.1 25.04,18.93 25.04,35.25 0,7.46 -2.2,14.4 -5.96,20.23 6.08,0.81 10.8,5.98 10.8,12.31 0,5.4 -3.43,9.95 -8.21,11.69 5.22,5.97 8.4,13.76 8.4,22.3 0,1.64 -0.15,3.22 -0.37,4.81 12.81,4.85 21.93,17.22 21.93,31.73 0,9.1 -3.62,17.29 -9.41,23.37 1.06,-0.29 2.13,-0.5 3.29,-0.5 6.88,0 12.49,5.59 12.49,12.5 0,6.89 -5.61,12.48 -12.49,12.48 -2.74,0 -5.26,-0.91 -7.32,-2.4 -2.49,4.62 -7,7.98 -12.37,8.88 4.22,6.87 6.68,14.92 6.68,23.56 0,5.61 -1.06,10.95 -2.93,15.9 12.88,4.84 22.06,17.22 22.06,31.79 0,8.47 -3.13,16.21 -8.26,22.17 9.44,3.1 16.24,12 16.24,22.48 0,8.61 -4.61,16.14 -11.46,20.29 3.21,4.04 5.14,9.15 5.14,14.71 0,1.42 -0.16,2.8 -0.39,4.17 4.92,0.22 9.45,1.89 13.14,4.68 -0.27,-1.46 -0.43,-2.95 -0.43,-4.48 0,-8.42 4.4,-15.8 10.99,-20 -1.3,-3.6 -2.05,-7.48 -2.05,-11.55 0,-13.83 8.29,-25.7 20.13,-31.01 -1.08,-3.89 -1.71,-7.96 -1.71,-12.19 0,-14.39 6.79,-27.14 17.28,-35.36 -9.19,-4.02 -15.63,-13.2 -15.63,-23.9 0,-10.67 6.41,-19.83 15.59,-23.87 -1.83,-3.18 -2.91,-6.86 -2.91,-10.8 0,-8.63 5.07,-16.04 12.4,-19.5 -2.13,-5.19 -3.3,-10.87 -3.3,-16.82 0,-7.18 1.71,-13.96 4.74,-19.97 -1.44,-1.63 -2.78,-3.34 -3.98,-5.16 -2.26,2.3 -5.39,3.73 -8.88,3.73 -6.88,0 -12.48,-5.61 -12.48,-12.5 0,-6.89 5.6,-12.49 12.48,-12.49 0.61,0 1.16,0.1 1.72,0.19 -0.07,-1.16 -0.16,-2.3 -0.16,-3.46 0,-8.67 2.49,-16.72 6.72,-23.57 -3.62,-6.89 -5.69,-14.74 -5.69,-23.08 0,-12.77 4.85,-24.37 12.77,-33.17 -2.21,-3.54 -3.51,-7.7 -3.51,-12.18 0,-12.77 10.35,-23.12 23.14,-23.12 11.35,0 20.8,8.22 22.73,19.02 6.25,0.66 12.15,2.51 17.47,5.28 2.77,-5.94 8.73,-10.07 15.71,-10.07 9.58,0 17.35,7.75 17.35,17.34 0,7.25 -4.48,13.43 -10.78,16.02 1.75,3.79 2.98,7.85 3.77,12.06 3.75,-1.01 7.66,-1.59 11.71,-1.59 0.51,0 1.02,0.05 1.54,0.07 3.05,-7.82 10.62,-13.35 19.53,-13.35 6.85,0 12.9,3.29 16.75,8.38 2.14,-7.9 9.34,-13.69 17.92,-13.69 6.48,0 12.2,3.34 15.52,8.37 3.6,-2.21 7.82,-3.53 12.37,-3.53 13.08,0 23.7,10.63 23.7,23.71 0,4.39 -1.21,8.47 -3.27,11.99 1.8,-0.6 3.72,-0.9 5.71,-0.9 10.27,0 18.6,8.31 18.6,18.57 0,0.88 -0.08,1.74 -0.19,2.57 3.91,-7.62 11.88,-12.82 21.03,-12.82 12.93,0 23.43,10.35 23.68,23.22 6.2,3.83 10.48,10.39 11.19,18.02 1.18,-0.39 2.45,-0.65 3.78,-0.65 6.9,0 12.49,5.6 12.49,12.5 0,1.43 -0.26,2.81 -0.7,4.1 l -18.95,6.11 -198.04,63.78 -0.79,84.56 c 30.08,32.38 53.51,74.13 70.52,119.4 32.2,85.84 49.57,176.54 49.57,224.05 0,123.04 -117.52,282.6 -262.46,282.6 -144.95,0 -262.459,-126.53 -262.459,-282.6" id="path40" style="fill:#100f0d;fill-opacity:1;fill-rule:nonzero;stroke:none"/><path d="m 911.77,822.148 c 0,1.34 -0.098,2.672 -0.243,3.961 5.035,-6.218 12.746,-10.23 21.403,-10.23 15.199,0 27.523,12.32 27.523,27.519 0,4.133 -0.922,8.012 -2.539,11.524 5.516,1.91 10.211,5.558 13.496,10.269 3.496,-3.562 8.363,-5.793 13.758,-5.793 10.637,0 19.272,8.622 19.272,19.282 0,5.531 -2.36,10.5 -6.096,14.011 7.046,3.438 12.406,9.778 14.526,17.469 4.43,-4.871 10.55,-8.129 17.47,-8.851 -2.78,-3.348 -4.46,-7.649 -4.46,-12.329 0,-10.64 8.62,-19.289 19.26,-19.289 10.64,0 19.27,8.649 19.27,19.289 0,8.711 -5.78,16.059 -13.72,18.45 6.12,5.039 10.03,12.699 10.03,21.25 0,2.531 -0.37,4.961 -1,7.269 0.82,-0.078 1.67,-0.121 2.52,-0.121 3.88,0 7.57,0.801 10.91,2.242 0.29,-7.379 6.35,-13.32 13.83,-13.32 7.66,0 13.87,6.199 13.87,13.879 0,7.473 -5.94,13.519 -13.35,13.82 1.46,3.34 2.27,7.031 2.27,10.91 0,2.36 -0.37,4.621 -0.92,6.813 l 0,0 c 6.9,0 12.49,5.609 12.49,12.5 0,6.898 -5.59,12.476 -12.49,12.476 -0.37,0 -0.7,-0.089 -1.05,-0.109 -0.72,10.411 -6.06,19.511 -14.03,25.241 0.05,0.78 0.11,1.59 0.11,2.4 0,18.78 -15.22,33.98 -33.97,33.98 -6.56,0 -12.64,-1.87 -17.83,-5.08 0.75,1.95 1.18,4.08 1.18,6.32 0,9.85 -7.97,17.81 -17.81,17.81 -1.76,0 -3.44,-0.27 -5.04,-0.74 0.23,1.59 0.38,3.21 0.38,4.87 0,18.77 -15.208,33.98 -33.978,33.98 -5.8,0 -11.265,-1.46 -16.054,-4.02 -4.309,6.98 -11.047,12.32 -19.074,14.75 1.031,2.24 1.628,4.74 1.628,7.38 0,9.82 -7.992,17.81 -17.828,17.81 -2.304,0 -4.507,-0.46 -6.523,-1.27 -0.133,18.66 -15.277,33.77 -33.981,33.77 -3.007,0 -5.918,-0.44 -8.703,-1.18 -2.707,6.37 -9.027,10.83 -16.39,10.83 -4.34,0 -8.321,-1.55 -11.414,-4.14 -1.188,8.67 -8.618,15.38 -17.629,15.38 -3.418,0 -6.602,-0.98 -9.313,-2.64 -47.133,-18.05 -86.265,-33.14 -101.187,-39.09 -33.266,-13.28 -58.02,-48.84 -58.02,-84.08 l 0,-113.511 183.875,-186.668 c 1.875,-0.403 3.836,-0.621 5.828,-0.621 10.207,0 19.102,5.601 23.864,13.832 3.703,-1.391 7.703,-2.192 11.898,-2.192 18.777,0 33.981,15.211 33.981,33.988" id="path42" style="fill:#100f0d;fill-opacity:1;fill-rule:nonzero;stroke:none"/></g></g></svg>