<?xml version="1.0" encoding="UTF-8" standalone="no"?>
<svg xmlns:dc="http://purl.org/dc/elements/1.1/" xmlns:cc="http://creativecommons.org/ns#" xmlns:rdf="http://www.w3.org/1999/02/22-rdf-syntax-ns#" xmlns:svg="http://www.w3.org/2000/svg" xmlns="http://www.w3.org/2000/svg" width="70" height="70" id="svg5" xml:space="preserve"><defs id="defs6"/><g transform="matrix(1.25,0,0,-1.25,0,70)" id="g10"><g transform="scale(0.022,0.022)" id="g12"><path d="M 2246.88,1220.13 C 2162.32,1135.59 1304.65,277.891 1220.1,193.332 1135.55,277.891 277.875,1135.59 193.328,1220.13 c 84.547,84.56 942.222,942.25 1026.762,1026.79 84.55,-84.54 942.23,-942.23 1026.79,-1026.79 z M 0,1220.13 1220.1,0 2440.2,1220.13 1220.09,2440.25 0,1220.13" id="path14" style="fill:#ef2f32;fill-opacity:1;fill-rule:nonzero;stroke:none"/><path d="m 759.707,1176.96 c -37.637,0.53 -60.383,13.9 -70.945,35.3 l -270.688,3.85 -1.762,-123.73 674.558,-9.56 1.76,123.71 -245.259,3.48 c -16.976,-21.15 -49.68,-33.59 -87.664,-33.05" id="path16" style="fill:#100f0d;fill-opacity:1;fill-rule:nonzero;stroke:none"/><path d="m 822.652,1221.88 c 11,-0.16 26.852,4.95 39.914,30.17 2.977,5.75 3.684,13.13 4.426,20.93 0.387,4.09 1.031,10.6 2.012,13.08 1.23,0.81 4.058,2.01 6.058,2.85 7.528,3.18 17.836,7.5 23.368,18.2 3.093,5.98 4.066,11.91 4.152,17.6 0.059,4.25 -0.379,8.36 -0.797,12.25 -0.433,4.09 -0.84,8.03 -0.777,12.11 0.008,1.38 0.086,2.78 0.23,4.22 0.715,7.08 13.407,22.31 24.813,32.08 l -16.879,19.76 c -5.27,-4.49 -31.649,-28 -33.805,-49.23 -0.847,-8.36 -0.09,-15.44 0.571,-21.68 0.796,-7.44 1.148,-11.8 -0.586,-15.17 -1.215,-2.32 -6.079,-4.37 -10.372,-6.17 -6.66,-2.82 -14.203,-5.98 -18.46,-13.52 -3.77,-6.67 -4.602,-15.43 -5.403,-23.91 -0.371,-3.91 -0.937,-9.79 -1.687,-11.55 -2.278,-4.4 -4.688,-7.95 -7.106,-10.6 -1.699,-4.47 -4.586,-10.82 -9.472,-17.63 l -0.2,-13.79" id="path18" style="fill:#100f0d;fill-opacity:1;fill-rule:nonzero;stroke:none"/><path d="m 789.027,1238.54 14.563,-21.52 c 8.582,5.8 14.765,12.41 19.262,18.65 4.886,6.81 7.773,13.16 9.472,17.63 0.641,1.67 1.129,3.08 1.485,4.14 2.441,7.24 0.808,14.15 -0.629,20.26 -1.508,6.37 -2.336,10.48 -0.543,14.33 2.093,4.5 5.578,7.17 9.98,10.52 5.024,3.85 11.278,8.64 15.27,16.73 4.945,10.03 2.301,21.18 -0.266,31.97 -1.793,7.58 -3.644,15.42 -2.508,21.35 l -25.527,4.94 c -0.539,-2.8 -0.785,-5.54 -0.824,-8.26 -0.125,-8.48 1.82,-16.63 3.578,-24.03 0.984,-4.2 2.41,-10.2 2.371,-13.25 -0.008,-0.54 -0.063,-0.99 -0.176,-1.31 -1.199,-2.43 -3.59,-4.33 -7.699,-7.47 -5.774,-4.41 -12.969,-9.9 -17.766,-20.2 -2.472,-5.3 -3.363,-10.47 -3.425,-15.23 -0.094,-6.21 1.214,-11.77 2.226,-16.08 0.484,-2.02 1.199,-5.03 1.184,-6.25 -2.785,-8.15 -7.602,-18.5 -20.028,-26.92" id="path20" style="fill:#100f0d;fill-opacity:1;fill-rule:nonzero;stroke:none"/><path d="m 675.68,1293.42 c 1.683,-3.23 2.742,-6.27 3.453,-9.13 2.555,-1.69 6.305,-4.21 7.027,-5.48 1.106,-3.04 -0.105,-11.61 -0.906,-17.26 -0.274,-1.88 -0.524,-3.67 -0.746,-5.42 6.101,-6.28 15.758,-13.59 20.976,-16.28 l -10.074,-19.46 c 4.75,-6.99 10.309,-13.96 15.344,-19.67 l 19.488,17.22 c -10.918,12.34 -18.504,24.29 -20.297,29.53 -0.023,0.23 -0.043,0.48 -0.035,0.82 0.035,2.26 0.649,6.58 1.082,9.59 0.711,5.09 1.496,10.52 1.567,15.92 0.074,4.87 -0.442,9.7 -2.086,14.16 -3.305,8.98 -11.219,14.21 -17.582,18.38 -3.758,2.48 -8.899,5.87 -9.137,7.95 -0.047,0.54 -0.07,1.06 -0.066,1.58 0.035,2.62 0.882,5.28 2.406,9.77 2.23,6.57 5.179,15.27 5.359,28.01 0.016,1.72 0,3.5 -0.09,5.37 l -25.972,-1.17 c 0.504,-10.84 -1.653,-17.17 -3.911,-23.87 -2.14,-6.31 -4.566,-13.46 -3.554,-22.54 0.047,-0.45 0.133,-0.85 0.195,-1.27 5.996,-3.29 12.949,-7.96 17.559,-16.75" id="path22" style="fill:#100f0d;fill-opacity:1;fill-rule:nonzero;stroke:none"/><path d="m 621.621,1348.06 c 0.359,-5.07 -0.488,-8.66 -1.476,-12.83 -1.684,-7.1 -3.774,-15.95 1.929,-27.77 5.094,-10.54 14.039,-15.16 20.563,-18.51 5.285,-2.71 8.355,-4.4 10.008,-7.58 2.066,-3.95 1.785,-6.66 1.32,-11.15 -0.574,-5.48 -1.348,-13 3.324,-21.19 7.606,-13.37 27.684,-27.84 36.234,-32.29 l 1.887,3.65 10.074,19.46 c -5.218,2.69 -14.875,10 -20.976,16.28 -2.031,2.1 -3.672,4.09 -4.625,5.75 -0.453,0.8 -0.465,1.75 -0.059,5.67 0.434,4.2 0.977,9.94 -0.691,16.74 -0.711,2.86 -1.77,5.9 -3.453,9.13 -4.61,8.79 -11.563,13.46 -17.559,16.75 -1.242,0.68 -2.453,1.32 -3.59,1.9 -5.492,2.83 -7.847,4.22 -9.043,6.69 -1.636,3.4 -1.41,4.73 -0.043,10.49 1.157,4.91 2.758,11.63 2.106,20.69 -1.239,17.16 -14.321,31.72 -24.84,43.43 l -7.754,8.96 -20.355,-16.18 8.765,-10.15 c 7.871,-8.75 17.649,-19.64 18.254,-27.94" id="path24" style="fill:#100f0d;fill-opacity:1;fill-rule:nonzero;stroke:none"/><path d="m 736.43,1328.8 c -0.285,-19.94 4.16,-46.85 27.55,-47.17 23.399,-0.34 30.02,29.84 30.2,42.22 0.156,10.95 -15.797,57.48 -19.114,99.49 -5.144,0.14 -9.464,1.69 -13.054,4.1 -4.282,-46.99 -25.324,-80.42 -25.582,-98.64" id="path26" style="fill:#100f0d;fill-opacity:1;fill-rule:nonzero;stroke:none"/><path d="m 1124.78,1605.74 c -34.69,-1.67 -337.815,-26.61 -337.815,-26.61 l -5.891,42.87 c 0,0 300.196,47.73 335.476,53.2 35.3,5.44 60,-8.98 59.68,-31.19 -0.31,-22.2 -16.77,-36.6 -51.45,-38.27 z m -16.25,96.11 c -51.27,-7.4 -285.19,-46.06 -307.811,-50.07 -33.281,-5.89 -40.528,24.39 -55.602,31.66 0,0 20.512,-131.75 21.668,-141.53 4.168,-35.18 -20.105,-52.94 -20.473,-79.21 -0.136,-9.51 3.747,-27.25 15.7,-35.26 3.59,-2.41 7.91,-3.96 13.054,-4.1 0.172,0 0.317,-0.04 0.481,-0.04 22.746,-0.34 27.93,22.34 28.183,39.68 0.379,26.81 -12.398,42.42 -12.312,48.91 0.09,6.5 5.625,14 26.25,16.97 20.629,2.95 278.482,43.98 319.192,49.9 40.71,5.93 71.23,38.8 65.21,73.01 -6.01,34.21 -42.24,57.47 -93.54,50.08" id="path28" style="fill:#100f0d;fill-opacity:1;fill-rule:nonzero;stroke:none"/><path d="m 1662.05,1427.82 c -7.5,-36.04 -23.06,-70.5 -23.19,-80.02 -0.18,-12.38 3.06,-43.38 26.46,-43.72 23.4,-0.32 31.12,27.07 31.4,47.04 0.22,15.78 -13.22,41.47 -18.49,78.4 -3.41,-1.44 -7.29,-2.24 -11.72,-2.17 -1.59,0.02 -3.05,0.2 -4.46,0.47" id="path30" style="fill:#100f0d;fill-opacity:1;fill-rule:nonzero;stroke:none"/><path d="m 1320.34,1684.76 c 35.16,-6.29 351.42,-66.19 351.42,-66.19 l -7.12,-42.69 c 0,0 -327.49,33.35 -362.12,36.01 -34.62,2.65 -50.17,14.79 -49.85,36.99 0.32,22.21 28.24,42.93 67.67,35.88 z m -31.98,-100.29 c 40.52,-7.07 324.5,-58.54 345.04,-62.12 11.73,-2.02 21.24,-9.91 21.18,-13.11 -0.04,-3.21 -12.76,-15.04 -13.05,-36.14 -0.24,-16.12 1.93,-41.53 20.52,-45.28 1.41,-0.27 2.87,-0.45 4.46,-0.47 4.43,-0.07 8.31,0.73 11.72,2.17 14.11,6.01 19.88,23.39 20.11,39.29 0.53,37.13 -18.88,30.1 -13.71,65.15 1.41,9.75 21.95,136.92 21.95,136.92 -15.27,-6.84 -19.67,-32.96 -52.77,-26.13 -22.5,4.64 -282.82,56.52 -333.89,65.37 -51.06,8.86 -86.08,-17.27 -93.06,-51.3 -6.99,-34.02 20.96,-67.27 61.5,-74.35" id="path32" style="fill:#100f0d;fill-opacity:1;fill-rule:nonzero;stroke:none"/><path d="m 1776.3,1385.63 c 0.14,-3.65 0.19,-5.66 -1.89,-10.14 -3.88,-8.34 -10.65,-18.71 -20.74,-20.93 l 5.55,-25.4 c 11.31,2.49 27.2,10.61 38.74,35.32 4.75,10.15 4.49,17.05 4.32,22.09 -0.17,4.07 -0.22,5.76 3.31,11.15 2.53,3.83 3.21,4 6.16,4.73 6.7,1.66 14.4,4.44 21.16,16.6 7.72,13.91 5.45,25.59 3.8,34.13 -0.89,4.68 -1.61,8.37 -0.96,12.17 1.01,5.81 5.18,10.2 13.07,18.12 4.31,4.3 9.2,9.18 14.14,15.28 l -20.21,16.36 c -4.09,-5.05 -8.26,-9.23 -12.31,-13.26 -8.78,-8.79 -17.85,-17.88 -20.29,-32.08 -1.48,-8.47 -0.08,-15.72 1.04,-21.51 1.47,-7.59 1.98,-11.17 -1.01,-16.58 -1.83,-3.29 -1.88,-3.31 -4.64,-3.98 -6.58,-1.63 -14.21,-4.32 -21.7,-15.74 -7.43,-11.37 -7.8,-18.95 -7.54,-26.33" id="path34" style="fill:#100f0d;fill-opacity:1;fill-rule:nonzero;stroke:none"/><path d="m 1731.18,1342.15 c 12.62,10.79 16.53,14.7 22.45,32.88 3.89,11.81 3.16,19.68 2.55,25.99 -0.46,5.03 -0.81,8.63 1.01,15.07 0.93,3.29 1.23,3.45 4.89,5.34 5.59,2.89 14.93,7.74 19.28,23.81 3.98,14.73 -0.16,24.09 -3.18,30.94 -2.35,5.32 -3.77,8.53 -2.4,15.46 l -25.52,5 c -2.93,-14.93 1.16,-24.19 4.14,-30.96 2.37,-5.35 3.45,-7.8 1.86,-13.67 -1.37,-5.01 -2.28,-5.49 -6.12,-7.48 -5.23,-2.72 -13.99,-7.24 -17.97,-21.38 -3.14,-11.08 -2.42,-18.54 -1.88,-24.54 0.51,-5.3 0.82,-8.81 -1.35,-15.5 -3.94,-12.03 -4.35,-12.38 -14.65,-21.18 l -6.14,-5.29 17.11,-19.57 5.92,5.08" id="path36" style="fill:#100f0d;fill-opacity:1;fill-rule:nonzero;stroke:none"/><path d="m 1540,1431.32 c 2.74,-13.06 11.95,-18.92 18.66,-23.2 6.13,-3.91 8.17,-5.52 8.97,-9.59 1.27,-6.41 0.65,-8.19 -0.32,-10.9 -1.89,-5.42 -3.36,-11.06 -0.71,-20.91 4.65,-17.18 9.77,-23.01 26.87,-40.58 l 18.62,18.11 c -16.17,16.64 -17.51,18.57 -20.39,29.25 -0.77,2.86 -0.7,3.07 0.15,5.5 1.99,5.66 3.75,12.26 1.28,24.58 -3.02,15.32 -13.54,22.03 -20.49,26.46 -5.28,3.36 -6.77,4.56 -7.19,6.64 -0.88,4.14 0.18,7.28 2.45,13.44 2.76,7.47 6.2,16.78 4.81,30.15 l -25.84,-2.68 c 0.75,-7.35 -1.06,-12.26 -3.35,-18.45 -2.66,-7.19 -5.97,-16.16 -3.52,-27.82" id="path38" style="fill:#100f0d;fill-opacity:1;fill-rule:nonzero;stroke:none"/><path d="m 1522.55,1438.64 c 0.06,4.61 -0.57,10.05 -2.64,16.5 -5.78,17.8 -11.95,24.71 -19.08,32.71 l -7.17,8.35 -20.25,-16.29 8.01,-9.37 c 6.43,-7.2 9.66,-10.83 13.75,-23.42 2.14,-6.63 1.44,-10.06 0.35,-15.29 -1.39,-6.68 -3.3,-15.83 2.26,-28.87 6.16,-14.37 15.65,-18.02 21.92,-20.44 4.18,-1.6 4.94,-1.89 6.34,-5.06 2.45,-5.45 2.09,-7 1.47,-9.81 -0.82,-3.7 -2.24,-9.92 1.27,-18.14 4.48,-10.63 17.23,-35.71 38.39,-39.13 l 4.15,25.68 c -5.2,0.82 -13.38,11.18 -18.61,23.58 l -0.21,0.59 0.38,1.73 c 0.57,2.58 1.07,5.3 1.1,8.4 0.08,4.7 -0.89,10.3 -4.19,17.69 -5.8,12.99 -14.81,16.46 -20.76,18.75 -4.45,1.7 -5.5,2.11 -7.34,6.39 -1.25,2.93 -1.68,5 -1.66,7.11 0.03,1.84 0.42,3.71 0.94,6.24 0.68,3.32 1.51,7.26 1.58,12.1" id="path40" style="fill:#100f0d;fill-opacity:1;fill-rule:nonzero;stroke:none"/><path d="m 1690.26,1284.56 c -25.78,-20.26 -82.84,-21.05 -112.72,6.88 l -6.28,5.9 -7.89,-3.52 c -11.66,-5.21 -27.14,-5.44 -39.57,-5.62 -15.8,-0.23 -28.28,-0.4 -34.84,-10.28 -4.75,-7.19 -4.45,-17.05 0.85,-27.09 0.86,-1.62 1.88,-3.27 3.02,-4.9 l 56.7,-0.81 c -21.1,0.32 -32,10.41 -36,16.76 3.28,0.21 7.26,0.29 10.65,0.32 12.47,0.2 27.45,0.68 41.74,5.15 15.34,-12.03 34.16,-19.06 53.44,-21.89 14.2,16.22 37.93,21.91 51.7,21.7 l -0.27,-19.45 c 10.79,2.67 20.75,6.67 29.13,11.93 13.73,-6.13 32.94,-18.16 46.27,-26.52 11.61,-7.26 17.35,-10.83 21.17,-12.35 11.73,-4.72 60.79,-9.44 91.23,-9.89 l 0.37,26.01 c -34.36,0.47 -75.48,5.6 -81.95,8.02 -2.06,0.88 -10.34,6.07 -17.02,10.25 -17.34,10.87 -41.11,25.75 -57.4,31.45 l -6.73,2.34 -5.6,-4.39" id="path42" style="fill:#100f0d;fill-opacity:1;fill-rule:nonzero;stroke:none"/><path d="m 1549.53,1245.12 -56.7,0.81 -40.26,0.58 c -43.65,0.62 -48.69,-26.05 -48.83,-35.45 -0.04,-2.58 0.23,-5.91 1.06,-9.47 l 39.43,-0.57 c -11.59,0.17 -15.22,4.76 -15.14,9.62 0.07,4.85 4.57,10.13 23.13,9.87 l 155.64,-2.2 c 0.98,10.55 4.85,19.06 10.38,25.85 l -68.71,0.96" id="path44" style="fill:#100f0d;fill-opacity:1;fill-rule:nonzero;stroke:none"/><path d="m 1634.04,1217.94 3.73,-0.06 77.95,17.04 -44.2,8.47 -0.81,0.02 -0.02,-2.24 c -0.34,0.01 -32.53,-1.01 -36.65,-23.23" id="path46" style="fill:#100f0d;fill-opacity:1;fill-rule:nonzero;stroke:none"/><path d="m 1389.64,1201.8 c -25.06,0.36 -42.18,-19.07 -42.43,-37.45 -0.25,-17.51 15.02,-38.9 42.62,-39.29 l 8.09,-0.11 c 1.99,9.96 10.15,24.06 39.8,25.26 l 0,0.17 -47.51,0.67 c -9.73,0.14 -16.84,9.81 -17,12.98 0.03,3.39 4.9,11.94 16.07,11.78 l 168.86,-2.41 0.38,26 -114.29,1.62 -39.43,0.57 -15.16,0.21" id="path48" style="fill:#100f0d;fill-opacity:1;fill-rule:nonzero;stroke:none"/><path d="m 1397.92,1124.95 c -0.43,-2.1 -0.6,-4.05 -0.61,-5.62 -0.31,-21.32 18.22,-38.94 50.32,-39.4 l 0.6,0 c 5.09,14.33 22.99,24.23 46.64,25.17 l 0,0.16 -46.86,0.66 c -16.11,0.24 -24.78,8.74 -24.71,13.03 0.05,3.69 10.02,5.5 19.83,5.36 l 114.29,-1.62 0.37,25.99 -114.28,1.63 c -2.04,0.01 -3.94,-0.02 -5.79,-0.1 -29.65,-1.2 -37.81,-15.3 -39.8,-25.26" id="path50" style="fill:#100f0d;fill-opacity:1;fill-rule:nonzero;stroke:none"/><path d="m 1448.23,1079.93 c -0.92,-2.61 -1.48,-5.32 -1.51,-8.19 -0.23,-16.3 14.13,-34.18 46.73,-37.38 23.59,-2.29 125.51,-6.96 144.2,-7.23 15.2,-0.2 79.09,0.94 113.6,10.46 10.28,2.87 18.89,6.72 27.22,10.46 17.99,8.05 36.58,16.39 76.75,15.81 l 0.37,26 c -45.92,0.65 -68.15,-9.31 -87.75,-18.1 -7.79,-3.5 -15.14,-6.78 -23.51,-9.1 -29,-8.01 -88.09,-9.78 -106.34,-9.54 -17.24,0.25 -119.17,4.89 -142.03,7.12 -16.52,1.61 -23.29,8.05 -23.25,11.13 0.61,1.58 8.64,8.08 26.94,7.82 l 104.67,-1.48 -24.67,26.35 -79.64,1.13 c -1.74,0.02 -3.45,-0.02 -5.14,-0.09 -23.65,-0.94 -41.55,-10.84 -46.64,-25.17" id="path52" style="fill:#100f0d;fill-opacity:1;fill-rule:nonzero;stroke:none"/><path d="m 1619.36,1245.46 c -0.38,-0.43 -0.75,-0.85 -1.12,-1.3 -5.53,-6.79 -9.4,-15.3 -10.38,-25.85 -0.14,-1.45 -0.23,-2.92 -0.25,-4.45 -0.34,-24.19 11.77,-66.53 96.91,-78.52 l 3.63,25.74 c -28.06,3.95 -75.06,16.03 -74.56,52.41 0.02,1.57 0.18,3.05 0.45,4.45 4.12,22.22 36.31,23.24 36.65,23.23 l 0.02,2.24 0.08,4.3 0.27,19.45 c -13.77,0.21 -37.5,-5.48 -51.7,-21.7" id="path54" style="fill:#100f0d;fill-opacity:1;fill-rule:nonzero;stroke:none"/></g></g></svg>