<?xml version="1.0" encoding="UTF-8" standalone="no"?>
<svg xmlns:dc="http://purl.org/dc/elements/1.1/" xmlns:cc="http://creativecommons.org/ns#" xmlns:rdf="http://www.w3.org/1999/02/22-rdf-syntax-ns#" xmlns:svg="http://www.w3.org/2000/svg" xmlns="http://www.w3.org/2000/svg" width="70" height="70" id="svg2" xml:space="preserve"><defs id="defs6"/><g transform="matrix(1.25,0,0,-1.25,0,70)" id="g10"><g transform="scale(0.022,0.022)" id="g12"><path d="M 2246.88,1220.13 C 2162.32,1135.59 1304.65,277.891 1220.1,193.332 1135.55,277.891 277.875,1135.59 193.328,1220.13 c 84.547,84.56 942.222,942.25 1026.762,1026.79 84.55,-84.54 942.23,-942.23 1026.79,-1026.79 z M 0,1220.13 1220.1,0 2440.2,1220.13 1220.09,2440.25 0,1220.13" id="path14" style="fill:#ef2f32;fill-opacity:1;fill-rule:nonzero;stroke:none"/><path d="m 1184,1829.61 -0.4,-120.73 -9.33,-90.34 -13.75,-55.5 -28.78,-64.83 -32.4,65.23 -8.92,59.14 -18.64,47.81 -27.55,29.17 -41.73,10.13 10.54,-53.87 -11.36,-55.12 -8.492,-70.88 -0.809,-71.71 18.231,-54.29 -37.274,23.9 -51.856,74.54 -44.964,45.78 8.91,-92.77 0.804,-71.3 7.696,-61.99 23.09,-62.39 29.582,-62.78 -73.328,10.53 -40.922,31.58 -25.922,34.45 -39.707,40.92 9.312,-62.79 64.012,-223.22 44.566,-79.831 73.735,-53.058 104.936,-43.36 165.66,-10.543 -77.75,14.192 -63.2,30.789 -64.02,76.172 -39.29,90.329 40.92,-29.97 38.09,-13.37 69.67,-8.09 -38.48,49.41 -21.08,36.06 -15.39,44.97 10.13,42.53 2.43,44.98 17.42,-45.38 24.72,-35.65 73.33,-40.51 -10.54,61.18 -0.81,46.99 43.35,124.37 0,86.7 43.3,-42.95 41.3,-62.39 20.69,-86.28 -0.42,-128.84 34.84,36.06 62,40.92 21.06,47.39 0,-89.52 -22.69,-67.26 -26.34,-36.04 -27.56,-27.56 47.81,-0.41 42.15,11.75 49.01,31.21 -50.23,-94.008 -66.05,-64.821 -38.07,-28.351 -27.41,-15.66 58.23,0 63.4,11.05 66.33,32.43 62.64,43.5 52.34,83.27 32.43,106.15 10.23,151.98 -11.71,-53.96 -40.53,-28 -73.72,-21.36 41.27,61.17 22.12,43.49 20.54,85.24 -9.77,60.44 -22.82,80.18 -34.52,-67.1 -41.48,-41.48 -48.74,-27.57 28.11,69.32 0.86,91.62 -10.58,91.04 -44.28,86.32 -11.14,-106.37 -21.71,-76 -30.91,-31.2 -32.3,-11.97 10.02,64.61 -7.78,56.79 -43.73,123.9 -65.15,121.68 -21.85,105.88 -22.29,-66.44 -11.34,-49.43" id="path16" style="fill:#100f0d;fill-opacity:1;fill-rule:nonzero;stroke:none"/><path d="m 873.066,691.488 731.645,0 0,75.1406 -731.645,0 0,-75.1406 z" id="path18" style="fill:#100f0d;fill-opacity:1;fill-rule:nonzero;stroke:none"/></g></g></svg>