<?xml version="1.0" encoding="UTF-8" standalone="no"?>
<svg xmlns:dc="http://purl.org/dc/elements/1.1/" xmlns:cc="http://creativecommons.org/ns#" xmlns:rdf="http://www.w3.org/1999/02/22-rdf-syntax-ns#" xmlns:svg="http://www.w3.org/2000/svg" xmlns="http://www.w3.org/2000/svg" width="70" height="70" id="svg1" xml:space="preserve"><defs id="defs6"/><g transform="matrix(1.25,0,0,-1.25,0,70)" id="g10"><g transform="scale(0.022,0.022)" id="g12"><path d="M 2246.88,1220.13 C 2162.32,1135.59 1304.65,277.891 1220.1,193.332 1135.55,277.891 277.875,1135.59 193.328,1220.13 c 84.547,84.56 942.222,942.25 1026.762,1026.79 84.55,-84.54 942.23,-942.23 1026.79,-1026.79 z M 0,1220.13 1220.1,0 2440.2,1220.13 1220.09,2440.25 0,1220.13" id="path14" style="fill:#ef2f32;fill-opacity:1;fill-rule:nonzero;stroke:none"/><path d="m 1362.65,1861.25 -33.19,15.17 -173.06,-493.54 c 10.28,-3.68 20.24,-8.37 29.55,-13.99 l 176.7,492.36" id="path16" style="fill:#100f0d;fill-opacity:1;fill-rule:nonzero;stroke:none"/><path d="m 1338.94,1624.14 -17.07,10.43 -134.84,-266.37 c 0.73,-0.45 1.44,-0.91 2.16,-1.36 l 149.75,257.3" id="path18" style="fill:#100f0d;fill-opacity:1;fill-rule:nonzero;stroke:none"/><path d="m 1152.01,1384.42 102.52,318.44 -18.97,11.37 -84.42,-329.51 c 0.29,-0.1 0.58,-0.21 0.87,-0.3" id="path20" style="fill:#100f0d;fill-opacity:1;fill-rule:nonzero;stroke:none"/><path d="m 1174.4,1593.44 14.74,21.5 25.47,27.73 -14.03,45.42 -19.25,0.34 -8.31,-21.15 -16.3,6.42 -8.32,-40.39 17.34,-8.15 8.66,-31.72" id="path22" style="fill:#100f0d;fill-opacity:1;fill-rule:nonzero;stroke:none"/><path d="m 1331.08,1571.31 -10.78,-15.14 -6.22,-31.5 21.76,-18.86 15.56,18.86 4.35,21.35 -9.54,25.5 -7.46,-7.88 -7.67,7.67" id="path24" style="fill:#100f0d;fill-opacity:1;fill-rule:nonzero;stroke:none"/><path d="m 1241.42,1359.64 -2.58,6.02 -20.78,-22.65 c 1.11,-1.19 2.24,-2.38 3.31,-3.6 l 20.05,20.23" id="path26" style="fill:#100f0d;fill-opacity:1;fill-rule:nonzero;stroke:none"/><path d="m 1282.05,1400.67 299.06,301.92 -17.2,17.21 -303.24,-330.36 15.82,11.11 5.56,0.12" id="path28" style="fill:#100f0d;fill-opacity:1;fill-rule:nonzero;stroke:none"/><path d="m 1131.06,1248.24 77.17,77.91 -5.59,0.06 -71.58,-77.97" id="path30" style="fill:#100f0d;fill-opacity:1;fill-rule:nonzero;stroke:none"/><path d="m 1580.25,1549.43 -399.27,-281.41 399.27,247.84 0,33.57" id="path32" style="fill:#100f0d;fill-opacity:1;fill-rule:nonzero;stroke:none"/><path d="m 1456.35,1365.28 -1.72,19.78 -234.93,-111 236.65,91.22" id="path34" style="fill:#100f0d;fill-opacity:1;fill-rule:nonzero;stroke:none"/><path d="m 1243.79,1354.08 31.84,14.63 6.89,-24.09 50.77,41.3 28.4,52.49 -44.75,-37 -34.89,-0.74 -5.56,-0.12 -15.82,-11.11 -24.63,-17.29 2.8,-6.49 2.58,-6.02 2.37,-5.56" id="path36" style="fill:#100f0d;fill-opacity:1;fill-rule:nonzero;stroke:none"/><path d="m 1524.34,1421.21 -7.76,-20.66 71.43,-8.6 -47.34,47.32 -16.33,-18.06" id="path38" style="fill:#100f0d;fill-opacity:1;fill-rule:nonzero;stroke:none"/><path d="m 1720.53,1508.12 48.18,-32.7 -0.86,58.52 -31.83,54.21 -14.63,-45.6 -38.72,-1.73 -11.2,-8.61 -5.16,-32.7 30.12,-17.21 24.1,25.82" id="path40" style="fill:#100f0d;fill-opacity:1;fill-rule:nonzero;stroke:none"/><path d="m 1877.6,1412.58 -9.78,20.61 -703.06,-182.28 712.84,161.67" id="path42" style="fill:#100f0d;fill-opacity:1;fill-rule:nonzero;stroke:none"/><path d="m 1190.97,1229.53 772.33,104.92 0,26.04 -772.41,-130.89 0.08,-0.07" id="path44" style="fill:#100f0d;fill-opacity:1;fill-rule:nonzero;stroke:none"/><path d="m 1471.81,1205.34 7.92,-8.53 60.93,-1.93 24.46,27.82 -85.72,37.98 -22.78,-21.71 -32.56,-10.85 7.7,-29.78 13.3,-0.43 26.75,7.43" id="path46" style="fill:#100f0d;fill-opacity:1;fill-rule:nonzero;stroke:none"/><path d="m 1432.75,1194.49 1.02,0.29 -1.1,0.04 0.08,-0.33" id="path48" style="fill:#100f0d;fill-opacity:1;fill-rule:nonzero;stroke:none"/><path d="m 1485.92,1190.15 47.73,-3.25 2.66,3.02 -52.49,2.49 2.1,-2.26" id="path50" style="fill:#100f0d;fill-opacity:1;fill-rule:nonzero;stroke:none"/><path d="m 1432.67,1194.82 1.1,-0.04 50.05,-2.37 52.49,-2.49 339.12,-16.05 -14.11,10.85 -320.66,10.16 -60.93,1.93 -34.67,1.1 -13.3,0.43 -214.15,6.77 0.07,-0.11 214.99,-10.18" id="path52" style="fill:#100f0d;fill-opacity:1;fill-rule:nonzero;stroke:none"/><path d="m 1344.4,1142.98 3.83,5.3 36,-15.56 126.63,-32.63 5.43,36.9 -276.91,38.77 c -0.66,-1.74 -1.34,-3.47 -2.07,-5.19 l 107.09,-27.59" id="path54" style="fill:#100f0d;fill-opacity:1;fill-rule:nonzero;stroke:none"/><path d="m 1344.4,1142.98 -4.66,-6.49 -32.59,6.04 -9.03,-16.44 32.85,-24.38 86.55,-14.78 1.37,20.82 -14.25,16.15 -20.41,8.82 -36,15.56 -3.83,-5.3" id="path56" style="fill:#100f0d;fill-opacity:1;fill-rule:nonzero;stroke:none"/><path d="m 1409.84,1038.19 -10.13,20.54 -171.17,94.09 c -0.5,-0.89 -1,-1.79 -1.53,-2.67 l 182.83,-111.96" id="path58" style="fill:#100f0d;fill-opacity:1;fill-rule:nonzero;stroke:none"/><path d="m 1132.62,1206.01 22.36,-17.46 0.92,0.62 -23.28,16.84" id="path60" style="fill:#100f0d;fill-opacity:1;fill-rule:nonzero;stroke:none"/><path d="m 1414.98,985.5 9.36,9.359 -202.81,146.801 c -0.76,-1.1 -1.53,-2.2 -2.31,-3.28 L 1414.98,985.5" id="path62" style="fill:#100f0d;fill-opacity:1;fill-rule:nonzero;stroke:none"/><path d="m 1363.31,999.73 -9.35,21.16 -144.14,105.79 c -0.57,-0.63 -1.14,-1.26 -1.71,-1.89 l 155.2,-125.06" id="path64" style="fill:#100f0d;fill-opacity:1;fill-rule:nonzero;stroke:none"/><path d="m 917.812,1049.34 14.586,-16.2 16.2,7.3 8.105,-8.11 16.207,9.72 6.481,21.87 -15.399,9.74 -23.566,0 -19.313,-17.71 -3.301,-6.61" id="path66" style="fill:#100f0d;fill-opacity:1;fill-rule:nonzero;stroke:none"/><path d="m 768.727,948.059 17.011,-16.207 135.375,124.098 19.313,17.71 58.683,53.79 c -0.793,0.91 -1.566,1.83 -2.347,2.77 L 768.727,948.059" id="path68" style="fill:#100f0d;fill-opacity:1;fill-rule:nonzero;stroke:none"/><path d="m 784.117,1050.15 0.809,-10.53 195.164,114.88 c -0.231,0.41 -0.442,0.84 -0.664,1.25 l -195.309,-105.6" id="path70" style="fill:#100f0d;fill-opacity:1;fill-rule:nonzero;stroke:none"/><path d="m 855.422,1128.76 -1.621,-12.16 124.558,41.16 c -0.582,1.09 -1.164,2.2 -1.718,3.32 l -121.219,-32.32" id="path72" style="fill:#100f0d;fill-opacity:1;fill-rule:nonzero;stroke:none"/><path d="m 817.34,1095.53 0,14.58 -42.945,2.43 25.117,-24.3 17.828,7.29" id="path74" style="fill:#100f0d;fill-opacity:1;fill-rule:nonzero;stroke:none"/><path d="m 707.145,1033.95 -24.313,15.39 -8.91,-29.17 24.766,-34.041 1.16,-1.598 8.105,22.679 15.391,0.81 9.722,10.53 4.868,15.4 -23.5,8.92 -7.289,-8.92" id="path76" style="fill:#100f0d;fill-opacity:1;fill-rule:nonzero;stroke:none"/><path d="m 613.148,1089.05 -2.433,-12.16 363.312,89.68 c -0.3,0.68 -0.586,1.37 -0.875,2.04 l -360.004,-79.56" id="path78" style="fill:#100f0d;fill-opacity:1;fill-rule:nonzero;stroke:none"/><path d="m 488.363,1127.95 -0.808,-10.54 480.379,64.85 c -0.082,0.24 -0.157,0.47 -0.235,0.7 l -479.336,-55.01" id="path80" style="fill:#100f0d;fill-opacity:1;fill-rule:nonzero;stroke:none"/><path d="m 666.625,1173.32 0,-9.73 69.687,-6.47 -44.57,34.83 -25.117,-18.63" id="path82" style="fill:#100f0d;fill-opacity:1;fill-rule:nonzero;stroke:none"/><path d="m 847.32,1207.35 -1.75,3.14 -44.785,1.8 -9.379,-15.48 25.934,-18.63 28.351,-4.86 8.918,14.58 17.825,0 -1.903,21.59 -15.488,0.61 -7.723,-2.75" id="path84" style="fill:#100f0d;fill-opacity:1;fill-rule:nonzero;stroke:none"/><path d="m 870.004,1215.46 -5.844,-2.09 6.067,-0.41 -0.223,2.5" id="path86" style="fill:#100f0d;fill-opacity:1;fill-rule:nonzero;stroke:none"/><path d="m 839.219,1221.94 -31.602,1.61 -3.769,-6.2 39.359,-2.6 -3.988,7.19" id="path88" style="fill:#100f0d;fill-opacity:1;fill-rule:nonzero;stroke:none"/><path d="m 870.227,1212.96 -6.067,0.41 -20.953,1.38 -39.359,2.6 -192.321,12.69 9.723,-10.53 179.535,-7.22 44.785,-1.8 9.473,-0.39 15.488,-0.61 92.18,-3.7 0.402,1.04 -92.886,6.13" id="path90" style="fill:#100f0d;fill-opacity:1;fill-rule:nonzero;stroke:none"/><path d="m 1004.51,1204.11 -40.377,2.65 4.676,-1.22 35.701,-1.43" id="path92" style="fill:#100f0d;fill-opacity:1;fill-rule:nonzero;stroke:none"/><path d="m 823.816,1260.02 -12.152,-10.53 192.036,-29.98 -179.884,40.51" id="path94" style="fill:#100f0d;fill-opacity:1;fill-rule:nonzero;stroke:none"/><path d="m 879.727,1297.29 3.242,-8.1 128.021,-61.59 -131.263,69.69" id="path96" style="fill:#100f0d;fill-opacity:1;fill-rule:nonzero;stroke:none"/><path d="m 908.086,1324.03 7.297,-14.58 49.133,-33 c 0.351,1.42 0.703,2.83 1.093,4.23 l -57.523,43.35" id="path98" style="fill:#100f0d;fill-opacity:1;fill-rule:nonzero;stroke:none"/><path d="m 1026.39,1234.9 -24.64,18.56 -2.773,-0.16 27.413,-18.4" id="path100" style="fill:#100f0d;fill-opacity:1;fill-rule:nonzero;stroke:none"/><path d="m 1181.18,1237.32 0,-31.14 -25.28,-17.01 -0.92,-0.62 -20.09,-13.51 -63.13,53.86 -44.61,-38.72 -58.341,15.36 -4.676,1.22 -0.949,0.26 -0.071,-0.19 -0.402,-1.04 -0.504,-1.32 c 1.352,-7.37 3.215,-14.55 5.492,-21.51 0.078,-0.23 0.153,-0.46 0.235,-0.7 1.543,-4.66 3.289,-9.21 5.218,-13.65 0.289,-0.67 0.575,-1.36 0.875,-2.04 0.836,-1.85 1.715,-3.68 2.614,-5.49 0.554,-1.12 1.136,-2.23 1.718,-3.32 0.356,-0.67 0.703,-1.35 1.067,-2.01 0.222,-0.41 0.433,-0.84 0.664,-1.25 4.828,-8.68 10.433,-16.79 16.672,-24.28 0.781,-0.94 1.554,-1.86 2.347,-2.77 26.511,-30.3 64.051,-49.21 105.691,-49.21 40.41,0 76.96,17.82 103.31,46.55 0.57,0.63 1.14,1.26 1.71,1.89 3.31,3.73 6.44,7.64 9.4,11.7 0.78,1.08 1.55,2.18 2.31,3.28 1.91,2.77 3.75,5.58 5.48,8.49 0.53,0.88 1.03,1.78 1.53,2.67 3.27,5.69 6.2,11.61 8.77,17.75 0.73,1.72 1.41,3.45 2.07,5.19 1.66,4.4 3.18,8.89 4.48,13.48 l -21.44,7.68 -4.74,8.08 -0.07,0.11 -3.6,6.13 -23.04,18.29 -0.08,0.07 -9.71,7.72" id="path102" style="fill:#100f0d;fill-opacity:1;fill-rule:nonzero;stroke:none"/><path d="m 1104.8,1392.19 c -65.64,0 -121.132,-46.98 -139.191,-111.51 -0.39,-1.4 -0.742,-2.81 -1.093,-4.23 -0.18,-0.7 -0.375,-1.39 -0.539,-2.08 l 20.253,-21.89 14.747,0.82 2.773,0.16 42.23,2.38 58.93,-29.46 33.66,40.39 -15.15,37.04 46.29,-5.04 6.74,27.77 28.19,-0.33 5.59,-0.06 23.45,-0.28 c -3.1,4.72 -6.57,9.22 -10.31,13.54 -1.07,1.22 -2.2,2.41 -3.31,3.6 -8.44,9.03 -18.19,17.02 -28.87,23.83 -0.72,0.45 -1.43,0.91 -2.16,1.36 -0.36,0.23 -0.72,0.46 -1.08,0.69 -9.31,5.62 -19.27,10.31 -29.55,13.99 -1.46,0.52 -2.91,1.05 -4.39,1.54 -0.29,0.09 -0.58,0.2 -0.87,0.3 -15.11,4.84 -30.85,7.47 -46.34,7.47" id="path104" style="fill:#100f0d;fill-opacity:1;fill-rule:nonzero;stroke:none"/></g></g>
</svg>