<?xml version="1.0" encoding="UTF-8" standalone="no"?>
<!DOCTYPE svg PUBLIC "-//W3C//DTD SVG 1.1//EN"
 "http://www.w3.org/Graphics/SVG/1.1/DTD/svg11.dtd">
<!-- Generated by graphviz version 2.38.0 (20140413.2041)
 -->
<!-- Title: G Pages: 1 -->
<svg width="485pt" height="1788pt"
 viewBox="0.00 0.00 485.00 1788.00" xmlns="http://www.w3.org/2000/svg" xmlns:xlink="http://www.w3.org/1999/xlink">
<g id="graph0" class="graph" transform="scale(1 1) rotate(0) translate(4 1784)">
<title>G</title>
<polygon fill="white" stroke="none" points="-4,4 -4,-1784 481,-1784 481,4 -4,4"/>
<g id="clust1" class="cluster"><title>cluster_Global</title>
<path fill="none" stroke="gray" d="M20,-8C20,-8 457,-8 457,-8 463,-8 469,-14 469,-20 469,-20 469,-1760 469,-1760 469,-1766 463,-1772 457,-1772 457,-1772 20,-1772 20,-1772 14,-1772 8,-1766 8,-1760 8,-1760 8,-20 8,-20 8,-14 14,-8 20,-8"/>
<text text-anchor="middle" x="238.5" y="-1759.2" font-family="Times,serif" font-size="11.00" fill="gray">Global</text>
</g>
<g id="clust2" class="cluster"><title>cluster_\Elabftw</title>
<path fill="none" stroke="gray" d="M28,-16C28,-16 449,-16 449,-16 455,-16 461,-22 461,-28 461,-28 461,-1732 461,-1732 461,-1738 455,-1744 449,-1744 449,-1744 28,-1744 28,-1744 22,-1744 16,-1738 16,-1732 16,-1732 16,-28 16,-28 16,-22 22,-16 28,-16"/>
<text text-anchor="middle" x="238.5" y="-1731.2" font-family="Times,serif" font-size="11.00" fill="gray">Elabftw</text>
</g>
<g id="clust3" class="cluster"><title>cluster_\Elabftw\Elabftw</title>
<path fill="none" stroke="gray" d="M36,-24C36,-24 441,-24 441,-24 447,-24 453,-30 453,-36 453,-36 453,-1704 453,-1704 453,-1710 447,-1716 441,-1716 441,-1716 36,-1716 36,-1716 30,-1716 24,-1710 24,-1704 24,-1704 24,-36 24,-36 24,-30 30,-24 36,-24"/>
<text text-anchor="middle" x="238.5" y="-1703.2" font-family="Times,serif" font-size="11.00" fill="gray">Elabftw</text>
</g>
<!-- \\Elabftw\\Elabftw\\Database -->
<g id="node1" class="node"><title>\\Elabftw\\Elabftw\\Database</title>
<polygon fill="none" stroke="black" points="415,-716 344,-716 344,-680 415,-680 415,-716"/>
<text text-anchor="middle" x="379.5" y="-695.2" font-family="Courier,monospace" font-size="11.00">Database</text>
</g>
<!-- \\Elabftw\\Elabftw\\Entity -->
<g id="node13" class="node"><title>\\Elabftw\\Elabftw\\Entity</title>
<polygon fill="none" stroke="black" points="228.5,-689 171.5,-689 171.5,-653 228.5,-653 228.5,-689"/>
<text text-anchor="middle" x="200" y="-668.2" font-family="Courier,monospace" font-size="11.00">Entity</text>
</g>
<!-- \\Elabftw\\Elabftw\\Database&#45;&gt;\\Elabftw\\Elabftw\\Entity -->
<g id="edge1" class="edge"><title>\\Elabftw\\Elabftw\\Database&#45;&gt;\\Elabftw\\Elabftw\\Entity</title>
<path fill="none" stroke="black" d="M343.855,-692.73C313.58,-688.125 269.722,-681.453 238.602,-676.72"/>
<polygon fill="none" stroke="black" points="238.987,-673.238 228.575,-675.194 237.934,-680.159 238.987,-673.238"/>
</g>
<!-- \\Elabftw\\Elabftw\\MolViewer -->
<g id="node2" class="node"><title>\\Elabftw\\Elabftw\\MolViewer</title>
<polygon fill="none" stroke="black" points="418,-1634 341,-1634 341,-1598 418,-1598 418,-1634"/>
<text text-anchor="middle" x="379.5" y="-1613.2" font-family="Courier,monospace" font-size="11.00">MolViewer</text>
</g>
<!-- \\Elabftw\\Elabftw\\Status -->
<g id="node3" class="node"><title>\\Elabftw\\Elabftw\\Status</title>
<polygon fill="none" stroke="black" points="228.5,-1661 171.5,-1661 171.5,-1625 228.5,-1625 228.5,-1661"/>
<text text-anchor="middle" x="200" y="-1640.2" font-family="Courier,monospace" font-size="11.00">Status</text>
</g>
<!-- \\Elabftw\\Elabftw\\Panel -->
<g id="node21" class="node"><title>\\Elabftw\\Elabftw\\Panel</title>
<polygon fill="none" stroke="black" points="86,-1323 32,-1323 32,-1287 86,-1287 86,-1323"/>
<text text-anchor="middle" x="59" y="-1302.2" font-family="Courier,monospace" font-size="11.00">Panel</text>
</g>
<!-- \\Elabftw\\Elabftw\\Status&#45;&gt;\\Elabftw\\Elabftw\\Panel -->
<g id="edge2" class="edge"><title>\\Elabftw\\Elabftw\\Status&#45;&gt;\\Elabftw\\Elabftw\\Panel</title>
<path fill="none" stroke="black" d="M171.214,-1628.49C166.29,-1624.94 161.596,-1620.76 158,-1616 91.0112,-1527.3 69.1313,-1391.72 62.5717,-1333.34"/>
<polygon fill="none" stroke="black" points="66.016,-1332.63 61.4864,-1323.05 59.0546,-1333.36 66.016,-1332.63"/>
</g>
<!-- \\Elabftw\\Elabftw\\Users -->
<g id="node4" class="node"><title>\\Elabftw\\Elabftw\\Users</title>
<polygon fill="none" stroke="black" points="406.5,-1688 352.5,-1688 352.5,-1652 406.5,-1652 406.5,-1688"/>
<text text-anchor="middle" x="379.5" y="-1667.2" font-family="Courier,monospace" font-size="11.00">Users</text>
</g>
<!-- \\Elabftw\\Elabftw\\Auth -->
<g id="node6" class="node"><title>\\Elabftw\\Elabftw\\Auth</title>
<polygon fill="none" stroke="black" points="227,-1607 173,-1607 173,-1571 227,-1571 227,-1607"/>
<text text-anchor="middle" x="200" y="-1586.2" font-family="Courier,monospace" font-size="11.00">Auth</text>
</g>
<!-- \\Elabftw\\Elabftw\\Users&#45;&gt;\\Elabftw\\Elabftw\\Auth -->
<g id="edge3" class="edge"><title>\\Elabftw\\Elabftw\\Users&#45;&gt;\\Elabftw\\Elabftw\\Auth</title>
<path fill="none" stroke="black" d="M352.326,-1659.39C340.553,-1654.53 326.519,-1648.61 314,-1643 287.782,-1631.26 258.527,-1617.25 236.353,-1606.45"/>
<polygon fill="none" stroke="black" points="237.834,-1603.27 227.313,-1602.03 234.76,-1609.56 237.834,-1603.27"/>
</g>
<!-- \\Elabftw\\Elabftw\\Links -->
<g id="node5" class="node"><title>\\Elabftw\\Elabftw\\Links</title>
<polygon fill="none" stroke="black" points="406.5,-1526 352.5,-1526 352.5,-1490 406.5,-1490 406.5,-1526"/>
<text text-anchor="middle" x="379.5" y="-1505.2" font-family="Courier,monospace" font-size="11.00">Links</text>
</g>
<!-- \\Elabftw\\Elabftw\\Comments -->
<g id="node7" class="node"><title>\\Elabftw\\Elabftw\\Comments</title>
<polygon fill="none" stroke="black" points="415,-500 344,-500 344,-464 415,-464 415,-500"/>
<text text-anchor="middle" x="379.5" y="-479.2" font-family="Courier,monospace" font-size="11.00">Comments</text>
</g>
<!-- \\Elabftw\\Elabftw\\Comments&#45;&gt;\\Elabftw\\Elabftw\\Entity -->
<g id="edge4" class="edge"><title>\\Elabftw\\Elabftw\\Comments&#45;&gt;\\Elabftw\\Elabftw\\Entity</title>
<path fill="none" stroke="black" d="M343.703,-492.409C333.465,-496.525 322.691,-501.985 314,-509 267.414,-546.602 231.814,-608.261 213.882,-643.677"/>
<polygon fill="none" stroke="black" points="210.602,-642.414 209.298,-652.928 216.874,-645.521 210.602,-642.414"/>
</g>
<!-- \\Elabftw\\Elabftw\\Teams -->
<g id="node8" class="node"><title>\\Elabftw\\Elabftw\\Teams</title>
<polygon fill="none" stroke="black" points="227,-1161 173,-1161 173,-1125 227,-1125 227,-1161"/>
<text text-anchor="middle" x="200" y="-1140.2" font-family="Courier,monospace" font-size="11.00">Teams</text>
</g>
<!-- \\Elabftw\\Elabftw\\Teams&#45;&gt;\\Elabftw\\Elabftw\\Panel -->
<g id="edge5" class="edge"><title>\\Elabftw\\Elabftw\\Teams&#45;&gt;\\Elabftw\\Elabftw\\Panel</title>
<path fill="none" stroke="black" d="M183.325,-1161.27C158.715,-1189.95 110.903,-1245.67 82.5845,-1278.68"/>
<polygon fill="none" stroke="black" points="79.6864,-1276.68 75.8309,-1286.55 84.9989,-1281.24 79.6864,-1276.68"/>
</g>
<!-- \\Elabftw\\Elabftw\\Import -->
<g id="node9" class="node"><title>\\Elabftw\\Elabftw\\Import</title>
<polygon fill="none" stroke="black" points="242,-419 158,-419 158,-383 242,-383 242,-419"/>
<text text-anchor="start" x="166" y="-404.2" font-family="Courier,monospace" font-size="11.00">«abstract»</text>
<text text-anchor="start" x="179.5" y="-392.2" font-family="Courier,monospace" font-size="11.00">Import</text>
</g>
<!-- \\Elabftw\\Elabftw\\ExperimentsView -->
<g id="node10" class="node"><title>\\Elabftw\\Elabftw\\ExperimentsView</title>
<polygon fill="none" stroke="black" points="438.5,-1472 320.5,-1472 320.5,-1436 438.5,-1436 438.5,-1472"/>
<text text-anchor="middle" x="379.5" y="-1451.2" font-family="Courier,monospace" font-size="11.00">ExperimentsView</text>
</g>
<!-- \\Elabftw\\Elabftw\\EntityView -->
<g id="node41" class="node"><title>\\Elabftw\\Elabftw\\EntityView</title>
<polygon fill="none" stroke="black" points="242,-1445 158,-1445 158,-1409 242,-1409 242,-1445"/>
<text text-anchor="middle" x="200" y="-1424.2" font-family="Courier,monospace" font-size="11.00">EntityView</text>
</g>
<!-- \\Elabftw\\Elabftw\\ExperimentsView&#45;&gt;\\Elabftw\\Elabftw\\EntityView -->
<g id="edge6" class="edge"><title>\\Elabftw\\Elabftw\\ExperimentsView&#45;&gt;\\Elabftw\\Elabftw\\EntityView</title>
<path fill="none" stroke="black" d="M320.38,-1445.16C298.397,-1441.82 273.557,-1438.04 252.25,-1434.8"/>
<polygon fill="none" stroke="black" points="252.515,-1431.3 242.102,-1433.25 251.462,-1438.22 252.515,-1431.3"/>
</g>
<!-- \\Elabftw\\Elabftw\\Make -->
<g id="node11" class="node"><title>\\Elabftw\\Elabftw\\Make</title>
<polygon fill="none" stroke="black" points="242,-257 158,-257 158,-221 242,-221 242,-257"/>
<text text-anchor="start" x="166" y="-242.2" font-family="Courier,monospace" font-size="11.00">«abstract»</text>
<text text-anchor="start" x="186" y="-230.2" font-family="Courier,monospace" font-size="11.00">Make</text>
</g>
<!-- \\Elabftw\\Elabftw\\TeamGroupsView -->
<g id="node12" class="node"><title>\\Elabftw\\Elabftw\\TeamGroupsView</title>
<polygon fill="none" stroke="black" points="435,-1364 324,-1364 324,-1328 435,-1328 435,-1364"/>
<text text-anchor="middle" x="379.5" y="-1343.2" font-family="Courier,monospace" font-size="11.00">TeamGroupsView</text>
</g>
<!-- \\Elabftw\\Elabftw\\Templates -->
<g id="node14" class="node"><title>\\Elabftw\\Elabftw\\Templates</title>
<polygon fill="none" stroke="black" points="418,-1310 341,-1310 341,-1274 418,-1274 418,-1310"/>
<text text-anchor="middle" x="379.5" y="-1289.2" font-family="Courier,monospace" font-size="11.00">Templates</text>
</g>
<!-- \\Elabftw\\Elabftw\\Revisions -->
<g id="node15" class="node"><title>\\Elabftw\\Elabftw\\Revisions</title>
<polygon fill="none" stroke="black" points="418,-1256 341,-1256 341,-1220 418,-1220 418,-1256"/>
<text text-anchor="middle" x="379.5" y="-1235.2" font-family="Courier,monospace" font-size="11.00">Revisions</text>
</g>
<!-- \\Elabftw\\Elabftw\\ItemsTypesView -->
<g id="node16" class="node"><title>\\Elabftw\\Elabftw\\ItemsTypesView</title>
<polygon fill="none" stroke="black" points="435,-1202 324,-1202 324,-1166 435,-1166 435,-1202"/>
<text text-anchor="middle" x="379.5" y="-1181.2" font-family="Courier,monospace" font-size="11.00">ItemsTypesView</text>
</g>
<!-- \\Elabftw\\Elabftw\\StatusView -->
<g id="node17" class="node"><title>\\Elabftw\\Elabftw\\StatusView</title>
<polygon fill="none" stroke="black" points="421.5,-1148 337.5,-1148 337.5,-1112 421.5,-1112 421.5,-1148"/>
<text text-anchor="middle" x="379.5" y="-1127.2" font-family="Courier,monospace" font-size="11.00">StatusView</text>
</g>
<!-- \\Elabftw\\Elabftw\\UploadsView -->
<g id="node18" class="node"><title>\\Elabftw\\Elabftw\\UploadsView</title>
<polygon fill="none" stroke="black" points="425,-1418 334,-1418 334,-1382 425,-1382 425,-1418"/>
<text text-anchor="middle" x="379.5" y="-1397.2" font-family="Courier,monospace" font-size="11.00">UploadsView</text>
</g>
<!-- \\Elabftw\\Elabftw\\UploadsView&#45;&gt;\\Elabftw\\Elabftw\\EntityView -->
<g id="edge7" class="edge"><title>\\Elabftw\\Elabftw\\UploadsView&#45;&gt;\\Elabftw\\Elabftw\\EntityView</title>
<path fill="none" stroke="black" d="M333.709,-1406.81C308.867,-1410.59 277.877,-1415.31 252.093,-1419.23"/>
<polygon fill="none" stroke="black" points="251.486,-1415.78 242.126,-1420.74 252.539,-1422.7 251.486,-1415.78"/>
</g>
<!-- \\Elabftw\\Elabftw\\SysconfigView -->
<g id="node19" class="node"><title>\\Elabftw\\Elabftw\\SysconfigView</title>
<polygon fill="none" stroke="black" points="431.5,-1040 327.5,-1040 327.5,-1004 431.5,-1004 431.5,-1040"/>
<text text-anchor="middle" x="379.5" y="-1019.2" font-family="Courier,monospace" font-size="11.00">SysconfigView</text>
</g>
<!-- \\Elabftw\\Elabftw\\Formkey -->
<g id="node20" class="node"><title>\\Elabftw\\Elabftw\\Formkey</title>
<polygon fill="none" stroke="black" points="411.5,-986 347.5,-986 347.5,-950 411.5,-950 411.5,-986"/>
<text text-anchor="middle" x="379.5" y="-965.2" font-family="Courier,monospace" font-size="11.00">Formkey</text>
</g>
<!-- \\Elabftw\\Elabftw\\ItemsTypes -->
<g id="node22" class="node"><title>\\Elabftw\\Elabftw\\ItemsTypes</title>
<polygon fill="none" stroke="black" points="242,-1499 158,-1499 158,-1463 242,-1463 242,-1499"/>
<text text-anchor="middle" x="200" y="-1478.2" font-family="Courier,monospace" font-size="11.00">ItemsTypes</text>
</g>
<!-- \\Elabftw\\Elabftw\\ItemsTypes&#45;&gt;\\Elabftw\\Elabftw\\Panel -->
<g id="edge8" class="edge"><title>\\Elabftw\\Elabftw\\ItemsTypes&#45;&gt;\\Elabftw\\Elabftw\\Panel</title>
<path fill="none" stroke="black" d="M168.356,-1462.86C164.685,-1460.11 161.133,-1457.13 158,-1454 121.107,-1417.09 90.3098,-1364.18 73.5762,-1332.35"/>
<polygon fill="none" stroke="black" points="76.5429,-1330.47 68.8433,-1323.19 70.3238,-1333.68 76.5429,-1330.47"/>
</g>
<!-- \\Elabftw\\Elabftw\\Tools -->
<g id="node23" class="node"><title>\\Elabftw\\Elabftw\\Tools</title>
<polygon fill="none" stroke="black" points="406.5,-932 352.5,-932 352.5,-896 406.5,-896 406.5,-932"/>
<text text-anchor="middle" x="379.5" y="-911.2" font-family="Courier,monospace" font-size="11.00">Tools</text>
</g>
<!-- \\Elabftw\\Elabftw\\Db -->
<g id="node24" class="node"><title>\\Elabftw\\Elabftw\\Db</title>
<polygon fill="none" stroke="black" points="406.5,-878 352.5,-878 352.5,-842 406.5,-842 406.5,-878"/>
<text text-anchor="middle" x="379.5" y="-857.2" font-family="Courier,monospace" font-size="11.00">Db</text>
</g>
<!-- \\Elabftw\\Elabftw\\TeamsView -->
<g id="node25" class="node"><title>\\Elabftw\\Elabftw\\TeamsView</title>
<polygon fill="none" stroke="black" points="418,-1094 341,-1094 341,-1058 418,-1058 418,-1094"/>
<text text-anchor="middle" x="379.5" y="-1073.2" font-family="Courier,monospace" font-size="11.00">TeamsView</text>
</g>
<!-- \\Elabftw\\Elabftw\\TeamsView&#45;&gt;\\Elabftw\\Elabftw\\Teams -->
<g id="edge9" class="edge"><title>\\Elabftw\\Elabftw\\TeamsView&#45;&gt;\\Elabftw\\Elabftw\\Teams</title>
<path fill="none" stroke="black" d="M340.857,-1090.21C310.137,-1101.8 267.024,-1118.08 236.81,-1129.48"/>
<polygon fill="none" stroke="black" points="235.215,-1126.34 227.095,-1133.15 237.687,-1132.89 235.215,-1126.34"/>
</g>
<!-- \\Elabftw\\Elabftw\\Experiments -->
<g id="node26" class="node"><title>\\Elabftw\\Elabftw\\Experiments</title>
<polygon fill="none" stroke="black" points="425,-662 334,-662 334,-626 425,-626 425,-662"/>
<text text-anchor="middle" x="379.5" y="-641.2" font-family="Courier,monospace" font-size="11.00">Experiments</text>
</g>
<!-- \\Elabftw\\Elabftw\\Experiments&#45;&gt;\\Elabftw\\Elabftw\\Entity -->
<g id="edge10" class="edge"><title>\\Elabftw\\Elabftw\\Experiments&#45;&gt;\\Elabftw\\Elabftw\\Entity</title>
<path fill="none" stroke="black" d="M333.709,-650.813C304.386,-655.274 266.496,-661.037 238.714,-665.263"/>
<polygon fill="none" stroke="black" points="237.96,-661.838 228.6,-666.802 239.013,-668.758 237.96,-661.838"/>
</g>
<!-- \\Elabftw\\Elabftw\\ImportZip -->
<g id="node27" class="node"><title>\\Elabftw\\Elabftw\\ImportZip</title>
<polygon fill="none" stroke="black" points="418,-392 341,-392 341,-356 418,-356 418,-392"/>
<text text-anchor="middle" x="379.5" y="-371.2" font-family="Courier,monospace" font-size="11.00">ImportZip</text>
</g>
<!-- \\Elabftw\\Elabftw\\ImportZip&#45;&gt;\\Elabftw\\Elabftw\\Import -->
<g id="edge11" class="edge"><title>\\Elabftw\\Elabftw\\ImportZip&#45;&gt;\\Elabftw\\Elabftw\\Import</title>
<path fill="none" stroke="black" d="M340.857,-379.726C315.117,-383.641 280.676,-388.88 252.413,-393.179"/>
<polygon fill="none" stroke="black" points="251.668,-389.752 242.308,-394.717 252.721,-396.673 251.668,-389.752"/>
</g>
<!-- \\Elabftw\\Elabftw\\MakeCsv -->
<g id="node28" class="node"><title>\\Elabftw\\Elabftw\\MakeCsv</title>
<polygon fill="none" stroke="black" points="411.5,-122 347.5,-122 347.5,-86 411.5,-86 411.5,-122"/>
<text text-anchor="middle" x="379.5" y="-101.2" font-family="Courier,monospace" font-size="11.00">MakeCsv</text>
</g>
<!-- \\Elabftw\\Elabftw\\MakeCsv&#45;&gt;\\Elabftw\\Elabftw\\Make -->
<g id="edge12" class="edge"><title>\\Elabftw\\Elabftw\\MakeCsv&#45;&gt;\\Elabftw\\Elabftw\\Make</title>
<path fill="none" stroke="black" d="M347.497,-113.743C336.362,-118.054 324.075,-123.802 314,-131 274.807,-158.998 278.425,-180.485 242,-212 241.021,-212.847 240.014,-213.688 238.986,-214.522"/>
<polygon fill="none" stroke="black" points="236.656,-211.896 230.796,-220.722 240.881,-217.477 236.656,-211.896"/>
</g>
<!-- \\Elabftw\\Elabftw\\BannedUsers -->
<g id="node29" class="node"><title>\\Elabftw\\Elabftw\\BannedUsers</title>
<polygon fill="none" stroke="black" points="425,-608 334,-608 334,-572 425,-572 425,-608"/>
<text text-anchor="middle" x="379.5" y="-587.2" font-family="Courier,monospace" font-size="11.00">BannedUsers</text>
</g>
<!-- \\Elabftw\\Elabftw\\Uploads -->
<g id="node30" class="node"><title>\\Elabftw\\Elabftw\\Uploads</title>
<polygon fill="none" stroke="black" points="411.5,-824 347.5,-824 347.5,-788 411.5,-788 411.5,-824"/>
<text text-anchor="middle" x="379.5" y="-803.2" font-family="Courier,monospace" font-size="11.00">Uploads</text>
</g>
<!-- \\Elabftw\\Elabftw\\Uploads&#45;&gt;\\Elabftw\\Elabftw\\Entity -->
<g id="edge13" class="edge"><title>\\Elabftw\\Elabftw\\Uploads&#45;&gt;\\Elabftw\\Elabftw\\Entity</title>
<path fill="none" stroke="black" d="M347.479,-795.677C336.462,-791.334 324.258,-785.715 314,-779 278.506,-755.765 244.223,-720.634 222.908,-696.8"/>
<polygon fill="none" stroke="black" points="225.432,-694.37 216.194,-689.184 220.181,-698.999 225.432,-694.37"/>
</g>
<!-- \\Elabftw\\Elabftw\\TeamGroups -->
<g id="node31" class="node"><title>\\Elabftw\\Elabftw\\TeamGroups</title>
<polygon fill="none" stroke="black" points="242,-1323 158,-1323 158,-1287 242,-1287 242,-1323"/>
<text text-anchor="middle" x="200" y="-1302.2" font-family="Courier,monospace" font-size="11.00">TeamGroups</text>
</g>
<!-- \\Elabftw\\Elabftw\\TeamGroups&#45;&gt;\\Elabftw\\Elabftw\\Panel -->
<g id="edge14" class="edge"><title>\\Elabftw\\Elabftw\\TeamGroups&#45;&gt;\\Elabftw\\Elabftw\\Panel</title>
<path fill="none" stroke="black" d="M157.672,-1305C138.181,-1305 115.132,-1305 96.3204,-1305"/>
<polygon fill="none" stroke="black" points="96.0748,-1301.5 86.0747,-1305 96.0747,-1308.5 96.0748,-1301.5"/>
</g>
<!-- \\Elabftw\\Elabftw\\MakeZip -->
<g id="node32" class="node"><title>\\Elabftw\\Elabftw\\MakeZip</title>
<polygon fill="none" stroke="black" points="411.5,-230 347.5,-230 347.5,-194 411.5,-194 411.5,-230"/>
<text text-anchor="middle" x="379.5" y="-209.2" font-family="Courier,monospace" font-size="11.00">MakeZip</text>
</g>
<!-- \\Elabftw\\Elabftw\\MakeZip&#45;&gt;\\Elabftw\\Elabftw\\Make -->
<g id="edge15" class="edge"><title>\\Elabftw\\Elabftw\\MakeZip&#45;&gt;\\Elabftw\\Elabftw\\Make</title>
<path fill="none" stroke="black" d="M347.175,-216.765C320.887,-220.764 282.818,-226.554 252.12,-231.224"/>
<polygon fill="none" stroke="black" points="251.38,-227.796 242.02,-232.76 252.433,-234.717 251.38,-227.796"/>
</g>
<!-- \\Elabftw\\Elabftw\\DatabaseView -->
<g id="node33" class="node"><title>\\Elabftw\\Elabftw\\DatabaseView</title>
<polygon fill="none" stroke="black" points="428.5,-1580 330.5,-1580 330.5,-1544 428.5,-1544 428.5,-1580"/>
<text text-anchor="middle" x="379.5" y="-1559.2" font-family="Courier,monospace" font-size="11.00">DatabaseView</text>
</g>
<!-- \\Elabftw\\Elabftw\\DatabaseView&#45;&gt;\\Elabftw\\Elabftw\\EntityView -->
<g id="edge16" class="edge"><title>\\Elabftw\\Elabftw\\DatabaseView&#45;&gt;\\Elabftw\\Elabftw\\EntityView</title>
<path fill="none" stroke="black" d="M330.351,-1544.71C324.628,-1541.84 319.038,-1538.6 314,-1535 274.807,-1507 278.425,-1485.52 242,-1454 241.021,-1453.15 240.014,-1452.31 238.986,-1451.48"/>
<polygon fill="none" stroke="black" points="240.881,-1448.52 230.796,-1445.28 236.656,-1454.1 240.881,-1448.52"/>
</g>
<!-- \\Elabftw\\Elabftw\\ImportCsv -->
<g id="node34" class="node"><title>\\Elabftw\\Elabftw\\ImportCsv</title>
<polygon fill="none" stroke="black" points="418,-446 341,-446 341,-410 418,-410 418,-446"/>
<text text-anchor="middle" x="379.5" y="-425.2" font-family="Courier,monospace" font-size="11.00">ImportCsv</text>
</g>
<!-- \\Elabftw\\Elabftw\\ImportCsv&#45;&gt;\\Elabftw\\Elabftw\\Import -->
<g id="edge17" class="edge"><title>\\Elabftw\\Elabftw\\ImportCsv&#45;&gt;\\Elabftw\\Elabftw\\Import</title>
<path fill="none" stroke="black" d="M340.857,-422.274C315.117,-418.359 280.676,-413.12 252.413,-408.821"/>
<polygon fill="none" stroke="black" points="252.721,-405.327 242.308,-407.283 251.668,-412.248 252.721,-405.327"/>
</g>
<!-- \\Elabftw\\Elabftw\\Sysconfig -->
<g id="node35" class="node"><title>\\Elabftw\\Elabftw\\Sysconfig</title>
<polygon fill="none" stroke="black" points="418,-338 341,-338 341,-302 418,-302 418,-338"/>
<text text-anchor="middle" x="379.5" y="-317.2" font-family="Courier,monospace" font-size="11.00">Sysconfig</text>
</g>
<!-- \\Elabftw\\Elabftw\\Tags -->
<g id="node36" class="node"><title>\\Elabftw\\Elabftw\\Tags</title>
<polygon fill="none" stroke="black" points="406.5,-770 352.5,-770 352.5,-734 406.5,-734 406.5,-770"/>
<text text-anchor="middle" x="379.5" y="-749.2" font-family="Courier,monospace" font-size="11.00">Tags</text>
</g>
<!-- \\Elabftw\\Elabftw\\Tags&#45;&gt;\\Elabftw\\Elabftw\\Entity -->
<g id="edge18" class="edge"><title>\\Elabftw\\Elabftw\\Tags&#45;&gt;\\Elabftw\\Elabftw\\Entity</title>
<path fill="none" stroke="black" d="M352.326,-741.387C340.553,-736.525 326.519,-730.607 314,-725 288.303,-713.49 259.688,-699.807 237.683,-689.094"/>
<polygon fill="none" stroke="black" points="239.206,-685.943 228.685,-684.7 236.135,-692.233 239.206,-685.943"/>
</g>
<!-- \\Elabftw\\Elabftw\\MakePdf -->
<g id="node37" class="node"><title>\\Elabftw\\Elabftw\\MakePdf</title>
<polygon fill="none" stroke="black" points="411.5,-284 347.5,-284 347.5,-248 411.5,-248 411.5,-284"/>
<text text-anchor="middle" x="379.5" y="-263.2" font-family="Courier,monospace" font-size="11.00">MakePdf</text>
</g>
<!-- \\Elabftw\\Elabftw\\MakePdf&#45;&gt;\\Elabftw\\Elabftw\\Make -->
<g id="edge19" class="edge"><title>\\Elabftw\\Elabftw\\MakePdf&#45;&gt;\\Elabftw\\Elabftw\\Make</title>
<path fill="none" stroke="black" d="M347.175,-261.235C320.887,-257.236 282.818,-251.446 252.12,-246.776"/>
<polygon fill="none" stroke="black" points="252.433,-243.283 242.02,-245.24 251.38,-250.204 252.433,-243.283"/>
</g>
<!-- \\Elabftw\\Elabftw\\Update -->
<g id="node38" class="node"><title>\\Elabftw\\Elabftw\\Update</title>
<polygon fill="none" stroke="black" points="408,-176 351,-176 351,-140 408,-140 408,-176"/>
<text text-anchor="middle" x="379.5" y="-155.2" font-family="Courier,monospace" font-size="11.00">Update</text>
</g>
<!-- \\Elabftw\\Elabftw\\TrustedTimestamps -->
<g id="node39" class="node"><title>\\Elabftw\\Elabftw\\TrustedTimestamps</title>
<polygon fill="none" stroke="black" points="445,-554 314,-554 314,-518 445,-518 445,-554"/>
<text text-anchor="middle" x="379.5" y="-533.2" font-family="Courier,monospace" font-size="11.00">TrustedTimestamps</text>
</g>
<!-- \\Elabftw\\Elabftw\\TrustedTimestamps&#45;&gt;\\Elabftw\\Elabftw\\Entity -->
<g id="edge20" class="edge"><title>\\Elabftw\\Elabftw\\TrustedTimestamps&#45;&gt;\\Elabftw\\Elabftw\\Entity</title>
<path fill="none" stroke="black" d="M329.946,-554.021C324.412,-556.742 318.977,-559.742 314,-563 278.506,-586.235 244.223,-621.366 222.908,-645.2"/>
<polygon fill="none" stroke="black" points="220.181,-643.001 216.194,-652.816 225.432,-647.63 220.181,-643.001"/>
</g>
<!-- \\Elabftw\\Elabftw\\Logs -->
<g id="node40" class="node"><title>\\Elabftw\\Elabftw\\Logs</title>
<polygon fill="none" stroke="black" points="227,-203 173,-203 173,-167 227,-167 227,-203"/>
<text text-anchor="middle" x="200" y="-182.2" font-family="Courier,monospace" font-size="11.00">Logs</text>
</g>
<!-- \\Elabftw\\Elabftw\\Logs&#45;&gt;\\Elabftw\\Elabftw\\Panel -->
<g id="edge21" class="edge"><title>\\Elabftw\\Elabftw\\Logs&#45;&gt;\\Elabftw\\Elabftw\\Panel</title>
<path fill="none" stroke="black" d="M172.896,-197.151C167.082,-201.076 161.587,-206.002 158,-212 101.726,-306.106 67.4125,-1114.83 61.07,-1276.82"/>
<polygon fill="none" stroke="black" points="57.5676,-1276.82 60.6772,-1286.95 64.5623,-1277.09 57.5676,-1276.82"/>
</g>
<!-- \\Elabftw\\Elabftw\\TagCloud -->
<g id="node42" class="node"><title>\\Elabftw\\Elabftw\\TagCloud</title>
<polygon fill="none" stroke="black" points="415,-68 344,-68 344,-32 415,-32 415,-68"/>
<text text-anchor="middle" x="379.5" y="-47.2" font-family="Courier,monospace" font-size="11.00">TagCloud</text>
</g>
</g>
</svg>
