<?xml version="1.0" encoding="UTF-8" standalone="no"?>
<!DOCTYPE svg PUBLIC "-//W3C//DTD SVG 1.1//EN"
 "http://www.w3.org/Graphics/SVG/1.1/DTD/svg11.dtd">
<!-- Generated by graphviz version 2.38.0 (20140413.2041)
 -->
<!-- Title: G Pages: 1 -->
<svg width="359pt" height="2220pt"
 viewBox="0.00 0.00 359.00 2220.00" xmlns="http://www.w3.org/2000/svg" xmlns:xlink="http://www.w3.org/1999/xlink">
<g id="graph0" class="graph" transform="scale(1 1) rotate(0) translate(4 2216)">
<title>G</title>
<polygon fill="white" stroke="none" points="-4,4 -4,-2216 355,-2216 355,4 -4,4"/>
<g id="clust1" class="cluster"><title>cluster_Global</title>
<path fill="none" stroke="gray" d="M20,-8C20,-8 331,-8 331,-8 337,-8 343,-14 343,-20 343,-20 343,-2192 343,-2192 343,-2198 337,-2204 331,-2204 331,-2204 20,-2204 20,-2204 14,-2204 8,-2198 8,-2192 8,-2192 8,-20 8,-20 8,-14 14,-8 20,-8"/>
<text text-anchor="middle" x="175.5" y="-2191.2" font-family="Times,serif" font-size="11.00" fill="gray">Global</text>
</g>
<g id="clust2" class="cluster"><title>cluster_\Elabftw</title>
<path fill="none" stroke="gray" d="M28,-16C28,-16 323,-16 323,-16 329,-16 335,-22 335,-28 335,-28 335,-2164 335,-2164 335,-2170 329,-2176 323,-2176 323,-2176 28,-2176 28,-2176 22,-2176 16,-2170 16,-2164 16,-2164 16,-28 16,-28 16,-22 22,-16 28,-16"/>
<text text-anchor="middle" x="175.5" y="-2163.2" font-family="Times,serif" font-size="11.00" fill="gray">Elabftw</text>
</g>
<g id="clust3" class="cluster"><title>cluster_\Elabftw\Elabftw</title>
<path fill="none" stroke="gray" d="M36,-24C36,-24 315,-24 315,-24 321,-24 327,-30 327,-36 327,-36 327,-2136 327,-2136 327,-2142 321,-2148 315,-2148 315,-2148 36,-2148 36,-2148 30,-2148 24,-2142 24,-2136 24,-2136 24,-36 24,-36 24,-30 30,-24 36,-24"/>
<text text-anchor="middle" x="175.5" y="-2135.2" font-family="Times,serif" font-size="11.00" fill="gray">Elabftw</text>
</g>
<!-- \\Elabftw\\Elabftw\\Database -->
<g id="node1" class="node"><title>\\Elabftw\\Elabftw\\Database</title>
<polygon fill="none" stroke="black" points="289,-1634 218,-1634 218,-1598 289,-1598 289,-1634"/>
<text text-anchor="middle" x="253.5" y="-1613.2" font-family="Courier,monospace" font-size="11.00">Database</text>
</g>
<!-- \\Elabftw\\Elabftw\\Entity -->
<g id="node13" class="node"><title>\\Elabftw\\Elabftw\\Entity</title>
<polygon fill="none" stroke="black" points="102.5,-1634 45.5,-1634 45.5,-1598 102.5,-1598 102.5,-1634"/>
<text text-anchor="middle" x="74" y="-1613.2" font-family="Courier,monospace" font-size="11.00">Entity</text>
</g>
<!-- \\Elabftw\\Elabftw\\Database&#45;&gt;\\Elabftw\\Elabftw\\Entity -->
<g id="edge1" class="edge"><title>\\Elabftw\\Elabftw\\Database&#45;&gt;\\Elabftw\\Elabftw\\Entity</title>
<path fill="none" stroke="black" d="M217.855,-1616C187.58,-1616 143.722,-1616 112.602,-1616"/>
<polygon fill="none" stroke="black" points="112.575,-1612.5 102.575,-1616 112.575,-1619.5 112.575,-1612.5"/>
</g>
<!-- \\Elabftw\\Elabftw\\MolViewer -->
<g id="node2" class="node"><title>\\Elabftw\\Elabftw\\MolViewer</title>
<polygon fill="none" stroke="black" points="292,-2066 215,-2066 215,-2030 292,-2030 292,-2066"/>
<text text-anchor="middle" x="253.5" y="-2045.2" font-family="Courier,monospace" font-size="11.00">MolViewer</text>
</g>
<!-- \\Elabftw\\Elabftw\\Status -->
<g id="node3" class="node"><title>\\Elabftw\\Elabftw\\Status</title>
<polygon fill="none" stroke="black" points="282,-1094 225,-1094 225,-1058 282,-1058 282,-1094"/>
<text text-anchor="middle" x="253.5" y="-1073.2" font-family="Courier,monospace" font-size="11.00">Status</text>
</g>
<!-- \\Elabftw\\Elabftw\\Status&#45;&gt;\\Elabftw\\Elabftw\\Entity -->
<g id="edge2" class="edge"><title>\\Elabftw\\Elabftw\\Status&#45;&gt;\\Elabftw\\Elabftw\\Entity</title>
<path fill="none" stroke="black" d="M224.808,-1081.39C211.845,-1085.3 197.257,-1091.91 188,-1103 124.903,-1178.59 87.854,-1491.63 77.8014,-1587.78"/>
<polygon fill="none" stroke="black" points="74.3017,-1587.6 76.7594,-1597.91 81.2649,-1588.32 74.3017,-1587.6"/>
</g>
<!-- \\Elabftw\\Elabftw\\Users -->
<g id="node4" class="node"><title>\\Elabftw\\Elabftw\\Users</title>
<polygon fill="none" stroke="black" points="280.5,-2120 226.5,-2120 226.5,-2084 280.5,-2084 280.5,-2120"/>
<text text-anchor="middle" x="253.5" y="-2099.2" font-family="Courier,monospace" font-size="11.00">Users</text>
</g>
<!-- \\Elabftw\\Elabftw\\Auth -->
<g id="node6" class="node"><title>\\Elabftw\\Elabftw\\Auth</title>
<polygon fill="none" stroke="black" points="101,-2120 47,-2120 47,-2084 101,-2084 101,-2120"/>
<text text-anchor="middle" x="74" y="-2099.2" font-family="Courier,monospace" font-size="11.00">Auth</text>
</g>
<!-- \\Elabftw\\Elabftw\\Users&#45;&gt;\\Elabftw\\Elabftw\\Auth -->
<g id="edge3" class="edge"><title>\\Elabftw\\Elabftw\\Users&#45;&gt;\\Elabftw\\Elabftw\\Auth</title>
<path fill="none" stroke="black" d="M226.309,-2102C195.809,-2102 145.251,-2102 111.056,-2102"/>
<polygon fill="none" stroke="black" points="111.009,-2098.5 101.009,-2102 111.009,-2105.5 111.009,-2098.5"/>
</g>
<!-- \\Elabftw\\Elabftw\\Links -->
<g id="node5" class="node"><title>\\Elabftw\\Elabftw\\Links</title>
<polygon fill="none" stroke="black" points="280.5,-878 226.5,-878 226.5,-842 280.5,-842 280.5,-878"/>
<text text-anchor="middle" x="253.5" y="-857.2" font-family="Courier,monospace" font-size="11.00">Links</text>
</g>
<!-- \\Elabftw\\Elabftw\\Links&#45;&gt;\\Elabftw\\Elabftw\\Entity -->
<g id="edge4" class="edge"><title>\\Elabftw\\Elabftw\\Links&#45;&gt;\\Elabftw\\Elabftw\\Entity</title>
<path fill="none" stroke="black" d="M226.463,-864.587C212.95,-868.333 197.352,-875.05 188,-887 100.164,-999.23 79.6466,-1467.28 75.7846,-1587.67"/>
<polygon fill="none" stroke="black" points="72.2789,-1587.8 75.4701,-1597.9 79.2756,-1588.02 72.2789,-1587.8"/>
</g>
<!-- \\Elabftw\\Elabftw\\Comments -->
<g id="node7" class="node"><title>\\Elabftw\\Elabftw\\Comments</title>
<polygon fill="none" stroke="black" points="289,-824 218,-824 218,-788 289,-788 289,-824"/>
<text text-anchor="middle" x="253.5" y="-803.2" font-family="Courier,monospace" font-size="11.00">Comments</text>
</g>
<!-- \\Elabftw\\Elabftw\\Comments&#45;&gt;\\Elabftw\\Elabftw\\Entity -->
<g id="edge5" class="edge"><title>\\Elabftw\\Elabftw\\Comments&#45;&gt;\\Elabftw\\Elabftw\\Entity</title>
<path fill="none" stroke="black" d="M217.779,-813.287C206.67,-817.306 195.357,-823.497 188,-833 93.9331,-954.494 77.977,-1461.74 75.4496,-1587.63"/>
<polygon fill="none" stroke="black" points="71.944,-1587.9 75.2557,-1597.97 78.9428,-1588.03 71.944,-1587.9"/>
</g>
<!-- \\Elabftw\\Elabftw\\Teams -->
<g id="node8" class="node"><title>\\Elabftw\\Elabftw\\Teams</title>
<polygon fill="none" stroke="black" points="280.5,-1796 226.5,-1796 226.5,-1760 280.5,-1760 280.5,-1796"/>
<text text-anchor="middle" x="253.5" y="-1775.2" font-family="Courier,monospace" font-size="11.00">Teams</text>
</g>
<!-- \\Elabftw\\Elabftw\\Import -->
<g id="node9" class="node"><title>\\Elabftw\\Elabftw\\Import</title>
<polygon fill="none" stroke="black" points="116,-392 32,-392 32,-356 116,-356 116,-392"/>
<text text-anchor="start" x="40" y="-377.2" font-family="Courier,monospace" font-size="11.00">«abstract»</text>
<text text-anchor="start" x="53.5" y="-365.2" font-family="Courier,monospace" font-size="11.00">Import</text>
</g>
<!-- \\Elabftw\\Elabftw\\ExperimentsView -->
<g id="node10" class="node"><title>\\Elabftw\\Elabftw\\ExperimentsView</title>
<polygon fill="none" stroke="black" points="312.5,-500 194.5,-500 194.5,-464 312.5,-464 312.5,-500"/>
<text text-anchor="middle" x="253.5" y="-479.2" font-family="Courier,monospace" font-size="11.00">ExperimentsView</text>
</g>
<!-- \\Elabftw\\Elabftw\\EntityView -->
<g id="node44" class="node"><title>\\Elabftw\\Elabftw\\EntityView</title>
<polygon fill="none" stroke="black" points="116,-554 32,-554 32,-518 116,-518 116,-554"/>
<text text-anchor="middle" x="74" y="-533.2" font-family="Courier,monospace" font-size="11.00">EntityView</text>
</g>
<!-- \\Elabftw\\Elabftw\\ExperimentsView&#45;&gt;\\Elabftw\\Elabftw\\EntityView -->
<g id="edge6" class="edge"><title>\\Elabftw\\Elabftw\\ExperimentsView&#45;&gt;\\Elabftw\\Elabftw\\EntityView</title>
<path fill="none" stroke="black" d="M194.38,-499.682C172.197,-506.43 147.105,-514.064 125.67,-520.585"/>
<polygon fill="none" stroke="black" points="124.65,-517.237 116.102,-523.496 126.688,-523.934 124.65,-517.237"/>
</g>
<!-- \\Elabftw\\Elabftw\\Make -->
<g id="node11" class="node"><title>\\Elabftw\\Elabftw\\Make</title>
<polygon fill="none" stroke="black" points="116,-176 32,-176 32,-140 116,-140 116,-176"/>
<text text-anchor="start" x="40" y="-161.2" font-family="Courier,monospace" font-size="11.00">«abstract»</text>
<text text-anchor="start" x="60" y="-149.2" font-family="Courier,monospace" font-size="11.00">Make</text>
</g>
<!-- \\Elabftw\\Elabftw\\TeamGroupsView -->
<g id="node12" class="node"><title>\\Elabftw\\Elabftw\\TeamGroupsView</title>
<polygon fill="none" stroke="black" points="309,-1688 198,-1688 198,-1652 309,-1652 309,-1688"/>
<text text-anchor="middle" x="253.5" y="-1667.2" font-family="Courier,monospace" font-size="11.00">TeamGroupsView</text>
</g>
<!-- \\Elabftw\\Elabftw\\Templates -->
<g id="node14" class="node"><title>\\Elabftw\\Elabftw\\Templates</title>
<polygon fill="none" stroke="black" points="292,-770 215,-770 215,-734 292,-734 292,-770"/>
<text text-anchor="middle" x="253.5" y="-749.2" font-family="Courier,monospace" font-size="11.00">Templates</text>
</g>
<!-- \\Elabftw\\Elabftw\\Templates&#45;&gt;\\Elabftw\\Elabftw\\Entity -->
<g id="edge7" class="edge"><title>\\Elabftw\\Elabftw\\Templates&#45;&gt;\\Elabftw\\Elabftw\\Entity</title>
<path fill="none" stroke="black" d="M214.698,-760.4C204.595,-764.42 194.649,-770.331 188,-779 87.6409,-909.851 76.4039,-1456.91 75.1546,-1587.78"/>
<polygon fill="none" stroke="black" points="71.6545,-1587.79 75.0711,-1597.81 78.6543,-1587.84 71.6545,-1587.79"/>
</g>
<!-- \\Elabftw\\Elabftw\\Config -->
<g id="node15" class="node"><title>\\Elabftw\\Elabftw\\Config</title>
<polygon fill="none" stroke="black" points="282,-1580 225,-1580 225,-1544 282,-1544 282,-1580"/>
<text text-anchor="middle" x="253.5" y="-1559.2" font-family="Courier,monospace" font-size="11.00">Config</text>
</g>
<!-- \\Elabftw\\Elabftw\\TagCloud -->
<g id="node16" class="node"><title>\\Elabftw\\Elabftw\\TagCloud</title>
<polygon fill="none" stroke="black" points="289,-1526 218,-1526 218,-1490 289,-1490 289,-1526"/>
<text text-anchor="middle" x="253.5" y="-1505.2" font-family="Courier,monospace" font-size="11.00">TagCloud</text>
</g>
<!-- \\Elabftw\\Elabftw\\Revisions -->
<g id="node17" class="node"><title>\\Elabftw\\Elabftw\\Revisions</title>
<polygon fill="none" stroke="black" points="292,-1472 215,-1472 215,-1436 292,-1436 292,-1472"/>
<text text-anchor="middle" x="253.5" y="-1451.2" font-family="Courier,monospace" font-size="11.00">Revisions</text>
</g>
<!-- \\Elabftw\\Elabftw\\ItemsTypesView -->
<g id="node18" class="node"><title>\\Elabftw\\Elabftw\\ItemsTypesView</title>
<polygon fill="none" stroke="black" points="309,-1418 198,-1418 198,-1382 309,-1382 309,-1418"/>
<text text-anchor="middle" x="253.5" y="-1397.2" font-family="Courier,monospace" font-size="11.00">ItemsTypesView</text>
</g>
<!-- \\Elabftw\\Elabftw\\StatusView -->
<g id="node19" class="node"><title>\\Elabftw\\Elabftw\\StatusView</title>
<polygon fill="none" stroke="black" points="295.5,-1364 211.5,-1364 211.5,-1328 295.5,-1328 295.5,-1364"/>
<text text-anchor="middle" x="253.5" y="-1343.2" font-family="Courier,monospace" font-size="11.00">StatusView</text>
</g>
<!-- \\Elabftw\\Elabftw\\UploadsView -->
<g id="node20" class="node"><title>\\Elabftw\\Elabftw\\UploadsView</title>
<polygon fill="none" stroke="black" points="299,-554 208,-554 208,-518 299,-518 299,-554"/>
<text text-anchor="middle" x="253.5" y="-533.2" font-family="Courier,monospace" font-size="11.00">UploadsView</text>
</g>
<!-- \\Elabftw\\Elabftw\\UploadsView&#45;&gt;\\Elabftw\\Elabftw\\EntityView -->
<g id="edge8" class="edge"><title>\\Elabftw\\Elabftw\\UploadsView&#45;&gt;\\Elabftw\\Elabftw\\EntityView</title>
<path fill="none" stroke="black" d="M207.709,-536C182.977,-536 152.151,-536 126.435,-536"/>
<polygon fill="none" stroke="black" points="126.126,-532.5 116.126,-536 126.126,-539.5 126.126,-532.5"/>
</g>
<!-- \\Elabftw\\Elabftw\\SysconfigView -->
<g id="node21" class="node"><title>\\Elabftw\\Elabftw\\SysconfigView</title>
<polygon fill="none" stroke="black" points="305.5,-1256 201.5,-1256 201.5,-1220 305.5,-1220 305.5,-1256"/>
<text text-anchor="middle" x="253.5" y="-1235.2" font-family="Courier,monospace" font-size="11.00">SysconfigView</text>
</g>
<!-- \\Elabftw\\Elabftw\\UserStats -->
<g id="node22" class="node"><title>\\Elabftw\\Elabftw\\UserStats</title>
<polygon fill="none" stroke="black" points="292,-1202 215,-1202 215,-1166 292,-1166 292,-1202"/>
<text text-anchor="middle" x="253.5" y="-1181.2" font-family="Courier,monospace" font-size="11.00">UserStats</text>
</g>
<!-- \\Elabftw\\Elabftw\\Formkey -->
<g id="node23" class="node"><title>\\Elabftw\\Elabftw\\Formkey</title>
<polygon fill="none" stroke="black" points="285.5,-1148 221.5,-1148 221.5,-1112 285.5,-1112 285.5,-1148"/>
<text text-anchor="middle" x="253.5" y="-1127.2" font-family="Courier,monospace" font-size="11.00">Formkey</text>
</g>
<!-- \\Elabftw\\Elabftw\\ItemsTypes -->
<g id="node24" class="node"><title>\\Elabftw\\Elabftw\\ItemsTypes</title>
<polygon fill="none" stroke="black" points="295.5,-2012 211.5,-2012 211.5,-1976 295.5,-1976 295.5,-2012"/>
<text text-anchor="middle" x="253.5" y="-1991.2" font-family="Courier,monospace" font-size="11.00">ItemsTypes</text>
</g>
<!-- \\Elabftw\\Elabftw\\ItemsTypes&#45;&gt;\\Elabftw\\Elabftw\\Entity -->
<g id="edge9" class="edge"><title>\\Elabftw\\Elabftw\\ItemsTypes&#45;&gt;\\Elabftw\\Elabftw\\Entity</title>
<path fill="none" stroke="black" d="M211.269,-1982.96C202.677,-1979.07 194.323,-1973.88 188,-1967 101.012,-1872.29 80.963,-1710.09 76.3619,-1644.64"/>
<polygon fill="none" stroke="black" points="79.8313,-1644.04 75.7085,-1634.28 72.8452,-1644.48 79.8313,-1644.04"/>
</g>
<!-- \\Elabftw\\Elabftw\\Tools -->
<g id="node25" class="node"><title>\\Elabftw\\Elabftw\\Tools</title>
<polygon fill="none" stroke="black" points="280.5,-1040 226.5,-1040 226.5,-1004 280.5,-1004 280.5,-1040"/>
<text text-anchor="middle" x="253.5" y="-1019.2" font-family="Courier,monospace" font-size="11.00">Tools</text>
</g>
<!-- \\Elabftw\\Elabftw\\Db -->
<g id="node26" class="node"><title>\\Elabftw\\Elabftw\\Db</title>
<polygon fill="none" stroke="black" points="280.5,-986 226.5,-986 226.5,-950 280.5,-950 280.5,-986"/>
<text text-anchor="middle" x="253.5" y="-965.2" font-family="Courier,monospace" font-size="11.00">Db</text>
</g>
<!-- \\Elabftw\\Elabftw\\TeamsView -->
<g id="node27" class="node"><title>\\Elabftw\\Elabftw\\TeamsView</title>
<polygon fill="none" stroke="black" points="292,-932 215,-932 215,-896 292,-896 292,-932"/>
<text text-anchor="middle" x="253.5" y="-911.2" font-family="Courier,monospace" font-size="11.00">TeamsView</text>
</g>
<!-- \\Elabftw\\Elabftw\\Experiments -->
<g id="node28" class="node"><title>\\Elabftw\\Elabftw\\Experiments</title>
<polygon fill="none" stroke="black" points="299,-1958 208,-1958 208,-1922 299,-1922 299,-1958"/>
<text text-anchor="middle" x="253.5" y="-1937.2" font-family="Courier,monospace" font-size="11.00">Experiments</text>
</g>
<!-- \\Elabftw\\Elabftw\\Experiments&#45;&gt;\\Elabftw\\Elabftw\\Entity -->
<g id="edge10" class="edge"><title>\\Elabftw\\Elabftw\\Experiments&#45;&gt;\\Elabftw\\Elabftw\\Entity</title>
<path fill="none" stroke="black" d="M207.858,-1926.97C200.557,-1923.34 193.571,-1918.76 188,-1913 112.855,-1835.34 86.5484,-1702.65 78.3364,-1644.6"/>
<polygon fill="none" stroke="black" points="81.7595,-1643.79 76.9659,-1634.34 74.8211,-1644.72 81.7595,-1643.79"/>
</g>
<!-- \\Elabftw\\Elabftw\\ImportZip -->
<g id="node29" class="node"><title>\\Elabftw\\Elabftw\\ImportZip</title>
<polygon fill="none" stroke="black" points="292,-446 215,-446 215,-410 292,-410 292,-446"/>
<text text-anchor="middle" x="253.5" y="-425.2" font-family="Courier,monospace" font-size="11.00">ImportZip</text>
</g>
<!-- \\Elabftw\\Elabftw\\ImportZip&#45;&gt;\\Elabftw\\Elabftw\\Import -->
<g id="edge11" class="edge"><title>\\Elabftw\\Elabftw\\ImportZip&#45;&gt;\\Elabftw\\Elabftw\\Import</title>
<path fill="none" stroke="black" d="M214.857,-416.548C189.004,-408.683 154.374,-398.148 126.042,-389.528"/>
<polygon fill="none" stroke="black" points="126.894,-386.129 116.308,-386.567 124.856,-392.826 126.894,-386.129"/>
</g>
<!-- \\Elabftw\\Elabftw\\MakeCsv -->
<g id="node30" class="node"><title>\\Elabftw\\Elabftw\\MakeCsv</title>
<polygon fill="none" stroke="black" points="285.5,-284 221.5,-284 221.5,-248 285.5,-248 285.5,-284"/>
<text text-anchor="middle" x="253.5" y="-263.2" font-family="Courier,monospace" font-size="11.00">MakeCsv</text>
</g>
<!-- \\Elabftw\\Elabftw\\MakeCsv&#45;&gt;\\Elabftw\\Elabftw\\Make -->
<g id="edge12" class="edge"><title>\\Elabftw\\Elabftw\\MakeCsv&#45;&gt;\\Elabftw\\Elabftw\\Make</title>
<path fill="none" stroke="black" d="M221.318,-254.601C210.517,-250.224 198.493,-244.858 188,-239 158.286,-222.411 127.027,-199.526 104.938,-182.312"/>
<polygon fill="none" stroke="black" points="106.965,-179.453 96.9428,-176.017 102.634,-184.953 106.965,-179.453"/>
</g>
<!-- \\Elabftw\\Elabftw\\BannedUsers -->
<g id="node31" class="node"><title>\\Elabftw\\Elabftw\\BannedUsers</title>
<polygon fill="none" stroke="black" points="299,-716 208,-716 208,-680 299,-680 299,-716"/>
<text text-anchor="middle" x="253.5" y="-695.2" font-family="Courier,monospace" font-size="11.00">BannedUsers</text>
</g>
<!-- \\Elabftw\\Elabftw\\Uploads -->
<g id="node32" class="node"><title>\\Elabftw\\Elabftw\\Uploads</title>
<polygon fill="none" stroke="black" points="285.5,-1904 221.5,-1904 221.5,-1868 285.5,-1868 285.5,-1904"/>
<text text-anchor="middle" x="253.5" y="-1883.2" font-family="Courier,monospace" font-size="11.00">Uploads</text>
</g>
<!-- \\Elabftw\\Elabftw\\Uploads&#45;&gt;\\Elabftw\\Elabftw\\Entity -->
<g id="edge13" class="edge"><title>\\Elabftw\\Elabftw\\Uploads&#45;&gt;\\Elabftw\\Elabftw\\Entity</title>
<path fill="none" stroke="black" d="M221.239,-1878.12C209.688,-1873.97 197.186,-1867.84 188,-1859 124.428,-1797.85 93.0406,-1694 81.0337,-1644.23"/>
<polygon fill="none" stroke="black" points="84.3724,-1643.13 78.6987,-1634.19 77.5542,-1644.72 84.3724,-1643.13"/>
</g>
<!-- \\Elabftw\\Elabftw\\TeamGroups -->
<g id="node33" class="node"><title>\\Elabftw\\Elabftw\\TeamGroups</title>
<polygon fill="none" stroke="black" points="295.5,-608 211.5,-608 211.5,-572 295.5,-572 295.5,-608"/>
<text text-anchor="middle" x="253.5" y="-587.2" font-family="Courier,monospace" font-size="11.00">TeamGroups</text>
</g>
<!-- \\Elabftw\\Elabftw\\MakeZip -->
<g id="node34" class="node"><title>\\Elabftw\\Elabftw\\MakeZip</title>
<polygon fill="none" stroke="black" points="285.5,-122 221.5,-122 221.5,-86 285.5,-86 285.5,-122"/>
<text text-anchor="middle" x="253.5" y="-101.2" font-family="Courier,monospace" font-size="11.00">MakeZip</text>
</g>
<!-- \\Elabftw\\Elabftw\\MakeZip&#45;&gt;\\Elabftw\\Elabftw\\Make -->
<g id="edge14" class="edge"><title>\\Elabftw\\Elabftw\\MakeZip&#45;&gt;\\Elabftw\\Elabftw\\Make</title>
<path fill="none" stroke="black" d="M221.175,-113.53C194.772,-121.562 156.486,-133.21 125.72,-142.57"/>
<polygon fill="none" stroke="black" points="124.568,-139.262 116.02,-145.521 126.606,-145.959 124.568,-139.262"/>
</g>
<!-- \\Elabftw\\Elabftw\\DatabaseView -->
<g id="node35" class="node"><title>\\Elabftw\\Elabftw\\DatabaseView</title>
<polygon fill="none" stroke="black" points="302.5,-662 204.5,-662 204.5,-626 302.5,-626 302.5,-662"/>
<text text-anchor="middle" x="253.5" y="-641.2" font-family="Courier,monospace" font-size="11.00">DatabaseView</text>
</g>
<!-- \\Elabftw\\Elabftw\\DatabaseView&#45;&gt;\\Elabftw\\Elabftw\\EntityView -->
<g id="edge15" class="edge"><title>\\Elabftw\\Elabftw\\DatabaseView&#45;&gt;\\Elabftw\\Elabftw\\EntityView</title>
<path fill="none" stroke="black" d="M205.746,-625.909C199.674,-623.131 193.618,-620.136 188,-617 158.286,-600.411 127.027,-577.526 104.938,-560.312"/>
<polygon fill="none" stroke="black" points="106.965,-557.453 96.9428,-554.017 102.634,-562.953 106.965,-557.453"/>
</g>
<!-- \\Elabftw\\Elabftw\\ImportCsv -->
<g id="node36" class="node"><title>\\Elabftw\\Elabftw\\ImportCsv</title>
<polygon fill="none" stroke="black" points="292,-338 215,-338 215,-302 292,-302 292,-338"/>
<text text-anchor="middle" x="253.5" y="-317.2" font-family="Courier,monospace" font-size="11.00">ImportCsv</text>
</g>
<!-- \\Elabftw\\Elabftw\\ImportCsv&#45;&gt;\\Elabftw\\Elabftw\\Import -->
<g id="edge16" class="edge"><title>\\Elabftw\\Elabftw\\ImportCsv&#45;&gt;\\Elabftw\\Elabftw\\Import</title>
<path fill="none" stroke="black" d="M214.857,-331.452C189.004,-339.317 154.374,-349.852 126.042,-358.472"/>
<polygon fill="none" stroke="black" points="124.856,-355.174 116.308,-361.433 126.894,-361.871 124.856,-355.174"/>
</g>
<!-- \\Elabftw\\Elabftw\\Sysconfig -->
<g id="node37" class="node"><title>\\Elabftw\\Elabftw\\Sysconfig</title>
<polygon fill="none" stroke="black" points="292,-392 215,-392 215,-356 292,-356 292,-392"/>
<text text-anchor="middle" x="253.5" y="-371.2" font-family="Courier,monospace" font-size="11.00">Sysconfig</text>
</g>
<!-- \\Elabftw\\Elabftw\\Tags -->
<g id="node38" class="node"><title>\\Elabftw\\Elabftw\\Tags</title>
<polygon fill="none" stroke="black" points="280.5,-1850 226.5,-1850 226.5,-1814 280.5,-1814 280.5,-1850"/>
<text text-anchor="middle" x="253.5" y="-1829.2" font-family="Courier,monospace" font-size="11.00">Tags</text>
</g>
<!-- \\Elabftw\\Elabftw\\Tags&#45;&gt;\\Elabftw\\Elabftw\\Entity -->
<g id="edge17" class="edge"><title>\\Elabftw\\Elabftw\\Tags&#45;&gt;\\Elabftw\\Elabftw\\Entity</title>
<path fill="none" stroke="black" d="M226.233,-1825.21C213.62,-1820.96 198.916,-1814.46 188,-1805 135.804,-1759.75 100.996,-1684.22 85.033,-1643.7"/>
<polygon fill="none" stroke="black" points="88.2338,-1642.27 81.3816,-1634.19 81.6991,-1644.78 88.2338,-1642.27"/>
</g>
<!-- \\Elabftw\\Elabftw\\MakePdf -->
<g id="node39" class="node"><title>\\Elabftw\\Elabftw\\MakePdf</title>
<polygon fill="none" stroke="black" points="285.5,-176 221.5,-176 221.5,-140 285.5,-140 285.5,-176"/>
<text text-anchor="middle" x="253.5" y="-155.2" font-family="Courier,monospace" font-size="11.00">MakePdf</text>
</g>
<!-- \\Elabftw\\Elabftw\\MakePdf&#45;&gt;\\Elabftw\\Elabftw\\Make -->
<g id="edge18" class="edge"><title>\\Elabftw\\Elabftw\\MakePdf&#45;&gt;\\Elabftw\\Elabftw\\Make</title>
<path fill="none" stroke="black" d="M221.175,-158C194.887,-158 156.818,-158 126.12,-158"/>
<polygon fill="none" stroke="black" points="126.02,-154.5 116.02,-158 126.02,-161.5 126.02,-154.5"/>
</g>
<!-- \\Elabftw\\Elabftw\\Update -->
<g id="node40" class="node"><title>\\Elabftw\\Elabftw\\Update</title>
<polygon fill="none" stroke="black" points="282,-230 225,-230 225,-194 282,-194 282,-230"/>
<text text-anchor="middle" x="253.5" y="-209.2" font-family="Courier,monospace" font-size="11.00">Update</text>
</g>
<!-- \\Elabftw\\Elabftw\\TrustedTimestamps -->
<g id="node41" class="node"><title>\\Elabftw\\Elabftw\\TrustedTimestamps</title>
<polygon fill="none" stroke="black" points="319,-1742 188,-1742 188,-1706 319,-1706 319,-1742"/>
<text text-anchor="middle" x="253.5" y="-1721.2" font-family="Courier,monospace" font-size="11.00">TrustedTimestamps</text>
</g>
<!-- \\Elabftw\\Elabftw\\TrustedTimestamps&#45;&gt;\\Elabftw\\Elabftw\\Entity -->
<g id="edge19" class="edge"><title>\\Elabftw\\Elabftw\\TrustedTimestamps&#45;&gt;\\Elabftw\\Elabftw\\Entity</title>
<path fill="none" stroke="black" d="M205.746,-1705.91C199.674,-1703.13 193.618,-1700.14 188,-1697 158.286,-1680.41 127.027,-1657.53 104.938,-1640.31"/>
<polygon fill="none" stroke="black" points="106.965,-1637.45 96.9428,-1634.02 102.634,-1642.95 106.965,-1637.45"/>
</g>
<!-- \\Elabftw\\Elabftw\\Scheduler -->
<g id="node42" class="node"><title>\\Elabftw\\Elabftw\\Scheduler</title>
<polygon fill="none" stroke="black" points="292,-1310 215,-1310 215,-1274 292,-1274 292,-1310"/>
<text text-anchor="middle" x="253.5" y="-1289.2" font-family="Courier,monospace" font-size="11.00">Scheduler</text>
</g>
<!-- \\Elabftw\\Elabftw\\Scheduler&#45;&gt;\\Elabftw\\Elabftw\\Entity -->
<g id="edge20" class="edge"><title>\\Elabftw\\Elabftw\\Scheduler&#45;&gt;\\Elabftw\\Elabftw\\Entity</title>
<path fill="none" stroke="black" d="M214.887,-1301.84C205.146,-1305.86 195.344,-1311.41 188,-1319 112.855,-1396.66 86.5484,-1529.35 78.3364,-1587.4"/>
<polygon fill="none" stroke="black" points="74.8211,-1587.28 76.9659,-1597.66 81.7595,-1588.21 74.8211,-1587.28"/>
</g>
<!-- \\Elabftw\\Elabftw\\Logs -->
<g id="node43" class="node"><title>\\Elabftw\\Elabftw\\Logs</title>
<polygon fill="none" stroke="black" points="280.5,-68 226.5,-68 226.5,-32 280.5,-32 280.5,-68"/>
<text text-anchor="middle" x="253.5" y="-47.2" font-family="Courier,monospace" font-size="11.00">Logs</text>
</g>
</g>
</svg>
