<?xml version="1.0" encoding="UTF-8" standalone="no"?>
<!DOCTYPE svg PUBLIC "-//W3C//DTD SVG 1.1//EN"
 "http://www.w3.org/Graphics/SVG/1.1/DTD/svg11.dtd">
<!-- Generated by graphviz version 2.38.0 (20140413.2041)
 -->
<!-- Title: G Pages: 1 -->
<svg width="485pt" height="1680pt"
 viewBox="0.00 0.00 485.00 1680.00" xmlns="http://www.w3.org/2000/svg" xmlns:xlink="http://www.w3.org/1999/xlink">
<g id="graph0" class="graph" transform="scale(1 1) rotate(0) translate(4 1676)">
<title>G</title>
<polygon fill="white" stroke="none" points="-4,4 -4,-1676 481,-1676 481,4 -4,4"/>
<g id="clust1" class="cluster"><title>cluster_Global</title>
<path fill="none" stroke="gray" d="M20,-8C20,-8 457,-8 457,-8 463,-8 469,-14 469,-20 469,-20 469,-1652 469,-1652 469,-1658 463,-1664 457,-1664 457,-1664 20,-1664 20,-1664 14,-1664 8,-1658 8,-1652 8,-1652 8,-20 8,-20 8,-14 14,-8 20,-8"/>
<text text-anchor="middle" x="238.5" y="-1651.2" font-family="Times,serif" font-size="11.00" fill="gray">Global</text>
</g>
<g id="clust2" class="cluster"><title>cluster_\Elabftw</title>
<path fill="none" stroke="gray" d="M28,-16C28,-16 449,-16 449,-16 455,-16 461,-22 461,-28 461,-28 461,-1624 461,-1624 461,-1630 455,-1636 449,-1636 449,-1636 28,-1636 28,-1636 22,-1636 16,-1630 16,-1624 16,-1624 16,-28 16,-28 16,-22 22,-16 28,-16"/>
<text text-anchor="middle" x="238.5" y="-1623.2" font-family="Times,serif" font-size="11.00" fill="gray">Elabftw</text>
</g>
<g id="clust3" class="cluster"><title>cluster_\Elabftw\Elabftw</title>
<path fill="none" stroke="gray" d="M36,-24C36,-24 441,-24 441,-24 447,-24 453,-30 453,-36 453,-36 453,-1596 453,-1596 453,-1602 447,-1608 441,-1608 441,-1608 36,-1608 36,-1608 30,-1608 24,-1602 24,-1596 24,-1596 24,-36 24,-36 24,-30 30,-24 36,-24"/>
<text text-anchor="middle" x="238.5" y="-1595.2" font-family="Times,serif" font-size="11.00" fill="gray">Elabftw</text>
</g>
<!-- \\Elabftw\\Elabftw\\Db -->
<g id="node1" class="node"><title>\\Elabftw\\Elabftw\\Db</title>
<polygon fill="none" stroke="black" points="406.5,-1580 352.5,-1580 352.5,-1544 406.5,-1544 406.5,-1580"/>
<text text-anchor="middle" x="379.5" y="-1559.2" font-family="Courier,monospace" font-size="11.00">Db</text>
</g>
<!-- \\Elabftw\\Elabftw\\ItemsTypes -->
<g id="node2" class="node"><title>\\Elabftw\\Elabftw\\ItemsTypes</title>
<polygon fill="none" stroke="black" points="242,-878 158,-878 158,-842 242,-842 242,-878"/>
<text text-anchor="middle" x="200" y="-857.2" font-family="Courier,monospace" font-size="11.00">ItemsTypes</text>
</g>
<!-- \\Elabftw\\Elabftw\\Panel -->
<g id="node34" class="node"><title>\\Elabftw\\Elabftw\\Panel</title>
<polygon fill="none" stroke="black" points="86,-743 32,-743 32,-707 86,-707 86,-743"/>
<text text-anchor="middle" x="59" y="-722.2" font-family="Courier,monospace" font-size="11.00">Panel</text>
</g>
<!-- \\Elabftw\\Elabftw\\ItemsTypes&#45;&gt;\\Elabftw\\Elabftw\\Panel -->
<g id="edge1" class="edge"><title>\\Elabftw\\Elabftw\\ItemsTypes&#45;&gt;\\Elabftw\\Elabftw\\Panel</title>
<path fill="none" stroke="black" d="M169.666,-841.995C165.626,-839.142 161.625,-836.104 158,-833 128.54,-807.774 99.246,-774.066 80.4684,-751.06"/>
<polygon fill="none" stroke="black" points="83.0503,-748.687 74.0453,-743.104 77.6037,-753.084 83.0503,-748.687"/>
</g>
<!-- \\Elabftw\\Elabftw\\StatusView -->
<g id="node3" class="node"><title>\\Elabftw\\Elabftw\\StatusView</title>
<polygon fill="none" stroke="black" points="421.5,-1526 337.5,-1526 337.5,-1490 421.5,-1490 421.5,-1526"/>
<text text-anchor="middle" x="379.5" y="-1505.2" font-family="Courier,monospace" font-size="11.00">StatusView</text>
</g>
<!-- \\Elabftw\\Elabftw\\TeamsView -->
<g id="node4" class="node"><title>\\Elabftw\\Elabftw\\TeamsView</title>
<polygon fill="none" stroke="black" points="418,-1472 341,-1472 341,-1436 418,-1436 418,-1472"/>
<text text-anchor="middle" x="379.5" y="-1451.2" font-family="Courier,monospace" font-size="11.00">TeamsView</text>
</g>
<!-- \\Elabftw\\Elabftw\\Teams -->
<g id="node13" class="node"><title>\\Elabftw\\Elabftw\\Teams</title>
<polygon fill="none" stroke="black" points="227,-824 173,-824 173,-788 227,-788 227,-824"/>
<text text-anchor="middle" x="200" y="-803.2" font-family="Courier,monospace" font-size="11.00">Teams</text>
</g>
<!-- \\Elabftw\\Elabftw\\TeamsView&#45;&gt;\\Elabftw\\Elabftw\\Teams -->
<g id="edge2" class="edge"><title>\\Elabftw\\Elabftw\\TeamsView&#45;&gt;\\Elabftw\\Elabftw\\Teams</title>
<path fill="none" stroke="black" d="M340.96,-1445.79C330.74,-1441.77 320.663,-1435.81 314,-1427 153.593,-1214.89 382.026,-1059.08 242,-833 240.205,-830.102 237.97,-827.45 235.476,-825.038"/>
<polygon fill="none" stroke="black" points="237.379,-822.077 227.4,-818.518 232.982,-827.523 237.379,-822.077"/>
</g>
<!-- \\Elabftw\\Elabftw\\Tags -->
<g id="node5" class="node"><title>\\Elabftw\\Elabftw\\Tags</title>
<polygon fill="none" stroke="black" points="406.5,-1418 352.5,-1418 352.5,-1382 406.5,-1382 406.5,-1418"/>
<text text-anchor="middle" x="379.5" y="-1397.2" font-family="Courier,monospace" font-size="11.00">Tags</text>
</g>
<!-- \\Elabftw\\Elabftw\\LegacyCrypto -->
<g id="node6" class="node"><title>\\Elabftw\\Elabftw\\LegacyCrypto</title>
<polygon fill="none" stroke="black" points="428.5,-1364 330.5,-1364 330.5,-1328 428.5,-1328 428.5,-1364"/>
<text text-anchor="middle" x="379.5" y="-1343.2" font-family="Courier,monospace" font-size="11.00">LegacyCrypto</text>
</g>
<!-- \\Elabftw\\Elabftw\\ExperimentsView -->
<g id="node7" class="node"><title>\\Elabftw\\Elabftw\\ExperimentsView</title>
<polygon fill="none" stroke="black" points="438.5,-1310 320.5,-1310 320.5,-1274 438.5,-1274 438.5,-1310"/>
<text text-anchor="middle" x="379.5" y="-1289.2" font-family="Courier,monospace" font-size="11.00">ExperimentsView</text>
</g>
<!-- \\Elabftw\\Elabftw\\CryptoWrapper -->
<g id="node8" class="node"><title>\\Elabftw\\Elabftw\\CryptoWrapper</title>
<polygon fill="none" stroke="black" points="431.5,-1256 327.5,-1256 327.5,-1220 431.5,-1220 431.5,-1256"/>
<text text-anchor="middle" x="379.5" y="-1235.2" font-family="Courier,monospace" font-size="11.00">CryptoWrapper</text>
</g>
<!-- \\Elabftw\\Elabftw\\Revisions -->
<g id="node9" class="node"><title>\\Elabftw\\Elabftw\\Revisions</title>
<polygon fill="none" stroke="black" points="418,-1202 341,-1202 341,-1166 418,-1166 418,-1202"/>
<text text-anchor="middle" x="379.5" y="-1181.2" font-family="Courier,monospace" font-size="11.00">Revisions</text>
</g>
<!-- \\Elabftw\\Elabftw\\Update -->
<g id="node10" class="node"><title>\\Elabftw\\Elabftw\\Update</title>
<polygon fill="none" stroke="black" points="408,-1148 351,-1148 351,-1112 408,-1112 408,-1148"/>
<text text-anchor="middle" x="379.5" y="-1127.2" font-family="Courier,monospace" font-size="11.00">Update</text>
</g>
<!-- \\Elabftw\\Elabftw\\MolViewer -->
<g id="node11" class="node"><title>\\Elabftw\\Elabftw\\MolViewer</title>
<polygon fill="none" stroke="black" points="418,-1094 341,-1094 341,-1058 418,-1058 418,-1094"/>
<text text-anchor="middle" x="379.5" y="-1073.2" font-family="Courier,monospace" font-size="11.00">MolViewer</text>
</g>
<!-- \\Elabftw\\Elabftw\\Sysconfig -->
<g id="node12" class="node"><title>\\Elabftw\\Elabftw\\Sysconfig</title>
<polygon fill="none" stroke="black" points="418,-1040 341,-1040 341,-1004 418,-1004 418,-1040"/>
<text text-anchor="middle" x="379.5" y="-1019.2" font-family="Courier,monospace" font-size="11.00">Sysconfig</text>
</g>
<!-- \\Elabftw\\Elabftw\\Teams&#45;&gt;\\Elabftw\\Elabftw\\Panel -->
<g id="edge3" class="edge"><title>\\Elabftw\\Elabftw\\Teams&#45;&gt;\\Elabftw\\Elabftw\\Panel</title>
<path fill="none" stroke="black" d="M172.855,-790.765C150.819,-777.923 119.102,-759.441 94.8995,-745.337"/>
<polygon fill="none" stroke="black" points="96.4299,-742.178 86.0276,-740.167 92.9054,-748.226 96.4299,-742.178"/>
</g>
<!-- \\Elabftw\\Elabftw\\Import -->
<g id="node14" class="node"><title>\\Elabftw\\Elabftw\\Import</title>
<polygon fill="none" stroke="black" points="242,-230 158,-230 158,-194 242,-194 242,-230"/>
<text text-anchor="start" x="166" y="-215.2" font-family="Courier,monospace" font-size="11.00">«abstract»</text>
<text text-anchor="start" x="179.5" y="-203.2" font-family="Courier,monospace" font-size="11.00">Import</text>
</g>
<!-- \\Elabftw\\Elabftw\\SysconfigView -->
<g id="node15" class="node"><title>\\Elabftw\\Elabftw\\SysconfigView</title>
<polygon fill="none" stroke="black" points="431.5,-986 327.5,-986 327.5,-950 431.5,-950 431.5,-986"/>
<text text-anchor="middle" x="379.5" y="-965.2" font-family="Courier,monospace" font-size="11.00">SysconfigView</text>
</g>
<!-- \\Elabftw\\Elabftw\\Upload -->
<g id="node16" class="node"><title>\\Elabftw\\Elabftw\\Upload</title>
<polygon fill="none" stroke="black" points="408,-932 351,-932 351,-896 408,-896 408,-932"/>
<text text-anchor="middle" x="379.5" y="-911.2" font-family="Courier,monospace" font-size="11.00">Upload</text>
</g>
<!-- \\Elabftw\\Elabftw\\Make -->
<g id="node17" class="node"><title>\\Elabftw\\Elabftw\\Make</title>
<polygon fill="none" stroke="black" points="242,-662 158,-662 158,-626 242,-626 242,-662"/>
<text text-anchor="start" x="166" y="-647.2" font-family="Courier,monospace" font-size="11.00">«abstract»</text>
<text text-anchor="start" x="186" y="-635.2" font-family="Courier,monospace" font-size="11.00">Make</text>
</g>
<!-- \\Elabftw\\Elabftw\\Upload&#45;&gt;\\Elabftw\\Elabftw\\Make -->
<g id="edge4" class="edge"><title>\\Elabftw\\Elabftw\\Upload&#45;&gt;\\Elabftw\\Elabftw\\Make</title>
<path fill="none" stroke="black" d="M350.973,-908.075C338.209,-904.057 323.744,-897.5 314,-887 245.167,-812.824 303.65,-751.245 242,-671 241.533,-670.392 241.048,-669.793 240.546,-669.203"/>
<polygon fill="none" stroke="black" points="242.872,-666.582 233.28,-662.083 237.973,-671.582 242.872,-666.582"/>
</g>
<!-- \\Elabftw\\Elabftw\\Uploads -->
<g id="node18" class="node"><title>\\Elabftw\\Elabftw\\Uploads</title>
<polygon fill="none" stroke="black" points="411.5,-878 347.5,-878 347.5,-842 411.5,-842 411.5,-878"/>
<text text-anchor="middle" x="379.5" y="-857.2" font-family="Courier,monospace" font-size="11.00">Uploads</text>
</g>
<!-- \\Elabftw\\Elabftw\\Status -->
<g id="node19" class="node"><title>\\Elabftw\\Elabftw\\Status</title>
<polygon fill="none" stroke="black" points="228.5,-770 171.5,-770 171.5,-734 228.5,-734 228.5,-770"/>
<text text-anchor="middle" x="200" y="-749.2" font-family="Courier,monospace" font-size="11.00">Status</text>
</g>
<!-- \\Elabftw\\Elabftw\\Status&#45;&gt;\\Elabftw\\Elabftw\\Panel -->
<g id="edge5" class="edge"><title>\\Elabftw\\Elabftw\\Status&#45;&gt;\\Elabftw\\Elabftw\\Panel</title>
<path fill="none" stroke="black" d="M171.205,-746.601C149.673,-742.419 119.666,-736.59 96.2483,-732.041"/>
<polygon fill="none" stroke="black" points="96.8177,-728.586 86.3338,-730.115 95.4829,-735.458 96.8177,-728.586"/>
</g>
<!-- \\Elabftw\\Elabftw\\Formkey -->
<g id="node20" class="node"><title>\\Elabftw\\Elabftw\\Formkey</title>
<polygon fill="none" stroke="black" points="411.5,-824 347.5,-824 347.5,-788 411.5,-788 411.5,-824"/>
<text text-anchor="middle" x="379.5" y="-803.2" font-family="Courier,monospace" font-size="11.00">Formkey</text>
</g>
<!-- \\Elabftw\\Elabftw\\CommonTpl -->
<g id="node21" class="node"><title>\\Elabftw\\Elabftw\\CommonTpl</title>
<polygon fill="none" stroke="black" points="238.5,-716 161.5,-716 161.5,-680 238.5,-680 238.5,-716"/>
<text text-anchor="middle" x="200" y="-695.2" font-family="Courier,monospace" font-size="11.00">CommonTpl</text>
</g>
<!-- \\Elabftw\\Elabftw\\CommonTpl&#45;&gt;\\Elabftw\\Elabftw\\Panel -->
<g id="edge6" class="edge"><title>\\Elabftw\\Elabftw\\CommonTpl&#45;&gt;\\Elabftw\\Elabftw\\Panel</title>
<path fill="none" stroke="black" d="M161.385,-705.307C141.118,-709.243 116.234,-714.077 96.191,-717.97"/>
<polygon fill="none" stroke="black" points="95.3501,-714.568 86.201,-719.911 96.6849,-721.44 95.3501,-714.568"/>
</g>
<!-- \\Elabftw\\Elabftw\\Experiments -->
<g id="node22" class="node"><title>\\Elabftw\\Elabftw\\Experiments</title>
<polygon fill="none" stroke="black" points="425,-770 334,-770 334,-734 425,-734 425,-770"/>
<text text-anchor="middle" x="379.5" y="-749.2" font-family="Courier,monospace" font-size="11.00">Experiments</text>
</g>
<!-- \\Elabftw\\Elabftw\\TeamGroupsView -->
<g id="node23" class="node"><title>\\Elabftw\\Elabftw\\TeamGroupsView</title>
<polygon fill="none" stroke="black" points="435,-716 324,-716 324,-680 435,-680 435,-716"/>
<text text-anchor="middle" x="379.5" y="-695.2" font-family="Courier,monospace" font-size="11.00">TeamGroupsView</text>
</g>
<!-- \\Elabftw\\Elabftw\\MakeZip -->
<g id="node24" class="node"><title>\\Elabftw\\Elabftw\\MakeZip</title>
<polygon fill="none" stroke="black" points="411.5,-662 347.5,-662 347.5,-626 411.5,-626 411.5,-662"/>
<text text-anchor="middle" x="379.5" y="-641.2" font-family="Courier,monospace" font-size="11.00">MakeZip</text>
</g>
<!-- \\Elabftw\\Elabftw\\MakeZip&#45;&gt;\\Elabftw\\Elabftw\\Make -->
<g id="edge7" class="edge"><title>\\Elabftw\\Elabftw\\MakeZip&#45;&gt;\\Elabftw\\Elabftw\\Make</title>
<path fill="none" stroke="black" d="M347.175,-644C320.887,-644 282.818,-644 252.12,-644"/>
<polygon fill="none" stroke="black" points="252.02,-640.5 242.02,-644 252.02,-647.5 252.02,-640.5"/>
</g>
<!-- \\Elabftw\\Elabftw\\Users -->
<g id="node25" class="node"><title>\\Elabftw\\Elabftw\\Users</title>
<polygon fill="none" stroke="black" points="406.5,-608 352.5,-608 352.5,-572 406.5,-572 406.5,-608"/>
<text text-anchor="middle" x="379.5" y="-587.2" font-family="Courier,monospace" font-size="11.00">Users</text>
</g>
<!-- \\Elabftw\\Elabftw\\MakeCsv -->
<g id="node26" class="node"><title>\\Elabftw\\Elabftw\\MakeCsv</title>
<polygon fill="none" stroke="black" points="411.5,-554 347.5,-554 347.5,-518 411.5,-518 411.5,-554"/>
<text text-anchor="middle" x="379.5" y="-533.2" font-family="Courier,monospace" font-size="11.00">MakeCsv</text>
</g>
<!-- \\Elabftw\\Elabftw\\MakeCsv&#45;&gt;\\Elabftw\\Elabftw\\Make -->
<g id="edge8" class="edge"><title>\\Elabftw\\Elabftw\\MakeCsv&#45;&gt;\\Elabftw\\Elabftw\\Make</title>
<path fill="none" stroke="black" d="M347.246,-547.272C336.439,-551.638 324.43,-557.029 314,-563 279.287,-582.874 274.719,-593.989 242,-617 240.562,-618.011 239.09,-619.035 237.598,-620.062"/>
<polygon fill="none" stroke="black" points="235.258,-617.42 228.943,-625.927 239.185,-623.215 235.258,-617.42"/>
</g>
<!-- \\Elabftw\\Elabftw\\Tools -->
<g id="node27" class="node"><title>\\Elabftw\\Elabftw\\Tools</title>
<polygon fill="none" stroke="black" points="406.5,-500 352.5,-500 352.5,-464 406.5,-464 406.5,-500"/>
<text text-anchor="middle" x="379.5" y="-479.2" font-family="Courier,monospace" font-size="11.00">Tools</text>
</g>
<!-- \\Elabftw\\Elabftw\\ImportCsv -->
<g id="node28" class="node"><title>\\Elabftw\\Elabftw\\ImportCsv</title>
<polygon fill="none" stroke="black" points="418,-392 341,-392 341,-356 418,-356 418,-392"/>
<text text-anchor="middle" x="379.5" y="-371.2" font-family="Courier,monospace" font-size="11.00">ImportCsv</text>
</g>
<!-- \\Elabftw\\Elabftw\\ImportCsv&#45;&gt;\\Elabftw\\Elabftw\\Import -->
<g id="edge9" class="edge"><title>\\Elabftw\\Elabftw\\ImportCsv&#45;&gt;\\Elabftw\\Elabftw\\Import</title>
<path fill="none" stroke="black" d="M340.719,-361.721C331.51,-357.799 322.013,-352.906 314,-347 272.973,-316.761 237.45,-268.638 217.667,-238.759"/>
<polygon fill="none" stroke="black" points="220.43,-236.587 212.045,-230.111 214.562,-240.403 220.43,-236.587"/>
</g>
<!-- \\Elabftw\\Elabftw\\MakePdf -->
<g id="node29" class="node"><title>\\Elabftw\\Elabftw\\MakePdf</title>
<polygon fill="none" stroke="black" points="411.5,-446 347.5,-446 347.5,-410 411.5,-410 411.5,-446"/>
<text text-anchor="middle" x="379.5" y="-425.2" font-family="Courier,monospace" font-size="11.00">MakePdf</text>
</g>
<!-- \\Elabftw\\Elabftw\\MakePdf&#45;&gt;\\Elabftw\\Elabftw\\Make -->
<g id="edge10" class="edge"><title>\\Elabftw\\Elabftw\\MakePdf&#45;&gt;\\Elabftw\\Elabftw\\Make</title>
<path fill="none" stroke="black" d="M347.491,-435.677C335.837,-439.825 323.197,-446.001 314,-455 257.683,-510.103 292.959,-556.907 242,-617 241.504,-617.585 240.992,-618.162 240.466,-618.732"/>
<polygon fill="none" stroke="black" points="237.933,-616.307 232.976,-625.671 242.69,-621.442 237.933,-616.307"/>
</g>
<!-- \\Elabftw\\Elabftw\\Comments -->
<g id="node30" class="node"><title>\\Elabftw\\Elabftw\\Comments</title>
<polygon fill="none" stroke="black" points="415,-338 344,-338 344,-302 415,-302 415,-338"/>
<text text-anchor="middle" x="379.5" y="-317.2" font-family="Courier,monospace" font-size="11.00">Comments</text>
</g>
<!-- \\Elabftw\\Elabftw\\Logs -->
<g id="node31" class="node"><title>\\Elabftw\\Elabftw\\Logs</title>
<polygon fill="none" stroke="black" points="227,-608 173,-608 173,-572 227,-572 227,-608"/>
<text text-anchor="middle" x="200" y="-587.2" font-family="Courier,monospace" font-size="11.00">Logs</text>
</g>
<!-- \\Elabftw\\Elabftw\\Logs&#45;&gt;\\Elabftw\\Elabftw\\Panel -->
<g id="edge11" class="edge"><title>\\Elabftw\\Elabftw\\Logs&#45;&gt;\\Elabftw\\Elabftw\\Panel</title>
<path fill="none" stroke="black" d="M172.697,-605.903C167.651,-609.343 162.532,-613.12 158,-617 128.54,-642.226 99.246,-675.934 80.4684,-698.94"/>
<polygon fill="none" stroke="black" points="77.6037,-696.916 74.0453,-706.896 83.0503,-701.313 77.6037,-696.916"/>
</g>
<!-- \\Elabftw\\Elabftw\\TeamGroups -->
<g id="node32" class="node"><title>\\Elabftw\\Elabftw\\TeamGroups</title>
<polygon fill="none" stroke="black" points="242,-554 158,-554 158,-518 242,-518 242,-554"/>
<text text-anchor="middle" x="200" y="-533.2" font-family="Courier,monospace" font-size="11.00">TeamGroups</text>
</g>
<!-- \\Elabftw\\Elabftw\\TeamGroups&#45;&gt;\\Elabftw\\Elabftw\\Panel -->
<g id="edge12" class="edge"><title>\\Elabftw\\Elabftw\\TeamGroups&#45;&gt;\\Elabftw\\Elabftw\\Panel</title>
<path fill="none" stroke="black" d="M168.242,-554.027C164.59,-556.797 161.073,-559.807 158,-563 118.687,-603.849 87.8632,-663.189 71.9345,-697.563"/>
<polygon fill="none" stroke="black" points="68.6102,-696.418 67.659,-706.97 74.9829,-699.315 68.6102,-696.418"/>
</g>
<!-- \\Elabftw\\Elabftw\\TrustedTimestamps -->
<g id="node33" class="node"><title>\\Elabftw\\Elabftw\\TrustedTimestamps</title>
<polygon fill="none" stroke="black" points="445,-284 314,-284 314,-248 445,-248 445,-284"/>
<text text-anchor="middle" x="379.5" y="-263.2" font-family="Courier,monospace" font-size="11.00">TrustedTimestamps</text>
</g>
<!-- \\Elabftw\\Elabftw\\ItemsTypesView -->
<g id="node35" class="node"><title>\\Elabftw\\Elabftw\\ItemsTypesView</title>
<polygon fill="none" stroke="black" points="435,-230 324,-230 324,-194 435,-194 435,-230"/>
<text text-anchor="middle" x="379.5" y="-209.2" font-family="Courier,monospace" font-size="11.00">ItemsTypesView</text>
</g>
<!-- \\Elabftw\\Elabftw\\Auth -->
<g id="node36" class="node"><title>\\Elabftw\\Elabftw\\Auth</title>
<polygon fill="none" stroke="black" points="406.5,-176 352.5,-176 352.5,-140 406.5,-140 406.5,-176"/>
<text text-anchor="middle" x="379.5" y="-155.2" font-family="Courier,monospace" font-size="11.00">Auth</text>
</g>
<!-- \\Elabftw\\Elabftw\\Create -->
<g id="node37" class="node"><title>\\Elabftw\\Elabftw\\Create</title>
<polygon fill="none" stroke="black" points="408,-122 351,-122 351,-86 408,-86 408,-122"/>
<text text-anchor="middle" x="379.5" y="-101.2" font-family="Courier,monospace" font-size="11.00">Create</text>
</g>
<!-- \\Elabftw\\Elabftw\\ImportZip -->
<g id="node38" class="node"><title>\\Elabftw\\Elabftw\\ImportZip</title>
<polygon fill="none" stroke="black" points="418,-68 341,-68 341,-32 418,-32 418,-68"/>
<text text-anchor="middle" x="379.5" y="-47.2" font-family="Courier,monospace" font-size="11.00">ImportZip</text>
</g>
<!-- \\Elabftw\\Elabftw\\ImportZip&#45;&gt;\\Elabftw\\Elabftw\\Import -->
<g id="edge13" class="edge"><title>\\Elabftw\\Elabftw\\ImportZip&#45;&gt;\\Elabftw\\Elabftw\\Import</title>
<path fill="none" stroke="black" d="M340.719,-62.2788C331.51,-66.2014 322.013,-71.094 314,-77 272.973,-107.239 237.45,-155.362 217.667,-185.241"/>
<polygon fill="none" stroke="black" points="214.562,-183.597 212.045,-193.889 220.43,-187.413 214.562,-183.597"/>
</g>
</g>
</svg>
