<?xml version="1.0" encoding="UTF-8" standalone="no"?>
<!DOCTYPE svg PUBLIC "-//W3C//DTD SVG 1.1//EN"
 "http://www.w3.org/Graphics/SVG/1.1/DTD/svg11.dtd">
<!-- Generated by graphviz version 2.38.0 (20140413.2041)
 -->
<!-- Title: G Pages: 1 -->
<svg width="359pt" height="2166pt"
 viewBox="0.00 0.00 359.00 2166.00" xmlns="http://www.w3.org/2000/svg" xmlns:xlink="http://www.w3.org/1999/xlink">
<g id="graph0" class="graph" transform="scale(1 1) rotate(0) translate(4 2162)">
<title>G</title>
<polygon fill="white" stroke="none" points="-4,4 -4,-2162 355,-2162 355,4 -4,4"/>
<g id="clust1" class="cluster"><title>cluster_Global</title>
<path fill="none" stroke="gray" d="M20,-8C20,-8 331,-8 331,-8 337,-8 343,-14 343,-20 343,-20 343,-2138 343,-2138 343,-2144 337,-2150 331,-2150 331,-2150 20,-2150 20,-2150 14,-2150 8,-2144 8,-2138 8,-2138 8,-20 8,-20 8,-14 14,-8 20,-8"/>
<text text-anchor="middle" x="175.5" y="-2137.2" font-family="Times,serif" font-size="11.00" fill="gray">Global</text>
</g>
<g id="clust2" class="cluster"><title>cluster_\Elabftw</title>
<path fill="none" stroke="gray" d="M28,-16C28,-16 323,-16 323,-16 329,-16 335,-22 335,-28 335,-28 335,-2110 335,-2110 335,-2116 329,-2122 323,-2122 323,-2122 28,-2122 28,-2122 22,-2122 16,-2116 16,-2110 16,-2110 16,-28 16,-28 16,-22 22,-16 28,-16"/>
<text text-anchor="middle" x="175.5" y="-2109.2" font-family="Times,serif" font-size="11.00" fill="gray">Elabftw</text>
</g>
<g id="clust3" class="cluster"><title>cluster_\Elabftw\Elabftw</title>
<path fill="none" stroke="gray" d="M36,-24C36,-24 315,-24 315,-24 321,-24 327,-30 327,-36 327,-36 327,-2082 327,-2082 327,-2088 321,-2094 315,-2094 315,-2094 36,-2094 36,-2094 30,-2094 24,-2088 24,-2082 24,-2082 24,-36 24,-36 24,-30 30,-24 36,-24"/>
<text text-anchor="middle" x="175.5" y="-2081.2" font-family="Times,serif" font-size="11.00" fill="gray">Elabftw</text>
</g>
<!-- \\Elabftw\\Elabftw\\Database -->
<g id="node1" class="node"><title>\\Elabftw\\Elabftw\\Database</title>
<polygon fill="none" stroke="black" points="289,-1742 218,-1742 218,-1706 289,-1706 289,-1742"/>
<text text-anchor="middle" x="253.5" y="-1721.2" font-family="Courier,monospace" font-size="11.00">Database</text>
</g>
<!-- \\Elabftw\\Elabftw\\Entity -->
<g id="node13" class="node"><title>\\Elabftw\\Elabftw\\Entity</title>
<polygon fill="none" stroke="black" points="102.5,-932 45.5,-932 45.5,-896 102.5,-896 102.5,-932"/>
<text text-anchor="middle" x="74" y="-911.2" font-family="Courier,monospace" font-size="11.00">Entity</text>
</g>
<!-- \\Elabftw\\Elabftw\\Database&#45;&gt;\\Elabftw\\Elabftw\\Entity -->
<g id="edge1" class="edge"><title>\\Elabftw\\Elabftw\\Database&#45;&gt;\\Elabftw\\Elabftw\\Entity</title>
<path fill="none" stroke="black" d="M217.779,-1716.71C206.67,-1712.69 195.357,-1706.5 188,-1697 93.9331,-1575.51 77.977,-1068.26 75.4496,-942.369"/>
<polygon fill="none" stroke="black" points="78.9428,-941.966 75.2557,-932.034 71.944,-942.098 78.9428,-941.966"/>
</g>
<!-- \\Elabftw\\Elabftw\\MolViewer -->
<g id="node2" class="node"><title>\\Elabftw\\Elabftw\\MolViewer</title>
<polygon fill="none" stroke="black" points="292,-2012 215,-2012 215,-1976 292,-1976 292,-2012"/>
<text text-anchor="middle" x="253.5" y="-1991.2" font-family="Courier,monospace" font-size="11.00">MolViewer</text>
</g>
<!-- \\Elabftw\\Elabftw\\Status -->
<g id="node3" class="node"><title>\\Elabftw\\Elabftw\\Status</title>
<polygon fill="none" stroke="black" points="282,-1094 225,-1094 225,-1058 282,-1058 282,-1094"/>
<text text-anchor="middle" x="253.5" y="-1073.2" font-family="Courier,monospace" font-size="11.00">Status</text>
</g>
<!-- \\Elabftw\\Elabftw\\Status&#45;&gt;\\Elabftw\\Elabftw\\Entity -->
<g id="edge2" class="edge"><title>\\Elabftw\\Elabftw\\Status&#45;&gt;\\Elabftw\\Elabftw\\Entity</title>
<path fill="none" stroke="black" d="M224.944,-1067.76C212.904,-1063.35 199.042,-1057.14 188,-1049 146.973,-1018.76 111.45,-970.638 91.6673,-940.759"/>
<polygon fill="none" stroke="black" points="94.4301,-938.587 86.0446,-932.111 88.5617,-942.403 94.4301,-938.587"/>
</g>
<!-- \\Elabftw\\Elabftw\\Users -->
<g id="node4" class="node"><title>\\Elabftw\\Elabftw\\Users</title>
<polygon fill="none" stroke="black" points="280.5,-2066 226.5,-2066 226.5,-2030 280.5,-2030 280.5,-2066"/>
<text text-anchor="middle" x="253.5" y="-2045.2" font-family="Courier,monospace" font-size="11.00">Users</text>
</g>
<!-- \\Elabftw\\Elabftw\\Auth -->
<g id="node6" class="node"><title>\\Elabftw\\Elabftw\\Auth</title>
<polygon fill="none" stroke="black" points="101,-2066 47,-2066 47,-2030 101,-2030 101,-2066"/>
<text text-anchor="middle" x="74" y="-2045.2" font-family="Courier,monospace" font-size="11.00">Auth</text>
</g>
<!-- \\Elabftw\\Elabftw\\Users&#45;&gt;\\Elabftw\\Elabftw\\Auth -->
<g id="edge3" class="edge"><title>\\Elabftw\\Elabftw\\Users&#45;&gt;\\Elabftw\\Elabftw\\Auth</title>
<path fill="none" stroke="black" d="M226.309,-2048C195.809,-2048 145.251,-2048 111.056,-2048"/>
<polygon fill="none" stroke="black" points="111.009,-2044.5 101.009,-2048 111.009,-2051.5 111.009,-2044.5"/>
</g>
<!-- \\Elabftw\\Elabftw\\Links -->
<g id="node5" class="node"><title>\\Elabftw\\Elabftw\\Links</title>
<polygon fill="none" stroke="black" points="280.5,-932 226.5,-932 226.5,-896 280.5,-896 280.5,-932"/>
<text text-anchor="middle" x="253.5" y="-911.2" font-family="Courier,monospace" font-size="11.00">Links</text>
</g>
<!-- \\Elabftw\\Elabftw\\Links&#45;&gt;\\Elabftw\\Elabftw\\Entity -->
<g id="edge4" class="edge"><title>\\Elabftw\\Elabftw\\Links&#45;&gt;\\Elabftw\\Elabftw\\Entity</title>
<path fill="none" stroke="black" d="M226.309,-914C196.333,-914 146.984,-914 112.834,-914"/>
<polygon fill="none" stroke="black" points="112.762,-910.5 102.762,-914 112.762,-917.5 112.762,-910.5"/>
</g>
<!-- \\Elabftw\\Elabftw\\Comments -->
<g id="node7" class="node"><title>\\Elabftw\\Elabftw\\Comments</title>
<polygon fill="none" stroke="black" points="289,-878 218,-878 218,-842 289,-842 289,-878"/>
<text text-anchor="middle" x="253.5" y="-857.2" font-family="Courier,monospace" font-size="11.00">Comments</text>
</g>
<!-- \\Elabftw\\Elabftw\\Comments&#45;&gt;\\Elabftw\\Elabftw\\Entity -->
<g id="edge5" class="edge"><title>\\Elabftw\\Elabftw\\Comments&#45;&gt;\\Elabftw\\Elabftw\\Entity</title>
<path fill="none" stroke="black" d="M217.855,-870.54C187.448,-879.79 143.34,-893.209 112.197,-902.684"/>
<polygon fill="none" stroke="black" points="111.123,-899.352 102.575,-905.611 113.16,-906.049 111.123,-899.352"/>
</g>
<!-- \\Elabftw\\Elabftw\\Teams -->
<g id="node8" class="node"><title>\\Elabftw\\Elabftw\\Teams</title>
<polygon fill="none" stroke="black" points="101,-500 47,-500 47,-464 101,-464 101,-500"/>
<text text-anchor="middle" x="74" y="-479.2" font-family="Courier,monospace" font-size="11.00">Teams</text>
</g>
<!-- \\Elabftw\\Elabftw\\Import -->
<g id="node9" class="node"><title>\\Elabftw\\Elabftw\\Import</title>
<polygon fill="none" stroke="black" points="116,-392 32,-392 32,-356 116,-356 116,-392"/>
<text text-anchor="start" x="40" y="-377.2" font-family="Courier,monospace" font-size="11.00">«abstract»</text>
<text text-anchor="start" x="53.5" y="-365.2" font-family="Courier,monospace" font-size="11.00">Import</text>
</g>
<!-- \\Elabftw\\Elabftw\\ExperimentsView -->
<g id="node10" class="node"><title>\\Elabftw\\Elabftw\\ExperimentsView</title>
<polygon fill="none" stroke="black" points="312.5,-1850 194.5,-1850 194.5,-1814 312.5,-1814 312.5,-1850"/>
<text text-anchor="middle" x="253.5" y="-1829.2" font-family="Courier,monospace" font-size="11.00">ExperimentsView</text>
</g>
<!-- \\Elabftw\\Elabftw\\EntityView -->
<g id="node44" class="node"><title>\\Elabftw\\Elabftw\\EntityView</title>
<polygon fill="none" stroke="black" points="116,-1904 32,-1904 32,-1868 116,-1868 116,-1904"/>
<text text-anchor="middle" x="74" y="-1883.2" font-family="Courier,monospace" font-size="11.00">EntityView</text>
</g>
<!-- \\Elabftw\\Elabftw\\ExperimentsView&#45;&gt;\\Elabftw\\Elabftw\\EntityView -->
<g id="edge6" class="edge"><title>\\Elabftw\\Elabftw\\ExperimentsView&#45;&gt;\\Elabftw\\Elabftw\\EntityView</title>
<path fill="none" stroke="black" d="M194.38,-1849.68C172.197,-1856.43 147.105,-1864.06 125.67,-1870.59"/>
<polygon fill="none" stroke="black" points="124.65,-1867.24 116.102,-1873.5 126.688,-1873.93 124.65,-1867.24"/>
</g>
<!-- \\Elabftw\\Elabftw\\Make -->
<g id="node11" class="node"><title>\\Elabftw\\Elabftw\\Make</title>
<polygon fill="none" stroke="black" points="116,-176 32,-176 32,-140 116,-140 116,-176"/>
<text text-anchor="start" x="40" y="-161.2" font-family="Courier,monospace" font-size="11.00">«abstract»</text>
<text text-anchor="start" x="60" y="-149.2" font-family="Courier,monospace" font-size="11.00">Make</text>
</g>
<!-- \\Elabftw\\Elabftw\\TeamGroupsView -->
<g id="node12" class="node"><title>\\Elabftw\\Elabftw\\TeamGroupsView</title>
<polygon fill="none" stroke="black" points="309,-1688 198,-1688 198,-1652 309,-1652 309,-1688"/>
<text text-anchor="middle" x="253.5" y="-1667.2" font-family="Courier,monospace" font-size="11.00">TeamGroupsView</text>
</g>
<!-- \\Elabftw\\Elabftw\\Templates -->
<g id="node14" class="node"><title>\\Elabftw\\Elabftw\\Templates</title>
<polygon fill="none" stroke="black" points="292,-824 215,-824 215,-788 292,-788 292,-824"/>
<text text-anchor="middle" x="253.5" y="-803.2" font-family="Courier,monospace" font-size="11.00">Templates</text>
</g>
<!-- \\Elabftw\\Elabftw\\Templates&#45;&gt;\\Elabftw\\Elabftw\\Entity -->
<g id="edge7" class="edge"><title>\\Elabftw\\Elabftw\\Templates&#45;&gt;\\Elabftw\\Elabftw\\Entity</title>
<path fill="none" stroke="black" d="M214.983,-820.025C205.958,-823.854 196.48,-828.266 188,-833 158.286,-849.589 127.027,-872.474 104.938,-889.688"/>
<polygon fill="none" stroke="black" points="102.634,-887.047 96.9428,-895.983 106.965,-892.547 102.634,-887.047"/>
</g>
<!-- \\Elabftw\\Elabftw\\Config -->
<g id="node15" class="node"><title>\\Elabftw\\Elabftw\\Config</title>
<polygon fill="none" stroke="black" points="282,-1580 225,-1580 225,-1544 282,-1544 282,-1580"/>
<text text-anchor="middle" x="253.5" y="-1559.2" font-family="Courier,monospace" font-size="11.00">Config</text>
</g>
<!-- \\Elabftw\\Elabftw\\TagCloud -->
<g id="node16" class="node"><title>\\Elabftw\\Elabftw\\TagCloud</title>
<polygon fill="none" stroke="black" points="289,-1526 218,-1526 218,-1490 289,-1490 289,-1526"/>
<text text-anchor="middle" x="253.5" y="-1505.2" font-family="Courier,monospace" font-size="11.00">TagCloud</text>
</g>
<!-- \\Elabftw\\Elabftw\\Revisions -->
<g id="node17" class="node"><title>\\Elabftw\\Elabftw\\Revisions</title>
<polygon fill="none" stroke="black" points="292,-1472 215,-1472 215,-1436 292,-1436 292,-1472"/>
<text text-anchor="middle" x="253.5" y="-1451.2" font-family="Courier,monospace" font-size="11.00">Revisions</text>
</g>
<!-- \\Elabftw\\Elabftw\\ItemsTypesView -->
<g id="node18" class="node"><title>\\Elabftw\\Elabftw\\ItemsTypesView</title>
<polygon fill="none" stroke="black" points="309,-1418 198,-1418 198,-1382 309,-1382 309,-1418"/>
<text text-anchor="middle" x="253.5" y="-1397.2" font-family="Courier,monospace" font-size="11.00">ItemsTypesView</text>
</g>
<!-- \\Elabftw\\Elabftw\\StatusView -->
<g id="node19" class="node"><title>\\Elabftw\\Elabftw\\StatusView</title>
<polygon fill="none" stroke="black" points="295.5,-1364 211.5,-1364 211.5,-1328 295.5,-1328 295.5,-1364"/>
<text text-anchor="middle" x="253.5" y="-1343.2" font-family="Courier,monospace" font-size="11.00">StatusView</text>
</g>
<!-- \\Elabftw\\Elabftw\\UploadsView -->
<g id="node20" class="node"><title>\\Elabftw\\Elabftw\\UploadsView</title>
<polygon fill="none" stroke="black" points="299,-1958 208,-1958 208,-1922 299,-1922 299,-1958"/>
<text text-anchor="middle" x="253.5" y="-1937.2" font-family="Courier,monospace" font-size="11.00">UploadsView</text>
</g>
<!-- \\Elabftw\\Elabftw\\UploadsView&#45;&gt;\\Elabftw\\Elabftw\\EntityView -->
<g id="edge8" class="edge"><title>\\Elabftw\\Elabftw\\UploadsView&#45;&gt;\\Elabftw\\Elabftw\\EntityView</title>
<path fill="none" stroke="black" d="M207.709,-1926.37C182.757,-1918.78 151.602,-1909.3 125.751,-1901.44"/>
<polygon fill="none" stroke="black" points="126.712,-1898.07 116.126,-1898.51 124.675,-1904.77 126.712,-1898.07"/>
</g>
<!-- \\Elabftw\\Elabftw\\SysconfigView -->
<g id="node21" class="node"><title>\\Elabftw\\Elabftw\\SysconfigView</title>
<polygon fill="none" stroke="black" points="305.5,-1256 201.5,-1256 201.5,-1220 305.5,-1220 305.5,-1256"/>
<text text-anchor="middle" x="253.5" y="-1235.2" font-family="Courier,monospace" font-size="11.00">SysconfigView</text>
</g>
<!-- \\Elabftw\\Elabftw\\UserStats -->
<g id="node22" class="node"><title>\\Elabftw\\Elabftw\\UserStats</title>
<polygon fill="none" stroke="black" points="292,-1202 215,-1202 215,-1166 292,-1166 292,-1202"/>
<text text-anchor="middle" x="253.5" y="-1181.2" font-family="Courier,monospace" font-size="11.00">UserStats</text>
</g>
<!-- \\Elabftw\\Elabftw\\Formkey -->
<g id="node23" class="node"><title>\\Elabftw\\Elabftw\\Formkey</title>
<polygon fill="none" stroke="black" points="285.5,-1148 221.5,-1148 221.5,-1112 285.5,-1112 285.5,-1148"/>
<text text-anchor="middle" x="253.5" y="-1127.2" font-family="Courier,monospace" font-size="11.00">Formkey</text>
</g>
<!-- \\Elabftw\\Elabftw\\ItemsTypes -->
<g id="node24" class="node"><title>\\Elabftw\\Elabftw\\ItemsTypes</title>
<polygon fill="none" stroke="black" points="295.5,-662 211.5,-662 211.5,-626 295.5,-626 295.5,-662"/>
<text text-anchor="middle" x="253.5" y="-641.2" font-family="Courier,monospace" font-size="11.00">ItemsTypes</text>
</g>
<!-- \\Elabftw\\Elabftw\\ItemsTypes&#45;&gt;\\Elabftw\\Elabftw\\Entity -->
<g id="edge9" class="edge"><title>\\Elabftw\\Elabftw\\ItemsTypes&#45;&gt;\\Elabftw\\Elabftw\\Entity</title>
<path fill="none" stroke="black" d="M211.205,-655.94C202.815,-659.757 194.562,-664.688 188,-671 124.428,-732.15 93.0406,-836.003 81.0337,-885.77"/>
<polygon fill="none" stroke="black" points="77.5542,-885.281 78.6987,-895.814 84.3724,-886.866 77.5542,-885.281"/>
</g>
<!-- \\Elabftw\\Elabftw\\Tools -->
<g id="node25" class="node"><title>\\Elabftw\\Elabftw\\Tools</title>
<polygon fill="none" stroke="black" points="280.5,-1040 226.5,-1040 226.5,-1004 280.5,-1004 280.5,-1040"/>
<text text-anchor="middle" x="253.5" y="-1019.2" font-family="Courier,monospace" font-size="11.00">Tools</text>
</g>
<!-- \\Elabftw\\Elabftw\\Db -->
<g id="node26" class="node"><title>\\Elabftw\\Elabftw\\Db</title>
<polygon fill="none" stroke="black" points="280.5,-986 226.5,-986 226.5,-950 280.5,-950 280.5,-986"/>
<text text-anchor="middle" x="253.5" y="-965.2" font-family="Courier,monospace" font-size="11.00">Db</text>
</g>
<!-- \\Elabftw\\Elabftw\\TeamsView -->
<g id="node27" class="node"><title>\\Elabftw\\Elabftw\\TeamsView</title>
<polygon fill="none" stroke="black" points="292,-500 215,-500 215,-464 292,-464 292,-500"/>
<text text-anchor="middle" x="253.5" y="-479.2" font-family="Courier,monospace" font-size="11.00">TeamsView</text>
</g>
<!-- \\Elabftw\\Elabftw\\TeamsView&#45;&gt;\\Elabftw\\Elabftw\\Teams -->
<g id="edge10" class="edge"><title>\\Elabftw\\Elabftw\\TeamsView&#45;&gt;\\Elabftw\\Elabftw\\Teams</title>
<path fill="none" stroke="black" d="M214.857,-482C184.27,-482 141.398,-482 111.205,-482"/>
<polygon fill="none" stroke="black" points="111.095,-478.5 101.095,-482 111.095,-485.5 111.095,-478.5"/>
</g>
<!-- \\Elabftw\\Elabftw\\Experiments -->
<g id="node28" class="node"><title>\\Elabftw\\Elabftw\\Experiments</title>
<polygon fill="none" stroke="black" points="299,-554 208,-554 208,-518 299,-518 299,-554"/>
<text text-anchor="middle" x="253.5" y="-533.2" font-family="Courier,monospace" font-size="11.00">Experiments</text>
</g>
<!-- \\Elabftw\\Elabftw\\Experiments&#45;&gt;\\Elabftw\\Elabftw\\Entity -->
<g id="edge11" class="edge"><title>\\Elabftw\\Elabftw\\Experiments&#45;&gt;\\Elabftw\\Elabftw\\Entity</title>
<path fill="none" stroke="black" d="M207.938,-548.625C200.542,-552.306 193.502,-557.01 188,-563 101.012,-657.713 80.963,-819.907 76.3619,-885.362"/>
<polygon fill="none" stroke="black" points="72.8452,-885.519 75.7085,-895.719 79.8313,-885.959 72.8452,-885.519"/>
</g>
<!-- \\Elabftw\\Elabftw\\ImportZip -->
<g id="node29" class="node"><title>\\Elabftw\\Elabftw\\ImportZip</title>
<polygon fill="none" stroke="black" points="292,-338 215,-338 215,-302 292,-302 292,-338"/>
<text text-anchor="middle" x="253.5" y="-317.2" font-family="Courier,monospace" font-size="11.00">ImportZip</text>
</g>
<!-- \\Elabftw\\Elabftw\\ImportZip&#45;&gt;\\Elabftw\\Elabftw\\Import -->
<g id="edge12" class="edge"><title>\\Elabftw\\Elabftw\\ImportZip&#45;&gt;\\Elabftw\\Elabftw\\Import</title>
<path fill="none" stroke="black" d="M214.857,-331.452C189.004,-339.317 154.374,-349.852 126.042,-358.472"/>
<polygon fill="none" stroke="black" points="124.856,-355.174 116.308,-361.433 126.894,-361.871 124.856,-355.174"/>
</g>
<!-- \\Elabftw\\Elabftw\\MakeCsv -->
<g id="node30" class="node"><title>\\Elabftw\\Elabftw\\MakeCsv</title>
<polygon fill="none" stroke="black" points="285.5,-122 221.5,-122 221.5,-86 285.5,-86 285.5,-122"/>
<text text-anchor="middle" x="253.5" y="-101.2" font-family="Courier,monospace" font-size="11.00">MakeCsv</text>
</g>
<!-- \\Elabftw\\Elabftw\\MakeCsv&#45;&gt;\\Elabftw\\Elabftw\\Make -->
<g id="edge13" class="edge"><title>\\Elabftw\\Elabftw\\MakeCsv&#45;&gt;\\Elabftw\\Elabftw\\Make</title>
<path fill="none" stroke="black" d="M221.175,-113.53C194.772,-121.562 156.486,-133.21 125.72,-142.57"/>
<polygon fill="none" stroke="black" points="124.568,-139.262 116.02,-145.521 126.606,-145.959 124.568,-139.262"/>
</g>
<!-- \\Elabftw\\Elabftw\\BannedUsers -->
<g id="node31" class="node"><title>\\Elabftw\\Elabftw\\BannedUsers</title>
<polygon fill="none" stroke="black" points="299,-716 208,-716 208,-680 299,-680 299,-716"/>
<text text-anchor="middle" x="253.5" y="-695.2" font-family="Courier,monospace" font-size="11.00">BannedUsers</text>
</g>
<!-- \\Elabftw\\Elabftw\\Uploads -->
<g id="node32" class="node"><title>\\Elabftw\\Elabftw\\Uploads</title>
<polygon fill="none" stroke="black" points="285.5,-1796 221.5,-1796 221.5,-1760 285.5,-1760 285.5,-1796"/>
<text text-anchor="middle" x="253.5" y="-1775.2" font-family="Courier,monospace" font-size="11.00">Uploads</text>
</g>
<!-- \\Elabftw\\Elabftw\\Uploads&#45;&gt;\\Elabftw\\Elabftw\\Entity -->
<g id="edge14" class="edge"><title>\\Elabftw\\Elabftw\\Uploads&#45;&gt;\\Elabftw\\Elabftw\\Entity</title>
<path fill="none" stroke="black" d="M221.422,-1772.01C209.178,-1768.07 196.127,-1761.6 188,-1751 87.6409,-1620.15 76.4039,-1073.09 75.1546,-942.218"/>
<polygon fill="none" stroke="black" points="78.6543,-942.156 75.0711,-932.185 71.6545,-942.214 78.6543,-942.156"/>
</g>
<!-- \\Elabftw\\Elabftw\\TeamGroups -->
<g id="node33" class="node"><title>\\Elabftw\\Elabftw\\TeamGroups</title>
<polygon fill="none" stroke="black" points="295.5,-608 211.5,-608 211.5,-572 295.5,-572 295.5,-608"/>
<text text-anchor="middle" x="253.5" y="-587.2" font-family="Courier,monospace" font-size="11.00">TeamGroups</text>
</g>
<!-- \\Elabftw\\Elabftw\\MakeZip -->
<g id="node34" class="node"><title>\\Elabftw\\Elabftw\\MakeZip</title>
<polygon fill="none" stroke="black" points="285.5,-176 221.5,-176 221.5,-140 285.5,-140 285.5,-176"/>
<text text-anchor="middle" x="253.5" y="-155.2" font-family="Courier,monospace" font-size="11.00">MakeZip</text>
</g>
<!-- \\Elabftw\\Elabftw\\MakeZip&#45;&gt;\\Elabftw\\Elabftw\\Make -->
<g id="edge15" class="edge"><title>\\Elabftw\\Elabftw\\MakeZip&#45;&gt;\\Elabftw\\Elabftw\\Make</title>
<path fill="none" stroke="black" d="M221.175,-158C194.887,-158 156.818,-158 126.12,-158"/>
<polygon fill="none" stroke="black" points="126.02,-154.5 116.02,-158 126.02,-161.5 126.02,-154.5"/>
</g>
<!-- \\Elabftw\\Elabftw\\DatabaseView -->
<g id="node35" class="node"><title>\\Elabftw\\Elabftw\\DatabaseView</title>
<polygon fill="none" stroke="black" points="302.5,-1904 204.5,-1904 204.5,-1868 302.5,-1868 302.5,-1904"/>
<text text-anchor="middle" x="253.5" y="-1883.2" font-family="Courier,monospace" font-size="11.00">DatabaseView</text>
</g>
<!-- \\Elabftw\\Elabftw\\DatabaseView&#45;&gt;\\Elabftw\\Elabftw\\EntityView -->
<g id="edge16" class="edge"><title>\\Elabftw\\Elabftw\\DatabaseView&#45;&gt;\\Elabftw\\Elabftw\\EntityView</title>
<path fill="none" stroke="black" d="M204.466,-1886C180.3,-1886 150.992,-1886 126.376,-1886"/>
<polygon fill="none" stroke="black" points="126.143,-1882.5 116.143,-1886 126.143,-1889.5 126.143,-1882.5"/>
</g>
<!-- \\Elabftw\\Elabftw\\ImportCsv -->
<g id="node36" class="node"><title>\\Elabftw\\Elabftw\\ImportCsv</title>
<polygon fill="none" stroke="black" points="292,-446 215,-446 215,-410 292,-410 292,-446"/>
<text text-anchor="middle" x="253.5" y="-425.2" font-family="Courier,monospace" font-size="11.00">ImportCsv</text>
</g>
<!-- \\Elabftw\\Elabftw\\ImportCsv&#45;&gt;\\Elabftw\\Elabftw\\Import -->
<g id="edge17" class="edge"><title>\\Elabftw\\Elabftw\\ImportCsv&#45;&gt;\\Elabftw\\Elabftw\\Import</title>
<path fill="none" stroke="black" d="M214.857,-416.548C189.004,-408.683 154.374,-398.148 126.042,-389.528"/>
<polygon fill="none" stroke="black" points="126.894,-386.129 116.308,-386.567 124.856,-392.826 126.894,-386.129"/>
</g>
<!-- \\Elabftw\\Elabftw\\Sysconfig -->
<g id="node37" class="node"><title>\\Elabftw\\Elabftw\\Sysconfig</title>
<polygon fill="none" stroke="black" points="292,-392 215,-392 215,-356 292,-356 292,-392"/>
<text text-anchor="middle" x="253.5" y="-371.2" font-family="Courier,monospace" font-size="11.00">Sysconfig</text>
</g>
<!-- \\Elabftw\\Elabftw\\Tags -->
<g id="node38" class="node"><title>\\Elabftw\\Elabftw\\Tags</title>
<polygon fill="none" stroke="black" points="280.5,-1310 226.5,-1310 226.5,-1274 280.5,-1274 280.5,-1310"/>
<text text-anchor="middle" x="253.5" y="-1289.2" font-family="Courier,monospace" font-size="11.00">Tags</text>
</g>
<!-- \\Elabftw\\Elabftw\\Tags&#45;&gt;\\Elabftw\\Elabftw\\Entity -->
<g id="edge18" class="edge"><title>\\Elabftw\\Elabftw\\Tags&#45;&gt;\\Elabftw\\Elabftw\\Entity</title>
<path fill="none" stroke="black" d="M226.219,-1286.52C213.136,-1282.55 198.018,-1275.91 188,-1265 101.012,-1170.29 80.963,-1008.09 76.3619,-942.638"/>
<polygon fill="none" stroke="black" points="79.8313,-942.041 75.7085,-932.281 72.8452,-942.481 79.8313,-942.041"/>
</g>
<!-- \\Elabftw\\Elabftw\\MakePdf -->
<g id="node39" class="node"><title>\\Elabftw\\Elabftw\\MakePdf</title>
<polygon fill="none" stroke="black" points="285.5,-284 221.5,-284 221.5,-248 285.5,-248 285.5,-284"/>
<text text-anchor="middle" x="253.5" y="-263.2" font-family="Courier,monospace" font-size="11.00">MakePdf</text>
</g>
<!-- \\Elabftw\\Elabftw\\MakePdf&#45;&gt;\\Elabftw\\Elabftw\\Make -->
<g id="edge19" class="edge"><title>\\Elabftw\\Elabftw\\MakePdf&#45;&gt;\\Elabftw\\Elabftw\\Make</title>
<path fill="none" stroke="black" d="M221.318,-254.601C210.517,-250.224 198.493,-244.858 188,-239 158.286,-222.411 127.027,-199.526 104.938,-182.312"/>
<polygon fill="none" stroke="black" points="106.965,-179.453 96.9428,-176.017 102.634,-184.953 106.965,-179.453"/>
</g>
<!-- \\Elabftw\\Elabftw\\Update -->
<g id="node40" class="node"><title>\\Elabftw\\Elabftw\\Update</title>
<polygon fill="none" stroke="black" points="282,-230 225,-230 225,-194 282,-194 282,-230"/>
<text text-anchor="middle" x="253.5" y="-209.2" font-family="Courier,monospace" font-size="11.00">Update</text>
</g>
<!-- \\Elabftw\\Elabftw\\TrustedTimestamps -->
<g id="node41" class="node"><title>\\Elabftw\\Elabftw\\TrustedTimestamps</title>
<polygon fill="none" stroke="black" points="319,-770 188,-770 188,-734 319,-734 319,-770"/>
<text text-anchor="middle" x="253.5" y="-749.2" font-family="Courier,monospace" font-size="11.00">TrustedTimestamps</text>
</g>
<!-- \\Elabftw\\Elabftw\\TrustedTimestamps&#45;&gt;\\Elabftw\\Elabftw\\Entity -->
<g id="edge20" class="edge"><title>\\Elabftw\\Elabftw\\TrustedTimestamps&#45;&gt;\\Elabftw\\Elabftw\\Entity</title>
<path fill="none" stroke="black" d="M202.574,-770.01C197.457,-772.693 192.495,-775.687 188,-779 146.973,-809.239 111.45,-857.362 91.6673,-887.241"/>
<polygon fill="none" stroke="black" points="88.5617,-885.597 86.0446,-895.889 94.4301,-889.413 88.5617,-885.597"/>
</g>
<!-- \\Elabftw\\Elabftw\\Scheduler -->
<g id="node42" class="node"><title>\\Elabftw\\Elabftw\\Scheduler</title>
<polygon fill="none" stroke="black" points="292,-1634 215,-1634 215,-1598 292,-1598 292,-1634"/>
<text text-anchor="middle" x="253.5" y="-1613.2" font-family="Courier,monospace" font-size="11.00">Scheduler</text>
</g>
<!-- \\Elabftw\\Elabftw\\Scheduler&#45;&gt;\\Elabftw\\Elabftw\\Entity -->
<g id="edge21" class="edge"><title>\\Elabftw\\Elabftw\\Scheduler&#45;&gt;\\Elabftw\\Elabftw\\Entity</title>
<path fill="none" stroke="black" d="M214.87,-1607.47C204.772,-1603.44 194.786,-1597.56 188,-1589 106.324,-1485.93 81.4082,-1056.42 76.1607,-942.072"/>
<polygon fill="none" stroke="black" points="79.6542,-941.845 75.713,-932.011 72.6611,-942.156 79.6542,-941.845"/>
</g>
<!-- \\Elabftw\\Elabftw\\Logs -->
<g id="node43" class="node"><title>\\Elabftw\\Elabftw\\Logs</title>
<polygon fill="none" stroke="black" points="280.5,-68 226.5,-68 226.5,-32 280.5,-32 280.5,-68"/>
<text text-anchor="middle" x="253.5" y="-47.2" font-family="Courier,monospace" font-size="11.00">Logs</text>
</g>
</g>
</svg>
