<?xml version="1.0" encoding="UTF-8" standalone="no"?>
<!DOCTYPE svg PUBLIC "-//W3C//DTD SVG 1.1//EN"
 "http://www.w3.org/Graphics/SVG/1.1/DTD/svg11.dtd">
<!-- Generated by graphviz version 2.38.0 (20140413.2041)
 -->
<!-- Title: G Pages: 1 -->
<svg width="340pt" height="2166pt"
 viewBox="0.00 0.00 340.00 2166.00" xmlns="http://www.w3.org/2000/svg" xmlns:xlink="http://www.w3.org/1999/xlink">
<g id="graph0" class="graph" transform="scale(1 1) rotate(0) translate(4 2162)">
<title>G</title>
<polygon fill="white" stroke="none" points="-4,4 -4,-2162 336,-2162 336,4 -4,4"/>
<g id="clust1" class="cluster"><title>cluster_Global</title>
<path fill="none" stroke="gray" d="M20,-8C20,-8 312,-8 312,-8 318,-8 324,-14 324,-20 324,-20 324,-2138 324,-2138 324,-2144 318,-2150 312,-2150 312,-2150 20,-2150 20,-2150 14,-2150 8,-2144 8,-2138 8,-2138 8,-20 8,-20 8,-14 14,-8 20,-8"/>
<text text-anchor="middle" x="166" y="-2137.2" font-family="Times,serif" font-size="11.00" fill="gray">Global</text>
</g>
<g id="clust2" class="cluster"><title>cluster_\Elabftw</title>
<path fill="none" stroke="gray" d="M28,-16C28,-16 304,-16 304,-16 310,-16 316,-22 316,-28 316,-28 316,-2110 316,-2110 316,-2116 310,-2122 304,-2122 304,-2122 28,-2122 28,-2122 22,-2122 16,-2116 16,-2110 16,-2110 16,-28 16,-28 16,-22 22,-16 28,-16"/>
<text text-anchor="middle" x="166" y="-2109.2" font-family="Times,serif" font-size="11.00" fill="gray">Elabftw</text>
</g>
<g id="clust3" class="cluster"><title>cluster_\Elabftw\Elabftw</title>
<path fill="none" stroke="gray" d="M36,-24C36,-24 296,-24 296,-24 302,-24 308,-30 308,-36 308,-36 308,-2082 308,-2082 308,-2088 302,-2094 296,-2094 296,-2094 36,-2094 36,-2094 30,-2094 24,-2088 24,-2082 24,-2082 24,-36 24,-36 24,-30 30,-24 36,-24"/>
<text text-anchor="middle" x="166" y="-2081.2" font-family="Times,serif" font-size="11.00" fill="gray">Elabftw</text>
</g>
<!-- \\Elabftw\\Elabftw\\MakePdf -->
<g id="node1" class="node"><title>\\Elabftw\\Elabftw\\MakePdf</title>
<polygon fill="none" stroke="black" points="270,-1904 211,-1904 211,-1868 270,-1868 270,-1904"/>
<text text-anchor="middle" x="240.5" y="-1883.2" font-family="Courier,monospace" font-size="11.00">MakePdf</text>
</g>
<!-- \\Elabftw\\Elabftw\\Make -->
<g id="node16" class="node"><title>\\Elabftw\\Elabftw\\Make</title>
<polygon fill="none" stroke="black" points="109,-1958 32,-1958 32,-1922 109,-1922 109,-1958"/>
<text text-anchor="start" x="40" y="-1943.2" font-family="Courier,monospace" font-size="11.00">«abstract»</text>
<text text-anchor="start" x="58" y="-1931.2" font-family="Courier,monospace" font-size="11.00">Make</text>
</g>
<!-- \\Elabftw\\Elabftw\\MakePdf&#45;&gt;\\Elabftw\\Elabftw\\Make -->
<g id="edge1" class="edge"><title>\\Elabftw\\Elabftw\\MakePdf&#45;&gt;\\Elabftw\\Elabftw\\Make</title>
<path fill="none" stroke="black" d="M210.62,-1895.28C185.418,-1903.38 148.364,-1915.29 118.833,-1924.79"/>
<polygon fill="none" stroke="black" points="117.584,-1921.51 109.135,-1927.9 119.726,-1928.18 117.584,-1921.51"/>
</g>
<!-- \\Elabftw\\Elabftw\\TagCloud -->
<g id="node2" class="node"><title>\\Elabftw\\Elabftw\\TagCloud</title>
<polygon fill="none" stroke="black" points="273,-2012 208,-2012 208,-1976 273,-1976 273,-2012"/>
<text text-anchor="middle" x="240.5" y="-1991.2" font-family="Courier,monospace" font-size="11.00">TagCloud</text>
</g>
<!-- \\Elabftw\\Elabftw\\Import -->
<g id="node3" class="node"><title>\\Elabftw\\Elabftw\\Import</title>
<polygon fill="none" stroke="black" points="109,-1526 32,-1526 32,-1490 109,-1490 109,-1526"/>
<text text-anchor="start" x="40" y="-1511.2" font-family="Courier,monospace" font-size="11.00">«abstract»</text>
<text text-anchor="start" x="52" y="-1499.2" font-family="Courier,monospace" font-size="11.00">Import</text>
</g>
<!-- \\Elabftw\\Elabftw\\MakeCsv -->
<g id="node4" class="node"><title>\\Elabftw\\Elabftw\\MakeCsv</title>
<polygon fill="none" stroke="black" points="270,-2066 211,-2066 211,-2030 270,-2030 270,-2066"/>
<text text-anchor="middle" x="240.5" y="-2045.2" font-family="Courier,monospace" font-size="11.00">MakeCsv</text>
</g>
<!-- \\Elabftw\\Elabftw\\MakeCsv&#45;&gt;\\Elabftw\\Elabftw\\Make -->
<g id="edge2" class="edge"><title>\\Elabftw\\Elabftw\\MakeCsv&#45;&gt;\\Elabftw\\Elabftw\\Make</title>
<path fill="none" stroke="black" d="M210.934,-2036.22C201.216,-2031.85 190.432,-2026.59 181,-2021 152.62,-2004.19 122.659,-1981.65 101.264,-1964.62"/>
<polygon fill="none" stroke="black" points="103.208,-1961.69 93.2213,-1958.15 98.8216,-1967.15 103.208,-1961.69"/>
</g>
<!-- \\Elabftw\\Elabftw\\ImportCsv -->
<g id="node5" class="node"><title>\\Elabftw\\Elabftw\\ImportCsv</title>
<polygon fill="none" stroke="black" points="276,-1472 205,-1472 205,-1436 276,-1436 276,-1472"/>
<text text-anchor="middle" x="240.5" y="-1451.2" font-family="Courier,monospace" font-size="11.00">ImportCsv</text>
</g>
<!-- \\Elabftw\\Elabftw\\ImportCsv&#45;&gt;\\Elabftw\\Elabftw\\Import -->
<g id="edge3" class="edge"><title>\\Elabftw\\Elabftw\\ImportCsv&#45;&gt;\\Elabftw\\Elabftw\\Import</title>
<path fill="none" stroke="black" d="M204.69,-1465.19C179.867,-1473.17 146.194,-1483.99 118.918,-1492.76"/>
<polygon fill="none" stroke="black" points="117.635,-1489.49 109.186,-1495.89 119.777,-1496.16 117.635,-1489.49"/>
</g>
<!-- \\Elabftw\\Elabftw\\UserStats -->
<g id="node6" class="node"><title>\\Elabftw\\Elabftw\\UserStats</title>
<polygon fill="none" stroke="black" points="276,-1850 205,-1850 205,-1814 276,-1814 276,-1850"/>
<text text-anchor="middle" x="240.5" y="-1829.2" font-family="Courier,monospace" font-size="11.00">UserStats</text>
</g>
<!-- \\Elabftw\\Elabftw\\Tools -->
<g id="node7" class="node"><title>\\Elabftw\\Elabftw\\Tools</title>
<polygon fill="none" stroke="black" points="267.5,-1796 213.5,-1796 213.5,-1760 267.5,-1760 267.5,-1796"/>
<text text-anchor="middle" x="240.5" y="-1775.2" font-family="Courier,monospace" font-size="11.00">Tools</text>
</g>
<!-- \\Elabftw\\Elabftw\\Formkey -->
<g id="node8" class="node"><title>\\Elabftw\\Elabftw\\Formkey</title>
<polygon fill="none" stroke="black" points="270,-1742 211,-1742 211,-1706 270,-1706 270,-1742"/>
<text text-anchor="middle" x="240.5" y="-1721.2" font-family="Courier,monospace" font-size="11.00">Formkey</text>
</g>
<!-- \\Elabftw\\Elabftw\\Update -->
<g id="node9" class="node"><title>\\Elabftw\\Elabftw\\Update</title>
<polygon fill="none" stroke="black" points="267.5,-1688 213.5,-1688 213.5,-1652 267.5,-1652 267.5,-1688"/>
<text text-anchor="middle" x="240.5" y="-1667.2" font-family="Courier,monospace" font-size="11.00">Update</text>
</g>
<!-- \\Elabftw\\Elabftw\\MolViewer -->
<g id="node10" class="node"><title>\\Elabftw\\Elabftw\\MolViewer</title>
<polygon fill="none" stroke="black" points="276,-1634 205,-1634 205,-1598 276,-1598 276,-1634"/>
<text text-anchor="middle" x="240.5" y="-1613.2" font-family="Courier,monospace" font-size="11.00">MolViewer</text>
</g>
<!-- \\Elabftw\\Elabftw\\TrustedTimestamps -->
<g id="node11" class="node"><title>\\Elabftw\\Elabftw\\TrustedTimestamps</title>
<polygon fill="none" stroke="black" points="300,-1256 181,-1256 181,-1220 300,-1220 300,-1256"/>
<text text-anchor="middle" x="240.5" y="-1235.2" font-family="Courier,monospace" font-size="11.00">TrustedTimestamps</text>
</g>
<!-- \\Elabftw\\Elabftw\\Entity -->
<g id="node26" class="node"><title>\\Elabftw\\Elabftw\\Entity</title>
<polygon fill="none" stroke="black" points="97.5,-932 43.5,-932 43.5,-896 97.5,-896 97.5,-932"/>
<text text-anchor="middle" x="70.5" y="-911.2" font-family="Courier,monospace" font-size="11.00">Entity</text>
</g>
<!-- \\Elabftw\\Elabftw\\TrustedTimestamps&#45;&gt;\\Elabftw\\Elabftw\\Entity -->
<g id="edge4" class="edge"><title>\\Elabftw\\Elabftw\\TrustedTimestamps&#45;&gt;\\Elabftw\\Elabftw\\Entity</title>
<path fill="none" stroke="black" d="M191.606,-1219.98C187.728,-1217.35 184.112,-1214.37 181,-1211 107.956,-1131.93 82.5844,-999.984 74.6956,-942.367"/>
<polygon fill="none" stroke="black" points="78.133,-941.657 73.3802,-932.188 71.1907,-942.554 78.133,-941.657"/>
</g>
<!-- \\Elabftw\\Elabftw\\Db -->
<g id="node12" class="node"><title>\\Elabftw\\Elabftw\\Db</title>
<polygon fill="none" stroke="black" points="267.5,-1526 213.5,-1526 213.5,-1490 267.5,-1490 267.5,-1526"/>
<text text-anchor="middle" x="240.5" y="-1505.2" font-family="Courier,monospace" font-size="11.00">Db</text>
</g>
<!-- \\Elabftw\\Elabftw\\MakeZip -->
<g id="node13" class="node"><title>\\Elabftw\\Elabftw\\MakeZip</title>
<polygon fill="none" stroke="black" points="270,-1958 211,-1958 211,-1922 270,-1922 270,-1958"/>
<text text-anchor="middle" x="240.5" y="-1937.2" font-family="Courier,monospace" font-size="11.00">MakeZip</text>
</g>
<!-- \\Elabftw\\Elabftw\\MakeZip&#45;&gt;\\Elabftw\\Elabftw\\Make -->
<g id="edge5" class="edge"><title>\\Elabftw\\Elabftw\\MakeZip&#45;&gt;\\Elabftw\\Elabftw\\Make</title>
<path fill="none" stroke="black" d="M210.62,-1940C185.527,-1940 148.686,-1940 119.219,-1940"/>
<polygon fill="none" stroke="black" points="119.135,-1936.5 109.135,-1940 119.135,-1943.5 119.135,-1936.5"/>
</g>
<!-- \\Elabftw\\Elabftw\\Auth -->
<g id="node14" class="node"><title>\\Elabftw\\Elabftw\\Auth</title>
<polygon fill="none" stroke="black" points="97.5,-1418 43.5,-1418 43.5,-1382 97.5,-1382 97.5,-1418"/>
<text text-anchor="middle" x="70.5" y="-1397.2" font-family="Courier,monospace" font-size="11.00">Auth</text>
</g>
<!-- \\Elabftw\\Elabftw\\ImportZip -->
<g id="node15" class="node"><title>\\Elabftw\\Elabftw\\ImportZip</title>
<polygon fill="none" stroke="black" points="276,-1580 205,-1580 205,-1544 276,-1544 276,-1580"/>
<text text-anchor="middle" x="240.5" y="-1559.2" font-family="Courier,monospace" font-size="11.00">ImportZip</text>
</g>
<!-- \\Elabftw\\Elabftw\\ImportZip&#45;&gt;\\Elabftw\\Elabftw\\Import -->
<g id="edge6" class="edge"><title>\\Elabftw\\Elabftw\\ImportZip&#45;&gt;\\Elabftw\\Elabftw\\Import</title>
<path fill="none" stroke="black" d="M204.69,-1550.81C179.867,-1542.83 146.194,-1532.01 118.918,-1523.24"/>
<polygon fill="none" stroke="black" points="119.777,-1519.84 109.186,-1520.11 117.635,-1526.51 119.777,-1519.84"/>
</g>
<!-- \\Elabftw\\Elabftw\\Status -->
<g id="node17" class="node"><title>\\Elabftw\\Elabftw\\Status</title>
<polygon fill="none" stroke="black" points="267.5,-1364 213.5,-1364 213.5,-1328 267.5,-1328 267.5,-1364"/>
<text text-anchor="middle" x="240.5" y="-1343.2" font-family="Courier,monospace" font-size="11.00">Status</text>
</g>
<!-- \\Elabftw\\Elabftw\\Revisions -->
<g id="node18" class="node"><title>\\Elabftw\\Elabftw\\Revisions</title>
<polygon fill="none" stroke="black" points="276,-1310 205,-1310 205,-1274 276,-1274 276,-1310"/>
<text text-anchor="middle" x="240.5" y="-1289.2" font-family="Courier,monospace" font-size="11.00">Revisions</text>
</g>
<!-- \\Elabftw\\Elabftw\\Uploads -->
<g id="node19" class="node"><title>\\Elabftw\\Elabftw\\Uploads</title>
<polygon fill="none" stroke="black" points="270,-878 211,-878 211,-842 270,-842 270,-878"/>
<text text-anchor="middle" x="240.5" y="-857.2" font-family="Courier,monospace" font-size="11.00">Uploads</text>
</g>
<!-- \\Elabftw\\Elabftw\\Uploads&#45;&gt;\\Elabftw\\Elabftw\\Entity -->
<g id="edge7" class="edge"><title>\\Elabftw\\Elabftw\\Uploads&#45;&gt;\\Elabftw\\Elabftw\\Entity</title>
<path fill="none" stroke="black" d="M210.62,-869.283C182.046,-878.467 138.238,-892.548 107.431,-902.451"/>
<polygon fill="none" stroke="black" points="105.972,-899.243 97.5233,-905.635 108.115,-905.907 105.972,-899.243"/>
</g>
<!-- \\Elabftw\\Elabftw\\Users -->
<g id="node20" class="node"><title>\\Elabftw\\Elabftw\\Users</title>
<polygon fill="none" stroke="black" points="267.5,-1418 213.5,-1418 213.5,-1382 267.5,-1382 267.5,-1418"/>
<text text-anchor="middle" x="240.5" y="-1397.2" font-family="Courier,monospace" font-size="11.00">Users</text>
</g>
<!-- \\Elabftw\\Elabftw\\Users&#45;&gt;\\Elabftw\\Elabftw\\Auth -->
<g id="edge8" class="edge"><title>\\Elabftw\\Elabftw\\Users&#45;&gt;\\Elabftw\\Elabftw\\Auth</title>
<path fill="none" stroke="black" d="M213.25,-1400C184.894,-1400 139.521,-1400 107.768,-1400"/>
<polygon fill="none" stroke="black" points="107.566,-1396.5 97.5657,-1400 107.566,-1403.5 107.566,-1396.5"/>
</g>
<!-- \\Elabftw\\Elabftw\\BannedUsers -->
<g id="node21" class="node"><title>\\Elabftw\\Elabftw\\BannedUsers</title>
<polygon fill="none" stroke="black" points="282,-1148 199,-1148 199,-1112 282,-1112 282,-1148"/>
<text text-anchor="middle" x="240.5" y="-1127.2" font-family="Courier,monospace" font-size="11.00">BannedUsers</text>
</g>
<!-- \\Elabftw\\Elabftw\\Logs -->
<g id="node22" class="node"><title>\\Elabftw\\Elabftw\\Logs</title>
<polygon fill="none" stroke="black" points="267.5,-1094 213.5,-1094 213.5,-1058 267.5,-1058 267.5,-1094"/>
<text text-anchor="middle" x="240.5" y="-1073.2" font-family="Courier,monospace" font-size="11.00">Logs</text>
</g>
<!-- \\Elabftw\\Elabftw\\ItemsTypes -->
<g id="node23" class="node"><title>\\Elabftw\\Elabftw\\ItemsTypes</title>
<polygon fill="none" stroke="black" points="279,-1040 202,-1040 202,-1004 279,-1004 279,-1040"/>
<text text-anchor="middle" x="240.5" y="-1019.2" font-family="Courier,monospace" font-size="11.00">ItemsTypes</text>
</g>
<!-- \\Elabftw\\Elabftw\\Comments -->
<g id="node24" class="node"><title>\\Elabftw\\Elabftw\\Comments</title>
<polygon fill="none" stroke="black" points="273,-716 208,-716 208,-680 273,-680 273,-716"/>
<text text-anchor="middle" x="240.5" y="-695.2" font-family="Courier,monospace" font-size="11.00">Comments</text>
</g>
<!-- \\Elabftw\\Elabftw\\Comments&#45;&gt;\\Elabftw\\Elabftw\\Entity -->
<g id="edge9" class="edge"><title>\\Elabftw\\Elabftw\\Comments&#45;&gt;\\Elabftw\\Elabftw\\Entity</title>
<path fill="none" stroke="black" d="M207.903,-708.377C198.512,-712.514 188.689,-717.993 181,-725 130.356,-771.154 96.6529,-846.31 81.2056,-886.535"/>
<polygon fill="none" stroke="black" points="77.9015,-885.378 77.6724,-895.971 84.457,-887.833 77.9015,-885.378"/>
</g>
<!-- \\Elabftw\\Elabftw\\Scheduler -->
<g id="node25" class="node"><title>\\Elabftw\\Elabftw\\Scheduler</title>
<polygon fill="none" stroke="black" points="276,-554 205,-554 205,-518 276,-518 276,-554"/>
<text text-anchor="middle" x="240.5" y="-533.2" font-family="Courier,monospace" font-size="11.00">Scheduler</text>
</g>
<!-- \\Elabftw\\Elabftw\\Scheduler&#45;&gt;\\Elabftw\\Elabftw\\Entity -->
<g id="edge10" class="edge"><title>\\Elabftw\\Elabftw\\Scheduler&#45;&gt;\\Elabftw\\Elabftw\\Entity</title>
<path fill="none" stroke="black" d="M204.766,-546.342C196.03,-550.351 187.346,-555.77 181,-563 96.4099,-659.37 77.1505,-820.621 72.7784,-885.593"/>
<polygon fill="none" stroke="black" points="69.267,-885.679 72.1593,-895.871 76.2543,-886.1 69.267,-885.679"/>
</g>
<!-- \\Elabftw\\Elabftw\\Teams -->
<g id="node27" class="node"><title>\\Elabftw\\Elabftw\\Teams</title>
<polygon fill="none" stroke="black" points="97.5,-392 43.5,-392 43.5,-356 97.5,-356 97.5,-392"/>
<text text-anchor="middle" x="70.5" y="-371.2" font-family="Courier,monospace" font-size="11.00">Teams</text>
</g>
<!-- \\Elabftw\\Elabftw\\Tags -->
<g id="node28" class="node"><title>\\Elabftw\\Elabftw\\Tags</title>
<polygon fill="none" stroke="black" points="267.5,-1202 213.5,-1202 213.5,-1166 267.5,-1166 267.5,-1202"/>
<text text-anchor="middle" x="240.5" y="-1181.2" font-family="Courier,monospace" font-size="11.00">Tags</text>
</g>
<!-- \\Elabftw\\Elabftw\\Tags&#45;&gt;\\Elabftw\\Elabftw\\Entity -->
<g id="edge11" class="edge"><title>\\Elabftw\\Elabftw\\Tags&#45;&gt;\\Elabftw\\Elabftw\\Entity</title>
<path fill="none" stroke="black" d="M213.461,-1176.54C202.338,-1172.29 189.897,-1165.98 181,-1157 119.248,-1094.69 88.9042,-991.394 77.3166,-941.995"/>
<polygon fill="none" stroke="black" points="80.6826,-941.011 75.0638,-932.029 73.8549,-942.554 80.6826,-941.011"/>
</g>
<!-- \\Elabftw\\Elabftw\\TeamGroups -->
<g id="node29" class="node"><title>\\Elabftw\\Elabftw\\TeamGroups</title>
<polygon fill="none" stroke="black" points="279,-824 202,-824 202,-788 279,-788 279,-824"/>
<text text-anchor="middle" x="240.5" y="-803.2" font-family="Courier,monospace" font-size="11.00">TeamGroups</text>
</g>
<!-- \\Elabftw\\Elabftw\\Config -->
<g id="node30" class="node"><title>\\Elabftw\\Elabftw\\Config</title>
<polygon fill="none" stroke="black" points="267.5,-770 213.5,-770 213.5,-734 267.5,-734 267.5,-770"/>
<text text-anchor="middle" x="240.5" y="-749.2" font-family="Courier,monospace" font-size="11.00">Config</text>
</g>
<!-- \\Elabftw\\Elabftw\\Database -->
<g id="node31" class="node"><title>\\Elabftw\\Elabftw\\Database</title>
<polygon fill="none" stroke="black" points="273,-986 208,-986 208,-950 273,-950 273,-986"/>
<text text-anchor="middle" x="240.5" y="-965.2" font-family="Courier,monospace" font-size="11.00">Database</text>
</g>
<!-- \\Elabftw\\Elabftw\\Database&#45;&gt;\\Elabftw\\Elabftw\\Entity -->
<g id="edge12" class="edge"><title>\\Elabftw\\Elabftw\\Database&#45;&gt;\\Elabftw\\Elabftw\\Entity</title>
<path fill="none" stroke="black" d="M207.9,-957.843C179.293,-948.648 137.184,-935.113 107.333,-925.518"/>
<polygon fill="none" stroke="black" points="108.308,-922.155 97.7168,-922.427 106.166,-928.819 108.308,-922.155"/>
</g>
<!-- \\Elabftw\\Elabftw\\Sysconfig -->
<g id="node32" class="node"><title>\\Elabftw\\Elabftw\\Sysconfig</title>
<polygon fill="none" stroke="black" points="276,-662 205,-662 205,-626 276,-626 276,-662"/>
<text text-anchor="middle" x="240.5" y="-641.2" font-family="Courier,monospace" font-size="11.00">Sysconfig</text>
</g>
<!-- \\Elabftw\\Elabftw\\Links -->
<g id="node33" class="node"><title>\\Elabftw\\Elabftw\\Links</title>
<polygon fill="none" stroke="black" points="267.5,-608 213.5,-608 213.5,-572 267.5,-572 267.5,-608"/>
<text text-anchor="middle" x="240.5" y="-587.2" font-family="Courier,monospace" font-size="11.00">Links</text>
</g>
<!-- \\Elabftw\\Elabftw\\Experiments -->
<g id="node34" class="node"><title>\\Elabftw\\Elabftw\\Experiments</title>
<polygon fill="none" stroke="black" points="282,-932 199,-932 199,-896 282,-896 282,-932"/>
<text text-anchor="middle" x="240.5" y="-911.2" font-family="Courier,monospace" font-size="11.00">Experiments</text>
</g>
<!-- \\Elabftw\\Elabftw\\Experiments&#45;&gt;\\Elabftw\\Elabftw\\Entity -->
<g id="edge13" class="edge"><title>\\Elabftw\\Elabftw\\Experiments&#45;&gt;\\Elabftw\\Elabftw\\Entity</title>
<path fill="none" stroke="black" d="M198.832,-914C171.056,-914 134.574,-914 107.783,-914"/>
<polygon fill="none" stroke="black" points="107.669,-910.5 97.6693,-914 107.669,-917.5 107.669,-910.5"/>
</g>
<!-- \\Elabftw\\Elabftw\\Templates -->
<g id="node35" class="node"><title>\\Elabftw\\Elabftw\\Templates</title>
<polygon fill="none" stroke="black" points="276,-500 205,-500 205,-464 276,-464 276,-500"/>
<text text-anchor="middle" x="240.5" y="-479.2" font-family="Courier,monospace" font-size="11.00">Templates</text>
</g>
<!-- \\Elabftw\\Elabftw\\TeamGroupsView -->
<g id="node36" class="node"><title>\\Elabftw\\Elabftw\\TeamGroupsView</title>
<polygon fill="none" stroke="black" points="291,-446 190,-446 190,-410 291,-410 291,-446"/>
<text text-anchor="middle" x="240.5" y="-425.2" font-family="Courier,monospace" font-size="11.00">TeamGroupsView</text>
</g>
<!-- \\Elabftw\\Elabftw\\DatabaseView -->
<g id="node37" class="node"><title>\\Elabftw\\Elabftw\\DatabaseView</title>
<polygon fill="none" stroke="black" points="285,-122 196,-122 196,-86 285,-86 285,-122"/>
<text text-anchor="middle" x="240.5" y="-101.2" font-family="Courier,monospace" font-size="11.00">DatabaseView</text>
</g>
<!-- \\Elabftw\\Elabftw\\EntityView -->
<g id="node44" class="node"><title>\\Elabftw\\Elabftw\\EntityView</title>
<polygon fill="none" stroke="black" points="109,-230 32,-230 32,-194 109,-194 109,-230"/>
<text text-anchor="middle" x="70.5" y="-209.2" font-family="Courier,monospace" font-size="11.00">EntityView</text>
</g>
<!-- \\Elabftw\\Elabftw\\DatabaseView&#45;&gt;\\Elabftw\\Elabftw\\EntityView -->
<g id="edge14" class="edge"><title>\\Elabftw\\Elabftw\\DatabaseView&#45;&gt;\\Elabftw\\Elabftw\\EntityView</title>
<path fill="none" stroke="black" d="M197.419,-122.154C191.805,-124.942 186.197,-127.922 181,-131 152.62,-147.806 122.659,-170.345 101.264,-187.38"/>
<polygon fill="none" stroke="black" points="98.8216,-184.853 93.2213,-193.847 103.208,-190.309 98.8216,-184.853"/>
</g>
<!-- \\Elabftw\\Elabftw\\TeamsView -->
<g id="node38" class="node"><title>\\Elabftw\\Elabftw\\TeamsView</title>
<polygon fill="none" stroke="black" points="276,-392 205,-392 205,-356 276,-356 276,-392"/>
<text text-anchor="middle" x="240.5" y="-371.2" font-family="Courier,monospace" font-size="11.00">TeamsView</text>
</g>
<!-- \\Elabftw\\Elabftw\\TeamsView&#45;&gt;\\Elabftw\\Elabftw\\Teams -->
<g id="edge15" class="edge"><title>\\Elabftw\\Elabftw\\TeamsView&#45;&gt;\\Elabftw\\Elabftw\\Teams</title>
<path fill="none" stroke="black" d="M204.69,-374C176.357,-374 136.496,-374 107.775,-374"/>
<polygon fill="none" stroke="black" points="107.74,-370.5 97.7399,-374 107.74,-377.5 107.74,-370.5"/>
</g>
<!-- \\Elabftw\\Elabftw\\SysconfigView -->
<g id="node39" class="node"><title>\\Elabftw\\Elabftw\\SysconfigView</title>
<polygon fill="none" stroke="black" points="288,-284 193,-284 193,-248 288,-248 288,-284"/>
<text text-anchor="middle" x="240.5" y="-263.2" font-family="Courier,monospace" font-size="11.00">SysconfigView</text>
</g>
<!-- \\Elabftw\\Elabftw\\ExperimentsView -->
<g id="node40" class="node"><title>\\Elabftw\\Elabftw\\ExperimentsView</title>
<polygon fill="none" stroke="black" points="294,-338 187,-338 187,-302 294,-302 294,-338"/>
<text text-anchor="middle" x="240.5" y="-317.2" font-family="Courier,monospace" font-size="11.00">ExperimentsView</text>
</g>
<!-- \\Elabftw\\Elabftw\\ExperimentsView&#45;&gt;\\Elabftw\\Elabftw\\EntityView -->
<g id="edge16" class="edge"><title>\\Elabftw\\Elabftw\\ExperimentsView&#45;&gt;\\Elabftw\\Elabftw\\EntityView</title>
<path fill="none" stroke="black" d="M197.419,-301.846C191.805,-299.058 186.197,-296.078 181,-293 152.62,-276.194 122.659,-253.655 101.264,-236.62"/>
<polygon fill="none" stroke="black" points="103.208,-233.691 93.2213,-230.153 98.8216,-239.147 103.208,-233.691"/>
</g>
<!-- \\Elabftw\\Elabftw\\ItemsTypesView -->
<g id="node41" class="node"><title>\\Elabftw\\Elabftw\\ItemsTypesView</title>
<polygon fill="none" stroke="black" points="291,-176 190,-176 190,-140 291,-140 291,-176"/>
<text text-anchor="middle" x="240.5" y="-155.2" font-family="Courier,monospace" font-size="11.00">ItemsTypesView</text>
</g>
<!-- \\Elabftw\\Elabftw\\UploadsView -->
<g id="node42" class="node"><title>\\Elabftw\\Elabftw\\UploadsView</title>
<polygon fill="none" stroke="black" points="282,-230 199,-230 199,-194 282,-194 282,-230"/>
<text text-anchor="middle" x="240.5" y="-209.2" font-family="Courier,monospace" font-size="11.00">UploadsView</text>
</g>
<!-- \\Elabftw\\Elabftw\\UploadsView&#45;&gt;\\Elabftw\\Elabftw\\EntityView -->
<g id="edge17" class="edge"><title>\\Elabftw\\Elabftw\\UploadsView&#45;&gt;\\Elabftw\\Elabftw\\EntityView</title>
<path fill="none" stroke="black" d="M198.832,-212C174.848,-212 144.375,-212 119.254,-212"/>
<polygon fill="none" stroke="black" points="119.206,-208.5 109.206,-212 119.206,-215.5 119.206,-208.5"/>
</g>
<!-- \\Elabftw\\Elabftw\\StatusView -->
<g id="node43" class="node"><title>\\Elabftw\\Elabftw\\StatusView</title>
<polygon fill="none" stroke="black" points="279,-68 202,-68 202,-32 279,-32 279,-68"/>
<text text-anchor="middle" x="240.5" y="-47.2" font-family="Courier,monospace" font-size="11.00">StatusView</text>
</g>
</g>
</svg>
