<?xml version="1.0" encoding="UTF-8" standalone="no"?>
<!DOCTYPE svg PUBLIC "-//W3C//DTD SVG 1.1//EN"
 "http://www.w3.org/Graphics/SVG/1.1/DTD/svg11.dtd">
<!-- Generated by graphviz version 2.38.0 (20140413.2041)
 -->
<!-- Title: G Pages: 1 -->
<svg width="359pt" height="870pt"
 viewBox="0.00 0.00 359.00 870.00" xmlns="http://www.w3.org/2000/svg" xmlns:xlink="http://www.w3.org/1999/xlink">
<g id="graph0" class="graph" transform="scale(1 1) rotate(0) translate(4 866)">
<title>G</title>
<polygon fill="white" stroke="none" points="-4,4 -4,-866 355,-866 355,4 -4,4"/>
<g id="clust1" class="cluster"><title>cluster_Global</title>
<path fill="none" stroke="gray" d="M20,-8C20,-8 331,-8 331,-8 337,-8 343,-14 343,-20 343,-20 343,-842 343,-842 343,-848 337,-854 331,-854 331,-854 20,-854 20,-854 14,-854 8,-848 8,-842 8,-842 8,-20 8,-20 8,-14 14,-8 20,-8"/>
<text text-anchor="middle" x="175.5" y="-841.2" font-family="Times,serif" font-size="11.00" fill="gray">Global</text>
</g>
<g id="clust2" class="cluster"><title>cluster_\Elabftw</title>
<path fill="none" stroke="gray" d="M28,-16C28,-16 323,-16 323,-16 329,-16 335,-22 335,-28 335,-28 335,-814 335,-814 335,-820 329,-826 323,-826 323,-826 28,-826 28,-826 22,-826 16,-820 16,-814 16,-814 16,-28 16,-28 16,-22 22,-16 28,-16"/>
<text text-anchor="middle" x="175.5" y="-813.2" font-family="Times,serif" font-size="11.00" fill="gray">Elabftw</text>
</g>
<g id="clust3" class="cluster"><title>cluster_\Elabftw\Elabftw</title>
<path fill="none" stroke="gray" d="M36,-24C36,-24 315,-24 315,-24 321,-24 327,-30 327,-36 327,-36 327,-786 327,-786 327,-792 321,-798 315,-798 315,-798 36,-798 36,-798 30,-798 24,-792 24,-786 24,-786 24,-36 24,-36 24,-30 30,-24 36,-24"/>
<text text-anchor="middle" x="175.5" y="-785.2" font-family="Times,serif" font-size="11.00" fill="gray">Elabftw</text>
</g>
<!-- \\Elabftw\\Elabftw\\Crypto -->
<g id="node1" class="node"><title>\\Elabftw\\Elabftw\\Crypto</title>
<polygon fill="none" stroke="black" points="282,-770 225,-770 225,-734 282,-734 282,-770"/>
<text text-anchor="middle" x="253.5" y="-749.2" font-family="Courier,monospace" font-size="11.00">Crypto</text>
</g>
<!-- \\Elabftw\\Elabftw\\ImportZip -->
<g id="node2" class="node"><title>\\Elabftw\\Elabftw\\ImportZip</title>
<polygon fill="none" stroke="black" points="292,-716 215,-716 215,-680 292,-680 292,-716"/>
<text text-anchor="middle" x="253.5" y="-695.2" font-family="Courier,monospace" font-size="11.00">ImportZip</text>
</g>
<!-- \\Elabftw\\Elabftw\\Import -->
<g id="node11" class="node"><title>\\Elabftw\\Elabftw\\Import</title>
<polygon fill="none" stroke="black" points="116,-608 32,-608 32,-572 116,-572 116,-608"/>
<text text-anchor="start" x="40" y="-593.2" font-family="Courier,monospace" font-size="11.00">«abstract»</text>
<text text-anchor="start" x="53.5" y="-581.2" font-family="Courier,monospace" font-size="11.00">Import</text>
</g>
<!-- \\Elabftw\\Elabftw\\ImportZip&#45;&gt;\\Elabftw\\Elabftw\\Import -->
<g id="edge1" class="edge"><title>\\Elabftw\\Elabftw\\ImportZip&#45;&gt;\\Elabftw\\Elabftw\\Import</title>
<path fill="none" stroke="black" d="M214.983,-683.975C205.958,-680.146 196.48,-675.734 188,-671 158.286,-654.411 127.027,-631.526 104.938,-614.312"/>
<polygon fill="none" stroke="black" points="106.965,-611.453 96.9428,-608.017 102.634,-616.953 106.965,-611.453"/>
</g>
<!-- \\Elabftw\\Elabftw\\Formkey -->
<g id="node3" class="node"><title>\\Elabftw\\Elabftw\\Formkey</title>
<polygon fill="none" stroke="black" points="285.5,-662 221.5,-662 221.5,-626 285.5,-626 285.5,-662"/>
<text text-anchor="middle" x="253.5" y="-641.2" font-family="Courier,monospace" font-size="11.00">Formkey</text>
</g>
<!-- \\Elabftw\\Elabftw\\Db -->
<g id="node4" class="node"><title>\\Elabftw\\Elabftw\\Db</title>
<polygon fill="none" stroke="black" points="280.5,-608 226.5,-608 226.5,-572 280.5,-572 280.5,-608"/>
<text text-anchor="middle" x="253.5" y="-587.2" font-family="Courier,monospace" font-size="11.00">Db</text>
</g>
<!-- \\Elabftw\\Elabftw\\User -->
<g id="node5" class="node"><title>\\Elabftw\\Elabftw\\User</title>
<polygon fill="none" stroke="black" points="280.5,-554 226.5,-554 226.5,-518 280.5,-518 280.5,-554"/>
<text text-anchor="middle" x="253.5" y="-533.2" font-family="Courier,monospace" font-size="11.00">User</text>
</g>
<!-- \\Elabftw\\Elabftw\\Make -->
<g id="node6" class="node"><title>\\Elabftw\\Elabftw\\Make</title>
<polygon fill="none" stroke="black" points="116,-338 32,-338 32,-302 116,-302 116,-338"/>
<text text-anchor="start" x="40" y="-323.2" font-family="Courier,monospace" font-size="11.00">«abstract»</text>
<text text-anchor="start" x="60" y="-311.2" font-family="Courier,monospace" font-size="11.00">Make</text>
</g>
<!-- \\Elabftw\\Elabftw\\MakePdf -->
<g id="node7" class="node"><title>\\Elabftw\\Elabftw\\MakePdf</title>
<polygon fill="none" stroke="black" points="285.5,-338 221.5,-338 221.5,-302 285.5,-302 285.5,-338"/>
<text text-anchor="middle" x="253.5" y="-317.2" font-family="Courier,monospace" font-size="11.00">MakePdf</text>
</g>
<!-- \\Elabftw\\Elabftw\\MakePdf&#45;&gt;\\Elabftw\\Elabftw\\Make -->
<g id="edge2" class="edge"><title>\\Elabftw\\Elabftw\\MakePdf&#45;&gt;\\Elabftw\\Elabftw\\Make</title>
<path fill="none" stroke="black" d="M221.175,-320C194.887,-320 156.818,-320 126.12,-320"/>
<polygon fill="none" stroke="black" points="126.02,-316.5 116.02,-320 126.02,-323.5 126.02,-316.5"/>
</g>
<!-- \\Elabftw\\Elabftw\\Create -->
<g id="node8" class="node"><title>\\Elabftw\\Elabftw\\Create</title>
<polygon fill="none" stroke="black" points="282,-446 225,-446 225,-410 282,-410 282,-446"/>
<text text-anchor="middle" x="253.5" y="-425.2" font-family="Courier,monospace" font-size="11.00">Create</text>
</g>
<!-- \\Elabftw\\Elabftw\\MakeCsv -->
<g id="node9" class="node"><title>\\Elabftw\\Elabftw\\MakeCsv</title>
<polygon fill="none" stroke="black" points="285.5,-176 221.5,-176 221.5,-140 285.5,-140 285.5,-176"/>
<text text-anchor="middle" x="253.5" y="-155.2" font-family="Courier,monospace" font-size="11.00">MakeCsv</text>
</g>
<!-- \\Elabftw\\Elabftw\\MakeCsv&#45;&gt;\\Elabftw\\Elabftw\\Make -->
<g id="edge3" class="edge"><title>\\Elabftw\\Elabftw\\MakeCsv&#45;&gt;\\Elabftw\\Elabftw\\Make</title>
<path fill="none" stroke="black" d="M221.38,-167.581C210.232,-171.875 197.967,-177.654 188,-185 146.973,-215.239 111.45,-263.362 91.6673,-293.241"/>
<polygon fill="none" stroke="black" points="88.5617,-291.597 86.0446,-301.889 94.4301,-295.413 88.5617,-291.597"/>
</g>
<!-- \\Elabftw\\Elabftw\\MakeZip -->
<g id="node10" class="node"><title>\\Elabftw\\Elabftw\\MakeZip</title>
<polygon fill="none" stroke="black" points="285.5,-392 221.5,-392 221.5,-356 285.5,-356 285.5,-392"/>
<text text-anchor="middle" x="253.5" y="-371.2" font-family="Courier,monospace" font-size="11.00">MakeZip</text>
</g>
<!-- \\Elabftw\\Elabftw\\MakeZip&#45;&gt;\\Elabftw\\Elabftw\\Make -->
<g id="edge4" class="edge"><title>\\Elabftw\\Elabftw\\MakeZip&#45;&gt;\\Elabftw\\Elabftw\\Make</title>
<path fill="none" stroke="black" d="M221.175,-364.47C194.772,-356.438 156.486,-344.79 125.72,-335.43"/>
<polygon fill="none" stroke="black" points="126.606,-332.041 116.02,-332.479 124.568,-338.738 126.606,-332.041"/>
</g>
<!-- \\Elabftw\\Elabftw\\TrustedTimestamps -->
<g id="node12" class="node"><title>\\Elabftw\\Elabftw\\TrustedTimestamps</title>
<polygon fill="none" stroke="black" points="319,-284 188,-284 188,-248 319,-248 319,-284"/>
<text text-anchor="middle" x="253.5" y="-263.2" font-family="Courier,monospace" font-size="11.00">TrustedTimestamps</text>
</g>
<!-- \\Elabftw\\Elabftw\\Update -->
<g id="node13" class="node"><title>\\Elabftw\\Elabftw\\Update</title>
<polygon fill="none" stroke="black" points="282,-230 225,-230 225,-194 282,-194 282,-230"/>
<text text-anchor="middle" x="253.5" y="-209.2" font-family="Courier,monospace" font-size="11.00">Update</text>
</g>
<!-- \\Elabftw\\Elabftw\\ImportCsv -->
<g id="node14" class="node"><title>\\Elabftw\\Elabftw\\ImportCsv</title>
<polygon fill="none" stroke="black" points="292,-500 215,-500 215,-464 292,-464 292,-500"/>
<text text-anchor="middle" x="253.5" y="-479.2" font-family="Courier,monospace" font-size="11.00">ImportCsv</text>
</g>
<!-- \\Elabftw\\Elabftw\\ImportCsv&#45;&gt;\\Elabftw\\Elabftw\\Import -->
<g id="edge5" class="edge"><title>\\Elabftw\\Elabftw\\ImportCsv&#45;&gt;\\Elabftw\\Elabftw\\Import</title>
<path fill="none" stroke="black" d="M214.983,-496.025C205.958,-499.854 196.48,-504.266 188,-509 158.286,-525.589 127.027,-548.474 104.938,-565.688"/>
<polygon fill="none" stroke="black" points="102.634,-563.047 96.9428,-571.983 106.965,-568.547 102.634,-563.047"/>
</g>
<!-- \\Elabftw\\Elabftw\\SysConfig -->
<g id="node15" class="node"><title>\\Elabftw\\Elabftw\\SysConfig</title>
<polygon fill="none" stroke="black" points="292,-122 215,-122 215,-86 292,-86 292,-122"/>
<text text-anchor="middle" x="253.5" y="-101.2" font-family="Courier,monospace" font-size="11.00">SysConfig</text>
</g>
<!-- \\Elabftw\\Elabftw\\Tools -->
<g id="node16" class="node"><title>\\Elabftw\\Elabftw\\Tools</title>
<polygon fill="none" stroke="black" points="280.5,-68 226.5,-68 226.5,-32 280.5,-32 280.5,-68"/>
<text text-anchor="middle" x="253.5" y="-47.2" font-family="Courier,monospace" font-size="11.00">Tools</text>
</g>
</g>
</svg>
