<?xml version="1.0" encoding="UTF-8" standalone="no"?>
<!DOCTYPE svg PUBLIC "-//W3C//DTD SVG 1.1//EN"
 "http://www.w3.org/Graphics/SVG/1.1/DTD/svg11.dtd">
<!-- Generated by graphviz version 2.38.0 (20140413.2041)
 -->
<!-- Title: G Pages: 1 -->
<svg width="359pt" height="1410pt"
 viewBox="0.00 0.00 359.00 1410.00" xmlns="http://www.w3.org/2000/svg" xmlns:xlink="http://www.w3.org/1999/xlink">
<g id="graph0" class="graph" transform="scale(1 1) rotate(0) translate(4 1406)">
<title>G</title>
<polygon fill="white" stroke="none" points="-4,4 -4,-1406 355,-1406 355,4 -4,4"/>
<g id="clust1" class="cluster"><title>cluster_Global</title>
<path fill="none" stroke="gray" d="M20,-8C20,-8 331,-8 331,-8 337,-8 343,-14 343,-20 343,-20 343,-1382 343,-1382 343,-1388 337,-1394 331,-1394 331,-1394 20,-1394 20,-1394 14,-1394 8,-1388 8,-1382 8,-1382 8,-20 8,-20 8,-14 14,-8 20,-8"/>
<text text-anchor="middle" x="175.5" y="-1381.2" font-family="Times,serif" font-size="11.00" fill="gray">Global</text>
</g>
<g id="clust2" class="cluster"><title>cluster_\Elabftw</title>
<path fill="none" stroke="gray" d="M28,-16C28,-16 323,-16 323,-16 329,-16 335,-22 335,-28 335,-28 335,-1354 335,-1354 335,-1360 329,-1366 323,-1366 323,-1366 28,-1366 28,-1366 22,-1366 16,-1360 16,-1354 16,-1354 16,-28 16,-28 16,-22 22,-16 28,-16"/>
<text text-anchor="middle" x="175.5" y="-1353.2" font-family="Times,serif" font-size="11.00" fill="gray">Elabftw</text>
</g>
<g id="clust3" class="cluster"><title>cluster_\Elabftw\Elabftw</title>
<path fill="none" stroke="gray" d="M36,-24C36,-24 315,-24 315,-24 321,-24 327,-30 327,-36 327,-36 327,-1326 327,-1326 327,-1332 321,-1338 315,-1338 315,-1338 36,-1338 36,-1338 30,-1338 24,-1332 24,-1326 24,-1326 24,-36 24,-36 24,-30 30,-24 36,-24"/>
<text text-anchor="middle" x="175.5" y="-1325.2" font-family="Times,serif" font-size="11.00" fill="gray">Elabftw</text>
</g>
<!-- \\Elabftw\\Elabftw\\Db -->
<g id="node1" class="node"><title>\\Elabftw\\Elabftw\\Db</title>
<polygon fill="none" stroke="black" points="280.5,-1310 226.5,-1310 226.5,-1274 280.5,-1274 280.5,-1310"/>
<text text-anchor="middle" x="253.5" y="-1289.2" font-family="Courier,monospace" font-size="11.00">Db</text>
</g>
<!-- \\Elabftw\\Elabftw\\ItemsTypes -->
<g id="node2" class="node"><title>\\Elabftw\\Elabftw\\ItemsTypes</title>
<polygon fill="none" stroke="black" points="295.5,-716 211.5,-716 211.5,-680 295.5,-680 295.5,-716"/>
<text text-anchor="middle" x="253.5" y="-695.2" font-family="Courier,monospace" font-size="11.00">ItemsTypes</text>
</g>
<!-- \\Elabftw\\Elabftw\\Panel -->
<g id="node24" class="node"><title>\\Elabftw\\Elabftw\\Panel</title>
<polygon fill="none" stroke="black" points="101,-878 47,-878 47,-842 101,-842 101,-878"/>
<text text-anchor="middle" x="74" y="-857.2" font-family="Courier,monospace" font-size="11.00">Panel</text>
</g>
<!-- \\Elabftw\\Elabftw\\ItemsTypes&#45;&gt;\\Elabftw\\Elabftw\\Panel -->
<g id="edge1" class="edge"><title>\\Elabftw\\Elabftw\\ItemsTypes&#45;&gt;\\Elabftw\\Elabftw\\Panel</title>
<path fill="none" stroke="black" d="M211.34,-711.757C203.216,-715.41 195.036,-719.814 188,-725 146.973,-755.239 111.45,-803.362 91.6673,-833.241"/>
<polygon fill="none" stroke="black" points="88.5617,-831.597 86.0446,-841.889 94.4301,-835.413 88.5617,-831.597"/>
</g>
<!-- \\Elabftw\\Elabftw\\StatusView -->
<g id="node3" class="node"><title>\\Elabftw\\Elabftw\\StatusView</title>
<polygon fill="none" stroke="black" points="295.5,-1202 211.5,-1202 211.5,-1166 295.5,-1166 295.5,-1202"/>
<text text-anchor="middle" x="253.5" y="-1181.2" font-family="Courier,monospace" font-size="11.00">StatusView</text>
</g>
<!-- \\Elabftw\\Elabftw\\LegacyCrypto -->
<g id="node4" class="node"><title>\\Elabftw\\Elabftw\\LegacyCrypto</title>
<polygon fill="none" stroke="black" points="302.5,-1148 204.5,-1148 204.5,-1112 302.5,-1112 302.5,-1148"/>
<text text-anchor="middle" x="253.5" y="-1127.2" font-family="Courier,monospace" font-size="11.00">LegacyCrypto</text>
</g>
<!-- \\Elabftw\\Elabftw\\CryptoWrapper -->
<g id="node5" class="node"><title>\\Elabftw\\Elabftw\\CryptoWrapper</title>
<polygon fill="none" stroke="black" points="305.5,-1094 201.5,-1094 201.5,-1058 305.5,-1058 305.5,-1094"/>
<text text-anchor="middle" x="253.5" y="-1073.2" font-family="Courier,monospace" font-size="11.00">CryptoWrapper</text>
</g>
<!-- \\Elabftw\\Elabftw\\Update -->
<g id="node6" class="node"><title>\\Elabftw\\Elabftw\\Update</title>
<polygon fill="none" stroke="black" points="282,-1040 225,-1040 225,-1004 282,-1004 282,-1040"/>
<text text-anchor="middle" x="253.5" y="-1019.2" font-family="Courier,monospace" font-size="11.00">Update</text>
</g>
<!-- \\Elabftw\\Elabftw\\MolViewer -->
<g id="node7" class="node"><title>\\Elabftw\\Elabftw\\MolViewer</title>
<polygon fill="none" stroke="black" points="292,-986 215,-986 215,-950 292,-950 292,-986"/>
<text text-anchor="middle" x="253.5" y="-965.2" font-family="Courier,monospace" font-size="11.00">MolViewer</text>
</g>
<!-- \\Elabftw\\Elabftw\\Teams -->
<g id="node8" class="node"><title>\\Elabftw\\Elabftw\\Teams</title>
<polygon fill="none" stroke="black" points="280.5,-1256 226.5,-1256 226.5,-1220 280.5,-1220 280.5,-1256"/>
<text text-anchor="middle" x="253.5" y="-1235.2" font-family="Courier,monospace" font-size="11.00">Teams</text>
</g>
<!-- \\Elabftw\\Elabftw\\Teams&#45;&gt;\\Elabftw\\Elabftw\\Panel -->
<g id="edge2" class="edge"><title>\\Elabftw\\Elabftw\\Teams&#45;&gt;\\Elabftw\\Elabftw\\Panel</title>
<path fill="none" stroke="black" d="M226.219,-1232.52C213.136,-1228.55 198.018,-1221.91 188,-1211 101.012,-1116.29 80.963,-954.093 76.3619,-888.638"/>
<polygon fill="none" stroke="black" points="79.8313,-888.041 75.7085,-878.281 72.8452,-888.481 79.8313,-888.041"/>
</g>
<!-- \\Elabftw\\Elabftw\\Import -->
<g id="node9" class="node"><title>\\Elabftw\\Elabftw\\Import</title>
<polygon fill="none" stroke="black" points="116,-176 32,-176 32,-140 116,-140 116,-176"/>
<text text-anchor="start" x="40" y="-161.2" font-family="Courier,monospace" font-size="11.00">«abstract»</text>
<text text-anchor="start" x="53.5" y="-149.2" font-family="Courier,monospace" font-size="11.00">Import</text>
</g>
<!-- \\Elabftw\\Elabftw\\Upload -->
<g id="node10" class="node"><title>\\Elabftw\\Elabftw\\Upload</title>
<polygon fill="none" stroke="black" points="282,-392 225,-392 225,-356 282,-356 282,-392"/>
<text text-anchor="middle" x="253.5" y="-371.2" font-family="Courier,monospace" font-size="11.00">Upload</text>
</g>
<!-- \\Elabftw\\Elabftw\\Make -->
<g id="node11" class="node"><title>\\Elabftw\\Elabftw\\Make</title>
<polygon fill="none" stroke="black" points="116,-446 32,-446 32,-410 116,-410 116,-446"/>
<text text-anchor="start" x="40" y="-431.2" font-family="Courier,monospace" font-size="11.00">«abstract»</text>
<text text-anchor="start" x="60" y="-419.2" font-family="Courier,monospace" font-size="11.00">Make</text>
</g>
<!-- \\Elabftw\\Elabftw\\Upload&#45;&gt;\\Elabftw\\Elabftw\\Make -->
<g id="edge3" class="edge"><title>\\Elabftw\\Elabftw\\Upload&#45;&gt;\\Elabftw\\Elabftw\\Make</title>
<path fill="none" stroke="black" d="M224.766,-382.438C198.345,-390.475 157.942,-402.767 125.757,-412.559"/>
<polygon fill="none" stroke="black" points="124.605,-409.25 116.057,-415.51 126.642,-415.947 124.605,-409.25"/>
</g>
<!-- \\Elabftw\\Elabftw\\Status -->
<g id="node12" class="node"><title>\\Elabftw\\Elabftw\\Status</title>
<polygon fill="none" stroke="black" points="282,-932 225,-932 225,-896 282,-896 282,-932"/>
<text text-anchor="middle" x="253.5" y="-911.2" font-family="Courier,monospace" font-size="11.00">Status</text>
</g>
<!-- \\Elabftw\\Elabftw\\Status&#45;&gt;\\Elabftw\\Elabftw\\Panel -->
<g id="edge4" class="edge"><title>\\Elabftw\\Elabftw\\Status&#45;&gt;\\Elabftw\\Elabftw\\Panel</title>
<path fill="none" stroke="black" d="M224.766,-905.562C194.104,-896.234 144.61,-881.177 110.983,-870.947"/>
<polygon fill="none" stroke="black" points="111.681,-867.501 101.095,-867.939 109.644,-874.198 111.681,-867.501"/>
</g>
<!-- \\Elabftw\\Elabftw\\Formkey -->
<g id="node13" class="node"><title>\\Elabftw\\Elabftw\\Formkey</title>
<polygon fill="none" stroke="black" points="285.5,-770 221.5,-770 221.5,-734 285.5,-734 285.5,-770"/>
<text text-anchor="middle" x="253.5" y="-749.2" font-family="Courier,monospace" font-size="11.00">Formkey</text>
</g>
<!-- \\Elabftw\\Elabftw\\CommonTpl -->
<g id="node14" class="node"><title>\\Elabftw\\Elabftw\\CommonTpl</title>
<polygon fill="none" stroke="black" points="292,-878 215,-878 215,-842 292,-842 292,-878"/>
<text text-anchor="middle" x="253.5" y="-857.2" font-family="Courier,monospace" font-size="11.00">CommonTpl</text>
</g>
<!-- \\Elabftw\\Elabftw\\CommonTpl&#45;&gt;\\Elabftw\\Elabftw\\Panel -->
<g id="edge5" class="edge"><title>\\Elabftw\\Elabftw\\CommonTpl&#45;&gt;\\Elabftw\\Elabftw\\Panel</title>
<path fill="none" stroke="black" d="M214.857,-860C184.27,-860 141.398,-860 111.205,-860"/>
<polygon fill="none" stroke="black" points="111.095,-856.5 101.095,-860 111.095,-863.5 111.095,-856.5"/>
</g>
<!-- \\Elabftw\\Elabftw\\User -->
<g id="node15" class="node"><title>\\Elabftw\\Elabftw\\User</title>
<polygon fill="none" stroke="black" points="280.5,-662 226.5,-662 226.5,-626 280.5,-626 280.5,-662"/>
<text text-anchor="middle" x="253.5" y="-641.2" font-family="Courier,monospace" font-size="11.00">User</text>
</g>
<!-- \\Elabftw\\Elabftw\\TeamGroupsView -->
<g id="node16" class="node"><title>\\Elabftw\\Elabftw\\TeamGroupsView</title>
<polygon fill="none" stroke="black" points="309,-608 198,-608 198,-572 309,-572 309,-608"/>
<text text-anchor="middle" x="253.5" y="-587.2" font-family="Courier,monospace" font-size="11.00">TeamGroupsView</text>
</g>
<!-- \\Elabftw\\Elabftw\\MakeZip -->
<g id="node17" class="node"><title>\\Elabftw\\Elabftw\\MakeZip</title>
<polygon fill="none" stroke="black" points="285.5,-554 221.5,-554 221.5,-518 285.5,-518 285.5,-554"/>
<text text-anchor="middle" x="253.5" y="-533.2" font-family="Courier,monospace" font-size="11.00">MakeZip</text>
</g>
<!-- \\Elabftw\\Elabftw\\MakeZip&#45;&gt;\\Elabftw\\Elabftw\\Make -->
<g id="edge6" class="edge"><title>\\Elabftw\\Elabftw\\MakeZip&#45;&gt;\\Elabftw\\Elabftw\\Make</title>
<path fill="none" stroke="black" d="M221.318,-524.601C210.517,-520.224 198.493,-514.858 188,-509 158.286,-492.411 127.027,-469.526 104.938,-452.312"/>
<polygon fill="none" stroke="black" points="106.965,-449.453 96.9428,-446.017 102.634,-454.953 106.965,-449.453"/>
</g>
<!-- \\Elabftw\\Elabftw\\MakeCsv -->
<g id="node18" class="node"><title>\\Elabftw\\Elabftw\\MakeCsv</title>
<polygon fill="none" stroke="black" points="285.5,-500 221.5,-500 221.5,-464 285.5,-464 285.5,-500"/>
<text text-anchor="middle" x="253.5" y="-479.2" font-family="Courier,monospace" font-size="11.00">MakeCsv</text>
</g>
<!-- \\Elabftw\\Elabftw\\MakeCsv&#45;&gt;\\Elabftw\\Elabftw\\Make -->
<g id="edge7" class="edge"><title>\\Elabftw\\Elabftw\\MakeCsv&#45;&gt;\\Elabftw\\Elabftw\\Make</title>
<path fill="none" stroke="black" d="M221.175,-472.47C194.772,-464.438 156.486,-452.79 125.72,-443.43"/>
<polygon fill="none" stroke="black" points="126.606,-440.041 116.02,-440.479 124.568,-446.738 126.606,-440.041"/>
</g>
<!-- \\Elabftw\\Elabftw\\Tools -->
<g id="node19" class="node"><title>\\Elabftw\\Elabftw\\Tools</title>
<polygon fill="none" stroke="black" points="280.5,-446 226.5,-446 226.5,-410 280.5,-410 280.5,-446"/>
<text text-anchor="middle" x="253.5" y="-425.2" font-family="Courier,monospace" font-size="11.00">Tools</text>
</g>
<!-- \\Elabftw\\Elabftw\\ImportCsv -->
<g id="node20" class="node"><title>\\Elabftw\\Elabftw\\ImportCsv</title>
<polygon fill="none" stroke="black" points="292,-284 215,-284 215,-248 292,-248 292,-284"/>
<text text-anchor="middle" x="253.5" y="-263.2" font-family="Courier,monospace" font-size="11.00">ImportCsv</text>
</g>
<!-- \\Elabftw\\Elabftw\\ImportCsv&#45;&gt;\\Elabftw\\Elabftw\\Import -->
<g id="edge8" class="edge"><title>\\Elabftw\\Elabftw\\ImportCsv&#45;&gt;\\Elabftw\\Elabftw\\Import</title>
<path fill="none" stroke="black" d="M214.983,-251.975C205.958,-248.146 196.48,-243.734 188,-239 158.286,-222.411 127.027,-199.526 104.938,-182.312"/>
<polygon fill="none" stroke="black" points="106.965,-179.453 96.9428,-176.017 102.634,-184.953 106.965,-179.453"/>
</g>
<!-- \\Elabftw\\Elabftw\\MakePdf -->
<g id="node21" class="node"><title>\\Elabftw\\Elabftw\\MakePdf</title>
<polygon fill="none" stroke="black" points="285.5,-338 221.5,-338 221.5,-302 285.5,-302 285.5,-338"/>
<text text-anchor="middle" x="253.5" y="-317.2" font-family="Courier,monospace" font-size="11.00">MakePdf</text>
</g>
<!-- \\Elabftw\\Elabftw\\MakePdf&#45;&gt;\\Elabftw\\Elabftw\\Make -->
<g id="edge9" class="edge"><title>\\Elabftw\\Elabftw\\MakePdf&#45;&gt;\\Elabftw\\Elabftw\\Make</title>
<path fill="none" stroke="black" d="M221.318,-331.399C210.517,-335.776 198.493,-341.142 188,-347 158.286,-363.589 127.027,-386.474 104.938,-403.688"/>
<polygon fill="none" stroke="black" points="102.634,-401.047 96.9428,-409.983 106.965,-406.547 102.634,-401.047"/>
</g>
<!-- \\Elabftw\\Elabftw\\TeamGroups -->
<g id="node22" class="node"><title>\\Elabftw\\Elabftw\\TeamGroups</title>
<polygon fill="none" stroke="black" points="295.5,-824 211.5,-824 211.5,-788 295.5,-788 295.5,-824"/>
<text text-anchor="middle" x="253.5" y="-803.2" font-family="Courier,monospace" font-size="11.00">TeamGroups</text>
</g>
<!-- \\Elabftw\\Elabftw\\TeamGroups&#45;&gt;\\Elabftw\\Elabftw\\Panel -->
<g id="edge10" class="edge"><title>\\Elabftw\\Elabftw\\TeamGroups&#45;&gt;\\Elabftw\\Elabftw\\Panel</title>
<path fill="none" stroke="black" d="M211.332,-818.524C180.917,-827.777 139.917,-840.251 110.844,-849.095"/>
<polygon fill="none" stroke="black" points="109.644,-845.802 101.095,-852.061 111.681,-852.499 109.644,-845.802"/>
</g>
<!-- \\Elabftw\\Elabftw\\TrustedTimestamps -->
<g id="node23" class="node"><title>\\Elabftw\\Elabftw\\TrustedTimestamps</title>
<polygon fill="none" stroke="black" points="319,-230 188,-230 188,-194 319,-194 319,-230"/>
<text text-anchor="middle" x="253.5" y="-209.2" font-family="Courier,monospace" font-size="11.00">TrustedTimestamps</text>
</g>
<!-- \\Elabftw\\Elabftw\\ItemsTypesView -->
<g id="node25" class="node"><title>\\Elabftw\\Elabftw\\ItemsTypesView</title>
<polygon fill="none" stroke="black" points="309,-176 198,-176 198,-140 309,-140 309,-176"/>
<text text-anchor="middle" x="253.5" y="-155.2" font-family="Courier,monospace" font-size="11.00">ItemsTypesView</text>
</g>
<!-- \\Elabftw\\Elabftw\\Create -->
<g id="node26" class="node"><title>\\Elabftw\\Elabftw\\Create</title>
<polygon fill="none" stroke="black" points="282,-122 225,-122 225,-86 282,-86 282,-122"/>
<text text-anchor="middle" x="253.5" y="-101.2" font-family="Courier,monospace" font-size="11.00">Create</text>
</g>
<!-- \\Elabftw\\Elabftw\\ImportZip -->
<g id="node27" class="node"><title>\\Elabftw\\Elabftw\\ImportZip</title>
<polygon fill="none" stroke="black" points="292,-68 215,-68 215,-32 292,-32 292,-68"/>
<text text-anchor="middle" x="253.5" y="-47.2" font-family="Courier,monospace" font-size="11.00">ImportZip</text>
</g>
<!-- \\Elabftw\\Elabftw\\ImportZip&#45;&gt;\\Elabftw\\Elabftw\\Import -->
<g id="edge11" class="edge"><title>\\Elabftw\\Elabftw\\ImportZip&#45;&gt;\\Elabftw\\Elabftw\\Import</title>
<path fill="none" stroke="black" d="M214.983,-64.0251C205.958,-67.854 196.48,-72.266 188,-77 158.286,-93.5889 127.027,-116.474 104.938,-133.688"/>
<polygon fill="none" stroke="black" points="102.634,-131.047 96.9428,-139.983 106.965,-136.547 102.634,-131.047"/>
</g>
</g>
</svg>
