<?xml version="1.0" encoding="UTF-8" standalone="no"?>
<!DOCTYPE svg PUBLIC "-//W3C//DTD SVG 1.1//EN"
 "http://www.w3.org/Graphics/SVG/1.1/DTD/svg11.dtd">
<!-- Generated by graphviz version 2.38.0 (20140413.2041)
 -->
<!-- Title: G Pages: 1 -->
<svg width="485pt" height="1842pt"
 viewBox="0.00 0.00 485.00 1842.00" xmlns="http://www.w3.org/2000/svg" xmlns:xlink="http://www.w3.org/1999/xlink">
<g id="graph0" class="graph" transform="scale(1 1) rotate(0) translate(4 1838)">
<title>G</title>
<polygon fill="white" stroke="none" points="-4,4 -4,-1838 481,-1838 481,4 -4,4"/>
<g id="clust1" class="cluster"><title>cluster_Global</title>
<path fill="none" stroke="gray" d="M20,-8C20,-8 457,-8 457,-8 463,-8 469,-14 469,-20 469,-20 469,-1814 469,-1814 469,-1820 463,-1826 457,-1826 457,-1826 20,-1826 20,-1826 14,-1826 8,-1820 8,-1814 8,-1814 8,-20 8,-20 8,-14 14,-8 20,-8"/>
<text text-anchor="middle" x="238.5" y="-1813.2" font-family="Times,serif" font-size="11.00" fill="gray">Global</text>
</g>
<g id="clust2" class="cluster"><title>cluster_\Elabftw</title>
<path fill="none" stroke="gray" d="M28,-16C28,-16 449,-16 449,-16 455,-16 461,-22 461,-28 461,-28 461,-1786 461,-1786 461,-1792 455,-1798 449,-1798 449,-1798 28,-1798 28,-1798 22,-1798 16,-1792 16,-1786 16,-1786 16,-28 16,-28 16,-22 22,-16 28,-16"/>
<text text-anchor="middle" x="238.5" y="-1785.2" font-family="Times,serif" font-size="11.00" fill="gray">Elabftw</text>
</g>
<g id="clust3" class="cluster"><title>cluster_\Elabftw\Elabftw</title>
<path fill="none" stroke="gray" d="M36,-24C36,-24 441,-24 441,-24 447,-24 453,-30 453,-36 453,-36 453,-1758 453,-1758 453,-1764 447,-1770 441,-1770 441,-1770 36,-1770 36,-1770 30,-1770 24,-1764 24,-1758 24,-1758 24,-36 24,-36 24,-30 30,-24 36,-24"/>
<text text-anchor="middle" x="238.5" y="-1757.2" font-family="Times,serif" font-size="11.00" fill="gray">Elabftw</text>
</g>
<!-- \\Elabftw\\Elabftw\\Database -->
<g id="node1" class="node"><title>\\Elabftw\\Elabftw\\Database</title>
<polygon fill="none" stroke="black" points="415,-608 344,-608 344,-572 415,-572 415,-608"/>
<text text-anchor="middle" x="379.5" y="-587.2" font-family="Courier,monospace" font-size="11.00">Database</text>
</g>
<!-- \\Elabftw\\Elabftw\\Entity -->
<g id="node14" class="node"><title>\\Elabftw\\Elabftw\\Entity</title>
<polygon fill="none" stroke="black" points="228.5,-635 171.5,-635 171.5,-599 228.5,-599 228.5,-635"/>
<text text-anchor="middle" x="200" y="-614.2" font-family="Courier,monospace" font-size="11.00">Entity</text>
</g>
<!-- \\Elabftw\\Elabftw\\Database&#45;&gt;\\Elabftw\\Elabftw\\Entity -->
<g id="edge1" class="edge"><title>\\Elabftw\\Elabftw\\Database&#45;&gt;\\Elabftw\\Elabftw\\Entity</title>
<path fill="none" stroke="black" d="M343.855,-595.27C313.58,-599.875 269.722,-606.547 238.602,-611.28"/>
<polygon fill="none" stroke="black" points="237.934,-607.841 228.575,-612.806 238.987,-614.762 237.934,-607.841"/>
</g>
<!-- \\Elabftw\\Elabftw\\MolViewer -->
<g id="node2" class="node"><title>\\Elabftw\\Elabftw\\MolViewer</title>
<polygon fill="none" stroke="black" points="418,-1688 341,-1688 341,-1652 418,-1652 418,-1688"/>
<text text-anchor="middle" x="379.5" y="-1667.2" font-family="Courier,monospace" font-size="11.00">MolViewer</text>
</g>
<!-- \\Elabftw\\Elabftw\\Status -->
<g id="node3" class="node"><title>\\Elabftw\\Elabftw\\Status</title>
<polygon fill="none" stroke="black" points="228.5,-1688 171.5,-1688 171.5,-1652 228.5,-1652 228.5,-1688"/>
<text text-anchor="middle" x="200" y="-1667.2" font-family="Courier,monospace" font-size="11.00">Status</text>
</g>
<!-- \\Elabftw\\Elabftw\\Panel -->
<g id="node23" class="node"><title>\\Elabftw\\Elabftw\\Panel</title>
<polygon fill="none" stroke="black" points="86,-1310 32,-1310 32,-1274 86,-1274 86,-1310"/>
<text text-anchor="middle" x="59" y="-1289.2" font-family="Courier,monospace" font-size="11.00">Panel</text>
</g>
<!-- \\Elabftw\\Elabftw\\Status&#45;&gt;\\Elabftw\\Elabftw\\Panel -->
<g id="edge2" class="edge"><title>\\Elabftw\\Elabftw\\Status&#45;&gt;\\Elabftw\\Elabftw\\Panel</title>
<path fill="none" stroke="black" d="M171.089,-1655.58C166.175,-1652.02 161.517,-1647.82 158,-1643 83.4402,-1540.82 65.5667,-1384.15 61.314,-1320.43"/>
<polygon fill="none" stroke="black" points="64.8008,-1320.1 60.7043,-1310.33 57.8135,-1320.52 64.8008,-1320.1"/>
</g>
<!-- \\Elabftw\\Elabftw\\Users -->
<g id="node4" class="node"><title>\\Elabftw\\Elabftw\\Users</title>
<polygon fill="none" stroke="black" points="406.5,-1742 352.5,-1742 352.5,-1706 406.5,-1706 406.5,-1742"/>
<text text-anchor="middle" x="379.5" y="-1721.2" font-family="Courier,monospace" font-size="11.00">Users</text>
</g>
<!-- \\Elabftw\\Elabftw\\Auth -->
<g id="node7" class="node"><title>\\Elabftw\\Elabftw\\Auth</title>
<polygon fill="none" stroke="black" points="227,-1634 173,-1634 173,-1598 227,-1598 227,-1634"/>
<text text-anchor="middle" x="200" y="-1613.2" font-family="Courier,monospace" font-size="11.00">Auth</text>
</g>
<!-- \\Elabftw\\Elabftw\\Users&#45;&gt;\\Elabftw\\Elabftw\\Auth -->
<g id="edge3" class="edge"><title>\\Elabftw\\Elabftw\\Users&#45;&gt;\\Elabftw\\Elabftw\\Auth</title>
<path fill="none" stroke="black" d="M352.38,-1714.76C340.362,-1710.09 326.115,-1703.94 314,-1697 279.287,-1677.13 274.719,-1666.01 242,-1643 239.926,-1641.54 237.78,-1640.06 235.608,-1638.57"/>
<polygon fill="none" stroke="black" points="237.438,-1635.59 227.188,-1632.9 233.528,-1641.39 237.438,-1635.59"/>
</g>
<!-- \\Elabftw\\Elabftw\\LegacyCrypto -->
<g id="node5" class="node"><title>\\Elabftw\\Elabftw\\LegacyCrypto</title>
<polygon fill="none" stroke="black" points="428.5,-1580 330.5,-1580 330.5,-1544 428.5,-1544 428.5,-1580"/>
<text text-anchor="middle" x="379.5" y="-1559.2" font-family="Courier,monospace" font-size="11.00">LegacyCrypto</text>
</g>
<!-- \\Elabftw\\Elabftw\\Links -->
<g id="node6" class="node"><title>\\Elabftw\\Elabftw\\Links</title>
<polygon fill="none" stroke="black" points="406.5,-1526 352.5,-1526 352.5,-1490 406.5,-1490 406.5,-1526"/>
<text text-anchor="middle" x="379.5" y="-1505.2" font-family="Courier,monospace" font-size="11.00">Links</text>
</g>
<!-- \\Elabftw\\Elabftw\\Comments -->
<g id="node8" class="node"><title>\\Elabftw\\Elabftw\\Comments</title>
<polygon fill="none" stroke="black" points="415,-770 344,-770 344,-734 415,-734 415,-770"/>
<text text-anchor="middle" x="379.5" y="-749.2" font-family="Courier,monospace" font-size="11.00">Comments</text>
</g>
<!-- \\Elabftw\\Elabftw\\Comments&#45;&gt;\\Elabftw\\Elabftw\\Entity -->
<g id="edge4" class="edge"><title>\\Elabftw\\Elabftw\\Comments&#45;&gt;\\Elabftw\\Elabftw\\Entity</title>
<path fill="none" stroke="black" d="M343.841,-740.213C333.827,-736.097 323.141,-730.984 314,-725 278.506,-701.765 244.223,-666.634 222.908,-642.8"/>
<polygon fill="none" stroke="black" points="225.432,-640.37 216.194,-635.184 220.181,-644.999 225.432,-640.37"/>
</g>
<!-- \\Elabftw\\Elabftw\\Teams -->
<g id="node9" class="node"><title>\\Elabftw\\Elabftw\\Teams</title>
<polygon fill="none" stroke="black" points="227,-1121 173,-1121 173,-1085 227,-1085 227,-1121"/>
<text text-anchor="middle" x="200" y="-1100.2" font-family="Courier,monospace" font-size="11.00">Teams</text>
</g>
<!-- \\Elabftw\\Elabftw\\Teams&#45;&gt;\\Elabftw\\Elabftw\\Panel -->
<g id="edge5" class="edge"><title>\\Elabftw\\Elabftw\\Teams&#45;&gt;\\Elabftw\\Elabftw\\Panel</title>
<path fill="none" stroke="black" d="M185.672,-1121.12C160.972,-1154.71 107.998,-1226.74 79.3478,-1265.69"/>
<polygon fill="none" stroke="black" points="76.3927,-1263.8 73.2876,-1273.93 82.0319,-1267.95 76.3927,-1263.8"/>
</g>
<!-- \\Elabftw\\Elabftw\\Import -->
<g id="node10" class="node"><title>\\Elabftw\\Elabftw\\Import</title>
<polygon fill="none" stroke="black" points="242,-365 158,-365 158,-329 242,-329 242,-365"/>
<text text-anchor="start" x="166" y="-350.2" font-family="Courier,monospace" font-size="11.00">«abstract»</text>
<text text-anchor="start" x="179.5" y="-338.2" font-family="Courier,monospace" font-size="11.00">Import</text>
</g>
<!-- \\Elabftw\\Elabftw\\ExperimentsView -->
<g id="node11" class="node"><title>\\Elabftw\\Elabftw\\ExperimentsView</title>
<polygon fill="none" stroke="black" points="438.5,-1418 320.5,-1418 320.5,-1382 438.5,-1382 438.5,-1418"/>
<text text-anchor="middle" x="379.5" y="-1397.2" font-family="Courier,monospace" font-size="11.00">ExperimentsView</text>
</g>
<!-- \\Elabftw\\Elabftw\\EntityView -->
<g id="node43" class="node"><title>\\Elabftw\\Elabftw\\EntityView</title>
<polygon fill="none" stroke="black" points="242,-1445 158,-1445 158,-1409 242,-1409 242,-1445"/>
<text text-anchor="middle" x="200" y="-1424.2" font-family="Courier,monospace" font-size="11.00">EntityView</text>
</g>
<!-- \\Elabftw\\Elabftw\\ExperimentsView&#45;&gt;\\Elabftw\\Elabftw\\EntityView -->
<g id="edge6" class="edge"><title>\\Elabftw\\Elabftw\\ExperimentsView&#45;&gt;\\Elabftw\\Elabftw\\EntityView</title>
<path fill="none" stroke="black" d="M320.38,-1408.84C298.397,-1412.18 273.557,-1415.96 252.25,-1419.2"/>
<polygon fill="none" stroke="black" points="251.462,-1415.78 242.102,-1420.75 252.515,-1422.7 251.462,-1415.78"/>
</g>
<!-- \\Elabftw\\Elabftw\\Make -->
<g id="node12" class="node"><title>\\Elabftw\\Elabftw\\Make</title>
<polygon fill="none" stroke="black" points="242,-203 158,-203 158,-167 242,-167 242,-203"/>
<text text-anchor="start" x="166" y="-188.2" font-family="Courier,monospace" font-size="11.00">«abstract»</text>
<text text-anchor="start" x="186" y="-176.2" font-family="Courier,monospace" font-size="11.00">Make</text>
</g>
<!-- \\Elabftw\\Elabftw\\TeamGroupsView -->
<g id="node13" class="node"><title>\\Elabftw\\Elabftw\\TeamGroupsView</title>
<polygon fill="none" stroke="black" points="435,-1364 324,-1364 324,-1328 435,-1328 435,-1364"/>
<text text-anchor="middle" x="379.5" y="-1343.2" font-family="Courier,monospace" font-size="11.00">TeamGroupsView</text>
</g>
<!-- \\Elabftw\\Elabftw\\Templates -->
<g id="node15" class="node"><title>\\Elabftw\\Elabftw\\Templates</title>
<polygon fill="none" stroke="black" points="418,-1310 341,-1310 341,-1274 418,-1274 418,-1310"/>
<text text-anchor="middle" x="379.5" y="-1289.2" font-family="Courier,monospace" font-size="11.00">Templates</text>
</g>
<!-- \\Elabftw\\Elabftw\\Revisions -->
<g id="node16" class="node"><title>\\Elabftw\\Elabftw\\Revisions</title>
<polygon fill="none" stroke="black" points="418,-1256 341,-1256 341,-1220 418,-1220 418,-1256"/>
<text text-anchor="middle" x="379.5" y="-1235.2" font-family="Courier,monospace" font-size="11.00">Revisions</text>
</g>
<!-- \\Elabftw\\Elabftw\\CryptoWrapper -->
<g id="node17" class="node"><title>\\Elabftw\\Elabftw\\CryptoWrapper</title>
<polygon fill="none" stroke="black" points="431.5,-1202 327.5,-1202 327.5,-1166 431.5,-1166 431.5,-1202"/>
<text text-anchor="middle" x="379.5" y="-1181.2" font-family="Courier,monospace" font-size="11.00">CryptoWrapper</text>
</g>
<!-- \\Elabftw\\Elabftw\\ItemsTypesView -->
<g id="node18" class="node"><title>\\Elabftw\\Elabftw\\ItemsTypesView</title>
<polygon fill="none" stroke="black" points="435,-1148 324,-1148 324,-1112 435,-1112 435,-1148"/>
<text text-anchor="middle" x="379.5" y="-1127.2" font-family="Courier,monospace" font-size="11.00">ItemsTypesView</text>
</g>
<!-- \\Elabftw\\Elabftw\\StatusView -->
<g id="node19" class="node"><title>\\Elabftw\\Elabftw\\StatusView</title>
<polygon fill="none" stroke="black" points="421.5,-1094 337.5,-1094 337.5,-1058 421.5,-1058 421.5,-1094"/>
<text text-anchor="middle" x="379.5" y="-1073.2" font-family="Courier,monospace" font-size="11.00">StatusView</text>
</g>
<!-- \\Elabftw\\Elabftw\\UploadsView -->
<g id="node20" class="node"><title>\\Elabftw\\Elabftw\\UploadsView</title>
<polygon fill="none" stroke="black" points="425,-1634 334,-1634 334,-1598 425,-1598 425,-1634"/>
<text text-anchor="middle" x="379.5" y="-1613.2" font-family="Courier,monospace" font-size="11.00">UploadsView</text>
</g>
<!-- \\Elabftw\\Elabftw\\UploadsView&#45;&gt;\\Elabftw\\Elabftw\\EntityView -->
<g id="edge7" class="edge"><title>\\Elabftw\\Elabftw\\UploadsView&#45;&gt;\\Elabftw\\Elabftw\\EntityView</title>
<path fill="none" stroke="black" d="M333.772,-1602.05C326.648,-1598.53 319.744,-1594.23 314,-1589 263.722,-1543.22 287.811,-1504.25 242,-1454 241.372,-1453.31 240.723,-1452.63 240.055,-1451.96"/>
<polygon fill="none" stroke="black" points="242.167,-1449.16 232.342,-1445.19 237.551,-1454.42 242.167,-1449.16"/>
</g>
<!-- \\Elabftw\\Elabftw\\SysconfigView -->
<g id="node21" class="node"><title>\\Elabftw\\Elabftw\\SysconfigView</title>
<polygon fill="none" stroke="black" points="431.5,-986 327.5,-986 327.5,-950 431.5,-950 431.5,-986"/>
<text text-anchor="middle" x="379.5" y="-965.2" font-family="Courier,monospace" font-size="11.00">SysconfigView</text>
</g>
<!-- \\Elabftw\\Elabftw\\Formkey -->
<g id="node22" class="node"><title>\\Elabftw\\Elabftw\\Formkey</title>
<polygon fill="none" stroke="black" points="411.5,-932 347.5,-932 347.5,-896 411.5,-896 411.5,-932"/>
<text text-anchor="middle" x="379.5" y="-911.2" font-family="Courier,monospace" font-size="11.00">Formkey</text>
</g>
<!-- \\Elabftw\\Elabftw\\ItemsTypes -->
<g id="node24" class="node"><title>\\Elabftw\\Elabftw\\ItemsTypes</title>
<polygon fill="none" stroke="black" points="242,-1499 158,-1499 158,-1463 242,-1463 242,-1499"/>
<text text-anchor="middle" x="200" y="-1478.2" font-family="Courier,monospace" font-size="11.00">ItemsTypes</text>
</g>
<!-- \\Elabftw\\Elabftw\\ItemsTypes&#45;&gt;\\Elabftw\\Elabftw\\Panel -->
<g id="edge8" class="edge"><title>\\Elabftw\\Elabftw\\ItemsTypes&#45;&gt;\\Elabftw\\Elabftw\\Panel</title>
<path fill="none" stroke="black" d="M168.242,-1462.97C164.59,-1460.2 161.073,-1457.19 158,-1454 118.687,-1413.15 87.8632,-1353.81 71.9345,-1319.44"/>
<polygon fill="none" stroke="black" points="74.9829,-1317.69 67.659,-1310.03 68.6102,-1320.58 74.9829,-1317.69"/>
</g>
<!-- \\Elabftw\\Elabftw\\Tools -->
<g id="node25" class="node"><title>\\Elabftw\\Elabftw\\Tools</title>
<polygon fill="none" stroke="black" points="406.5,-878 352.5,-878 352.5,-842 406.5,-842 406.5,-878"/>
<text text-anchor="middle" x="379.5" y="-857.2" font-family="Courier,monospace" font-size="11.00">Tools</text>
</g>
<!-- \\Elabftw\\Elabftw\\Db -->
<g id="node26" class="node"><title>\\Elabftw\\Elabftw\\Db</title>
<polygon fill="none" stroke="black" points="406.5,-824 352.5,-824 352.5,-788 406.5,-788 406.5,-824"/>
<text text-anchor="middle" x="379.5" y="-803.2" font-family="Courier,monospace" font-size="11.00">Db</text>
</g>
<!-- \\Elabftw\\Elabftw\\TeamsView -->
<g id="node27" class="node"><title>\\Elabftw\\Elabftw\\TeamsView</title>
<polygon fill="none" stroke="black" points="418,-1040 341,-1040 341,-1004 418,-1004 418,-1040"/>
<text text-anchor="middle" x="379.5" y="-1019.2" font-family="Courier,monospace" font-size="11.00">TeamsView</text>
</g>
<!-- \\Elabftw\\Elabftw\\TeamsView&#45;&gt;\\Elabftw\\Elabftw\\Teams -->
<g id="edge9" class="edge"><title>\\Elabftw\\Elabftw\\TeamsView&#45;&gt;\\Elabftw\\Elabftw\\Teams</title>
<path fill="none" stroke="black" d="M340.848,-1037.39C332.005,-1041.11 322.642,-1045.13 314,-1049 287.782,-1060.74 258.527,-1074.75 236.353,-1085.55"/>
<polygon fill="none" stroke="black" points="234.76,-1082.44 227.313,-1089.97 237.834,-1088.73 234.76,-1082.44"/>
</g>
<!-- \\Elabftw\\Elabftw\\Experiments -->
<g id="node28" class="node"><title>\\Elabftw\\Elabftw\\Experiments</title>
<polygon fill="none" stroke="black" points="425,-500 334,-500 334,-464 425,-464 425,-500"/>
<text text-anchor="middle" x="379.5" y="-479.2" font-family="Courier,monospace" font-size="11.00">Experiments</text>
</g>
<!-- \\Elabftw\\Elabftw\\Experiments&#45;&gt;\\Elabftw\\Elabftw\\Entity -->
<g id="edge10" class="edge"><title>\\Elabftw\\Elabftw\\Experiments&#45;&gt;\\Elabftw\\Elabftw\\Entity</title>
<path fill="none" stroke="black" d="M333.685,-498.231C326.875,-501.408 320.094,-505.011 314,-509 278.506,-532.235 244.223,-567.366 222.908,-591.2"/>
<polygon fill="none" stroke="black" points="220.181,-589.001 216.194,-598.816 225.432,-593.63 220.181,-589.001"/>
</g>
<!-- \\Elabftw\\Elabftw\\ImportZip -->
<g id="node29" class="node"><title>\\Elabftw\\Elabftw\\ImportZip</title>
<polygon fill="none" stroke="black" points="418,-392 341,-392 341,-356 418,-356 418,-392"/>
<text text-anchor="middle" x="379.5" y="-371.2" font-family="Courier,monospace" font-size="11.00">ImportZip</text>
</g>
<!-- \\Elabftw\\Elabftw\\ImportZip&#45;&gt;\\Elabftw\\Elabftw\\Import -->
<g id="edge11" class="edge"><title>\\Elabftw\\Elabftw\\ImportZip&#45;&gt;\\Elabftw\\Elabftw\\Import</title>
<path fill="none" stroke="black" d="M340.857,-368.274C315.117,-364.359 280.676,-359.12 252.413,-354.821"/>
<polygon fill="none" stroke="black" points="252.721,-351.327 242.308,-353.283 251.668,-358.248 252.721,-351.327"/>
</g>
<!-- \\Elabftw\\Elabftw\\MakeCsv -->
<g id="node30" class="node"><title>\\Elabftw\\Elabftw\\MakeCsv</title>
<polygon fill="none" stroke="black" points="411.5,-230 347.5,-230 347.5,-194 411.5,-194 411.5,-230"/>
<text text-anchor="middle" x="379.5" y="-209.2" font-family="Courier,monospace" font-size="11.00">MakeCsv</text>
</g>
<!-- \\Elabftw\\Elabftw\\MakeCsv&#45;&gt;\\Elabftw\\Elabftw\\Make -->
<g id="edge12" class="edge"><title>\\Elabftw\\Elabftw\\MakeCsv&#45;&gt;\\Elabftw\\Elabftw\\Make</title>
<path fill="none" stroke="black" d="M347.175,-207.235C320.887,-203.236 282.818,-197.446 252.12,-192.776"/>
<polygon fill="none" stroke="black" points="252.433,-189.283 242.02,-191.24 251.38,-196.204 252.433,-189.283"/>
</g>
<!-- \\Elabftw\\Elabftw\\BannedUsers -->
<g id="node31" class="node"><title>\\Elabftw\\Elabftw\\BannedUsers</title>
<polygon fill="none" stroke="black" points="425,-554 334,-554 334,-518 425,-518 425,-554"/>
<text text-anchor="middle" x="379.5" y="-533.2" font-family="Courier,monospace" font-size="11.00">BannedUsers</text>
</g>
<!-- \\Elabftw\\Elabftw\\Uploads -->
<g id="node32" class="node"><title>\\Elabftw\\Elabftw\\Uploads</title>
<polygon fill="none" stroke="black" points="411.5,-716 347.5,-716 347.5,-680 411.5,-680 411.5,-716"/>
<text text-anchor="middle" x="379.5" y="-695.2" font-family="Courier,monospace" font-size="11.00">Uploads</text>
</g>
<!-- \\Elabftw\\Elabftw\\Uploads&#45;&gt;\\Elabftw\\Elabftw\\Entity -->
<g id="edge13" class="edge"><title>\\Elabftw\\Elabftw\\Uploads&#45;&gt;\\Elabftw\\Elabftw\\Entity</title>
<path fill="none" stroke="black" d="M347.2,-685.262C336.609,-680.856 324.746,-675.813 314,-671 288.303,-659.49 259.688,-645.807 237.683,-635.094"/>
<polygon fill="none" stroke="black" points="239.206,-631.943 228.685,-630.7 236.135,-638.233 239.206,-631.943"/>
</g>
<!-- \\Elabftw\\Elabftw\\TeamGroups -->
<g id="node33" class="node"><title>\\Elabftw\\Elabftw\\TeamGroups</title>
<polygon fill="none" stroke="black" points="242,-1310 158,-1310 158,-1274 242,-1274 242,-1310"/>
<text text-anchor="middle" x="200" y="-1289.2" font-family="Courier,monospace" font-size="11.00">TeamGroups</text>
</g>
<!-- \\Elabftw\\Elabftw\\TeamGroups&#45;&gt;\\Elabftw\\Elabftw\\Panel -->
<g id="edge14" class="edge"><title>\\Elabftw\\Elabftw\\TeamGroups&#45;&gt;\\Elabftw\\Elabftw\\Panel</title>
<path fill="none" stroke="black" d="M157.672,-1292C138.181,-1292 115.132,-1292 96.3204,-1292"/>
<polygon fill="none" stroke="black" points="96.0748,-1288.5 86.0747,-1292 96.0747,-1295.5 96.0748,-1288.5"/>
</g>
<!-- \\Elabftw\\Elabftw\\MakeZip -->
<g id="node34" class="node"><title>\\Elabftw\\Elabftw\\MakeZip</title>
<polygon fill="none" stroke="black" points="411.5,-68 347.5,-68 347.5,-32 411.5,-32 411.5,-68"/>
<text text-anchor="middle" x="379.5" y="-47.2" font-family="Courier,monospace" font-size="11.00">MakeZip</text>
</g>
<!-- \\Elabftw\\Elabftw\\MakeZip&#45;&gt;\\Elabftw\\Elabftw\\Make -->
<g id="edge15" class="edge"><title>\\Elabftw\\Elabftw\\MakeZip&#45;&gt;\\Elabftw\\Elabftw\\Make</title>
<path fill="none" stroke="black" d="M347.497,-59.7429C336.362,-64.0542 324.075,-69.8025 314,-77 274.807,-104.998 278.425,-126.485 242,-158 241.021,-158.847 240.014,-159.688 238.986,-160.522"/>
<polygon fill="none" stroke="black" points="236.656,-157.896 230.796,-166.722 240.881,-163.477 236.656,-157.896"/>
</g>
<!-- \\Elabftw\\Elabftw\\DatabaseView -->
<g id="node35" class="node"><title>\\Elabftw\\Elabftw\\DatabaseView</title>
<polygon fill="none" stroke="black" points="428.5,-1472 330.5,-1472 330.5,-1436 428.5,-1436 428.5,-1472"/>
<text text-anchor="middle" x="379.5" y="-1451.2" font-family="Courier,monospace" font-size="11.00">DatabaseView</text>
</g>
<!-- \\Elabftw\\Elabftw\\DatabaseView&#45;&gt;\\Elabftw\\Elabftw\\EntityView -->
<g id="edge16" class="edge"><title>\\Elabftw\\Elabftw\\DatabaseView&#45;&gt;\\Elabftw\\Elabftw\\EntityView</title>
<path fill="none" stroke="black" d="M330.466,-1446.69C306.192,-1443 276.73,-1438.52 252.047,-1434.76"/>
<polygon fill="none" stroke="black" points="252.556,-1431.3 242.143,-1433.26 251.503,-1438.22 252.556,-1431.3"/>
</g>
<!-- \\Elabftw\\Elabftw\\ImportCsv -->
<g id="node36" class="node"><title>\\Elabftw\\Elabftw\\ImportCsv</title>
<polygon fill="none" stroke="black" points="418,-338 341,-338 341,-302 418,-302 418,-338"/>
<text text-anchor="middle" x="379.5" y="-317.2" font-family="Courier,monospace" font-size="11.00">ImportCsv</text>
</g>
<!-- \\Elabftw\\Elabftw\\ImportCsv&#45;&gt;\\Elabftw\\Elabftw\\Import -->
<g id="edge17" class="edge"><title>\\Elabftw\\Elabftw\\ImportCsv&#45;&gt;\\Elabftw\\Elabftw\\Import</title>
<path fill="none" stroke="black" d="M340.857,-325.726C315.117,-329.641 280.676,-334.88 252.413,-339.179"/>
<polygon fill="none" stroke="black" points="251.668,-335.752 242.308,-340.717 252.721,-342.673 251.668,-335.752"/>
</g>
<!-- \\Elabftw\\Elabftw\\Sysconfig -->
<g id="node37" class="node"><title>\\Elabftw\\Elabftw\\Sysconfig</title>
<polygon fill="none" stroke="black" points="418,-284 341,-284 341,-248 418,-248 418,-284"/>
<text text-anchor="middle" x="379.5" y="-263.2" font-family="Courier,monospace" font-size="11.00">Sysconfig</text>
</g>
<!-- \\Elabftw\\Elabftw\\Tags -->
<g id="node38" class="node"><title>\\Elabftw\\Elabftw\\Tags</title>
<polygon fill="none" stroke="black" points="406.5,-662 352.5,-662 352.5,-626 406.5,-626 406.5,-662"/>
<text text-anchor="middle" x="379.5" y="-641.2" font-family="Courier,monospace" font-size="11.00">Tags</text>
</g>
<!-- \\Elabftw\\Elabftw\\Tags&#45;&gt;\\Elabftw\\Elabftw\\Entity -->
<g id="edge18" class="edge"><title>\\Elabftw\\Elabftw\\Tags&#45;&gt;\\Elabftw\\Elabftw\\Entity</title>
<path fill="none" stroke="black" d="M352.309,-640.016C322.333,-635.456 272.984,-627.95 238.834,-622.755"/>
<polygon fill="none" stroke="black" points="239.174,-619.267 228.762,-621.223 238.122,-626.187 239.174,-619.267"/>
</g>
<!-- \\Elabftw\\Elabftw\\MakePdf -->
<g id="node39" class="node"><title>\\Elabftw\\Elabftw\\MakePdf</title>
<polygon fill="none" stroke="black" points="411.5,-176 347.5,-176 347.5,-140 411.5,-140 411.5,-176"/>
<text text-anchor="middle" x="379.5" y="-155.2" font-family="Courier,monospace" font-size="11.00">MakePdf</text>
</g>
<!-- \\Elabftw\\Elabftw\\MakePdf&#45;&gt;\\Elabftw\\Elabftw\\Make -->
<g id="edge19" class="edge"><title>\\Elabftw\\Elabftw\\MakePdf&#45;&gt;\\Elabftw\\Elabftw\\Make</title>
<path fill="none" stroke="black" d="M347.175,-162.765C320.887,-166.764 282.818,-172.554 252.12,-177.224"/>
<polygon fill="none" stroke="black" points="251.38,-173.796 242.02,-178.76 252.433,-180.717 251.38,-173.796"/>
</g>
<!-- \\Elabftw\\Elabftw\\Update -->
<g id="node40" class="node"><title>\\Elabftw\\Elabftw\\Update</title>
<polygon fill="none" stroke="black" points="408,-122 351,-122 351,-86 408,-86 408,-122"/>
<text text-anchor="middle" x="379.5" y="-101.2" font-family="Courier,monospace" font-size="11.00">Update</text>
</g>
<!-- \\Elabftw\\Elabftw\\TrustedTimestamps -->
<g id="node41" class="node"><title>\\Elabftw\\Elabftw\\TrustedTimestamps</title>
<polygon fill="none" stroke="black" points="445,-446 314,-446 314,-410 445,-410 445,-446"/>
<text text-anchor="middle" x="379.5" y="-425.2" font-family="Courier,monospace" font-size="11.00">TrustedTimestamps</text>
</g>
<!-- \\Elabftw\\Elabftw\\TrustedTimestamps&#45;&gt;\\Elabftw\\Elabftw\\Entity -->
<g id="edge20" class="edge"><title>\\Elabftw\\Elabftw\\TrustedTimestamps&#45;&gt;\\Elabftw\\Elabftw\\Entity</title>
<path fill="none" stroke="black" d="M327.284,-446.162C322.579,-448.783 318.062,-451.721 314,-455 267.414,-492.602 231.814,-554.261 213.882,-589.677"/>
<polygon fill="none" stroke="black" points="210.602,-588.414 209.298,-598.928 216.874,-591.521 210.602,-588.414"/>
</g>
<!-- \\Elabftw\\Elabftw\\Logs -->
<g id="node42" class="node"><title>\\Elabftw\\Elabftw\\Logs</title>
<polygon fill="none" stroke="black" points="227,-149 173,-149 173,-113 227,-113 227,-149"/>
<text text-anchor="middle" x="200" y="-128.2" font-family="Courier,monospace" font-size="11.00">Logs</text>
</g>
<!-- \\Elabftw\\Elabftw\\Logs&#45;&gt;\\Elabftw\\Elabftw\\Panel -->
<g id="edge21" class="edge"><title>\\Elabftw\\Elabftw\\Logs&#45;&gt;\\Elabftw\\Elabftw\\Panel</title>
<path fill="none" stroke="black" d="M172.883,-143.143C167.069,-147.068 161.577,-151.996 158,-158 99.7272,-255.806 66.9526,-1096.5 60.992,-1263.3"/>
<polygon fill="none" stroke="black" points="57.4794,-1263.6 60.6236,-1273.71 64.475,-1263.84 57.4794,-1263.6"/>
</g>
</g>
</svg>
