<?xml version="1.0" encoding="UTF-8" standalone="no"?>
<!DOCTYPE svg PUBLIC "-//W3C//DTD SVG 1.1//EN"
 "http://www.w3.org/Graphics/SVG/1.1/DTD/svg11.dtd">
<!-- Generated by graphviz version 2.38.0 (20140413.2041)
 -->
<!-- Title: G Pages: 1 -->
<svg width="340pt" height="2274pt"
 viewBox="0.00 0.00 340.00 2274.00" xmlns="http://www.w3.org/2000/svg" xmlns:xlink="http://www.w3.org/1999/xlink">
<g id="graph0" class="graph" transform="scale(1 1) rotate(0) translate(4 2270)">
<title>G</title>
<polygon fill="white" stroke="none" points="-4,4 -4,-2270 336,-2270 336,4 -4,4"/>
<g id="clust1" class="cluster"><title>cluster_Global</title>
<path fill="none" stroke="gray" d="M20,-8C20,-8 312,-8 312,-8 318,-8 324,-14 324,-20 324,-20 324,-2246 324,-2246 324,-2252 318,-2258 312,-2258 312,-2258 20,-2258 20,-2258 14,-2258 8,-2252 8,-2246 8,-2246 8,-20 8,-20 8,-14 14,-8 20,-8"/>
<text text-anchor="middle" x="166" y="-2245.2" font-family="Times,serif" font-size="11.00" fill="gray">Global</text>
</g>
<g id="clust2" class="cluster"><title>cluster_\Elabftw</title>
<path fill="none" stroke="gray" d="M28,-16C28,-16 304,-16 304,-16 310,-16 316,-22 316,-28 316,-28 316,-2218 316,-2218 316,-2224 310,-2230 304,-2230 304,-2230 28,-2230 28,-2230 22,-2230 16,-2224 16,-2218 16,-2218 16,-28 16,-28 16,-22 22,-16 28,-16"/>
<text text-anchor="middle" x="166" y="-2217.2" font-family="Times,serif" font-size="11.00" fill="gray">Elabftw</text>
</g>
<g id="clust3" class="cluster"><title>cluster_\Elabftw\Elabftw</title>
<path fill="none" stroke="gray" d="M36,-24C36,-24 296,-24 296,-24 302,-24 308,-30 308,-36 308,-36 308,-2190 308,-2190 308,-2196 302,-2202 296,-2202 296,-2202 36,-2202 36,-2202 30,-2202 24,-2196 24,-2190 24,-2190 24,-36 24,-36 24,-30 30,-24 36,-24"/>
<text text-anchor="middle" x="166" y="-2189.2" font-family="Times,serif" font-size="11.00" fill="gray">Elabftw</text>
</g>
<!-- \\Elabftw\\Elabftw\\MakePdf -->
<g id="node1" class="node"><title>\\Elabftw\\Elabftw\\MakePdf</title>
<polygon fill="none" stroke="black" points="270,-2066 211,-2066 211,-2030 270,-2030 270,-2066"/>
<text text-anchor="middle" x="240.5" y="-2045.2" font-family="Courier,monospace" font-size="11.00">MakePdf</text>
</g>
<!-- \\Elabftw\\Elabftw\\Make -->
<g id="node17" class="node"><title>\\Elabftw\\Elabftw\\Make</title>
<polygon fill="none" stroke="black" points="109,-2066 32,-2066 32,-2030 109,-2030 109,-2066"/>
<text text-anchor="start" x="40" y="-2051.2" font-family="Courier,monospace" font-size="11.00">«abstract»</text>
<text text-anchor="start" x="58" y="-2039.2" font-family="Courier,monospace" font-size="11.00">Make</text>
</g>
<!-- \\Elabftw\\Elabftw\\MakePdf&#45;&gt;\\Elabftw\\Elabftw\\Make -->
<g id="edge1" class="edge"><title>\\Elabftw\\Elabftw\\MakePdf&#45;&gt;\\Elabftw\\Elabftw\\Make</title>
<path fill="none" stroke="black" d="M210.62,-2048C185.527,-2048 148.686,-2048 119.219,-2048"/>
<polygon fill="none" stroke="black" points="119.135,-2044.5 109.135,-2048 119.135,-2051.5 119.135,-2044.5"/>
</g>
<!-- \\Elabftw\\Elabftw\\TagCloud -->
<g id="node2" class="node"><title>\\Elabftw\\Elabftw\\TagCloud</title>
<polygon fill="none" stroke="black" points="273,-2120 208,-2120 208,-2084 273,-2084 273,-2120"/>
<text text-anchor="middle" x="240.5" y="-2099.2" font-family="Courier,monospace" font-size="11.00">TagCloud</text>
</g>
<!-- \\Elabftw\\Elabftw\\Import -->
<g id="node3" class="node"><title>\\Elabftw\\Elabftw\\Import</title>
<polygon fill="none" stroke="black" points="109,-1580 32,-1580 32,-1544 109,-1544 109,-1580"/>
<text text-anchor="start" x="40" y="-1565.2" font-family="Courier,monospace" font-size="11.00">«abstract»</text>
<text text-anchor="start" x="52" y="-1553.2" font-family="Courier,monospace" font-size="11.00">Import</text>
</g>
<!-- \\Elabftw\\Elabftw\\MakeCsv -->
<g id="node4" class="node"><title>\\Elabftw\\Elabftw\\MakeCsv</title>
<polygon fill="none" stroke="black" points="270,-1958 211,-1958 211,-1922 270,-1922 270,-1958"/>
<text text-anchor="middle" x="240.5" y="-1937.2" font-family="Courier,monospace" font-size="11.00">MakeCsv</text>
</g>
<!-- \\Elabftw\\Elabftw\\MakeCsv&#45;&gt;\\Elabftw\\Elabftw\\Make -->
<g id="edge2" class="edge"><title>\\Elabftw\\Elabftw\\MakeCsv&#45;&gt;\\Elabftw\\Elabftw\\Make</title>
<path fill="none" stroke="black" d="M210.934,-1951.78C201.216,-1956.15 190.432,-1961.41 181,-1967 152.62,-1983.81 122.659,-2006.35 101.264,-2023.38"/>
<polygon fill="none" stroke="black" points="98.8216,-2020.85 93.2213,-2029.85 103.208,-2026.31 98.8216,-2020.85"/>
</g>
<!-- \\Elabftw\\Elabftw\\Email -->
<g id="node5" class="node"><title>\\Elabftw\\Elabftw\\Email</title>
<polygon fill="none" stroke="black" points="267.5,-2012 213.5,-2012 213.5,-1976 267.5,-1976 267.5,-2012"/>
<text text-anchor="middle" x="240.5" y="-1991.2" font-family="Courier,monospace" font-size="11.00">Email</text>
</g>
<!-- \\Elabftw\\Elabftw\\ImportCsv -->
<g id="node6" class="node"><title>\\Elabftw\\Elabftw\\ImportCsv</title>
<polygon fill="none" stroke="black" points="276,-1526 205,-1526 205,-1490 276,-1490 276,-1526"/>
<text text-anchor="middle" x="240.5" y="-1505.2" font-family="Courier,monospace" font-size="11.00">ImportCsv</text>
</g>
<!-- \\Elabftw\\Elabftw\\ImportCsv&#45;&gt;\\Elabftw\\Elabftw\\Import -->
<g id="edge3" class="edge"><title>\\Elabftw\\Elabftw\\ImportCsv&#45;&gt;\\Elabftw\\Elabftw\\Import</title>
<path fill="none" stroke="black" d="M204.69,-1519.19C179.867,-1527.17 146.194,-1537.99 118.918,-1546.76"/>
<polygon fill="none" stroke="black" points="117.635,-1543.49 109.186,-1549.89 119.777,-1550.16 117.635,-1543.49"/>
</g>
<!-- \\Elabftw\\Elabftw\\UserStats -->
<g id="node7" class="node"><title>\\Elabftw\\Elabftw\\UserStats</title>
<polygon fill="none" stroke="black" points="276,-1904 205,-1904 205,-1868 276,-1868 276,-1904"/>
<text text-anchor="middle" x="240.5" y="-1883.2" font-family="Courier,monospace" font-size="11.00">UserStats</text>
</g>
<!-- \\Elabftw\\Elabftw\\Tools -->
<g id="node8" class="node"><title>\\Elabftw\\Elabftw\\Tools</title>
<polygon fill="none" stroke="black" points="267.5,-1850 213.5,-1850 213.5,-1814 267.5,-1814 267.5,-1850"/>
<text text-anchor="middle" x="240.5" y="-1829.2" font-family="Courier,monospace" font-size="11.00">Tools</text>
</g>
<!-- \\Elabftw\\Elabftw\\Formkey -->
<g id="node9" class="node"><title>\\Elabftw\\Elabftw\\Formkey</title>
<polygon fill="none" stroke="black" points="270,-1796 211,-1796 211,-1760 270,-1760 270,-1796"/>
<text text-anchor="middle" x="240.5" y="-1775.2" font-family="Courier,monospace" font-size="11.00">Formkey</text>
</g>
<!-- \\Elabftw\\Elabftw\\Update -->
<g id="node10" class="node"><title>\\Elabftw\\Elabftw\\Update</title>
<polygon fill="none" stroke="black" points="267.5,-1742 213.5,-1742 213.5,-1706 267.5,-1706 267.5,-1742"/>
<text text-anchor="middle" x="240.5" y="-1721.2" font-family="Courier,monospace" font-size="11.00">Update</text>
</g>
<!-- \\Elabftw\\Elabftw\\MolViewer -->
<g id="node11" class="node"><title>\\Elabftw\\Elabftw\\MolViewer</title>
<polygon fill="none" stroke="black" points="276,-1688 205,-1688 205,-1652 276,-1652 276,-1688"/>
<text text-anchor="middle" x="240.5" y="-1667.2" font-family="Courier,monospace" font-size="11.00">MolViewer</text>
</g>
<!-- \\Elabftw\\Elabftw\\TrustedTimestamps -->
<g id="node12" class="node"><title>\\Elabftw\\Elabftw\\TrustedTimestamps</title>
<polygon fill="none" stroke="black" points="300,-1040 181,-1040 181,-1004 300,-1004 300,-1040"/>
<text text-anchor="middle" x="240.5" y="-1019.2" font-family="Courier,monospace" font-size="11.00">TrustedTimestamps</text>
</g>
<!-- \\Elabftw\\Elabftw\\Entity -->
<g id="node27" class="node"><title>\\Elabftw\\Elabftw\\Entity</title>
<polygon fill="none" stroke="black" points="97.5,-986 43.5,-986 43.5,-950 97.5,-950 97.5,-986"/>
<text text-anchor="middle" x="70.5" y="-965.2" font-family="Courier,monospace" font-size="11.00">Entity</text>
</g>
<!-- \\Elabftw\\Elabftw\\TrustedTimestamps&#45;&gt;\\Elabftw\\Elabftw\\Entity -->
<g id="edge4" class="edge"><title>\\Elabftw\\Elabftw\\TrustedTimestamps&#45;&gt;\\Elabftw\\Elabftw\\Entity</title>
<path fill="none" stroke="black" d="M183.091,-1003.87C158.127,-995.844 129.505,-986.644 107.499,-979.571"/>
<polygon fill="none" stroke="black" points="108.481,-976.211 97.89,-976.483 106.339,-982.875 108.481,-976.211"/>
</g>
<!-- \\Elabftw\\Elabftw\\Db -->
<g id="node13" class="node"><title>\\Elabftw\\Elabftw\\Db</title>
<polygon fill="none" stroke="black" points="267.5,-1580 213.5,-1580 213.5,-1544 267.5,-1544 267.5,-1580"/>
<text text-anchor="middle" x="240.5" y="-1559.2" font-family="Courier,monospace" font-size="11.00">Db</text>
</g>
<!-- \\Elabftw\\Elabftw\\MakeZip -->
<g id="node14" class="node"><title>\\Elabftw\\Elabftw\\MakeZip</title>
<polygon fill="none" stroke="black" points="270,-2174 211,-2174 211,-2138 270,-2138 270,-2174"/>
<text text-anchor="middle" x="240.5" y="-2153.2" font-family="Courier,monospace" font-size="11.00">MakeZip</text>
</g>
<!-- \\Elabftw\\Elabftw\\MakeZip&#45;&gt;\\Elabftw\\Elabftw\\Make -->
<g id="edge5" class="edge"><title>\\Elabftw\\Elabftw\\MakeZip&#45;&gt;\\Elabftw\\Elabftw\\Make</title>
<path fill="none" stroke="black" d="M210.934,-2144.22C201.216,-2139.85 190.432,-2134.59 181,-2129 152.62,-2112.19 122.659,-2089.65 101.264,-2072.62"/>
<polygon fill="none" stroke="black" points="103.208,-2069.69 93.2213,-2066.15 98.8216,-2075.15 103.208,-2069.69"/>
</g>
<!-- \\Elabftw\\Elabftw\\Auth -->
<g id="node15" class="node"><title>\\Elabftw\\Elabftw\\Auth</title>
<polygon fill="none" stroke="black" points="97.5,-1472 43.5,-1472 43.5,-1436 97.5,-1436 97.5,-1472"/>
<text text-anchor="middle" x="70.5" y="-1451.2" font-family="Courier,monospace" font-size="11.00">Auth</text>
</g>
<!-- \\Elabftw\\Elabftw\\ImportZip -->
<g id="node16" class="node"><title>\\Elabftw\\Elabftw\\ImportZip</title>
<polygon fill="none" stroke="black" points="276,-1634 205,-1634 205,-1598 276,-1598 276,-1634"/>
<text text-anchor="middle" x="240.5" y="-1613.2" font-family="Courier,monospace" font-size="11.00">ImportZip</text>
</g>
<!-- \\Elabftw\\Elabftw\\ImportZip&#45;&gt;\\Elabftw\\Elabftw\\Import -->
<g id="edge6" class="edge"><title>\\Elabftw\\Elabftw\\ImportZip&#45;&gt;\\Elabftw\\Elabftw\\Import</title>
<path fill="none" stroke="black" d="M204.69,-1604.81C179.867,-1596.83 146.194,-1586.01 118.918,-1577.24"/>
<polygon fill="none" stroke="black" points="119.777,-1573.84 109.186,-1574.11 117.635,-1580.51 119.777,-1573.84"/>
</g>
<!-- \\Elabftw\\Elabftw\\Status -->
<g id="node18" class="node"><title>\\Elabftw\\Elabftw\\Status</title>
<polygon fill="none" stroke="black" points="267.5,-716 213.5,-716 213.5,-680 267.5,-680 267.5,-716"/>
<text text-anchor="middle" x="240.5" y="-695.2" font-family="Courier,monospace" font-size="11.00">Status</text>
</g>
<!-- \\Elabftw\\Elabftw\\Status&#45;&gt;\\Elabftw\\Elabftw\\Entity -->
<g id="edge7" class="edge"><title>\\Elabftw\\Elabftw\\Status&#45;&gt;\\Elabftw\\Elabftw\\Entity</title>
<path fill="none" stroke="black" d="M213.461,-705.458C202.338,-709.709 189.897,-716.022 181,-725 119.248,-787.313 88.9042,-890.606 77.3166,-940.005"/>
<polygon fill="none" stroke="black" points="73.8549,-939.446 75.0638,-949.971 80.6826,-940.989 73.8549,-939.446"/>
</g>
<!-- \\Elabftw\\Elabftw\\Revisions -->
<g id="node19" class="node"><title>\\Elabftw\\Elabftw\\Revisions</title>
<polygon fill="none" stroke="black" points="276,-1364 205,-1364 205,-1328 276,-1328 276,-1364"/>
<text text-anchor="middle" x="240.5" y="-1343.2" font-family="Courier,monospace" font-size="11.00">Revisions</text>
</g>
<!-- \\Elabftw\\Elabftw\\Uploads -->
<g id="node20" class="node"><title>\\Elabftw\\Elabftw\\Uploads</title>
<polygon fill="none" stroke="black" points="270,-554 211,-554 211,-518 270,-518 270,-554"/>
<text text-anchor="middle" x="240.5" y="-533.2" font-family="Courier,monospace" font-size="11.00">Uploads</text>
</g>
<!-- \\Elabftw\\Elabftw\\Uploads&#45;&gt;\\Elabftw\\Elabftw\\Entity -->
<g id="edge8" class="edge"><title>\\Elabftw\\Elabftw\\Uploads&#45;&gt;\\Elabftw\\Elabftw\\Entity</title>
<path fill="none" stroke="black" d="M210.964,-543.499C200.208,-547.638 188.722,-553.855 181,-563 84.6789,-677.073 72.4036,-868.121 71.3367,-939.743"/>
<polygon fill="none" stroke="black" points="67.8364,-939.773 71.2511,-949.803 74.8361,-939.833 67.8364,-939.773"/>
</g>
<!-- \\Elabftw\\Elabftw\\Users -->
<g id="node21" class="node"><title>\\Elabftw\\Elabftw\\Users</title>
<polygon fill="none" stroke="black" points="267.5,-1472 213.5,-1472 213.5,-1436 267.5,-1436 267.5,-1472"/>
<text text-anchor="middle" x="240.5" y="-1451.2" font-family="Courier,monospace" font-size="11.00">Users</text>
</g>
<!-- \\Elabftw\\Elabftw\\Users&#45;&gt;\\Elabftw\\Elabftw\\Auth -->
<g id="edge9" class="edge"><title>\\Elabftw\\Elabftw\\Users&#45;&gt;\\Elabftw\\Elabftw\\Auth</title>
<path fill="none" stroke="black" d="M213.25,-1454C184.894,-1454 139.521,-1454 107.768,-1454"/>
<polygon fill="none" stroke="black" points="107.566,-1450.5 97.5657,-1454 107.566,-1457.5 107.566,-1450.5"/>
</g>
<!-- \\Elabftw\\Elabftw\\BannedUsers -->
<g id="node22" class="node"><title>\\Elabftw\\Elabftw\\BannedUsers</title>
<polygon fill="none" stroke="black" points="282,-1202 199,-1202 199,-1166 282,-1166 282,-1202"/>
<text text-anchor="middle" x="240.5" y="-1181.2" font-family="Courier,monospace" font-size="11.00">BannedUsers</text>
</g>
<!-- \\Elabftw\\Elabftw\\Logs -->
<g id="node23" class="node"><title>\\Elabftw\\Elabftw\\Logs</title>
<polygon fill="none" stroke="black" points="267.5,-1148 213.5,-1148 213.5,-1112 267.5,-1112 267.5,-1148"/>
<text text-anchor="middle" x="240.5" y="-1127.2" font-family="Courier,monospace" font-size="11.00">Logs</text>
</g>
<!-- \\Elabftw\\Elabftw\\ItemsTypes -->
<g id="node24" class="node"><title>\\Elabftw\\Elabftw\\ItemsTypes</title>
<polygon fill="none" stroke="black" points="279,-500 202,-500 202,-464 279,-464 279,-500"/>
<text text-anchor="middle" x="240.5" y="-479.2" font-family="Courier,monospace" font-size="11.00">ItemsTypes</text>
</g>
<!-- \\Elabftw\\Elabftw\\ItemsTypes&#45;&gt;\\Elabftw\\Elabftw\\Entity -->
<g id="edge10" class="edge"><title>\\Elabftw\\Elabftw\\ItemsTypes&#45;&gt;\\Elabftw\\Elabftw\\Entity</title>
<path fill="none" stroke="black" d="M201.699,-493.368C193.925,-497.239 186.458,-502.337 181,-509 125.622,-576.607 86.494,-850.33 74.9938,-939.656"/>
<polygon fill="none" stroke="black" points="71.4879,-939.481 73.6998,-949.842 78.4321,-940.363 71.4879,-939.481"/>
</g>
<!-- \\Elabftw\\Elabftw\\Comments -->
<g id="node25" class="node"><title>\\Elabftw\\Elabftw\\Comments</title>
<polygon fill="none" stroke="black" points="273,-1418 208,-1418 208,-1382 273,-1382 273,-1418"/>
<text text-anchor="middle" x="240.5" y="-1397.2" font-family="Courier,monospace" font-size="11.00">Comments</text>
</g>
<!-- \\Elabftw\\Elabftw\\Comments&#45;&gt;\\Elabftw\\Elabftw\\Entity -->
<g id="edge11" class="edge"><title>\\Elabftw\\Elabftw\\Comments&#45;&gt;\\Elabftw\\Elabftw\\Entity</title>
<path fill="none" stroke="black" d="M207.933,-1391.29C198.094,-1387.17 188,-1381.29 181,-1373 84.6789,-1258.93 72.4036,-1067.88 71.3367,-996.257"/>
<polygon fill="none" stroke="black" points="74.8361,-996.167 71.2511,-986.197 67.8364,-996.227 74.8361,-996.167"/>
</g>
<!-- \\Elabftw\\Elabftw\\Scheduler -->
<g id="node26" class="node"><title>\\Elabftw\\Elabftw\\Scheduler</title>
<polygon fill="none" stroke="black" points="276,-1310 205,-1310 205,-1274 276,-1274 276,-1310"/>
<text text-anchor="middle" x="240.5" y="-1289.2" font-family="Courier,monospace" font-size="11.00">Scheduler</text>
</g>
<!-- \\Elabftw\\Elabftw\\Scheduler&#45;&gt;\\Elabftw\\Elabftw\\Entity -->
<g id="edge12" class="edge"><title>\\Elabftw\\Elabftw\\Scheduler&#45;&gt;\\Elabftw\\Elabftw\\Entity</title>
<path fill="none" stroke="black" d="M204.701,-1281.3C196.068,-1277.31 187.452,-1271.98 181,-1265 107.956,-1185.93 82.5844,-1053.98 74.6956,-996.367"/>
<polygon fill="none" stroke="black" points="78.133,-995.657 73.3802,-986.188 71.1907,-996.554 78.133,-995.657"/>
</g>
<!-- \\Elabftw\\Elabftw\\Teams -->
<g id="node28" class="node"><title>\\Elabftw\\Elabftw\\Teams</title>
<polygon fill="none" stroke="black" points="267.5,-932 213.5,-932 213.5,-896 267.5,-896 267.5,-932"/>
<text text-anchor="middle" x="240.5" y="-911.2" font-family="Courier,monospace" font-size="11.00">Teams</text>
</g>
<!-- \\Elabftw\\Elabftw\\Tags -->
<g id="node29" class="node"><title>\\Elabftw\\Elabftw\\Tags</title>
<polygon fill="none" stroke="black" points="267.5,-1256 213.5,-1256 213.5,-1220 267.5,-1220 267.5,-1256"/>
<text text-anchor="middle" x="240.5" y="-1235.2" font-family="Courier,monospace" font-size="11.00">Tags</text>
</g>
<!-- \\Elabftw\\Elabftw\\Tags&#45;&gt;\\Elabftw\\Elabftw\\Entity -->
<g id="edge13" class="edge"><title>\\Elabftw\\Elabftw\\Tags&#45;&gt;\\Elabftw\\Elabftw\\Entity</title>
<path fill="none" stroke="black" d="M213.461,-1230.54C202.338,-1226.29 189.897,-1219.98 181,-1211 119.248,-1148.69 88.9042,-1045.39 77.3166,-995.995"/>
<polygon fill="none" stroke="black" points="80.6826,-995.011 75.0638,-986.029 73.8549,-996.554 80.6826,-995.011"/>
</g>
<!-- \\Elabftw\\Elabftw\\TeamGroups -->
<g id="node30" class="node"><title>\\Elabftw\\Elabftw\\TeamGroups</title>
<polygon fill="none" stroke="black" points="279,-824 202,-824 202,-788 279,-788 279,-824"/>
<text text-anchor="middle" x="240.5" y="-803.2" font-family="Courier,monospace" font-size="11.00">TeamGroups</text>
</g>
<!-- \\Elabftw\\Elabftw\\Config -->
<g id="node31" class="node"><title>\\Elabftw\\Elabftw\\Config</title>
<polygon fill="none" stroke="black" points="267.5,-770 213.5,-770 213.5,-734 267.5,-734 267.5,-770"/>
<text text-anchor="middle" x="240.5" y="-749.2" font-family="Courier,monospace" font-size="11.00">Config</text>
</g>
<!-- \\Elabftw\\Elabftw\\Database -->
<g id="node32" class="node"><title>\\Elabftw\\Elabftw\\Database</title>
<polygon fill="none" stroke="black" points="273,-1094 208,-1094 208,-1058 273,-1058 273,-1094"/>
<text text-anchor="middle" x="240.5" y="-1073.2" font-family="Courier,monospace" font-size="11.00">Database</text>
</g>
<!-- \\Elabftw\\Elabftw\\Database&#45;&gt;\\Elabftw\\Elabftw\\Entity -->
<g id="edge14" class="edge"><title>\\Elabftw\\Elabftw\\Database&#45;&gt;\\Elabftw\\Elabftw\\Entity</title>
<path fill="none" stroke="black" d="M207.928,-1062.86C199.029,-1058.77 189.47,-1054.02 181,-1049 152.62,-1032.19 122.659,-1009.65 101.264,-992.62"/>
<polygon fill="none" stroke="black" points="103.208,-989.691 93.2213,-986.153 98.8216,-995.147 103.208,-989.691"/>
</g>
<!-- \\Elabftw\\Elabftw\\Sysconfig -->
<g id="node33" class="node"><title>\\Elabftw\\Elabftw\\Sysconfig</title>
<polygon fill="none" stroke="black" points="276,-662 205,-662 205,-626 276,-626 276,-662"/>
<text text-anchor="middle" x="240.5" y="-641.2" font-family="Courier,monospace" font-size="11.00">Sysconfig</text>
</g>
<!-- \\Elabftw\\Elabftw\\Links -->
<g id="node34" class="node"><title>\\Elabftw\\Elabftw\\Links</title>
<polygon fill="none" stroke="black" points="267.5,-986 213.5,-986 213.5,-950 267.5,-950 267.5,-986"/>
<text text-anchor="middle" x="240.5" y="-965.2" font-family="Courier,monospace" font-size="11.00">Links</text>
</g>
<!-- \\Elabftw\\Elabftw\\Links&#45;&gt;\\Elabftw\\Elabftw\\Entity -->
<g id="edge15" class="edge"><title>\\Elabftw\\Elabftw\\Links&#45;&gt;\\Elabftw\\Elabftw\\Entity</title>
<path fill="none" stroke="black" d="M213.25,-968C184.894,-968 139.521,-968 107.768,-968"/>
<polygon fill="none" stroke="black" points="107.566,-964.5 97.5657,-968 107.566,-971.5 107.566,-964.5"/>
</g>
<!-- \\Elabftw\\Elabftw\\Experiments -->
<g id="node35" class="node"><title>\\Elabftw\\Elabftw\\Experiments</title>
<polygon fill="none" stroke="black" points="282,-878 199,-878 199,-842 282,-842 282,-878"/>
<text text-anchor="middle" x="240.5" y="-857.2" font-family="Courier,monospace" font-size="11.00">Experiments</text>
</g>
<!-- \\Elabftw\\Elabftw\\Experiments&#45;&gt;\\Elabftw\\Elabftw\\Entity -->
<g id="edge16" class="edge"><title>\\Elabftw\\Elabftw\\Experiments&#45;&gt;\\Elabftw\\Elabftw\\Entity</title>
<path fill="none" stroke="black" d="M198.978,-877.385C192.847,-880.39 186.679,-883.637 181,-887 152.62,-903.806 122.659,-926.345 101.264,-943.38"/>
<polygon fill="none" stroke="black" points="98.8216,-940.853 93.2213,-949.847 103.208,-946.309 98.8216,-940.853"/>
</g>
<!-- \\Elabftw\\Elabftw\\Templates -->
<g id="node36" class="node"><title>\\Elabftw\\Elabftw\\Templates</title>
<polygon fill="none" stroke="black" points="276,-608 205,-608 205,-572 276,-572 276,-608"/>
<text text-anchor="middle" x="240.5" y="-587.2" font-family="Courier,monospace" font-size="11.00">Templates</text>
</g>
<!-- \\Elabftw\\Elabftw\\Templates&#45;&gt;\\Elabftw\\Elabftw\\Entity -->
<g id="edge17" class="edge"><title>\\Elabftw\\Elabftw\\Templates&#45;&gt;\\Elabftw\\Elabftw\\Entity</title>
<path fill="none" stroke="black" d="M204.766,-600.342C196.03,-604.351 187.346,-609.77 181,-617 96.4099,-713.37 77.1505,-874.621 72.7784,-939.593"/>
<polygon fill="none" stroke="black" points="69.267,-939.679 72.1593,-949.871 76.2543,-940.1 69.267,-939.679"/>
</g>
<!-- \\Elabftw\\Elabftw\\TeamGroupsView -->
<g id="node37" class="node"><title>\\Elabftw\\Elabftw\\TeamGroupsView</title>
<polygon fill="none" stroke="black" points="291,-446 190,-446 190,-410 291,-410 291,-446"/>
<text text-anchor="middle" x="240.5" y="-425.2" font-family="Courier,monospace" font-size="11.00">TeamGroupsView</text>
</g>
<!-- \\Elabftw\\Elabftw\\DatabaseView -->
<g id="node38" class="node"><title>\\Elabftw\\Elabftw\\DatabaseView</title>
<polygon fill="none" stroke="black" points="285,-230 196,-230 196,-194 285,-194 285,-230"/>
<text text-anchor="middle" x="240.5" y="-209.2" font-family="Courier,monospace" font-size="11.00">DatabaseView</text>
</g>
<!-- \\Elabftw\\Elabftw\\EntityView -->
<g id="node45" class="node"><title>\\Elabftw\\Elabftw\\EntityView</title>
<polygon fill="none" stroke="black" points="109,-230 32,-230 32,-194 109,-194 109,-230"/>
<text text-anchor="middle" x="70.5" y="-209.2" font-family="Courier,monospace" font-size="11.00">EntityView</text>
</g>
<!-- \\Elabftw\\Elabftw\\DatabaseView&#45;&gt;\\Elabftw\\Elabftw\\EntityView -->
<g id="edge18" class="edge"><title>\\Elabftw\\Elabftw\\DatabaseView&#45;&gt;\\Elabftw\\Elabftw\\EntityView</title>
<path fill="none" stroke="black" d="M195.799,-212C172.424,-212 143.594,-212 119.586,-212"/>
<polygon fill="none" stroke="black" points="119.278,-208.5 109.278,-212 119.278,-215.5 119.278,-208.5"/>
</g>
<!-- \\Elabftw\\Elabftw\\TeamsView -->
<g id="node39" class="node"><title>\\Elabftw\\Elabftw\\TeamsView</title>
<polygon fill="none" stroke="black" points="276,-338 205,-338 205,-302 276,-302 276,-338"/>
<text text-anchor="middle" x="240.5" y="-317.2" font-family="Courier,monospace" font-size="11.00">TeamsView</text>
</g>
<!-- \\Elabftw\\Elabftw\\SysconfigView -->
<g id="node40" class="node"><title>\\Elabftw\\Elabftw\\SysconfigView</title>
<polygon fill="none" stroke="black" points="288,-284 193,-284 193,-248 288,-248 288,-284"/>
<text text-anchor="middle" x="240.5" y="-263.2" font-family="Courier,monospace" font-size="11.00">SysconfigView</text>
</g>
<!-- \\Elabftw\\Elabftw\\ExperimentsView -->
<g id="node41" class="node"><title>\\Elabftw\\Elabftw\\ExperimentsView</title>
<polygon fill="none" stroke="black" points="294,-122 187,-122 187,-86 294,-86 294,-122"/>
<text text-anchor="middle" x="240.5" y="-101.2" font-family="Courier,monospace" font-size="11.00">ExperimentsView</text>
</g>
<!-- \\Elabftw\\Elabftw\\ExperimentsView&#45;&gt;\\Elabftw\\Elabftw\\EntityView -->
<g id="edge19" class="edge"><title>\\Elabftw\\Elabftw\\ExperimentsView&#45;&gt;\\Elabftw\\Elabftw\\EntityView</title>
<path fill="none" stroke="black" d="M197.419,-122.154C191.805,-124.942 186.197,-127.922 181,-131 152.62,-147.806 122.659,-170.345 101.264,-187.38"/>
<polygon fill="none" stroke="black" points="98.8216,-184.853 93.2213,-193.847 103.208,-190.309 98.8216,-184.853"/>
</g>
<!-- \\Elabftw\\Elabftw\\ItemsTypesView -->
<g id="node42" class="node"><title>\\Elabftw\\Elabftw\\ItemsTypesView</title>
<polygon fill="none" stroke="black" points="291,-176 190,-176 190,-140 291,-140 291,-176"/>
<text text-anchor="middle" x="240.5" y="-155.2" font-family="Courier,monospace" font-size="11.00">ItemsTypesView</text>
</g>
<!-- \\Elabftw\\Elabftw\\UploadsView -->
<g id="node43" class="node"><title>\\Elabftw\\Elabftw\\UploadsView</title>
<polygon fill="none" stroke="black" points="282,-392 199,-392 199,-356 282,-356 282,-392"/>
<text text-anchor="middle" x="240.5" y="-371.2" font-family="Courier,monospace" font-size="11.00">UploadsView</text>
</g>
<!-- \\Elabftw\\Elabftw\\UploadsView&#45;&gt;\\Elabftw\\Elabftw\\EntityView -->
<g id="edge20" class="edge"><title>\\Elabftw\\Elabftw\\UploadsView&#45;&gt;\\Elabftw\\Elabftw\\EntityView</title>
<path fill="none" stroke="black" d="M198.758,-358.159C192.528,-354.913 186.387,-351.188 181,-347 141.489,-316.28 107.215,-268.706 87.9756,-239.007"/>
<polygon fill="none" stroke="black" points="90.8207,-236.959 82.4981,-230.403 84.9157,-240.718 90.8207,-236.959"/>
</g>
<!-- \\Elabftw\\Elabftw\\StatusView -->
<g id="node44" class="node"><title>\\Elabftw\\Elabftw\\StatusView</title>
<polygon fill="none" stroke="black" points="279,-68 202,-68 202,-32 279,-32 279,-68"/>
<text text-anchor="middle" x="240.5" y="-47.2" font-family="Courier,monospace" font-size="11.00">StatusView</text>
</g>
</g>
</svg>
