<?xml version="1.0" encoding="UTF-8" standalone="no"?>
<!DOCTYPE svg PUBLIC "-//W3C//DTD SVG 1.1//EN"
 "http://www.w3.org/Graphics/SVG/1.1/DTD/svg11.dtd">
<!-- Generated by graphviz version 2.38.0 (20140413.2041)
 -->
<!-- Title: G Pages: 1 -->
<svg width="485pt" height="1842pt"
 viewBox="0.00 0.00 485.00 1842.00" xmlns="http://www.w3.org/2000/svg" xmlns:xlink="http://www.w3.org/1999/xlink">
<g id="graph0" class="graph" transform="scale(1 1) rotate(0) translate(4 1838)">
<title>G</title>
<polygon fill="white" stroke="none" points="-4,4 -4,-1838 481,-1838 481,4 -4,4"/>
<g id="clust1" class="cluster"><title>cluster_Global</title>
<path fill="none" stroke="gray" d="M20,-8C20,-8 457,-8 457,-8 463,-8 469,-14 469,-20 469,-20 469,-1814 469,-1814 469,-1820 463,-1826 457,-1826 457,-1826 20,-1826 20,-1826 14,-1826 8,-1820 8,-1814 8,-1814 8,-20 8,-20 8,-14 14,-8 20,-8"/>
<text text-anchor="middle" x="238.5" y="-1813.2" font-family="Times,serif" font-size="11.00" fill="gray">Global</text>
</g>
<g id="clust2" class="cluster"><title>cluster_\Elabftw</title>
<path fill="none" stroke="gray" d="M28,-16C28,-16 449,-16 449,-16 455,-16 461,-22 461,-28 461,-28 461,-1786 461,-1786 461,-1792 455,-1798 449,-1798 449,-1798 28,-1798 28,-1798 22,-1798 16,-1792 16,-1786 16,-1786 16,-28 16,-28 16,-22 22,-16 28,-16"/>
<text text-anchor="middle" x="238.5" y="-1785.2" font-family="Times,serif" font-size="11.00" fill="gray">Elabftw</text>
</g>
<g id="clust3" class="cluster"><title>cluster_\Elabftw\Elabftw</title>
<path fill="none" stroke="gray" d="M36,-24C36,-24 441,-24 441,-24 447,-24 453,-30 453,-36 453,-36 453,-1758 453,-1758 453,-1764 447,-1770 441,-1770 441,-1770 36,-1770 36,-1770 30,-1770 24,-1764 24,-1758 24,-1758 24,-36 24,-36 24,-30 30,-24 36,-24"/>
<text text-anchor="middle" x="238.5" y="-1757.2" font-family="Times,serif" font-size="11.00" fill="gray">Elabftw</text>
</g>
<!-- \\Elabftw\\Elabftw\\Database -->
<g id="node1" class="node"><title>\\Elabftw\\Elabftw\\Database</title>
<polygon fill="none" stroke="black" points="415,-446 344,-446 344,-410 415,-410 415,-446"/>
<text text-anchor="middle" x="379.5" y="-425.2" font-family="Courier,monospace" font-size="11.00">Database</text>
</g>
<!-- \\Elabftw\\Elabftw\\Entity -->
<g id="node13" class="node"><title>\\Elabftw\\Elabftw\\Entity</title>
<polygon fill="none" stroke="black" points="228.5,-500 171.5,-500 171.5,-464 228.5,-464 228.5,-500"/>
<text text-anchor="middle" x="200" y="-479.2" font-family="Courier,monospace" font-size="11.00">Entity</text>
</g>
<!-- \\Elabftw\\Elabftw\\Database&#45;&gt;\\Elabftw\\Elabftw\\Entity -->
<g id="edge1" class="edge"><title>\\Elabftw\\Elabftw\\Database&#45;&gt;\\Elabftw\\Elabftw\\Entity</title>
<path fill="none" stroke="black" d="M343.855,-438.54C313.448,-447.79 269.34,-461.209 238.197,-470.684"/>
<polygon fill="none" stroke="black" points="237.123,-467.352 228.575,-473.611 239.16,-474.049 237.123,-467.352"/>
</g>
<!-- \\Elabftw\\Elabftw\\MolViewer -->
<g id="node2" class="node"><title>\\Elabftw\\Elabftw\\MolViewer</title>
<polygon fill="none" stroke="black" points="418,-1688 341,-1688 341,-1652 418,-1652 418,-1688"/>
<text text-anchor="middle" x="379.5" y="-1667.2" font-family="Courier,monospace" font-size="11.00">MolViewer</text>
</g>
<!-- \\Elabftw\\Elabftw\\Status -->
<g id="node3" class="node"><title>\\Elabftw\\Elabftw\\Status</title>
<polygon fill="none" stroke="black" points="228.5,-1715 171.5,-1715 171.5,-1679 228.5,-1679 228.5,-1715"/>
<text text-anchor="middle" x="200" y="-1694.2" font-family="Courier,monospace" font-size="11.00">Status</text>
</g>
<!-- \\Elabftw\\Elabftw\\Panel -->
<g id="node22" class="node"><title>\\Elabftw\\Elabftw\\Panel</title>
<polygon fill="none" stroke="black" points="86,-1364 32,-1364 32,-1328 86,-1328 86,-1364"/>
<text text-anchor="middle" x="59" y="-1343.2" font-family="Courier,monospace" font-size="11.00">Panel</text>
</g>
<!-- \\Elabftw\\Elabftw\\Status&#45;&gt;\\Elabftw\\Elabftw\\Panel -->
<g id="edge2" class="edge"><title>\\Elabftw\\Elabftw\\Status&#45;&gt;\\Elabftw\\Elabftw\\Panel</title>
<path fill="none" stroke="black" d="M171.171,-1682.52C166.25,-1678.97 161.568,-1674.78 158,-1670 88.5175,-1576.89 67.9065,-1434.36 62.1222,-1374.27"/>
<polygon fill="none" stroke="black" points="65.5842,-1373.69 61.2063,-1364.04 58.6121,-1374.32 65.5842,-1373.69"/>
</g>
<!-- \\Elabftw\\Elabftw\\Users -->
<g id="node4" class="node"><title>\\Elabftw\\Elabftw\\Users</title>
<polygon fill="none" stroke="black" points="406.5,-1742 352.5,-1742 352.5,-1706 406.5,-1706 406.5,-1742"/>
<text text-anchor="middle" x="379.5" y="-1721.2" font-family="Courier,monospace" font-size="11.00">Users</text>
</g>
<!-- \\Elabftw\\Elabftw\\Auth -->
<g id="node6" class="node"><title>\\Elabftw\\Elabftw\\Auth</title>
<polygon fill="none" stroke="black" points="227,-1661 173,-1661 173,-1625 227,-1625 227,-1661"/>
<text text-anchor="middle" x="200" y="-1640.2" font-family="Courier,monospace" font-size="11.00">Auth</text>
</g>
<!-- \\Elabftw\\Elabftw\\Users&#45;&gt;\\Elabftw\\Elabftw\\Auth -->
<g id="edge3" class="edge"><title>\\Elabftw\\Elabftw\\Users&#45;&gt;\\Elabftw\\Elabftw\\Auth</title>
<path fill="none" stroke="black" d="M352.326,-1713.39C340.553,-1708.53 326.519,-1702.61 314,-1697 287.782,-1685.26 258.527,-1671.25 236.353,-1660.45"/>
<polygon fill="none" stroke="black" points="237.834,-1657.27 227.313,-1656.03 234.76,-1663.56 237.834,-1657.27"/>
</g>
<!-- \\Elabftw\\Elabftw\\Links -->
<g id="node5" class="node"><title>\\Elabftw\\Elabftw\\Links</title>
<polygon fill="none" stroke="black" points="406.5,-1580 352.5,-1580 352.5,-1544 406.5,-1544 406.5,-1580"/>
<text text-anchor="middle" x="379.5" y="-1559.2" font-family="Courier,monospace" font-size="11.00">Links</text>
</g>
<!-- \\Elabftw\\Elabftw\\Comments -->
<g id="node7" class="node"><title>\\Elabftw\\Elabftw\\Comments</title>
<polygon fill="none" stroke="black" points="415,-716 344,-716 344,-680 415,-680 415,-716"/>
<text text-anchor="middle" x="379.5" y="-695.2" font-family="Courier,monospace" font-size="11.00">Comments</text>
</g>
<!-- \\Elabftw\\Elabftw\\Comments&#45;&gt;\\Elabftw\\Elabftw\\Entity -->
<g id="edge4" class="edge"><title>\\Elabftw\\Elabftw\\Comments&#45;&gt;\\Elabftw\\Elabftw\\Entity</title>
<path fill="none" stroke="black" d="M343.728,-688.095C333.376,-683.98 322.531,-678.395 314,-671 261.804,-625.754 226.996,-550.225 211.033,-509.7"/>
<polygon fill="none" stroke="black" points="214.234,-508.272 207.382,-500.192 207.699,-510.782 214.234,-508.272"/>
</g>
<!-- \\Elabftw\\Elabftw\\Teams -->
<g id="node8" class="node"><title>\\Elabftw\\Elabftw\\Teams</title>
<polygon fill="none" stroke="black" points="227,-1175 173,-1175 173,-1139 227,-1139 227,-1175"/>
<text text-anchor="middle" x="200" y="-1154.2" font-family="Courier,monospace" font-size="11.00">Teams</text>
</g>
<!-- \\Elabftw\\Elabftw\\Teams&#45;&gt;\\Elabftw\\Elabftw\\Panel -->
<g id="edge5" class="edge"><title>\\Elabftw\\Elabftw\\Teams&#45;&gt;\\Elabftw\\Elabftw\\Panel</title>
<path fill="none" stroke="black" d="M185.672,-1175.12C160.972,-1208.71 107.998,-1280.74 79.3478,-1319.69"/>
<polygon fill="none" stroke="black" points="76.3927,-1317.8 73.2876,-1327.93 82.0319,-1321.95 76.3927,-1317.8"/>
</g>
<!-- \\Elabftw\\Elabftw\\Import -->
<g id="node9" class="node"><title>\\Elabftw\\Elabftw\\Import</title>
<polygon fill="none" stroke="black" points="242,-797 158,-797 158,-761 242,-761 242,-797"/>
<text text-anchor="start" x="166" y="-782.2" font-family="Courier,monospace" font-size="11.00">«abstract»</text>
<text text-anchor="start" x="179.5" y="-770.2" font-family="Courier,monospace" font-size="11.00">Import</text>
</g>
<!-- \\Elabftw\\Elabftw\\ExperimentsView -->
<g id="node10" class="node"><title>\\Elabftw\\Elabftw\\ExperimentsView</title>
<polygon fill="none" stroke="black" points="438.5,-1472 320.5,-1472 320.5,-1436 438.5,-1436 438.5,-1472"/>
<text text-anchor="middle" x="379.5" y="-1451.2" font-family="Courier,monospace" font-size="11.00">ExperimentsView</text>
</g>
<!-- \\Elabftw\\Elabftw\\EntityView -->
<g id="node43" class="node"><title>\\Elabftw\\Elabftw\\EntityView</title>
<polygon fill="none" stroke="black" points="242,-1499 158,-1499 158,-1463 242,-1463 242,-1499"/>
<text text-anchor="middle" x="200" y="-1478.2" font-family="Courier,monospace" font-size="11.00">EntityView</text>
</g>
<!-- \\Elabftw\\Elabftw\\ExperimentsView&#45;&gt;\\Elabftw\\Elabftw\\EntityView -->
<g id="edge6" class="edge"><title>\\Elabftw\\Elabftw\\ExperimentsView&#45;&gt;\\Elabftw\\Elabftw\\EntityView</title>
<path fill="none" stroke="black" d="M320.38,-1462.84C298.397,-1466.18 273.557,-1469.96 252.25,-1473.2"/>
<polygon fill="none" stroke="black" points="251.462,-1469.78 242.102,-1474.75 252.515,-1476.7 251.462,-1469.78"/>
</g>
<!-- \\Elabftw\\Elabftw\\Make -->
<g id="node11" class="node"><title>\\Elabftw\\Elabftw\\Make</title>
<polygon fill="none" stroke="black" points="242,-176 158,-176 158,-140 242,-140 242,-176"/>
<text text-anchor="start" x="166" y="-161.2" font-family="Courier,monospace" font-size="11.00">«abstract»</text>
<text text-anchor="start" x="186" y="-149.2" font-family="Courier,monospace" font-size="11.00">Make</text>
</g>
<!-- \\Elabftw\\Elabftw\\TeamGroupsView -->
<g id="node12" class="node"><title>\\Elabftw\\Elabftw\\TeamGroupsView</title>
<polygon fill="none" stroke="black" points="435,-1418 324,-1418 324,-1382 435,-1382 435,-1418"/>
<text text-anchor="middle" x="379.5" y="-1397.2" font-family="Courier,monospace" font-size="11.00">TeamGroupsView</text>
</g>
<!-- \\Elabftw\\Elabftw\\Templates -->
<g id="node14" class="node"><title>\\Elabftw\\Elabftw\\Templates</title>
<polygon fill="none" stroke="black" points="418,-1364 341,-1364 341,-1328 418,-1328 418,-1364"/>
<text text-anchor="middle" x="379.5" y="-1343.2" font-family="Courier,monospace" font-size="11.00">Templates</text>
</g>
<!-- \\Elabftw\\Elabftw\\TagCloud -->
<g id="node15" class="node"><title>\\Elabftw\\Elabftw\\TagCloud</title>
<polygon fill="none" stroke="black" points="415,-1310 344,-1310 344,-1274 415,-1274 415,-1310"/>
<text text-anchor="middle" x="379.5" y="-1289.2" font-family="Courier,monospace" font-size="11.00">TagCloud</text>
</g>
<!-- \\Elabftw\\Elabftw\\Revisions -->
<g id="node16" class="node"><title>\\Elabftw\\Elabftw\\Revisions</title>
<polygon fill="none" stroke="black" points="418,-1256 341,-1256 341,-1220 418,-1220 418,-1256"/>
<text text-anchor="middle" x="379.5" y="-1235.2" font-family="Courier,monospace" font-size="11.00">Revisions</text>
</g>
<!-- \\Elabftw\\Elabftw\\ItemsTypesView -->
<g id="node17" class="node"><title>\\Elabftw\\Elabftw\\ItemsTypesView</title>
<polygon fill="none" stroke="black" points="435,-1202 324,-1202 324,-1166 435,-1166 435,-1202"/>
<text text-anchor="middle" x="379.5" y="-1181.2" font-family="Courier,monospace" font-size="11.00">ItemsTypesView</text>
</g>
<!-- \\Elabftw\\Elabftw\\StatusView -->
<g id="node18" class="node"><title>\\Elabftw\\Elabftw\\StatusView</title>
<polygon fill="none" stroke="black" points="421.5,-1148 337.5,-1148 337.5,-1112 421.5,-1112 421.5,-1148"/>
<text text-anchor="middle" x="379.5" y="-1127.2" font-family="Courier,monospace" font-size="11.00">StatusView</text>
</g>
<!-- \\Elabftw\\Elabftw\\UploadsView -->
<g id="node19" class="node"><title>\\Elabftw\\Elabftw\\UploadsView</title>
<polygon fill="none" stroke="black" points="425,-1634 334,-1634 334,-1598 425,-1598 425,-1634"/>
<text text-anchor="middle" x="379.5" y="-1613.2" font-family="Courier,monospace" font-size="11.00">UploadsView</text>
</g>
<!-- \\Elabftw\\Elabftw\\UploadsView&#45;&gt;\\Elabftw\\Elabftw\\EntityView -->
<g id="edge7" class="edge"><title>\\Elabftw\\Elabftw\\UploadsView&#45;&gt;\\Elabftw\\Elabftw\\EntityView</title>
<path fill="none" stroke="black" d="M333.73,-1600.36C326.842,-1597.09 320.026,-1593.3 314,-1589 274.807,-1561 278.425,-1539.52 242,-1508 241.021,-1507.15 240.014,-1506.31 238.986,-1505.48"/>
<polygon fill="none" stroke="black" points="240.881,-1502.52 230.796,-1499.28 236.656,-1508.1 240.881,-1502.52"/>
</g>
<!-- \\Elabftw\\Elabftw\\SysconfigView -->
<g id="node20" class="node"><title>\\Elabftw\\Elabftw\\SysconfigView</title>
<polygon fill="none" stroke="black" points="431.5,-1040 327.5,-1040 327.5,-1004 431.5,-1004 431.5,-1040"/>
<text text-anchor="middle" x="379.5" y="-1019.2" font-family="Courier,monospace" font-size="11.00">SysconfigView</text>
</g>
<!-- \\Elabftw\\Elabftw\\Formkey -->
<g id="node21" class="node"><title>\\Elabftw\\Elabftw\\Formkey</title>
<polygon fill="none" stroke="black" points="411.5,-986 347.5,-986 347.5,-950 411.5,-950 411.5,-986"/>
<text text-anchor="middle" x="379.5" y="-965.2" font-family="Courier,monospace" font-size="11.00">Formkey</text>
</g>
<!-- \\Elabftw\\Elabftw\\ItemsTypes -->
<g id="node23" class="node"><title>\\Elabftw\\Elabftw\\ItemsTypes</title>
<polygon fill="none" stroke="black" points="242,-1553 158,-1553 158,-1517 242,-1517 242,-1553"/>
<text text-anchor="middle" x="200" y="-1532.2" font-family="Courier,monospace" font-size="11.00">ItemsTypes</text>
</g>
<!-- \\Elabftw\\Elabftw\\ItemsTypes&#45;&gt;\\Elabftw\\Elabftw\\Panel -->
<g id="edge8" class="edge"><title>\\Elabftw\\Elabftw\\ItemsTypes&#45;&gt;\\Elabftw\\Elabftw\\Panel</title>
<path fill="none" stroke="black" d="M168.242,-1516.97C164.59,-1514.2 161.073,-1511.19 158,-1508 118.687,-1467.15 87.8632,-1407.81 71.9345,-1373.44"/>
<polygon fill="none" stroke="black" points="74.9829,-1371.69 67.659,-1364.03 68.6102,-1374.58 74.9829,-1371.69"/>
</g>
<!-- \\Elabftw\\Elabftw\\Tools -->
<g id="node24" class="node"><title>\\Elabftw\\Elabftw\\Tools</title>
<polygon fill="none" stroke="black" points="406.5,-932 352.5,-932 352.5,-896 406.5,-896 406.5,-932"/>
<text text-anchor="middle" x="379.5" y="-911.2" font-family="Courier,monospace" font-size="11.00">Tools</text>
</g>
<!-- \\Elabftw\\Elabftw\\Db -->
<g id="node25" class="node"><title>\\Elabftw\\Elabftw\\Db</title>
<polygon fill="none" stroke="black" points="406.5,-878 352.5,-878 352.5,-842 406.5,-842 406.5,-878"/>
<text text-anchor="middle" x="379.5" y="-857.2" font-family="Courier,monospace" font-size="11.00">Db</text>
</g>
<!-- \\Elabftw\\Elabftw\\TeamsView -->
<g id="node26" class="node"><title>\\Elabftw\\Elabftw\\TeamsView</title>
<polygon fill="none" stroke="black" points="418,-1094 341,-1094 341,-1058 418,-1058 418,-1094"/>
<text text-anchor="middle" x="379.5" y="-1073.2" font-family="Courier,monospace" font-size="11.00">TeamsView</text>
</g>
<!-- \\Elabftw\\Elabftw\\TeamsView&#45;&gt;\\Elabftw\\Elabftw\\Teams -->
<g id="edge9" class="edge"><title>\\Elabftw\\Elabftw\\TeamsView&#45;&gt;\\Elabftw\\Elabftw\\Teams</title>
<path fill="none" stroke="black" d="M340.848,-1091.39C332.005,-1095.11 322.642,-1099.13 314,-1103 287.782,-1114.74 258.527,-1128.75 236.353,-1139.55"/>
<polygon fill="none" stroke="black" points="234.76,-1136.44 227.313,-1143.97 237.834,-1142.73 234.76,-1136.44"/>
</g>
<!-- \\Elabftw\\Elabftw\\Experiments -->
<g id="node27" class="node"><title>\\Elabftw\\Elabftw\\Experiments</title>
<polygon fill="none" stroke="black" points="425,-392 334,-392 334,-356 425,-356 425,-392"/>
<text text-anchor="middle" x="379.5" y="-371.2" font-family="Courier,monospace" font-size="11.00">Experiments</text>
</g>
<!-- \\Elabftw\\Elabftw\\Experiments&#45;&gt;\\Elabftw\\Elabftw\\Entity -->
<g id="edge10" class="edge"><title>\\Elabftw\\Elabftw\\Experiments&#45;&gt;\\Elabftw\\Elabftw\\Entity</title>
<path fill="none" stroke="black" d="M333.809,-391.156C327.051,-394.192 320.254,-397.509 314,-401 284.286,-417.589 253.027,-440.474 230.938,-457.688"/>
<polygon fill="none" stroke="black" points="228.634,-455.047 222.943,-463.983 232.965,-460.547 228.634,-455.047"/>
</g>
<!-- \\Elabftw\\Elabftw\\ImportZip -->
<g id="node28" class="node"><title>\\Elabftw\\Elabftw\\ImportZip</title>
<polygon fill="none" stroke="black" points="418,-770 341,-770 341,-734 418,-734 418,-770"/>
<text text-anchor="middle" x="379.5" y="-749.2" font-family="Courier,monospace" font-size="11.00">ImportZip</text>
</g>
<!-- \\Elabftw\\Elabftw\\ImportZip&#45;&gt;\\Elabftw\\Elabftw\\Import -->
<g id="edge11" class="edge"><title>\\Elabftw\\Elabftw\\ImportZip&#45;&gt;\\Elabftw\\Elabftw\\Import</title>
<path fill="none" stroke="black" d="M340.857,-757.726C315.117,-761.641 280.676,-766.88 252.413,-771.179"/>
<polygon fill="none" stroke="black" points="251.668,-767.752 242.308,-772.717 252.721,-774.673 251.668,-767.752"/>
</g>
<!-- \\Elabftw\\Elabftw\\MakeCsv -->
<g id="node29" class="node"><title>\\Elabftw\\Elabftw\\MakeCsv</title>
<polygon fill="none" stroke="black" points="411.5,-68 347.5,-68 347.5,-32 411.5,-32 411.5,-68"/>
<text text-anchor="middle" x="379.5" y="-47.2" font-family="Courier,monospace" font-size="11.00">MakeCsv</text>
</g>
<!-- \\Elabftw\\Elabftw\\MakeCsv&#45;&gt;\\Elabftw\\Elabftw\\Make -->
<g id="edge12" class="edge"><title>\\Elabftw\\Elabftw\\MakeCsv&#45;&gt;\\Elabftw\\Elabftw\\Make</title>
<path fill="none" stroke="black" d="M347.246,-61.2718C336.439,-65.638 324.43,-71.0288 314,-77 279.287,-96.8742 274.719,-107.989 242,-131 240.562,-132.011 239.09,-133.035 237.598,-134.062"/>
<polygon fill="none" stroke="black" points="235.258,-131.42 228.943,-139.927 239.185,-137.215 235.258,-131.42"/>
</g>
<!-- \\Elabftw\\Elabftw\\BannedUsers -->
<g id="node30" class="node"><title>\\Elabftw\\Elabftw\\BannedUsers</title>
<polygon fill="none" stroke="black" points="425,-608 334,-608 334,-572 425,-572 425,-608"/>
<text text-anchor="middle" x="379.5" y="-587.2" font-family="Courier,monospace" font-size="11.00">BannedUsers</text>
</g>
<!-- \\Elabftw\\Elabftw\\Uploads -->
<g id="node31" class="node"><title>\\Elabftw\\Elabftw\\Uploads</title>
<polygon fill="none" stroke="black" points="411.5,-554 347.5,-554 347.5,-518 411.5,-518 411.5,-554"/>
<text text-anchor="middle" x="379.5" y="-533.2" font-family="Courier,monospace" font-size="11.00">Uploads</text>
</g>
<!-- \\Elabftw\\Elabftw\\Uploads&#45;&gt;\\Elabftw\\Elabftw\\Entity -->
<g id="edge13" class="edge"><title>\\Elabftw\\Elabftw\\Uploads&#45;&gt;\\Elabftw\\Elabftw\\Entity</title>
<path fill="none" stroke="black" d="M347.175,-526.47C316.821,-517.236 270.761,-503.223 238.477,-493.401"/>
<polygon fill="none" stroke="black" points="239.103,-489.933 228.517,-490.371 237.065,-496.63 239.103,-489.933"/>
</g>
<!-- \\Elabftw\\Elabftw\\TeamGroups -->
<g id="node32" class="node"><title>\\Elabftw\\Elabftw\\TeamGroups</title>
<polygon fill="none" stroke="black" points="242,-1364 158,-1364 158,-1328 242,-1328 242,-1364"/>
<text text-anchor="middle" x="200" y="-1343.2" font-family="Courier,monospace" font-size="11.00">TeamGroups</text>
</g>
<!-- \\Elabftw\\Elabftw\\TeamGroups&#45;&gt;\\Elabftw\\Elabftw\\Panel -->
<g id="edge14" class="edge"><title>\\Elabftw\\Elabftw\\TeamGroups&#45;&gt;\\Elabftw\\Elabftw\\Panel</title>
<path fill="none" stroke="black" d="M157.672,-1346C138.181,-1346 115.132,-1346 96.3204,-1346"/>
<polygon fill="none" stroke="black" points="96.0748,-1342.5 86.0747,-1346 96.0747,-1349.5 96.0748,-1342.5"/>
</g>
<!-- \\Elabftw\\Elabftw\\MakeZip -->
<g id="node33" class="node"><title>\\Elabftw\\Elabftw\\MakeZip</title>
<polygon fill="none" stroke="black" points="411.5,-122 347.5,-122 347.5,-86 411.5,-86 411.5,-122"/>
<text text-anchor="middle" x="379.5" y="-101.2" font-family="Courier,monospace" font-size="11.00">MakeZip</text>
</g>
<!-- \\Elabftw\\Elabftw\\MakeZip&#45;&gt;\\Elabftw\\Elabftw\\Make -->
<g id="edge15" class="edge"><title>\\Elabftw\\Elabftw\\MakeZip&#45;&gt;\\Elabftw\\Elabftw\\Make</title>
<path fill="none" stroke="black" d="M347.175,-113.53C320.772,-121.562 282.486,-133.21 251.72,-142.57"/>
<polygon fill="none" stroke="black" points="250.568,-139.262 242.02,-145.521 252.606,-145.959 250.568,-139.262"/>
</g>
<!-- \\Elabftw\\Elabftw\\DatabaseView -->
<g id="node34" class="node"><title>\\Elabftw\\Elabftw\\DatabaseView</title>
<polygon fill="none" stroke="black" points="428.5,-1526 330.5,-1526 330.5,-1490 428.5,-1490 428.5,-1526"/>
<text text-anchor="middle" x="379.5" y="-1505.2" font-family="Courier,monospace" font-size="11.00">DatabaseView</text>
</g>
<!-- \\Elabftw\\Elabftw\\DatabaseView&#45;&gt;\\Elabftw\\Elabftw\\EntityView -->
<g id="edge16" class="edge"><title>\\Elabftw\\Elabftw\\DatabaseView&#45;&gt;\\Elabftw\\Elabftw\\EntityView</title>
<path fill="none" stroke="black" d="M330.466,-1500.69C306.192,-1497 276.73,-1492.52 252.047,-1488.76"/>
<polygon fill="none" stroke="black" points="252.556,-1485.3 242.143,-1487.26 251.503,-1492.22 252.556,-1485.3"/>
</g>
<!-- \\Elabftw\\Elabftw\\ImportCsv -->
<g id="node35" class="node"><title>\\Elabftw\\Elabftw\\ImportCsv</title>
<polygon fill="none" stroke="black" points="418,-824 341,-824 341,-788 418,-788 418,-824"/>
<text text-anchor="middle" x="379.5" y="-803.2" font-family="Courier,monospace" font-size="11.00">ImportCsv</text>
</g>
<!-- \\Elabftw\\Elabftw\\ImportCsv&#45;&gt;\\Elabftw\\Elabftw\\Import -->
<g id="edge17" class="edge"><title>\\Elabftw\\Elabftw\\ImportCsv&#45;&gt;\\Elabftw\\Elabftw\\Import</title>
<path fill="none" stroke="black" d="M340.857,-800.274C315.117,-796.359 280.676,-791.12 252.413,-786.821"/>
<polygon fill="none" stroke="black" points="252.721,-783.327 242.308,-785.283 251.668,-790.248 252.721,-783.327"/>
</g>
<!-- \\Elabftw\\Elabftw\\Sysconfig -->
<g id="node36" class="node"><title>\\Elabftw\\Elabftw\\Sysconfig</title>
<polygon fill="none" stroke="black" points="418,-338 341,-338 341,-302 418,-302 418,-338"/>
<text text-anchor="middle" x="379.5" y="-317.2" font-family="Courier,monospace" font-size="11.00">Sysconfig</text>
</g>
<!-- \\Elabftw\\Elabftw\\Tags -->
<g id="node37" class="node"><title>\\Elabftw\\Elabftw\\Tags</title>
<polygon fill="none" stroke="black" points="406.5,-500 352.5,-500 352.5,-464 406.5,-464 406.5,-500"/>
<text text-anchor="middle" x="379.5" y="-479.2" font-family="Courier,monospace" font-size="11.00">Tags</text>
</g>
<!-- \\Elabftw\\Elabftw\\Tags&#45;&gt;\\Elabftw\\Elabftw\\Entity -->
<g id="edge18" class="edge"><title>\\Elabftw\\Elabftw\\Tags&#45;&gt;\\Elabftw\\Elabftw\\Entity</title>
<path fill="none" stroke="black" d="M352.309,-482C322.333,-482 272.984,-482 238.834,-482"/>
<polygon fill="none" stroke="black" points="238.762,-478.5 228.762,-482 238.762,-485.5 238.762,-478.5"/>
</g>
<!-- \\Elabftw\\Elabftw\\MakePdf -->
<g id="node38" class="node"><title>\\Elabftw\\Elabftw\\MakePdf</title>
<polygon fill="none" stroke="black" points="411.5,-230 347.5,-230 347.5,-194 411.5,-194 411.5,-230"/>
<text text-anchor="middle" x="379.5" y="-209.2" font-family="Courier,monospace" font-size="11.00">MakePdf</text>
</g>
<!-- \\Elabftw\\Elabftw\\MakePdf&#45;&gt;\\Elabftw\\Elabftw\\Make -->
<g id="edge19" class="edge"><title>\\Elabftw\\Elabftw\\MakePdf&#45;&gt;\\Elabftw\\Elabftw\\Make</title>
<path fill="none" stroke="black" d="M347.175,-202.47C320.772,-194.438 282.486,-182.79 251.72,-173.43"/>
<polygon fill="none" stroke="black" points="252.606,-170.041 242.02,-170.479 250.568,-176.738 252.606,-170.041"/>
</g>
<!-- \\Elabftw\\Elabftw\\Update -->
<g id="node39" class="node"><title>\\Elabftw\\Elabftw\\Update</title>
<polygon fill="none" stroke="black" points="408,-176 351,-176 351,-140 408,-140 408,-176"/>
<text text-anchor="middle" x="379.5" y="-155.2" font-family="Courier,monospace" font-size="11.00">Update</text>
</g>
<!-- \\Elabftw\\Elabftw\\TrustedTimestamps -->
<g id="node40" class="node"><title>\\Elabftw\\Elabftw\\TrustedTimestamps</title>
<polygon fill="none" stroke="black" points="445,-284 314,-284 314,-248 445,-248 445,-284"/>
<text text-anchor="middle" x="379.5" y="-263.2" font-family="Courier,monospace" font-size="11.00">TrustedTimestamps</text>
</g>
<!-- \\Elabftw\\Elabftw\\TrustedTimestamps&#45;&gt;\\Elabftw\\Elabftw\\Entity -->
<g id="edge20" class="edge"><title>\\Elabftw\\Elabftw\\TrustedTimestamps&#45;&gt;\\Elabftw\\Elabftw\\Entity</title>
<path fill="none" stroke="black" d="M326.715,-284.057C322.177,-286.69 317.853,-289.66 314,-293 261.804,-338.246 226.996,-413.775 211.033,-454.3"/>
<polygon fill="none" stroke="black" points="207.699,-453.218 207.382,-463.808 214.234,-455.728 207.699,-453.218"/>
</g>
<!-- \\Elabftw\\Elabftw\\Scheduler -->
<g id="node41" class="node"><title>\\Elabftw\\Elabftw\\Scheduler</title>
<polygon fill="none" stroke="black" points="418,-662 341,-662 341,-626 418,-626 418,-662"/>
<text text-anchor="middle" x="379.5" y="-641.2" font-family="Courier,monospace" font-size="11.00">Scheduler</text>
</g>
<!-- \\Elabftw\\Elabftw\\Scheduler&#45;&gt;\\Elabftw\\Elabftw\\Entity -->
<g id="edge21" class="edge"><title>\\Elabftw\\Elabftw\\Scheduler&#45;&gt;\\Elabftw\\Elabftw\\Entity</title>
<path fill="none" stroke="black" d="M340.719,-631.721C331.51,-627.799 322.013,-622.906 314,-617 272.973,-586.761 237.45,-538.638 217.667,-508.759"/>
<polygon fill="none" stroke="black" points="220.43,-506.587 212.045,-500.111 214.562,-510.403 220.43,-506.587"/>
</g>
<!-- \\Elabftw\\Elabftw\\Logs -->
<g id="node42" class="node"><title>\\Elabftw\\Elabftw\\Logs</title>
<polygon fill="none" stroke="black" points="227,-122 173,-122 173,-86 227,-86 227,-122"/>
<text text-anchor="middle" x="200" y="-101.2" font-family="Courier,monospace" font-size="11.00">Logs</text>
</g>
<!-- \\Elabftw\\Elabftw\\Logs&#45;&gt;\\Elabftw\\Elabftw\\Panel -->
<g id="edge22" class="edge"><title>\\Elabftw\\Elabftw\\Logs&#45;&gt;\\Elabftw\\Elabftw\\Panel</title>
<path fill="none" stroke="black" d="M172.859,-116.129C167.046,-120.054 161.56,-124.986 158,-131 95.6037,-236.412 65.9101,-1145.01 60.8045,-1317.72"/>
<polygon fill="none" stroke="black" points="57.3036,-1317.7 60.5098,-1327.8 64.3006,-1317.91 57.3036,-1317.7"/>
</g>
</g>
</svg>
