<?xml version="1.0" encoding="UTF-8" standalone="no"?>
<!DOCTYPE svg PUBLIC "-//W3C//DTD SVG 1.1//EN"
 "http://www.w3.org/Graphics/SVG/1.1/DTD/svg11.dtd">
<!-- Generated by graphviz version 2.38.0 (20140413.2041)
 -->
<!-- Title: G Pages: 1 -->
<svg width="340pt" height="2328pt"
 viewBox="0.00 0.00 340.00 2328.00" xmlns="http://www.w3.org/2000/svg" xmlns:xlink="http://www.w3.org/1999/xlink">
<g id="graph0" class="graph" transform="scale(1 1) rotate(0) translate(4 2324)">
<title>G</title>
<polygon fill="white" stroke="none" points="-4,4 -4,-2324 336,-2324 336,4 -4,4"/>
<g id="clust1" class="cluster"><title>cluster_Global</title>
<path fill="none" stroke="gray" d="M20,-8C20,-8 312,-8 312,-8 318,-8 324,-14 324,-20 324,-20 324,-2300 324,-2300 324,-2306 318,-2312 312,-2312 312,-2312 20,-2312 20,-2312 14,-2312 8,-2306 8,-2300 8,-2300 8,-20 8,-20 8,-14 14,-8 20,-8"/>
<text text-anchor="middle" x="166" y="-2299.2" font-family="Times,serif" font-size="11.00" fill="gray">Global</text>
</g>
<g id="clust2" class="cluster"><title>cluster_\Elabftw</title>
<path fill="none" stroke="gray" d="M28,-16C28,-16 304,-16 304,-16 310,-16 316,-22 316,-28 316,-28 316,-2272 316,-2272 316,-2278 310,-2284 304,-2284 304,-2284 28,-2284 28,-2284 22,-2284 16,-2278 16,-2272 16,-2272 16,-28 16,-28 16,-22 22,-16 28,-16"/>
<text text-anchor="middle" x="166" y="-2271.2" font-family="Times,serif" font-size="11.00" fill="gray">Elabftw</text>
</g>
<g id="clust3" class="cluster"><title>cluster_\Elabftw\Elabftw</title>
<path fill="none" stroke="gray" d="M36,-24C36,-24 296,-24 296,-24 302,-24 308,-30 308,-36 308,-36 308,-2244 308,-2244 308,-2250 302,-2256 296,-2256 296,-2256 36,-2256 36,-2256 30,-2256 24,-2250 24,-2244 24,-2244 24,-36 24,-36 24,-30 30,-24 36,-24"/>
<text text-anchor="middle" x="166" y="-2243.2" font-family="Times,serif" font-size="11.00" fill="gray">Elabftw</text>
</g>
<!-- \\Elabftw\\Elabftw\\Database -->
<g id="node1" class="node"><title>\\Elabftw\\Elabftw\\Database</title>
<polygon fill="none" stroke="black" points="273,-1202 208,-1202 208,-1166 273,-1166 273,-1202"/>
<text text-anchor="middle" x="240.5" y="-1181.2" font-family="Courier,monospace" font-size="11.00">Database</text>
</g>
<!-- \\Elabftw\\Elabftw\\Entity -->
<g id="node13" class="node"><title>\\Elabftw\\Elabftw\\Entity</title>
<polygon fill="none" stroke="black" points="97.5,-1742 43.5,-1742 43.5,-1706 97.5,-1706 97.5,-1742"/>
<text text-anchor="middle" x="70.5" y="-1721.2" font-family="Courier,monospace" font-size="11.00">Entity</text>
</g>
<!-- \\Elabftw\\Elabftw\\Database&#45;&gt;\\Elabftw\\Elabftw\\Entity -->
<g id="edge1" class="edge"><title>\\Elabftw\\Elabftw\\Database&#45;&gt;\\Elabftw\\Elabftw\\Entity</title>
<path fill="none" stroke="black" d="M207.977,-1192.37C198.022,-1196.47 187.845,-1202.44 181,-1211 119.61,-1287.8 83.8783,-1600.01 74.1964,-1695.87"/>
<polygon fill="none" stroke="black" points="70.6995,-1695.67 73.1931,-1705.97 77.6652,-1696.36 70.6995,-1695.67"/>
</g>
<!-- \\Elabftw\\Elabftw\\MolViewer -->
<g id="node2" class="node"><title>\\Elabftw\\Elabftw\\MolViewer</title>
<polygon fill="none" stroke="black" points="276,-2174 205,-2174 205,-2138 276,-2138 276,-2174"/>
<text text-anchor="middle" x="240.5" y="-2153.2" font-family="Courier,monospace" font-size="11.00">MolViewer</text>
</g>
<!-- \\Elabftw\\Elabftw\\Status -->
<g id="node3" class="node"><title>\\Elabftw\\Elabftw\\Status</title>
<polygon fill="none" stroke="black" points="267.5,-878 213.5,-878 213.5,-842 267.5,-842 267.5,-878"/>
<text text-anchor="middle" x="240.5" y="-857.2" font-family="Courier,monospace" font-size="11.00">Status</text>
</g>
<!-- \\Elabftw\\Elabftw\\Status&#45;&gt;\\Elabftw\\Elabftw\\Entity -->
<g id="edge2" class="edge"><title>\\Elabftw\\Elabftw\\Status&#45;&gt;\\Elabftw\\Elabftw\\Entity</title>
<path fill="none" stroke="black" d="M213.348,-865.912C201.641,-869.912 188.755,-876.458 181,-887 83.3362,-1019.76 72.7601,-1565.37 71.6315,-1695.87"/>
<polygon fill="none" stroke="black" points="68.1317,-1695.84 71.557,-1705.87 75.1315,-1695.9 68.1317,-1695.84"/>
</g>
<!-- \\Elabftw\\Elabftw\\Users -->
<g id="node4" class="node"><title>\\Elabftw\\Elabftw\\Users</title>
<polygon fill="none" stroke="black" points="267.5,-2228 213.5,-2228 213.5,-2192 267.5,-2192 267.5,-2228"/>
<text text-anchor="middle" x="240.5" y="-2207.2" font-family="Courier,monospace" font-size="11.00">Users</text>
</g>
<!-- \\Elabftw\\Elabftw\\Auth -->
<g id="node6" class="node"><title>\\Elabftw\\Elabftw\\Auth</title>
<polygon fill="none" stroke="black" points="97.5,-2228 43.5,-2228 43.5,-2192 97.5,-2192 97.5,-2228"/>
<text text-anchor="middle" x="70.5" y="-2207.2" font-family="Courier,monospace" font-size="11.00">Auth</text>
</g>
<!-- \\Elabftw\\Elabftw\\Users&#45;&gt;\\Elabftw\\Elabftw\\Auth -->
<g id="edge3" class="edge"><title>\\Elabftw\\Elabftw\\Users&#45;&gt;\\Elabftw\\Elabftw\\Auth</title>
<path fill="none" stroke="black" d="M213.25,-2210C184.894,-2210 139.521,-2210 107.768,-2210"/>
<polygon fill="none" stroke="black" points="107.566,-2206.5 97.5657,-2210 107.566,-2213.5 107.566,-2206.5"/>
</g>
<!-- \\Elabftw\\Elabftw\\Links -->
<g id="node5" class="node"><title>\\Elabftw\\Elabftw\\Links</title>
<polygon fill="none" stroke="black" points="267.5,-770 213.5,-770 213.5,-734 267.5,-734 267.5,-770"/>
<text text-anchor="middle" x="240.5" y="-749.2" font-family="Courier,monospace" font-size="11.00">Links</text>
</g>
<!-- \\Elabftw\\Elabftw\\Links&#45;&gt;\\Elabftw\\Elabftw\\Entity -->
<g id="edge4" class="edge"><title>\\Elabftw\\Elabftw\\Links&#45;&gt;\\Elabftw\\Elabftw\\Entity</title>
<path fill="none" stroke="black" d="M213.279,-757.862C201.556,-761.85 188.677,-768.401 181,-779 71.2223,-930.556 69.9933,-1554.29 71.1577,-1695.49"/>
<polygon fill="none" stroke="black" points="67.6615,-1695.92 71.2555,-1705.88 74.6612,-1695.85 67.6615,-1695.92"/>
</g>
<!-- \\Elabftw\\Elabftw\\Comments -->
<g id="node7" class="node"><title>\\Elabftw\\Elabftw\\Comments</title>
<polygon fill="none" stroke="black" points="273,-2120 208,-2120 208,-2084 273,-2084 273,-2120"/>
<text text-anchor="middle" x="240.5" y="-2099.2" font-family="Courier,monospace" font-size="11.00">Comments</text>
</g>
<!-- \\Elabftw\\Elabftw\\Comments&#45;&gt;\\Elabftw\\Elabftw\\Entity -->
<g id="edge5" class="edge"><title>\\Elabftw\\Elabftw\\Comments&#45;&gt;\\Elabftw\\Elabftw\\Entity</title>
<path fill="none" stroke="black" d="M207.811,-2093C198.081,-2088.88 188.084,-2083.07 181,-2075 96.4099,-1978.63 77.1505,-1817.38 72.7784,-1752.41"/>
<polygon fill="none" stroke="black" points="76.2543,-1751.9 72.1593,-1742.13 69.267,-1752.32 76.2543,-1751.9"/>
</g>
<!-- \\Elabftw\\Elabftw\\Teams -->
<g id="node8" class="node"><title>\\Elabftw\\Elabftw\\Teams</title>
<polygon fill="none" stroke="black" points="267.5,-1904 213.5,-1904 213.5,-1868 267.5,-1868 267.5,-1904"/>
<text text-anchor="middle" x="240.5" y="-1883.2" font-family="Courier,monospace" font-size="11.00">Teams</text>
</g>
<!-- \\Elabftw\\Elabftw\\Import -->
<g id="node9" class="node"><title>\\Elabftw\\Elabftw\\Import</title>
<polygon fill="none" stroke="black" points="109,-392 32,-392 32,-356 109,-356 109,-392"/>
<text text-anchor="start" x="40" y="-377.2" font-family="Courier,monospace" font-size="11.00">«abstract»</text>
<text text-anchor="start" x="52" y="-365.2" font-family="Courier,monospace" font-size="11.00">Import</text>
</g>
<!-- \\Elabftw\\Elabftw\\ExperimentsView -->
<g id="node10" class="node"><title>\\Elabftw\\Elabftw\\ExperimentsView</title>
<polygon fill="none" stroke="black" points="294,-554 187,-554 187,-518 294,-518 294,-554"/>
<text text-anchor="middle" x="240.5" y="-533.2" font-family="Courier,monospace" font-size="11.00">ExperimentsView</text>
</g>
<!-- \\Elabftw\\Elabftw\\EntityView -->
<g id="node46" class="node"><title>\\Elabftw\\Elabftw\\EntityView</title>
<polygon fill="none" stroke="black" points="109,-554 32,-554 32,-518 109,-518 109,-554"/>
<text text-anchor="middle" x="70.5" y="-533.2" font-family="Courier,monospace" font-size="11.00">EntityView</text>
</g>
<!-- \\Elabftw\\Elabftw\\ExperimentsView&#45;&gt;\\Elabftw\\Elabftw\\EntityView -->
<g id="edge6" class="edge"><title>\\Elabftw\\Elabftw\\ExperimentsView&#45;&gt;\\Elabftw\\Elabftw\\EntityView</title>
<path fill="none" stroke="black" d="M186.805,-536C165.138,-536 140.229,-536 119.12,-536"/>
<polygon fill="none" stroke="black" points="119.093,-532.5 109.093,-536 119.093,-539.5 119.093,-532.5"/>
</g>
<!-- \\Elabftw\\Elabftw\\Make -->
<g id="node11" class="node"><title>\\Elabftw\\Elabftw\\Make</title>
<polygon fill="none" stroke="black" points="109,-176 32,-176 32,-140 109,-140 109,-176"/>
<text text-anchor="start" x="40" y="-161.2" font-family="Courier,monospace" font-size="11.00">«abstract»</text>
<text text-anchor="start" x="58" y="-149.2" font-family="Courier,monospace" font-size="11.00">Make</text>
</g>
<!-- \\Elabftw\\Elabftw\\TeamGroupsView -->
<g id="node12" class="node"><title>\\Elabftw\\Elabftw\\TeamGroupsView</title>
<polygon fill="none" stroke="black" points="291,-1796 190,-1796 190,-1760 291,-1760 291,-1796"/>
<text text-anchor="middle" x="240.5" y="-1775.2" font-family="Courier,monospace" font-size="11.00">TeamGroupsView</text>
</g>
<!-- \\Elabftw\\Elabftw\\Templates -->
<g id="node14" class="node"><title>\\Elabftw\\Elabftw\\Templates</title>
<polygon fill="none" stroke="black" points="276,-2066 205,-2066 205,-2030 276,-2030 276,-2066"/>
<text text-anchor="middle" x="240.5" y="-2045.2" font-family="Courier,monospace" font-size="11.00">Templates</text>
</g>
<!-- \\Elabftw\\Elabftw\\Templates&#45;&gt;\\Elabftw\\Elabftw\\Entity -->
<g id="edge7" class="edge"><title>\\Elabftw\\Elabftw\\Templates&#45;&gt;\\Elabftw\\Elabftw\\Entity</title>
<path fill="none" stroke="black" d="M204.701,-2037.3C196.068,-2033.31 187.452,-2027.98 181,-2021 107.956,-1941.93 82.5844,-1809.98 74.6956,-1752.37"/>
<polygon fill="none" stroke="black" points="78.133,-1751.66 73.3802,-1742.19 71.1907,-1752.55 78.133,-1751.66"/>
</g>
<!-- \\Elabftw\\Elabftw\\Config -->
<g id="node15" class="node"><title>\\Elabftw\\Elabftw\\Config</title>
<polygon fill="none" stroke="black" points="267.5,-1688 213.5,-1688 213.5,-1652 267.5,-1652 267.5,-1688"/>
<text text-anchor="middle" x="240.5" y="-1667.2" font-family="Courier,monospace" font-size="11.00">Config</text>
</g>
<!-- \\Elabftw\\Elabftw\\TagCloud -->
<g id="node16" class="node"><title>\\Elabftw\\Elabftw\\TagCloud</title>
<polygon fill="none" stroke="black" points="273,-1634 208,-1634 208,-1598 273,-1598 273,-1634"/>
<text text-anchor="middle" x="240.5" y="-1613.2" font-family="Courier,monospace" font-size="11.00">TagCloud</text>
</g>
<!-- \\Elabftw\\Elabftw\\Revisions -->
<g id="node17" class="node"><title>\\Elabftw\\Elabftw\\Revisions</title>
<polygon fill="none" stroke="black" points="276,-1580 205,-1580 205,-1544 276,-1544 276,-1580"/>
<text text-anchor="middle" x="240.5" y="-1559.2" font-family="Courier,monospace" font-size="11.00">Revisions</text>
</g>
<!-- \\Elabftw\\Elabftw\\ItemsTypesView -->
<g id="node18" class="node"><title>\\Elabftw\\Elabftw\\ItemsTypesView</title>
<polygon fill="none" stroke="black" points="291,-1526 190,-1526 190,-1490 291,-1490 291,-1526"/>
<text text-anchor="middle" x="240.5" y="-1505.2" font-family="Courier,monospace" font-size="11.00">ItemsTypesView</text>
</g>
<!-- \\Elabftw\\Elabftw\\StatusView -->
<g id="node19" class="node"><title>\\Elabftw\\Elabftw\\StatusView</title>
<polygon fill="none" stroke="black" points="279,-1472 202,-1472 202,-1436 279,-1436 279,-1472"/>
<text text-anchor="middle" x="240.5" y="-1451.2" font-family="Courier,monospace" font-size="11.00">StatusView</text>
</g>
<!-- \\Elabftw\\Elabftw\\UploadsView -->
<g id="node20" class="node"><title>\\Elabftw\\Elabftw\\UploadsView</title>
<polygon fill="none" stroke="black" points="282,-662 199,-662 199,-626 282,-626 282,-662"/>
<text text-anchor="middle" x="240.5" y="-641.2" font-family="Courier,monospace" font-size="11.00">UploadsView</text>
</g>
<!-- \\Elabftw\\Elabftw\\UploadsView&#45;&gt;\\Elabftw\\Elabftw\\EntityView -->
<g id="edge8" class="edge"><title>\\Elabftw\\Elabftw\\UploadsView&#45;&gt;\\Elabftw\\Elabftw\\EntityView</title>
<path fill="none" stroke="black" d="M198.978,-626.615C192.847,-623.61 186.679,-620.363 181,-617 152.62,-600.194 122.659,-577.655 101.264,-560.62"/>
<polygon fill="none" stroke="black" points="103.208,-557.691 93.2213,-554.153 98.8216,-563.147 103.208,-557.691"/>
</g>
<!-- \\Elabftw\\Elabftw\\SysconfigView -->
<g id="node21" class="node"><title>\\Elabftw\\Elabftw\\SysconfigView</title>
<polygon fill="none" stroke="black" points="288,-1364 193,-1364 193,-1328 288,-1328 288,-1364"/>
<text text-anchor="middle" x="240.5" y="-1343.2" font-family="Courier,monospace" font-size="11.00">SysconfigView</text>
</g>
<!-- \\Elabftw\\Elabftw\\UserStats -->
<g id="node22" class="node"><title>\\Elabftw\\Elabftw\\UserStats</title>
<polygon fill="none" stroke="black" points="276,-1310 205,-1310 205,-1274 276,-1274 276,-1310"/>
<text text-anchor="middle" x="240.5" y="-1289.2" font-family="Courier,monospace" font-size="11.00">UserStats</text>
</g>
<!-- \\Elabftw\\Elabftw\\Formkey -->
<g id="node23" class="node"><title>\\Elabftw\\Elabftw\\Formkey</title>
<polygon fill="none" stroke="black" points="270,-1256 211,-1256 211,-1220 270,-1220 270,-1256"/>
<text text-anchor="middle" x="240.5" y="-1235.2" font-family="Courier,monospace" font-size="11.00">Formkey</text>
</g>
<!-- \\Elabftw\\Elabftw\\ItemsTypes -->
<g id="node24" class="node"><title>\\Elabftw\\Elabftw\\ItemsTypes</title>
<polygon fill="none" stroke="black" points="279,-2012 202,-2012 202,-1976 279,-1976 279,-2012"/>
<text text-anchor="middle" x="240.5" y="-1991.2" font-family="Courier,monospace" font-size="11.00">ItemsTypes</text>
</g>
<!-- \\Elabftw\\Elabftw\\ItemsTypes&#45;&gt;\\Elabftw\\Elabftw\\Entity -->
<g id="edge9" class="edge"><title>\\Elabftw\\Elabftw\\ItemsTypes&#45;&gt;\\Elabftw\\Elabftw\\Entity</title>
<path fill="none" stroke="black" d="M201.977,-1981.53C194.372,-1977.74 186.905,-1972.96 181,-1967 119.248,-1904.69 88.9042,-1801.39 77.3166,-1751.99"/>
<polygon fill="none" stroke="black" points="80.6826,-1751.01 75.0638,-1742.03 73.8549,-1752.55 80.6826,-1751.01"/>
</g>
<!-- \\Elabftw\\Elabftw\\Tools -->
<g id="node25" class="node"><title>\\Elabftw\\Elabftw\\Tools</title>
<polygon fill="none" stroke="black" points="267.5,-1148 213.5,-1148 213.5,-1112 267.5,-1112 267.5,-1148"/>
<text text-anchor="middle" x="240.5" y="-1127.2" font-family="Courier,monospace" font-size="11.00">Tools</text>
</g>
<!-- \\Elabftw\\Elabftw\\Db -->
<g id="node26" class="node"><title>\\Elabftw\\Elabftw\\Db</title>
<polygon fill="none" stroke="black" points="267.5,-1094 213.5,-1094 213.5,-1058 267.5,-1058 267.5,-1094"/>
<text text-anchor="middle" x="240.5" y="-1073.2" font-family="Courier,monospace" font-size="11.00">Db</text>
</g>
<!-- \\Elabftw\\Elabftw\\TeamsView -->
<g id="node27" class="node"><title>\\Elabftw\\Elabftw\\TeamsView</title>
<polygon fill="none" stroke="black" points="276,-1040 205,-1040 205,-1004 276,-1004 276,-1040"/>
<text text-anchor="middle" x="240.5" y="-1019.2" font-family="Courier,monospace" font-size="11.00">TeamsView</text>
</g>
<!-- \\Elabftw\\Elabftw\\UsersView -->
<g id="node28" class="node"><title>\\Elabftw\\Elabftw\\UsersView</title>
<polygon fill="none" stroke="black" points="276,-986 205,-986 205,-950 276,-950 276,-986"/>
<text text-anchor="middle" x="240.5" y="-965.2" font-family="Courier,monospace" font-size="11.00">UsersView</text>
</g>
<!-- \\Elabftw\\Elabftw\\Experiments -->
<g id="node29" class="node"><title>\\Elabftw\\Elabftw\\Experiments</title>
<polygon fill="none" stroke="black" points="282,-1958 199,-1958 199,-1922 282,-1922 282,-1958"/>
<text text-anchor="middle" x="240.5" y="-1937.2" font-family="Courier,monospace" font-size="11.00">Experiments</text>
</g>
<!-- \\Elabftw\\Elabftw\\Experiments&#45;&gt;\\Elabftw\\Elabftw\\Entity -->
<g id="edge10" class="edge"><title>\\Elabftw\\Elabftw\\Experiments&#45;&gt;\\Elabftw\\Elabftw\\Entity</title>
<path fill="none" stroke="black" d="M198.766,-1925.19C192.396,-1921.79 186.209,-1917.75 181,-1913 130.356,-1866.85 96.6529,-1791.69 81.2056,-1751.46"/>
<polygon fill="none" stroke="black" points="84.457,-1750.17 77.6724,-1742.03 77.9015,-1752.62 84.457,-1750.17"/>
</g>
<!-- \\Elabftw\\Elabftw\\ImportZip -->
<g id="node30" class="node"><title>\\Elabftw\\Elabftw\\ImportZip</title>
<polygon fill="none" stroke="black" points="276,-446 205,-446 205,-410 276,-410 276,-446"/>
<text text-anchor="middle" x="240.5" y="-425.2" font-family="Courier,monospace" font-size="11.00">ImportZip</text>
</g>
<!-- \\Elabftw\\Elabftw\\ImportZip&#45;&gt;\\Elabftw\\Elabftw\\Import -->
<g id="edge11" class="edge"><title>\\Elabftw\\Elabftw\\ImportZip&#45;&gt;\\Elabftw\\Elabftw\\Import</title>
<path fill="none" stroke="black" d="M204.69,-416.811C179.867,-408.832 146.194,-398.009 118.918,-389.241"/>
<polygon fill="none" stroke="black" points="119.777,-385.841 109.186,-386.113 117.635,-392.506 119.777,-385.841"/>
</g>
<!-- \\Elabftw\\Elabftw\\Email -->
<g id="node31" class="node"><title>\\Elabftw\\Elabftw\\Email</title>
<polygon fill="none" stroke="black" points="267.5,-824 213.5,-824 213.5,-788 267.5,-788 267.5,-824"/>
<text text-anchor="middle" x="240.5" y="-803.2" font-family="Courier,monospace" font-size="11.00">Email</text>
</g>
<!-- \\Elabftw\\Elabftw\\MakeCsv -->
<g id="node32" class="node"><title>\\Elabftw\\Elabftw\\MakeCsv</title>
<polygon fill="none" stroke="black" points="270,-122 211,-122 211,-86 270,-86 270,-122"/>
<text text-anchor="middle" x="240.5" y="-101.2" font-family="Courier,monospace" font-size="11.00">MakeCsv</text>
</g>
<!-- \\Elabftw\\Elabftw\\MakeCsv&#45;&gt;\\Elabftw\\Elabftw\\Make -->
<g id="edge12" class="edge"><title>\\Elabftw\\Elabftw\\MakeCsv&#45;&gt;\\Elabftw\\Elabftw\\Make</title>
<path fill="none" stroke="black" d="M210.62,-113.283C185.418,-121.384 148.364,-133.294 118.833,-142.786"/>
<polygon fill="none" stroke="black" points="117.584,-139.511 109.135,-145.903 119.726,-146.175 117.584,-139.511"/>
</g>
<!-- \\Elabftw\\Elabftw\\BannedUsers -->
<g id="node33" class="node"><title>\\Elabftw\\Elabftw\\BannedUsers</title>
<polygon fill="none" stroke="black" points="282,-716 199,-716 199,-680 282,-680 282,-716"/>
<text text-anchor="middle" x="240.5" y="-695.2" font-family="Courier,monospace" font-size="11.00">BannedUsers</text>
</g>
<!-- \\Elabftw\\Elabftw\\Uploads -->
<g id="node34" class="node"><title>\\Elabftw\\Elabftw\\Uploads</title>
<polygon fill="none" stroke="black" points="270,-1850 211,-1850 211,-1814 270,-1814 270,-1850"/>
<text text-anchor="middle" x="240.5" y="-1829.2" font-family="Courier,monospace" font-size="11.00">Uploads</text>
</g>
<!-- \\Elabftw\\Elabftw\\Uploads&#45;&gt;\\Elabftw\\Elabftw\\Entity -->
<g id="edge13" class="edge"><title>\\Elabftw\\Elabftw\\Uploads&#45;&gt;\\Elabftw\\Elabftw\\Entity</title>
<path fill="none" stroke="black" d="M210.934,-1820.22C201.216,-1815.85 190.432,-1810.59 181,-1805 152.62,-1788.19 122.659,-1765.65 101.264,-1748.62"/>
<polygon fill="none" stroke="black" points="103.208,-1745.69 93.2213,-1742.15 98.8216,-1751.15 103.208,-1745.69"/>
</g>
<!-- \\Elabftw\\Elabftw\\TeamGroups -->
<g id="node35" class="node"><title>\\Elabftw\\Elabftw\\TeamGroups</title>
<polygon fill="none" stroke="black" points="279,-608 202,-608 202,-572 279,-572 279,-608"/>
<text text-anchor="middle" x="240.5" y="-587.2" font-family="Courier,monospace" font-size="11.00">TeamGroups</text>
</g>
<!-- \\Elabftw\\Elabftw\\MakeZip -->
<g id="node36" class="node"><title>\\Elabftw\\Elabftw\\MakeZip</title>
<polygon fill="none" stroke="black" points="270,-176 211,-176 211,-140 270,-140 270,-176"/>
<text text-anchor="middle" x="240.5" y="-155.2" font-family="Courier,monospace" font-size="11.00">MakeZip</text>
</g>
<!-- \\Elabftw\\Elabftw\\MakeZip&#45;&gt;\\Elabftw\\Elabftw\\Make -->
<g id="edge14" class="edge"><title>\\Elabftw\\Elabftw\\MakeZip&#45;&gt;\\Elabftw\\Elabftw\\Make</title>
<path fill="none" stroke="black" d="M210.62,-158C185.527,-158 148.686,-158 119.219,-158"/>
<polygon fill="none" stroke="black" points="119.135,-154.5 109.135,-158 119.135,-161.5 119.135,-154.5"/>
</g>
<!-- \\Elabftw\\Elabftw\\DatabaseView -->
<g id="node37" class="node"><title>\\Elabftw\\Elabftw\\DatabaseView</title>
<polygon fill="none" stroke="black" points="285,-500 196,-500 196,-464 285,-464 285,-500"/>
<text text-anchor="middle" x="240.5" y="-479.2" font-family="Courier,monospace" font-size="11.00">DatabaseView</text>
</g>
<!-- \\Elabftw\\Elabftw\\DatabaseView&#45;&gt;\\Elabftw\\Elabftw\\EntityView -->
<g id="edge15" class="edge"><title>\\Elabftw\\Elabftw\\DatabaseView&#45;&gt;\\Elabftw\\Elabftw\\EntityView</title>
<path fill="none" stroke="black" d="M195.799,-496.047C172.215,-503.627 143.077,-512.993 118.941,-520.751"/>
<polygon fill="none" stroke="black" points="117.727,-517.465 109.278,-523.857 119.869,-524.129 117.727,-517.465"/>
</g>
<!-- \\Elabftw\\Elabftw\\ImportCsv -->
<g id="node38" class="node"><title>\\Elabftw\\Elabftw\\ImportCsv</title>
<polygon fill="none" stroke="black" points="276,-338 205,-338 205,-302 276,-302 276,-338"/>
<text text-anchor="middle" x="240.5" y="-317.2" font-family="Courier,monospace" font-size="11.00">ImportCsv</text>
</g>
<!-- \\Elabftw\\Elabftw\\ImportCsv&#45;&gt;\\Elabftw\\Elabftw\\Import -->
<g id="edge16" class="edge"><title>\\Elabftw\\Elabftw\\ImportCsv&#45;&gt;\\Elabftw\\Elabftw\\Import</title>
<path fill="none" stroke="black" d="M204.69,-331.189C179.867,-339.168 146.194,-349.991 118.918,-358.759"/>
<polygon fill="none" stroke="black" points="117.635,-355.494 109.186,-361.887 119.777,-362.159 117.635,-355.494"/>
</g>
<!-- \\Elabftw\\Elabftw\\Sysconfig -->
<g id="node39" class="node"><title>\\Elabftw\\Elabftw\\Sysconfig</title>
<polygon fill="none" stroke="black" points="276,-392 205,-392 205,-356 276,-356 276,-392"/>
<text text-anchor="middle" x="240.5" y="-371.2" font-family="Courier,monospace" font-size="11.00">Sysconfig</text>
</g>
<!-- \\Elabftw\\Elabftw\\Tags -->
<g id="node40" class="node"><title>\\Elabftw\\Elabftw\\Tags</title>
<polygon fill="none" stroke="black" points="267.5,-1742 213.5,-1742 213.5,-1706 267.5,-1706 267.5,-1742"/>
<text text-anchor="middle" x="240.5" y="-1721.2" font-family="Courier,monospace" font-size="11.00">Tags</text>
</g>
<!-- \\Elabftw\\Elabftw\\Tags&#45;&gt;\\Elabftw\\Elabftw\\Entity -->
<g id="edge17" class="edge"><title>\\Elabftw\\Elabftw\\Tags&#45;&gt;\\Elabftw\\Elabftw\\Entity</title>
<path fill="none" stroke="black" d="M213.25,-1724C184.894,-1724 139.521,-1724 107.768,-1724"/>
<polygon fill="none" stroke="black" points="107.566,-1720.5 97.5657,-1724 107.566,-1727.5 107.566,-1720.5"/>
</g>
<!-- \\Elabftw\\Elabftw\\MakePdf -->
<g id="node41" class="node"><title>\\Elabftw\\Elabftw\\MakePdf</title>
<polygon fill="none" stroke="black" points="270,-284 211,-284 211,-248 270,-248 270,-284"/>
<text text-anchor="middle" x="240.5" y="-263.2" font-family="Courier,monospace" font-size="11.00">MakePdf</text>
</g>
<!-- \\Elabftw\\Elabftw\\MakePdf&#45;&gt;\\Elabftw\\Elabftw\\Make -->
<g id="edge18" class="edge"><title>\\Elabftw\\Elabftw\\MakePdf&#45;&gt;\\Elabftw\\Elabftw\\Make</title>
<path fill="none" stroke="black" d="M210.934,-254.224C201.216,-249.851 190.432,-244.586 181,-239 152.62,-222.194 122.659,-199.655 101.264,-182.62"/>
<polygon fill="none" stroke="black" points="103.208,-179.691 93.2213,-176.153 98.8216,-185.147 103.208,-179.691"/>
</g>
<!-- \\Elabftw\\Elabftw\\Update -->
<g id="node42" class="node"><title>\\Elabftw\\Elabftw\\Update</title>
<polygon fill="none" stroke="black" points="267.5,-230 213.5,-230 213.5,-194 267.5,-194 267.5,-230"/>
<text text-anchor="middle" x="240.5" y="-209.2" font-family="Courier,monospace" font-size="11.00">Update</text>
</g>
<!-- \\Elabftw\\Elabftw\\TrustedTimestamps -->
<g id="node43" class="node"><title>\\Elabftw\\Elabftw\\TrustedTimestamps</title>
<polygon fill="none" stroke="black" points="300,-1418 181,-1418 181,-1382 300,-1382 300,-1418"/>
<text text-anchor="middle" x="240.5" y="-1397.2" font-family="Courier,monospace" font-size="11.00">TrustedTimestamps</text>
</g>
<!-- \\Elabftw\\Elabftw\\TrustedTimestamps&#45;&gt;\\Elabftw\\Elabftw\\Entity -->
<g id="edge19" class="edge"><title>\\Elabftw\\Elabftw\\TrustedTimestamps&#45;&gt;\\Elabftw\\Elabftw\\Entity</title>
<path fill="none" stroke="black" d="M191.606,-1418.02C187.728,-1420.65 184.112,-1423.63 181,-1427 107.956,-1506.07 82.5844,-1638.02 74.6956,-1695.63"/>
<polygon fill="none" stroke="black" points="71.1907,-1695.45 73.3802,-1705.81 78.133,-1696.34 71.1907,-1695.45"/>
</g>
<!-- \\Elabftw\\Elabftw\\Scheduler -->
<g id="node44" class="node"><title>\\Elabftw\\Elabftw\\Scheduler</title>
<polygon fill="none" stroke="black" points="276,-932 205,-932 205,-896 276,-896 276,-932"/>
<text text-anchor="middle" x="240.5" y="-911.2" font-family="Courier,monospace" font-size="11.00">Scheduler</text>
</g>
<!-- \\Elabftw\\Elabftw\\Scheduler&#45;&gt;\\Elabftw\\Elabftw\\Entity -->
<g id="edge20" class="edge"><title>\\Elabftw\\Elabftw\\Scheduler&#45;&gt;\\Elabftw\\Elabftw\\Entity</title>
<path fill="none" stroke="black" d="M204.872,-923.275C195.813,-927.308 186.935,-933.007 181,-941 89.5594,-1064.16 74.3204,-1569.1 71.925,-1695.31"/>
<polygon fill="none" stroke="black" points="68.4191,-1695.62 71.7415,-1705.68 75.418,-1695.74 68.4191,-1695.62"/>
</g>
<!-- \\Elabftw\\Elabftw\\Logs -->
<g id="node45" class="node"><title>\\Elabftw\\Elabftw\\Logs</title>
<polygon fill="none" stroke="black" points="267.5,-68 213.5,-68 213.5,-32 267.5,-32 267.5,-68"/>
<text text-anchor="middle" x="240.5" y="-47.2" font-family="Courier,monospace" font-size="11.00">Logs</text>
</g>
</g>
</svg>
