<?xml version="1.0" encoding="UTF-8" standalone="no"?>
<!DOCTYPE svg PUBLIC "-//W3C//DTD SVG 1.1//EN"
 "http://www.w3.org/Graphics/SVG/1.1/DTD/svg11.dtd">
<!-- Generated by graphviz version 2.38.0 (20140413.2041)
 -->
<!-- Title: G Pages: 1 -->
<svg width="485pt" height="1788pt"
 viewBox="0.00 0.00 485.00 1788.00" xmlns="http://www.w3.org/2000/svg" xmlns:xlink="http://www.w3.org/1999/xlink">
<g id="graph0" class="graph" transform="scale(1 1) rotate(0) translate(4 1784)">
<title>G</title>
<polygon fill="white" stroke="none" points="-4,4 -4,-1784 481,-1784 481,4 -4,4"/>
<g id="clust1" class="cluster"><title>cluster_Global</title>
<path fill="none" stroke="gray" d="M20,-8C20,-8 457,-8 457,-8 463,-8 469,-14 469,-20 469,-20 469,-1760 469,-1760 469,-1766 463,-1772 457,-1772 457,-1772 20,-1772 20,-1772 14,-1772 8,-1766 8,-1760 8,-1760 8,-20 8,-20 8,-14 14,-8 20,-8"/>
<text text-anchor="middle" x="238.5" y="-1759.2" font-family="Times,serif" font-size="11.00" fill="gray">Global</text>
</g>
<g id="clust2" class="cluster"><title>cluster_\Elabftw</title>
<path fill="none" stroke="gray" d="M28,-16C28,-16 449,-16 449,-16 455,-16 461,-22 461,-28 461,-28 461,-1732 461,-1732 461,-1738 455,-1744 449,-1744 449,-1744 28,-1744 28,-1744 22,-1744 16,-1738 16,-1732 16,-1732 16,-28 16,-28 16,-22 22,-16 28,-16"/>
<text text-anchor="middle" x="238.5" y="-1731.2" font-family="Times,serif" font-size="11.00" fill="gray">Elabftw</text>
</g>
<g id="clust3" class="cluster"><title>cluster_\Elabftw\Elabftw</title>
<path fill="none" stroke="gray" d="M36,-24C36,-24 441,-24 441,-24 447,-24 453,-30 453,-36 453,-36 453,-1704 453,-1704 453,-1710 447,-1716 441,-1716 441,-1716 36,-1716 36,-1716 30,-1716 24,-1710 24,-1704 24,-1704 24,-36 24,-36 24,-30 30,-24 36,-24"/>
<text text-anchor="middle" x="238.5" y="-1703.2" font-family="Times,serif" font-size="11.00" fill="gray">Elabftw</text>
</g>
<!-- \\Elabftw\\Elabftw\\Database -->
<g id="node1" class="node"><title>\\Elabftw\\Elabftw\\Database</title>
<polygon fill="none" stroke="black" points="415,-662 344,-662 344,-626 415,-626 415,-662"/>
<text text-anchor="middle" x="379.5" y="-641.2" font-family="Courier,monospace" font-size="11.00">Database</text>
</g>
<!-- \\Elabftw\\Elabftw\\Entity -->
<g id="node14" class="node"><title>\\Elabftw\\Elabftw\\Entity</title>
<polygon fill="none" stroke="black" points="228.5,-770 171.5,-770 171.5,-734 228.5,-734 228.5,-770"/>
<text text-anchor="middle" x="200" y="-749.2" font-family="Courier,monospace" font-size="11.00">Entity</text>
</g>
<!-- \\Elabftw\\Elabftw\\Database&#45;&gt;\\Elabftw\\Elabftw\\Entity -->
<g id="edge1" class="edge"><title>\\Elabftw\\Elabftw\\Database&#45;&gt;\\Elabftw\\Elabftw\\Entity</title>
<path fill="none" stroke="black" d="M343.676,-656.894C333.864,-660.975 323.328,-665.793 314,-671 284.286,-687.589 253.027,-710.474 230.938,-727.688"/>
<polygon fill="none" stroke="black" points="228.634,-725.047 222.943,-733.983 232.965,-730.547 228.634,-725.047"/>
</g>
<!-- \\Elabftw\\Elabftw\\MolViewer -->
<g id="node2" class="node"><title>\\Elabftw\\Elabftw\\MolViewer</title>
<polygon fill="none" stroke="black" points="418,-1634 341,-1634 341,-1598 418,-1598 418,-1634"/>
<text text-anchor="middle" x="379.5" y="-1613.2" font-family="Courier,monospace" font-size="11.00">MolViewer</text>
</g>
<!-- \\Elabftw\\Elabftw\\Status -->
<g id="node3" class="node"><title>\\Elabftw\\Elabftw\\Status</title>
<polygon fill="none" stroke="black" points="228.5,-1688 171.5,-1688 171.5,-1652 228.5,-1652 228.5,-1688"/>
<text text-anchor="middle" x="200" y="-1667.2" font-family="Courier,monospace" font-size="11.00">Status</text>
</g>
<!-- \\Elabftw\\Elabftw\\Panel -->
<g id="node22" class="node"><title>\\Elabftw\\Elabftw\\Panel</title>
<polygon fill="none" stroke="black" points="86,-1526 32,-1526 32,-1490 86,-1490 86,-1526"/>
<text text-anchor="middle" x="59" y="-1505.2" font-family="Courier,monospace" font-size="11.00">Panel</text>
</g>
<!-- \\Elabftw\\Elabftw\\Status&#45;&gt;\\Elabftw\\Elabftw\\Panel -->
<g id="edge2" class="edge"><title>\\Elabftw\\Elabftw\\Status&#45;&gt;\\Elabftw\\Elabftw\\Panel</title>
<path fill="none" stroke="black" d="M171.491,-1653.88C166.762,-1650.56 162.067,-1646.89 158,-1643 123.61,-1610.14 93.013,-1563.88 75.4947,-1534.94"/>
<polygon fill="none" stroke="black" points="78.4054,-1532.99 70.2783,-1526.19 72.3928,-1536.57 78.4054,-1532.99"/>
</g>
<!-- \\Elabftw\\Elabftw\\Users -->
<g id="node4" class="node"><title>\\Elabftw\\Elabftw\\Users</title>
<polygon fill="none" stroke="black" points="406.5,-1688 352.5,-1688 352.5,-1652 406.5,-1652 406.5,-1688"/>
<text text-anchor="middle" x="379.5" y="-1667.2" font-family="Courier,monospace" font-size="11.00">Users</text>
</g>
<!-- \\Elabftw\\Elabftw\\Auth -->
<g id="node7" class="node"><title>\\Elabftw\\Elabftw\\Auth</title>
<polygon fill="none" stroke="black" points="227,-1634 173,-1634 173,-1598 227,-1598 227,-1634"/>
<text text-anchor="middle" x="200" y="-1613.2" font-family="Courier,monospace" font-size="11.00">Auth</text>
</g>
<!-- \\Elabftw\\Elabftw\\Users&#45;&gt;\\Elabftw\\Elabftw\\Auth -->
<g id="edge3" class="edge"><title>\\Elabftw\\Elabftw\\Users&#45;&gt;\\Elabftw\\Elabftw\\Auth</title>
<path fill="none" stroke="black" d="M352.309,-1662.03C321.677,-1652.71 270.815,-1637.24 236.615,-1626.83"/>
<polygon fill="none" stroke="black" points="237.595,-1623.47 227.009,-1623.91 235.557,-1630.17 237.595,-1623.47"/>
</g>
<!-- \\Elabftw\\Elabftw\\LegacyCrypto -->
<g id="node5" class="node"><title>\\Elabftw\\Elabftw\\LegacyCrypto</title>
<polygon fill="none" stroke="black" points="428.5,-1526 330.5,-1526 330.5,-1490 428.5,-1490 428.5,-1526"/>
<text text-anchor="middle" x="379.5" y="-1505.2" font-family="Courier,monospace" font-size="11.00">LegacyCrypto</text>
</g>
<!-- \\Elabftw\\Elabftw\\Links -->
<g id="node6" class="node"><title>\\Elabftw\\Elabftw\\Links</title>
<polygon fill="none" stroke="black" points="406.5,-1472 352.5,-1472 352.5,-1436 406.5,-1436 406.5,-1472"/>
<text text-anchor="middle" x="379.5" y="-1451.2" font-family="Courier,monospace" font-size="11.00">Links</text>
</g>
<!-- \\Elabftw\\Elabftw\\Comments -->
<g id="node8" class="node"><title>\\Elabftw\\Elabftw\\Comments</title>
<polygon fill="none" stroke="black" points="415,-1364 344,-1364 344,-1328 415,-1328 415,-1364"/>
<text text-anchor="middle" x="379.5" y="-1343.2" font-family="Courier,monospace" font-size="11.00">Comments</text>
</g>
<!-- \\Elabftw\\Elabftw\\Comments&#45;&gt;\\Elabftw\\Elabftw\\Entity -->
<g id="edge4" class="edge"><title>\\Elabftw\\Elabftw\\Comments&#45;&gt;\\Elabftw\\Elabftw\\Entity</title>
<path fill="none" stroke="black" d="M343.727,-1338.36C332.749,-1334.32 321.532,-1328.21 314,-1319 244.795,-1234.38 211.551,-883.294 203.173,-780.436"/>
<polygon fill="none" stroke="black" points="206.641,-779.896 202.356,-770.206 199.664,-780.453 206.641,-779.896"/>
</g>
<!-- \\Elabftw\\Elabftw\\Teams -->
<g id="node9" class="node"><title>\\Elabftw\\Elabftw\\Teams</title>
<polygon fill="none" stroke="black" points="227,-1526 173,-1526 173,-1490 227,-1490 227,-1526"/>
<text text-anchor="middle" x="200" y="-1505.2" font-family="Courier,monospace" font-size="11.00">Teams</text>
</g>
<!-- \\Elabftw\\Elabftw\\Teams&#45;&gt;\\Elabftw\\Elabftw\\Panel -->
<g id="edge5" class="edge"><title>\\Elabftw\\Elabftw\\Teams&#45;&gt;\\Elabftw\\Elabftw\\Panel</title>
<path fill="none" stroke="black" d="M172.855,-1508C151.208,-1508 120.217,-1508 96.1859,-1508"/>
<polygon fill="none" stroke="black" points="96.0276,-1504.5 86.0276,-1508 96.0276,-1511.5 96.0276,-1504.5"/>
</g>
<!-- \\Elabftw\\Elabftw\\Import -->
<g id="node10" class="node"><title>\\Elabftw\\Elabftw\\Import</title>
<polygon fill="none" stroke="black" points="242,-581 158,-581 158,-545 242,-545 242,-581"/>
<text text-anchor="start" x="166" y="-566.2" font-family="Courier,monospace" font-size="11.00">«abstract»</text>
<text text-anchor="start" x="179.5" y="-554.2" font-family="Courier,monospace" font-size="11.00">Import</text>
</g>
<!-- \\Elabftw\\Elabftw\\ExperimentsView -->
<g id="node11" class="node"><title>\\Elabftw\\Elabftw\\ExperimentsView</title>
<polygon fill="none" stroke="black" points="438.5,-230 320.5,-230 320.5,-194 438.5,-194 438.5,-230"/>
<text text-anchor="middle" x="379.5" y="-209.2" font-family="Courier,monospace" font-size="11.00">ExperimentsView</text>
</g>
<!-- \\Elabftw\\Elabftw\\EntityView -->
<g id="node41" class="node"><title>\\Elabftw\\Elabftw\\EntityView</title>
<polygon fill="none" stroke="black" points="242,-230 158,-230 158,-194 242,-194 242,-230"/>
<text text-anchor="middle" x="200" y="-209.2" font-family="Courier,monospace" font-size="11.00">EntityView</text>
</g>
<!-- \\Elabftw\\Elabftw\\ExperimentsView&#45;&gt;\\Elabftw\\Elabftw\\EntityView -->
<g id="edge6" class="edge"><title>\\Elabftw\\Elabftw\\ExperimentsView&#45;&gt;\\Elabftw\\Elabftw\\EntityView</title>
<path fill="none" stroke="black" d="M320.38,-212C298.397,-212 273.557,-212 252.25,-212"/>
<polygon fill="none" stroke="black" points="252.102,-208.5 242.102,-212 252.102,-215.5 252.102,-208.5"/>
</g>
<!-- \\Elabftw\\Elabftw\\Make -->
<g id="node12" class="node"><title>\\Elabftw\\Elabftw\\Make</title>
<polygon fill="none" stroke="black" points="242,-500 158,-500 158,-464 242,-464 242,-500"/>
<text text-anchor="start" x="166" y="-485.2" font-family="Courier,monospace" font-size="11.00">«abstract»</text>
<text text-anchor="start" x="186" y="-473.2" font-family="Courier,monospace" font-size="11.00">Make</text>
</g>
<!-- \\Elabftw\\Elabftw\\TeamGroupsView -->
<g id="node13" class="node"><title>\\Elabftw\\Elabftw\\TeamGroupsView</title>
<polygon fill="none" stroke="black" points="435,-1310 324,-1310 324,-1274 435,-1274 435,-1310"/>
<text text-anchor="middle" x="379.5" y="-1289.2" font-family="Courier,monospace" font-size="11.00">TeamGroupsView</text>
</g>
<!-- \\Elabftw\\Elabftw\\Templates -->
<g id="node15" class="node"><title>\\Elabftw\\Elabftw\\Templates</title>
<polygon fill="none" stroke="black" points="418,-1256 341,-1256 341,-1220 418,-1220 418,-1256"/>
<text text-anchor="middle" x="379.5" y="-1235.2" font-family="Courier,monospace" font-size="11.00">Templates</text>
</g>
<!-- \\Elabftw\\Elabftw\\Revisions -->
<g id="node16" class="node"><title>\\Elabftw\\Elabftw\\Revisions</title>
<polygon fill="none" stroke="black" points="418,-1202 341,-1202 341,-1166 418,-1166 418,-1202"/>
<text text-anchor="middle" x="379.5" y="-1181.2" font-family="Courier,monospace" font-size="11.00">Revisions</text>
</g>
<!-- \\Elabftw\\Elabftw\\CryptoWrapper -->
<g id="node17" class="node"><title>\\Elabftw\\Elabftw\\CryptoWrapper</title>
<polygon fill="none" stroke="black" points="431.5,-1148 327.5,-1148 327.5,-1112 431.5,-1112 431.5,-1148"/>
<text text-anchor="middle" x="379.5" y="-1127.2" font-family="Courier,monospace" font-size="11.00">CryptoWrapper</text>
</g>
<!-- \\Elabftw\\Elabftw\\ItemsTypesView -->
<g id="node18" class="node"><title>\\Elabftw\\Elabftw\\ItemsTypesView</title>
<polygon fill="none" stroke="black" points="435,-1094 324,-1094 324,-1058 435,-1058 435,-1094"/>
<text text-anchor="middle" x="379.5" y="-1073.2" font-family="Courier,monospace" font-size="11.00">ItemsTypesView</text>
</g>
<!-- \\Elabftw\\Elabftw\\StatusView -->
<g id="node19" class="node"><title>\\Elabftw\\Elabftw\\StatusView</title>
<polygon fill="none" stroke="black" points="421.5,-1040 337.5,-1040 337.5,-1004 421.5,-1004 421.5,-1040"/>
<text text-anchor="middle" x="379.5" y="-1019.2" font-family="Courier,monospace" font-size="11.00">StatusView</text>
</g>
<!-- \\Elabftw\\Elabftw\\SysconfigView -->
<g id="node20" class="node"><title>\\Elabftw\\Elabftw\\SysconfigView</title>
<polygon fill="none" stroke="black" points="431.5,-986 327.5,-986 327.5,-950 431.5,-950 431.5,-986"/>
<text text-anchor="middle" x="379.5" y="-965.2" font-family="Courier,monospace" font-size="11.00">SysconfigView</text>
</g>
<!-- \\Elabftw\\Elabftw\\Formkey -->
<g id="node21" class="node"><title>\\Elabftw\\Elabftw\\Formkey</title>
<polygon fill="none" stroke="black" points="411.5,-932 347.5,-932 347.5,-896 411.5,-896 411.5,-932"/>
<text text-anchor="middle" x="379.5" y="-911.2" font-family="Courier,monospace" font-size="11.00">Formkey</text>
</g>
<!-- \\Elabftw\\Elabftw\\ItemsTypes -->
<g id="node23" class="node"><title>\\Elabftw\\Elabftw\\ItemsTypes</title>
<polygon fill="none" stroke="black" points="242,-1580 158,-1580 158,-1544 242,-1544 242,-1580"/>
<text text-anchor="middle" x="200" y="-1559.2" font-family="Courier,monospace" font-size="11.00">ItemsTypes</text>
</g>
<!-- \\Elabftw\\Elabftw\\ItemsTypes&#45;&gt;\\Elabftw\\Elabftw\\Panel -->
<g id="edge7" class="edge"><title>\\Elabftw\\Elabftw\\ItemsTypes&#45;&gt;\\Elabftw\\Elabftw\\Panel</title>
<path fill="none" stroke="black" d="M157.672,-1545.94C137.909,-1538.27 114.488,-1529.17 95.5354,-1521.81"/>
<polygon fill="none" stroke="black" points="96.6635,-1518.49 86.0747,-1518.13 94.1286,-1525.01 96.6635,-1518.49"/>
</g>
<!-- \\Elabftw\\Elabftw\\Tools -->
<g id="node24" class="node"><title>\\Elabftw\\Elabftw\\Tools</title>
<polygon fill="none" stroke="black" points="406.5,-878 352.5,-878 352.5,-842 406.5,-842 406.5,-878"/>
<text text-anchor="middle" x="379.5" y="-857.2" font-family="Courier,monospace" font-size="11.00">Tools</text>
</g>
<!-- \\Elabftw\\Elabftw\\Db -->
<g id="node25" class="node"><title>\\Elabftw\\Elabftw\\Db</title>
<polygon fill="none" stroke="black" points="406.5,-824 352.5,-824 352.5,-788 406.5,-788 406.5,-824"/>
<text text-anchor="middle" x="379.5" y="-803.2" font-family="Courier,monospace" font-size="11.00">Db</text>
</g>
<!-- \\Elabftw\\Elabftw\\TeamsView -->
<g id="node26" class="node"><title>\\Elabftw\\Elabftw\\TeamsView</title>
<polygon fill="none" stroke="black" points="418,-1580 341,-1580 341,-1544 418,-1544 418,-1580"/>
<text text-anchor="middle" x="379.5" y="-1559.2" font-family="Courier,monospace" font-size="11.00">TeamsView</text>
</g>
<!-- \\Elabftw\\Elabftw\\TeamsView&#45;&gt;\\Elabftw\\Elabftw\\Teams -->
<g id="edge8" class="edge"><title>\\Elabftw\\Elabftw\\TeamsView&#45;&gt;\\Elabftw\\Elabftw\\Teams</title>
<path fill="none" stroke="black" d="M340.857,-1550.55C310.137,-1541.2 267.024,-1528.09 236.81,-1518.89"/>
<polygon fill="none" stroke="black" points="237.681,-1515.5 227.095,-1515.94 235.644,-1522.2 237.681,-1515.5"/>
</g>
<!-- \\Elabftw\\Elabftw\\Experiments -->
<g id="node27" class="node"><title>\\Elabftw\\Elabftw\\Experiments</title>
<polygon fill="none" stroke="black" points="425,-716 334,-716 334,-680 425,-680 425,-716"/>
<text text-anchor="middle" x="379.5" y="-695.2" font-family="Courier,monospace" font-size="11.00">Experiments</text>
</g>
<!-- \\Elabftw\\Elabftw\\Experiments&#45;&gt;\\Elabftw\\Elabftw\\Entity -->
<g id="edge9" class="edge"><title>\\Elabftw\\Elabftw\\Experiments&#45;&gt;\\Elabftw\\Elabftw\\Entity</title>
<path fill="none" stroke="black" d="M333.709,-711.626C304.257,-720.587 266.163,-732.176 238.348,-740.638"/>
<polygon fill="none" stroke="black" points="237.149,-737.344 228.6,-743.603 239.186,-744.041 237.149,-737.344"/>
</g>
<!-- \\Elabftw\\Elabftw\\ImportZip -->
<g id="node28" class="node"><title>\\Elabftw\\Elabftw\\ImportZip</title>
<polygon fill="none" stroke="black" points="418,-608 341,-608 341,-572 418,-572 418,-608"/>
<text text-anchor="middle" x="379.5" y="-587.2" font-family="Courier,monospace" font-size="11.00">ImportZip</text>
</g>
<!-- \\Elabftw\\Elabftw\\ImportZip&#45;&gt;\\Elabftw\\Elabftw\\Import -->
<g id="edge10" class="edge"><title>\\Elabftw\\Elabftw\\ImportZip&#45;&gt;\\Elabftw\\Elabftw\\Import</title>
<path fill="none" stroke="black" d="M340.857,-584.274C315.117,-580.359 280.676,-575.12 252.413,-570.821"/>
<polygon fill="none" stroke="black" points="252.721,-567.327 242.308,-569.283 251.668,-574.248 252.721,-567.327"/>
</g>
<!-- \\Elabftw\\Elabftw\\MakeCsv -->
<g id="node29" class="node"><title>\\Elabftw\\Elabftw\\MakeCsv</title>
<polygon fill="none" stroke="black" points="411.5,-500 347.5,-500 347.5,-464 411.5,-464 411.5,-500"/>
<text text-anchor="middle" x="379.5" y="-479.2" font-family="Courier,monospace" font-size="11.00">MakeCsv</text>
</g>
<!-- \\Elabftw\\Elabftw\\MakeCsv&#45;&gt;\\Elabftw\\Elabftw\\Make -->
<g id="edge11" class="edge"><title>\\Elabftw\\Elabftw\\MakeCsv&#45;&gt;\\Elabftw\\Elabftw\\Make</title>
<path fill="none" stroke="black" d="M347.175,-482C320.887,-482 282.818,-482 252.12,-482"/>
<polygon fill="none" stroke="black" points="252.02,-478.5 242.02,-482 252.02,-485.5 252.02,-478.5"/>
</g>
<!-- \\Elabftw\\Elabftw\\Uploads -->
<g id="node30" class="node"><title>\\Elabftw\\Elabftw\\Uploads</title>
<polygon fill="none" stroke="black" points="411.5,-1418 347.5,-1418 347.5,-1382 411.5,-1382 411.5,-1418"/>
<text text-anchor="middle" x="379.5" y="-1397.2" font-family="Courier,monospace" font-size="11.00">Uploads</text>
</g>
<!-- \\Elabftw\\Elabftw\\Uploads&#45;&gt;\\Elabftw\\Elabftw\\Entity -->
<g id="edge12" class="edge"><title>\\Elabftw\\Elabftw\\Uploads&#45;&gt;\\Elabftw\\Elabftw\\Entity</title>
<path fill="none" stroke="black" d="M347.323,-1393.72C335.215,-1389.74 322.291,-1383.31 314,-1373 238.571,-1279.18 209.382,-889.004 202.622,-780.252"/>
<polygon fill="none" stroke="black" points="206.103,-779.836 202.003,-770.066 199.116,-780.26 206.103,-779.836"/>
</g>
<!-- \\Elabftw\\Elabftw\\TeamGroups -->
<g id="node31" class="node"><title>\\Elabftw\\Elabftw\\TeamGroups</title>
<polygon fill="none" stroke="black" points="242,-1472 158,-1472 158,-1436 242,-1436 242,-1472"/>
<text text-anchor="middle" x="200" y="-1451.2" font-family="Courier,monospace" font-size="11.00">TeamGroups</text>
</g>
<!-- \\Elabftw\\Elabftw\\TeamGroups&#45;&gt;\\Elabftw\\Elabftw\\Panel -->
<g id="edge13" class="edge"><title>\\Elabftw\\Elabftw\\TeamGroups&#45;&gt;\\Elabftw\\Elabftw\\Panel</title>
<path fill="none" stroke="black" d="M157.672,-1470.06C137.909,-1477.73 114.488,-1486.83 95.5354,-1494.19"/>
<polygon fill="none" stroke="black" points="94.1286,-1490.99 86.0747,-1497.87 96.6635,-1497.51 94.1286,-1490.99"/>
</g>
<!-- \\Elabftw\\Elabftw\\MakeZip -->
<g id="node32" class="node"><title>\\Elabftw\\Elabftw\\MakeZip</title>
<polygon fill="none" stroke="black" points="411.5,-446 347.5,-446 347.5,-410 411.5,-410 411.5,-446"/>
<text text-anchor="middle" x="379.5" y="-425.2" font-family="Courier,monospace" font-size="11.00">MakeZip</text>
</g>
<!-- \\Elabftw\\Elabftw\\MakeZip&#45;&gt;\\Elabftw\\Elabftw\\Make -->
<g id="edge14" class="edge"><title>\\Elabftw\\Elabftw\\MakeZip&#45;&gt;\\Elabftw\\Elabftw\\Make</title>
<path fill="none" stroke="black" d="M347.175,-437.53C320.772,-445.562 282.486,-457.21 251.72,-466.57"/>
<polygon fill="none" stroke="black" points="250.568,-463.262 242.02,-469.521 252.606,-469.959 250.568,-463.262"/>
</g>
<!-- \\Elabftw\\Elabftw\\DatabaseView -->
<g id="node33" class="node"><title>\\Elabftw\\Elabftw\\DatabaseView</title>
<polygon fill="none" stroke="black" points="428.5,-284 330.5,-284 330.5,-248 428.5,-248 428.5,-284"/>
<text text-anchor="middle" x="379.5" y="-263.2" font-family="Courier,monospace" font-size="11.00">DatabaseView</text>
</g>
<!-- \\Elabftw\\Elabftw\\DatabaseView&#45;&gt;\\Elabftw\\Elabftw\\EntityView -->
<g id="edge15" class="edge"><title>\\Elabftw\\Elabftw\\DatabaseView&#45;&gt;\\Elabftw\\Elabftw\\EntityView</title>
<path fill="none" stroke="black" d="M330.466,-251.387C306.084,-243.969 276.468,-234.959 251.718,-227.43"/>
<polygon fill="none" stroke="black" points="252.729,-224.079 242.143,-224.517 250.691,-230.776 252.729,-224.079"/>
</g>
<!-- \\Elabftw\\Elabftw\\ImportCsv -->
<g id="node34" class="node"><title>\\Elabftw\\Elabftw\\ImportCsv</title>
<polygon fill="none" stroke="black" points="418,-554 341,-554 341,-518 418,-518 418,-554"/>
<text text-anchor="middle" x="379.5" y="-533.2" font-family="Courier,monospace" font-size="11.00">ImportCsv</text>
</g>
<!-- \\Elabftw\\Elabftw\\ImportCsv&#45;&gt;\\Elabftw\\Elabftw\\Import -->
<g id="edge16" class="edge"><title>\\Elabftw\\Elabftw\\ImportCsv&#45;&gt;\\Elabftw\\Elabftw\\Import</title>
<path fill="none" stroke="black" d="M340.857,-541.726C315.117,-545.641 280.676,-550.88 252.413,-555.179"/>
<polygon fill="none" stroke="black" points="251.668,-551.752 242.308,-556.717 252.721,-558.673 251.668,-551.752"/>
</g>
<!-- \\Elabftw\\Elabftw\\Sysconfig -->
<g id="node35" class="node"><title>\\Elabftw\\Elabftw\\Sysconfig</title>
<polygon fill="none" stroke="black" points="418,-338 341,-338 341,-302 418,-302 418,-338"/>
<text text-anchor="middle" x="379.5" y="-317.2" font-family="Courier,monospace" font-size="11.00">Sysconfig</text>
</g>
<!-- \\Elabftw\\Elabftw\\Tags -->
<g id="node36" class="node"><title>\\Elabftw\\Elabftw\\Tags</title>
<polygon fill="none" stroke="black" points="406.5,-770 352.5,-770 352.5,-734 406.5,-734 406.5,-770"/>
<text text-anchor="middle" x="379.5" y="-749.2" font-family="Courier,monospace" font-size="11.00">Tags</text>
</g>
<!-- \\Elabftw\\Elabftw\\Tags&#45;&gt;\\Elabftw\\Elabftw\\Entity -->
<g id="edge17" class="edge"><title>\\Elabftw\\Elabftw\\Tags&#45;&gt;\\Elabftw\\Elabftw\\Entity</title>
<path fill="none" stroke="black" d="M352.309,-752C322.333,-752 272.984,-752 238.834,-752"/>
<polygon fill="none" stroke="black" points="238.762,-748.5 228.762,-752 238.762,-755.5 238.762,-748.5"/>
</g>
<!-- \\Elabftw\\Elabftw\\MakePdf -->
<g id="node37" class="node"><title>\\Elabftw\\Elabftw\\MakePdf</title>
<polygon fill="none" stroke="black" points="411.5,-392 347.5,-392 347.5,-356 411.5,-356 411.5,-392"/>
<text text-anchor="middle" x="379.5" y="-371.2" font-family="Courier,monospace" font-size="11.00">MakePdf</text>
</g>
<!-- \\Elabftw\\Elabftw\\MakePdf&#45;&gt;\\Elabftw\\Elabftw\\Make -->
<g id="edge18" class="edge"><title>\\Elabftw\\Elabftw\\MakePdf&#45;&gt;\\Elabftw\\Elabftw\\Make</title>
<path fill="none" stroke="black" d="M347.246,-385.272C336.439,-389.638 324.43,-395.029 314,-401 279.287,-420.874 274.719,-431.989 242,-455 240.562,-456.011 239.09,-457.035 237.598,-458.062"/>
<polygon fill="none" stroke="black" points="235.258,-455.42 228.943,-463.927 239.185,-461.215 235.258,-455.42"/>
</g>
<!-- \\Elabftw\\Elabftw\\Update -->
<g id="node38" class="node"><title>\\Elabftw\\Elabftw\\Update</title>
<polygon fill="none" stroke="black" points="408,-176 351,-176 351,-140 408,-140 408,-176"/>
<text text-anchor="middle" x="379.5" y="-155.2" font-family="Courier,monospace" font-size="11.00">Update</text>
</g>
<!-- \\Elabftw\\Elabftw\\TrustedTimestamps -->
<g id="node39" class="node"><title>\\Elabftw\\Elabftw\\TrustedTimestamps</title>
<polygon fill="none" stroke="black" points="445,-122 314,-122 314,-86 445,-86 445,-122"/>
<text text-anchor="middle" x="379.5" y="-101.2" font-family="Courier,monospace" font-size="11.00">TrustedTimestamps</text>
</g>
<!-- \\Elabftw\\Elabftw\\Logs -->
<g id="node40" class="node"><title>\\Elabftw\\Elabftw\\Logs</title>
<polygon fill="none" stroke="black" points="227,-446 173,-446 173,-410 227,-410 227,-446"/>
<text text-anchor="middle" x="200" y="-425.2" font-family="Courier,monospace" font-size="11.00">Logs</text>
</g>
<!-- \\Elabftw\\Elabftw\\Logs&#45;&gt;\\Elabftw\\Elabftw\\Panel -->
<g id="edge19" class="edge"><title>\\Elabftw\\Elabftw\\Logs&#45;&gt;\\Elabftw\\Elabftw\\Panel</title>
<path fill="none" stroke="black" d="M172.91,-440.159C167.096,-444.084 161.597,-449.008 158,-455 103.786,-545.316 68.0169,-1319.93 61.1908,-1479.37"/>
<polygon fill="none" stroke="black" points="57.6767,-1479.63 60.7495,-1489.77 64.6704,-1479.93 57.6767,-1479.63"/>
</g>
<!-- \\Elabftw\\Elabftw\\UploadsView -->
<g id="node42" class="node"><title>\\Elabftw\\Elabftw\\UploadsView</title>
<polygon fill="none" stroke="black" points="425,-68 334,-68 334,-32 425,-32 425,-68"/>
<text text-anchor="middle" x="379.5" y="-47.2" font-family="Courier,monospace" font-size="11.00">UploadsView</text>
</g>
<!-- \\Elabftw\\Elabftw\\UploadsView&#45;&gt;\\Elabftw\\Elabftw\\EntityView -->
<g id="edge20" class="edge"><title>\\Elabftw\\Elabftw\\UploadsView&#45;&gt;\\Elabftw\\Elabftw\\EntityView</title>
<path fill="none" stroke="black" d="M333.955,-65.3227C326.966,-68.6483 320.059,-72.5345 314,-77 272.973,-107.239 237.45,-155.362 217.667,-185.241"/>
<polygon fill="none" stroke="black" points="214.562,-183.597 212.045,-193.889 220.43,-187.413 214.562,-183.597"/>
</g>
</g>
</svg>
