<?xml version="1.0" encoding="UTF-8" standalone="no"?>
<!DOCTYPE svg PUBLIC "-//W3C//DTD SVG 1.1//EN"
 "http://www.w3.org/Graphics/SVG/1.1/DTD/svg11.dtd">
<!-- Generated by graphviz version 2.38.0 (20140413.2041)
 -->
<!-- Title: G Pages: 1 -->
<svg width="485pt" height="1788pt"
 viewBox="0.00 0.00 485.00 1788.00" xmlns="http://www.w3.org/2000/svg" xmlns:xlink="http://www.w3.org/1999/xlink">
<g id="graph0" class="graph" transform="scale(1 1) rotate(0) translate(4 1784)">
<title>G</title>
<polygon fill="white" stroke="none" points="-4,4 -4,-1784 481,-1784 481,4 -4,4"/>
<g id="clust1" class="cluster"><title>cluster_Global</title>
<path fill="none" stroke="gray" d="M20,-8C20,-8 457,-8 457,-8 463,-8 469,-14 469,-20 469,-20 469,-1760 469,-1760 469,-1766 463,-1772 457,-1772 457,-1772 20,-1772 20,-1772 14,-1772 8,-1766 8,-1760 8,-1760 8,-20 8,-20 8,-14 14,-8 20,-8"/>
<text text-anchor="middle" x="238.5" y="-1759.2" font-family="Times,serif" font-size="11.00" fill="gray">Global</text>
</g>
<g id="clust2" class="cluster"><title>cluster_\Elabftw</title>
<path fill="none" stroke="gray" d="M28,-16C28,-16 449,-16 449,-16 455,-16 461,-22 461,-28 461,-28 461,-1732 461,-1732 461,-1738 455,-1744 449,-1744 449,-1744 28,-1744 28,-1744 22,-1744 16,-1738 16,-1732 16,-1732 16,-28 16,-28 16,-22 22,-16 28,-16"/>
<text text-anchor="middle" x="238.5" y="-1731.2" font-family="Times,serif" font-size="11.00" fill="gray">Elabftw</text>
</g>
<g id="clust3" class="cluster"><title>cluster_\Elabftw\Elabftw</title>
<path fill="none" stroke="gray" d="M36,-24C36,-24 441,-24 441,-24 447,-24 453,-30 453,-36 453,-36 453,-1704 453,-1704 453,-1710 447,-1716 441,-1716 441,-1716 36,-1716 36,-1716 30,-1716 24,-1710 24,-1704 24,-1704 24,-36 24,-36 24,-30 30,-24 36,-24"/>
<text text-anchor="middle" x="238.5" y="-1703.2" font-family="Times,serif" font-size="11.00" fill="gray">Elabftw</text>
</g>
<!-- \\Elabftw\\Elabftw\\Database -->
<g id="node1" class="node"><title>\\Elabftw\\Elabftw\\Database</title>
<polygon fill="none" stroke="black" points="415,-662 344,-662 344,-626 415,-626 415,-662"/>
<text text-anchor="middle" x="379.5" y="-641.2" font-family="Courier,monospace" font-size="11.00">Database</text>
</g>
<!-- \\Elabftw\\Elabftw\\Entity -->
<g id="node14" class="node"><title>\\Elabftw\\Elabftw\\Entity</title>
<polygon fill="none" stroke="black" points="228.5,-662 171.5,-662 171.5,-626 228.5,-626 228.5,-662"/>
<text text-anchor="middle" x="200" y="-641.2" font-family="Courier,monospace" font-size="11.00">Entity</text>
</g>
<!-- \\Elabftw\\Elabftw\\Database&#45;&gt;\\Elabftw\\Elabftw\\Entity -->
<g id="edge1" class="edge"><title>\\Elabftw\\Elabftw\\Database&#45;&gt;\\Elabftw\\Elabftw\\Entity</title>
<path fill="none" stroke="black" d="M343.855,-644C313.58,-644 269.722,-644 238.602,-644"/>
<polygon fill="none" stroke="black" points="238.575,-640.5 228.575,-644 238.575,-647.5 238.575,-640.5"/>
</g>
<!-- \\Elabftw\\Elabftw\\MolViewer -->
<g id="node2" class="node"><title>\\Elabftw\\Elabftw\\MolViewer</title>
<polygon fill="none" stroke="black" points="418,-1634 341,-1634 341,-1598 418,-1598 418,-1634"/>
<text text-anchor="middle" x="379.5" y="-1613.2" font-family="Courier,monospace" font-size="11.00">MolViewer</text>
</g>
<!-- \\Elabftw\\Elabftw\\Status -->
<g id="node3" class="node"><title>\\Elabftw\\Elabftw\\Status</title>
<polygon fill="none" stroke="black" points="228.5,-1661 171.5,-1661 171.5,-1625 228.5,-1625 228.5,-1661"/>
<text text-anchor="middle" x="200" y="-1640.2" font-family="Courier,monospace" font-size="11.00">Status</text>
</g>
<!-- \\Elabftw\\Elabftw\\Panel -->
<g id="node22" class="node"><title>\\Elabftw\\Elabftw\\Panel</title>
<polygon fill="none" stroke="black" points="86,-1418 32,-1418 32,-1382 86,-1382 86,-1418"/>
<text text-anchor="middle" x="59" y="-1397.2" font-family="Courier,monospace" font-size="11.00">Panel</text>
</g>
<!-- \\Elabftw\\Elabftw\\Status&#45;&gt;\\Elabftw\\Elabftw\\Panel -->
<g id="edge2" class="edge"><title>\\Elabftw\\Elabftw\\Status&#45;&gt;\\Elabftw\\Elabftw\\Panel</title>
<path fill="none" stroke="black" d="M171.234,-1627.83C166.423,-1624.38 161.765,-1620.41 158,-1616 108.711,-1558.33 79.6098,-1471.8 67.1667,-1427.81"/>
<polygon fill="none" stroke="black" points="70.5197,-1426.81 64.4935,-1418.09 63.7702,-1428.66 70.5197,-1426.81"/>
</g>
<!-- \\Elabftw\\Elabftw\\Users -->
<g id="node4" class="node"><title>\\Elabftw\\Elabftw\\Users</title>
<polygon fill="none" stroke="black" points="406.5,-1688 352.5,-1688 352.5,-1652 406.5,-1652 406.5,-1688"/>
<text text-anchor="middle" x="379.5" y="-1667.2" font-family="Courier,monospace" font-size="11.00">Users</text>
</g>
<!-- \\Elabftw\\Elabftw\\Auth -->
<g id="node7" class="node"><title>\\Elabftw\\Elabftw\\Auth</title>
<polygon fill="none" stroke="black" points="227,-1607 173,-1607 173,-1571 227,-1571 227,-1607"/>
<text text-anchor="middle" x="200" y="-1586.2" font-family="Courier,monospace" font-size="11.00">Auth</text>
</g>
<!-- \\Elabftw\\Elabftw\\Users&#45;&gt;\\Elabftw\\Elabftw\\Auth -->
<g id="edge3" class="edge"><title>\\Elabftw\\Elabftw\\Users&#45;&gt;\\Elabftw\\Elabftw\\Auth</title>
<path fill="none" stroke="black" d="M352.326,-1659.39C340.553,-1654.53 326.519,-1648.61 314,-1643 287.782,-1631.26 258.527,-1617.25 236.353,-1606.45"/>
<polygon fill="none" stroke="black" points="237.834,-1603.27 227.313,-1602.03 234.76,-1609.56 237.834,-1603.27"/>
</g>
<!-- \\Elabftw\\Elabftw\\LegacyCrypto -->
<g id="node5" class="node"><title>\\Elabftw\\Elabftw\\LegacyCrypto</title>
<polygon fill="none" stroke="black" points="428.5,-1526 330.5,-1526 330.5,-1490 428.5,-1490 428.5,-1526"/>
<text text-anchor="middle" x="379.5" y="-1505.2" font-family="Courier,monospace" font-size="11.00">LegacyCrypto</text>
</g>
<!-- \\Elabftw\\Elabftw\\Links -->
<g id="node6" class="node"><title>\\Elabftw\\Elabftw\\Links</title>
<polygon fill="none" stroke="black" points="406.5,-1472 352.5,-1472 352.5,-1436 406.5,-1436 406.5,-1472"/>
<text text-anchor="middle" x="379.5" y="-1451.2" font-family="Courier,monospace" font-size="11.00">Links</text>
</g>
<!-- \\Elabftw\\Elabftw\\Comments -->
<g id="node8" class="node"><title>\\Elabftw\\Elabftw\\Comments</title>
<polygon fill="none" stroke="black" points="415,-770 344,-770 344,-734 415,-734 415,-770"/>
<text text-anchor="middle" x="379.5" y="-749.2" font-family="Courier,monospace" font-size="11.00">Comments</text>
</g>
<!-- \\Elabftw\\Elabftw\\Comments&#45;&gt;\\Elabftw\\Elabftw\\Entity -->
<g id="edge4" class="edge"><title>\\Elabftw\\Elabftw\\Comments&#45;&gt;\\Elabftw\\Elabftw\\Entity</title>
<path fill="none" stroke="black" d="M343.676,-739.106C333.864,-735.025 323.328,-730.207 314,-725 284.286,-708.411 253.027,-685.526 230.938,-668.312"/>
<polygon fill="none" stroke="black" points="232.965,-665.453 222.943,-662.017 228.634,-670.953 232.965,-665.453"/>
</g>
<!-- \\Elabftw\\Elabftw\\Teams -->
<g id="node9" class="node"><title>\\Elabftw\\Elabftw\\Teams</title>
<polygon fill="none" stroke="black" points="227,-1364 173,-1364 173,-1328 227,-1328 227,-1364"/>
<text text-anchor="middle" x="200" y="-1343.2" font-family="Courier,monospace" font-size="11.00">Teams</text>
</g>
<!-- \\Elabftw\\Elabftw\\Teams&#45;&gt;\\Elabftw\\Elabftw\\Panel -->
<g id="edge5" class="edge"><title>\\Elabftw\\Elabftw\\Teams&#45;&gt;\\Elabftw\\Elabftw\\Panel</title>
<path fill="none" stroke="black" d="M172.855,-1356.16C151.013,-1364.64 119.66,-1376.82 95.541,-1386.19"/>
<polygon fill="none" stroke="black" points="94.0815,-1383 86.0276,-1389.89 96.6164,-1389.53 94.0815,-1383"/>
</g>
<!-- \\Elabftw\\Elabftw\\Import -->
<g id="node10" class="node"><title>\\Elabftw\\Elabftw\\Import</title>
<polygon fill="none" stroke="black" points="242,-500 158,-500 158,-464 242,-464 242,-500"/>
<text text-anchor="start" x="166" y="-485.2" font-family="Courier,monospace" font-size="11.00">«abstract»</text>
<text text-anchor="start" x="179.5" y="-473.2" font-family="Courier,monospace" font-size="11.00">Import</text>
</g>
<!-- \\Elabftw\\Elabftw\\ExperimentsView -->
<g id="node11" class="node"><title>\\Elabftw\\Elabftw\\ExperimentsView</title>
<polygon fill="none" stroke="black" points="438.5,-1418 320.5,-1418 320.5,-1382 438.5,-1382 438.5,-1418"/>
<text text-anchor="middle" x="379.5" y="-1397.2" font-family="Courier,monospace" font-size="11.00">ExperimentsView</text>
</g>
<!-- \\Elabftw\\Elabftw\\EntityView -->
<g id="node42" class="node"><title>\\Elabftw\\Elabftw\\EntityView</title>
<polygon fill="none" stroke="black" points="242,-1472 158,-1472 158,-1436 242,-1436 242,-1472"/>
<text text-anchor="middle" x="200" y="-1451.2" font-family="Courier,monospace" font-size="11.00">EntityView</text>
</g>
<!-- \\Elabftw\\Elabftw\\ExperimentsView&#45;&gt;\\Elabftw\\Elabftw\\EntityView -->
<g id="edge6" class="edge"><title>\\Elabftw\\Elabftw\\ExperimentsView&#45;&gt;\\Elabftw\\Elabftw\\EntityView</title>
<path fill="none" stroke="black" d="M320.38,-1417.68C298.197,-1424.43 273.105,-1432.06 251.67,-1438.59"/>
<polygon fill="none" stroke="black" points="250.65,-1435.24 242.102,-1441.5 252.688,-1441.93 250.65,-1435.24"/>
</g>
<!-- \\Elabftw\\Elabftw\\Make -->
<g id="node12" class="node"><title>\\Elabftw\\Elabftw\\Make</title>
<polygon fill="none" stroke="black" points="242,-257 158,-257 158,-221 242,-221 242,-257"/>
<text text-anchor="start" x="166" y="-242.2" font-family="Courier,monospace" font-size="11.00">«abstract»</text>
<text text-anchor="start" x="186" y="-230.2" font-family="Courier,monospace" font-size="11.00">Make</text>
</g>
<!-- \\Elabftw\\Elabftw\\TeamGroupsView -->
<g id="node13" class="node"><title>\\Elabftw\\Elabftw\\TeamGroupsView</title>
<polygon fill="none" stroke="black" points="435,-1310 324,-1310 324,-1274 435,-1274 435,-1310"/>
<text text-anchor="middle" x="379.5" y="-1289.2" font-family="Courier,monospace" font-size="11.00">TeamGroupsView</text>
</g>
<!-- \\Elabftw\\Elabftw\\Templates -->
<g id="node15" class="node"><title>\\Elabftw\\Elabftw\\Templates</title>
<polygon fill="none" stroke="black" points="418,-1256 341,-1256 341,-1220 418,-1220 418,-1256"/>
<text text-anchor="middle" x="379.5" y="-1235.2" font-family="Courier,monospace" font-size="11.00">Templates</text>
</g>
<!-- \\Elabftw\\Elabftw\\Revisions -->
<g id="node16" class="node"><title>\\Elabftw\\Elabftw\\Revisions</title>
<polygon fill="none" stroke="black" points="418,-1202 341,-1202 341,-1166 418,-1166 418,-1202"/>
<text text-anchor="middle" x="379.5" y="-1181.2" font-family="Courier,monospace" font-size="11.00">Revisions</text>
</g>
<!-- \\Elabftw\\Elabftw\\CryptoWrapper -->
<g id="node17" class="node"><title>\\Elabftw\\Elabftw\\CryptoWrapper</title>
<polygon fill="none" stroke="black" points="431.5,-1148 327.5,-1148 327.5,-1112 431.5,-1112 431.5,-1148"/>
<text text-anchor="middle" x="379.5" y="-1127.2" font-family="Courier,monospace" font-size="11.00">CryptoWrapper</text>
</g>
<!-- \\Elabftw\\Elabftw\\ItemsTypesView -->
<g id="node18" class="node"><title>\\Elabftw\\Elabftw\\ItemsTypesView</title>
<polygon fill="none" stroke="black" points="435,-1094 324,-1094 324,-1058 435,-1058 435,-1094"/>
<text text-anchor="middle" x="379.5" y="-1073.2" font-family="Courier,monospace" font-size="11.00">ItemsTypesView</text>
</g>
<!-- \\Elabftw\\Elabftw\\StatusView -->
<g id="node19" class="node"><title>\\Elabftw\\Elabftw\\StatusView</title>
<polygon fill="none" stroke="black" points="421.5,-1040 337.5,-1040 337.5,-1004 421.5,-1004 421.5,-1040"/>
<text text-anchor="middle" x="379.5" y="-1019.2" font-family="Courier,monospace" font-size="11.00">StatusView</text>
</g>
<!-- \\Elabftw\\Elabftw\\SysconfigView -->
<g id="node20" class="node"><title>\\Elabftw\\Elabftw\\SysconfigView</title>
<polygon fill="none" stroke="black" points="431.5,-986 327.5,-986 327.5,-950 431.5,-950 431.5,-986"/>
<text text-anchor="middle" x="379.5" y="-965.2" font-family="Courier,monospace" font-size="11.00">SysconfigView</text>
</g>
<!-- \\Elabftw\\Elabftw\\Formkey -->
<g id="node21" class="node"><title>\\Elabftw\\Elabftw\\Formkey</title>
<polygon fill="none" stroke="black" points="411.5,-932 347.5,-932 347.5,-896 411.5,-896 411.5,-932"/>
<text text-anchor="middle" x="379.5" y="-911.2" font-family="Courier,monospace" font-size="11.00">Formkey</text>
</g>
<!-- \\Elabftw\\Elabftw\\ItemsTypes -->
<g id="node23" class="node"><title>\\Elabftw\\Elabftw\\ItemsTypes</title>
<polygon fill="none" stroke="black" points="242,-1526 158,-1526 158,-1490 242,-1490 242,-1526"/>
<text text-anchor="middle" x="200" y="-1505.2" font-family="Courier,monospace" font-size="11.00">ItemsTypes</text>
</g>
<!-- \\Elabftw\\Elabftw\\ItemsTypes&#45;&gt;\\Elabftw\\Elabftw\\Panel -->
<g id="edge7" class="edge"><title>\\Elabftw\\Elabftw\\ItemsTypes&#45;&gt;\\Elabftw\\Elabftw\\Panel</title>
<path fill="none" stroke="black" d="M170.494,-1489.8C166.254,-1486.93 161.975,-1483.94 158,-1481 133.771,-1463.09 107.518,-1441.25 88.2876,-1424.76"/>
<polygon fill="none" stroke="black" points="90.3621,-1421.93 80.5025,-1418.05 85.7916,-1427.23 90.3621,-1421.93"/>
</g>
<!-- \\Elabftw\\Elabftw\\Tools -->
<g id="node24" class="node"><title>\\Elabftw\\Elabftw\\Tools</title>
<polygon fill="none" stroke="black" points="406.5,-878 352.5,-878 352.5,-842 406.5,-842 406.5,-878"/>
<text text-anchor="middle" x="379.5" y="-857.2" font-family="Courier,monospace" font-size="11.00">Tools</text>
</g>
<!-- \\Elabftw\\Elabftw\\Db -->
<g id="node25" class="node"><title>\\Elabftw\\Elabftw\\Db</title>
<polygon fill="none" stroke="black" points="406.5,-824 352.5,-824 352.5,-788 406.5,-788 406.5,-824"/>
<text text-anchor="middle" x="379.5" y="-803.2" font-family="Courier,monospace" font-size="11.00">Db</text>
</g>
<!-- \\Elabftw\\Elabftw\\TeamsView -->
<g id="node26" class="node"><title>\\Elabftw\\Elabftw\\TeamsView</title>
<polygon fill="none" stroke="black" points="418,-1364 341,-1364 341,-1328 418,-1328 418,-1364"/>
<text text-anchor="middle" x="379.5" y="-1343.2" font-family="Courier,monospace" font-size="11.00">TeamsView</text>
</g>
<!-- \\Elabftw\\Elabftw\\TeamsView&#45;&gt;\\Elabftw\\Elabftw\\Teams -->
<g id="edge8" class="edge"><title>\\Elabftw\\Elabftw\\TeamsView&#45;&gt;\\Elabftw\\Elabftw\\Teams</title>
<path fill="none" stroke="black" d="M340.857,-1346C310.27,-1346 267.398,-1346 237.205,-1346"/>
<polygon fill="none" stroke="black" points="237.095,-1342.5 227.095,-1346 237.095,-1349.5 237.095,-1342.5"/>
</g>
<!-- \\Elabftw\\Elabftw\\Experiments -->
<g id="node27" class="node"><title>\\Elabftw\\Elabftw\\Experiments</title>
<polygon fill="none" stroke="black" points="425,-554 334,-554 334,-518 425,-518 425,-554"/>
<text text-anchor="middle" x="379.5" y="-533.2" font-family="Courier,monospace" font-size="11.00">Experiments</text>
</g>
<!-- \\Elabftw\\Elabftw\\Experiments&#45;&gt;\\Elabftw\\Elabftw\\Entity -->
<g id="edge9" class="edge"><title>\\Elabftw\\Elabftw\\Experiments&#45;&gt;\\Elabftw\\Elabftw\\Entity</title>
<path fill="none" stroke="black" d="M333.809,-553.156C327.051,-556.192 320.254,-559.509 314,-563 284.286,-579.589 253.027,-602.474 230.938,-619.688"/>
<polygon fill="none" stroke="black" points="228.634,-617.047 222.943,-625.983 232.965,-622.547 228.634,-617.047"/>
</g>
<!-- \\Elabftw\\Elabftw\\ImportZip -->
<g id="node28" class="node"><title>\\Elabftw\\Elabftw\\ImportZip</title>
<polygon fill="none" stroke="black" points="418,-500 341,-500 341,-464 418,-464 418,-500"/>
<text text-anchor="middle" x="379.5" y="-479.2" font-family="Courier,monospace" font-size="11.00">ImportZip</text>
</g>
<!-- \\Elabftw\\Elabftw\\ImportZip&#45;&gt;\\Elabftw\\Elabftw\\Import -->
<g id="edge10" class="edge"><title>\\Elabftw\\Elabftw\\ImportZip&#45;&gt;\\Elabftw\\Elabftw\\Import</title>
<path fill="none" stroke="black" d="M340.857,-482C315.117,-482 280.676,-482 252.413,-482"/>
<polygon fill="none" stroke="black" points="252.308,-478.5 242.308,-482 252.308,-485.5 252.308,-478.5"/>
</g>
<!-- \\Elabftw\\Elabftw\\MakeCsv -->
<g id="node29" class="node"><title>\\Elabftw\\Elabftw\\MakeCsv</title>
<polygon fill="none" stroke="black" points="411.5,-230 347.5,-230 347.5,-194 411.5,-194 411.5,-230"/>
<text text-anchor="middle" x="379.5" y="-209.2" font-family="Courier,monospace" font-size="11.00">MakeCsv</text>
</g>
<!-- \\Elabftw\\Elabftw\\MakeCsv&#45;&gt;\\Elabftw\\Elabftw\\Make -->
<g id="edge11" class="edge"><title>\\Elabftw\\Elabftw\\MakeCsv&#45;&gt;\\Elabftw\\Elabftw\\Make</title>
<path fill="none" stroke="black" d="M347.175,-216.765C320.887,-220.764 282.818,-226.554 252.12,-231.224"/>
<polygon fill="none" stroke="black" points="251.38,-227.796 242.02,-232.76 252.433,-234.717 251.38,-227.796"/>
</g>
<!-- \\Elabftw\\Elabftw\\Uploads -->
<g id="node30" class="node"><title>\\Elabftw\\Elabftw\\Uploads</title>
<polygon fill="none" stroke="black" points="411.5,-716 347.5,-716 347.5,-680 411.5,-680 411.5,-716"/>
<text text-anchor="middle" x="379.5" y="-695.2" font-family="Courier,monospace" font-size="11.00">Uploads</text>
</g>
<!-- \\Elabftw\\Elabftw\\Uploads&#45;&gt;\\Elabftw\\Elabftw\\Entity -->
<g id="edge12" class="edge"><title>\\Elabftw\\Elabftw\\Uploads&#45;&gt;\\Elabftw\\Elabftw\\Entity</title>
<path fill="none" stroke="black" d="M347.175,-688.47C316.821,-679.236 270.761,-665.223 238.477,-655.401"/>
<polygon fill="none" stroke="black" points="239.103,-651.933 228.517,-652.371 237.065,-658.63 239.103,-651.933"/>
</g>
<!-- \\Elabftw\\Elabftw\\TeamGroups -->
<g id="node31" class="node"><title>\\Elabftw\\Elabftw\\TeamGroups</title>
<polygon fill="none" stroke="black" points="242,-1418 158,-1418 158,-1382 242,-1382 242,-1418"/>
<text text-anchor="middle" x="200" y="-1397.2" font-family="Courier,monospace" font-size="11.00">TeamGroups</text>
</g>
<!-- \\Elabftw\\Elabftw\\TeamGroups&#45;&gt;\\Elabftw\\Elabftw\\Panel -->
<g id="edge13" class="edge"><title>\\Elabftw\\Elabftw\\TeamGroups&#45;&gt;\\Elabftw\\Elabftw\\Panel</title>
<path fill="none" stroke="black" d="M157.672,-1400C138.181,-1400 115.132,-1400 96.3204,-1400"/>
<polygon fill="none" stroke="black" points="96.0748,-1396.5 86.0747,-1400 96.0747,-1403.5 96.0748,-1396.5"/>
</g>
<!-- \\Elabftw\\Elabftw\\MakeZip -->
<g id="node32" class="node"><title>\\Elabftw\\Elabftw\\MakeZip</title>
<polygon fill="none" stroke="black" points="411.5,-68 347.5,-68 347.5,-32 411.5,-32 411.5,-68"/>
<text text-anchor="middle" x="379.5" y="-47.2" font-family="Courier,monospace" font-size="11.00">MakeZip</text>
</g>
<!-- \\Elabftw\\Elabftw\\MakeZip&#45;&gt;\\Elabftw\\Elabftw\\Make -->
<g id="edge14" class="edge"><title>\\Elabftw\\Elabftw\\MakeZip&#45;&gt;\\Elabftw\\Elabftw\\Make</title>
<path fill="none" stroke="black" d="M347.348,-58.9894C336.071,-63.2421 323.73,-69.1467 314,-77 267.414,-114.602 231.814,-176.261 213.882,-211.677"/>
<polygon fill="none" stroke="black" points="210.602,-210.414 209.298,-220.928 216.874,-213.521 210.602,-210.414"/>
</g>
<!-- \\Elabftw\\Elabftw\\DatabaseView -->
<g id="node33" class="node"><title>\\Elabftw\\Elabftw\\DatabaseView</title>
<polygon fill="none" stroke="black" points="428.5,-1580 330.5,-1580 330.5,-1544 428.5,-1544 428.5,-1580"/>
<text text-anchor="middle" x="379.5" y="-1559.2" font-family="Courier,monospace" font-size="11.00">DatabaseView</text>
</g>
<!-- \\Elabftw\\Elabftw\\DatabaseView&#45;&gt;\\Elabftw\\Elabftw\\EntityView -->
<g id="edge15" class="edge"><title>\\Elabftw\\Elabftw\\DatabaseView&#45;&gt;\\Elabftw\\Elabftw\\EntityView</title>
<path fill="none" stroke="black" d="M331.339,-1543.86C325.392,-1541.11 319.478,-1538.14 314,-1535 279.287,-1515.13 274.719,-1504.01 242,-1481 240.562,-1479.99 239.09,-1478.97 237.598,-1477.94"/>
<polygon fill="none" stroke="black" points="239.185,-1474.79 228.943,-1472.07 235.258,-1480.58 239.185,-1474.79"/>
</g>
<!-- \\Elabftw\\Elabftw\\ImportCsv -->
<g id="node34" class="node"><title>\\Elabftw\\Elabftw\\ImportCsv</title>
<polygon fill="none" stroke="black" points="418,-446 341,-446 341,-410 418,-410 418,-446"/>
<text text-anchor="middle" x="379.5" y="-425.2" font-family="Courier,monospace" font-size="11.00">ImportCsv</text>
</g>
<!-- \\Elabftw\\Elabftw\\ImportCsv&#45;&gt;\\Elabftw\\Elabftw\\Import -->
<g id="edge16" class="edge"><title>\\Elabftw\\Elabftw\\ImportCsv&#45;&gt;\\Elabftw\\Elabftw\\Import</title>
<path fill="none" stroke="black" d="M340.857,-439.452C315.004,-447.317 280.374,-457.852 252.042,-466.472"/>
<polygon fill="none" stroke="black" points="250.856,-463.174 242.308,-469.433 252.894,-469.871 250.856,-463.174"/>
</g>
<!-- \\Elabftw\\Elabftw\\Sysconfig -->
<g id="node35" class="node"><title>\\Elabftw\\Elabftw\\Sysconfig</title>
<polygon fill="none" stroke="black" points="418,-338 341,-338 341,-302 418,-302 418,-338"/>
<text text-anchor="middle" x="379.5" y="-317.2" font-family="Courier,monospace" font-size="11.00">Sysconfig</text>
</g>
<!-- \\Elabftw\\Elabftw\\Tags -->
<g id="node36" class="node"><title>\\Elabftw\\Elabftw\\Tags</title>
<polygon fill="none" stroke="black" points="406.5,-608 352.5,-608 352.5,-572 406.5,-572 406.5,-608"/>
<text text-anchor="middle" x="379.5" y="-587.2" font-family="Courier,monospace" font-size="11.00">Tags</text>
</g>
<!-- \\Elabftw\\Elabftw\\Tags&#45;&gt;\\Elabftw\\Elabftw\\Entity -->
<g id="edge17" class="edge"><title>\\Elabftw\\Elabftw\\Tags&#45;&gt;\\Elabftw\\Elabftw\\Entity</title>
<path fill="none" stroke="black" d="M352.309,-597.968C322.204,-607.127 272.558,-622.23 238.393,-632.624"/>
<polygon fill="none" stroke="black" points="237.31,-629.295 228.762,-635.554 239.348,-635.992 237.31,-629.295"/>
</g>
<!-- \\Elabftw\\Elabftw\\MakePdf -->
<g id="node37" class="node"><title>\\Elabftw\\Elabftw\\MakePdf</title>
<polygon fill="none" stroke="black" points="411.5,-284 347.5,-284 347.5,-248 411.5,-248 411.5,-284"/>
<text text-anchor="middle" x="379.5" y="-263.2" font-family="Courier,monospace" font-size="11.00">MakePdf</text>
</g>
<!-- \\Elabftw\\Elabftw\\MakePdf&#45;&gt;\\Elabftw\\Elabftw\\Make -->
<g id="edge18" class="edge"><title>\\Elabftw\\Elabftw\\MakePdf&#45;&gt;\\Elabftw\\Elabftw\\Make</title>
<path fill="none" stroke="black" d="M347.175,-261.235C320.887,-257.236 282.818,-251.446 252.12,-246.776"/>
<polygon fill="none" stroke="black" points="252.433,-243.283 242.02,-245.24 251.38,-250.204 252.433,-243.283"/>
</g>
<!-- \\Elabftw\\Elabftw\\Update -->
<g id="node38" class="node"><title>\\Elabftw\\Elabftw\\Update</title>
<polygon fill="none" stroke="black" points="408,-176 351,-176 351,-140 408,-140 408,-176"/>
<text text-anchor="middle" x="379.5" y="-155.2" font-family="Courier,monospace" font-size="11.00">Update</text>
</g>
<!-- \\Elabftw\\Elabftw\\TrustedTimestamps -->
<g id="node39" class="node"><title>\\Elabftw\\Elabftw\\TrustedTimestamps</title>
<polygon fill="none" stroke="black" points="445,-122 314,-122 314,-86 445,-86 445,-122"/>
<text text-anchor="middle" x="379.5" y="-101.2" font-family="Courier,monospace" font-size="11.00">TrustedTimestamps</text>
</g>
<!-- \\Elabftw\\Elabftw\\Logs -->
<g id="node40" class="node"><title>\\Elabftw\\Elabftw\\Logs</title>
<polygon fill="none" stroke="black" points="227,-446 173,-446 173,-410 227,-410 227,-446"/>
<text text-anchor="middle" x="200" y="-425.2" font-family="Courier,monospace" font-size="11.00">Logs</text>
</g>
<!-- \\Elabftw\\Elabftw\\Logs&#45;&gt;\\Elabftw\\Elabftw\\Panel -->
<g id="edge19" class="edge"><title>\\Elabftw\\Elabftw\\Logs&#45;&gt;\\Elabftw\\Elabftw\\Panel</title>
<path fill="none" stroke="black" d="M172.954,-440.186C167.139,-444.11 161.628,-449.027 158,-455 61.0748,-614.557 58.9359,-1230.84 59.7393,-1371.36"/>
<polygon fill="none" stroke="black" points="56.2416,-1371.74 59.8092,-1381.72 63.2415,-1371.69 56.2416,-1371.74"/>
</g>
<!-- \\Elabftw\\Elabftw\\Upload -->
<g id="node41" class="node"><title>\\Elabftw\\Elabftw\\Upload</title>
<polygon fill="none" stroke="black" points="408,-392 351,-392 351,-356 408,-356 408,-392"/>
<text text-anchor="middle" x="379.5" y="-371.2" font-family="Courier,monospace" font-size="11.00">Upload</text>
</g>
<!-- \\Elabftw\\Elabftw\\Upload&#45;&gt;\\Elabftw\\Elabftw\\Make -->
<g id="edge20" class="edge"><title>\\Elabftw\\Elabftw\\Upload&#45;&gt;\\Elabftw\\Elabftw\\Make</title>
<path fill="none" stroke="black" d="M350.714,-364.929C338.898,-360.436 325.274,-354.38 314,-347 278.506,-323.765 244.223,-288.634 222.908,-264.8"/>
<polygon fill="none" stroke="black" points="225.432,-262.37 216.194,-257.184 220.181,-266.999 225.432,-262.37"/>
</g>
</g>
</svg>
