<?xml version="1.0" encoding="UTF-8" standalone="no"?>
<!DOCTYPE svg PUBLIC "-//W3C//DTD SVG 1.1//EN"
 "http://www.w3.org/Graphics/SVG/1.1/DTD/svg11.dtd">
<!-- Generated by graphviz version 2.38.0 (20140413.2041)
 -->
<!-- Title: G Pages: 1 -->
<svg width="485pt" height="1248pt"
 viewBox="0.00 0.00 485.00 1248.00" xmlns="http://www.w3.org/2000/svg" xmlns:xlink="http://www.w3.org/1999/xlink">
<g id="graph0" class="graph" transform="scale(1 1) rotate(0) translate(4 1244)">
<title>G</title>
<polygon fill="white" stroke="none" points="-4,4 -4,-1244 481,-1244 481,4 -4,4"/>
<g id="clust1" class="cluster"><title>cluster_Global</title>
<path fill="none" stroke="gray" d="M20,-8C20,-8 457,-8 457,-8 463,-8 469,-14 469,-20 469,-20 469,-1220 469,-1220 469,-1226 463,-1232 457,-1232 457,-1232 20,-1232 20,-1232 14,-1232 8,-1226 8,-1220 8,-1220 8,-20 8,-20 8,-14 14,-8 20,-8"/>
<text text-anchor="middle" x="238.5" y="-1219.2" font-family="Times,serif" font-size="11.00" fill="gray">Global</text>
</g>
<g id="clust2" class="cluster"><title>cluster_\Elabftw</title>
<path fill="none" stroke="gray" d="M28,-16C28,-16 449,-16 449,-16 455,-16 461,-22 461,-28 461,-28 461,-1192 461,-1192 461,-1198 455,-1204 449,-1204 449,-1204 28,-1204 28,-1204 22,-1204 16,-1198 16,-1192 16,-1192 16,-28 16,-28 16,-22 22,-16 28,-16"/>
<text text-anchor="middle" x="238.5" y="-1191.2" font-family="Times,serif" font-size="11.00" fill="gray">Elabftw</text>
</g>
<g id="clust3" class="cluster"><title>cluster_\Elabftw\Elabftw</title>
<path fill="none" stroke="gray" d="M36,-24C36,-24 441,-24 441,-24 447,-24 453,-30 453,-36 453,-36 453,-1164 453,-1164 453,-1170 447,-1176 441,-1176 441,-1176 36,-1176 36,-1176 30,-1176 24,-1170 24,-1164 24,-1164 24,-36 24,-36 24,-30 30,-24 36,-24"/>
<text text-anchor="middle" x="238.5" y="-1163.2" font-family="Times,serif" font-size="11.00" fill="gray">Elabftw</text>
</g>
<!-- \\Elabftw\\Elabftw\\Db -->
<g id="node1" class="node"><title>\\Elabftw\\Elabftw\\Db</title>
<polygon fill="none" stroke="black" points="406.5,-1148 352.5,-1148 352.5,-1112 406.5,-1112 406.5,-1148"/>
<text text-anchor="middle" x="379.5" y="-1127.2" font-family="Courier,monospace" font-size="11.00">Db</text>
</g>
<!-- \\Elabftw\\Elabftw\\ItemsTypes -->
<g id="node2" class="node"><title>\\Elabftw\\Elabftw\\ItemsTypes</title>
<polygon fill="none" stroke="black" points="242,-986 158,-986 158,-950 242,-950 242,-986"/>
<text text-anchor="middle" x="200" y="-965.2" font-family="Courier,monospace" font-size="11.00">ItemsTypes</text>
</g>
<!-- \\Elabftw\\Elabftw\\Panel -->
<g id="node27" class="node"><title>\\Elabftw\\Elabftw\\Panel</title>
<polygon fill="none" stroke="black" points="86,-851 32,-851 32,-815 86,-815 86,-851"/>
<text text-anchor="middle" x="59" y="-830.2" font-family="Courier,monospace" font-size="11.00">Panel</text>
</g>
<!-- \\Elabftw\\Elabftw\\ItemsTypes&#45;&gt;\\Elabftw\\Elabftw\\Panel -->
<g id="edge1" class="edge"><title>\\Elabftw\\Elabftw\\ItemsTypes&#45;&gt;\\Elabftw\\Elabftw\\Panel</title>
<path fill="none" stroke="black" d="M169.666,-949.995C165.626,-947.142 161.625,-944.104 158,-941 128.54,-915.774 99.246,-882.066 80.4684,-859.06"/>
<polygon fill="none" stroke="black" points="83.0503,-856.687 74.0453,-851.104 77.6037,-861.084 83.0503,-856.687"/>
</g>
<!-- \\Elabftw\\Elabftw\\StatusView -->
<g id="node3" class="node"><title>\\Elabftw\\Elabftw\\StatusView</title>
<polygon fill="none" stroke="black" points="421.5,-1094 337.5,-1094 337.5,-1058 421.5,-1058 421.5,-1094"/>
<text text-anchor="middle" x="379.5" y="-1073.2" font-family="Courier,monospace" font-size="11.00">StatusView</text>
</g>
<!-- \\Elabftw\\Elabftw\\TeamsView -->
<g id="node4" class="node"><title>\\Elabftw\\Elabftw\\TeamsView</title>
<polygon fill="none" stroke="black" points="418,-1040 341,-1040 341,-1004 418,-1004 418,-1040"/>
<text text-anchor="middle" x="379.5" y="-1019.2" font-family="Courier,monospace" font-size="11.00">TeamsView</text>
</g>
<!-- \\Elabftw\\Elabftw\\Teams -->
<g id="node10" class="node"><title>\\Elabftw\\Elabftw\\Teams</title>
<polygon fill="none" stroke="black" points="227,-932 173,-932 173,-896 227,-896 227,-932"/>
<text text-anchor="middle" x="200" y="-911.2" font-family="Courier,monospace" font-size="11.00">Teams</text>
</g>
<!-- \\Elabftw\\Elabftw\\TeamsView&#45;&gt;\\Elabftw\\Elabftw\\Teams -->
<g id="edge2" class="edge"><title>\\Elabftw\\Elabftw\\TeamsView&#45;&gt;\\Elabftw\\Elabftw\\Teams</title>
<path fill="none" stroke="black" d="M340.91,-1008.1C331.887,-1004.27 322.428,-999.825 314,-995 279.287,-975.126 274.719,-964.011 242,-941 239.926,-939.541 237.78,-938.057 235.608,-936.573"/>
<polygon fill="none" stroke="black" points="237.438,-933.586 227.188,-930.903 233.528,-939.392 237.438,-933.586"/>
</g>
<!-- \\Elabftw\\Elabftw\\LegacyCrypto -->
<g id="node5" class="node"><title>\\Elabftw\\Elabftw\\LegacyCrypto</title>
<polygon fill="none" stroke="black" points="428.5,-986 330.5,-986 330.5,-950 428.5,-950 428.5,-986"/>
<text text-anchor="middle" x="379.5" y="-965.2" font-family="Courier,monospace" font-size="11.00">LegacyCrypto</text>
</g>
<!-- \\Elabftw\\Elabftw\\CryptoWrapper -->
<g id="node6" class="node"><title>\\Elabftw\\Elabftw\\CryptoWrapper</title>
<polygon fill="none" stroke="black" points="431.5,-932 327.5,-932 327.5,-896 431.5,-896 431.5,-932"/>
<text text-anchor="middle" x="379.5" y="-911.2" font-family="Courier,monospace" font-size="11.00">CryptoWrapper</text>
</g>
<!-- \\Elabftw\\Elabftw\\LogsView -->
<g id="node7" class="node"><title>\\Elabftw\\Elabftw\\LogsView</title>
<polygon fill="none" stroke="black" points="415,-878 344,-878 344,-842 415,-842 415,-878"/>
<text text-anchor="middle" x="379.5" y="-857.2" font-family="Courier,monospace" font-size="11.00">LogsView</text>
</g>
<!-- \\Elabftw\\Elabftw\\Logs -->
<g id="node24" class="node"><title>\\Elabftw\\Elabftw\\Logs</title>
<polygon fill="none" stroke="black" points="227,-878 173,-878 173,-842 227,-842 227,-878"/>
<text text-anchor="middle" x="200" y="-857.2" font-family="Courier,monospace" font-size="11.00">Logs</text>
</g>
<!-- \\Elabftw\\Elabftw\\LogsView&#45;&gt;\\Elabftw\\Elabftw\\Logs -->
<g id="edge3" class="edge"><title>\\Elabftw\\Elabftw\\LogsView&#45;&gt;\\Elabftw\\Elabftw\\Logs</title>
<path fill="none" stroke="black" d="M343.855,-860C313.127,-860 268.406,-860 237.213,-860"/>
<polygon fill="none" stroke="black" points="237.193,-856.5 227.193,-860 237.193,-863.5 237.193,-856.5"/>
</g>
<!-- \\Elabftw\\Elabftw\\Update -->
<g id="node8" class="node"><title>\\Elabftw\\Elabftw\\Update</title>
<polygon fill="none" stroke="black" points="408,-824 351,-824 351,-788 408,-788 408,-824"/>
<text text-anchor="middle" x="379.5" y="-803.2" font-family="Courier,monospace" font-size="11.00">Update</text>
</g>
<!-- \\Elabftw\\Elabftw\\MolViewer -->
<g id="node9" class="node"><title>\\Elabftw\\Elabftw\\MolViewer</title>
<polygon fill="none" stroke="black" points="418,-770 341,-770 341,-734 418,-734 418,-770"/>
<text text-anchor="middle" x="379.5" y="-749.2" font-family="Courier,monospace" font-size="11.00">MolViewer</text>
</g>
<!-- \\Elabftw\\Elabftw\\Teams&#45;&gt;\\Elabftw\\Elabftw\\Panel -->
<g id="edge4" class="edge"><title>\\Elabftw\\Elabftw\\Teams&#45;&gt;\\Elabftw\\Elabftw\\Panel</title>
<path fill="none" stroke="black" d="M172.855,-898.765C150.819,-885.923 119.102,-867.441 94.8995,-853.337"/>
<polygon fill="none" stroke="black" points="96.4299,-850.178 86.0276,-848.167 92.9054,-856.226 96.4299,-850.178"/>
</g>
<!-- \\Elabftw\\Elabftw\\Import -->
<g id="node11" class="node"><title>\\Elabftw\\Elabftw\\Import</title>
<polygon fill="none" stroke="black" points="242,-176 158,-176 158,-140 242,-140 242,-176"/>
<text text-anchor="start" x="166" y="-161.2" font-family="Courier,monospace" font-size="11.00">«abstract»</text>
<text text-anchor="start" x="179.5" y="-149.2" font-family="Courier,monospace" font-size="11.00">Import</text>
</g>
<!-- \\Elabftw\\Elabftw\\Upload -->
<g id="node12" class="node"><title>\\Elabftw\\Elabftw\\Upload</title>
<polygon fill="none" stroke="black" points="408,-716 351,-716 351,-680 408,-680 408,-716"/>
<text text-anchor="middle" x="379.5" y="-695.2" font-family="Courier,monospace" font-size="11.00">Upload</text>
</g>
<!-- \\Elabftw\\Elabftw\\Make -->
<g id="node13" class="node"><title>\\Elabftw\\Elabftw\\Make</title>
<polygon fill="none" stroke="black" points="242,-500 158,-500 158,-464 242,-464 242,-500"/>
<text text-anchor="start" x="166" y="-485.2" font-family="Courier,monospace" font-size="11.00">«abstract»</text>
<text text-anchor="start" x="186" y="-473.2" font-family="Courier,monospace" font-size="11.00">Make</text>
</g>
<!-- \\Elabftw\\Elabftw\\Upload&#45;&gt;\\Elabftw\\Elabftw\\Make -->
<g id="edge5" class="edge"><title>\\Elabftw\\Elabftw\\Upload&#45;&gt;\\Elabftw\\Elabftw\\Make</title>
<path fill="none" stroke="black" d="M350.954,-690.772C338.636,-686.521 324.549,-680.144 314,-671 261.804,-625.754 226.996,-550.225 211.033,-509.7"/>
<polygon fill="none" stroke="black" points="214.234,-508.272 207.382,-500.192 207.699,-510.782 214.234,-508.272"/>
</g>
<!-- \\Elabftw\\Elabftw\\Status -->
<g id="node14" class="node"><title>\\Elabftw\\Elabftw\\Status</title>
<polygon fill="none" stroke="black" points="228.5,-824 171.5,-824 171.5,-788 228.5,-788 228.5,-824"/>
<text text-anchor="middle" x="200" y="-803.2" font-family="Courier,monospace" font-size="11.00">Status</text>
</g>
<!-- \\Elabftw\\Elabftw\\Status&#45;&gt;\\Elabftw\\Elabftw\\Panel -->
<g id="edge6" class="edge"><title>\\Elabftw\\Elabftw\\Status&#45;&gt;\\Elabftw\\Elabftw\\Panel</title>
<path fill="none" stroke="black" d="M171.205,-811.399C149.673,-815.581 119.666,-821.41 96.2483,-825.959"/>
<polygon fill="none" stroke="black" points="95.4829,-822.542 86.3338,-827.885 96.8177,-829.414 95.4829,-822.542"/>
</g>
<!-- \\Elabftw\\Elabftw\\Formkey -->
<g id="node15" class="node"><title>\\Elabftw\\Elabftw\\Formkey</title>
<polygon fill="none" stroke="black" points="411.5,-662 347.5,-662 347.5,-626 411.5,-626 411.5,-662"/>
<text text-anchor="middle" x="379.5" y="-641.2" font-family="Courier,monospace" font-size="11.00">Formkey</text>
</g>
<!-- \\Elabftw\\Elabftw\\CommonTpl -->
<g id="node16" class="node"><title>\\Elabftw\\Elabftw\\CommonTpl</title>
<polygon fill="none" stroke="black" points="238.5,-770 161.5,-770 161.5,-734 238.5,-734 238.5,-770"/>
<text text-anchor="middle" x="200" y="-749.2" font-family="Courier,monospace" font-size="11.00">CommonTpl</text>
</g>
<!-- \\Elabftw\\Elabftw\\CommonTpl&#45;&gt;\\Elabftw\\Elabftw\\Panel -->
<g id="edge7" class="edge"><title>\\Elabftw\\Elabftw\\CommonTpl&#45;&gt;\\Elabftw\\Elabftw\\Panel</title>
<path fill="none" stroke="black" d="M167.806,-770.178C146.279,-782.723 117.621,-799.422 95.264,-812.45"/>
<polygon fill="none" stroke="black" points="93.2948,-809.547 86.417,-817.606 96.8192,-815.595 93.2948,-809.547"/>
</g>
<!-- \\Elabftw\\Elabftw\\User -->
<g id="node17" class="node"><title>\\Elabftw\\Elabftw\\User</title>
<polygon fill="none" stroke="black" points="406.5,-608 352.5,-608 352.5,-572 406.5,-572 406.5,-608"/>
<text text-anchor="middle" x="379.5" y="-587.2" font-family="Courier,monospace" font-size="11.00">User</text>
</g>
<!-- \\Elabftw\\Elabftw\\TeamGroupsView -->
<g id="node18" class="node"><title>\\Elabftw\\Elabftw\\TeamGroupsView</title>
<polygon fill="none" stroke="black" points="435,-554 324,-554 324,-518 435,-518 435,-554"/>
<text text-anchor="middle" x="379.5" y="-533.2" font-family="Courier,monospace" font-size="11.00">TeamGroupsView</text>
</g>
<!-- \\Elabftw\\Elabftw\\MakeZip -->
<g id="node19" class="node"><title>\\Elabftw\\Elabftw\\MakeZip</title>
<polygon fill="none" stroke="black" points="411.5,-500 347.5,-500 347.5,-464 411.5,-464 411.5,-500"/>
<text text-anchor="middle" x="379.5" y="-479.2" font-family="Courier,monospace" font-size="11.00">MakeZip</text>
</g>
<!-- \\Elabftw\\Elabftw\\MakeZip&#45;&gt;\\Elabftw\\Elabftw\\Make -->
<g id="edge8" class="edge"><title>\\Elabftw\\Elabftw\\MakeZip&#45;&gt;\\Elabftw\\Elabftw\\Make</title>
<path fill="none" stroke="black" d="M347.175,-482C320.887,-482 282.818,-482 252.12,-482"/>
<polygon fill="none" stroke="black" points="252.02,-478.5 242.02,-482 252.02,-485.5 252.02,-478.5"/>
</g>
<!-- \\Elabftw\\Elabftw\\MakeCsv -->
<g id="node20" class="node"><title>\\Elabftw\\Elabftw\\MakeCsv</title>
<polygon fill="none" stroke="black" points="411.5,-446 347.5,-446 347.5,-410 411.5,-410 411.5,-446"/>
<text text-anchor="middle" x="379.5" y="-425.2" font-family="Courier,monospace" font-size="11.00">MakeCsv</text>
</g>
<!-- \\Elabftw\\Elabftw\\MakeCsv&#45;&gt;\\Elabftw\\Elabftw\\Make -->
<g id="edge9" class="edge"><title>\\Elabftw\\Elabftw\\MakeCsv&#45;&gt;\\Elabftw\\Elabftw\\Make</title>
<path fill="none" stroke="black" d="M347.175,-437.53C320.772,-445.562 282.486,-457.21 251.72,-466.57"/>
<polygon fill="none" stroke="black" points="250.568,-463.262 242.02,-469.521 252.606,-469.959 250.568,-463.262"/>
</g>
<!-- \\Elabftw\\Elabftw\\Tools -->
<g id="node21" class="node"><title>\\Elabftw\\Elabftw\\Tools</title>
<polygon fill="none" stroke="black" points="406.5,-392 352.5,-392 352.5,-356 406.5,-356 406.5,-392"/>
<text text-anchor="middle" x="379.5" y="-371.2" font-family="Courier,monospace" font-size="11.00">Tools</text>
</g>
<!-- \\Elabftw\\Elabftw\\ImportCsv -->
<g id="node22" class="node"><title>\\Elabftw\\Elabftw\\ImportCsv</title>
<polygon fill="none" stroke="black" points="418,-284 341,-284 341,-248 418,-248 418,-284"/>
<text text-anchor="middle" x="379.5" y="-263.2" font-family="Courier,monospace" font-size="11.00">ImportCsv</text>
</g>
<!-- \\Elabftw\\Elabftw\\ImportCsv&#45;&gt;\\Elabftw\\Elabftw\\Import -->
<g id="edge10" class="edge"><title>\\Elabftw\\Elabftw\\ImportCsv&#45;&gt;\\Elabftw\\Elabftw\\Import</title>
<path fill="none" stroke="black" d="M340.983,-251.975C331.958,-248.146 322.48,-243.734 314,-239 284.286,-222.411 253.027,-199.526 230.938,-182.312"/>
<polygon fill="none" stroke="black" points="232.965,-179.453 222.943,-176.017 228.634,-184.953 232.965,-179.453"/>
</g>
<!-- \\Elabftw\\Elabftw\\MakePdf -->
<g id="node23" class="node"><title>\\Elabftw\\Elabftw\\MakePdf</title>
<polygon fill="none" stroke="black" points="411.5,-338 347.5,-338 347.5,-302 411.5,-302 411.5,-338"/>
<text text-anchor="middle" x="379.5" y="-317.2" font-family="Courier,monospace" font-size="11.00">MakePdf</text>
</g>
<!-- \\Elabftw\\Elabftw\\MakePdf&#45;&gt;\\Elabftw\\Elabftw\\Make -->
<g id="edge11" class="edge"><title>\\Elabftw\\Elabftw\\MakePdf&#45;&gt;\\Elabftw\\Elabftw\\Make</title>
<path fill="none" stroke="black" d="M347.259,-328.88C335.972,-333.12 323.646,-339.045 314,-347 269.494,-383.704 282.907,-414.323 242,-455 241.214,-455.781 240.403,-456.553 239.57,-457.314"/>
<polygon fill="none" stroke="black" points="237.129,-454.789 231.625,-463.843 241.573,-460.197 237.129,-454.789"/>
</g>
<!-- \\Elabftw\\Elabftw\\Logs&#45;&gt;\\Elabftw\\Elabftw\\Panel -->
<g id="edge12" class="edge"><title>\\Elabftw\\Elabftw\\Logs&#45;&gt;\\Elabftw\\Elabftw\\Panel</title>
<path fill="none" stroke="black" d="M172.855,-854.922C151.111,-850.698 119.938,-844.643 95.863,-839.966"/>
<polygon fill="none" stroke="black" points="96.5115,-836.527 86.0276,-838.056 95.1767,-843.398 96.5115,-836.527"/>
</g>
<!-- \\Elabftw\\Elabftw\\TeamGroups -->
<g id="node25" class="node"><title>\\Elabftw\\Elabftw\\TeamGroups</title>
<polygon fill="none" stroke="black" points="242,-446 158,-446 158,-410 242,-410 242,-446"/>
<text text-anchor="middle" x="200" y="-425.2" font-family="Courier,monospace" font-size="11.00">TeamGroups</text>
</g>
<!-- \\Elabftw\\Elabftw\\TeamGroups&#45;&gt;\\Elabftw\\Elabftw\\Panel -->
<g id="edge13" class="edge"><title>\\Elabftw\\Elabftw\\TeamGroups&#45;&gt;\\Elabftw\\Elabftw\\Panel</title>
<path fill="none" stroke="black" d="M166.101,-446.261C163.067,-448.897 160.281,-451.812 158,-455 78.2169,-566.505 63.3293,-737.744 60.595,-804.745"/>
<polygon fill="none" stroke="black" points="57.0903,-804.823 60.2422,-814.938 64.0861,-805.065 57.0903,-804.823"/>
</g>
<!-- \\Elabftw\\Elabftw\\TrustedTimestamps -->
<g id="node26" class="node"><title>\\Elabftw\\Elabftw\\TrustedTimestamps</title>
<polygon fill="none" stroke="black" points="445,-230 314,-230 314,-194 445,-194 445,-230"/>
<text text-anchor="middle" x="379.5" y="-209.2" font-family="Courier,monospace" font-size="11.00">TrustedTimestamps</text>
</g>
<!-- \\Elabftw\\Elabftw\\ItemsTypesView -->
<g id="node28" class="node"><title>\\Elabftw\\Elabftw\\ItemsTypesView</title>
<polygon fill="none" stroke="black" points="435,-176 324,-176 324,-140 435,-140 435,-176"/>
<text text-anchor="middle" x="379.5" y="-155.2" font-family="Courier,monospace" font-size="11.00">ItemsTypesView</text>
</g>
<!-- \\Elabftw\\Elabftw\\Create -->
<g id="node29" class="node"><title>\\Elabftw\\Elabftw\\Create</title>
<polygon fill="none" stroke="black" points="408,-122 351,-122 351,-86 408,-86 408,-122"/>
<text text-anchor="middle" x="379.5" y="-101.2" font-family="Courier,monospace" font-size="11.00">Create</text>
</g>
<!-- \\Elabftw\\Elabftw\\ImportZip -->
<g id="node30" class="node"><title>\\Elabftw\\Elabftw\\ImportZip</title>
<polygon fill="none" stroke="black" points="418,-68 341,-68 341,-32 418,-32 418,-68"/>
<text text-anchor="middle" x="379.5" y="-47.2" font-family="Courier,monospace" font-size="11.00">ImportZip</text>
</g>
<!-- \\Elabftw\\Elabftw\\ImportZip&#45;&gt;\\Elabftw\\Elabftw\\Import -->
<g id="edge14" class="edge"><title>\\Elabftw\\Elabftw\\ImportZip&#45;&gt;\\Elabftw\\Elabftw\\Import</title>
<path fill="none" stroke="black" d="M340.983,-64.0251C331.958,-67.854 322.48,-72.266 314,-77 284.286,-93.5889 253.027,-116.474 230.938,-133.688"/>
<polygon fill="none" stroke="black" points="228.634,-131.047 222.943,-139.983 232.965,-136.547 228.634,-131.047"/>
</g>
</g>
</svg>
