<?xml version="1.0" encoding="UTF-8" standalone="no"?>
<!DOCTYPE svg PUBLIC "-//W3C//DTD SVG 1.1//EN"
 "http://www.w3.org/Graphics/SVG/1.1/DTD/svg11.dtd">
<!-- Generated by graphviz version 2.38.0 (20140413.2041)
 -->
<!-- Title: G Pages: 1 -->
<svg width="359pt" height="2328pt"
 viewBox="0.00 0.00 359.00 2328.00" xmlns="http://www.w3.org/2000/svg" xmlns:xlink="http://www.w3.org/1999/xlink">
<g id="graph0" class="graph" transform="scale(1 1) rotate(0) translate(4 2324)">
<title>G</title>
<polygon fill="white" stroke="none" points="-4,4 -4,-2324 355,-2324 355,4 -4,4"/>
<g id="clust1" class="cluster"><title>cluster_Global</title>
<path fill="none" stroke="gray" d="M20,-8C20,-8 331,-8 331,-8 337,-8 343,-14 343,-20 343,-20 343,-2300 343,-2300 343,-2306 337,-2312 331,-2312 331,-2312 20,-2312 20,-2312 14,-2312 8,-2306 8,-2300 8,-2300 8,-20 8,-20 8,-14 14,-8 20,-8"/>
<text text-anchor="middle" x="175.5" y="-2299.2" font-family="Times,serif" font-size="11.00" fill="gray">Global</text>
</g>
<g id="clust2" class="cluster"><title>cluster_\Elabftw</title>
<path fill="none" stroke="gray" d="M28,-16C28,-16 323,-16 323,-16 329,-16 335,-22 335,-28 335,-28 335,-2272 335,-2272 335,-2278 329,-2284 323,-2284 323,-2284 28,-2284 28,-2284 22,-2284 16,-2278 16,-2272 16,-2272 16,-28 16,-28 16,-22 22,-16 28,-16"/>
<text text-anchor="middle" x="175.5" y="-2271.2" font-family="Times,serif" font-size="11.00" fill="gray">Elabftw</text>
</g>
<g id="clust3" class="cluster"><title>cluster_\Elabftw\Elabftw</title>
<path fill="none" stroke="gray" d="M36,-24C36,-24 315,-24 315,-24 321,-24 327,-30 327,-36 327,-36 327,-2244 327,-2244 327,-2250 321,-2256 315,-2256 315,-2256 36,-2256 36,-2256 30,-2256 24,-2250 24,-2244 24,-2244 24,-36 24,-36 24,-30 30,-24 36,-24"/>
<text text-anchor="middle" x="175.5" y="-2243.2" font-family="Times,serif" font-size="11.00" fill="gray">Elabftw</text>
</g>
<!-- \\Elabftw\\Elabftw\\Database -->
<g id="node1" class="node"><title>\\Elabftw\\Elabftw\\Database</title>
<polygon fill="none" stroke="black" points="289,-1202 218,-1202 218,-1166 289,-1166 289,-1202"/>
<text text-anchor="middle" x="253.5" y="-1181.2" font-family="Courier,monospace" font-size="11.00">Database</text>
</g>
<!-- \\Elabftw\\Elabftw\\Entity -->
<g id="node13" class="node"><title>\\Elabftw\\Elabftw\\Entity</title>
<polygon fill="none" stroke="black" points="102.5,-1742 45.5,-1742 45.5,-1706 102.5,-1706 102.5,-1742"/>
<text text-anchor="middle" x="74" y="-1721.2" font-family="Courier,monospace" font-size="11.00">Entity</text>
</g>
<!-- \\Elabftw\\Elabftw\\Database&#45;&gt;\\Elabftw\\Elabftw\\Entity -->
<g id="edge1" class="edge"><title>\\Elabftw\\Elabftw\\Database&#45;&gt;\\Elabftw\\Elabftw\\Entity</title>
<path fill="none" stroke="black" d="M217.832,-1191.72C206.863,-1195.77 195.624,-1201.87 188,-1211 124.903,-1286.59 87.854,-1599.63 77.8014,-1695.78"/>
<polygon fill="none" stroke="black" points="74.3017,-1695.6 76.7594,-1705.91 81.2649,-1696.32 74.3017,-1695.6"/>
</g>
<!-- \\Elabftw\\Elabftw\\MolViewer -->
<g id="node2" class="node"><title>\\Elabftw\\Elabftw\\MolViewer</title>
<polygon fill="none" stroke="black" points="292,-2174 215,-2174 215,-2138 292,-2138 292,-2174"/>
<text text-anchor="middle" x="253.5" y="-2153.2" font-family="Courier,monospace" font-size="11.00">MolViewer</text>
</g>
<!-- \\Elabftw\\Elabftw\\Status -->
<g id="node3" class="node"><title>\\Elabftw\\Elabftw\\Status</title>
<polygon fill="none" stroke="black" points="282,-878 225,-878 225,-842 282,-842 282,-878"/>
<text text-anchor="middle" x="253.5" y="-857.2" font-family="Courier,monospace" font-size="11.00">Status</text>
</g>
<!-- \\Elabftw\\Elabftw\\Status&#45;&gt;\\Elabftw\\Elabftw\\Entity -->
<g id="edge2" class="edge"><title>\\Elabftw\\Elabftw\\Status&#45;&gt;\\Elabftw\\Elabftw\\Entity</title>
<path fill="none" stroke="black" d="M224.737,-864.977C211.592,-868.786 196.865,-875.441 188,-887 87.6409,-1017.85 76.4039,-1564.91 75.1546,-1695.78"/>
<polygon fill="none" stroke="black" points="71.6545,-1695.79 75.0711,-1705.81 78.6543,-1695.84 71.6545,-1695.79"/>
</g>
<!-- \\Elabftw\\Elabftw\\Users -->
<g id="node4" class="node"><title>\\Elabftw\\Elabftw\\Users</title>
<polygon fill="none" stroke="black" points="280.5,-2228 226.5,-2228 226.5,-2192 280.5,-2192 280.5,-2228"/>
<text text-anchor="middle" x="253.5" y="-2207.2" font-family="Courier,monospace" font-size="11.00">Users</text>
</g>
<!-- \\Elabftw\\Elabftw\\Auth -->
<g id="node6" class="node"><title>\\Elabftw\\Elabftw\\Auth</title>
<polygon fill="none" stroke="black" points="101,-2228 47,-2228 47,-2192 101,-2192 101,-2228"/>
<text text-anchor="middle" x="74" y="-2207.2" font-family="Courier,monospace" font-size="11.00">Auth</text>
</g>
<!-- \\Elabftw\\Elabftw\\Users&#45;&gt;\\Elabftw\\Elabftw\\Auth -->
<g id="edge3" class="edge"><title>\\Elabftw\\Elabftw\\Users&#45;&gt;\\Elabftw\\Elabftw\\Auth</title>
<path fill="none" stroke="black" d="M226.309,-2210C195.809,-2210 145.251,-2210 111.056,-2210"/>
<polygon fill="none" stroke="black" points="111.009,-2206.5 101.009,-2210 111.009,-2213.5 111.009,-2206.5"/>
</g>
<!-- \\Elabftw\\Elabftw\\Links -->
<g id="node5" class="node"><title>\\Elabftw\\Elabftw\\Links</title>
<polygon fill="none" stroke="black" points="280.5,-770 226.5,-770 226.5,-734 280.5,-734 280.5,-770"/>
<text text-anchor="middle" x="253.5" y="-749.2" font-family="Courier,monospace" font-size="11.00">Links</text>
</g>
<!-- \\Elabftw\\Elabftw\\Links&#45;&gt;\\Elabftw\\Elabftw\\Entity -->
<g id="edge4" class="edge"><title>\\Elabftw\\Elabftw\\Links&#45;&gt;\\Elabftw\\Elabftw\\Entity</title>
<path fill="none" stroke="black" d="M226.299,-756.461C212.735,-760.168 197.143,-766.89 188,-779 75.1933,-928.416 73.5553,-1553.8 74.6658,-1695.41"/>
<polygon fill="none" stroke="black" points="71.1696,-1695.86 74.7599,-1705.83 78.1693,-1695.8 71.1696,-1695.86"/>
</g>
<!-- \\Elabftw\\Elabftw\\Comments -->
<g id="node7" class="node"><title>\\Elabftw\\Elabftw\\Comments</title>
<polygon fill="none" stroke="black" points="289,-2120 218,-2120 218,-2084 289,-2084 289,-2120"/>
<text text-anchor="middle" x="253.5" y="-2099.2" font-family="Courier,monospace" font-size="11.00">Comments</text>
</g>
<!-- \\Elabftw\\Elabftw\\Comments&#45;&gt;\\Elabftw\\Elabftw\\Entity -->
<g id="edge5" class="edge"><title>\\Elabftw\\Elabftw\\Comments&#45;&gt;\\Elabftw\\Elabftw\\Entity</title>
<path fill="none" stroke="black" d="M217.981,-2093.73C207.154,-2089.65 195.965,-2083.67 188,-2075 101.012,-1980.29 80.963,-1818.09 76.3619,-1752.64"/>
<polygon fill="none" stroke="black" points="79.8313,-1752.04 75.7085,-1742.28 72.8452,-1752.48 79.8313,-1752.04"/>
</g>
<!-- \\Elabftw\\Elabftw\\Teams -->
<g id="node8" class="node"><title>\\Elabftw\\Elabftw\\Teams</title>
<polygon fill="none" stroke="black" points="280.5,-1904 226.5,-1904 226.5,-1868 280.5,-1868 280.5,-1904"/>
<text text-anchor="middle" x="253.5" y="-1883.2" font-family="Courier,monospace" font-size="11.00">Teams</text>
</g>
<!-- \\Elabftw\\Elabftw\\Import -->
<g id="node9" class="node"><title>\\Elabftw\\Elabftw\\Import</title>
<polygon fill="none" stroke="black" points="116,-392 32,-392 32,-356 116,-356 116,-392"/>
<text text-anchor="start" x="40" y="-377.2" font-family="Courier,monospace" font-size="11.00">«abstract»</text>
<text text-anchor="start" x="53.5" y="-365.2" font-family="Courier,monospace" font-size="11.00">Import</text>
</g>
<!-- \\Elabftw\\Elabftw\\ExperimentsView -->
<g id="node10" class="node"><title>\\Elabftw\\Elabftw\\ExperimentsView</title>
<polygon fill="none" stroke="black" points="312.5,-554 194.5,-554 194.5,-518 312.5,-518 312.5,-554"/>
<text text-anchor="middle" x="253.5" y="-533.2" font-family="Courier,monospace" font-size="11.00">ExperimentsView</text>
</g>
<!-- \\Elabftw\\Elabftw\\EntityView -->
<g id="node46" class="node"><title>\\Elabftw\\Elabftw\\EntityView</title>
<polygon fill="none" stroke="black" points="116,-554 32,-554 32,-518 116,-518 116,-554"/>
<text text-anchor="middle" x="74" y="-533.2" font-family="Courier,monospace" font-size="11.00">EntityView</text>
</g>
<!-- \\Elabftw\\Elabftw\\ExperimentsView&#45;&gt;\\Elabftw\\Elabftw\\EntityView -->
<g id="edge6" class="edge"><title>\\Elabftw\\Elabftw\\ExperimentsView&#45;&gt;\\Elabftw\\Elabftw\\EntityView</title>
<path fill="none" stroke="black" d="M194.38,-536C172.397,-536 147.557,-536 126.25,-536"/>
<polygon fill="none" stroke="black" points="126.102,-532.5 116.102,-536 126.102,-539.5 126.102,-532.5"/>
</g>
<!-- \\Elabftw\\Elabftw\\Make -->
<g id="node11" class="node"><title>\\Elabftw\\Elabftw\\Make</title>
<polygon fill="none" stroke="black" points="116,-176 32,-176 32,-140 116,-140 116,-176"/>
<text text-anchor="start" x="40" y="-161.2" font-family="Courier,monospace" font-size="11.00">«abstract»</text>
<text text-anchor="start" x="60" y="-149.2" font-family="Courier,monospace" font-size="11.00">Make</text>
</g>
<!-- \\Elabftw\\Elabftw\\TeamGroupsView -->
<g id="node12" class="node"><title>\\Elabftw\\Elabftw\\TeamGroupsView</title>
<polygon fill="none" stroke="black" points="309,-1796 198,-1796 198,-1760 309,-1760 309,-1796"/>
<text text-anchor="middle" x="253.5" y="-1775.2" font-family="Courier,monospace" font-size="11.00">TeamGroupsView</text>
</g>
<!-- \\Elabftw\\Elabftw\\Templates -->
<g id="node14" class="node"><title>\\Elabftw\\Elabftw\\Templates</title>
<polygon fill="none" stroke="black" points="292,-2066 215,-2066 215,-2030 292,-2030 292,-2066"/>
<text text-anchor="middle" x="253.5" y="-2045.2" font-family="Courier,monospace" font-size="11.00">Templates</text>
</g>
<!-- \\Elabftw\\Elabftw\\Templates&#45;&gt;\\Elabftw\\Elabftw\\Entity -->
<g id="edge7" class="edge"><title>\\Elabftw\\Elabftw\\Templates&#45;&gt;\\Elabftw\\Elabftw\\Entity</title>
<path fill="none" stroke="black" d="M214.887,-2038.16C205.146,-2034.14 195.344,-2028.59 188,-2021 112.855,-1943.34 86.5484,-1810.65 78.3364,-1752.6"/>
<polygon fill="none" stroke="black" points="81.7595,-1751.79 76.9659,-1742.34 74.8211,-1752.72 81.7595,-1751.79"/>
</g>
<!-- \\Elabftw\\Elabftw\\Config -->
<g id="node15" class="node"><title>\\Elabftw\\Elabftw\\Config</title>
<polygon fill="none" stroke="black" points="282,-1688 225,-1688 225,-1652 282,-1652 282,-1688"/>
<text text-anchor="middle" x="253.5" y="-1667.2" font-family="Courier,monospace" font-size="11.00">Config</text>
</g>
<!-- \\Elabftw\\Elabftw\\TagCloud -->
<g id="node16" class="node"><title>\\Elabftw\\Elabftw\\TagCloud</title>
<polygon fill="none" stroke="black" points="289,-1634 218,-1634 218,-1598 289,-1598 289,-1634"/>
<text text-anchor="middle" x="253.5" y="-1613.2" font-family="Courier,monospace" font-size="11.00">TagCloud</text>
</g>
<!-- \\Elabftw\\Elabftw\\Revisions -->
<g id="node17" class="node"><title>\\Elabftw\\Elabftw\\Revisions</title>
<polygon fill="none" stroke="black" points="292,-1580 215,-1580 215,-1544 292,-1544 292,-1580"/>
<text text-anchor="middle" x="253.5" y="-1559.2" font-family="Courier,monospace" font-size="11.00">Revisions</text>
</g>
<!-- \\Elabftw\\Elabftw\\ItemsTypesView -->
<g id="node18" class="node"><title>\\Elabftw\\Elabftw\\ItemsTypesView</title>
<polygon fill="none" stroke="black" points="309,-1526 198,-1526 198,-1490 309,-1490 309,-1526"/>
<text text-anchor="middle" x="253.5" y="-1505.2" font-family="Courier,monospace" font-size="11.00">ItemsTypesView</text>
</g>
<!-- \\Elabftw\\Elabftw\\StatusView -->
<g id="node19" class="node"><title>\\Elabftw\\Elabftw\\StatusView</title>
<polygon fill="none" stroke="black" points="295.5,-1472 211.5,-1472 211.5,-1436 295.5,-1436 295.5,-1472"/>
<text text-anchor="middle" x="253.5" y="-1451.2" font-family="Courier,monospace" font-size="11.00">StatusView</text>
</g>
<!-- \\Elabftw\\Elabftw\\UploadsView -->
<g id="node20" class="node"><title>\\Elabftw\\Elabftw\\UploadsView</title>
<polygon fill="none" stroke="black" points="299,-662 208,-662 208,-626 299,-626 299,-662"/>
<text text-anchor="middle" x="253.5" y="-641.2" font-family="Courier,monospace" font-size="11.00">UploadsView</text>
</g>
<!-- \\Elabftw\\Elabftw\\UploadsView&#45;&gt;\\Elabftw\\Elabftw\\EntityView -->
<g id="edge8" class="edge"><title>\\Elabftw\\Elabftw\\UploadsView&#45;&gt;\\Elabftw\\Elabftw\\EntityView</title>
<path fill="none" stroke="black" d="M207.809,-626.844C201.051,-623.808 194.254,-620.491 188,-617 158.286,-600.411 127.027,-577.526 104.938,-560.312"/>
<polygon fill="none" stroke="black" points="106.965,-557.453 96.9428,-554.017 102.634,-562.953 106.965,-557.453"/>
</g>
<!-- \\Elabftw\\Elabftw\\SysconfigView -->
<g id="node21" class="node"><title>\\Elabftw\\Elabftw\\SysconfigView</title>
<polygon fill="none" stroke="black" points="305.5,-1364 201.5,-1364 201.5,-1328 305.5,-1328 305.5,-1364"/>
<text text-anchor="middle" x="253.5" y="-1343.2" font-family="Courier,monospace" font-size="11.00">SysconfigView</text>
</g>
<!-- \\Elabftw\\Elabftw\\UserStats -->
<g id="node22" class="node"><title>\\Elabftw\\Elabftw\\UserStats</title>
<polygon fill="none" stroke="black" points="292,-1310 215,-1310 215,-1274 292,-1274 292,-1310"/>
<text text-anchor="middle" x="253.5" y="-1289.2" font-family="Courier,monospace" font-size="11.00">UserStats</text>
</g>
<!-- \\Elabftw\\Elabftw\\Formkey -->
<g id="node23" class="node"><title>\\Elabftw\\Elabftw\\Formkey</title>
<polygon fill="none" stroke="black" points="285.5,-1256 221.5,-1256 221.5,-1220 285.5,-1220 285.5,-1256"/>
<text text-anchor="middle" x="253.5" y="-1235.2" font-family="Courier,monospace" font-size="11.00">Formkey</text>
</g>
<!-- \\Elabftw\\Elabftw\\ItemsTypes -->
<g id="node24" class="node"><title>\\Elabftw\\Elabftw\\ItemsTypes</title>
<polygon fill="none" stroke="black" points="295.5,-2012 211.5,-2012 211.5,-1976 295.5,-1976 295.5,-2012"/>
<text text-anchor="middle" x="253.5" y="-1991.2" font-family="Courier,monospace" font-size="11.00">ItemsTypes</text>
</g>
<!-- \\Elabftw\\Elabftw\\ItemsTypes&#45;&gt;\\Elabftw\\Elabftw\\Entity -->
<g id="edge9" class="edge"><title>\\Elabftw\\Elabftw\\ItemsTypes&#45;&gt;\\Elabftw\\Elabftw\\Entity</title>
<path fill="none" stroke="black" d="M211.205,-1982.06C202.815,-1978.24 194.562,-1973.31 188,-1967 124.428,-1905.85 93.0406,-1802 81.0337,-1752.23"/>
<polygon fill="none" stroke="black" points="84.3724,-1751.13 78.6987,-1742.19 77.5542,-1752.72 84.3724,-1751.13"/>
</g>
<!-- \\Elabftw\\Elabftw\\Tools -->
<g id="node25" class="node"><title>\\Elabftw\\Elabftw\\Tools</title>
<polygon fill="none" stroke="black" points="280.5,-1148 226.5,-1148 226.5,-1112 280.5,-1112 280.5,-1148"/>
<text text-anchor="middle" x="253.5" y="-1127.2" font-family="Courier,monospace" font-size="11.00">Tools</text>
</g>
<!-- \\Elabftw\\Elabftw\\Db -->
<g id="node26" class="node"><title>\\Elabftw\\Elabftw\\Db</title>
<polygon fill="none" stroke="black" points="280.5,-1094 226.5,-1094 226.5,-1058 280.5,-1058 280.5,-1094"/>
<text text-anchor="middle" x="253.5" y="-1073.2" font-family="Courier,monospace" font-size="11.00">Db</text>
</g>
<!-- \\Elabftw\\Elabftw\\TeamsView -->
<g id="node27" class="node"><title>\\Elabftw\\Elabftw\\TeamsView</title>
<polygon fill="none" stroke="black" points="292,-1040 215,-1040 215,-1004 292,-1004 292,-1040"/>
<text text-anchor="middle" x="253.5" y="-1019.2" font-family="Courier,monospace" font-size="11.00">TeamsView</text>
</g>
<!-- \\Elabftw\\Elabftw\\UsersView -->
<g id="node28" class="node"><title>\\Elabftw\\Elabftw\\UsersView</title>
<polygon fill="none" stroke="black" points="292,-986 215,-986 215,-950 292,-950 292,-986"/>
<text text-anchor="middle" x="253.5" y="-965.2" font-family="Courier,monospace" font-size="11.00">UsersView</text>
</g>
<!-- \\Elabftw\\Elabftw\\Experiments -->
<g id="node29" class="node"><title>\\Elabftw\\Elabftw\\Experiments</title>
<polygon fill="none" stroke="black" points="299,-1958 208,-1958 208,-1922 299,-1922 299,-1958"/>
<text text-anchor="middle" x="253.5" y="-1937.2" font-family="Courier,monospace" font-size="11.00">Experiments</text>
</g>
<!-- \\Elabftw\\Elabftw\\Experiments&#45;&gt;\\Elabftw\\Elabftw\\Entity -->
<g id="edge10" class="edge"><title>\\Elabftw\\Elabftw\\Experiments&#45;&gt;\\Elabftw\\Elabftw\\Entity</title>
<path fill="none" stroke="black" d="M207.985,-1925.81C200.837,-1922.32 193.871,-1918.09 188,-1913 135.804,-1867.75 100.996,-1792.22 85.033,-1751.7"/>
<polygon fill="none" stroke="black" points="88.2338,-1750.27 81.3816,-1742.19 81.6991,-1752.78 88.2338,-1750.27"/>
</g>
<!-- \\Elabftw\\Elabftw\\ImportZip -->
<g id="node30" class="node"><title>\\Elabftw\\Elabftw\\ImportZip</title>
<polygon fill="none" stroke="black" points="292,-446 215,-446 215,-410 292,-410 292,-446"/>
<text text-anchor="middle" x="253.5" y="-425.2" font-family="Courier,monospace" font-size="11.00">ImportZip</text>
</g>
<!-- \\Elabftw\\Elabftw\\ImportZip&#45;&gt;\\Elabftw\\Elabftw\\Import -->
<g id="edge11" class="edge"><title>\\Elabftw\\Elabftw\\ImportZip&#45;&gt;\\Elabftw\\Elabftw\\Import</title>
<path fill="none" stroke="black" d="M214.857,-416.548C189.004,-408.683 154.374,-398.148 126.042,-389.528"/>
<polygon fill="none" stroke="black" points="126.894,-386.129 116.308,-386.567 124.856,-392.826 126.894,-386.129"/>
</g>
<!-- \\Elabftw\\Elabftw\\Email -->
<g id="node31" class="node"><title>\\Elabftw\\Elabftw\\Email</title>
<polygon fill="none" stroke="black" points="280.5,-824 226.5,-824 226.5,-788 280.5,-788 280.5,-824"/>
<text text-anchor="middle" x="253.5" y="-803.2" font-family="Courier,monospace" font-size="11.00">Email</text>
</g>
<!-- \\Elabftw\\Elabftw\\MakeCsv -->
<g id="node32" class="node"><title>\\Elabftw\\Elabftw\\MakeCsv</title>
<polygon fill="none" stroke="black" points="285.5,-122 221.5,-122 221.5,-86 285.5,-86 285.5,-122"/>
<text text-anchor="middle" x="253.5" y="-101.2" font-family="Courier,monospace" font-size="11.00">MakeCsv</text>
</g>
<!-- \\Elabftw\\Elabftw\\MakeCsv&#45;&gt;\\Elabftw\\Elabftw\\Make -->
<g id="edge12" class="edge"><title>\\Elabftw\\Elabftw\\MakeCsv&#45;&gt;\\Elabftw\\Elabftw\\Make</title>
<path fill="none" stroke="black" d="M221.175,-113.53C194.772,-121.562 156.486,-133.21 125.72,-142.57"/>
<polygon fill="none" stroke="black" points="124.568,-139.262 116.02,-145.521 126.606,-145.959 124.568,-139.262"/>
</g>
<!-- \\Elabftw\\Elabftw\\BannedUsers -->
<g id="node33" class="node"><title>\\Elabftw\\Elabftw\\BannedUsers</title>
<polygon fill="none" stroke="black" points="299,-716 208,-716 208,-680 299,-680 299,-716"/>
<text text-anchor="middle" x="253.5" y="-695.2" font-family="Courier,monospace" font-size="11.00">BannedUsers</text>
</g>
<!-- \\Elabftw\\Elabftw\\Uploads -->
<g id="node34" class="node"><title>\\Elabftw\\Elabftw\\Uploads</title>
<polygon fill="none" stroke="black" points="285.5,-1850 221.5,-1850 221.5,-1814 285.5,-1814 285.5,-1850"/>
<text text-anchor="middle" x="253.5" y="-1829.2" font-family="Courier,monospace" font-size="11.00">Uploads</text>
</g>
<!-- \\Elabftw\\Elabftw\\Uploads&#45;&gt;\\Elabftw\\Elabftw\\Entity -->
<g id="edge13" class="edge"><title>\\Elabftw\\Elabftw\\Uploads&#45;&gt;\\Elabftw\\Elabftw\\Entity</title>
<path fill="none" stroke="black" d="M221.318,-1820.6C210.517,-1816.22 198.493,-1810.86 188,-1805 158.286,-1788.41 127.027,-1765.53 104.938,-1748.31"/>
<polygon fill="none" stroke="black" points="106.965,-1745.45 96.9428,-1742.02 102.634,-1750.95 106.965,-1745.45"/>
</g>
<!-- \\Elabftw\\Elabftw\\TeamGroups -->
<g id="node35" class="node"><title>\\Elabftw\\Elabftw\\TeamGroups</title>
<polygon fill="none" stroke="black" points="295.5,-608 211.5,-608 211.5,-572 295.5,-572 295.5,-608"/>
<text text-anchor="middle" x="253.5" y="-587.2" font-family="Courier,monospace" font-size="11.00">TeamGroups</text>
</g>
<!-- \\Elabftw\\Elabftw\\MakeZip -->
<g id="node36" class="node"><title>\\Elabftw\\Elabftw\\MakeZip</title>
<polygon fill="none" stroke="black" points="285.5,-176 221.5,-176 221.5,-140 285.5,-140 285.5,-176"/>
<text text-anchor="middle" x="253.5" y="-155.2" font-family="Courier,monospace" font-size="11.00">MakeZip</text>
</g>
<!-- \\Elabftw\\Elabftw\\MakeZip&#45;&gt;\\Elabftw\\Elabftw\\Make -->
<g id="edge14" class="edge"><title>\\Elabftw\\Elabftw\\MakeZip&#45;&gt;\\Elabftw\\Elabftw\\Make</title>
<path fill="none" stroke="black" d="M221.175,-158C194.887,-158 156.818,-158 126.12,-158"/>
<polygon fill="none" stroke="black" points="126.02,-154.5 116.02,-158 126.02,-161.5 126.02,-154.5"/>
</g>
<!-- \\Elabftw\\Elabftw\\DatabaseView -->
<g id="node37" class="node"><title>\\Elabftw\\Elabftw\\DatabaseView</title>
<polygon fill="none" stroke="black" points="302.5,-500 204.5,-500 204.5,-464 302.5,-464 302.5,-500"/>
<text text-anchor="middle" x="253.5" y="-479.2" font-family="Courier,monospace" font-size="11.00">DatabaseView</text>
</g>
<!-- \\Elabftw\\Elabftw\\DatabaseView&#45;&gt;\\Elabftw\\Elabftw\\EntityView -->
<g id="edge15" class="edge"><title>\\Elabftw\\Elabftw\\DatabaseView&#45;&gt;\\Elabftw\\Elabftw\\EntityView</title>
<path fill="none" stroke="black" d="M204.466,-496.613C180.084,-504.031 150.468,-513.041 125.718,-520.57"/>
<polygon fill="none" stroke="black" points="124.691,-517.224 116.143,-523.483 126.729,-523.921 124.691,-517.224"/>
</g>
<!-- \\Elabftw\\Elabftw\\ImportCsv -->
<g id="node38" class="node"><title>\\Elabftw\\Elabftw\\ImportCsv</title>
<polygon fill="none" stroke="black" points="292,-338 215,-338 215,-302 292,-302 292,-338"/>
<text text-anchor="middle" x="253.5" y="-317.2" font-family="Courier,monospace" font-size="11.00">ImportCsv</text>
</g>
<!-- \\Elabftw\\Elabftw\\ImportCsv&#45;&gt;\\Elabftw\\Elabftw\\Import -->
<g id="edge16" class="edge"><title>\\Elabftw\\Elabftw\\ImportCsv&#45;&gt;\\Elabftw\\Elabftw\\Import</title>
<path fill="none" stroke="black" d="M214.857,-331.452C189.004,-339.317 154.374,-349.852 126.042,-358.472"/>
<polygon fill="none" stroke="black" points="124.856,-355.174 116.308,-361.433 126.894,-361.871 124.856,-355.174"/>
</g>
<!-- \\Elabftw\\Elabftw\\Sysconfig -->
<g id="node39" class="node"><title>\\Elabftw\\Elabftw\\Sysconfig</title>
<polygon fill="none" stroke="black" points="292,-392 215,-392 215,-356 292,-356 292,-392"/>
<text text-anchor="middle" x="253.5" y="-371.2" font-family="Courier,monospace" font-size="11.00">Sysconfig</text>
</g>
<!-- \\Elabftw\\Elabftw\\Tags -->
<g id="node40" class="node"><title>\\Elabftw\\Elabftw\\Tags</title>
<polygon fill="none" stroke="black" points="280.5,-1742 226.5,-1742 226.5,-1706 280.5,-1706 280.5,-1742"/>
<text text-anchor="middle" x="253.5" y="-1721.2" font-family="Courier,monospace" font-size="11.00">Tags</text>
</g>
<!-- \\Elabftw\\Elabftw\\Tags&#45;&gt;\\Elabftw\\Elabftw\\Entity -->
<g id="edge17" class="edge"><title>\\Elabftw\\Elabftw\\Tags&#45;&gt;\\Elabftw\\Elabftw\\Entity</title>
<path fill="none" stroke="black" d="M226.309,-1724C196.333,-1724 146.984,-1724 112.834,-1724"/>
<polygon fill="none" stroke="black" points="112.762,-1720.5 102.762,-1724 112.762,-1727.5 112.762,-1720.5"/>
</g>
<!-- \\Elabftw\\Elabftw\\MakePdf -->
<g id="node41" class="node"><title>\\Elabftw\\Elabftw\\MakePdf</title>
<polygon fill="none" stroke="black" points="285.5,-284 221.5,-284 221.5,-248 285.5,-248 285.5,-284"/>
<text text-anchor="middle" x="253.5" y="-263.2" font-family="Courier,monospace" font-size="11.00">MakePdf</text>
</g>
<!-- \\Elabftw\\Elabftw\\MakePdf&#45;&gt;\\Elabftw\\Elabftw\\Make -->
<g id="edge18" class="edge"><title>\\Elabftw\\Elabftw\\MakePdf&#45;&gt;\\Elabftw\\Elabftw\\Make</title>
<path fill="none" stroke="black" d="M221.318,-254.601C210.517,-250.224 198.493,-244.858 188,-239 158.286,-222.411 127.027,-199.526 104.938,-182.312"/>
<polygon fill="none" stroke="black" points="106.965,-179.453 96.9428,-176.017 102.634,-184.953 106.965,-179.453"/>
</g>
<!-- \\Elabftw\\Elabftw\\Update -->
<g id="node42" class="node"><title>\\Elabftw\\Elabftw\\Update</title>
<polygon fill="none" stroke="black" points="282,-230 225,-230 225,-194 282,-194 282,-230"/>
<text text-anchor="middle" x="253.5" y="-209.2" font-family="Courier,monospace" font-size="11.00">Update</text>
</g>
<!-- \\Elabftw\\Elabftw\\TrustedTimestamps -->
<g id="node43" class="node"><title>\\Elabftw\\Elabftw\\TrustedTimestamps</title>
<polygon fill="none" stroke="black" points="319,-1418 188,-1418 188,-1382 319,-1382 319,-1418"/>
<text text-anchor="middle" x="253.5" y="-1397.2" font-family="Courier,monospace" font-size="11.00">TrustedTimestamps</text>
</g>
<!-- \\Elabftw\\Elabftw\\TrustedTimestamps&#45;&gt;\\Elabftw\\Elabftw\\Entity -->
<g id="edge19" class="edge"><title>\\Elabftw\\Elabftw\\TrustedTimestamps&#45;&gt;\\Elabftw\\Elabftw\\Entity</title>
<path fill="none" stroke="black" d="M198.82,-1418.18C194.884,-1420.76 191.208,-1423.68 188,-1427 112.855,-1504.66 86.5484,-1637.35 78.3364,-1695.4"/>
<polygon fill="none" stroke="black" points="74.8211,-1695.28 76.9659,-1705.66 81.7595,-1696.21 74.8211,-1695.28"/>
</g>
<!-- \\Elabftw\\Elabftw\\Scheduler -->
<g id="node44" class="node"><title>\\Elabftw\\Elabftw\\Scheduler</title>
<polygon fill="none" stroke="black" points="292,-932 215,-932 215,-896 292,-896 292,-932"/>
<text text-anchor="middle" x="253.5" y="-911.2" font-family="Courier,monospace" font-size="11.00">Scheduler</text>
</g>
<!-- \\Elabftw\\Elabftw\\Scheduler&#45;&gt;\\Elabftw\\Elabftw\\Entity -->
<g id="edge20" class="edge"><title>\\Elabftw\\Elabftw\\Scheduler&#45;&gt;\\Elabftw\\Elabftw\\Entity</title>
<path fill="none" stroke="black" d="M214.748,-922.438C204.646,-926.459 194.689,-932.361 188,-941 93.9331,-1062.49 77.977,-1569.74 75.4496,-1695.63"/>
<polygon fill="none" stroke="black" points="71.944,-1695.9 75.2557,-1705.97 78.9428,-1696.03 71.944,-1695.9"/>
</g>
<!-- \\Elabftw\\Elabftw\\Logs -->
<g id="node45" class="node"><title>\\Elabftw\\Elabftw\\Logs</title>
<polygon fill="none" stroke="black" points="280.5,-68 226.5,-68 226.5,-32 280.5,-32 280.5,-68"/>
<text text-anchor="middle" x="253.5" y="-47.2" font-family="Courier,monospace" font-size="11.00">Logs</text>
</g>
</g>
</svg>
