<?xml version="1.0" encoding="UTF-8" standalone="no"?>
<!DOCTYPE svg PUBLIC "-//W3C//DTD SVG 1.1//EN"
 "http://www.w3.org/Graphics/SVG/1.1/DTD/svg11.dtd">
<!-- Generated by graphviz version 2.38.0 (20140413.2041)
 -->
<!-- Title: G Pages: 1 -->
<svg width="203pt" height="816pt"
 viewBox="0.00 0.00 203.00 816.00" xmlns="http://www.w3.org/2000/svg" xmlns:xlink="http://www.w3.org/1999/xlink">
<g id="graph0" class="graph" transform="scale(1 1) rotate(0) translate(4 812)">
<title>G</title>
<polygon fill="white" stroke="none" points="-4,4 -4,-812 199,-812 199,4 -4,4"/>
<g id="clust1" class="cluster"><title>cluster_Global</title>
<path fill="none" stroke="gray" d="M20,-8C20,-8 175,-8 175,-8 181,-8 187,-14 187,-20 187,-20 187,-788 187,-788 187,-794 181,-800 175,-800 175,-800 20,-800 20,-800 14,-800 8,-794 8,-788 8,-788 8,-20 8,-20 8,-14 14,-8 20,-8"/>
<text text-anchor="middle" x="97.5" y="-787.2" font-family="Times,serif" font-size="11.00" fill="gray">Global</text>
</g>
<g id="clust2" class="cluster"><title>cluster_\Elabftw</title>
<path fill="none" stroke="gray" d="M28,-16C28,-16 167,-16 167,-16 173,-16 179,-22 179,-28 179,-28 179,-760 179,-760 179,-766 173,-772 167,-772 167,-772 28,-772 28,-772 22,-772 16,-766 16,-760 16,-760 16,-28 16,-28 16,-22 22,-16 28,-16"/>
<text text-anchor="middle" x="97.5" y="-759.2" font-family="Times,serif" font-size="11.00" fill="gray">Elabftw</text>
</g>
<g id="clust3" class="cluster"><title>cluster_\Elabftw\Elabftw</title>
<path fill="none" stroke="gray" d="M36,-24C36,-24 159,-24 159,-24 165,-24 171,-30 171,-36 171,-36 171,-732 171,-732 171,-738 165,-744 159,-744 159,-744 36,-744 36,-744 30,-744 24,-738 24,-732 24,-732 24,-36 24,-36 24,-30 30,-24 36,-24"/>
<text text-anchor="middle" x="97.5" y="-731.2" font-family="Times,serif" font-size="11.00" fill="gray">Elabftw</text>
</g>
<!-- \\Elabftw\\Elabftw\\User -->
<g id="node1" class="node"><title>\\Elabftw\\Elabftw\\User</title>
<polygon fill="none" stroke="black" points="124.5,-716 70.5,-716 70.5,-680 124.5,-680 124.5,-716"/>
<text text-anchor="middle" x="97.5" y="-695.2" font-family="Courier,monospace" font-size="11.00">User</text>
</g>
<!-- \\Elabftw\\Elabftw\\FormKey -->
<g id="node2" class="node"><title>\\Elabftw\\Elabftw\\FormKey</title>
<polygon fill="none" stroke="black" points="129.5,-662 65.5,-662 65.5,-626 129.5,-626 129.5,-662"/>
<text text-anchor="middle" x="97.5" y="-641.2" font-family="Courier,monospace" font-size="11.00">FormKey</text>
</g>
<!-- \\Elabftw\\Elabftw\\SysConfig -->
<g id="node3" class="node"><title>\\Elabftw\\Elabftw\\SysConfig</title>
<polygon fill="none" stroke="black" points="136,-608 59,-608 59,-572 136,-572 136,-608"/>
<text text-anchor="middle" x="97.5" y="-587.2" font-family="Courier,monospace" font-size="11.00">SysConfig</text>
</g>
<!-- \\Elabftw\\Elabftw\\Create -->
<g id="node4" class="node"><title>\\Elabftw\\Elabftw\\Create</title>
<polygon fill="none" stroke="black" points="126,-554 69,-554 69,-518 126,-518 126,-554"/>
<text text-anchor="middle" x="97.5" y="-533.2" font-family="Courier,monospace" font-size="11.00">Create</text>
</g>
<!-- \\Elabftw\\Elabftw\\Tools -->
<g id="node5" class="node"><title>\\Elabftw\\Elabftw\\Tools</title>
<polygon fill="none" stroke="black" points="124.5,-500 70.5,-500 70.5,-464 124.5,-464 124.5,-500"/>
<text text-anchor="middle" x="97.5" y="-479.2" font-family="Courier,monospace" font-size="11.00">Tools</text>
</g>
<!-- \\Elabftw\\Elabftw\\Db -->
<g id="node6" class="node"><title>\\Elabftw\\Elabftw\\Db</title>
<polygon fill="none" stroke="black" points="124.5,-446 70.5,-446 70.5,-410 124.5,-410 124.5,-446"/>
<text text-anchor="middle" x="97.5" y="-425.2" font-family="Courier,monospace" font-size="11.00">Db</text>
</g>
<!-- \\Elabftw\\Elabftw\\Crypto -->
<g id="node7" class="node"><title>\\Elabftw\\Elabftw\\Crypto</title>
<polygon fill="none" stroke="black" points="126,-392 69,-392 69,-356 126,-356 126,-392"/>
<text text-anchor="middle" x="97.5" y="-371.2" font-family="Courier,monospace" font-size="11.00">Crypto</text>
</g>
<!-- \\Elabftw\\Elabftw\\ImportZip -->
<g id="node8" class="node"><title>\\Elabftw\\Elabftw\\ImportZip</title>
<polygon fill="none" stroke="black" points="136,-338 59,-338 59,-302 136,-302 136,-338"/>
<text text-anchor="middle" x="97.5" y="-317.2" font-family="Courier,monospace" font-size="11.00">ImportZip</text>
</g>
<!-- \\Elabftw\\Elabftw\\MakeCsv -->
<g id="node9" class="node"><title>\\Elabftw\\Elabftw\\MakeCsv</title>
<polygon fill="none" stroke="black" points="129.5,-284 65.5,-284 65.5,-248 129.5,-248 129.5,-284"/>
<text text-anchor="middle" x="97.5" y="-263.2" font-family="Courier,monospace" font-size="11.00">MakeCsv</text>
</g>
<!-- \\Elabftw\\Elabftw\\MakeZip -->
<g id="node10" class="node"><title>\\Elabftw\\Elabftw\\MakeZip</title>
<polygon fill="none" stroke="black" points="129.5,-230 65.5,-230 65.5,-194 129.5,-194 129.5,-230"/>
<text text-anchor="middle" x="97.5" y="-209.2" font-family="Courier,monospace" font-size="11.00">MakeZip</text>
</g>
<!-- \\Elabftw\\Elabftw\\MakePdf -->
<g id="node11" class="node"><title>\\Elabftw\\Elabftw\\MakePdf</title>
<polygon fill="none" stroke="black" points="129.5,-176 65.5,-176 65.5,-140 129.5,-140 129.5,-176"/>
<text text-anchor="middle" x="97.5" y="-155.2" font-family="Courier,monospace" font-size="11.00">MakePdf</text>
</g>
<!-- \\Elabftw\\Elabftw\\Update -->
<g id="node12" class="node"><title>\\Elabftw\\Elabftw\\Update</title>
<polygon fill="none" stroke="black" points="126,-122 69,-122 69,-86 126,-86 126,-122"/>
<text text-anchor="middle" x="97.5" y="-101.2" font-family="Courier,monospace" font-size="11.00">Update</text>
</g>
<!-- \\Elabftw\\Elabftw\\TrustedTimestamps -->
<g id="node13" class="node"><title>\\Elabftw\\Elabftw\\TrustedTimestamps</title>
<polygon fill="none" stroke="black" points="163,-68 32,-68 32,-32 163,-32 163,-68"/>
<text text-anchor="middle" x="97.5" y="-47.2" font-family="Courier,monospace" font-size="11.00">TrustedTimestamps</text>
</g>
</g>
</svg>
