<?xml version="1.0" encoding="UTF-8" standalone="no"?>
<!DOCTYPE svg PUBLIC "-//W3C//DTD SVG 1.1//EN"
 "http://www.w3.org/Graphics/SVG/1.1/DTD/svg11.dtd">
<!-- Generated by graphviz version 2.38.0 (20140413.2041)
 -->
<!-- Title: G Pages: 1 -->
<svg width="329pt" height="816pt"
 viewBox="0.00 0.00 329.00 816.00" xmlns="http://www.w3.org/2000/svg" xmlns:xlink="http://www.w3.org/1999/xlink">
<g id="graph0" class="graph" transform="scale(1 1) rotate(0) translate(4 812)">
<title>G</title>
<polygon fill="white" stroke="none" points="-4,4 -4,-812 325,-812 325,4 -4,4"/>
<g id="clust1" class="cluster"><title>cluster_Global</title>
<path fill="none" stroke="gray" d="M20,-8C20,-8 301,-8 301,-8 307,-8 313,-14 313,-20 313,-20 313,-788 313,-788 313,-794 307,-800 301,-800 301,-800 20,-800 20,-800 14,-800 8,-794 8,-788 8,-788 8,-20 8,-20 8,-14 14,-8 20,-8"/>
<text text-anchor="middle" x="160.5" y="-787.2" font-family="Times,serif" font-size="11.00" fill="gray">Global</text>
</g>
<g id="clust2" class="cluster"><title>cluster_\Elabftw</title>
<path fill="none" stroke="gray" d="M28,-16C28,-16 293,-16 293,-16 299,-16 305,-22 305,-28 305,-28 305,-760 305,-760 305,-766 299,-772 293,-772 293,-772 28,-772 28,-772 22,-772 16,-766 16,-760 16,-760 16,-28 16,-28 16,-22 22,-16 28,-16"/>
<text text-anchor="middle" x="160.5" y="-759.2" font-family="Times,serif" font-size="11.00" fill="gray">Elabftw</text>
</g>
<g id="clust3" class="cluster"><title>cluster_\Elabftw\Elabftw</title>
<path fill="none" stroke="gray" d="M36,-24C36,-24 285,-24 285,-24 291,-24 297,-30 297,-36 297,-36 297,-732 297,-732 297,-738 291,-744 285,-744 285,-744 36,-744 36,-744 30,-744 24,-738 24,-732 24,-732 24,-36 24,-36 24,-30 30,-24 36,-24"/>
<text text-anchor="middle" x="160.5" y="-731.2" font-family="Times,serif" font-size="11.00" fill="gray">Elabftw</text>
</g>
<!-- \\Elabftw\\Elabftw\\Crypto -->
<g id="node1" class="node"><title>\\Elabftw\\Elabftw\\Crypto</title>
<polygon fill="none" stroke="black" points="252,-716 195,-716 195,-680 252,-680 252,-716"/>
<text text-anchor="middle" x="223.5" y="-695.2" font-family="Courier,monospace" font-size="11.00">Crypto</text>
</g>
<!-- \\Elabftw\\Elabftw\\ImportZip -->
<g id="node2" class="node"><title>\\Elabftw\\Elabftw\\ImportZip</title>
<polygon fill="none" stroke="black" points="262,-662 185,-662 185,-626 262,-626 262,-662"/>
<text text-anchor="middle" x="223.5" y="-641.2" font-family="Courier,monospace" font-size="11.00">ImportZip</text>
</g>
<!-- \\Elabftw\\Elabftw\\Formkey -->
<g id="node3" class="node"><title>\\Elabftw\\Elabftw\\Formkey</title>
<polygon fill="none" stroke="black" points="255.5,-608 191.5,-608 191.5,-572 255.5,-572 255.5,-608"/>
<text text-anchor="middle" x="223.5" y="-587.2" font-family="Courier,monospace" font-size="11.00">Formkey</text>
</g>
<!-- \\Elabftw\\Elabftw\\Db -->
<g id="node4" class="node"><title>\\Elabftw\\Elabftw\\Db</title>
<polygon fill="none" stroke="black" points="250.5,-554 196.5,-554 196.5,-518 250.5,-518 250.5,-554"/>
<text text-anchor="middle" x="223.5" y="-533.2" font-family="Courier,monospace" font-size="11.00">Db</text>
</g>
<!-- \\Elabftw\\Elabftw\\User -->
<g id="node5" class="node"><title>\\Elabftw\\Elabftw\\User</title>
<polygon fill="none" stroke="black" points="250.5,-500 196.5,-500 196.5,-464 250.5,-464 250.5,-500"/>
<text text-anchor="middle" x="223.5" y="-479.2" font-family="Courier,monospace" font-size="11.00">User</text>
</g>
<!-- \\Elabftw\\Elabftw\\Make -->
<g id="node6" class="node"><title>\\Elabftw\\Elabftw\\Make</title>
<polygon fill="none" stroke="black" points="86,-338 32,-338 32,-302 86,-302 86,-338"/>
<text text-anchor="middle" x="59" y="-317.2" font-family="Courier,monospace" font-size="11.00">Make</text>
</g>
<!-- \\Elabftw\\Elabftw\\MakePdf -->
<g id="node7" class="node"><title>\\Elabftw\\Elabftw\\MakePdf</title>
<polygon fill="none" stroke="black" points="255.5,-446 191.5,-446 191.5,-410 255.5,-410 255.5,-446"/>
<text text-anchor="middle" x="223.5" y="-425.2" font-family="Courier,monospace" font-size="11.00">MakePdf</text>
</g>
<!-- \\Elabftw\\Elabftw\\MakePdf&#45;&gt;\\Elabftw\\Elabftw\\Make -->
<g id="edge1" class="edge"><title>\\Elabftw\\Elabftw\\MakePdf&#45;&gt;\\Elabftw\\Elabftw\\Make</title>
<path fill="none" stroke="black" d="M191.411,-417.135C180.504,-412.772 168.39,-407.279 158,-401 131.717,-385.117 105.057,-362.575 86.1933,-345.302"/>
<polygon fill="none" stroke="black" points="88.3182,-342.499 78.6097,-338.257 83.5539,-347.627 88.3182,-342.499"/>
</g>
<!-- \\Elabftw\\Elabftw\\Create -->
<g id="node8" class="node"><title>\\Elabftw\\Elabftw\\Create</title>
<polygon fill="none" stroke="black" points="252,-392 195,-392 195,-356 252,-356 252,-392"/>
<text text-anchor="middle" x="223.5" y="-371.2" font-family="Courier,monospace" font-size="11.00">Create</text>
</g>
<!-- \\Elabftw\\Elabftw\\MakeCsv -->
<g id="node9" class="node"><title>\\Elabftw\\Elabftw\\MakeCsv</title>
<polygon fill="none" stroke="black" points="255.5,-338 191.5,-338 191.5,-302 255.5,-302 255.5,-338"/>
<text text-anchor="middle" x="223.5" y="-317.2" font-family="Courier,monospace" font-size="11.00">MakeCsv</text>
</g>
<!-- \\Elabftw\\Elabftw\\MakeCsv&#45;&gt;\\Elabftw\\Elabftw\\Make -->
<g id="edge2" class="edge"><title>\\Elabftw\\Elabftw\\MakeCsv&#45;&gt;\\Elabftw\\Elabftw\\Make</title>
<path fill="none" stroke="black" d="M191.168,-320C164.099,-320 124.961,-320 96.486,-320"/>
<polygon fill="none" stroke="black" points="96.1423,-316.5 86.1423,-320 96.1422,-323.5 96.1423,-316.5"/>
</g>
<!-- \\Elabftw\\Elabftw\\MakeZip -->
<g id="node10" class="node"><title>\\Elabftw\\Elabftw\\MakeZip</title>
<polygon fill="none" stroke="black" points="255.5,-284 191.5,-284 191.5,-248 255.5,-248 255.5,-284"/>
<text text-anchor="middle" x="223.5" y="-263.2" font-family="Courier,monospace" font-size="11.00">MakeZip</text>
</g>
<!-- \\Elabftw\\Elabftw\\MakeZip&#45;&gt;\\Elabftw\\Elabftw\\Make -->
<g id="edge3" class="edge"><title>\\Elabftw\\Elabftw\\MakeZip&#45;&gt;\\Elabftw\\Elabftw\\Make</title>
<path fill="none" stroke="black" d="M191.168,-276.412C163.861,-285.486 124.27,-298.643 95.7359,-308.125"/>
<polygon fill="none" stroke="black" points="94.5283,-304.838 86.1423,-311.313 96.7358,-311.481 94.5283,-304.838"/>
</g>
<!-- \\Elabftw\\Elabftw\\TrustedTimestamps -->
<g id="node11" class="node"><title>\\Elabftw\\Elabftw\\TrustedTimestamps</title>
<polygon fill="none" stroke="black" points="289,-230 158,-230 158,-194 289,-194 289,-230"/>
<text text-anchor="middle" x="223.5" y="-209.2" font-family="Courier,monospace" font-size="11.00">TrustedTimestamps</text>
</g>
<!-- \\Elabftw\\Elabftw\\Update -->
<g id="node12" class="node"><title>\\Elabftw\\Elabftw\\Update</title>
<polygon fill="none" stroke="black" points="252,-176 195,-176 195,-140 252,-140 252,-176"/>
<text text-anchor="middle" x="223.5" y="-155.2" font-family="Courier,monospace" font-size="11.00">Update</text>
</g>
<!-- \\Elabftw\\Elabftw\\SysConfig -->
<g id="node13" class="node"><title>\\Elabftw\\Elabftw\\SysConfig</title>
<polygon fill="none" stroke="black" points="262,-122 185,-122 185,-86 262,-86 262,-122"/>
<text text-anchor="middle" x="223.5" y="-101.2" font-family="Courier,monospace" font-size="11.00">SysConfig</text>
</g>
<!-- \\Elabftw\\Elabftw\\Tools -->
<g id="node14" class="node"><title>\\Elabftw\\Elabftw\\Tools</title>
<polygon fill="none" stroke="black" points="250.5,-68 196.5,-68 196.5,-32 250.5,-32 250.5,-68"/>
<text text-anchor="middle" x="223.5" y="-47.2" font-family="Courier,monospace" font-size="11.00">Tools</text>
</g>
</g>
</svg>
