<?xml version="1.0" encoding="UTF-8" standalone="no"?>
<!DOCTYPE svg PUBLIC "-//W3C//DTD SVG 1.1//EN"
 "http://www.w3.org/Graphics/SVG/1.1/DTD/svg11.dtd">
<!-- Generated by graphviz version 2.38.0 (20140413.2041)
 -->
<!-- Title: G Pages: 1 -->
<svg width="359pt" height="978pt"
 viewBox="0.00 0.00 359.00 978.00" xmlns="http://www.w3.org/2000/svg" xmlns:xlink="http://www.w3.org/1999/xlink">
<g id="graph0" class="graph" transform="scale(1 1) rotate(0) translate(4 974)">
<title>G</title>
<polygon fill="white" stroke="none" points="-4,4 -4,-974 355,-974 355,4 -4,4"/>
<g id="clust1" class="cluster"><title>cluster_Global</title>
<path fill="none" stroke="gray" d="M20,-8C20,-8 331,-8 331,-8 337,-8 343,-14 343,-20 343,-20 343,-950 343,-950 343,-956 337,-962 331,-962 331,-962 20,-962 20,-962 14,-962 8,-956 8,-950 8,-950 8,-20 8,-20 8,-14 14,-8 20,-8"/>
<text text-anchor="middle" x="175.5" y="-949.2" font-family="Times,serif" font-size="11.00" fill="gray">Global</text>
</g>
<g id="clust2" class="cluster"><title>cluster_\Elabftw</title>
<path fill="none" stroke="gray" d="M28,-16C28,-16 323,-16 323,-16 329,-16 335,-22 335,-28 335,-28 335,-922 335,-922 335,-928 329,-934 323,-934 323,-934 28,-934 28,-934 22,-934 16,-928 16,-922 16,-922 16,-28 16,-28 16,-22 22,-16 28,-16"/>
<text text-anchor="middle" x="175.5" y="-921.2" font-family="Times,serif" font-size="11.00" fill="gray">Elabftw</text>
</g>
<g id="clust3" class="cluster"><title>cluster_\Elabftw\Elabftw</title>
<path fill="none" stroke="gray" d="M36,-24C36,-24 315,-24 315,-24 321,-24 327,-30 327,-36 327,-36 327,-894 327,-894 327,-900 321,-906 315,-906 315,-906 36,-906 36,-906 30,-906 24,-900 24,-894 24,-894 24,-36 24,-36 24,-30 30,-24 36,-24"/>
<text text-anchor="middle" x="175.5" y="-893.2" font-family="Times,serif" font-size="11.00" fill="gray">Elabftw</text>
</g>
<!-- \\Elabftw\\Elabftw\\LegacyCrypto -->
<g id="node1" class="node"><title>\\Elabftw\\Elabftw\\LegacyCrypto</title>
<polygon fill="none" stroke="black" points="302.5,-878 204.5,-878 204.5,-842 302.5,-842 302.5,-878"/>
<text text-anchor="middle" x="253.5" y="-857.2" font-family="Courier,monospace" font-size="11.00">LegacyCrypto</text>
</g>
<!-- \\Elabftw\\Elabftw\\ImportZip -->
<g id="node2" class="node"><title>\\Elabftw\\Elabftw\\ImportZip</title>
<polygon fill="none" stroke="black" points="292,-824 215,-824 215,-788 292,-788 292,-824"/>
<text text-anchor="middle" x="253.5" y="-803.2" font-family="Courier,monospace" font-size="11.00">ImportZip</text>
</g>
<!-- \\Elabftw\\Elabftw\\Import -->
<g id="node12" class="node"><title>\\Elabftw\\Elabftw\\Import</title>
<polygon fill="none" stroke="black" points="116,-716 32,-716 32,-680 116,-680 116,-716"/>
<text text-anchor="start" x="40" y="-701.2" font-family="Courier,monospace" font-size="11.00">«abstract»</text>
<text text-anchor="start" x="53.5" y="-689.2" font-family="Courier,monospace" font-size="11.00">Import</text>
</g>
<!-- \\Elabftw\\Elabftw\\ImportZip&#45;&gt;\\Elabftw\\Elabftw\\Import -->
<g id="edge1" class="edge"><title>\\Elabftw\\Elabftw\\ImportZip&#45;&gt;\\Elabftw\\Elabftw\\Import</title>
<path fill="none" stroke="black" d="M214.983,-791.975C205.958,-788.146 196.48,-783.734 188,-779 158.286,-762.411 127.027,-739.526 104.938,-722.312"/>
<polygon fill="none" stroke="black" points="106.965,-719.453 96.9428,-716.017 102.634,-724.953 106.965,-719.453"/>
</g>
<!-- \\Elabftw\\Elabftw\\Formkey -->
<g id="node3" class="node"><title>\\Elabftw\\Elabftw\\Formkey</title>
<polygon fill="none" stroke="black" points="285.5,-770 221.5,-770 221.5,-734 285.5,-734 285.5,-770"/>
<text text-anchor="middle" x="253.5" y="-749.2" font-family="Courier,monospace" font-size="11.00">Formkey</text>
</g>
<!-- \\Elabftw\\Elabftw\\Db -->
<g id="node4" class="node"><title>\\Elabftw\\Elabftw\\Db</title>
<polygon fill="none" stroke="black" points="280.5,-716 226.5,-716 226.5,-680 280.5,-680 280.5,-716"/>
<text text-anchor="middle" x="253.5" y="-695.2" font-family="Courier,monospace" font-size="11.00">Db</text>
</g>
<!-- \\Elabftw\\Elabftw\\User -->
<g id="node5" class="node"><title>\\Elabftw\\Elabftw\\User</title>
<polygon fill="none" stroke="black" points="280.5,-662 226.5,-662 226.5,-626 280.5,-626 280.5,-662"/>
<text text-anchor="middle" x="253.5" y="-641.2" font-family="Courier,monospace" font-size="11.00">User</text>
</g>
<!-- \\Elabftw\\Elabftw\\Make -->
<g id="node6" class="node"><title>\\Elabftw\\Elabftw\\Make</title>
<polygon fill="none" stroke="black" points="116,-392 32,-392 32,-356 116,-356 116,-392"/>
<text text-anchor="start" x="40" y="-377.2" font-family="Courier,monospace" font-size="11.00">«abstract»</text>
<text text-anchor="start" x="60" y="-365.2" font-family="Courier,monospace" font-size="11.00">Make</text>
</g>
<!-- \\Elabftw\\Elabftw\\MakePdf -->
<g id="node7" class="node"><title>\\Elabftw\\Elabftw\\MakePdf</title>
<polygon fill="none" stroke="black" points="285.5,-500 221.5,-500 221.5,-464 285.5,-464 285.5,-500"/>
<text text-anchor="middle" x="253.5" y="-479.2" font-family="Courier,monospace" font-size="11.00">MakePdf</text>
</g>
<!-- \\Elabftw\\Elabftw\\MakePdf&#45;&gt;\\Elabftw\\Elabftw\\Make -->
<g id="edge2" class="edge"><title>\\Elabftw\\Elabftw\\MakePdf&#45;&gt;\\Elabftw\\Elabftw\\Make</title>
<path fill="none" stroke="black" d="M221.318,-470.601C210.517,-466.224 198.493,-460.858 188,-455 158.286,-438.411 127.027,-415.526 104.938,-398.312"/>
<polygon fill="none" stroke="black" points="106.965,-395.453 96.9428,-392.017 102.634,-400.953 106.965,-395.453"/>
</g>
<!-- \\Elabftw\\Elabftw\\Create -->
<g id="node8" class="node"><title>\\Elabftw\\Elabftw\\Create</title>
<polygon fill="none" stroke="black" points="282,-554 225,-554 225,-518 282,-518 282,-554"/>
<text text-anchor="middle" x="253.5" y="-533.2" font-family="Courier,monospace" font-size="11.00">Create</text>
</g>
<!-- \\Elabftw\\Elabftw\\MakeCsv -->
<g id="node9" class="node"><title>\\Elabftw\\Elabftw\\MakeCsv</title>
<polygon fill="none" stroke="black" points="285.5,-392 221.5,-392 221.5,-356 285.5,-356 285.5,-392"/>
<text text-anchor="middle" x="253.5" y="-371.2" font-family="Courier,monospace" font-size="11.00">MakeCsv</text>
</g>
<!-- \\Elabftw\\Elabftw\\MakeCsv&#45;&gt;\\Elabftw\\Elabftw\\Make -->
<g id="edge3" class="edge"><title>\\Elabftw\\Elabftw\\MakeCsv&#45;&gt;\\Elabftw\\Elabftw\\Make</title>
<path fill="none" stroke="black" d="M221.175,-374C194.887,-374 156.818,-374 126.12,-374"/>
<polygon fill="none" stroke="black" points="126.02,-370.5 116.02,-374 126.02,-377.5 126.02,-370.5"/>
</g>
<!-- \\Elabftw\\Elabftw\\CryptoWrapper -->
<g id="node10" class="node"><title>\\Elabftw\\Elabftw\\CryptoWrapper</title>
<polygon fill="none" stroke="black" points="305.5,-446 201.5,-446 201.5,-410 305.5,-410 305.5,-446"/>
<text text-anchor="middle" x="253.5" y="-425.2" font-family="Courier,monospace" font-size="11.00">CryptoWrapper</text>
</g>
<!-- \\Elabftw\\Elabftw\\MakeZip -->
<g id="node11" class="node"><title>\\Elabftw\\Elabftw\\MakeZip</title>
<polygon fill="none" stroke="black" points="285.5,-230 221.5,-230 221.5,-194 285.5,-194 285.5,-230"/>
<text text-anchor="middle" x="253.5" y="-209.2" font-family="Courier,monospace" font-size="11.00">MakeZip</text>
</g>
<!-- \\Elabftw\\Elabftw\\MakeZip&#45;&gt;\\Elabftw\\Elabftw\\Make -->
<g id="edge4" class="edge"><title>\\Elabftw\\Elabftw\\MakeZip&#45;&gt;\\Elabftw\\Elabftw\\Make</title>
<path fill="none" stroke="black" d="M221.38,-221.581C210.232,-225.875 197.967,-231.654 188,-239 146.973,-269.239 111.45,-317.362 91.6673,-347.241"/>
<polygon fill="none" stroke="black" points="88.5617,-345.597 86.0446,-355.889 94.4301,-349.413 88.5617,-345.597"/>
</g>
<!-- \\Elabftw\\Elabftw\\TrustedTimestamps -->
<g id="node13" class="node"><title>\\Elabftw\\Elabftw\\TrustedTimestamps</title>
<polygon fill="none" stroke="black" points="319,-338 188,-338 188,-302 319,-302 319,-338"/>
<text text-anchor="middle" x="253.5" y="-317.2" font-family="Courier,monospace" font-size="11.00">TrustedTimestamps</text>
</g>
<!-- \\Elabftw\\Elabftw\\Update -->
<g id="node14" class="node"><title>\\Elabftw\\Elabftw\\Update</title>
<polygon fill="none" stroke="black" points="282,-284 225,-284 225,-248 282,-248 282,-284"/>
<text text-anchor="middle" x="253.5" y="-263.2" font-family="Courier,monospace" font-size="11.00">Update</text>
</g>
<!-- \\Elabftw\\Elabftw\\ImportCsv -->
<g id="node15" class="node"><title>\\Elabftw\\Elabftw\\ImportCsv</title>
<polygon fill="none" stroke="black" points="292,-608 215,-608 215,-572 292,-572 292,-608"/>
<text text-anchor="middle" x="253.5" y="-587.2" font-family="Courier,monospace" font-size="11.00">ImportCsv</text>
</g>
<!-- \\Elabftw\\Elabftw\\ImportCsv&#45;&gt;\\Elabftw\\Elabftw\\Import -->
<g id="edge5" class="edge"><title>\\Elabftw\\Elabftw\\ImportCsv&#45;&gt;\\Elabftw\\Elabftw\\Import</title>
<path fill="none" stroke="black" d="M214.983,-604.025C205.958,-607.854 196.48,-612.266 188,-617 158.286,-633.589 127.027,-656.474 104.938,-673.688"/>
<polygon fill="none" stroke="black" points="102.634,-671.047 96.9428,-679.983 106.965,-676.547 102.634,-671.047"/>
</g>
<!-- \\Elabftw\\Elabftw\\SysConfig -->
<g id="node16" class="node"><title>\\Elabftw\\Elabftw\\SysConfig</title>
<polygon fill="none" stroke="black" points="292,-176 215,-176 215,-140 292,-140 292,-176"/>
<text text-anchor="middle" x="253.5" y="-155.2" font-family="Courier,monospace" font-size="11.00">SysConfig</text>
</g>
<!-- \\Elabftw\\Elabftw\\Tools -->
<g id="node17" class="node"><title>\\Elabftw\\Elabftw\\Tools</title>
<polygon fill="none" stroke="black" points="280.5,-122 226.5,-122 226.5,-86 280.5,-86 280.5,-122"/>
<text text-anchor="middle" x="253.5" y="-101.2" font-family="Courier,monospace" font-size="11.00">Tools</text>
</g>
<!-- \\Elabftw\\Elabftw\\MolViewer -->
<g id="node18" class="node"><title>\\Elabftw\\Elabftw\\MolViewer</title>
<polygon fill="none" stroke="black" points="292,-68 215,-68 215,-32 292,-32 292,-68"/>
<text text-anchor="middle" x="253.5" y="-47.2" font-family="Courier,monospace" font-size="11.00">MolViewer</text>
</g>
</g>
</svg>
