<?xml version="1.0" encoding="UTF-8" standalone="no"?>
<!DOCTYPE svg PUBLIC "-//W3C//DTD SVG 1.1//EN"
 "http://www.w3.org/Graphics/SVG/1.1/DTD/svg11.dtd">
<!-- Generated by graphviz version 2.38.0 (20140413.2041)
 -->
<!-- Title: G Pages: 1 -->
<svg width="485pt" height="1788pt"
 viewBox="0.00 0.00 485.00 1788.00" xmlns="http://www.w3.org/2000/svg" xmlns:xlink="http://www.w3.org/1999/xlink">
<g id="graph0" class="graph" transform="scale(1 1) rotate(0) translate(4 1784)">
<title>G</title>
<polygon fill="white" stroke="none" points="-4,4 -4,-1784 481,-1784 481,4 -4,4"/>
<g id="clust1" class="cluster"><title>cluster_Global</title>
<path fill="none" stroke="gray" d="M20,-8C20,-8 457,-8 457,-8 463,-8 469,-14 469,-20 469,-20 469,-1760 469,-1760 469,-1766 463,-1772 457,-1772 457,-1772 20,-1772 20,-1772 14,-1772 8,-1766 8,-1760 8,-1760 8,-20 8,-20 8,-14 14,-8 20,-8"/>
<text text-anchor="middle" x="238.5" y="-1759.2" font-family="Times,serif" font-size="11.00" fill="gray">Global</text>
</g>
<g id="clust2" class="cluster"><title>cluster_\Elabftw</title>
<path fill="none" stroke="gray" d="M28,-16C28,-16 449,-16 449,-16 455,-16 461,-22 461,-28 461,-28 461,-1732 461,-1732 461,-1738 455,-1744 449,-1744 449,-1744 28,-1744 28,-1744 22,-1744 16,-1738 16,-1732 16,-1732 16,-28 16,-28 16,-22 22,-16 28,-16"/>
<text text-anchor="middle" x="238.5" y="-1731.2" font-family="Times,serif" font-size="11.00" fill="gray">Elabftw</text>
</g>
<g id="clust3" class="cluster"><title>cluster_\Elabftw\Elabftw</title>
<path fill="none" stroke="gray" d="M36,-24C36,-24 441,-24 441,-24 447,-24 453,-30 453,-36 453,-36 453,-1704 453,-1704 453,-1710 447,-1716 441,-1716 441,-1716 36,-1716 36,-1716 30,-1716 24,-1710 24,-1704 24,-1704 24,-36 24,-36 24,-30 30,-24 36,-24"/>
<text text-anchor="middle" x="238.5" y="-1703.2" font-family="Times,serif" font-size="11.00" fill="gray">Elabftw</text>
</g>
<!-- \\Elabftw\\Elabftw\\Database -->
<g id="node1" class="node"><title>\\Elabftw\\Elabftw\\Database</title>
<polygon fill="none" stroke="black" points="415,-1364 344,-1364 344,-1328 415,-1328 415,-1364"/>
<text text-anchor="middle" x="379.5" y="-1343.2" font-family="Courier,monospace" font-size="11.00">Database</text>
</g>
<!-- \\Elabftw\\Elabftw\\Entity -->
<g id="node14" class="node"><title>\\Elabftw\\Elabftw\\Entity</title>
<polygon fill="none" stroke="black" points="228.5,-1364 171.5,-1364 171.5,-1328 228.5,-1328 228.5,-1364"/>
<text text-anchor="middle" x="200" y="-1343.2" font-family="Courier,monospace" font-size="11.00">Entity</text>
</g>
<!-- \\Elabftw\\Elabftw\\Database&#45;&gt;\\Elabftw\\Elabftw\\Entity -->
<g id="edge1" class="edge"><title>\\Elabftw\\Elabftw\\Database&#45;&gt;\\Elabftw\\Elabftw\\Entity</title>
<path fill="none" stroke="black" d="M343.855,-1346C313.58,-1346 269.722,-1346 238.602,-1346"/>
<polygon fill="none" stroke="black" points="238.575,-1342.5 228.575,-1346 238.575,-1349.5 238.575,-1342.5"/>
</g>
<!-- \\Elabftw\\Elabftw\\MolViewer -->
<g id="node2" class="node"><title>\\Elabftw\\Elabftw\\MolViewer</title>
<polygon fill="none" stroke="black" points="418,-1634 341,-1634 341,-1598 418,-1598 418,-1634"/>
<text text-anchor="middle" x="379.5" y="-1613.2" font-family="Courier,monospace" font-size="11.00">MolViewer</text>
</g>
<!-- \\Elabftw\\Elabftw\\Status -->
<g id="node3" class="node"><title>\\Elabftw\\Elabftw\\Status</title>
<polygon fill="none" stroke="black" points="228.5,-1607 171.5,-1607 171.5,-1571 228.5,-1571 228.5,-1607"/>
<text text-anchor="middle" x="200" y="-1586.2" font-family="Courier,monospace" font-size="11.00">Status</text>
</g>
<!-- \\Elabftw\\Elabftw\\Panel -->
<g id="node22" class="node"><title>\\Elabftw\\Elabftw\\Panel</title>
<polygon fill="none" stroke="black" points="86,-662 32,-662 32,-626 86,-626 86,-662"/>
<text text-anchor="middle" x="59" y="-641.2" font-family="Courier,monospace" font-size="11.00">Panel</text>
</g>
<!-- \\Elabftw\\Elabftw\\Status&#45;&gt;\\Elabftw\\Elabftw\\Panel -->
<g id="edge2" class="edge"><title>\\Elabftw\\Elabftw\\Status&#45;&gt;\\Elabftw\\Elabftw\\Panel</title>
<path fill="none" stroke="black" d="M171.274,-1575.63C166.093,-1571.91 161.283,-1567.39 158,-1562 63.682,-1407.26 59.5248,-809.636 59.839,-672.264"/>
<polygon fill="none" stroke="black" points="63.3393,-672.145 59.8726,-662.134 56.3393,-672.122 63.3393,-672.145"/>
</g>
<!-- \\Elabftw\\Elabftw\\Users -->
<g id="node4" class="node"><title>\\Elabftw\\Elabftw\\Users</title>
<polygon fill="none" stroke="black" points="406.5,-1688 352.5,-1688 352.5,-1652 406.5,-1652 406.5,-1688"/>
<text text-anchor="middle" x="379.5" y="-1667.2" font-family="Courier,monospace" font-size="11.00">Users</text>
</g>
<!-- \\Elabftw\\Elabftw\\Auth -->
<g id="node7" class="node"><title>\\Elabftw\\Elabftw\\Auth</title>
<polygon fill="none" stroke="black" points="227,-1553 173,-1553 173,-1517 227,-1517 227,-1553"/>
<text text-anchor="middle" x="200" y="-1532.2" font-family="Courier,monospace" font-size="11.00">Auth</text>
</g>
<!-- \\Elabftw\\Elabftw\\Users&#45;&gt;\\Elabftw\\Elabftw\\Auth -->
<g id="edge3" class="edge"><title>\\Elabftw\\Elabftw\\Users&#45;&gt;\\Elabftw\\Elabftw\\Auth</title>
<path fill="none" stroke="black" d="M352.325,-1662.07C340.023,-1657.61 325.557,-1651.26 314,-1643 274.807,-1615 278.425,-1593.52 242,-1562 240.026,-1560.29 237.938,-1558.61 235.791,-1556.96"/>
<polygon fill="none" stroke="black" points="237.493,-1553.88 227.335,-1550.87 233.399,-1559.55 237.493,-1553.88"/>
</g>
<!-- \\Elabftw\\Elabftw\\LegacyCrypto -->
<g id="node5" class="node"><title>\\Elabftw\\Elabftw\\LegacyCrypto</title>
<polygon fill="none" stroke="black" points="428.5,-1526 330.5,-1526 330.5,-1490 428.5,-1490 428.5,-1526"/>
<text text-anchor="middle" x="379.5" y="-1505.2" font-family="Courier,monospace" font-size="11.00">LegacyCrypto</text>
</g>
<!-- \\Elabftw\\Elabftw\\Links -->
<g id="node6" class="node"><title>\\Elabftw\\Elabftw\\Links</title>
<polygon fill="none" stroke="black" points="406.5,-1472 352.5,-1472 352.5,-1436 406.5,-1436 406.5,-1472"/>
<text text-anchor="middle" x="379.5" y="-1451.2" font-family="Courier,monospace" font-size="11.00">Links</text>
</g>
<!-- \\Elabftw\\Elabftw\\Comments -->
<g id="node8" class="node"><title>\\Elabftw\\Elabftw\\Comments</title>
<polygon fill="none" stroke="black" points="415,-1580 344,-1580 344,-1544 415,-1544 415,-1580"/>
<text text-anchor="middle" x="379.5" y="-1559.2" font-family="Courier,monospace" font-size="11.00">Comments</text>
</g>
<!-- \\Elabftw\\Elabftw\\Comments&#45;&gt;\\Elabftw\\Elabftw\\Entity -->
<g id="edge4" class="edge"><title>\\Elabftw\\Elabftw\\Comments&#45;&gt;\\Elabftw\\Elabftw\\Entity</title>
<path fill="none" stroke="black" d="M343.836,-1552.97C333.251,-1548.86 322.243,-1543.07 314,-1535 257.683,-1479.9 292.959,-1433.09 242,-1373 240.36,-1371.07 238.548,-1369.22 236.625,-1367.46"/>
<polygon fill="none" stroke="black" points="238.775,-1364.7 228.794,-1361.15 234.382,-1370.15 238.775,-1364.7"/>
</g>
<!-- \\Elabftw\\Elabftw\\Teams -->
<g id="node9" class="node"><title>\\Elabftw\\Elabftw\\Teams</title>
<polygon fill="none" stroke="black" points="227,-608 173,-608 173,-572 227,-572 227,-608"/>
<text text-anchor="middle" x="200" y="-587.2" font-family="Courier,monospace" font-size="11.00">Teams</text>
</g>
<!-- \\Elabftw\\Elabftw\\Teams&#45;&gt;\\Elabftw\\Elabftw\\Panel -->
<g id="edge5" class="edge"><title>\\Elabftw\\Elabftw\\Teams&#45;&gt;\\Elabftw\\Elabftw\\Panel</title>
<path fill="none" stroke="black" d="M172.855,-600.157C151.013,-608.642 119.66,-620.823 95.541,-630.193"/>
<polygon fill="none" stroke="black" points="94.0815,-627.005 86.0276,-633.889 96.6164,-633.53 94.0815,-627.005"/>
</g>
<!-- \\Elabftw\\Elabftw\\Import -->
<g id="node10" class="node"><title>\\Elabftw\\Elabftw\\Import</title>
<polygon fill="none" stroke="black" points="242,-554 158,-554 158,-518 242,-518 242,-554"/>
<text text-anchor="start" x="166" y="-539.2" font-family="Courier,monospace" font-size="11.00">«abstract»</text>
<text text-anchor="start" x="179.5" y="-527.2" font-family="Courier,monospace" font-size="11.00">Import</text>
</g>
<!-- \\Elabftw\\Elabftw\\ExperimentsView -->
<g id="node11" class="node"><title>\\Elabftw\\Elabftw\\ExperimentsView</title>
<polygon fill="none" stroke="black" points="438.5,-662 320.5,-662 320.5,-626 438.5,-626 438.5,-662"/>
<text text-anchor="middle" x="379.5" y="-641.2" font-family="Courier,monospace" font-size="11.00">ExperimentsView</text>
</g>
<!-- \\Elabftw\\Elabftw\\EntityView -->
<g id="node42" class="node"><title>\\Elabftw\\Elabftw\\EntityView</title>
<polygon fill="none" stroke="black" points="242,-716 158,-716 158,-680 242,-680 242,-716"/>
<text text-anchor="middle" x="200" y="-695.2" font-family="Courier,monospace" font-size="11.00">EntityView</text>
</g>
<!-- \\Elabftw\\Elabftw\\ExperimentsView&#45;&gt;\\Elabftw\\Elabftw\\EntityView -->
<g id="edge6" class="edge"><title>\\Elabftw\\Elabftw\\ExperimentsView&#45;&gt;\\Elabftw\\Elabftw\\EntityView</title>
<path fill="none" stroke="black" d="M320.38,-661.682C298.197,-668.43 273.105,-676.064 251.67,-682.585"/>
<polygon fill="none" stroke="black" points="250.65,-679.237 242.102,-685.496 252.688,-685.934 250.65,-679.237"/>
</g>
<!-- \\Elabftw\\Elabftw\\Make -->
<g id="node12" class="node"><title>\\Elabftw\\Elabftw\\Make</title>
<polygon fill="none" stroke="black" points="242,-311 158,-311 158,-275 242,-275 242,-311"/>
<text text-anchor="start" x="166" y="-296.2" font-family="Courier,monospace" font-size="11.00">«abstract»</text>
<text text-anchor="start" x="186" y="-284.2" font-family="Courier,monospace" font-size="11.00">Make</text>
</g>
<!-- \\Elabftw\\Elabftw\\TeamGroupsView -->
<g id="node13" class="node"><title>\\Elabftw\\Elabftw\\TeamGroupsView</title>
<polygon fill="none" stroke="black" points="435,-1310 324,-1310 324,-1274 435,-1274 435,-1310"/>
<text text-anchor="middle" x="379.5" y="-1289.2" font-family="Courier,monospace" font-size="11.00">TeamGroupsView</text>
</g>
<!-- \\Elabftw\\Elabftw\\Templates -->
<g id="node15" class="node"><title>\\Elabftw\\Elabftw\\Templates</title>
<polygon fill="none" stroke="black" points="418,-1256 341,-1256 341,-1220 418,-1220 418,-1256"/>
<text text-anchor="middle" x="379.5" y="-1235.2" font-family="Courier,monospace" font-size="11.00">Templates</text>
</g>
<!-- \\Elabftw\\Elabftw\\Revisions -->
<g id="node16" class="node"><title>\\Elabftw\\Elabftw\\Revisions</title>
<polygon fill="none" stroke="black" points="418,-1202 341,-1202 341,-1166 418,-1166 418,-1202"/>
<text text-anchor="middle" x="379.5" y="-1181.2" font-family="Courier,monospace" font-size="11.00">Revisions</text>
</g>
<!-- \\Elabftw\\Elabftw\\CryptoWrapper -->
<g id="node17" class="node"><title>\\Elabftw\\Elabftw\\CryptoWrapper</title>
<polygon fill="none" stroke="black" points="431.5,-1148 327.5,-1148 327.5,-1112 431.5,-1112 431.5,-1148"/>
<text text-anchor="middle" x="379.5" y="-1127.2" font-family="Courier,monospace" font-size="11.00">CryptoWrapper</text>
</g>
<!-- \\Elabftw\\Elabftw\\ItemsTypesView -->
<g id="node18" class="node"><title>\\Elabftw\\Elabftw\\ItemsTypesView</title>
<polygon fill="none" stroke="black" points="435,-1094 324,-1094 324,-1058 435,-1058 435,-1094"/>
<text text-anchor="middle" x="379.5" y="-1073.2" font-family="Courier,monospace" font-size="11.00">ItemsTypesView</text>
</g>
<!-- \\Elabftw\\Elabftw\\StatusView -->
<g id="node19" class="node"><title>\\Elabftw\\Elabftw\\StatusView</title>
<polygon fill="none" stroke="black" points="421.5,-1040 337.5,-1040 337.5,-1004 421.5,-1004 421.5,-1040"/>
<text text-anchor="middle" x="379.5" y="-1019.2" font-family="Courier,monospace" font-size="11.00">StatusView</text>
</g>
<!-- \\Elabftw\\Elabftw\\SysconfigView -->
<g id="node20" class="node"><title>\\Elabftw\\Elabftw\\SysconfigView</title>
<polygon fill="none" stroke="black" points="431.5,-986 327.5,-986 327.5,-950 431.5,-950 431.5,-986"/>
<text text-anchor="middle" x="379.5" y="-965.2" font-family="Courier,monospace" font-size="11.00">SysconfigView</text>
</g>
<!-- \\Elabftw\\Elabftw\\Formkey -->
<g id="node21" class="node"><title>\\Elabftw\\Elabftw\\Formkey</title>
<polygon fill="none" stroke="black" points="411.5,-932 347.5,-932 347.5,-896 411.5,-896 411.5,-932"/>
<text text-anchor="middle" x="379.5" y="-911.2" font-family="Courier,monospace" font-size="11.00">Formkey</text>
</g>
<!-- \\Elabftw\\Elabftw\\ItemsTypes -->
<g id="node23" class="node"><title>\\Elabftw\\Elabftw\\ItemsTypes</title>
<polygon fill="none" stroke="black" points="242,-1418 158,-1418 158,-1382 242,-1382 242,-1418"/>
<text text-anchor="middle" x="200" y="-1397.2" font-family="Courier,monospace" font-size="11.00">ItemsTypes</text>
</g>
<!-- \\Elabftw\\Elabftw\\ItemsTypes&#45;&gt;\\Elabftw\\Elabftw\\Panel -->
<g id="edge7" class="edge"><title>\\Elabftw\\Elabftw\\ItemsTypes&#45;&gt;\\Elabftw\\Elabftw\\Panel</title>
<path fill="none" stroke="black" d="M165.322,-1381.65C162.516,-1379.06 159.995,-1376.18 158,-1373 82.4757,-1252.81 64.2184,-791.617 60.721,-672.309"/>
<polygon fill="none" stroke="black" points="64.2153,-672.053 60.4354,-662.156 57.2181,-672.25 64.2153,-672.053"/>
</g>
<!-- \\Elabftw\\Elabftw\\Tools -->
<g id="node24" class="node"><title>\\Elabftw\\Elabftw\\Tools</title>
<polygon fill="none" stroke="black" points="406.5,-878 352.5,-878 352.5,-842 406.5,-842 406.5,-878"/>
<text text-anchor="middle" x="379.5" y="-857.2" font-family="Courier,monospace" font-size="11.00">Tools</text>
</g>
<!-- \\Elabftw\\Elabftw\\Db -->
<g id="node25" class="node"><title>\\Elabftw\\Elabftw\\Db</title>
<polygon fill="none" stroke="black" points="406.5,-824 352.5,-824 352.5,-788 406.5,-788 406.5,-824"/>
<text text-anchor="middle" x="379.5" y="-803.2" font-family="Courier,monospace" font-size="11.00">Db</text>
</g>
<!-- \\Elabftw\\Elabftw\\TeamsView -->
<g id="node26" class="node"><title>\\Elabftw\\Elabftw\\TeamsView</title>
<polygon fill="none" stroke="black" points="418,-608 341,-608 341,-572 418,-572 418,-608"/>
<text text-anchor="middle" x="379.5" y="-587.2" font-family="Courier,monospace" font-size="11.00">TeamsView</text>
</g>
<!-- \\Elabftw\\Elabftw\\TeamsView&#45;&gt;\\Elabftw\\Elabftw\\Teams -->
<g id="edge8" class="edge"><title>\\Elabftw\\Elabftw\\TeamsView&#45;&gt;\\Elabftw\\Elabftw\\Teams</title>
<path fill="none" stroke="black" d="M340.857,-590C310.27,-590 267.398,-590 237.205,-590"/>
<polygon fill="none" stroke="black" points="237.095,-586.5 227.095,-590 237.095,-593.5 237.095,-586.5"/>
</g>
<!-- \\Elabftw\\Elabftw\\Experiments -->
<g id="node27" class="node"><title>\\Elabftw\\Elabftw\\Experiments</title>
<polygon fill="none" stroke="black" points="425,-1418 334,-1418 334,-1382 425,-1382 425,-1418"/>
<text text-anchor="middle" x="379.5" y="-1397.2" font-family="Courier,monospace" font-size="11.00">Experiments</text>
</g>
<!-- \\Elabftw\\Elabftw\\Experiments&#45;&gt;\\Elabftw\\Elabftw\\Entity -->
<g id="edge9" class="edge"><title>\\Elabftw\\Elabftw\\Experiments&#45;&gt;\\Elabftw\\Elabftw\\Entity</title>
<path fill="none" stroke="black" d="M333.709,-1386.37C304.257,-1377.41 266.163,-1365.82 238.348,-1357.36"/>
<polygon fill="none" stroke="black" points="239.186,-1353.96 228.6,-1354.4 237.149,-1360.66 239.186,-1353.96"/>
</g>
<!-- \\Elabftw\\Elabftw\\ImportZip -->
<g id="node28" class="node"><title>\\Elabftw\\Elabftw\\ImportZip</title>
<polygon fill="none" stroke="black" points="418,-500 341,-500 341,-464 418,-464 418,-500"/>
<text text-anchor="middle" x="379.5" y="-479.2" font-family="Courier,monospace" font-size="11.00">ImportZip</text>
</g>
<!-- \\Elabftw\\Elabftw\\ImportZip&#45;&gt;\\Elabftw\\Elabftw\\Import -->
<g id="edge10" class="edge"><title>\\Elabftw\\Elabftw\\ImportZip&#45;&gt;\\Elabftw\\Elabftw\\Import</title>
<path fill="none" stroke="black" d="M340.857,-493.452C315.004,-501.317 280.374,-511.852 252.042,-520.472"/>
<polygon fill="none" stroke="black" points="250.856,-517.174 242.308,-523.433 252.894,-523.871 250.856,-517.174"/>
</g>
<!-- \\Elabftw\\Elabftw\\MakeCsv -->
<g id="node29" class="node"><title>\\Elabftw\\Elabftw\\MakeCsv</title>
<polygon fill="none" stroke="black" points="411.5,-68 347.5,-68 347.5,-32 411.5,-32 411.5,-68"/>
<text text-anchor="middle" x="379.5" y="-47.2" font-family="Courier,monospace" font-size="11.00">MakeCsv</text>
</g>
<!-- \\Elabftw\\Elabftw\\MakeCsv&#45;&gt;\\Elabftw\\Elabftw\\Make -->
<g id="edge11" class="edge"><title>\\Elabftw\\Elabftw\\MakeCsv&#45;&gt;\\Elabftw\\Elabftw\\Make</title>
<path fill="none" stroke="black" d="M347.452,-58.103C335.928,-62.2896 323.39,-68.3806 314,-77 256.15,-130.101 222.797,-219.698 208.82,-264.991"/>
<polygon fill="none" stroke="black" points="205.419,-264.147 205.904,-274.731 212.125,-266.155 205.419,-264.147"/>
</g>
<!-- \\Elabftw\\Elabftw\\Uploads -->
<g id="node30" class="node"><title>\\Elabftw\\Elabftw\\Uploads</title>
<polygon fill="none" stroke="black" points="411.5,-770 347.5,-770 347.5,-734 411.5,-734 411.5,-770"/>
<text text-anchor="middle" x="379.5" y="-749.2" font-family="Courier,monospace" font-size="11.00">Uploads</text>
</g>
<!-- \\Elabftw\\Elabftw\\Uploads&#45;&gt;\\Elabftw\\Elabftw\\Entity -->
<g id="edge12" class="edge"><title>\\Elabftw\\Elabftw\\Uploads&#45;&gt;\\Elabftw\\Elabftw\\Entity</title>
<path fill="none" stroke="black" d="M347.408,-758.352C335.314,-762.342 322.377,-768.757 314,-779 244.795,-863.617 211.551,-1214.71 203.173,-1317.56"/>
<polygon fill="none" stroke="black" points="199.664,-1317.55 202.356,-1327.79 206.641,-1318.1 199.664,-1317.55"/>
</g>
<!-- \\Elabftw\\Elabftw\\TeamGroups -->
<g id="node31" class="node"><title>\\Elabftw\\Elabftw\\TeamGroups</title>
<polygon fill="none" stroke="black" points="242,-662 158,-662 158,-626 242,-626 242,-662"/>
<text text-anchor="middle" x="200" y="-641.2" font-family="Courier,monospace" font-size="11.00">TeamGroups</text>
</g>
<!-- \\Elabftw\\Elabftw\\TeamGroups&#45;&gt;\\Elabftw\\Elabftw\\Panel -->
<g id="edge13" class="edge"><title>\\Elabftw\\Elabftw\\TeamGroups&#45;&gt;\\Elabftw\\Elabftw\\Panel</title>
<path fill="none" stroke="black" d="M157.672,-644C138.181,-644 115.132,-644 96.3204,-644"/>
<polygon fill="none" stroke="black" points="96.0748,-640.5 86.0747,-644 96.0747,-647.5 96.0748,-640.5"/>
</g>
<!-- \\Elabftw\\Elabftw\\MakeZip -->
<g id="node32" class="node"><title>\\Elabftw\\Elabftw\\MakeZip</title>
<polygon fill="none" stroke="black" points="411.5,-446 347.5,-446 347.5,-410 411.5,-410 411.5,-446"/>
<text text-anchor="middle" x="379.5" y="-425.2" font-family="Courier,monospace" font-size="11.00">MakeZip</text>
</g>
<!-- \\Elabftw\\Elabftw\\MakeZip&#45;&gt;\\Elabftw\\Elabftw\\Make -->
<g id="edge14" class="edge"><title>\\Elabftw\\Elabftw\\MakeZip&#45;&gt;\\Elabftw\\Elabftw\\Make</title>
<path fill="none" stroke="black" d="M347.479,-417.677C336.462,-413.334 324.258,-407.715 314,-401 278.506,-377.765 244.223,-342.634 222.908,-318.8"/>
<polygon fill="none" stroke="black" points="225.432,-316.37 216.194,-311.184 220.181,-320.999 225.432,-316.37"/>
</g>
<!-- \\Elabftw\\Elabftw\\DatabaseView -->
<g id="node33" class="node"><title>\\Elabftw\\Elabftw\\DatabaseView</title>
<polygon fill="none" stroke="black" points="428.5,-716 330.5,-716 330.5,-680 428.5,-680 428.5,-716"/>
<text text-anchor="middle" x="379.5" y="-695.2" font-family="Courier,monospace" font-size="11.00">DatabaseView</text>
</g>
<!-- \\Elabftw\\Elabftw\\DatabaseView&#45;&gt;\\Elabftw\\Elabftw\\EntityView -->
<g id="edge15" class="edge"><title>\\Elabftw\\Elabftw\\DatabaseView&#45;&gt;\\Elabftw\\Elabftw\\EntityView</title>
<path fill="none" stroke="black" d="M330.466,-698C306.3,-698 276.992,-698 252.376,-698"/>
<polygon fill="none" stroke="black" points="252.143,-694.5 242.143,-698 252.143,-701.5 252.143,-694.5"/>
</g>
<!-- \\Elabftw\\Elabftw\\ImportCsv -->
<g id="node34" class="node"><title>\\Elabftw\\Elabftw\\ImportCsv</title>
<polygon fill="none" stroke="black" points="418,-554 341,-554 341,-518 418,-518 418,-554"/>
<text text-anchor="middle" x="379.5" y="-533.2" font-family="Courier,monospace" font-size="11.00">ImportCsv</text>
</g>
<!-- \\Elabftw\\Elabftw\\ImportCsv&#45;&gt;\\Elabftw\\Elabftw\\Import -->
<g id="edge16" class="edge"><title>\\Elabftw\\Elabftw\\ImportCsv&#45;&gt;\\Elabftw\\Elabftw\\Import</title>
<path fill="none" stroke="black" d="M340.857,-536C315.117,-536 280.676,-536 252.413,-536"/>
<polygon fill="none" stroke="black" points="252.308,-532.5 242.308,-536 252.308,-539.5 252.308,-532.5"/>
</g>
<!-- \\Elabftw\\Elabftw\\Sysconfig -->
<g id="node35" class="node"><title>\\Elabftw\\Elabftw\\Sysconfig</title>
<polygon fill="none" stroke="black" points="418,-338 341,-338 341,-302 418,-302 418,-338"/>
<text text-anchor="middle" x="379.5" y="-317.2" font-family="Courier,monospace" font-size="11.00">Sysconfig</text>
</g>
<!-- \\Elabftw\\Elabftw\\Tags -->
<g id="node36" class="node"><title>\\Elabftw\\Elabftw\\Tags</title>
<polygon fill="none" stroke="black" points="406.5,-284 352.5,-284 352.5,-248 406.5,-248 406.5,-284"/>
<text text-anchor="middle" x="379.5" y="-263.2" font-family="Courier,monospace" font-size="11.00">Tags</text>
</g>
<!-- \\Elabftw\\Elabftw\\MakePdf -->
<g id="node37" class="node"><title>\\Elabftw\\Elabftw\\MakePdf</title>
<polygon fill="none" stroke="black" points="411.5,-392 347.5,-392 347.5,-356 411.5,-356 411.5,-392"/>
<text text-anchor="middle" x="379.5" y="-371.2" font-family="Courier,monospace" font-size="11.00">MakePdf</text>
</g>
<!-- \\Elabftw\\Elabftw\\MakePdf&#45;&gt;\\Elabftw\\Elabftw\\Make -->
<g id="edge17" class="edge"><title>\\Elabftw\\Elabftw\\MakePdf&#45;&gt;\\Elabftw\\Elabftw\\Make</title>
<path fill="none" stroke="black" d="M347.2,-361.262C336.609,-356.856 324.746,-351.813 314,-347 291.716,-337.019 267.237,-325.403 246.778,-315.507"/>
<polygon fill="none" stroke="black" points="248.208,-312.311 237.683,-311.094 245.152,-318.609 248.208,-312.311"/>
</g>
<!-- \\Elabftw\\Elabftw\\Update -->
<g id="node38" class="node"><title>\\Elabftw\\Elabftw\\Update</title>
<polygon fill="none" stroke="black" points="408,-176 351,-176 351,-140 408,-140 408,-176"/>
<text text-anchor="middle" x="379.5" y="-155.2" font-family="Courier,monospace" font-size="11.00">Update</text>
</g>
<!-- \\Elabftw\\Elabftw\\TrustedTimestamps -->
<g id="node39" class="node"><title>\\Elabftw\\Elabftw\\TrustedTimestamps</title>
<polygon fill="none" stroke="black" points="445,-122 314,-122 314,-86 445,-86 445,-122"/>
<text text-anchor="middle" x="379.5" y="-101.2" font-family="Courier,monospace" font-size="11.00">TrustedTimestamps</text>
</g>
<!-- \\Elabftw\\Elabftw\\Logs -->
<g id="node40" class="node"><title>\\Elabftw\\Elabftw\\Logs</title>
<polygon fill="none" stroke="black" points="227,-500 173,-500 173,-464 227,-464 227,-500"/>
<text text-anchor="middle" x="200" y="-479.2" font-family="Courier,monospace" font-size="11.00">Logs</text>
</g>
<!-- \\Elabftw\\Elabftw\\Logs&#45;&gt;\\Elabftw\\Elabftw\\Panel -->
<g id="edge18" class="edge"><title>\\Elabftw\\Elabftw\\Logs&#45;&gt;\\Elabftw\\Elabftw\\Panel</title>
<path fill="none" stroke="black" d="M172.781,-497.224C167.621,-500.77 162.437,-504.761 158,-509 123.61,-541.857 93.013,-588.115 75.4947,-617.059"/>
<polygon fill="none" stroke="black" points="72.3928,-615.427 70.2783,-625.809 78.4054,-619.011 72.3928,-615.427"/>
</g>
<!-- \\Elabftw\\Elabftw\\Upload -->
<g id="node41" class="node"><title>\\Elabftw\\Elabftw\\Upload</title>
<polygon fill="none" stroke="black" points="408,-230 351,-230 351,-194 408,-194 408,-230"/>
<text text-anchor="middle" x="379.5" y="-209.2" font-family="Courier,monospace" font-size="11.00">Upload</text>
</g>
<!-- \\Elabftw\\Elabftw\\Upload&#45;&gt;\\Elabftw\\Elabftw\\Make -->
<g id="edge19" class="edge"><title>\\Elabftw\\Elabftw\\Upload&#45;&gt;\\Elabftw\\Elabftw\\Make</title>
<path fill="none" stroke="black" d="M350.75,-223.265C339.314,-227.998 325.965,-233.641 314,-239 291.716,-248.981 267.237,-260.597 246.778,-270.493"/>
<polygon fill="none" stroke="black" points="245.152,-267.391 237.683,-274.906 248.208,-273.689 245.152,-267.391"/>
</g>
</g>
</svg>
