<?xml version="1.0" encoding="UTF-8" standalone="no"?>
<!DOCTYPE svg PUBLIC "-//W3C//DTD SVG 1.1//EN"
 "http://www.w3.org/Graphics/SVG/1.1/DTD/svg11.dtd">
<!-- Generated by graphviz version 2.38.0 (20140413.2041)
 -->
<!-- Title: G Pages: 1 -->
<svg width="359pt" height="2220pt"
 viewBox="0.00 0.00 359.00 2220.00" xmlns="http://www.w3.org/2000/svg" xmlns:xlink="http://www.w3.org/1999/xlink">
<g id="graph0" class="graph" transform="scale(1 1) rotate(0) translate(4 2216)">
<title>G</title>
<polygon fill="white" stroke="none" points="-4,4 -4,-2216 355,-2216 355,4 -4,4"/>
<g id="clust1" class="cluster"><title>cluster_Global</title>
<path fill="none" stroke="gray" d="M20,-8C20,-8 331,-8 331,-8 337,-8 343,-14 343,-20 343,-20 343,-2192 343,-2192 343,-2198 337,-2204 331,-2204 331,-2204 20,-2204 20,-2204 14,-2204 8,-2198 8,-2192 8,-2192 8,-20 8,-20 8,-14 14,-8 20,-8"/>
<text text-anchor="middle" x="175.5" y="-2191.2" font-family="Times,serif" font-size="11.00" fill="gray">Global</text>
</g>
<g id="clust2" class="cluster"><title>cluster_\Elabftw</title>
<path fill="none" stroke="gray" d="M28,-16C28,-16 323,-16 323,-16 329,-16 335,-22 335,-28 335,-28 335,-2164 335,-2164 335,-2170 329,-2176 323,-2176 323,-2176 28,-2176 28,-2176 22,-2176 16,-2170 16,-2164 16,-2164 16,-28 16,-28 16,-22 22,-16 28,-16"/>
<text text-anchor="middle" x="175.5" y="-2163.2" font-family="Times,serif" font-size="11.00" fill="gray">Elabftw</text>
</g>
<g id="clust3" class="cluster"><title>cluster_\Elabftw\Elabftw</title>
<path fill="none" stroke="gray" d="M36,-24C36,-24 315,-24 315,-24 321,-24 327,-30 327,-36 327,-36 327,-2136 327,-2136 327,-2142 321,-2148 315,-2148 315,-2148 36,-2148 36,-2148 30,-2148 24,-2142 24,-2136 24,-2136 24,-36 24,-36 24,-30 30,-24 36,-24"/>
<text text-anchor="middle" x="175.5" y="-2135.2" font-family="Times,serif" font-size="11.00" fill="gray">Elabftw</text>
</g>
<!-- \\Elabftw\\Elabftw\\ImportZip -->
<g id="node1" class="node"><title>\\Elabftw\\Elabftw\\ImportZip</title>
<polygon fill="none" stroke="black" points="292,-2066 215,-2066 215,-2030 292,-2030 292,-2066"/>
<text text-anchor="middle" x="253.5" y="-2045.2" font-family="Courier,monospace" font-size="11.00">ImportZip</text>
</g>
<!-- \\Elabftw\\Elabftw\\Import -->
<g id="node15" class="node"><title>\\Elabftw\\Elabftw\\Import</title>
<polygon fill="none" stroke="black" points="116,-2093 32,-2093 32,-2057 116,-2057 116,-2093"/>
<text text-anchor="start" x="40" y="-2078.2" font-family="Courier,monospace" font-size="11.00">«abstract»</text>
<text text-anchor="start" x="53.5" y="-2066.2" font-family="Courier,monospace" font-size="11.00">Import</text>
</g>
<!-- \\Elabftw\\Elabftw\\ImportZip&#45;&gt;\\Elabftw\\Elabftw\\Import -->
<g id="edge1" class="edge"><title>\\Elabftw\\Elabftw\\ImportZip&#45;&gt;\\Elabftw\\Elabftw\\Import</title>
<path fill="none" stroke="black" d="M214.857,-2053.73C189.117,-2057.64 154.676,-2062.88 126.413,-2067.18"/>
<polygon fill="none" stroke="black" points="125.668,-2063.75 116.308,-2068.72 126.721,-2070.67 125.668,-2063.75"/>
</g>
<!-- \\Elabftw\\Elabftw\\TrustedTimestamps -->
<g id="node2" class="node"><title>\\Elabftw\\Elabftw\\TrustedTimestamps</title>
<polygon fill="none" stroke="black" points="319,-1310 188,-1310 188,-1274 319,-1274 319,-1310"/>
<text text-anchor="middle" x="253.5" y="-1289.2" font-family="Courier,monospace" font-size="11.00">TrustedTimestamps</text>
</g>
<!-- \\Elabftw\\Elabftw\\Entity -->
<g id="node33" class="node"><title>\\Elabftw\\Elabftw\\Entity</title>
<polygon fill="none" stroke="black" points="102.5,-1040 45.5,-1040 45.5,-1004 102.5,-1004 102.5,-1040"/>
<text text-anchor="middle" x="74" y="-1019.2" font-family="Courier,monospace" font-size="11.00">Entity</text>
</g>
<!-- \\Elabftw\\Elabftw\\TrustedTimestamps&#45;&gt;\\Elabftw\\Elabftw\\Entity -->
<g id="edge2" class="edge"><title>\\Elabftw\\Elabftw\\TrustedTimestamps&#45;&gt;\\Elabftw\\Elabftw\\Entity</title>
<path fill="none" stroke="black" d="M199.706,-1273.96C195.48,-1271.34 191.5,-1268.37 188,-1265 124.428,-1203.85 93.0406,-1100 81.0337,-1050.23"/>
<polygon fill="none" stroke="black" points="84.3724,-1049.13 78.6987,-1040.19 77.5542,-1050.72 84.3724,-1049.13"/>
</g>
<!-- \\Elabftw\\Elabftw\\Db -->
<g id="node3" class="node"><title>\\Elabftw\\Elabftw\\Db</title>
<polygon fill="none" stroke="black" points="280.5,-2012 226.5,-2012 226.5,-1976 280.5,-1976 280.5,-2012"/>
<text text-anchor="middle" x="253.5" y="-1991.2" font-family="Courier,monospace" font-size="11.00">Db</text>
</g>
<!-- \\Elabftw\\Elabftw\\MakePdf -->
<g id="node4" class="node"><title>\\Elabftw\\Elabftw\\MakePdf</title>
<polygon fill="none" stroke="black" points="285.5,-1688 221.5,-1688 221.5,-1652 285.5,-1652 285.5,-1688"/>
<text text-anchor="middle" x="253.5" y="-1667.2" font-family="Courier,monospace" font-size="11.00">MakePdf</text>
</g>
<!-- \\Elabftw\\Elabftw\\Make -->
<g id="node5" class="node"><title>\\Elabftw\\Elabftw\\Make</title>
<polygon fill="none" stroke="black" points="116,-1850 32,-1850 32,-1814 116,-1814 116,-1850"/>
<text text-anchor="start" x="40" y="-1835.2" font-family="Courier,monospace" font-size="11.00">«abstract»</text>
<text text-anchor="start" x="60" y="-1823.2" font-family="Courier,monospace" font-size="11.00">Make</text>
</g>
<!-- \\Elabftw\\Elabftw\\MakePdf&#45;&gt;\\Elabftw\\Elabftw\\Make -->
<g id="edge3" class="edge"><title>\\Elabftw\\Elabftw\\MakePdf&#45;&gt;\\Elabftw\\Elabftw\\Make</title>
<path fill="none" stroke="black" d="M221.38,-1679.58C210.232,-1683.87 197.967,-1689.65 188,-1697 146.973,-1727.24 111.45,-1775.36 91.6673,-1805.24"/>
<polygon fill="none" stroke="black" points="88.5617,-1803.6 86.0446,-1813.89 94.4301,-1807.41 88.5617,-1803.6"/>
</g>
<!-- \\Elabftw\\Elabftw\\TagCloud -->
<g id="node6" class="node"><title>\\Elabftw\\Elabftw\\TagCloud</title>
<polygon fill="none" stroke="black" points="289,-1904 218,-1904 218,-1868 289,-1868 289,-1904"/>
<text text-anchor="middle" x="253.5" y="-1883.2" font-family="Courier,monospace" font-size="11.00">TagCloud</text>
</g>
<!-- \\Elabftw\\Elabftw\\Auth -->
<g id="node7" class="node"><title>\\Elabftw\\Elabftw\\Auth</title>
<polygon fill="none" stroke="black" points="101,-1634 47,-1634 47,-1598 101,-1598 101,-1634"/>
<text text-anchor="middle" x="74" y="-1613.2" font-family="Courier,monospace" font-size="11.00">Auth</text>
</g>
<!-- \\Elabftw\\Elabftw\\ImportCsv -->
<g id="node8" class="node"><title>\\Elabftw\\Elabftw\\ImportCsv</title>
<polygon fill="none" stroke="black" points="292,-2120 215,-2120 215,-2084 292,-2084 292,-2120"/>
<text text-anchor="middle" x="253.5" y="-2099.2" font-family="Courier,monospace" font-size="11.00">ImportCsv</text>
</g>
<!-- \\Elabftw\\Elabftw\\ImportCsv&#45;&gt;\\Elabftw\\Elabftw\\Import -->
<g id="edge4" class="edge"><title>\\Elabftw\\Elabftw\\ImportCsv&#45;&gt;\\Elabftw\\Elabftw\\Import</title>
<path fill="none" stroke="black" d="M214.857,-2096.27C189.117,-2092.36 154.676,-2087.12 126.413,-2082.82"/>
<polygon fill="none" stroke="black" points="126.721,-2079.33 116.308,-2081.28 125.668,-2086.25 126.721,-2079.33"/>
</g>
<!-- \\Elabftw\\Elabftw\\Formkey -->
<g id="node9" class="node"><title>\\Elabftw\\Elabftw\\Formkey</title>
<polygon fill="none" stroke="black" points="285.5,-1796 221.5,-1796 221.5,-1760 285.5,-1760 285.5,-1796"/>
<text text-anchor="middle" x="253.5" y="-1775.2" font-family="Courier,monospace" font-size="11.00">Formkey</text>
</g>
<!-- \\Elabftw\\Elabftw\\Update -->
<g id="node10" class="node"><title>\\Elabftw\\Elabftw\\Update</title>
<polygon fill="none" stroke="black" points="282,-1742 225,-1742 225,-1706 282,-1706 282,-1742"/>
<text text-anchor="middle" x="253.5" y="-1721.2" font-family="Courier,monospace" font-size="11.00">Update</text>
</g>
<!-- \\Elabftw\\Elabftw\\MakeZip -->
<g id="node11" class="node"><title>\\Elabftw\\Elabftw\\MakeZip</title>
<polygon fill="none" stroke="black" points="285.5,-1850 221.5,-1850 221.5,-1814 285.5,-1814 285.5,-1850"/>
<text text-anchor="middle" x="253.5" y="-1829.2" font-family="Courier,monospace" font-size="11.00">MakeZip</text>
</g>
<!-- \\Elabftw\\Elabftw\\MakeZip&#45;&gt;\\Elabftw\\Elabftw\\Make -->
<g id="edge5" class="edge"><title>\\Elabftw\\Elabftw\\MakeZip&#45;&gt;\\Elabftw\\Elabftw\\Make</title>
<path fill="none" stroke="black" d="M221.175,-1832C194.887,-1832 156.818,-1832 126.12,-1832"/>
<polygon fill="none" stroke="black" points="126.02,-1828.5 116.02,-1832 126.02,-1835.5 126.02,-1828.5"/>
</g>
<!-- \\Elabftw\\Elabftw\\MakeCsv -->
<g id="node12" class="node"><title>\\Elabftw\\Elabftw\\MakeCsv</title>
<polygon fill="none" stroke="black" points="285.5,-1958 221.5,-1958 221.5,-1922 285.5,-1922 285.5,-1958"/>
<text text-anchor="middle" x="253.5" y="-1937.2" font-family="Courier,monospace" font-size="11.00">MakeCsv</text>
</g>
<!-- \\Elabftw\\Elabftw\\MakeCsv&#45;&gt;\\Elabftw\\Elabftw\\Make -->
<g id="edge6" class="edge"><title>\\Elabftw\\Elabftw\\MakeCsv&#45;&gt;\\Elabftw\\Elabftw\\Make</title>
<path fill="none" stroke="black" d="M221.318,-1928.6C210.517,-1924.22 198.493,-1918.86 188,-1913 158.286,-1896.41 127.027,-1873.53 104.938,-1856.31"/>
<polygon fill="none" stroke="black" points="106.965,-1853.45 96.9428,-1850.02 102.634,-1858.95 106.965,-1853.45"/>
</g>
<!-- \\Elabftw\\Elabftw\\UserStats -->
<g id="node13" class="node"><title>\\Elabftw\\Elabftw\\UserStats</title>
<polygon fill="none" stroke="black" points="292,-1580 215,-1580 215,-1544 292,-1544 292,-1580"/>
<text text-anchor="middle" x="253.5" y="-1559.2" font-family="Courier,monospace" font-size="11.00">UserStats</text>
</g>
<!-- \\Elabftw\\Elabftw\\Tools -->
<g id="node14" class="node"><title>\\Elabftw\\Elabftw\\Tools</title>
<polygon fill="none" stroke="black" points="280.5,-1526 226.5,-1526 226.5,-1490 280.5,-1490 280.5,-1526"/>
<text text-anchor="middle" x="253.5" y="-1505.2" font-family="Courier,monospace" font-size="11.00">Tools</text>
</g>
<!-- \\Elabftw\\Elabftw\\MolViewer -->
<g id="node16" class="node"><title>\\Elabftw\\Elabftw\\MolViewer</title>
<polygon fill="none" stroke="black" points="292,-1472 215,-1472 215,-1436 292,-1436 292,-1472"/>
<text text-anchor="middle" x="253.5" y="-1451.2" font-family="Courier,monospace" font-size="11.00">MolViewer</text>
</g>
<!-- \\Elabftw\\Elabftw\\Templates -->
<g id="node17" class="node"><title>\\Elabftw\\Elabftw\\Templates</title>
<polygon fill="none" stroke="black" points="292,-986 215,-986 215,-950 292,-950 292,-986"/>
<text text-anchor="middle" x="253.5" y="-965.2" font-family="Courier,monospace" font-size="11.00">Templates</text>
</g>
<!-- \\Elabftw\\Elabftw\\Templates&#45;&gt;\\Elabftw\\Elabftw\\Entity -->
<g id="edge7" class="edge"><title>\\Elabftw\\Elabftw\\Templates&#45;&gt;\\Elabftw\\Elabftw\\Entity</title>
<path fill="none" stroke="black" d="M214.857,-979.452C184.685,-988.631 142.559,-1001.45 112.441,-1010.61"/>
<polygon fill="none" stroke="black" points="111.271,-1007.31 102.722,-1013.57 113.308,-1014 111.271,-1007.31"/>
</g>
<!-- \\Elabftw\\Elabftw\\Config -->
<g id="node18" class="node"><title>\\Elabftw\\Elabftw\\Config</title>
<polygon fill="none" stroke="black" points="282,-1364 225,-1364 225,-1328 282,-1328 282,-1364"/>
<text text-anchor="middle" x="253.5" y="-1343.2" font-family="Courier,monospace" font-size="11.00">Config</text>
</g>
<!-- \\Elabftw\\Elabftw\\Users -->
<g id="node19" class="node"><title>\\Elabftw\\Elabftw\\Users</title>
<polygon fill="none" stroke="black" points="280.5,-1634 226.5,-1634 226.5,-1598 280.5,-1598 280.5,-1634"/>
<text text-anchor="middle" x="253.5" y="-1613.2" font-family="Courier,monospace" font-size="11.00">Users</text>
</g>
<!-- \\Elabftw\\Elabftw\\Users&#45;&gt;\\Elabftw\\Elabftw\\Auth -->
<g id="edge8" class="edge"><title>\\Elabftw\\Elabftw\\Users&#45;&gt;\\Elabftw\\Elabftw\\Auth</title>
<path fill="none" stroke="black" d="M226.309,-1616C195.809,-1616 145.251,-1616 111.056,-1616"/>
<polygon fill="none" stroke="black" points="111.009,-1612.5 101.009,-1616 111.009,-1619.5 111.009,-1612.5"/>
</g>
<!-- \\Elabftw\\Elabftw\\Links -->
<g id="node20" class="node"><title>\\Elabftw\\Elabftw\\Links</title>
<polygon fill="none" stroke="black" points="280.5,-770 226.5,-770 226.5,-734 280.5,-734 280.5,-770"/>
<text text-anchor="middle" x="253.5" y="-749.2" font-family="Courier,monospace" font-size="11.00">Links</text>
</g>
<!-- \\Elabftw\\Elabftw\\Links&#45;&gt;\\Elabftw\\Elabftw\\Entity -->
<g id="edge9" class="edge"><title>\\Elabftw\\Elabftw\\Links&#45;&gt;\\Elabftw\\Elabftw\\Entity</title>
<path fill="none" stroke="black" d="M226.439,-758.111C213.575,-762.228 198.586,-768.817 188,-779 124.428,-840.15 93.0406,-944.003 81.0337,-993.77"/>
<polygon fill="none" stroke="black" points="77.5542,-993.281 78.6987,-1003.81 84.3724,-994.866 77.5542,-993.281"/>
</g>
<!-- \\Elabftw\\Elabftw\\TeamGroups -->
<g id="node21" class="node"><title>\\Elabftw\\Elabftw\\TeamGroups</title>
<polygon fill="none" stroke="black" points="295.5,-1202 211.5,-1202 211.5,-1166 295.5,-1166 295.5,-1202"/>
<text text-anchor="middle" x="253.5" y="-1181.2" font-family="Courier,monospace" font-size="11.00">TeamGroups</text>
</g>
<!-- \\Elabftw\\Elabftw\\Tags -->
<g id="node22" class="node"><title>\\Elabftw\\Elabftw\\Tags</title>
<polygon fill="none" stroke="black" points="280.5,-554 226.5,-554 226.5,-518 280.5,-518 280.5,-554"/>
<text text-anchor="middle" x="253.5" y="-533.2" font-family="Courier,monospace" font-size="11.00">Tags</text>
</g>
<!-- \\Elabftw\\Elabftw\\Tags&#45;&gt;\\Elabftw\\Elabftw\\Entity -->
<g id="edge10" class="edge"><title>\\Elabftw\\Elabftw\\Tags&#45;&gt;\\Elabftw\\Elabftw\\Entity</title>
<path fill="none" stroke="black" d="M226.223,-541.105C212.978,-544.98 197.709,-551.656 188,-563 131.019,-629.58 90.4656,-904.524 78.5878,-993.838"/>
<polygon fill="none" stroke="black" points="75.1137,-993.413 77.2823,-1003.78 82.0542,-994.324 75.1137,-993.413"/>
</g>
<!-- \\Elabftw\\Elabftw\\Experiments -->
<g id="node23" class="node"><title>\\Elabftw\\Elabftw\\Experiments</title>
<polygon fill="none" stroke="black" points="299,-500 208,-500 208,-464 299,-464 299,-500"/>
<text text-anchor="middle" x="253.5" y="-479.2" font-family="Courier,monospace" font-size="11.00">Experiments</text>
</g>
<!-- \\Elabftw\\Elabftw\\Experiments&#45;&gt;\\Elabftw\\Elabftw\\Entity -->
<g id="edge11" class="edge"><title>\\Elabftw\\Elabftw\\Experiments&#45;&gt;\\Elabftw\\Elabftw\\Entity</title>
<path fill="none" stroke="black" d="M207.794,-494.044C200.321,-497.787 193.29,-502.663 188,-509 124.903,-584.586 87.854,-897.632 77.8014,-993.783"/>
<polygon fill="none" stroke="black" points="74.3017,-993.601 76.7594,-1003.91 81.2649,-994.318 74.3017,-993.601"/>
</g>
<!-- \\Elabftw\\Elabftw\\Comments -->
<g id="node24" class="node"><title>\\Elabftw\\Elabftw\\Comments</title>
<polygon fill="none" stroke="black" points="289,-1418 218,-1418 218,-1382 289,-1382 289,-1418"/>
<text text-anchor="middle" x="253.5" y="-1397.2" font-family="Courier,monospace" font-size="11.00">Comments</text>
</g>
<!-- \\Elabftw\\Elabftw\\Comments&#45;&gt;\\Elabftw\\Elabftw\\Entity -->
<g id="edge12" class="edge"><title>\\Elabftw\\Elabftw\\Comments&#45;&gt;\\Elabftw\\Elabftw\\Entity</title>
<path fill="none" stroke="black" d="M217.981,-1391.73C207.154,-1387.65 195.965,-1381.67 188,-1373 101.012,-1278.29 80.963,-1116.09 76.3619,-1050.64"/>
<polygon fill="none" stroke="black" points="79.8313,-1050.04 75.7085,-1040.28 72.8452,-1050.48 79.8313,-1050.04"/>
</g>
<!-- \\Elabftw\\Elabftw\\Scheduler -->
<g id="node25" class="node"><title>\\Elabftw\\Elabftw\\Scheduler</title>
<polygon fill="none" stroke="black" points="292,-1256 215,-1256 215,-1220 292,-1220 292,-1256"/>
<text text-anchor="middle" x="253.5" y="-1235.2" font-family="Courier,monospace" font-size="11.00">Scheduler</text>
</g>
<!-- \\Elabftw\\Elabftw\\Scheduler&#45;&gt;\\Elabftw\\Elabftw\\Entity -->
<g id="edge13" class="edge"><title>\\Elabftw\\Elabftw\\Scheduler&#45;&gt;\\Elabftw\\Elabftw\\Entity</title>
<path fill="none" stroke="black" d="M214.711,-1226.86C205.298,-1222.88 195.705,-1217.68 188,-1211 135.804,-1165.75 100.996,-1090.22 85.033,-1049.7"/>
<polygon fill="none" stroke="black" points="88.2338,-1048.27 81.3816,-1040.19 81.6991,-1050.78 88.2338,-1048.27"/>
</g>
<!-- \\Elabftw\\Elabftw\\Uploads -->
<g id="node26" class="node"><title>\\Elabftw\\Elabftw\\Uploads</title>
<polygon fill="none" stroke="black" points="285.5,-1148 221.5,-1148 221.5,-1112 285.5,-1112 285.5,-1148"/>
<text text-anchor="middle" x="253.5" y="-1127.2" font-family="Courier,monospace" font-size="11.00">Uploads</text>
</g>
<!-- \\Elabftw\\Elabftw\\Uploads&#45;&gt;\\Elabftw\\Elabftw\\Entity -->
<g id="edge14" class="edge"><title>\\Elabftw\\Elabftw\\Uploads&#45;&gt;\\Elabftw\\Elabftw\\Entity</title>
<path fill="none" stroke="black" d="M221.318,-1118.6C210.517,-1114.22 198.493,-1108.86 188,-1103 158.286,-1086.41 127.027,-1063.53 104.938,-1046.31"/>
<polygon fill="none" stroke="black" points="106.965,-1043.45 96.9428,-1040.02 102.634,-1048.95 106.965,-1043.45"/>
</g>
<!-- \\Elabftw\\Elabftw\\BannedUsers -->
<g id="node27" class="node"><title>\\Elabftw\\Elabftw\\BannedUsers</title>
<polygon fill="none" stroke="black" points="299,-878 208,-878 208,-842 299,-842 299,-878"/>
<text text-anchor="middle" x="253.5" y="-857.2" font-family="Courier,monospace" font-size="11.00">BannedUsers</text>
</g>
<!-- \\Elabftw\\Elabftw\\Teams -->
<g id="node28" class="node"><title>\\Elabftw\\Elabftw\\Teams</title>
<polygon fill="none" stroke="black" points="280.5,-824 226.5,-824 226.5,-788 280.5,-788 280.5,-824"/>
<text text-anchor="middle" x="253.5" y="-803.2" font-family="Courier,monospace" font-size="11.00">Teams</text>
</g>
<!-- \\Elabftw\\Elabftw\\Status -->
<g id="node29" class="node"><title>\\Elabftw\\Elabftw\\Status</title>
<polygon fill="none" stroke="black" points="282,-1094 225,-1094 225,-1058 282,-1058 282,-1094"/>
<text text-anchor="middle" x="253.5" y="-1073.2" font-family="Courier,monospace" font-size="11.00">Status</text>
</g>
<!-- \\Elabftw\\Elabftw\\Status&#45;&gt;\\Elabftw\\Elabftw\\Entity -->
<g id="edge15" class="edge"><title>\\Elabftw\\Elabftw\\Status&#45;&gt;\\Elabftw\\Elabftw\\Entity</title>
<path fill="none" stroke="black" d="M224.766,-1067.56C194.546,-1058.37 146.032,-1043.61 112.447,-1033.39"/>
<polygon fill="none" stroke="black" points="113.125,-1029.94 102.54,-1030.38 111.088,-1036.64 113.125,-1029.94"/>
</g>
<!-- \\Elabftw\\Elabftw\\Sysconfig -->
<g id="node30" class="node"><title>\\Elabftw\\Elabftw\\Sysconfig</title>
<polygon fill="none" stroke="black" points="292,-716 215,-716 215,-680 292,-680 292,-716"/>
<text text-anchor="middle" x="253.5" y="-695.2" font-family="Courier,monospace" font-size="11.00">Sysconfig</text>
</g>
<!-- \\Elabftw\\Elabftw\\Logs -->
<g id="node31" class="node"><title>\\Elabftw\\Elabftw\\Logs</title>
<polygon fill="none" stroke="black" points="280.5,-662 226.5,-662 226.5,-626 280.5,-626 280.5,-662"/>
<text text-anchor="middle" x="253.5" y="-641.2" font-family="Courier,monospace" font-size="11.00">Logs</text>
</g>
<!-- \\Elabftw\\Elabftw\\Revisions -->
<g id="node32" class="node"><title>\\Elabftw\\Elabftw\\Revisions</title>
<polygon fill="none" stroke="black" points="292,-608 215,-608 215,-572 292,-572 292,-608"/>
<text text-anchor="middle" x="253.5" y="-587.2" font-family="Courier,monospace" font-size="11.00">Revisions</text>
</g>
<!-- \\Elabftw\\Elabftw\\Database -->
<g id="node34" class="node"><title>\\Elabftw\\Elabftw\\Database</title>
<polygon fill="none" stroke="black" points="289,-1040 218,-1040 218,-1004 289,-1004 289,-1040"/>
<text text-anchor="middle" x="253.5" y="-1019.2" font-family="Courier,monospace" font-size="11.00">Database</text>
</g>
<!-- \\Elabftw\\Elabftw\\Database&#45;&gt;\\Elabftw\\Elabftw\\Entity -->
<g id="edge16" class="edge"><title>\\Elabftw\\Elabftw\\Database&#45;&gt;\\Elabftw\\Elabftw\\Entity</title>
<path fill="none" stroke="black" d="M217.855,-1022C187.58,-1022 143.722,-1022 112.602,-1022"/>
<polygon fill="none" stroke="black" points="112.575,-1018.5 102.575,-1022 112.575,-1025.5 112.575,-1018.5"/>
</g>
<!-- \\Elabftw\\Elabftw\\ItemsTypes -->
<g id="node35" class="node"><title>\\Elabftw\\Elabftw\\ItemsTypes</title>
<polygon fill="none" stroke="black" points="295.5,-932 211.5,-932 211.5,-896 295.5,-896 295.5,-932"/>
<text text-anchor="middle" x="253.5" y="-911.2" font-family="Courier,monospace" font-size="11.00">ItemsTypes</text>
</g>
<!-- \\Elabftw\\Elabftw\\ItemsTypes&#45;&gt;\\Elabftw\\Elabftw\\Entity -->
<g id="edge17" class="edge"><title>\\Elabftw\\Elabftw\\ItemsTypes&#45;&gt;\\Elabftw\\Elabftw\\Entity</title>
<path fill="none" stroke="black" d="M211.239,-929.637C203.371,-933.073 195.314,-936.917 188,-941 158.286,-957.589 127.027,-980.474 104.938,-997.688"/>
<polygon fill="none" stroke="black" points="102.634,-995.047 96.9428,-1003.98 106.965,-1000.55 102.634,-995.047"/>
</g>
<!-- \\Elabftw\\Elabftw\\DatabaseView -->
<g id="node36" class="node"><title>\\Elabftw\\Elabftw\\DatabaseView</title>
<polygon fill="none" stroke="black" points="302.5,-446 204.5,-446 204.5,-410 302.5,-410 302.5,-446"/>
<text text-anchor="middle" x="253.5" y="-425.2" font-family="Courier,monospace" font-size="11.00">DatabaseView</text>
</g>
<!-- \\Elabftw\\Elabftw\\EntityView -->
<g id="node39" class="node"><title>\\Elabftw\\Elabftw\\EntityView</title>
<polygon fill="none" stroke="black" points="116,-392 32,-392 32,-356 116,-356 116,-392"/>
<text text-anchor="middle" x="74" y="-371.2" font-family="Courier,monospace" font-size="11.00">EntityView</text>
</g>
<!-- \\Elabftw\\Elabftw\\DatabaseView&#45;&gt;\\Elabftw\\Elabftw\\EntityView -->
<g id="edge18" class="edge"><title>\\Elabftw\\Elabftw\\DatabaseView&#45;&gt;\\Elabftw\\Elabftw\\EntityView</title>
<path fill="none" stroke="black" d="M204.466,-413.387C180.084,-405.969 150.468,-396.959 125.718,-389.43"/>
<polygon fill="none" stroke="black" points="126.729,-386.079 116.143,-386.517 124.691,-392.776 126.729,-386.079"/>
</g>
<!-- \\Elabftw\\Elabftw\\ExperimentsView -->
<g id="node37" class="node"><title>\\Elabftw\\Elabftw\\ExperimentsView</title>
<polygon fill="none" stroke="black" points="312.5,-392 194.5,-392 194.5,-356 312.5,-356 312.5,-392"/>
<text text-anchor="middle" x="253.5" y="-371.2" font-family="Courier,monospace" font-size="11.00">ExperimentsView</text>
</g>
<!-- \\Elabftw\\Elabftw\\ExperimentsView&#45;&gt;\\Elabftw\\Elabftw\\EntityView -->
<g id="edge19" class="edge"><title>\\Elabftw\\Elabftw\\ExperimentsView&#45;&gt;\\Elabftw\\Elabftw\\EntityView</title>
<path fill="none" stroke="black" d="M194.38,-374C172.397,-374 147.557,-374 126.25,-374"/>
<polygon fill="none" stroke="black" points="126.102,-370.5 116.102,-374 126.102,-377.5 126.102,-370.5"/>
</g>
<!-- \\Elabftw\\Elabftw\\SysconfigView -->
<g id="node38" class="node"><title>\\Elabftw\\Elabftw\\SysconfigView</title>
<polygon fill="none" stroke="black" points="305.5,-338 201.5,-338 201.5,-302 305.5,-302 305.5,-338"/>
<text text-anchor="middle" x="253.5" y="-317.2" font-family="Courier,monospace" font-size="11.00">SysconfigView</text>
</g>
<!-- \\Elabftw\\Elabftw\\StatusView -->
<g id="node40" class="node"><title>\\Elabftw\\Elabftw\\StatusView</title>
<polygon fill="none" stroke="black" points="295.5,-284 211.5,-284 211.5,-248 295.5,-248 295.5,-284"/>
<text text-anchor="middle" x="253.5" y="-263.2" font-family="Courier,monospace" font-size="11.00">StatusView</text>
</g>
<!-- \\Elabftw\\Elabftw\\UploadsView -->
<g id="node41" class="node"><title>\\Elabftw\\Elabftw\\UploadsView</title>
<polygon fill="none" stroke="black" points="299,-230 208,-230 208,-194 299,-194 299,-230"/>
<text text-anchor="middle" x="253.5" y="-209.2" font-family="Courier,monospace" font-size="11.00">UploadsView</text>
</g>
<!-- \\Elabftw\\Elabftw\\UploadsView&#45;&gt;\\Elabftw\\Elabftw\\EntityView -->
<g id="edge20" class="edge"><title>\\Elabftw\\Elabftw\\UploadsView&#45;&gt;\\Elabftw\\Elabftw\\EntityView</title>
<path fill="none" stroke="black" d="M207.955,-227.323C200.966,-230.648 194.059,-234.535 188,-239 146.973,-269.239 111.45,-317.362 91.6673,-347.241"/>
<polygon fill="none" stroke="black" points="88.5617,-345.597 86.0446,-355.889 94.4301,-349.413 88.5617,-345.597"/>
</g>
<!-- \\Elabftw\\Elabftw\\ItemsTypesView -->
<g id="node42" class="node"><title>\\Elabftw\\Elabftw\\ItemsTypesView</title>
<polygon fill="none" stroke="black" points="309,-176 198,-176 198,-140 309,-140 309,-176"/>
<text text-anchor="middle" x="253.5" y="-155.2" font-family="Courier,monospace" font-size="11.00">ItemsTypesView</text>
</g>
<!-- \\Elabftw\\Elabftw\\TeamsView -->
<g id="node43" class="node"><title>\\Elabftw\\Elabftw\\TeamsView</title>
<polygon fill="none" stroke="black" points="292,-122 215,-122 215,-86 292,-86 292,-122"/>
<text text-anchor="middle" x="253.5" y="-101.2" font-family="Courier,monospace" font-size="11.00">TeamsView</text>
</g>
<!-- \\Elabftw\\Elabftw\\TeamGroupsView -->
<g id="node44" class="node"><title>\\Elabftw\\Elabftw\\TeamGroupsView</title>
<polygon fill="none" stroke="black" points="309,-68 198,-68 198,-32 309,-32 309,-68"/>
<text text-anchor="middle" x="253.5" y="-47.2" font-family="Courier,monospace" font-size="11.00">TeamGroupsView</text>
</g>
</g>
</svg>
