<?xml version="1.0" encoding="UTF-8" standalone="no"?>
<!DOCTYPE svg PUBLIC "-//W3C//DTD SVG 1.1//EN"
 "http://www.w3.org/Graphics/SVG/1.1/DTD/svg11.dtd">
<!-- Generated by graphviz version 2.38.0 (20140413.2041)
 -->
<!-- Title: G Pages: 1 -->
<svg width="485pt" height="1518pt"
 viewBox="0.00 0.00 485.00 1518.00" xmlns="http://www.w3.org/2000/svg" xmlns:xlink="http://www.w3.org/1999/xlink">
<g id="graph0" class="graph" transform="scale(1 1) rotate(0) translate(4 1514)">
<title>G</title>
<polygon fill="white" stroke="none" points="-4,4 -4,-1514 481,-1514 481,4 -4,4"/>
<g id="clust1" class="cluster"><title>cluster_Global</title>
<path fill="none" stroke="gray" d="M20,-8C20,-8 457,-8 457,-8 463,-8 469,-14 469,-20 469,-20 469,-1490 469,-1490 469,-1496 463,-1502 457,-1502 457,-1502 20,-1502 20,-1502 14,-1502 8,-1496 8,-1490 8,-1490 8,-20 8,-20 8,-14 14,-8 20,-8"/>
<text text-anchor="middle" x="238.5" y="-1489.2" font-family="Times,serif" font-size="11.00" fill="gray">Global</text>
</g>
<g id="clust2" class="cluster"><title>cluster_\Elabftw</title>
<path fill="none" stroke="gray" d="M28,-16C28,-16 449,-16 449,-16 455,-16 461,-22 461,-28 461,-28 461,-1462 461,-1462 461,-1468 455,-1474 449,-1474 449,-1474 28,-1474 28,-1474 22,-1474 16,-1468 16,-1462 16,-1462 16,-28 16,-28 16,-22 22,-16 28,-16"/>
<text text-anchor="middle" x="238.5" y="-1461.2" font-family="Times,serif" font-size="11.00" fill="gray">Elabftw</text>
</g>
<g id="clust3" class="cluster"><title>cluster_\Elabftw\Elabftw</title>
<path fill="none" stroke="gray" d="M36,-24C36,-24 441,-24 441,-24 447,-24 453,-30 453,-36 453,-36 453,-1434 453,-1434 453,-1440 447,-1446 441,-1446 441,-1446 36,-1446 36,-1446 30,-1446 24,-1440 24,-1434 24,-1434 24,-36 24,-36 24,-30 30,-24 36,-24"/>
<text text-anchor="middle" x="238.5" y="-1433.2" font-family="Times,serif" font-size="11.00" fill="gray">Elabftw</text>
</g>
<!-- \\Elabftw\\Elabftw\\Db -->
<g id="node1" class="node"><title>\\Elabftw\\Elabftw\\Db</title>
<polygon fill="none" stroke="black" points="406.5,-1418 352.5,-1418 352.5,-1382 406.5,-1382 406.5,-1418"/>
<text text-anchor="middle" x="379.5" y="-1397.2" font-family="Courier,monospace" font-size="11.00">Db</text>
</g>
<!-- \\Elabftw\\Elabftw\\ItemsTypes -->
<g id="node2" class="node"><title>\\Elabftw\\Elabftw\\ItemsTypes</title>
<polygon fill="none" stroke="black" points="242,-824 158,-824 158,-788 242,-788 242,-824"/>
<text text-anchor="middle" x="200" y="-803.2" font-family="Courier,monospace" font-size="11.00">ItemsTypes</text>
</g>
<!-- \\Elabftw\\Elabftw\\Panel -->
<g id="node32" class="node"><title>\\Elabftw\\Elabftw\\Panel</title>
<polygon fill="none" stroke="black" points="86,-689 32,-689 32,-653 86,-653 86,-689"/>
<text text-anchor="middle" x="59" y="-668.2" font-family="Courier,monospace" font-size="11.00">Panel</text>
</g>
<!-- \\Elabftw\\Elabftw\\ItemsTypes&#45;&gt;\\Elabftw\\Elabftw\\Panel -->
<g id="edge1" class="edge"><title>\\Elabftw\\Elabftw\\ItemsTypes&#45;&gt;\\Elabftw\\Elabftw\\Panel</title>
<path fill="none" stroke="black" d="M169.666,-787.995C165.626,-785.142 161.625,-782.104 158,-779 128.54,-753.774 99.246,-720.066 80.4684,-697.06"/>
<polygon fill="none" stroke="black" points="83.0503,-694.687 74.0453,-689.104 77.6037,-699.084 83.0503,-694.687"/>
</g>
<!-- \\Elabftw\\Elabftw\\StatusView -->
<g id="node3" class="node"><title>\\Elabftw\\Elabftw\\StatusView</title>
<polygon fill="none" stroke="black" points="421.5,-1364 337.5,-1364 337.5,-1328 421.5,-1328 421.5,-1364"/>
<text text-anchor="middle" x="379.5" y="-1343.2" font-family="Courier,monospace" font-size="11.00">StatusView</text>
</g>
<!-- \\Elabftw\\Elabftw\\TeamsView -->
<g id="node4" class="node"><title>\\Elabftw\\Elabftw\\TeamsView</title>
<polygon fill="none" stroke="black" points="418,-1310 341,-1310 341,-1274 418,-1274 418,-1310"/>
<text text-anchor="middle" x="379.5" y="-1289.2" font-family="Courier,monospace" font-size="11.00">TeamsView</text>
</g>
<!-- \\Elabftw\\Elabftw\\Teams -->
<g id="node11" class="node"><title>\\Elabftw\\Elabftw\\Teams</title>
<polygon fill="none" stroke="black" points="227,-770 173,-770 173,-734 227,-734 227,-770"/>
<text text-anchor="middle" x="200" y="-749.2" font-family="Courier,monospace" font-size="11.00">Teams</text>
</g>
<!-- \\Elabftw\\Elabftw\\TeamsView&#45;&gt;\\Elabftw\\Elabftw\\Teams -->
<g id="edge2" class="edge"><title>\\Elabftw\\Elabftw\\TeamsView&#45;&gt;\\Elabftw\\Elabftw\\Teams</title>
<path fill="none" stroke="black" d="M340.768,-1283.55C330.667,-1279.52 320.705,-1273.63 314,-1265 179.998,-1092.6 359.421,-963.099 242,-779 240.167,-776.126 237.905,-773.49 235.395,-771.09"/>
<polygon fill="none" stroke="black" points="237.281,-768.116 227.292,-764.587 232.9,-773.575 237.281,-768.116"/>
</g>
<!-- \\Elabftw\\Elabftw\\LegacyCrypto -->
<g id="node5" class="node"><title>\\Elabftw\\Elabftw\\LegacyCrypto</title>
<polygon fill="none" stroke="black" points="428.5,-1256 330.5,-1256 330.5,-1220 428.5,-1220 428.5,-1256"/>
<text text-anchor="middle" x="379.5" y="-1235.2" font-family="Courier,monospace" font-size="11.00">LegacyCrypto</text>
</g>
<!-- \\Elabftw\\Elabftw\\ExperimentsView -->
<g id="node6" class="node"><title>\\Elabftw\\Elabftw\\ExperimentsView</title>
<polygon fill="none" stroke="black" points="438.5,-1202 320.5,-1202 320.5,-1166 438.5,-1166 438.5,-1202"/>
<text text-anchor="middle" x="379.5" y="-1181.2" font-family="Courier,monospace" font-size="11.00">ExperimentsView</text>
</g>
<!-- \\Elabftw\\Elabftw\\CryptoWrapper -->
<g id="node7" class="node"><title>\\Elabftw\\Elabftw\\CryptoWrapper</title>
<polygon fill="none" stroke="black" points="431.5,-1148 327.5,-1148 327.5,-1112 431.5,-1112 431.5,-1148"/>
<text text-anchor="middle" x="379.5" y="-1127.2" font-family="Courier,monospace" font-size="11.00">CryptoWrapper</text>
</g>
<!-- \\Elabftw\\Elabftw\\Update -->
<g id="node8" class="node"><title>\\Elabftw\\Elabftw\\Update</title>
<polygon fill="none" stroke="black" points="408,-1094 351,-1094 351,-1058 408,-1058 408,-1094"/>
<text text-anchor="middle" x="379.5" y="-1073.2" font-family="Courier,monospace" font-size="11.00">Update</text>
</g>
<!-- \\Elabftw\\Elabftw\\MolViewer -->
<g id="node9" class="node"><title>\\Elabftw\\Elabftw\\MolViewer</title>
<polygon fill="none" stroke="black" points="418,-1040 341,-1040 341,-1004 418,-1004 418,-1040"/>
<text text-anchor="middle" x="379.5" y="-1019.2" font-family="Courier,monospace" font-size="11.00">MolViewer</text>
</g>
<!-- \\Elabftw\\Elabftw\\Sysconfig -->
<g id="node10" class="node"><title>\\Elabftw\\Elabftw\\Sysconfig</title>
<polygon fill="none" stroke="black" points="418,-986 341,-986 341,-950 418,-950 418,-986"/>
<text text-anchor="middle" x="379.5" y="-965.2" font-family="Courier,monospace" font-size="11.00">Sysconfig</text>
</g>
<!-- \\Elabftw\\Elabftw\\Teams&#45;&gt;\\Elabftw\\Elabftw\\Panel -->
<g id="edge3" class="edge"><title>\\Elabftw\\Elabftw\\Teams&#45;&gt;\\Elabftw\\Elabftw\\Panel</title>
<path fill="none" stroke="black" d="M172.855,-736.765C150.819,-723.923 119.102,-705.441 94.8995,-691.337"/>
<polygon fill="none" stroke="black" points="96.4299,-688.178 86.0276,-686.167 92.9054,-694.226 96.4299,-688.178"/>
</g>
<!-- \\Elabftw\\Elabftw\\Import -->
<g id="node12" class="node"><title>\\Elabftw\\Elabftw\\Import</title>
<polygon fill="none" stroke="black" points="242,-203 158,-203 158,-167 242,-167 242,-203"/>
<text text-anchor="start" x="166" y="-188.2" font-family="Courier,monospace" font-size="11.00">«abstract»</text>
<text text-anchor="start" x="179.5" y="-176.2" font-family="Courier,monospace" font-size="11.00">Import</text>
</g>
<!-- \\Elabftw\\Elabftw\\SysconfigView -->
<g id="node13" class="node"><title>\\Elabftw\\Elabftw\\SysconfigView</title>
<polygon fill="none" stroke="black" points="431.5,-932 327.5,-932 327.5,-896 431.5,-896 431.5,-932"/>
<text text-anchor="middle" x="379.5" y="-911.2" font-family="Courier,monospace" font-size="11.00">SysconfigView</text>
</g>
<!-- \\Elabftw\\Elabftw\\Upload -->
<g id="node14" class="node"><title>\\Elabftw\\Elabftw\\Upload</title>
<polygon fill="none" stroke="black" points="408,-878 351,-878 351,-842 408,-842 408,-878"/>
<text text-anchor="middle" x="379.5" y="-857.2" font-family="Courier,monospace" font-size="11.00">Upload</text>
</g>
<!-- \\Elabftw\\Elabftw\\Make -->
<g id="node15" class="node"><title>\\Elabftw\\Elabftw\\Make</title>
<polygon fill="none" stroke="black" points="242,-608 158,-608 158,-572 242,-572 242,-608"/>
<text text-anchor="start" x="166" y="-593.2" font-family="Courier,monospace" font-size="11.00">«abstract»</text>
<text text-anchor="start" x="186" y="-581.2" font-family="Courier,monospace" font-size="11.00">Make</text>
</g>
<!-- \\Elabftw\\Elabftw\\Upload&#45;&gt;\\Elabftw\\Elabftw\\Make -->
<g id="edge4" class="edge"><title>\\Elabftw\\Elabftw\\Upload&#45;&gt;\\Elabftw\\Elabftw\\Make</title>
<path fill="none" stroke="black" d="M350.973,-854.075C338.209,-850.057 323.744,-843.5 314,-833 245.167,-758.824 303.65,-697.245 242,-617 241.533,-616.392 241.048,-615.793 240.546,-615.203"/>
<polygon fill="none" stroke="black" points="242.872,-612.582 233.28,-608.083 237.973,-617.582 242.872,-612.582"/>
</g>
<!-- \\Elabftw\\Elabftw\\Status -->
<g id="node16" class="node"><title>\\Elabftw\\Elabftw\\Status</title>
<polygon fill="none" stroke="black" points="228.5,-716 171.5,-716 171.5,-680 228.5,-680 228.5,-716"/>
<text text-anchor="middle" x="200" y="-695.2" font-family="Courier,monospace" font-size="11.00">Status</text>
</g>
<!-- \\Elabftw\\Elabftw\\Status&#45;&gt;\\Elabftw\\Elabftw\\Panel -->
<g id="edge5" class="edge"><title>\\Elabftw\\Elabftw\\Status&#45;&gt;\\Elabftw\\Elabftw\\Panel</title>
<path fill="none" stroke="black" d="M171.205,-692.601C149.673,-688.419 119.666,-682.59 96.2483,-678.041"/>
<polygon fill="none" stroke="black" points="96.8177,-674.586 86.3338,-676.115 95.4829,-681.458 96.8177,-674.586"/>
</g>
<!-- \\Elabftw\\Elabftw\\Formkey -->
<g id="node17" class="node"><title>\\Elabftw\\Elabftw\\Formkey</title>
<polygon fill="none" stroke="black" points="411.5,-824 347.5,-824 347.5,-788 411.5,-788 411.5,-824"/>
<text text-anchor="middle" x="379.5" y="-803.2" font-family="Courier,monospace" font-size="11.00">Formkey</text>
</g>
<!-- \\Elabftw\\Elabftw\\CommonTpl -->
<g id="node18" class="node"><title>\\Elabftw\\Elabftw\\CommonTpl</title>
<polygon fill="none" stroke="black" points="238.5,-662 161.5,-662 161.5,-626 238.5,-626 238.5,-662"/>
<text text-anchor="middle" x="200" y="-641.2" font-family="Courier,monospace" font-size="11.00">CommonTpl</text>
</g>
<!-- \\Elabftw\\Elabftw\\CommonTpl&#45;&gt;\\Elabftw\\Elabftw\\Panel -->
<g id="edge6" class="edge"><title>\\Elabftw\\Elabftw\\CommonTpl&#45;&gt;\\Elabftw\\Elabftw\\Panel</title>
<path fill="none" stroke="black" d="M161.385,-651.307C141.118,-655.243 116.234,-660.077 96.191,-663.97"/>
<polygon fill="none" stroke="black" points="95.3501,-660.568 86.201,-665.911 96.6849,-667.44 95.3501,-660.568"/>
</g>
<!-- \\Elabftw\\Elabftw\\User -->
<g id="node19" class="node"><title>\\Elabftw\\Elabftw\\User</title>
<polygon fill="none" stroke="black" points="406.5,-770 352.5,-770 352.5,-734 406.5,-734 406.5,-770"/>
<text text-anchor="middle" x="379.5" y="-749.2" font-family="Courier,monospace" font-size="11.00">User</text>
</g>
<!-- \\Elabftw\\Elabftw\\Experiments -->
<g id="node20" class="node"><title>\\Elabftw\\Elabftw\\Experiments</title>
<polygon fill="none" stroke="black" points="425,-716 334,-716 334,-680 425,-680 425,-716"/>
<text text-anchor="middle" x="379.5" y="-695.2" font-family="Courier,monospace" font-size="11.00">Experiments</text>
</g>
<!-- \\Elabftw\\Elabftw\\TeamGroupsView -->
<g id="node21" class="node"><title>\\Elabftw\\Elabftw\\TeamGroupsView</title>
<polygon fill="none" stroke="black" points="435,-662 324,-662 324,-626 435,-626 435,-662"/>
<text text-anchor="middle" x="379.5" y="-641.2" font-family="Courier,monospace" font-size="11.00">TeamGroupsView</text>
</g>
<!-- \\Elabftw\\Elabftw\\MakeZip -->
<g id="node22" class="node"><title>\\Elabftw\\Elabftw\\MakeZip</title>
<polygon fill="none" stroke="black" points="411.5,-608 347.5,-608 347.5,-572 411.5,-572 411.5,-608"/>
<text text-anchor="middle" x="379.5" y="-587.2" font-family="Courier,monospace" font-size="11.00">MakeZip</text>
</g>
<!-- \\Elabftw\\Elabftw\\MakeZip&#45;&gt;\\Elabftw\\Elabftw\\Make -->
<g id="edge7" class="edge"><title>\\Elabftw\\Elabftw\\MakeZip&#45;&gt;\\Elabftw\\Elabftw\\Make</title>
<path fill="none" stroke="black" d="M347.175,-590C320.887,-590 282.818,-590 252.12,-590"/>
<polygon fill="none" stroke="black" points="252.02,-586.5 242.02,-590 252.02,-593.5 252.02,-586.5"/>
</g>
<!-- \\Elabftw\\Elabftw\\Users -->
<g id="node23" class="node"><title>\\Elabftw\\Elabftw\\Users</title>
<polygon fill="none" stroke="black" points="406.5,-554 352.5,-554 352.5,-518 406.5,-518 406.5,-554"/>
<text text-anchor="middle" x="379.5" y="-533.2" font-family="Courier,monospace" font-size="11.00">Users</text>
</g>
<!-- \\Elabftw\\Elabftw\\MakeCsv -->
<g id="node24" class="node"><title>\\Elabftw\\Elabftw\\MakeCsv</title>
<polygon fill="none" stroke="black" points="411.5,-500 347.5,-500 347.5,-464 411.5,-464 411.5,-500"/>
<text text-anchor="middle" x="379.5" y="-479.2" font-family="Courier,monospace" font-size="11.00">MakeCsv</text>
</g>
<!-- \\Elabftw\\Elabftw\\MakeCsv&#45;&gt;\\Elabftw\\Elabftw\\Make -->
<g id="edge8" class="edge"><title>\\Elabftw\\Elabftw\\MakeCsv&#45;&gt;\\Elabftw\\Elabftw\\Make</title>
<path fill="none" stroke="black" d="M347.246,-493.272C336.439,-497.638 324.43,-503.029 314,-509 279.287,-528.874 274.719,-539.989 242,-563 240.562,-564.011 239.09,-565.035 237.598,-566.062"/>
<polygon fill="none" stroke="black" points="235.258,-563.42 228.943,-571.927 239.185,-569.215 235.258,-563.42"/>
</g>
<!-- \\Elabftw\\Elabftw\\Tools -->
<g id="node25" class="node"><title>\\Elabftw\\Elabftw\\Tools</title>
<polygon fill="none" stroke="black" points="406.5,-446 352.5,-446 352.5,-410 406.5,-410 406.5,-446"/>
<text text-anchor="middle" x="379.5" y="-425.2" font-family="Courier,monospace" font-size="11.00">Tools</text>
</g>
<!-- \\Elabftw\\Elabftw\\ImportCsv -->
<g id="node26" class="node"><title>\\Elabftw\\Elabftw\\ImportCsv</title>
<polygon fill="none" stroke="black" points="418,-338 341,-338 341,-302 418,-302 418,-338"/>
<text text-anchor="middle" x="379.5" y="-317.2" font-family="Courier,monospace" font-size="11.00">ImportCsv</text>
</g>
<!-- \\Elabftw\\Elabftw\\ImportCsv&#45;&gt;\\Elabftw\\Elabftw\\Import -->
<g id="edge9" class="edge"><title>\\Elabftw\\Elabftw\\ImportCsv&#45;&gt;\\Elabftw\\Elabftw\\Import</title>
<path fill="none" stroke="black" d="M340.819,-306.949C331.705,-303.066 322.227,-298.385 314,-293 278.506,-269.765 244.223,-234.634 222.908,-210.8"/>
<polygon fill="none" stroke="black" points="225.432,-208.37 216.194,-203.184 220.181,-212.999 225.432,-208.37"/>
</g>
<!-- \\Elabftw\\Elabftw\\MakePdf -->
<g id="node27" class="node"><title>\\Elabftw\\Elabftw\\MakePdf</title>
<polygon fill="none" stroke="black" points="411.5,-392 347.5,-392 347.5,-356 411.5,-356 411.5,-392"/>
<text text-anchor="middle" x="379.5" y="-371.2" font-family="Courier,monospace" font-size="11.00">MakePdf</text>
</g>
<!-- \\Elabftw\\Elabftw\\MakePdf&#45;&gt;\\Elabftw\\Elabftw\\Make -->
<g id="edge10" class="edge"><title>\\Elabftw\\Elabftw\\MakePdf&#45;&gt;\\Elabftw\\Elabftw\\Make</title>
<path fill="none" stroke="black" d="M347.491,-381.677C335.837,-385.825 323.197,-392.001 314,-401 257.683,-456.103 292.959,-502.907 242,-563 241.504,-563.585 240.992,-564.162 240.466,-564.732"/>
<polygon fill="none" stroke="black" points="237.933,-562.307 232.976,-571.671 242.69,-567.442 237.933,-562.307"/>
</g>
<!-- \\Elabftw\\Elabftw\\Comments -->
<g id="node28" class="node"><title>\\Elabftw\\Elabftw\\Comments</title>
<polygon fill="none" stroke="black" points="415,-284 344,-284 344,-248 415,-248 415,-284"/>
<text text-anchor="middle" x="379.5" y="-263.2" font-family="Courier,monospace" font-size="11.00">Comments</text>
</g>
<!-- \\Elabftw\\Elabftw\\Logs -->
<g id="node29" class="node"><title>\\Elabftw\\Elabftw\\Logs</title>
<polygon fill="none" stroke="black" points="227,-554 173,-554 173,-518 227,-518 227,-554"/>
<text text-anchor="middle" x="200" y="-533.2" font-family="Courier,monospace" font-size="11.00">Logs</text>
</g>
<!-- \\Elabftw\\Elabftw\\Logs&#45;&gt;\\Elabftw\\Elabftw\\Panel -->
<g id="edge11" class="edge"><title>\\Elabftw\\Elabftw\\Logs&#45;&gt;\\Elabftw\\Elabftw\\Panel</title>
<path fill="none" stroke="black" d="M172.697,-551.903C167.651,-555.343 162.532,-559.12 158,-563 128.54,-588.226 99.246,-621.934 80.4684,-644.94"/>
<polygon fill="none" stroke="black" points="77.6037,-642.916 74.0453,-652.896 83.0503,-647.313 77.6037,-642.916"/>
</g>
<!-- \\Elabftw\\Elabftw\\TeamGroups -->
<g id="node30" class="node"><title>\\Elabftw\\Elabftw\\TeamGroups</title>
<polygon fill="none" stroke="black" points="242,-500 158,-500 158,-464 242,-464 242,-500"/>
<text text-anchor="middle" x="200" y="-479.2" font-family="Courier,monospace" font-size="11.00">TeamGroups</text>
</g>
<!-- \\Elabftw\\Elabftw\\TeamGroups&#45;&gt;\\Elabftw\\Elabftw\\Panel -->
<g id="edge12" class="edge"><title>\\Elabftw\\Elabftw\\TeamGroups&#45;&gt;\\Elabftw\\Elabftw\\Panel</title>
<path fill="none" stroke="black" d="M168.242,-500.027C164.59,-502.797 161.073,-505.807 158,-509 118.687,-549.849 87.8632,-609.189 71.9345,-643.563"/>
<polygon fill="none" stroke="black" points="68.6102,-642.418 67.659,-652.97 74.9829,-645.315 68.6102,-642.418"/>
</g>
<!-- \\Elabftw\\Elabftw\\TrustedTimestamps -->
<g id="node31" class="node"><title>\\Elabftw\\Elabftw\\TrustedTimestamps</title>
<polygon fill="none" stroke="black" points="445,-230 314,-230 314,-194 445,-194 445,-230"/>
<text text-anchor="middle" x="379.5" y="-209.2" font-family="Courier,monospace" font-size="11.00">TrustedTimestamps</text>
</g>
<!-- \\Elabftw\\Elabftw\\ItemsTypesView -->
<g id="node33" class="node"><title>\\Elabftw\\Elabftw\\ItemsTypesView</title>
<polygon fill="none" stroke="black" points="435,-176 324,-176 324,-140 435,-140 435,-176"/>
<text text-anchor="middle" x="379.5" y="-155.2" font-family="Courier,monospace" font-size="11.00">ItemsTypesView</text>
</g>
<!-- \\Elabftw\\Elabftw\\Create -->
<g id="node34" class="node"><title>\\Elabftw\\Elabftw\\Create</title>
<polygon fill="none" stroke="black" points="408,-122 351,-122 351,-86 408,-86 408,-122"/>
<text text-anchor="middle" x="379.5" y="-101.2" font-family="Courier,monospace" font-size="11.00">Create</text>
</g>
<!-- \\Elabftw\\Elabftw\\ImportZip -->
<g id="node35" class="node"><title>\\Elabftw\\Elabftw\\ImportZip</title>
<polygon fill="none" stroke="black" points="418,-68 341,-68 341,-32 418,-32 418,-68"/>
<text text-anchor="middle" x="379.5" y="-47.2" font-family="Courier,monospace" font-size="11.00">ImportZip</text>
</g>
<!-- \\Elabftw\\Elabftw\\ImportZip&#45;&gt;\\Elabftw\\Elabftw\\Import -->
<g id="edge13" class="edge"><title>\\Elabftw\\Elabftw\\ImportZip&#45;&gt;\\Elabftw\\Elabftw\\Import</title>
<path fill="none" stroke="black" d="M340.819,-63.0515C331.705,-66.934 322.227,-71.6145 314,-77 278.506,-100.235 244.223,-135.366 222.908,-159.2"/>
<polygon fill="none" stroke="black" points="220.181,-157.001 216.194,-166.816 225.432,-161.63 220.181,-157.001"/>
</g>
</g>
</svg>
