<?xml version="1.0" encoding="UTF-8" standalone="no"?>
<!DOCTYPE svg PUBLIC "-//W3C//DTD SVG 1.1//EN"
 "http://www.w3.org/Graphics/SVG/1.1/DTD/svg11.dtd">
<!-- Generated by graphviz version 2.38.0 (20140413.2041)
 -->
<!-- Title: G Pages: 1 -->
<svg width="485pt" height="1734pt"
 viewBox="0.00 0.00 485.00 1734.00" xmlns="http://www.w3.org/2000/svg" xmlns:xlink="http://www.w3.org/1999/xlink">
<g id="graph0" class="graph" transform="scale(1 1) rotate(0) translate(4 1730)">
<title>G</title>
<polygon fill="white" stroke="none" points="-4,4 -4,-1730 481,-1730 481,4 -4,4"/>
<g id="clust1" class="cluster"><title>cluster_Global</title>
<path fill="none" stroke="gray" d="M20,-8C20,-8 457,-8 457,-8 463,-8 469,-14 469,-20 469,-20 469,-1706 469,-1706 469,-1712 463,-1718 457,-1718 457,-1718 20,-1718 20,-1718 14,-1718 8,-1712 8,-1706 8,-1706 8,-20 8,-20 8,-14 14,-8 20,-8"/>
<text text-anchor="middle" x="238.5" y="-1705.2" font-family="Times,serif" font-size="11.00" fill="gray">Global</text>
</g>
<g id="clust2" class="cluster"><title>cluster_\Elabftw</title>
<path fill="none" stroke="gray" d="M28,-16C28,-16 449,-16 449,-16 455,-16 461,-22 461,-28 461,-28 461,-1678 461,-1678 461,-1684 455,-1690 449,-1690 449,-1690 28,-1690 28,-1690 22,-1690 16,-1684 16,-1678 16,-1678 16,-28 16,-28 16,-22 22,-16 28,-16"/>
<text text-anchor="middle" x="238.5" y="-1677.2" font-family="Times,serif" font-size="11.00" fill="gray">Elabftw</text>
</g>
<g id="clust3" class="cluster"><title>cluster_\Elabftw\Elabftw</title>
<path fill="none" stroke="gray" d="M36,-24C36,-24 441,-24 441,-24 447,-24 453,-30 453,-36 453,-36 453,-1650 453,-1650 453,-1656 447,-1662 441,-1662 441,-1662 36,-1662 36,-1662 30,-1662 24,-1656 24,-1650 24,-1650 24,-36 24,-36 24,-30 30,-24 36,-24"/>
<text text-anchor="middle" x="238.5" y="-1649.2" font-family="Times,serif" font-size="11.00" fill="gray">Elabftw</text>
</g>
<!-- \\Elabftw\\Elabftw\\Db -->
<g id="node1" class="node"><title>\\Elabftw\\Elabftw\\Db</title>
<polygon fill="none" stroke="black" points="406.5,-1634 352.5,-1634 352.5,-1598 406.5,-1598 406.5,-1634"/>
<text text-anchor="middle" x="379.5" y="-1613.2" font-family="Courier,monospace" font-size="11.00">Db</text>
</g>
<!-- \\Elabftw\\Elabftw\\ItemsTypes -->
<g id="node2" class="node"><title>\\Elabftw\\Elabftw\\ItemsTypes</title>
<polygon fill="none" stroke="black" points="242,-689 158,-689 158,-653 242,-653 242,-689"/>
<text text-anchor="middle" x="200" y="-668.2" font-family="Courier,monospace" font-size="11.00">ItemsTypes</text>
</g>
<!-- \\Elabftw\\Elabftw\\Panel -->
<g id="node36" class="node"><title>\\Elabftw\\Elabftw\\Panel</title>
<polygon fill="none" stroke="black" points="86,-716 32,-716 32,-680 86,-680 86,-716"/>
<text text-anchor="middle" x="59" y="-695.2" font-family="Courier,monospace" font-size="11.00">Panel</text>
</g>
<!-- \\Elabftw\\Elabftw\\ItemsTypes&#45;&gt;\\Elabftw\\Elabftw\\Panel -->
<g id="edge1" class="edge"><title>\\Elabftw\\Elabftw\\ItemsTypes&#45;&gt;\\Elabftw\\Elabftw\\Panel</title>
<path fill="none" stroke="black" d="M157.672,-679.028C138.09,-682.831 114.917,-687.333 96.0581,-690.996"/>
<polygon fill="none" stroke="black" points="95.2238,-687.592 86.0747,-692.935 96.5587,-694.464 95.2238,-687.592"/>
</g>
<!-- \\Elabftw\\Elabftw\\StatusView -->
<g id="node3" class="node"><title>\\Elabftw\\Elabftw\\StatusView</title>
<polygon fill="none" stroke="black" points="421.5,-1580 337.5,-1580 337.5,-1544 421.5,-1544 421.5,-1580"/>
<text text-anchor="middle" x="379.5" y="-1559.2" font-family="Courier,monospace" font-size="11.00">StatusView</text>
</g>
<!-- \\Elabftw\\Elabftw\\TeamsView -->
<g id="node4" class="node"><title>\\Elabftw\\Elabftw\\TeamsView</title>
<polygon fill="none" stroke="black" points="418,-392 341,-392 341,-356 418,-356 418,-392"/>
<text text-anchor="middle" x="379.5" y="-371.2" font-family="Courier,monospace" font-size="11.00">TeamsView</text>
</g>
<!-- \\Elabftw\\Elabftw\\Teams -->
<g id="node14" class="node"><title>\\Elabftw\\Elabftw\\Teams</title>
<polygon fill="none" stroke="black" points="227,-527 173,-527 173,-491 227,-491 227,-527"/>
<text text-anchor="middle" x="200" y="-506.2" font-family="Courier,monospace" font-size="11.00">Teams</text>
</g>
<!-- \\Elabftw\\Elabftw\\TeamsView&#45;&gt;\\Elabftw\\Elabftw\\Teams -->
<g id="edge2" class="edge"><title>\\Elabftw\\Elabftw\\TeamsView&#45;&gt;\\Elabftw\\Elabftw\\Teams</title>
<path fill="none" stroke="black" d="M340.84,-386.445C331.629,-390.364 322.1,-395.214 314,-401 274.807,-428.998 278.425,-450.485 242,-482 240.026,-483.708 237.938,-485.393 235.791,-487.038"/>
<polygon fill="none" stroke="black" points="233.399,-484.447 227.335,-493.134 237.493,-490.125 233.399,-484.447"/>
</g>
<!-- \\Elabftw\\Elabftw\\Tags -->
<g id="node5" class="node"><title>\\Elabftw\\Elabftw\\Tags</title>
<polygon fill="none" stroke="black" points="406.5,-1472 352.5,-1472 352.5,-1436 406.5,-1436 406.5,-1472"/>
<text text-anchor="middle" x="379.5" y="-1451.2" font-family="Courier,monospace" font-size="11.00">Tags</text>
</g>
<!-- \\Elabftw\\Elabftw\\Database -->
<g id="node6" class="node"><title>\\Elabftw\\Elabftw\\Database</title>
<polygon fill="none" stroke="black" points="415,-1418 344,-1418 344,-1382 415,-1382 415,-1418"/>
<text text-anchor="middle" x="379.5" y="-1397.2" font-family="Courier,monospace" font-size="11.00">Database</text>
</g>
<!-- \\Elabftw\\Elabftw\\LegacyCrypto -->
<g id="node7" class="node"><title>\\Elabftw\\Elabftw\\LegacyCrypto</title>
<polygon fill="none" stroke="black" points="428.5,-1364 330.5,-1364 330.5,-1328 428.5,-1328 428.5,-1364"/>
<text text-anchor="middle" x="379.5" y="-1343.2" font-family="Courier,monospace" font-size="11.00">LegacyCrypto</text>
</g>
<!-- \\Elabftw\\Elabftw\\ExperimentsView -->
<g id="node8" class="node"><title>\\Elabftw\\Elabftw\\ExperimentsView</title>
<polygon fill="none" stroke="black" points="438.5,-1310 320.5,-1310 320.5,-1274 438.5,-1274 438.5,-1310"/>
<text text-anchor="middle" x="379.5" y="-1289.2" font-family="Courier,monospace" font-size="11.00">ExperimentsView</text>
</g>
<!-- \\Elabftw\\Elabftw\\CryptoWrapper -->
<g id="node9" class="node"><title>\\Elabftw\\Elabftw\\CryptoWrapper</title>
<polygon fill="none" stroke="black" points="431.5,-1256 327.5,-1256 327.5,-1220 431.5,-1220 431.5,-1256"/>
<text text-anchor="middle" x="379.5" y="-1235.2" font-family="Courier,monospace" font-size="11.00">CryptoWrapper</text>
</g>
<!-- \\Elabftw\\Elabftw\\Revisions -->
<g id="node10" class="node"><title>\\Elabftw\\Elabftw\\Revisions</title>
<polygon fill="none" stroke="black" points="418,-1202 341,-1202 341,-1166 418,-1166 418,-1202"/>
<text text-anchor="middle" x="379.5" y="-1181.2" font-family="Courier,monospace" font-size="11.00">Revisions</text>
</g>
<!-- \\Elabftw\\Elabftw\\Update -->
<g id="node11" class="node"><title>\\Elabftw\\Elabftw\\Update</title>
<polygon fill="none" stroke="black" points="408,-1148 351,-1148 351,-1112 408,-1112 408,-1148"/>
<text text-anchor="middle" x="379.5" y="-1127.2" font-family="Courier,monospace" font-size="11.00">Update</text>
</g>
<!-- \\Elabftw\\Elabftw\\MolViewer -->
<g id="node12" class="node"><title>\\Elabftw\\Elabftw\\MolViewer</title>
<polygon fill="none" stroke="black" points="418,-1094 341,-1094 341,-1058 418,-1058 418,-1094"/>
<text text-anchor="middle" x="379.5" y="-1073.2" font-family="Courier,monospace" font-size="11.00">MolViewer</text>
</g>
<!-- \\Elabftw\\Elabftw\\Sysconfig -->
<g id="node13" class="node"><title>\\Elabftw\\Elabftw\\Sysconfig</title>
<polygon fill="none" stroke="black" points="418,-1040 341,-1040 341,-1004 418,-1004 418,-1040"/>
<text text-anchor="middle" x="379.5" y="-1019.2" font-family="Courier,monospace" font-size="11.00">Sysconfig</text>
</g>
<!-- \\Elabftw\\Elabftw\\Teams&#45;&gt;\\Elabftw\\Elabftw\\Panel -->
<g id="edge3" class="edge"><title>\\Elabftw\\Elabftw\\Teams&#45;&gt;\\Elabftw\\Elabftw\\Panel</title>
<path fill="none" stroke="black" d="M172.928,-523.646C167.644,-527.283 162.373,-531.456 158,-536 118.687,-576.849 87.8632,-636.189 71.9345,-670.563"/>
<polygon fill="none" stroke="black" points="68.6102,-669.418 67.659,-679.97 74.9829,-672.315 68.6102,-669.418"/>
</g>
<!-- \\Elabftw\\Elabftw\\Import -->
<g id="node15" class="node"><title>\\Elabftw\\Elabftw\\Import</title>
<polygon fill="none" stroke="black" points="242,-203 158,-203 158,-167 242,-167 242,-203"/>
<text text-anchor="start" x="166" y="-188.2" font-family="Courier,monospace" font-size="11.00">«abstract»</text>
<text text-anchor="start" x="179.5" y="-176.2" font-family="Courier,monospace" font-size="11.00">Import</text>
</g>
<!-- \\Elabftw\\Elabftw\\SysconfigView -->
<g id="node16" class="node"><title>\\Elabftw\\Elabftw\\SysconfigView</title>
<polygon fill="none" stroke="black" points="431.5,-986 327.5,-986 327.5,-950 431.5,-950 431.5,-986"/>
<text text-anchor="middle" x="379.5" y="-965.2" font-family="Courier,monospace" font-size="11.00">SysconfigView</text>
</g>
<!-- \\Elabftw\\Elabftw\\Upload -->
<g id="node17" class="node"><title>\\Elabftw\\Elabftw\\Upload</title>
<polygon fill="none" stroke="black" points="408,-608 351,-608 351,-572 408,-572 408,-608"/>
<text text-anchor="middle" x="379.5" y="-587.2" font-family="Courier,monospace" font-size="11.00">Upload</text>
</g>
<!-- \\Elabftw\\Elabftw\\Make -->
<g id="node19" class="node"><title>\\Elabftw\\Elabftw\\Make</title>
<polygon fill="none" stroke="black" points="242,-581 158,-581 158,-545 242,-545 242,-581"/>
<text text-anchor="start" x="166" y="-566.2" font-family="Courier,monospace" font-size="11.00">«abstract»</text>
<text text-anchor="start" x="186" y="-554.2" font-family="Courier,monospace" font-size="11.00">Make</text>
</g>
<!-- \\Elabftw\\Elabftw\\Upload&#45;&gt;\\Elabftw\\Elabftw\\Make -->
<g id="edge4" class="edge"><title>\\Elabftw\\Elabftw\\Upload&#45;&gt;\\Elabftw\\Elabftw\\Make</title>
<path fill="none" stroke="black" d="M350.766,-585.781C324.459,-581.78 284.29,-575.669 252.173,-570.784"/>
<polygon fill="none" stroke="black" points="252.469,-567.289 242.057,-569.245 251.416,-574.209 252.469,-567.289"/>
</g>
<!-- \\Elabftw\\Elabftw\\DatabaseView -->
<g id="node18" class="node"><title>\\Elabftw\\Elabftw\\DatabaseView</title>
<polygon fill="none" stroke="black" points="428.5,-878 330.5,-878 330.5,-842 428.5,-842 428.5,-878"/>
<text text-anchor="middle" x="379.5" y="-857.2" font-family="Courier,monospace" font-size="11.00">DatabaseView</text>
</g>
<!-- \\Elabftw\\Elabftw\\Uploads -->
<g id="node20" class="node"><title>\\Elabftw\\Elabftw\\Uploads</title>
<polygon fill="none" stroke="black" points="411.5,-824 347.5,-824 347.5,-788 411.5,-788 411.5,-824"/>
<text text-anchor="middle" x="379.5" y="-803.2" font-family="Courier,monospace" font-size="11.00">Uploads</text>
</g>
<!-- \\Elabftw\\Elabftw\\Status -->
<g id="node21" class="node"><title>\\Elabftw\\Elabftw\\Status</title>
<polygon fill="none" stroke="black" points="228.5,-473 171.5,-473 171.5,-437 228.5,-437 228.5,-473"/>
<text text-anchor="middle" x="200" y="-452.2" font-family="Courier,monospace" font-size="11.00">Status</text>
</g>
<!-- \\Elabftw\\Elabftw\\Status&#45;&gt;\\Elabftw\\Elabftw\\Panel -->
<g id="edge5" class="edge"><title>\\Elabftw\\Elabftw\\Status&#45;&gt;\\Elabftw\\Elabftw\\Panel</title>
<path fill="none" stroke="black" d="M171.234,-470.169C166.423,-473.624 161.765,-477.594 158,-482 108.711,-539.672 79.6098,-626.202 67.1667,-670.187"/>
<polygon fill="none" stroke="black" points="63.7702,-669.338 64.4935,-679.908 70.5197,-671.194 63.7702,-669.338"/>
</g>
<!-- \\Elabftw\\Elabftw\\Formkey -->
<g id="node22" class="node"><title>\\Elabftw\\Elabftw\\Formkey</title>
<polygon fill="none" stroke="black" points="411.5,-770 347.5,-770 347.5,-734 411.5,-734 411.5,-770"/>
<text text-anchor="middle" x="379.5" y="-749.2" font-family="Courier,monospace" font-size="11.00">Formkey</text>
</g>
<!-- \\Elabftw\\Elabftw\\CommonTpl -->
<g id="node23" class="node"><title>\\Elabftw\\Elabftw\\CommonTpl</title>
<polygon fill="none" stroke="black" points="238.5,-851 161.5,-851 161.5,-815 238.5,-815 238.5,-851"/>
<text text-anchor="middle" x="200" y="-830.2" font-family="Courier,monospace" font-size="11.00">CommonTpl</text>
</g>
<!-- \\Elabftw\\Elabftw\\CommonTpl&#45;&gt;\\Elabftw\\Elabftw\\Panel -->
<g id="edge6" class="edge"><title>\\Elabftw\\Elabftw\\CommonTpl&#45;&gt;\\Elabftw\\Elabftw\\Panel</title>
<path fill="none" stroke="black" d="M169.666,-814.995C165.626,-812.142 161.625,-809.104 158,-806 128.54,-780.774 99.246,-747.066 80.4684,-724.06"/>
<polygon fill="none" stroke="black" points="83.0503,-721.687 74.0453,-716.104 77.6037,-726.084 83.0503,-721.687"/>
</g>
<!-- \\Elabftw\\Elabftw\\Experiments -->
<g id="node24" class="node"><title>\\Elabftw\\Elabftw\\Experiments</title>
<polygon fill="none" stroke="black" points="425,-716 334,-716 334,-680 425,-680 425,-716"/>
<text text-anchor="middle" x="379.5" y="-695.2" font-family="Courier,monospace" font-size="11.00">Experiments</text>
</g>
<!-- \\Elabftw\\Elabftw\\TeamGroupsView -->
<g id="node25" class="node"><title>\\Elabftw\\Elabftw\\TeamGroupsView</title>
<polygon fill="none" stroke="black" points="435,-662 324,-662 324,-626 435,-626 435,-662"/>
<text text-anchor="middle" x="379.5" y="-641.2" font-family="Courier,monospace" font-size="11.00">TeamGroupsView</text>
</g>
<!-- \\Elabftw\\Elabftw\\MakeZip -->
<g id="node26" class="node"><title>\\Elabftw\\Elabftw\\MakeZip</title>
<polygon fill="none" stroke="black" points="411.5,-500 347.5,-500 347.5,-464 411.5,-464 411.5,-500"/>
<text text-anchor="middle" x="379.5" y="-479.2" font-family="Courier,monospace" font-size="11.00">MakeZip</text>
</g>
<!-- \\Elabftw\\Elabftw\\MakeZip&#45;&gt;\\Elabftw\\Elabftw\\Make -->
<g id="edge7" class="edge"><title>\\Elabftw\\Elabftw\\MakeZip&#45;&gt;\\Elabftw\\Elabftw\\Make</title>
<path fill="none" stroke="black" d="M347.2,-494.738C336.609,-499.144 324.746,-504.187 314,-509 291.716,-518.981 267.237,-530.597 246.778,-540.493"/>
<polygon fill="none" stroke="black" points="245.152,-537.391 237.683,-544.906 248.208,-543.689 245.152,-537.391"/>
</g>
<!-- \\Elabftw\\Elabftw\\Users -->
<g id="node27" class="node"><title>\\Elabftw\\Elabftw\\Users</title>
<polygon fill="none" stroke="black" points="406.5,-1526 352.5,-1526 352.5,-1490 406.5,-1490 406.5,-1526"/>
<text text-anchor="middle" x="379.5" y="-1505.2" font-family="Courier,monospace" font-size="11.00">Users</text>
</g>
<!-- \\Elabftw\\Elabftw\\Auth -->
<g id="node38" class="node"><title>\\Elabftw\\Elabftw\\Auth</title>
<polygon fill="none" stroke="black" points="227,-635 173,-635 173,-599 227,-599 227,-635"/>
<text text-anchor="middle" x="200" y="-614.2" font-family="Courier,monospace" font-size="11.00">Auth</text>
</g>
<!-- \\Elabftw\\Elabftw\\Users&#45;&gt;\\Elabftw\\Elabftw\\Auth -->
<g id="edge8" class="edge"><title>\\Elabftw\\Elabftw\\Users&#45;&gt;\\Elabftw\\Elabftw\\Auth</title>
<path fill="none" stroke="black" d="M352.466,-1503.74C338.778,-1500.09 323.012,-1493.36 314,-1481 204.002,-1330.16 337.522,-804.398 242,-644 240.212,-640.998 237.945,-638.265 235.399,-635.791"/>
<polygon fill="none" stroke="black" points="237.108,-632.675 227.119,-629.142 232.724,-638.133 237.108,-632.675"/>
</g>
<!-- \\Elabftw\\Elabftw\\MakeCsv -->
<g id="node28" class="node"><title>\\Elabftw\\Elabftw\\MakeCsv</title>
<polygon fill="none" stroke="black" points="411.5,-932 347.5,-932 347.5,-896 411.5,-896 411.5,-932"/>
<text text-anchor="middle" x="379.5" y="-911.2" font-family="Courier,monospace" font-size="11.00">MakeCsv</text>
</g>
<!-- \\Elabftw\\Elabftw\\MakeCsv&#45;&gt;\\Elabftw\\Elabftw\\Make -->
<g id="edge9" class="edge"><title>\\Elabftw\\Elabftw\\MakeCsv&#45;&gt;\\Elabftw\\Elabftw\\Make</title>
<path fill="none" stroke="black" d="M347.283,-907.364C335.316,-903.34 322.507,-896.976 314,-887 225.869,-783.652 320.158,-701.083 242,-590 241.647,-589.499 241.282,-589.005 240.906,-588.518"/>
<polygon fill="none" stroke="black" points="243.385,-586.046 233.95,-581.225 238.32,-590.877 243.385,-586.046"/>
</g>
<!-- \\Elabftw\\Elabftw\\Tools -->
<g id="node29" class="node"><title>\\Elabftw\\Elabftw\\Tools</title>
<polygon fill="none" stroke="black" points="406.5,-446 352.5,-446 352.5,-410 406.5,-410 406.5,-446"/>
<text text-anchor="middle" x="379.5" y="-425.2" font-family="Courier,monospace" font-size="11.00">Tools</text>
</g>
<!-- \\Elabftw\\Elabftw\\ImportCsv -->
<g id="node30" class="node"><title>\\Elabftw\\Elabftw\\ImportCsv</title>
<polygon fill="none" stroke="black" points="418,-338 341,-338 341,-302 418,-302 418,-338"/>
<text text-anchor="middle" x="379.5" y="-317.2" font-family="Courier,monospace" font-size="11.00">ImportCsv</text>
</g>
<!-- \\Elabftw\\Elabftw\\ImportCsv&#45;&gt;\\Elabftw\\Elabftw\\Import -->
<g id="edge10" class="edge"><title>\\Elabftw\\Elabftw\\ImportCsv&#45;&gt;\\Elabftw\\Elabftw\\Import</title>
<path fill="none" stroke="black" d="M340.819,-306.949C331.705,-303.066 322.227,-298.385 314,-293 278.506,-269.765 244.223,-234.634 222.908,-210.8"/>
<polygon fill="none" stroke="black" points="225.432,-208.37 216.194,-203.184 220.181,-212.999 225.432,-208.37"/>
</g>
<!-- \\Elabftw\\Elabftw\\MakePdf -->
<g id="node31" class="node"><title>\\Elabftw\\Elabftw\\MakePdf</title>
<polygon fill="none" stroke="black" points="411.5,-554 347.5,-554 347.5,-518 411.5,-518 411.5,-554"/>
<text text-anchor="middle" x="379.5" y="-533.2" font-family="Courier,monospace" font-size="11.00">MakePdf</text>
</g>
<!-- \\Elabftw\\Elabftw\\MakePdf&#45;&gt;\\Elabftw\\Elabftw\\Make -->
<g id="edge11" class="edge"><title>\\Elabftw\\Elabftw\\MakePdf&#45;&gt;\\Elabftw\\Elabftw\\Make</title>
<path fill="none" stroke="black" d="M347.175,-540.765C320.887,-544.764 282.818,-550.554 252.12,-555.224"/>
<polygon fill="none" stroke="black" points="251.38,-551.796 242.02,-556.76 252.433,-558.717 251.38,-551.796"/>
</g>
<!-- \\Elabftw\\Elabftw\\Comments -->
<g id="node32" class="node"><title>\\Elabftw\\Elabftw\\Comments</title>
<polygon fill="none" stroke="black" points="415,-284 344,-284 344,-248 415,-248 415,-284"/>
<text text-anchor="middle" x="379.5" y="-263.2" font-family="Courier,monospace" font-size="11.00">Comments</text>
</g>
<!-- \\Elabftw\\Elabftw\\Logs -->
<g id="node33" class="node"><title>\\Elabftw\\Elabftw\\Logs</title>
<polygon fill="none" stroke="black" points="227,-797 173,-797 173,-761 227,-761 227,-797"/>
<text text-anchor="middle" x="200" y="-776.2" font-family="Courier,monospace" font-size="11.00">Logs</text>
</g>
<!-- \\Elabftw\\Elabftw\\Logs&#45;&gt;\\Elabftw\\Elabftw\\Panel -->
<g id="edge12" class="edge"><title>\\Elabftw\\Elabftw\\Logs&#45;&gt;\\Elabftw\\Elabftw\\Panel</title>
<path fill="none" stroke="black" d="M172.855,-763.765C150.819,-750.923 119.102,-732.441 94.8995,-718.337"/>
<polygon fill="none" stroke="black" points="96.4299,-715.178 86.0276,-713.167 92.9054,-721.226 96.4299,-715.178"/>
</g>
<!-- \\Elabftw\\Elabftw\\TeamGroups -->
<g id="node34" class="node"><title>\\Elabftw\\Elabftw\\TeamGroups</title>
<polygon fill="none" stroke="black" points="242,-743 158,-743 158,-707 242,-707 242,-743"/>
<text text-anchor="middle" x="200" y="-722.2" font-family="Courier,monospace" font-size="11.00">TeamGroups</text>
</g>
<!-- \\Elabftw\\Elabftw\\TeamGroups&#45;&gt;\\Elabftw\\Elabftw\\Panel -->
<g id="edge13" class="edge"><title>\\Elabftw\\Elabftw\\TeamGroups&#45;&gt;\\Elabftw\\Elabftw\\Panel</title>
<path fill="none" stroke="black" d="M157.672,-716.972C138.09,-713.169 114.917,-708.667 96.0581,-705.004"/>
<polygon fill="none" stroke="black" points="96.5587,-701.536 86.0747,-703.065 95.2238,-708.408 96.5587,-701.536"/>
</g>
<!-- \\Elabftw\\Elabftw\\TrustedTimestamps -->
<g id="node35" class="node"><title>\\Elabftw\\Elabftw\\TrustedTimestamps</title>
<polygon fill="none" stroke="black" points="445,-230 314,-230 314,-194 445,-194 445,-230"/>
<text text-anchor="middle" x="379.5" y="-209.2" font-family="Courier,monospace" font-size="11.00">TrustedTimestamps</text>
</g>
<!-- \\Elabftw\\Elabftw\\ItemsTypesView -->
<g id="node37" class="node"><title>\\Elabftw\\Elabftw\\ItemsTypesView</title>
<polygon fill="none" stroke="black" points="435,-176 324,-176 324,-140 435,-140 435,-176"/>
<text text-anchor="middle" x="379.5" y="-155.2" font-family="Courier,monospace" font-size="11.00">ItemsTypesView</text>
</g>
<!-- \\Elabftw\\Elabftw\\Create -->
<g id="node39" class="node"><title>\\Elabftw\\Elabftw\\Create</title>
<polygon fill="none" stroke="black" points="408,-122 351,-122 351,-86 408,-86 408,-122"/>
<text text-anchor="middle" x="379.5" y="-101.2" font-family="Courier,monospace" font-size="11.00">Create</text>
</g>
<!-- \\Elabftw\\Elabftw\\ImportZip -->
<g id="node40" class="node"><title>\\Elabftw\\Elabftw\\ImportZip</title>
<polygon fill="none" stroke="black" points="418,-68 341,-68 341,-32 418,-32 418,-68"/>
<text text-anchor="middle" x="379.5" y="-47.2" font-family="Courier,monospace" font-size="11.00">ImportZip</text>
</g>
<!-- \\Elabftw\\Elabftw\\ImportZip&#45;&gt;\\Elabftw\\Elabftw\\Import -->
<g id="edge14" class="edge"><title>\\Elabftw\\Elabftw\\ImportZip&#45;&gt;\\Elabftw\\Elabftw\\Import</title>
<path fill="none" stroke="black" d="M340.819,-63.0515C331.705,-66.934 322.227,-71.6145 314,-77 278.506,-100.235 244.223,-135.366 222.908,-159.2"/>
<polygon fill="none" stroke="black" points="220.181,-157.001 216.194,-166.816 225.432,-161.63 220.181,-157.001"/>
</g>
</g>
</svg>
