<?xml version="1.0" encoding="UTF-8" standalone="no"?>
<!DOCTYPE svg PUBLIC "-//W3C//DTD SVG 1.1//EN"
 "http://www.w3.org/Graphics/SVG/1.1/DTD/svg11.dtd">
<!-- Generated by graphviz version 2.38.0 (20140413.2041)
 -->
<!-- Title: G Pages: 1 -->
<svg width="466pt" height="1788pt"
 viewBox="0.00 0.00 466.00 1788.00" xmlns="http://www.w3.org/2000/svg" xmlns:xlink="http://www.w3.org/1999/xlink">
<g id="graph0" class="graph" transform="scale(1 1) rotate(0) translate(4 1784)">
<title>G</title>
<polygon fill="white" stroke="none" points="-4,4 -4,-1784 462,-1784 462,4 -4,4"/>
<g id="clust1" class="cluster"><title>cluster_Global</title>
<path fill="none" stroke="gray" d="M20,-8C20,-8 438,-8 438,-8 444,-8 450,-14 450,-20 450,-20 450,-1760 450,-1760 450,-1766 444,-1772 438,-1772 438,-1772 20,-1772 20,-1772 14,-1772 8,-1766 8,-1760 8,-1760 8,-20 8,-20 8,-14 14,-8 20,-8"/>
<text text-anchor="middle" x="229" y="-1759.2" font-family="Times,serif" font-size="11.00" fill="gray">Global</text>
</g>
<g id="clust2" class="cluster"><title>cluster_\Elabftw</title>
<path fill="none" stroke="gray" d="M28,-16C28,-16 430,-16 430,-16 436,-16 442,-22 442,-28 442,-28 442,-1732 442,-1732 442,-1738 436,-1744 430,-1744 430,-1744 28,-1744 28,-1744 22,-1744 16,-1738 16,-1732 16,-1732 16,-28 16,-28 16,-22 22,-16 28,-16"/>
<text text-anchor="middle" x="229" y="-1731.2" font-family="Times,serif" font-size="11.00" fill="gray">Elabftw</text>
</g>
<g id="clust3" class="cluster"><title>cluster_\Elabftw\Elabftw</title>
<path fill="none" stroke="gray" d="M36,-24C36,-24 422,-24 422,-24 428,-24 434,-30 434,-36 434,-36 434,-1704 434,-1704 434,-1710 428,-1716 422,-1716 422,-1716 36,-1716 36,-1716 30,-1716 24,-1710 24,-1704 24,-1704 24,-36 24,-36 24,-30 30,-24 36,-24"/>
<text text-anchor="middle" x="229" y="-1703.2" font-family="Times,serif" font-size="11.00" fill="gray">Elabftw</text>
</g>
<!-- \\Elabftw\\Elabftw\\Database -->
<g id="node1" class="node"><title>\\Elabftw\\Elabftw\\Database</title>
<polygon fill="none" stroke="black" points="399,-662 334,-662 334,-626 399,-626 399,-662"/>
<text text-anchor="middle" x="366.5" y="-641.2" font-family="Courier,monospace" font-size="11.00">Database</text>
</g>
<!-- \\Elabftw\\Elabftw\\Entity -->
<g id="node13" class="node"><title>\\Elabftw\\Elabftw\\Entity</title>
<polygon fill="none" stroke="black" points="223.5,-635 169.5,-635 169.5,-599 223.5,-599 223.5,-635"/>
<text text-anchor="middle" x="196.5" y="-614.2" font-family="Courier,monospace" font-size="11.00">Entity</text>
</g>
<!-- \\Elabftw\\Elabftw\\Database&#45;&gt;\\Elabftw\\Elabftw\\Entity -->
<g id="edge1" class="edge"><title>\\Elabftw\\Elabftw\\Database&#45;&gt;\\Elabftw\\Elabftw\\Entity</title>
<path fill="none" stroke="black" d="M333.9,-638.922C305.417,-634.344 263.55,-627.615 233.723,-622.822"/>
<polygon fill="none" stroke="black" points="234.146,-619.345 223.717,-621.213 233.035,-626.256 234.146,-619.345"/>
</g>
<!-- \\Elabftw\\Elabftw\\MolViewer -->
<g id="node2" class="node"><title>\\Elabftw\\Elabftw\\MolViewer</title>
<polygon fill="none" stroke="black" points="402,-1634 331,-1634 331,-1598 402,-1598 402,-1634"/>
<text text-anchor="middle" x="366.5" y="-1613.2" font-family="Courier,monospace" font-size="11.00">MolViewer</text>
</g>
<!-- \\Elabftw\\Elabftw\\Status -->
<g id="node3" class="node"><title>\\Elabftw\\Elabftw\\Status</title>
<polygon fill="none" stroke="black" points="223.5,-1661 169.5,-1661 169.5,-1625 223.5,-1625 223.5,-1661"/>
<text text-anchor="middle" x="196.5" y="-1640.2" font-family="Courier,monospace" font-size="11.00">Status</text>
</g>
<!-- \\Elabftw\\Elabftw\\Panel -->
<g id="node22" class="node"><title>\\Elabftw\\Elabftw\\Panel</title>
<polygon fill="none" stroke="black" points="86,-1310 32,-1310 32,-1274 86,-1274 86,-1310"/>
<text text-anchor="middle" x="59" y="-1289.2" font-family="Courier,monospace" font-size="11.00">Panel</text>
</g>
<!-- \\Elabftw\\Elabftw\\Status&#45;&gt;\\Elabftw\\Elabftw\\Panel -->
<g id="edge2" class="edge"><title>\\Elabftw\\Elabftw\\Status&#45;&gt;\\Elabftw\\Elabftw\\Panel</title>
<path fill="none" stroke="black" d="M169.278,-1627.58C165.061,-1624.19 161.078,-1620.31 158,-1616 90.6332,-1521.69 68.9005,-1380.39 62.4722,-1320.48"/>
<polygon fill="none" stroke="black" points="65.9284,-1319.87 61.4424,-1310.27 58.9637,-1320.57 65.9284,-1319.87"/>
</g>
<!-- \\Elabftw\\Elabftw\\Users -->
<g id="node4" class="node"><title>\\Elabftw\\Elabftw\\Users</title>
<polygon fill="none" stroke="black" points="393.5,-1688 339.5,-1688 339.5,-1652 393.5,-1652 393.5,-1688"/>
<text text-anchor="middle" x="366.5" y="-1667.2" font-family="Courier,monospace" font-size="11.00">Users</text>
</g>
<!-- \\Elabftw\\Elabftw\\Auth -->
<g id="node6" class="node"><title>\\Elabftw\\Elabftw\\Auth</title>
<polygon fill="none" stroke="black" points="223.5,-1607 169.5,-1607 169.5,-1571 223.5,-1571 223.5,-1607"/>
<text text-anchor="middle" x="196.5" y="-1586.2" font-family="Courier,monospace" font-size="11.00">Auth</text>
</g>
<!-- \\Elabftw\\Elabftw\\Users&#45;&gt;\\Elabftw\\Elabftw\\Auth -->
<g id="edge3" class="edge"><title>\\Elabftw\\Elabftw\\Users&#45;&gt;\\Elabftw\\Elabftw\\Auth</title>
<path fill="none" stroke="black" d="M339.224,-1658.05C329.122,-1653.41 317.499,-1648.01 307,-1643 282.005,-1631.07 253.998,-1617.25 232.567,-1606.58"/>
<polygon fill="none" stroke="black" points="234.026,-1603.4 223.515,-1602.06 230.901,-1609.66 234.026,-1603.4"/>
</g>
<!-- \\Elabftw\\Elabftw\\Links -->
<g id="node5" class="node"><title>\\Elabftw\\Elabftw\\Links</title>
<polygon fill="none" stroke="black" points="393.5,-1526 339.5,-1526 339.5,-1490 393.5,-1490 393.5,-1526"/>
<text text-anchor="middle" x="366.5" y="-1505.2" font-family="Courier,monospace" font-size="11.00">Links</text>
</g>
<!-- \\Elabftw\\Elabftw\\Comments -->
<g id="node7" class="node"><title>\\Elabftw\\Elabftw\\Comments</title>
<polygon fill="none" stroke="black" points="399,-446 334,-446 334,-410 399,-410 399,-446"/>
<text text-anchor="middle" x="366.5" y="-425.2" font-family="Courier,monospace" font-size="11.00">Comments</text>
</g>
<!-- \\Elabftw\\Elabftw\\Comments&#45;&gt;\\Elabftw\\Elabftw\\Entity -->
<g id="edge4" class="edge"><title>\\Elabftw\\Elabftw\\Comments&#45;&gt;\\Elabftw\\Elabftw\\Entity</title>
<path fill="none" stroke="black" d="M333.89,-438.84C324.602,-442.974 314.842,-448.336 307,-455 261.957,-493.28 227.529,-554.435 210.114,-589.636"/>
<polygon fill="none" stroke="black" points="206.868,-588.31 205.659,-598.836 213.168,-591.361 206.868,-588.31"/>
</g>
<!-- \\Elabftw\\Elabftw\\Teams -->
<g id="node8" class="node"><title>\\Elabftw\\Elabftw\\Teams</title>
<polygon fill="none" stroke="black" points="223.5,-1121 169.5,-1121 169.5,-1085 223.5,-1085 223.5,-1121"/>
<text text-anchor="middle" x="196.5" y="-1100.2" font-family="Courier,monospace" font-size="11.00">Teams</text>
</g>
<!-- \\Elabftw\\Elabftw\\Teams&#45;&gt;\\Elabftw\\Elabftw\\Panel -->
<g id="edge5" class="edge"><title>\\Elabftw\\Elabftw\\Teams&#45;&gt;\\Elabftw\\Elabftw\\Panel</title>
<path fill="none" stroke="black" d="M182.508,-1121.12C158.429,-1154.71 106.789,-1226.74 78.8606,-1265.69"/>
<polygon fill="none" stroke="black" points="75.9351,-1263.77 72.953,-1273.93 81.6241,-1267.84 75.9351,-1263.77"/>
</g>
<!-- \\Elabftw\\Elabftw\\Import -->
<g id="node9" class="node"><title>\\Elabftw\\Elabftw\\Import</title>
<polygon fill="none" stroke="black" points="235,-365 158,-365 158,-329 235,-329 235,-365"/>
<text text-anchor="start" x="166" y="-350.2" font-family="Courier,monospace" font-size="11.00">«abstract»</text>
<text text-anchor="start" x="178" y="-338.2" font-family="Courier,monospace" font-size="11.00">Import</text>
</g>
<!-- \\Elabftw\\Elabftw\\ExperimentsView -->
<g id="node10" class="node"><title>\\Elabftw\\Elabftw\\ExperimentsView</title>
<polygon fill="none" stroke="black" points="420,-1472 313,-1472 313,-1436 420,-1436 420,-1472"/>
<text text-anchor="middle" x="366.5" y="-1451.2" font-family="Courier,monospace" font-size="11.00">ExperimentsView</text>
</g>
<!-- \\Elabftw\\Elabftw\\EntityView -->
<g id="node42" class="node"><title>\\Elabftw\\Elabftw\\EntityView</title>
<polygon fill="none" stroke="black" points="235,-1445 158,-1445 158,-1409 235,-1409 235,-1445"/>
<text text-anchor="middle" x="196.5" y="-1424.2" font-family="Courier,monospace" font-size="11.00">EntityView</text>
</g>
<!-- \\Elabftw\\Elabftw\\ExperimentsView&#45;&gt;\\Elabftw\\Elabftw\\EntityView -->
<g id="edge6" class="edge"><title>\\Elabftw\\Elabftw\\ExperimentsView&#45;&gt;\\Elabftw\\Elabftw\\EntityView</title>
<path fill="none" stroke="black" d="M312.805,-1445.53C291.138,-1442.05 266.229,-1438.05 245.12,-1434.65"/>
<polygon fill="none" stroke="black" points="245.522,-1431.17 235.093,-1433.04 244.411,-1438.08 245.522,-1431.17"/>
</g>
<!-- \\Elabftw\\Elabftw\\Make -->
<g id="node11" class="node"><title>\\Elabftw\\Elabftw\\Make</title>
<polygon fill="none" stroke="black" points="235,-203 158,-203 158,-167 235,-167 235,-203"/>
<text text-anchor="start" x="166" y="-188.2" font-family="Courier,monospace" font-size="11.00">«abstract»</text>
<text text-anchor="start" x="184" y="-176.2" font-family="Courier,monospace" font-size="11.00">Make</text>
</g>
<!-- \\Elabftw\\Elabftw\\TeamGroupsView -->
<g id="node12" class="node"><title>\\Elabftw\\Elabftw\\TeamGroupsView</title>
<polygon fill="none" stroke="black" points="417,-1364 316,-1364 316,-1328 417,-1328 417,-1364"/>
<text text-anchor="middle" x="366.5" y="-1343.2" font-family="Courier,monospace" font-size="11.00">TeamGroupsView</text>
</g>
<!-- \\Elabftw\\Elabftw\\Templates -->
<g id="node14" class="node"><title>\\Elabftw\\Elabftw\\Templates</title>
<polygon fill="none" stroke="black" points="402,-1310 331,-1310 331,-1274 402,-1274 402,-1310"/>
<text text-anchor="middle" x="366.5" y="-1289.2" font-family="Courier,monospace" font-size="11.00">Templates</text>
</g>
<!-- \\Elabftw\\Elabftw\\TagCloud -->
<g id="node15" class="node"><title>\\Elabftw\\Elabftw\\TagCloud</title>
<polygon fill="none" stroke="black" points="399,-1256 334,-1256 334,-1220 399,-1220 399,-1256"/>
<text text-anchor="middle" x="366.5" y="-1235.2" font-family="Courier,monospace" font-size="11.00">TagCloud</text>
</g>
<!-- \\Elabftw\\Elabftw\\Revisions -->
<g id="node16" class="node"><title>\\Elabftw\\Elabftw\\Revisions</title>
<polygon fill="none" stroke="black" points="402,-1202 331,-1202 331,-1166 402,-1166 402,-1202"/>
<text text-anchor="middle" x="366.5" y="-1181.2" font-family="Courier,monospace" font-size="11.00">Revisions</text>
</g>
<!-- \\Elabftw\\Elabftw\\ItemsTypesView -->
<g id="node17" class="node"><title>\\Elabftw\\Elabftw\\ItemsTypesView</title>
<polygon fill="none" stroke="black" points="417,-1148 316,-1148 316,-1112 417,-1112 417,-1148"/>
<text text-anchor="middle" x="366.5" y="-1127.2" font-family="Courier,monospace" font-size="11.00">ItemsTypesView</text>
</g>
<!-- \\Elabftw\\Elabftw\\StatusView -->
<g id="node18" class="node"><title>\\Elabftw\\Elabftw\\StatusView</title>
<polygon fill="none" stroke="black" points="405,-1094 328,-1094 328,-1058 405,-1058 405,-1094"/>
<text text-anchor="middle" x="366.5" y="-1073.2" font-family="Courier,monospace" font-size="11.00">StatusView</text>
</g>
<!-- \\Elabftw\\Elabftw\\UploadsView -->
<g id="node19" class="node"><title>\\Elabftw\\Elabftw\\UploadsView</title>
<polygon fill="none" stroke="black" points="408,-1418 325,-1418 325,-1382 408,-1382 408,-1418"/>
<text text-anchor="middle" x="366.5" y="-1397.2" font-family="Courier,monospace" font-size="11.00">UploadsView</text>
</g>
<!-- \\Elabftw\\Elabftw\\UploadsView&#45;&gt;\\Elabftw\\Elabftw\\EntityView -->
<g id="edge7" class="edge"><title>\\Elabftw\\Elabftw\\UploadsView&#45;&gt;\\Elabftw\\Elabftw\\EntityView</title>
<path fill="none" stroke="black" d="M324.832,-1406.54C300.848,-1410.39 270.375,-1415.29 245.254,-1419.33"/>
<polygon fill="none" stroke="black" points="244.524,-1415.9 235.206,-1420.94 245.634,-1422.81 244.524,-1415.9"/>
</g>
<!-- \\Elabftw\\Elabftw\\SysconfigView -->
<g id="node20" class="node"><title>\\Elabftw\\Elabftw\\SysconfigView</title>
<polygon fill="none" stroke="black" points="414,-986 319,-986 319,-950 414,-950 414,-986"/>
<text text-anchor="middle" x="366.5" y="-965.2" font-family="Courier,monospace" font-size="11.00">SysconfigView</text>
</g>
<!-- \\Elabftw\\Elabftw\\Formkey -->
<g id="node21" class="node"><title>\\Elabftw\\Elabftw\\Formkey</title>
<polygon fill="none" stroke="black" points="396,-932 337,-932 337,-896 396,-896 396,-932"/>
<text text-anchor="middle" x="366.5" y="-911.2" font-family="Courier,monospace" font-size="11.00">Formkey</text>
</g>
<!-- \\Elabftw\\Elabftw\\ItemsTypes -->
<g id="node23" class="node"><title>\\Elabftw\\Elabftw\\ItemsTypes</title>
<polygon fill="none" stroke="black" points="235,-1499 158,-1499 158,-1463 235,-1463 235,-1499"/>
<text text-anchor="middle" x="196.5" y="-1478.2" font-family="Courier,monospace" font-size="11.00">ItemsTypes</text>
</g>
<!-- \\Elabftw\\Elabftw\\ItemsTypes&#45;&gt;\\Elabftw\\Elabftw\\Panel -->
<g id="edge8" class="edge"><title>\\Elabftw\\Elabftw\\ItemsTypes&#45;&gt;\\Elabftw\\Elabftw\\Panel</title>
<path fill="none" stroke="black" d="M167.403,-1462.73C164.057,-1460 160.829,-1457.07 158,-1454 119.648,-1412.45 88.5883,-1353.59 72.3377,-1319.45"/>
<polygon fill="none" stroke="black" points="75.3723,-1317.68 67.9654,-1310.1 69.0315,-1320.64 75.3723,-1317.68"/>
</g>
<!-- \\Elabftw\\Elabftw\\Tools -->
<g id="node24" class="node"><title>\\Elabftw\\Elabftw\\Tools</title>
<polygon fill="none" stroke="black" points="393.5,-878 339.5,-878 339.5,-842 393.5,-842 393.5,-878"/>
<text text-anchor="middle" x="366.5" y="-857.2" font-family="Courier,monospace" font-size="11.00">Tools</text>
</g>
<!-- \\Elabftw\\Elabftw\\Db -->
<g id="node25" class="node"><title>\\Elabftw\\Elabftw\\Db</title>
<polygon fill="none" stroke="black" points="393.5,-824 339.5,-824 339.5,-788 393.5,-788 393.5,-824"/>
<text text-anchor="middle" x="366.5" y="-803.2" font-family="Courier,monospace" font-size="11.00">Db</text>
</g>
<!-- \\Elabftw\\Elabftw\\TeamsView -->
<g id="node26" class="node"><title>\\Elabftw\\Elabftw\\TeamsView</title>
<polygon fill="none" stroke="black" points="402,-1040 331,-1040 331,-1004 402,-1004 402,-1040"/>
<text text-anchor="middle" x="366.5" y="-1019.2" font-family="Courier,monospace" font-size="11.00">TeamsView</text>
</g>
<!-- \\Elabftw\\Elabftw\\TeamsView&#45;&gt;\\Elabftw\\Elabftw\\Teams -->
<g id="edge9" class="edge"><title>\\Elabftw\\Elabftw\\TeamsView&#45;&gt;\\Elabftw\\Elabftw\\Teams</title>
<path fill="none" stroke="black" d="M330.785,-1037.84C322.945,-1041.47 314.672,-1045.34 307,-1049 282.005,-1060.93 253.998,-1074.75 232.567,-1085.42"/>
<polygon fill="none" stroke="black" points="230.901,-1082.34 223.515,-1089.94 234.026,-1088.6 230.901,-1082.34"/>
</g>
<!-- \\Elabftw\\Elabftw\\Experiments -->
<g id="node27" class="node"><title>\\Elabftw\\Elabftw\\Experiments</title>
<polygon fill="none" stroke="black" points="408,-608 325,-608 325,-572 408,-572 408,-608"/>
<text text-anchor="middle" x="366.5" y="-587.2" font-family="Courier,monospace" font-size="11.00">Experiments</text>
</g>
<!-- \\Elabftw\\Elabftw\\Experiments&#45;&gt;\\Elabftw\\Elabftw\\Entity -->
<g id="edge10" class="edge"><title>\\Elabftw\\Elabftw\\Experiments&#45;&gt;\\Elabftw\\Elabftw\\Entity</title>
<path fill="none" stroke="black" d="M324.832,-596.536C297.056,-601 260.574,-606.863 233.783,-611.169"/>
<polygon fill="none" stroke="black" points="232.987,-607.752 223.669,-612.794 234.098,-614.663 232.987,-607.752"/>
</g>
<!-- \\Elabftw\\Elabftw\\ImportZip -->
<g id="node28" class="node"><title>\\Elabftw\\Elabftw\\ImportZip</title>
<polygon fill="none" stroke="black" points="402,-338 331,-338 331,-302 402,-302 402,-338"/>
<text text-anchor="middle" x="366.5" y="-317.2" font-family="Courier,monospace" font-size="11.00">ImportZip</text>
</g>
<!-- \\Elabftw\\Elabftw\\ImportZip&#45;&gt;\\Elabftw\\Elabftw\\Import -->
<g id="edge11" class="edge"><title>\\Elabftw\\Elabftw\\ImportZip&#45;&gt;\\Elabftw\\Elabftw\\Import</title>
<path fill="none" stroke="black" d="M330.69,-325.594C305.976,-329.566 272.49,-334.948 245.277,-339.322"/>
<polygon fill="none" stroke="black" points="244.504,-335.901 235.186,-340.943 245.615,-342.812 244.504,-335.901"/>
</g>
<!-- \\Elabftw\\Elabftw\\MakeCsv -->
<g id="node29" class="node"><title>\\Elabftw\\Elabftw\\MakeCsv</title>
<polygon fill="none" stroke="black" points="396,-68 337,-68 337,-32 396,-32 396,-68"/>
<text text-anchor="middle" x="366.5" y="-47.2" font-family="Courier,monospace" font-size="11.00">MakeCsv</text>
</g>
<!-- \\Elabftw\\Elabftw\\MakeCsv&#45;&gt;\\Elabftw\\Elabftw\\Make -->
<g id="edge12" class="edge"><title>\\Elabftw\\Elabftw\\MakeCsv&#45;&gt;\\Elabftw\\Elabftw\\Make</title>
<path fill="none" stroke="black" d="M336.813,-60.4345C326.875,-64.7576 315.984,-70.3353 307,-77 268.317,-105.698 270.761,-125.733 235,-158 234.062,-158.846 233.097,-159.691 232.113,-160.531"/>
<polygon fill="none" stroke="black" points="229.891,-157.826 224.294,-166.821 234.28,-163.279 229.891,-157.826"/>
</g>
<!-- \\Elabftw\\Elabftw\\BannedUsers -->
<g id="node30" class="node"><title>\\Elabftw\\Elabftw\\BannedUsers</title>
<polygon fill="none" stroke="black" points="408,-554 325,-554 325,-518 408,-518 408,-554"/>
<text text-anchor="middle" x="366.5" y="-533.2" font-family="Courier,monospace" font-size="11.00">BannedUsers</text>
</g>
<!-- \\Elabftw\\Elabftw\\Uploads -->
<g id="node31" class="node"><title>\\Elabftw\\Elabftw\\Uploads</title>
<polygon fill="none" stroke="black" points="396,-770 337,-770 337,-734 396,-734 396,-770"/>
<text text-anchor="middle" x="366.5" y="-749.2" font-family="Courier,monospace" font-size="11.00">Uploads</text>
</g>
<!-- \\Elabftw\\Elabftw\\Uploads&#45;&gt;\\Elabftw\\Elabftw\\Entity -->
<g id="edge13" class="edge"><title>\\Elabftw\\Elabftw\\Uploads&#45;&gt;\\Elabftw\\Elabftw\\Entity</title>
<path fill="none" stroke="black" d="M336.754,-741.102C326.917,-736.768 316.105,-731.303 307,-725 272.827,-701.347 239.73,-666.532 219.033,-642.872"/>
<polygon fill="none" stroke="black" points="221.43,-640.292 212.248,-635.005 216.129,-644.863 221.43,-640.292"/>
</g>
<!-- \\Elabftw\\Elabftw\\TeamGroups -->
<g id="node32" class="node"><title>\\Elabftw\\Elabftw\\TeamGroups</title>
<polygon fill="none" stroke="black" points="235,-1310 158,-1310 158,-1274 235,-1274 235,-1310"/>
<text text-anchor="middle" x="196.5" y="-1289.2" font-family="Courier,monospace" font-size="11.00">TeamGroups</text>
</g>
<!-- \\Elabftw\\Elabftw\\TeamGroups&#45;&gt;\\Elabftw\\Elabftw\\Panel -->
<g id="edge14" class="edge"><title>\\Elabftw\\Elabftw\\TeamGroups&#45;&gt;\\Elabftw\\Elabftw\\Panel</title>
<path fill="none" stroke="black" d="M157.756,-1292C138.595,-1292 115.421,-1292 96.4468,-1292"/>
<polygon fill="none" stroke="black" points="96.3896,-1288.5 86.3895,-1292 96.3895,-1295.5 96.3896,-1288.5"/>
</g>
<!-- \\Elabftw\\Elabftw\\MakeZip -->
<g id="node33" class="node"><title>\\Elabftw\\Elabftw\\MakeZip</title>
<polygon fill="none" stroke="black" points="396,-176 337,-176 337,-140 396,-140 396,-176"/>
<text text-anchor="middle" x="366.5" y="-155.2" font-family="Courier,monospace" font-size="11.00">MakeZip</text>
</g>
<!-- \\Elabftw\\Elabftw\\MakeZip&#45;&gt;\\Elabftw\\Elabftw\\Make -->
<g id="edge15" class="edge"><title>\\Elabftw\\Elabftw\\MakeZip&#45;&gt;\\Elabftw\\Elabftw\\Make</title>
<path fill="none" stroke="black" d="M336.62,-162.641C311.527,-166.674 274.686,-172.595 245.219,-177.331"/>
<polygon fill="none" stroke="black" points="244.453,-173.909 235.135,-178.952 245.563,-180.82 244.453,-173.909"/>
</g>
<!-- \\Elabftw\\Elabftw\\DatabaseView -->
<g id="node34" class="node"><title>\\Elabftw\\Elabftw\\DatabaseView</title>
<polygon fill="none" stroke="black" points="411,-1580 322,-1580 322,-1544 411,-1544 411,-1580"/>
<text text-anchor="middle" x="366.5" y="-1559.2" font-family="Courier,monospace" font-size="11.00">DatabaseView</text>
</g>
<!-- \\Elabftw\\Elabftw\\DatabaseView&#45;&gt;\\Elabftw\\Elabftw\\EntityView -->
<g id="edge16" class="edge"><title>\\Elabftw\\Elabftw\\DatabaseView&#45;&gt;\\Elabftw\\Elabftw\\EntityView</title>
<path fill="none" stroke="black" d="M321.854,-1544.33C316.659,-1541.52 311.582,-1538.4 307,-1535 268.317,-1506.3 270.761,-1486.27 235,-1454 234.062,-1453.15 233.097,-1452.31 232.113,-1451.47"/>
<polygon fill="none" stroke="black" points="234.28,-1448.72 224.294,-1445.18 229.891,-1454.17 234.28,-1448.72"/>
</g>
<!-- \\Elabftw\\Elabftw\\ImportCsv -->
<g id="node35" class="node"><title>\\Elabftw\\Elabftw\\ImportCsv</title>
<polygon fill="none" stroke="black" points="402,-392 331,-392 331,-356 402,-356 402,-392"/>
<text text-anchor="middle" x="366.5" y="-371.2" font-family="Courier,monospace" font-size="11.00">ImportCsv</text>
</g>
<!-- \\Elabftw\\Elabftw\\ImportCsv&#45;&gt;\\Elabftw\\Elabftw\\Import -->
<g id="edge17" class="edge"><title>\\Elabftw\\Elabftw\\ImportCsv&#45;&gt;\\Elabftw\\Elabftw\\Import</title>
<path fill="none" stroke="black" d="M330.69,-368.406C305.976,-364.434 272.49,-359.052 245.277,-354.678"/>
<polygon fill="none" stroke="black" points="245.615,-351.188 235.186,-353.057 244.504,-358.099 245.615,-351.188"/>
</g>
<!-- \\Elabftw\\Elabftw\\Sysconfig -->
<g id="node36" class="node"><title>\\Elabftw\\Elabftw\\Sysconfig</title>
<polygon fill="none" stroke="black" points="402,-284 331,-284 331,-248 402,-248 402,-284"/>
<text text-anchor="middle" x="366.5" y="-263.2" font-family="Courier,monospace" font-size="11.00">Sysconfig</text>
</g>
<!-- \\Elabftw\\Elabftw\\Tags -->
<g id="node37" class="node"><title>\\Elabftw\\Elabftw\\Tags</title>
<polygon fill="none" stroke="black" points="393.5,-716 339.5,-716 339.5,-680 393.5,-680 393.5,-716"/>
<text text-anchor="middle" x="366.5" y="-695.2" font-family="Courier,monospace" font-size="11.00">Tags</text>
</g>
<!-- \\Elabftw\\Elabftw\\Tags&#45;&gt;\\Elabftw\\Elabftw\\Entity -->
<g id="edge18" class="edge"><title>\\Elabftw\\Elabftw\\Tags&#45;&gt;\\Elabftw\\Elabftw\\Entity</title>
<path fill="none" stroke="black" d="M339.224,-686.047C329.122,-681.406 317.499,-676.011 307,-671 282.005,-659.071 253.998,-645.251 232.567,-634.579"/>
<polygon fill="none" stroke="black" points="234.026,-631.396 223.515,-630.064 230.901,-637.66 234.026,-631.396"/>
</g>
<!-- \\Elabftw\\Elabftw\\MakePdf -->
<g id="node38" class="node"><title>\\Elabftw\\Elabftw\\MakePdf</title>
<polygon fill="none" stroke="black" points="396,-230 337,-230 337,-194 396,-194 396,-230"/>
<text text-anchor="middle" x="366.5" y="-209.2" font-family="Courier,monospace" font-size="11.00">MakePdf</text>
</g>
<!-- \\Elabftw\\Elabftw\\MakePdf&#45;&gt;\\Elabftw\\Elabftw\\Make -->
<g id="edge19" class="edge"><title>\\Elabftw\\Elabftw\\MakePdf&#45;&gt;\\Elabftw\\Elabftw\\Make</title>
<path fill="none" stroke="black" d="M336.62,-207.359C311.527,-203.326 274.686,-197.405 245.219,-192.669"/>
<polygon fill="none" stroke="black" points="245.563,-189.18 235.135,-191.048 244.453,-196.091 245.563,-189.18"/>
</g>
<!-- \\Elabftw\\Elabftw\\Update -->
<g id="node39" class="node"><title>\\Elabftw\\Elabftw\\Update</title>
<polygon fill="none" stroke="black" points="393.5,-122 339.5,-122 339.5,-86 393.5,-86 393.5,-122"/>
<text text-anchor="middle" x="366.5" y="-101.2" font-family="Courier,monospace" font-size="11.00">Update</text>
</g>
<!-- \\Elabftw\\Elabftw\\TrustedTimestamps -->
<g id="node40" class="node"><title>\\Elabftw\\Elabftw\\TrustedTimestamps</title>
<polygon fill="none" stroke="black" points="426,-500 307,-500 307,-464 426,-464 426,-500"/>
<text text-anchor="middle" x="366.5" y="-479.2" font-family="Courier,monospace" font-size="11.00">TrustedTimestamps</text>
</g>
<!-- \\Elabftw\\Elabftw\\TrustedTimestamps&#45;&gt;\\Elabftw\\Elabftw\\Entity -->
<g id="edge20" class="edge"><title>\\Elabftw\\Elabftw\\TrustedTimestamps&#45;&gt;\\Elabftw\\Elabftw\\Entity</title>
<path fill="none" stroke="black" d="M321.756,-500.129C316.633,-502.847 311.599,-505.817 307,-509 272.827,-532.653 239.73,-567.468 219.033,-591.128"/>
<polygon fill="none" stroke="black" points="216.129,-589.137 212.248,-598.995 221.43,-593.708 216.129,-589.137"/>
</g>
<!-- \\Elabftw\\Elabftw\\Logs -->
<g id="node41" class="node"><title>\\Elabftw\\Elabftw\\Logs</title>
<polygon fill="none" stroke="black" points="223.5,-149 169.5,-149 169.5,-113 223.5,-113 223.5,-149"/>
<text text-anchor="middle" x="196.5" y="-128.2" font-family="Courier,monospace" font-size="11.00">Logs</text>
</g>
<!-- \\Elabftw\\Elabftw\\Logs&#45;&gt;\\Elabftw\\Elabftw\\Panel -->
<g id="edge21" class="edge"><title>\\Elabftw\\Elabftw\\Logs&#45;&gt;\\Elabftw\\Elabftw\\Panel</title>
<path fill="none" stroke="black" d="M169.27,-145.314C164.834,-148.885 160.773,-153.117 158,-158 101.778,-256.999 67.3618,-1096.73 61.0532,-1263.34"/>
<polygon fill="none" stroke="black" points="57.5405,-1263.61 60.663,-1273.74 64.5355,-1263.88 57.5405,-1263.61"/>
</g>
</g>
</svg>
