<?xml version="1.0" encoding="UTF-8" standalone="no"?>
<!DOCTYPE svg PUBLIC "-//W3C//DTD SVG 1.1//EN"
 "http://www.w3.org/Graphics/SVG/1.1/DTD/svg11.dtd">
<!-- Generated by graphviz version 2.38.0 (20140413.2041)
 -->
<!-- Title: G Pages: 1 -->
<svg width="485pt" height="1734pt"
 viewBox="0.00 0.00 485.00 1734.00" xmlns="http://www.w3.org/2000/svg" xmlns:xlink="http://www.w3.org/1999/xlink">
<g id="graph0" class="graph" transform="scale(1 1) rotate(0) translate(4 1730)">
<title>G</title>
<polygon fill="white" stroke="none" points="-4,4 -4,-1730 481,-1730 481,4 -4,4"/>
<g id="clust1" class="cluster"><title>cluster_Global</title>
<path fill="none" stroke="gray" d="M20,-8C20,-8 457,-8 457,-8 463,-8 469,-14 469,-20 469,-20 469,-1706 469,-1706 469,-1712 463,-1718 457,-1718 457,-1718 20,-1718 20,-1718 14,-1718 8,-1712 8,-1706 8,-1706 8,-20 8,-20 8,-14 14,-8 20,-8"/>
<text text-anchor="middle" x="238.5" y="-1705.2" font-family="Times,serif" font-size="11.00" fill="gray">Global</text>
</g>
<g id="clust2" class="cluster"><title>cluster_\Elabftw</title>
<path fill="none" stroke="gray" d="M28,-16C28,-16 449,-16 449,-16 455,-16 461,-22 461,-28 461,-28 461,-1678 461,-1678 461,-1684 455,-1690 449,-1690 449,-1690 28,-1690 28,-1690 22,-1690 16,-1684 16,-1678 16,-1678 16,-28 16,-28 16,-22 22,-16 28,-16"/>
<text text-anchor="middle" x="238.5" y="-1677.2" font-family="Times,serif" font-size="11.00" fill="gray">Elabftw</text>
</g>
<g id="clust3" class="cluster"><title>cluster_\Elabftw\Elabftw</title>
<path fill="none" stroke="gray" d="M36,-24C36,-24 441,-24 441,-24 447,-24 453,-30 453,-36 453,-36 453,-1650 453,-1650 453,-1656 447,-1662 441,-1662 441,-1662 36,-1662 36,-1662 30,-1662 24,-1656 24,-1650 24,-1650 24,-36 24,-36 24,-30 30,-24 36,-24"/>
<text text-anchor="middle" x="238.5" y="-1649.2" font-family="Times,serif" font-size="11.00" fill="gray">Elabftw</text>
</g>
<!-- \\Elabftw\\Elabftw\\Db -->
<g id="node1" class="node"><title>\\Elabftw\\Elabftw\\Db</title>
<polygon fill="none" stroke="black" points="406.5,-1634 352.5,-1634 352.5,-1598 406.5,-1598 406.5,-1634"/>
<text text-anchor="middle" x="379.5" y="-1613.2" font-family="Courier,monospace" font-size="11.00">Db</text>
</g>
<!-- \\Elabftw\\Elabftw\\ItemsTypes -->
<g id="node2" class="node"><title>\\Elabftw\\Elabftw\\ItemsTypes</title>
<polygon fill="none" stroke="black" points="242,-1418 158,-1418 158,-1382 242,-1382 242,-1418"/>
<text text-anchor="middle" x="200" y="-1397.2" font-family="Courier,monospace" font-size="11.00">ItemsTypes</text>
</g>
<!-- \\Elabftw\\Elabftw\\Panel -->
<g id="node38" class="node"><title>\\Elabftw\\Elabftw\\Panel</title>
<polygon fill="none" stroke="black" points="86,-1067 32,-1067 32,-1031 86,-1031 86,-1067"/>
<text text-anchor="middle" x="59" y="-1046.2" font-family="Courier,monospace" font-size="11.00">Panel</text>
</g>
<!-- \\Elabftw\\Elabftw\\ItemsTypes&#45;&gt;\\Elabftw\\Elabftw\\Panel -->
<g id="edge1" class="edge"><title>\\Elabftw\\Elabftw\\ItemsTypes&#45;&gt;\\Elabftw\\Elabftw\\Panel</title>
<path fill="none" stroke="black" d="M166.629,-1381.99C163.417,-1379.28 160.447,-1376.28 158,-1373 88.5175,-1279.89 67.9065,-1137.36 62.1222,-1077.27"/>
<polygon fill="none" stroke="black" points="65.5842,-1076.69 61.2063,-1067.04 58.6121,-1077.32 65.5842,-1076.69"/>
</g>
<!-- \\Elabftw\\Elabftw\\StatusView -->
<g id="node3" class="node"><title>\\Elabftw\\Elabftw\\StatusView</title>
<polygon fill="none" stroke="black" points="421.5,-1580 337.5,-1580 337.5,-1544 421.5,-1544 421.5,-1580"/>
<text text-anchor="middle" x="379.5" y="-1559.2" font-family="Courier,monospace" font-size="11.00">StatusView</text>
</g>
<!-- \\Elabftw\\Elabftw\\TeamsView -->
<g id="node4" class="node"><title>\\Elabftw\\Elabftw\\TeamsView</title>
<polygon fill="none" stroke="black" points="418,-1526 341,-1526 341,-1490 418,-1490 418,-1526"/>
<text text-anchor="middle" x="379.5" y="-1505.2" font-family="Courier,monospace" font-size="11.00">TeamsView</text>
</g>
<!-- \\Elabftw\\Elabftw\\Teams -->
<g id="node15" class="node"><title>\\Elabftw\\Elabftw\\Teams</title>
<polygon fill="none" stroke="black" points="227,-1364 173,-1364 173,-1328 227,-1328 227,-1364"/>
<text text-anchor="middle" x="200" y="-1343.2" font-family="Courier,monospace" font-size="11.00">Teams</text>
</g>
<!-- \\Elabftw\\Elabftw\\TeamsView&#45;&gt;\\Elabftw\\Elabftw\\Teams -->
<g id="edge2" class="edge"><title>\\Elabftw\\Elabftw\\TeamsView&#45;&gt;\\Elabftw\\Elabftw\\Teams</title>
<path fill="none" stroke="black" d="M340.93,-1496.6C331.516,-1492.63 321.867,-1487.49 314,-1481 269.494,-1444.3 282.907,-1413.68 242,-1373 239.96,-1370.97 237.746,-1369.01 235.438,-1367.13"/>
<polygon fill="none" stroke="black" points="237.457,-1364.27 227.351,-1361.09 233.268,-1369.88 237.457,-1364.27"/>
</g>
<!-- \\Elabftw\\Elabftw\\Tags -->
<g id="node5" class="node"><title>\\Elabftw\\Elabftw\\Tags</title>
<polygon fill="none" stroke="black" points="406.5,-1472 352.5,-1472 352.5,-1436 406.5,-1436 406.5,-1472"/>
<text text-anchor="middle" x="379.5" y="-1451.2" font-family="Courier,monospace" font-size="11.00">Tags</text>
</g>
<!-- \\Elabftw\\Elabftw\\Database -->
<g id="node6" class="node"><title>\\Elabftw\\Elabftw\\Database</title>
<polygon fill="none" stroke="black" points="415,-824 344,-824 344,-788 415,-788 415,-824"/>
<text text-anchor="middle" x="379.5" y="-803.2" font-family="Courier,monospace" font-size="11.00">Database</text>
</g>
<!-- \\Elabftw\\Elabftw\\Entity -->
<g id="node24" class="node"><title>\\Elabftw\\Elabftw\\Entity</title>
<polygon fill="none" stroke="black" points="228.5,-824 171.5,-824 171.5,-788 228.5,-788 228.5,-824"/>
<text text-anchor="middle" x="200" y="-803.2" font-family="Courier,monospace" font-size="11.00">Entity</text>
</g>
<!-- \\Elabftw\\Elabftw\\Database&#45;&gt;\\Elabftw\\Elabftw\\Entity -->
<g id="edge3" class="edge"><title>\\Elabftw\\Elabftw\\Database&#45;&gt;\\Elabftw\\Elabftw\\Entity</title>
<path fill="none" stroke="black" d="M343.855,-806C313.58,-806 269.722,-806 238.602,-806"/>
<polygon fill="none" stroke="black" points="238.575,-802.5 228.575,-806 238.575,-809.5 238.575,-802.5"/>
</g>
<!-- \\Elabftw\\Elabftw\\LegacyCrypto -->
<g id="node7" class="node"><title>\\Elabftw\\Elabftw\\LegacyCrypto</title>
<polygon fill="none" stroke="black" points="428.5,-1364 330.5,-1364 330.5,-1328 428.5,-1328 428.5,-1364"/>
<text text-anchor="middle" x="379.5" y="-1343.2" font-family="Courier,monospace" font-size="11.00">LegacyCrypto</text>
</g>
<!-- \\Elabftw\\Elabftw\\ExperimentsView -->
<g id="node8" class="node"><title>\\Elabftw\\Elabftw\\ExperimentsView</title>
<polygon fill="none" stroke="black" points="438.5,-1418 320.5,-1418 320.5,-1382 438.5,-1382 438.5,-1418"/>
<text text-anchor="middle" x="379.5" y="-1397.2" font-family="Courier,monospace" font-size="11.00">ExperimentsView</text>
</g>
<!-- \\Elabftw\\Elabftw\\EntityView -->
<g id="node30" class="node"><title>\\Elabftw\\Elabftw\\EntityView</title>
<polygon fill="none" stroke="black" points="242,-1310 158,-1310 158,-1274 242,-1274 242,-1310"/>
<text text-anchor="middle" x="200" y="-1289.2" font-family="Courier,monospace" font-size="11.00">EntityView</text>
</g>
<!-- \\Elabftw\\Elabftw\\ExperimentsView&#45;&gt;\\Elabftw\\Elabftw\\EntityView -->
<g id="edge4" class="edge"><title>\\Elabftw\\Elabftw\\ExperimentsView&#45;&gt;\\Elabftw\\Elabftw\\EntityView</title>
<path fill="none" stroke="black" d="M331.339,-1381.86C325.392,-1379.11 319.478,-1376.14 314,-1373 279.287,-1353.13 274.719,-1342.01 242,-1319 240.562,-1317.99 239.09,-1316.97 237.598,-1315.94"/>
<polygon fill="none" stroke="black" points="239.185,-1312.79 228.943,-1310.07 235.258,-1318.58 239.185,-1312.79"/>
</g>
<!-- \\Elabftw\\Elabftw\\CryptoWrapper -->
<g id="node9" class="node"><title>\\Elabftw\\Elabftw\\CryptoWrapper</title>
<polygon fill="none" stroke="black" points="431.5,-1256 327.5,-1256 327.5,-1220 431.5,-1220 431.5,-1256"/>
<text text-anchor="middle" x="379.5" y="-1235.2" font-family="Courier,monospace" font-size="11.00">CryptoWrapper</text>
</g>
<!-- \\Elabftw\\Elabftw\\Revisions -->
<g id="node10" class="node"><title>\\Elabftw\\Elabftw\\Revisions</title>
<polygon fill="none" stroke="black" points="418,-1202 341,-1202 341,-1166 418,-1166 418,-1202"/>
<text text-anchor="middle" x="379.5" y="-1181.2" font-family="Courier,monospace" font-size="11.00">Revisions</text>
</g>
<!-- \\Elabftw\\Elabftw\\Templates -->
<g id="node11" class="node"><title>\\Elabftw\\Elabftw\\Templates</title>
<polygon fill="none" stroke="black" points="418,-1148 341,-1148 341,-1112 418,-1112 418,-1148"/>
<text text-anchor="middle" x="379.5" y="-1127.2" font-family="Courier,monospace" font-size="11.00">Templates</text>
</g>
<!-- \\Elabftw\\Elabftw\\Update -->
<g id="node12" class="node"><title>\\Elabftw\\Elabftw\\Update</title>
<polygon fill="none" stroke="black" points="408,-1094 351,-1094 351,-1058 408,-1058 408,-1094"/>
<text text-anchor="middle" x="379.5" y="-1073.2" font-family="Courier,monospace" font-size="11.00">Update</text>
</g>
<!-- \\Elabftw\\Elabftw\\MolViewer -->
<g id="node13" class="node"><title>\\Elabftw\\Elabftw\\MolViewer</title>
<polygon fill="none" stroke="black" points="418,-1040 341,-1040 341,-1004 418,-1004 418,-1040"/>
<text text-anchor="middle" x="379.5" y="-1019.2" font-family="Courier,monospace" font-size="11.00">MolViewer</text>
</g>
<!-- \\Elabftw\\Elabftw\\Sysconfig -->
<g id="node14" class="node"><title>\\Elabftw\\Elabftw\\Sysconfig</title>
<polygon fill="none" stroke="black" points="418,-986 341,-986 341,-950 418,-950 418,-986"/>
<text text-anchor="middle" x="379.5" y="-965.2" font-family="Courier,monospace" font-size="11.00">Sysconfig</text>
</g>
<!-- \\Elabftw\\Elabftw\\Teams&#45;&gt;\\Elabftw\\Elabftw\\Panel -->
<g id="edge5" class="edge"><title>\\Elabftw\\Elabftw\\Teams&#45;&gt;\\Elabftw\\Elabftw\\Panel</title>
<path fill="none" stroke="black" d="M172.648,-1332.27C167.258,-1328.53 162.014,-1324.08 158,-1319 98.7364,-1243.94 73.2668,-1129.8 64.2183,-1077.27"/>
<polygon fill="none" stroke="black" points="67.6583,-1076.62 62.5763,-1067.32 60.7518,-1077.76 67.6583,-1076.62"/>
</g>
<!-- \\Elabftw\\Elabftw\\Import -->
<g id="node16" class="node"><title>\\Elabftw\\Elabftw\\Import</title>
<polygon fill="none" stroke="black" points="242,-176 158,-176 158,-140 242,-140 242,-176"/>
<text text-anchor="start" x="166" y="-161.2" font-family="Courier,monospace" font-size="11.00">«abstract»</text>
<text text-anchor="start" x="179.5" y="-149.2" font-family="Courier,monospace" font-size="11.00">Import</text>
</g>
<!-- \\Elabftw\\Elabftw\\SysconfigView -->
<g id="node17" class="node"><title>\\Elabftw\\Elabftw\\SysconfigView</title>
<polygon fill="none" stroke="black" points="431.5,-932 327.5,-932 327.5,-896 431.5,-896 431.5,-932"/>
<text text-anchor="middle" x="379.5" y="-911.2" font-family="Courier,monospace" font-size="11.00">SysconfigView</text>
</g>
<!-- \\Elabftw\\Elabftw\\Upload -->
<g id="node18" class="node"><title>\\Elabftw\\Elabftw\\Upload</title>
<polygon fill="none" stroke="black" points="408,-554 351,-554 351,-518 408,-518 408,-554"/>
<text text-anchor="middle" x="379.5" y="-533.2" font-family="Courier,monospace" font-size="11.00">Upload</text>
</g>
<!-- \\Elabftw\\Elabftw\\Make -->
<g id="node20" class="node"><title>\\Elabftw\\Elabftw\\Make</title>
<polygon fill="none" stroke="black" points="242,-527 158,-527 158,-491 242,-491 242,-527"/>
<text text-anchor="start" x="166" y="-512.2" font-family="Courier,monospace" font-size="11.00">«abstract»</text>
<text text-anchor="start" x="186" y="-500.2" font-family="Courier,monospace" font-size="11.00">Make</text>
</g>
<!-- \\Elabftw\\Elabftw\\Upload&#45;&gt;\\Elabftw\\Elabftw\\Make -->
<g id="edge6" class="edge"><title>\\Elabftw\\Elabftw\\Upload&#45;&gt;\\Elabftw\\Elabftw\\Make</title>
<path fill="none" stroke="black" d="M350.766,-531.781C324.459,-527.78 284.29,-521.669 252.173,-516.784"/>
<polygon fill="none" stroke="black" points="252.469,-513.289 242.057,-515.245 251.416,-520.209 252.469,-513.289"/>
</g>
<!-- \\Elabftw\\Elabftw\\DatabaseView -->
<g id="node19" class="node"><title>\\Elabftw\\Elabftw\\DatabaseView</title>
<polygon fill="none" stroke="black" points="428.5,-1310 330.5,-1310 330.5,-1274 428.5,-1274 428.5,-1310"/>
<text text-anchor="middle" x="379.5" y="-1289.2" font-family="Courier,monospace" font-size="11.00">DatabaseView</text>
</g>
<!-- \\Elabftw\\Elabftw\\DatabaseView&#45;&gt;\\Elabftw\\Elabftw\\EntityView -->
<g id="edge7" class="edge"><title>\\Elabftw\\Elabftw\\DatabaseView&#45;&gt;\\Elabftw\\Elabftw\\EntityView</title>
<path fill="none" stroke="black" d="M330.466,-1292C306.3,-1292 276.992,-1292 252.376,-1292"/>
<polygon fill="none" stroke="black" points="252.143,-1288.5 242.143,-1292 252.143,-1295.5 252.143,-1288.5"/>
</g>
<!-- \\Elabftw\\Elabftw\\Uploads -->
<g id="node21" class="node"><title>\\Elabftw\\Elabftw\\Uploads</title>
<polygon fill="none" stroke="black" points="411.5,-770 347.5,-770 347.5,-734 411.5,-734 411.5,-770"/>
<text text-anchor="middle" x="379.5" y="-749.2" font-family="Courier,monospace" font-size="11.00">Uploads</text>
</g>
<!-- \\Elabftw\\Elabftw\\Uploads&#45;&gt;\\Elabftw\\Elabftw\\Entity -->
<g id="edge8" class="edge"><title>\\Elabftw\\Elabftw\\Uploads&#45;&gt;\\Elabftw\\Elabftw\\Entity</title>
<path fill="none" stroke="black" d="M347.175,-761.53C316.821,-770.764 270.761,-784.777 238.477,-794.599"/>
<polygon fill="none" stroke="black" points="237.065,-791.37 228.517,-797.629 239.103,-798.067 237.065,-791.37"/>
</g>
<!-- \\Elabftw\\Elabftw\\Status -->
<g id="node22" class="node"><title>\\Elabftw\\Elabftw\\Status</title>
<polygon fill="none" stroke="black" points="228.5,-1067 171.5,-1067 171.5,-1031 228.5,-1031 228.5,-1067"/>
<text text-anchor="middle" x="200" y="-1046.2" font-family="Courier,monospace" font-size="11.00">Status</text>
</g>
<!-- \\Elabftw\\Elabftw\\Status&#45;&gt;\\Elabftw\\Elabftw\\Panel -->
<g id="edge9" class="edge"><title>\\Elabftw\\Elabftw\\Status&#45;&gt;\\Elabftw\\Elabftw\\Panel</title>
<path fill="none" stroke="black" d="M171.205,-1049C149.77,-1049 119.935,-1049 96.5637,-1049"/>
<polygon fill="none" stroke="black" points="96.3338,-1045.5 86.3338,-1049 96.3338,-1052.5 96.3338,-1045.5"/>
</g>
<!-- \\Elabftw\\Elabftw\\Formkey -->
<g id="node23" class="node"><title>\\Elabftw\\Elabftw\\Formkey</title>
<polygon fill="none" stroke="black" points="411.5,-716 347.5,-716 347.5,-680 411.5,-680 411.5,-716"/>
<text text-anchor="middle" x="379.5" y="-695.2" font-family="Courier,monospace" font-size="11.00">Formkey</text>
</g>
<!-- \\Elabftw\\Elabftw\\Experiments -->
<g id="node25" class="node"><title>\\Elabftw\\Elabftw\\Experiments</title>
<polygon fill="none" stroke="black" points="425,-878 334,-878 334,-842 425,-842 425,-878"/>
<text text-anchor="middle" x="379.5" y="-857.2" font-family="Courier,monospace" font-size="11.00">Experiments</text>
</g>
<!-- \\Elabftw\\Elabftw\\Experiments&#45;&gt;\\Elabftw\\Elabftw\\Entity -->
<g id="edge10" class="edge"><title>\\Elabftw\\Elabftw\\Experiments&#45;&gt;\\Elabftw\\Elabftw\\Entity</title>
<path fill="none" stroke="black" d="M333.709,-846.374C304.257,-837.413 266.163,-825.824 238.348,-817.362"/>
<polygon fill="none" stroke="black" points="239.186,-813.959 228.6,-814.397 237.149,-820.656 239.186,-813.959"/>
</g>
<!-- \\Elabftw\\Elabftw\\TeamGroupsView -->
<g id="node26" class="node"><title>\\Elabftw\\Elabftw\\TeamGroupsView</title>
<polygon fill="none" stroke="black" points="435,-608 324,-608 324,-572 435,-572 435,-608"/>
<text text-anchor="middle" x="379.5" y="-587.2" font-family="Courier,monospace" font-size="11.00">TeamGroupsView</text>
</g>
<!-- \\Elabftw\\Elabftw\\MakeZip -->
<g id="node27" class="node"><title>\\Elabftw\\Elabftw\\MakeZip</title>
<polygon fill="none" stroke="black" points="411.5,-338 347.5,-338 347.5,-302 411.5,-302 411.5,-338"/>
<text text-anchor="middle" x="379.5" y="-317.2" font-family="Courier,monospace" font-size="11.00">MakeZip</text>
</g>
<!-- \\Elabftw\\Elabftw\\MakeZip&#45;&gt;\\Elabftw\\Elabftw\\Make -->
<g id="edge11" class="edge"><title>\\Elabftw\\Elabftw\\MakeZip&#45;&gt;\\Elabftw\\Elabftw\\Make</title>
<path fill="none" stroke="black" d="M347.488,-328.142C335.969,-332.334 323.425,-338.418 314,-347 263.722,-392.783 287.811,-431.747 242,-482 241.372,-482.689 240.723,-483.368 240.055,-484.038"/>
<polygon fill="none" stroke="black" points="237.551,-481.579 232.342,-490.805 242.167,-486.841 237.551,-481.579"/>
</g>
<!-- \\Elabftw\\Elabftw\\Users -->
<g id="node28" class="node"><title>\\Elabftw\\Elabftw\\Users</title>
<polygon fill="none" stroke="black" points="406.5,-662 352.5,-662 352.5,-626 406.5,-626 406.5,-662"/>
<text text-anchor="middle" x="379.5" y="-641.2" font-family="Courier,monospace" font-size="11.00">Users</text>
</g>
<!-- \\Elabftw\\Elabftw\\Auth -->
<g id="node40" class="node"><title>\\Elabftw\\Elabftw\\Auth</title>
<polygon fill="none" stroke="black" points="227,-662 173,-662 173,-626 227,-626 227,-662"/>
<text text-anchor="middle" x="200" y="-641.2" font-family="Courier,monospace" font-size="11.00">Auth</text>
</g>
<!-- \\Elabftw\\Elabftw\\Users&#45;&gt;\\Elabftw\\Elabftw\\Auth -->
<g id="edge12" class="edge"><title>\\Elabftw\\Elabftw\\Users&#45;&gt;\\Elabftw\\Elabftw\\Auth</title>
<path fill="none" stroke="black" d="M352.309,-644C321.809,-644 271.251,-644 237.056,-644"/>
<polygon fill="none" stroke="black" points="237.009,-640.5 227.009,-644 237.009,-647.5 237.009,-640.5"/>
</g>
<!-- \\Elabftw\\Elabftw\\MakeCsv -->
<g id="node29" class="node"><title>\\Elabftw\\Elabftw\\MakeCsv</title>
<polygon fill="none" stroke="black" points="411.5,-500 347.5,-500 347.5,-464 411.5,-464 411.5,-500"/>
<text text-anchor="middle" x="379.5" y="-479.2" font-family="Courier,monospace" font-size="11.00">MakeCsv</text>
</g>
<!-- \\Elabftw\\Elabftw\\MakeCsv&#45;&gt;\\Elabftw\\Elabftw\\Make -->
<g id="edge13" class="edge"><title>\\Elabftw\\Elabftw\\MakeCsv&#45;&gt;\\Elabftw\\Elabftw\\Make</title>
<path fill="none" stroke="black" d="M347.175,-486.765C320.887,-490.764 282.818,-496.554 252.12,-501.224"/>
<polygon fill="none" stroke="black" points="251.38,-497.796 242.02,-502.76 252.433,-504.717 251.38,-497.796"/>
</g>
<!-- \\Elabftw\\Elabftw\\Tools -->
<g id="node31" class="node"><title>\\Elabftw\\Elabftw\\Tools</title>
<polygon fill="none" stroke="black" points="406.5,-392 352.5,-392 352.5,-356 406.5,-356 406.5,-392"/>
<text text-anchor="middle" x="379.5" y="-371.2" font-family="Courier,monospace" font-size="11.00">Tools</text>
</g>
<!-- \\Elabftw\\Elabftw\\ImportCsv -->
<g id="node32" class="node"><title>\\Elabftw\\Elabftw\\ImportCsv</title>
<polygon fill="none" stroke="black" points="418,-284 341,-284 341,-248 418,-248 418,-284"/>
<text text-anchor="middle" x="379.5" y="-263.2" font-family="Courier,monospace" font-size="11.00">ImportCsv</text>
</g>
<!-- \\Elabftw\\Elabftw\\ImportCsv&#45;&gt;\\Elabftw\\Elabftw\\Import -->
<g id="edge14" class="edge"><title>\\Elabftw\\Elabftw\\ImportCsv&#45;&gt;\\Elabftw\\Elabftw\\Import</title>
<path fill="none" stroke="black" d="M340.983,-251.975C331.958,-248.146 322.48,-243.734 314,-239 284.286,-222.411 253.027,-199.526 230.938,-182.312"/>
<polygon fill="none" stroke="black" points="232.965,-179.453 222.943,-176.017 228.634,-184.953 232.965,-179.453"/>
</g>
<!-- \\Elabftw\\Elabftw\\MakePdf -->
<g id="node33" class="node"><title>\\Elabftw\\Elabftw\\MakePdf</title>
<polygon fill="none" stroke="black" points="411.5,-446 347.5,-446 347.5,-410 411.5,-410 411.5,-446"/>
<text text-anchor="middle" x="379.5" y="-425.2" font-family="Courier,monospace" font-size="11.00">MakePdf</text>
</g>
<!-- \\Elabftw\\Elabftw\\MakePdf&#45;&gt;\\Elabftw\\Elabftw\\Make -->
<g id="edge15" class="edge"><title>\\Elabftw\\Elabftw\\MakePdf&#45;&gt;\\Elabftw\\Elabftw\\Make</title>
<path fill="none" stroke="black" d="M347.2,-440.738C336.609,-445.144 324.746,-450.187 314,-455 291.716,-464.981 267.237,-476.597 246.778,-486.493"/>
<polygon fill="none" stroke="black" points="245.152,-483.391 237.683,-490.906 248.208,-489.689 245.152,-483.391"/>
</g>
<!-- \\Elabftw\\Elabftw\\Comments -->
<g id="node34" class="node"><title>\\Elabftw\\Elabftw\\Comments</title>
<polygon fill="none" stroke="black" points="415,-230 344,-230 344,-194 415,-194 415,-230"/>
<text text-anchor="middle" x="379.5" y="-209.2" font-family="Courier,monospace" font-size="11.00">Comments</text>
</g>
<!-- \\Elabftw\\Elabftw\\Logs -->
<g id="node35" class="node"><title>\\Elabftw\\Elabftw\\Logs</title>
<polygon fill="none" stroke="black" points="227,-473 173,-473 173,-437 227,-437 227,-473"/>
<text text-anchor="middle" x="200" y="-452.2" font-family="Courier,monospace" font-size="11.00">Logs</text>
</g>
<!-- \\Elabftw\\Elabftw\\Logs&#45;&gt;\\Elabftw\\Elabftw\\Panel -->
<g id="edge16" class="edge"><title>\\Elabftw\\Elabftw\\Logs&#45;&gt;\\Elabftw\\Elabftw\\Panel</title>
<path fill="none" stroke="black" d="M172.806,-467.65C167.14,-471.52 161.735,-476.296 158,-482 98.4625,-572.914 69.3389,-918.847 61.937,-1020.65"/>
<polygon fill="none" stroke="black" points="58.4348,-1020.56 61.214,-1030.79 65.417,-1021.06 58.4348,-1020.56"/>
</g>
<!-- \\Elabftw\\Elabftw\\TeamGroups -->
<g id="node36" class="node"><title>\\Elabftw\\Elabftw\\TeamGroups</title>
<polygon fill="none" stroke="black" points="242,-419 158,-419 158,-383 242,-383 242,-419"/>
<text text-anchor="middle" x="200" y="-398.2" font-family="Courier,monospace" font-size="11.00">TeamGroups</text>
</g>
<!-- \\Elabftw\\Elabftw\\TeamGroups&#45;&gt;\\Elabftw\\Elabftw\\Panel -->
<g id="edge17" class="edge"><title>\\Elabftw\\Elabftw\\TeamGroups&#45;&gt;\\Elabftw\\Elabftw\\Panel</title>
<path fill="none" stroke="black" d="M165.783,-419.045C162.808,-421.722 160.124,-424.705 158,-428 93.1192,-528.672 67.4575,-913.124 61.4541,-1020.81"/>
<polygon fill="none" stroke="black" points="57.9535,-1020.73 60.9043,-1030.91 64.9431,-1021.11 57.9535,-1020.73"/>
</g>
<!-- \\Elabftw\\Elabftw\\TrustedTimestamps -->
<g id="node37" class="node"><title>\\Elabftw\\Elabftw\\TrustedTimestamps</title>
<polygon fill="none" stroke="black" points="445,-176 314,-176 314,-140 445,-140 445,-176"/>
<text text-anchor="middle" x="379.5" y="-155.2" font-family="Courier,monospace" font-size="11.00">TrustedTimestamps</text>
</g>
<!-- \\Elabftw\\Elabftw\\ItemsTypesView -->
<g id="node39" class="node"><title>\\Elabftw\\Elabftw\\ItemsTypesView</title>
<polygon fill="none" stroke="black" points="435,-122 324,-122 324,-86 435,-86 435,-122"/>
<text text-anchor="middle" x="379.5" y="-101.2" font-family="Courier,monospace" font-size="11.00">ItemsTypesView</text>
</g>
<!-- \\Elabftw\\Elabftw\\ImportZip -->
<g id="node41" class="node"><title>\\Elabftw\\Elabftw\\ImportZip</title>
<polygon fill="none" stroke="black" points="418,-68 341,-68 341,-32 418,-32 418,-68"/>
<text text-anchor="middle" x="379.5" y="-47.2" font-family="Courier,monospace" font-size="11.00">ImportZip</text>
</g>
<!-- \\Elabftw\\Elabftw\\ImportZip&#45;&gt;\\Elabftw\\Elabftw\\Import -->
<g id="edge18" class="edge"><title>\\Elabftw\\Elabftw\\ImportZip&#45;&gt;\\Elabftw\\Elabftw\\Import</title>
<path fill="none" stroke="black" d="M340.983,-64.0251C331.958,-67.854 322.48,-72.266 314,-77 284.286,-93.5889 253.027,-116.474 230.938,-133.688"/>
<polygon fill="none" stroke="black" points="228.634,-131.047 222.943,-139.983 232.965,-136.547 228.634,-131.047"/>
</g>
</g>
</svg>
