<?xml version="1.0" encoding="UTF-8" standalone="no"?>
<!DOCTYPE svg PUBLIC "-//W3C//DTD SVG 1.1//EN"
 "http://www.w3.org/Graphics/SVG/1.1/DTD/svg11.dtd">
<!-- Generated by graphviz version 2.38.0 (20140413.2041)
 -->
<!-- Title: G Pages: 1 -->
<svg width="466pt" height="1896pt"
 viewBox="0.00 0.00 466.00 1896.00" xmlns="http://www.w3.org/2000/svg" xmlns:xlink="http://www.w3.org/1999/xlink">
<g id="graph0" class="graph" transform="scale(1 1) rotate(0) translate(4 1892)">
<title>G</title>
<polygon fill="white" stroke="none" points="-4,4 -4,-1892 462,-1892 462,4 -4,4"/>
<g id="clust1" class="cluster"><title>cluster_Global</title>
<path fill="none" stroke="gray" d="M20,-8C20,-8 438,-8 438,-8 444,-8 450,-14 450,-20 450,-20 450,-1868 450,-1868 450,-1874 444,-1880 438,-1880 438,-1880 20,-1880 20,-1880 14,-1880 8,-1874 8,-1868 8,-1868 8,-20 8,-20 8,-14 14,-8 20,-8"/>
<text text-anchor="middle" x="229" y="-1867.2" font-family="Times,serif" font-size="11.00" fill="gray">Global</text>
</g>
<g id="clust2" class="cluster"><title>cluster_\Elabftw</title>
<path fill="none" stroke="gray" d="M28,-16C28,-16 430,-16 430,-16 436,-16 442,-22 442,-28 442,-28 442,-1840 442,-1840 442,-1846 436,-1852 430,-1852 430,-1852 28,-1852 28,-1852 22,-1852 16,-1846 16,-1840 16,-1840 16,-28 16,-28 16,-22 22,-16 28,-16"/>
<text text-anchor="middle" x="229" y="-1839.2" font-family="Times,serif" font-size="11.00" fill="gray">Elabftw</text>
</g>
<g id="clust3" class="cluster"><title>cluster_\Elabftw\Elabftw</title>
<path fill="none" stroke="gray" d="M36,-24C36,-24 422,-24 422,-24 428,-24 434,-30 434,-36 434,-36 434,-1812 434,-1812 434,-1818 428,-1824 422,-1824 422,-1824 36,-1824 36,-1824 30,-1824 24,-1818 24,-1812 24,-1812 24,-36 24,-36 24,-30 30,-24 36,-24"/>
<text text-anchor="middle" x="229" y="-1811.2" font-family="Times,serif" font-size="11.00" fill="gray">Elabftw</text>
</g>
<!-- \\Elabftw\\Elabftw\\Database -->
<g id="node1" class="node"><title>\\Elabftw\\Elabftw\\Database</title>
<polygon fill="none" stroke="black" points="399,-392 334,-392 334,-356 399,-356 399,-392"/>
<text text-anchor="middle" x="366.5" y="-371.2" font-family="Courier,monospace" font-size="11.00">Database</text>
</g>
<!-- \\Elabftw\\Elabftw\\Entity -->
<g id="node13" class="node"><title>\\Elabftw\\Elabftw\\Entity</title>
<polygon fill="none" stroke="black" points="223.5,-500 169.5,-500 169.5,-464 223.5,-464 223.5,-500"/>
<text text-anchor="middle" x="196.5" y="-479.2" font-family="Courier,monospace" font-size="11.00">Entity</text>
</g>
<!-- \\Elabftw\\Elabftw\\Database&#45;&gt;\\Elabftw\\Elabftw\\Entity -->
<g id="edge1" class="edge"><title>\\Elabftw\\Elabftw\\Database&#45;&gt;\\Elabftw\\Elabftw\\Entity</title>
<path fill="none" stroke="black" d="M333.928,-387.142C325.029,-391.227 315.47,-395.984 307,-401 278.62,-417.806 248.659,-440.345 227.264,-457.38"/>
<polygon fill="none" stroke="black" points="224.822,-454.853 219.221,-463.847 229.208,-460.309 224.822,-454.853"/>
</g>
<!-- \\Elabftw\\Elabftw\\MolViewer -->
<g id="node2" class="node"><title>\\Elabftw\\Elabftw\\MolViewer</title>
<polygon fill="none" stroke="black" points="402,-1742 331,-1742 331,-1706 402,-1706 402,-1742"/>
<text text-anchor="middle" x="366.5" y="-1721.2" font-family="Courier,monospace" font-size="11.00">MolViewer</text>
</g>
<!-- \\Elabftw\\Elabftw\\Status -->
<g id="node3" class="node"><title>\\Elabftw\\Elabftw\\Status</title>
<polygon fill="none" stroke="black" points="223.5,-1769 169.5,-1769 169.5,-1733 223.5,-1733 223.5,-1769"/>
<text text-anchor="middle" x="196.5" y="-1748.2" font-family="Courier,monospace" font-size="11.00">Status</text>
</g>
<!-- \\Elabftw\\Elabftw\\Panel -->
<g id="node23" class="node"><title>\\Elabftw\\Elabftw\\Panel</title>
<polygon fill="none" stroke="black" points="86,-1418 32,-1418 32,-1382 86,-1382 86,-1418"/>
<text text-anchor="middle" x="59" y="-1397.2" font-family="Courier,monospace" font-size="11.00">Panel</text>
</g>
<!-- \\Elabftw\\Elabftw\\Status&#45;&gt;\\Elabftw\\Elabftw\\Panel -->
<g id="edge2" class="edge"><title>\\Elabftw\\Elabftw\\Status&#45;&gt;\\Elabftw\\Elabftw\\Panel</title>
<path fill="none" stroke="black" d="M169.278,-1735.58C165.061,-1732.19 161.078,-1728.31 158,-1724 90.6332,-1629.69 68.9005,-1488.39 62.4722,-1428.48"/>
<polygon fill="none" stroke="black" points="65.9284,-1427.87 61.4424,-1418.27 58.9637,-1428.57 65.9284,-1427.87"/>
</g>
<!-- \\Elabftw\\Elabftw\\Users -->
<g id="node4" class="node"><title>\\Elabftw\\Elabftw\\Users</title>
<polygon fill="none" stroke="black" points="393.5,-1796 339.5,-1796 339.5,-1760 393.5,-1760 393.5,-1796"/>
<text text-anchor="middle" x="366.5" y="-1775.2" font-family="Courier,monospace" font-size="11.00">Users</text>
</g>
<!-- \\Elabftw\\Elabftw\\Auth -->
<g id="node6" class="node"><title>\\Elabftw\\Elabftw\\Auth</title>
<polygon fill="none" stroke="black" points="223.5,-1715 169.5,-1715 169.5,-1679 223.5,-1679 223.5,-1715"/>
<text text-anchor="middle" x="196.5" y="-1694.2" font-family="Courier,monospace" font-size="11.00">Auth</text>
</g>
<!-- \\Elabftw\\Elabftw\\Users&#45;&gt;\\Elabftw\\Elabftw\\Auth -->
<g id="edge3" class="edge"><title>\\Elabftw\\Elabftw\\Users&#45;&gt;\\Elabftw\\Elabftw\\Auth</title>
<path fill="none" stroke="black" d="M339.224,-1766.05C329.122,-1761.41 317.499,-1756.01 307,-1751 282.005,-1739.07 253.998,-1725.25 232.567,-1714.58"/>
<polygon fill="none" stroke="black" points="234.026,-1711.4 223.515,-1710.06 230.901,-1717.66 234.026,-1711.4"/>
</g>
<!-- \\Elabftw\\Elabftw\\Links -->
<g id="node5" class="node"><title>\\Elabftw\\Elabftw\\Links</title>
<polygon fill="none" stroke="black" points="393.5,-1634 339.5,-1634 339.5,-1598 393.5,-1598 393.5,-1634"/>
<text text-anchor="middle" x="366.5" y="-1613.2" font-family="Courier,monospace" font-size="11.00">Links</text>
</g>
<!-- \\Elabftw\\Elabftw\\Comments -->
<g id="node7" class="node"><title>\\Elabftw\\Elabftw\\Comments</title>
<polygon fill="none" stroke="black" points="399,-662 334,-662 334,-626 399,-626 399,-662"/>
<text text-anchor="middle" x="366.5" y="-641.2" font-family="Courier,monospace" font-size="11.00">Comments</text>
</g>
<!-- \\Elabftw\\Elabftw\\Comments&#45;&gt;\\Elabftw\\Elabftw\\Entity -->
<g id="edge4" class="edge"><title>\\Elabftw\\Elabftw\\Comments&#45;&gt;\\Elabftw\\Elabftw\\Entity</title>
<path fill="none" stroke="black" d="M333.936,-632.596C324.751,-628.466 315.036,-623.248 307,-617 267.489,-586.28 233.215,-538.706 213.976,-509.007"/>
<polygon fill="none" stroke="black" points="216.821,-506.959 208.498,-500.403 210.916,-510.718 216.821,-506.959"/>
</g>
<!-- \\Elabftw\\Elabftw\\Teams -->
<g id="node8" class="node"><title>\\Elabftw\\Elabftw\\Teams</title>
<polygon fill="none" stroke="black" points="223.5,-1229 169.5,-1229 169.5,-1193 223.5,-1193 223.5,-1229"/>
<text text-anchor="middle" x="196.5" y="-1208.2" font-family="Courier,monospace" font-size="11.00">Teams</text>
</g>
<!-- \\Elabftw\\Elabftw\\Teams&#45;&gt;\\Elabftw\\Elabftw\\Panel -->
<g id="edge5" class="edge"><title>\\Elabftw\\Elabftw\\Teams&#45;&gt;\\Elabftw\\Elabftw\\Panel</title>
<path fill="none" stroke="black" d="M182.508,-1229.12C158.429,-1262.71 106.789,-1334.74 78.8606,-1373.69"/>
<polygon fill="none" stroke="black" points="75.9351,-1371.77 72.953,-1381.93 81.6241,-1375.84 75.9351,-1371.77"/>
</g>
<!-- \\Elabftw\\Elabftw\\Import -->
<g id="node9" class="node"><title>\\Elabftw\\Elabftw\\Import</title>
<polygon fill="none" stroke="black" points="235,-797 158,-797 158,-761 235,-761 235,-797"/>
<text text-anchor="start" x="166" y="-782.2" font-family="Courier,monospace" font-size="11.00">«abstract»</text>
<text text-anchor="start" x="178" y="-770.2" font-family="Courier,monospace" font-size="11.00">Import</text>
</g>
<!-- \\Elabftw\\Elabftw\\ExperimentsView -->
<g id="node10" class="node"><title>\\Elabftw\\Elabftw\\ExperimentsView</title>
<polygon fill="none" stroke="black" points="420,-1688 313,-1688 313,-1652 420,-1652 420,-1688"/>
<text text-anchor="middle" x="366.5" y="-1667.2" font-family="Courier,monospace" font-size="11.00">ExperimentsView</text>
</g>
<!-- \\Elabftw\\Elabftw\\EntityView -->
<g id="node44" class="node"><title>\\Elabftw\\Elabftw\\EntityView</title>
<polygon fill="none" stroke="black" points="235,-1553 158,-1553 158,-1517 235,-1517 235,-1553"/>
<text text-anchor="middle" x="196.5" y="-1532.2" font-family="Courier,monospace" font-size="11.00">EntityView</text>
</g>
<!-- \\Elabftw\\Elabftw\\ExperimentsView&#45;&gt;\\Elabftw\\Elabftw\\EntityView -->
<g id="edge6" class="edge"><title>\\Elabftw\\Elabftw\\ExperimentsView&#45;&gt;\\Elabftw\\Elabftw\\EntityView</title>
<path fill="none" stroke="black" d="M321.244,-1651.99C316.262,-1649.27 311.402,-1646.27 307,-1643 268.317,-1614.3 270.761,-1594.27 235,-1562 234.062,-1561.15 233.097,-1560.31 232.113,-1559.47"/>
<polygon fill="none" stroke="black" points="234.28,-1556.72 224.294,-1553.18 229.891,-1562.17 234.28,-1556.72"/>
</g>
<!-- \\Elabftw\\Elabftw\\Make -->
<g id="node11" class="node"><title>\\Elabftw\\Elabftw\\Make</title>
<polygon fill="none" stroke="black" points="235,-176 158,-176 158,-140 235,-140 235,-176"/>
<text text-anchor="start" x="166" y="-161.2" font-family="Courier,monospace" font-size="11.00">«abstract»</text>
<text text-anchor="start" x="184" y="-149.2" font-family="Courier,monospace" font-size="11.00">Make</text>
</g>
<!-- \\Elabftw\\Elabftw\\TeamGroupsView -->
<g id="node12" class="node"><title>\\Elabftw\\Elabftw\\TeamGroupsView</title>
<polygon fill="none" stroke="black" points="417,-1472 316,-1472 316,-1436 417,-1436 417,-1472"/>
<text text-anchor="middle" x="366.5" y="-1451.2" font-family="Courier,monospace" font-size="11.00">TeamGroupsView</text>
</g>
<!-- \\Elabftw\\Elabftw\\Templates -->
<g id="node14" class="node"><title>\\Elabftw\\Elabftw\\Templates</title>
<polygon fill="none" stroke="black" points="402,-1418 331,-1418 331,-1382 402,-1382 402,-1418"/>
<text text-anchor="middle" x="366.5" y="-1397.2" font-family="Courier,monospace" font-size="11.00">Templates</text>
</g>
<!-- \\Elabftw\\Elabftw\\TagCloud -->
<g id="node15" class="node"><title>\\Elabftw\\Elabftw\\TagCloud</title>
<polygon fill="none" stroke="black" points="399,-1364 334,-1364 334,-1328 399,-1328 399,-1364"/>
<text text-anchor="middle" x="366.5" y="-1343.2" font-family="Courier,monospace" font-size="11.00">TagCloud</text>
</g>
<!-- \\Elabftw\\Elabftw\\Revisions -->
<g id="node16" class="node"><title>\\Elabftw\\Elabftw\\Revisions</title>
<polygon fill="none" stroke="black" points="402,-1310 331,-1310 331,-1274 402,-1274 402,-1310"/>
<text text-anchor="middle" x="366.5" y="-1289.2" font-family="Courier,monospace" font-size="11.00">Revisions</text>
</g>
<!-- \\Elabftw\\Elabftw\\ItemsTypesView -->
<g id="node17" class="node"><title>\\Elabftw\\Elabftw\\ItemsTypesView</title>
<polygon fill="none" stroke="black" points="417,-1256 316,-1256 316,-1220 417,-1220 417,-1256"/>
<text text-anchor="middle" x="366.5" y="-1235.2" font-family="Courier,monospace" font-size="11.00">ItemsTypesView</text>
</g>
<!-- \\Elabftw\\Elabftw\\StatusView -->
<g id="node18" class="node"><title>\\Elabftw\\Elabftw\\StatusView</title>
<polygon fill="none" stroke="black" points="405,-1202 328,-1202 328,-1166 405,-1166 405,-1202"/>
<text text-anchor="middle" x="366.5" y="-1181.2" font-family="Courier,monospace" font-size="11.00">StatusView</text>
</g>
<!-- \\Elabftw\\Elabftw\\UploadsView -->
<g id="node19" class="node"><title>\\Elabftw\\Elabftw\\UploadsView</title>
<polygon fill="none" stroke="black" points="408,-1580 325,-1580 325,-1544 408,-1544 408,-1580"/>
<text text-anchor="middle" x="366.5" y="-1559.2" font-family="Courier,monospace" font-size="11.00">UploadsView</text>
</g>
<!-- \\Elabftw\\Elabftw\\UploadsView&#45;&gt;\\Elabftw\\Elabftw\\EntityView -->
<g id="edge7" class="edge"><title>\\Elabftw\\Elabftw\\UploadsView&#45;&gt;\\Elabftw\\Elabftw\\EntityView</title>
<path fill="none" stroke="black" d="M324.832,-1555.46C300.848,-1551.61 270.375,-1546.71 245.254,-1542.67"/>
<polygon fill="none" stroke="black" points="245.634,-1539.19 235.206,-1541.06 244.524,-1546.1 245.634,-1539.19"/>
</g>
<!-- \\Elabftw\\Elabftw\\SysconfigView -->
<g id="node20" class="node"><title>\\Elabftw\\Elabftw\\SysconfigView</title>
<polygon fill="none" stroke="black" points="414,-1094 319,-1094 319,-1058 414,-1058 414,-1094"/>
<text text-anchor="middle" x="366.5" y="-1073.2" font-family="Courier,monospace" font-size="11.00">SysconfigView</text>
</g>
<!-- \\Elabftw\\Elabftw\\UserStats -->
<g id="node21" class="node"><title>\\Elabftw\\Elabftw\\UserStats</title>
<polygon fill="none" stroke="black" points="402,-1040 331,-1040 331,-1004 402,-1004 402,-1040"/>
<text text-anchor="middle" x="366.5" y="-1019.2" font-family="Courier,monospace" font-size="11.00">UserStats</text>
</g>
<!-- \\Elabftw\\Elabftw\\Formkey -->
<g id="node22" class="node"><title>\\Elabftw\\Elabftw\\Formkey</title>
<polygon fill="none" stroke="black" points="396,-986 337,-986 337,-950 396,-950 396,-986"/>
<text text-anchor="middle" x="366.5" y="-965.2" font-family="Courier,monospace" font-size="11.00">Formkey</text>
</g>
<!-- \\Elabftw\\Elabftw\\ItemsTypes -->
<g id="node24" class="node"><title>\\Elabftw\\Elabftw\\ItemsTypes</title>
<polygon fill="none" stroke="black" points="235,-1607 158,-1607 158,-1571 235,-1571 235,-1607"/>
<text text-anchor="middle" x="196.5" y="-1586.2" font-family="Courier,monospace" font-size="11.00">ItemsTypes</text>
</g>
<!-- \\Elabftw\\Elabftw\\ItemsTypes&#45;&gt;\\Elabftw\\Elabftw\\Panel -->
<g id="edge8" class="edge"><title>\\Elabftw\\Elabftw\\ItemsTypes&#45;&gt;\\Elabftw\\Elabftw\\Panel</title>
<path fill="none" stroke="black" d="M167.403,-1570.73C164.057,-1568 160.829,-1565.07 158,-1562 119.648,-1520.45 88.5883,-1461.59 72.3377,-1427.45"/>
<polygon fill="none" stroke="black" points="75.3723,-1425.68 67.9654,-1418.1 69.0315,-1428.64 75.3723,-1425.68"/>
</g>
<!-- \\Elabftw\\Elabftw\\Tools -->
<g id="node25" class="node"><title>\\Elabftw\\Elabftw\\Tools</title>
<polygon fill="none" stroke="black" points="393.5,-932 339.5,-932 339.5,-896 393.5,-896 393.5,-932"/>
<text text-anchor="middle" x="366.5" y="-911.2" font-family="Courier,monospace" font-size="11.00">Tools</text>
</g>
<!-- \\Elabftw\\Elabftw\\Db -->
<g id="node26" class="node"><title>\\Elabftw\\Elabftw\\Db</title>
<polygon fill="none" stroke="black" points="393.5,-878 339.5,-878 339.5,-842 393.5,-842 393.5,-878"/>
<text text-anchor="middle" x="366.5" y="-857.2" font-family="Courier,monospace" font-size="11.00">Db</text>
</g>
<!-- \\Elabftw\\Elabftw\\TeamsView -->
<g id="node27" class="node"><title>\\Elabftw\\Elabftw\\TeamsView</title>
<polygon fill="none" stroke="black" points="402,-1148 331,-1148 331,-1112 402,-1112 402,-1148"/>
<text text-anchor="middle" x="366.5" y="-1127.2" font-family="Courier,monospace" font-size="11.00">TeamsView</text>
</g>
<!-- \\Elabftw\\Elabftw\\TeamsView&#45;&gt;\\Elabftw\\Elabftw\\Teams -->
<g id="edge9" class="edge"><title>\\Elabftw\\Elabftw\\TeamsView&#45;&gt;\\Elabftw\\Elabftw\\Teams</title>
<path fill="none" stroke="black" d="M330.785,-1145.84C322.945,-1149.47 314.672,-1153.34 307,-1157 282.005,-1168.93 253.998,-1182.75 232.567,-1193.42"/>
<polygon fill="none" stroke="black" points="230.901,-1190.34 223.515,-1197.94 234.026,-1196.6 230.901,-1190.34"/>
</g>
<!-- \\Elabftw\\Elabftw\\Experiments -->
<g id="node28" class="node"><title>\\Elabftw\\Elabftw\\Experiments</title>
<polygon fill="none" stroke="black" points="408,-284 325,-284 325,-248 408,-248 408,-284"/>
<text text-anchor="middle" x="366.5" y="-263.2" font-family="Courier,monospace" font-size="11.00">Experiments</text>
</g>
<!-- \\Elabftw\\Elabftw\\Experiments&#45;&gt;\\Elabftw\\Elabftw\\Entity -->
<g id="edge10" class="edge"><title>\\Elabftw\\Elabftw\\Experiments&#45;&gt;\\Elabftw\\Elabftw\\Entity</title>
<path fill="none" stroke="black" d="M324.766,-280.805C318.396,-284.208 312.209,-288.253 307,-293 256.356,-339.154 222.653,-414.31 207.206,-454.535"/>
<polygon fill="none" stroke="black" points="203.902,-453.378 203.672,-463.971 210.457,-455.833 203.902,-453.378"/>
</g>
<!-- \\Elabftw\\Elabftw\\ImportZip -->
<g id="node29" class="node"><title>\\Elabftw\\Elabftw\\ImportZip</title>
<polygon fill="none" stroke="black" points="402,-824 331,-824 331,-788 402,-788 402,-824"/>
<text text-anchor="middle" x="366.5" y="-803.2" font-family="Courier,monospace" font-size="11.00">ImportZip</text>
</g>
<!-- \\Elabftw\\Elabftw\\ImportZip&#45;&gt;\\Elabftw\\Elabftw\\Import -->
<g id="edge11" class="edge"><title>\\Elabftw\\Elabftw\\ImportZip&#45;&gt;\\Elabftw\\Elabftw\\Import</title>
<path fill="none" stroke="black" d="M330.69,-800.406C305.976,-796.434 272.49,-791.052 245.277,-786.678"/>
<polygon fill="none" stroke="black" points="245.615,-783.188 235.186,-785.057 244.504,-790.099 245.615,-783.188"/>
</g>
<!-- \\Elabftw\\Elabftw\\MakeCsv -->
<g id="node30" class="node"><title>\\Elabftw\\Elabftw\\MakeCsv</title>
<polygon fill="none" stroke="black" points="396,-230 337,-230 337,-194 396,-194 396,-230"/>
<text text-anchor="middle" x="366.5" y="-209.2" font-family="Courier,monospace" font-size="11.00">MakeCsv</text>
</g>
<!-- \\Elabftw\\Elabftw\\MakeCsv&#45;&gt;\\Elabftw\\Elabftw\\Make -->
<g id="edge12" class="edge"><title>\\Elabftw\\Elabftw\\MakeCsv&#45;&gt;\\Elabftw\\Elabftw\\Make</title>
<path fill="none" stroke="black" d="M336.62,-202.717C311.418,-194.616 274.364,-182.706 244.833,-173.214"/>
<polygon fill="none" stroke="black" points="245.726,-169.825 235.135,-170.097 243.584,-176.489 245.726,-169.825"/>
</g>
<!-- \\Elabftw\\Elabftw\\BannedUsers -->
<g id="node31" class="node"><title>\\Elabftw\\Elabftw\\BannedUsers</title>
<polygon fill="none" stroke="black" points="408,-608 325,-608 325,-572 408,-572 408,-608"/>
<text text-anchor="middle" x="366.5" y="-587.2" font-family="Courier,monospace" font-size="11.00">BannedUsers</text>
</g>
<!-- \\Elabftw\\Elabftw\\Uploads -->
<g id="node32" class="node"><title>\\Elabftw\\Elabftw\\Uploads</title>
<polygon fill="none" stroke="black" points="396,-500 337,-500 337,-464 396,-464 396,-500"/>
<text text-anchor="middle" x="366.5" y="-479.2" font-family="Courier,monospace" font-size="11.00">Uploads</text>
</g>
<!-- \\Elabftw\\Elabftw\\Uploads&#45;&gt;\\Elabftw\\Elabftw\\Entity -->
<g id="edge13" class="edge"><title>\\Elabftw\\Elabftw\\Uploads&#45;&gt;\\Elabftw\\Elabftw\\Entity</title>
<path fill="none" stroke="black" d="M336.62,-482C308.171,-482 264.619,-482 233.834,-482"/>
<polygon fill="none" stroke="black" points="233.523,-478.5 223.523,-482 233.523,-485.5 233.523,-478.5"/>
</g>
<!-- \\Elabftw\\Elabftw\\TeamGroups -->
<g id="node33" class="node"><title>\\Elabftw\\Elabftw\\TeamGroups</title>
<polygon fill="none" stroke="black" points="235,-1418 158,-1418 158,-1382 235,-1382 235,-1418"/>
<text text-anchor="middle" x="196.5" y="-1397.2" font-family="Courier,monospace" font-size="11.00">TeamGroups</text>
</g>
<!-- \\Elabftw\\Elabftw\\TeamGroups&#45;&gt;\\Elabftw\\Elabftw\\Panel -->
<g id="edge14" class="edge"><title>\\Elabftw\\Elabftw\\TeamGroups&#45;&gt;\\Elabftw\\Elabftw\\Panel</title>
<path fill="none" stroke="black" d="M157.756,-1400C138.595,-1400 115.421,-1400 96.4468,-1400"/>
<polygon fill="none" stroke="black" points="96.3896,-1396.5 86.3895,-1400 96.3895,-1403.5 96.3896,-1396.5"/>
</g>
<!-- \\Elabftw\\Elabftw\\MakeZip -->
<g id="node34" class="node"><title>\\Elabftw\\Elabftw\\MakeZip</title>
<polygon fill="none" stroke="black" points="396,-68 337,-68 337,-32 396,-32 396,-68"/>
<text text-anchor="middle" x="366.5" y="-47.2" font-family="Courier,monospace" font-size="11.00">MakeZip</text>
</g>
<!-- \\Elabftw\\Elabftw\\MakeZip&#45;&gt;\\Elabftw\\Elabftw\\Make -->
<g id="edge15" class="edge"><title>\\Elabftw\\Elabftw\\MakeZip&#45;&gt;\\Elabftw\\Elabftw\\Make</title>
<path fill="none" stroke="black" d="M336.913,-61.7406C327.193,-66.1101 316.414,-71.3832 307,-77 272.65,-97.4952 267.232,-107.313 235,-131 233.788,-131.891 232.552,-132.796 231.303,-133.708"/>
<polygon fill="none" stroke="black" points="228.998,-131.057 222.965,-139.767 233.112,-136.72 228.998,-131.057"/>
</g>
<!-- \\Elabftw\\Elabftw\\DatabaseView -->
<g id="node35" class="node"><title>\\Elabftw\\Elabftw\\DatabaseView</title>
<polygon fill="none" stroke="black" points="411,-1526 322,-1526 322,-1490 411,-1490 411,-1526"/>
<text text-anchor="middle" x="366.5" y="-1505.2" font-family="Courier,monospace" font-size="11.00">DatabaseView</text>
</g>
<!-- \\Elabftw\\Elabftw\\DatabaseView&#45;&gt;\\Elabftw\\Elabftw\\EntityView -->
<g id="edge16" class="edge"><title>\\Elabftw\\Elabftw\\DatabaseView&#45;&gt;\\Elabftw\\Elabftw\\EntityView</title>
<path fill="none" stroke="black" d="M321.799,-1515.02C298.319,-1518.8 269.335,-1523.46 245.263,-1527.32"/>
<polygon fill="none" stroke="black" points="244.596,-1523.89 235.278,-1528.93 245.706,-1530.8 244.596,-1523.89"/>
</g>
<!-- \\Elabftw\\Elabftw\\ImportCsv -->
<g id="node36" class="node"><title>\\Elabftw\\Elabftw\\ImportCsv</title>
<polygon fill="none" stroke="black" points="402,-770 331,-770 331,-734 402,-734 402,-770"/>
<text text-anchor="middle" x="366.5" y="-749.2" font-family="Courier,monospace" font-size="11.00">ImportCsv</text>
</g>
<!-- \\Elabftw\\Elabftw\\ImportCsv&#45;&gt;\\Elabftw\\Elabftw\\Import -->
<g id="edge17" class="edge"><title>\\Elabftw\\Elabftw\\ImportCsv&#45;&gt;\\Elabftw\\Elabftw\\Import</title>
<path fill="none" stroke="black" d="M330.69,-757.594C305.976,-761.566 272.49,-766.948 245.277,-771.322"/>
<polygon fill="none" stroke="black" points="244.504,-767.901 235.186,-772.943 245.615,-774.812 244.504,-767.901"/>
</g>
<!-- \\Elabftw\\Elabftw\\Sysconfig -->
<g id="node37" class="node"><title>\\Elabftw\\Elabftw\\Sysconfig</title>
<polygon fill="none" stroke="black" points="402,-338 331,-338 331,-302 402,-302 402,-338"/>
<text text-anchor="middle" x="366.5" y="-317.2" font-family="Courier,monospace" font-size="11.00">Sysconfig</text>
</g>
<!-- \\Elabftw\\Elabftw\\Tags -->
<g id="node38" class="node"><title>\\Elabftw\\Elabftw\\Tags</title>
<polygon fill="none" stroke="black" points="393.5,-446 339.5,-446 339.5,-410 393.5,-410 393.5,-446"/>
<text text-anchor="middle" x="366.5" y="-425.2" font-family="Courier,monospace" font-size="11.00">Tags</text>
</g>
<!-- \\Elabftw\\Elabftw\\Tags&#45;&gt;\\Elabftw\\Elabftw\\Entity -->
<g id="edge18" class="edge"><title>\\Elabftw\\Elabftw\\Tags&#45;&gt;\\Elabftw\\Elabftw\\Entity</title>
<path fill="none" stroke="black" d="M339.25,-436.438C310.771,-445.592 265.126,-460.263 233.354,-470.475"/>
<polygon fill="none" stroke="black" points="232.015,-467.229 223.566,-473.622 234.157,-473.894 232.015,-467.229"/>
</g>
<!-- \\Elabftw\\Elabftw\\MakePdf -->
<g id="node39" class="node"><title>\\Elabftw\\Elabftw\\MakePdf</title>
<polygon fill="none" stroke="black" points="396,-122 337,-122 337,-86 396,-86 396,-122"/>
<text text-anchor="middle" x="366.5" y="-101.2" font-family="Courier,monospace" font-size="11.00">MakePdf</text>
</g>
<!-- \\Elabftw\\Elabftw\\MakePdf&#45;&gt;\\Elabftw\\Elabftw\\Make -->
<g id="edge19" class="edge"><title>\\Elabftw\\Elabftw\\MakePdf&#45;&gt;\\Elabftw\\Elabftw\\Make</title>
<path fill="none" stroke="black" d="M336.62,-113.283C311.418,-121.384 274.364,-133.294 244.833,-142.786"/>
<polygon fill="none" stroke="black" points="243.584,-139.511 235.135,-145.903 245.726,-146.175 243.584,-139.511"/>
</g>
<!-- \\Elabftw\\Elabftw\\Update -->
<g id="node40" class="node"><title>\\Elabftw\\Elabftw\\Update</title>
<polygon fill="none" stroke="black" points="393.5,-176 339.5,-176 339.5,-140 393.5,-140 393.5,-176"/>
<text text-anchor="middle" x="366.5" y="-155.2" font-family="Courier,monospace" font-size="11.00">Update</text>
</g>
<!-- \\Elabftw\\Elabftw\\TrustedTimestamps -->
<g id="node41" class="node"><title>\\Elabftw\\Elabftw\\TrustedTimestamps</title>
<polygon fill="none" stroke="black" points="426,-716 307,-716 307,-680 426,-680 426,-716"/>
<text text-anchor="middle" x="366.5" y="-695.2" font-family="Courier,monospace" font-size="11.00">TrustedTimestamps</text>
</g>
<!-- \\Elabftw\\Elabftw\\TrustedTimestamps&#45;&gt;\\Elabftw\\Elabftw\\Entity -->
<g id="edge20" class="edge"><title>\\Elabftw\\Elabftw\\TrustedTimestamps&#45;&gt;\\Elabftw\\Elabftw\\Entity</title>
<path fill="none" stroke="black" d="M319.075,-679.939C314.753,-677.288 310.638,-674.315 307,-671 256.356,-624.846 222.653,-549.69 207.206,-509.465"/>
<polygon fill="none" stroke="black" points="210.457,-508.167 203.672,-500.029 203.902,-510.622 210.457,-508.167"/>
</g>
<!-- \\Elabftw\\Elabftw\\Scheduler -->
<g id="node42" class="node"><title>\\Elabftw\\Elabftw\\Scheduler</title>
<polygon fill="none" stroke="black" points="402,-554 331,-554 331,-518 402,-518 402,-554"/>
<text text-anchor="middle" x="366.5" y="-533.2" font-family="Courier,monospace" font-size="11.00">Scheduler</text>
</g>
<!-- \\Elabftw\\Elabftw\\Scheduler&#45;&gt;\\Elabftw\\Elabftw\\Entity -->
<g id="edge21" class="edge"><title>\\Elabftw\\Elabftw\\Scheduler&#45;&gt;\\Elabftw\\Elabftw\\Entity</title>
<path fill="none" stroke="black" d="M330.69,-524.811C302.233,-515.664 262.147,-502.779 233.398,-493.539"/>
<polygon fill="none" stroke="black" points="234.331,-490.162 223.74,-490.434 232.189,-496.827 234.331,-490.162"/>
</g>
<!-- \\Elabftw\\Elabftw\\Logs -->
<g id="node43" class="node"><title>\\Elabftw\\Elabftw\\Logs</title>
<polygon fill="none" stroke="black" points="223.5,-122 169.5,-122 169.5,-86 223.5,-86 223.5,-122"/>
<text text-anchor="middle" x="196.5" y="-101.2" font-family="Courier,monospace" font-size="11.00">Logs</text>
</g>
<!-- \\Elabftw\\Elabftw\\Logs&#45;&gt;\\Elabftw\\Elabftw\\Panel -->
<g id="edge22" class="edge"><title>\\Elabftw\\Elabftw\\Logs&#45;&gt;\\Elabftw\\Elabftw\\Panel</title>
<path fill="none" stroke="black" d="M169.235,-118.294C164.801,-121.867 160.751,-126.104 158,-131 95.1816,-242.799 65.7068,-1195.31 60.7582,-1371.9"/>
<polygon fill="none" stroke="black" points="57.258,-1371.86 60.4795,-1381.95 64.2553,-1372.05 57.258,-1371.86"/>
</g>
</g>
</svg>
