<?xml version="1.0" encoding="UTF-8" standalone="no"?>
<!DOCTYPE svg PUBLIC "-//W3C//DTD SVG 1.1//EN"
 "http://www.w3.org/Graphics/SVG/1.1/DTD/svg11.dtd">
<!-- Generated by graphviz version 2.38.0 (20140413.2041)
 -->
<!-- Title: G Pages: 1 -->
<svg width="466pt" height="1842pt"
 viewBox="0.00 0.00 466.00 1842.00" xmlns="http://www.w3.org/2000/svg" xmlns:xlink="http://www.w3.org/1999/xlink">
<g id="graph0" class="graph" transform="scale(1 1) rotate(0) translate(4 1838)">
<title>G</title>
<polygon fill="white" stroke="none" points="-4,4 -4,-1838 462,-1838 462,4 -4,4"/>
<g id="clust1" class="cluster"><title>cluster_Global</title>
<path fill="none" stroke="gray" d="M20,-8C20,-8 438,-8 438,-8 444,-8 450,-14 450,-20 450,-20 450,-1814 450,-1814 450,-1820 444,-1826 438,-1826 438,-1826 20,-1826 20,-1826 14,-1826 8,-1820 8,-1814 8,-1814 8,-20 8,-20 8,-14 14,-8 20,-8"/>
<text text-anchor="middle" x="229" y="-1813.2" font-family="Times,serif" font-size="11.00" fill="gray">Global</text>
</g>
<g id="clust2" class="cluster"><title>cluster_\Elabftw</title>
<path fill="none" stroke="gray" d="M28,-16C28,-16 430,-16 430,-16 436,-16 442,-22 442,-28 442,-28 442,-1786 442,-1786 442,-1792 436,-1798 430,-1798 430,-1798 28,-1798 28,-1798 22,-1798 16,-1792 16,-1786 16,-1786 16,-28 16,-28 16,-22 22,-16 28,-16"/>
<text text-anchor="middle" x="229" y="-1785.2" font-family="Times,serif" font-size="11.00" fill="gray">Elabftw</text>
</g>
<g id="clust3" class="cluster"><title>cluster_\Elabftw\Elabftw</title>
<path fill="none" stroke="gray" d="M36,-24C36,-24 422,-24 422,-24 428,-24 434,-30 434,-36 434,-36 434,-1758 434,-1758 434,-1764 428,-1770 422,-1770 422,-1770 36,-1770 36,-1770 30,-1770 24,-1764 24,-1758 24,-1758 24,-36 24,-36 24,-30 30,-24 36,-24"/>
<text text-anchor="middle" x="229" y="-1757.2" font-family="Times,serif" font-size="11.00" fill="gray">Elabftw</text>
</g>
<!-- \\Elabftw\\Elabftw\\Database -->
<g id="node1" class="node"><title>\\Elabftw\\Elabftw\\Database</title>
<polygon fill="none" stroke="black" points="399,-608 334,-608 334,-572 399,-572 399,-608"/>
<text text-anchor="middle" x="366.5" y="-587.2" font-family="Courier,monospace" font-size="11.00">Database</text>
</g>
<!-- \\Elabftw\\Elabftw\\Entity -->
<g id="node14" class="node"><title>\\Elabftw\\Elabftw\\Entity</title>
<polygon fill="none" stroke="black" points="223.5,-635 169.5,-635 169.5,-599 223.5,-599 223.5,-635"/>
<text text-anchor="middle" x="196.5" y="-614.2" font-family="Courier,monospace" font-size="11.00">Entity</text>
</g>
<!-- \\Elabftw\\Elabftw\\Database&#45;&gt;\\Elabftw\\Elabftw\\Entity -->
<g id="edge1" class="edge"><title>\\Elabftw\\Elabftw\\Database&#45;&gt;\\Elabftw\\Elabftw\\Entity</title>
<path fill="none" stroke="black" d="M333.9,-595.078C305.417,-599.656 263.55,-606.385 233.723,-611.178"/>
<polygon fill="none" stroke="black" points="233.035,-607.744 223.717,-612.787 234.146,-614.655 233.035,-607.744"/>
</g>
<!-- \\Elabftw\\Elabftw\\MolViewer -->
<g id="node2" class="node"><title>\\Elabftw\\Elabftw\\MolViewer</title>
<polygon fill="none" stroke="black" points="402,-1688 331,-1688 331,-1652 402,-1652 402,-1688"/>
<text text-anchor="middle" x="366.5" y="-1667.2" font-family="Courier,monospace" font-size="11.00">MolViewer</text>
</g>
<!-- \\Elabftw\\Elabftw\\Status -->
<g id="node3" class="node"><title>\\Elabftw\\Elabftw\\Status</title>
<polygon fill="none" stroke="black" points="223.5,-1688 169.5,-1688 169.5,-1652 223.5,-1652 223.5,-1688"/>
<text text-anchor="middle" x="196.5" y="-1667.2" font-family="Courier,monospace" font-size="11.00">Status</text>
</g>
<!-- \\Elabftw\\Elabftw\\Panel -->
<g id="node23" class="node"><title>\\Elabftw\\Elabftw\\Panel</title>
<polygon fill="none" stroke="black" points="86,-1310 32,-1310 32,-1274 86,-1274 86,-1310"/>
<text text-anchor="middle" x="59" y="-1289.2" font-family="Courier,monospace" font-size="11.00">Panel</text>
</g>
<!-- \\Elabftw\\Elabftw\\Status&#45;&gt;\\Elabftw\\Elabftw\\Panel -->
<g id="edge2" class="edge"><title>\\Elabftw\\Elabftw\\Status&#45;&gt;\\Elabftw\\Elabftw\\Panel</title>
<path fill="none" stroke="black" d="M169.201,-1654.63C164.992,-1651.24 161.031,-1647.34 158,-1643 85.5853,-1539.28 66.5062,-1383.48 61.6227,-1320.21"/>
<polygon fill="none" stroke="black" points="65.1105,-1319.91 60.91,-1310.18 58.1281,-1320.41 65.1105,-1319.91"/>
</g>
<!-- \\Elabftw\\Elabftw\\Users -->
<g id="node4" class="node"><title>\\Elabftw\\Elabftw\\Users</title>
<polygon fill="none" stroke="black" points="393.5,-1742 339.5,-1742 339.5,-1706 393.5,-1706 393.5,-1742"/>
<text text-anchor="middle" x="366.5" y="-1721.2" font-family="Courier,monospace" font-size="11.00">Users</text>
</g>
<!-- \\Elabftw\\Elabftw\\Auth -->
<g id="node7" class="node"><title>\\Elabftw\\Elabftw\\Auth</title>
<polygon fill="none" stroke="black" points="223.5,-1634 169.5,-1634 169.5,-1598 223.5,-1598 223.5,-1634"/>
<text text-anchor="middle" x="196.5" y="-1613.2" font-family="Courier,monospace" font-size="11.00">Auth</text>
</g>
<!-- \\Elabftw\\Elabftw\\Users&#45;&gt;\\Elabftw\\Elabftw\\Auth -->
<g id="edge3" class="edge"><title>\\Elabftw\\Elabftw\\Users&#45;&gt;\\Elabftw\\Elabftw\\Auth</title>
<path fill="none" stroke="black" d="M339.271,-1713.31C328.962,-1708.75 317.182,-1703.08 307,-1697 272.65,-1676.5 267.232,-1666.69 235,-1643 233.788,-1642.11 232.552,-1641.2 231.303,-1640.29"/>
<polygon fill="none" stroke="black" points="233.112,-1637.28 222.965,-1634.23 228.998,-1642.94 233.112,-1637.28"/>
</g>
<!-- \\Elabftw\\Elabftw\\LegacyCrypto -->
<g id="node5" class="node"><title>\\Elabftw\\Elabftw\\LegacyCrypto</title>
<polygon fill="none" stroke="black" points="411,-1580 322,-1580 322,-1544 411,-1544 411,-1580"/>
<text text-anchor="middle" x="366.5" y="-1559.2" font-family="Courier,monospace" font-size="11.00">LegacyCrypto</text>
</g>
<!-- \\Elabftw\\Elabftw\\Links -->
<g id="node6" class="node"><title>\\Elabftw\\Elabftw\\Links</title>
<polygon fill="none" stroke="black" points="393.5,-1526 339.5,-1526 339.5,-1490 393.5,-1490 393.5,-1526"/>
<text text-anchor="middle" x="366.5" y="-1505.2" font-family="Courier,monospace" font-size="11.00">Links</text>
</g>
<!-- \\Elabftw\\Elabftw\\Comments -->
<g id="node8" class="node"><title>\\Elabftw\\Elabftw\\Comments</title>
<polygon fill="none" stroke="black" points="399,-770 334,-770 334,-734 399,-734 399,-770"/>
<text text-anchor="middle" x="366.5" y="-749.2" font-family="Courier,monospace" font-size="11.00">Comments</text>
</g>
<!-- \\Elabftw\\Elabftw\\Comments&#45;&gt;\\Elabftw\\Elabftw\\Entity -->
<g id="edge4" class="edge"><title>\\Elabftw\\Elabftw\\Comments&#45;&gt;\\Elabftw\\Elabftw\\Entity</title>
<path fill="none" stroke="black" d="M333.746,-739.754C324.75,-735.656 315.186,-730.666 307,-725 272.827,-701.347 239.73,-666.532 219.033,-642.872"/>
<polygon fill="none" stroke="black" points="221.43,-640.292 212.248,-635.005 216.129,-644.863 221.43,-640.292"/>
</g>
<!-- \\Elabftw\\Elabftw\\Teams -->
<g id="node9" class="node"><title>\\Elabftw\\Elabftw\\Teams</title>
<polygon fill="none" stroke="black" points="223.5,-1121 169.5,-1121 169.5,-1085 223.5,-1085 223.5,-1121"/>
<text text-anchor="middle" x="196.5" y="-1100.2" font-family="Courier,monospace" font-size="11.00">Teams</text>
</g>
<!-- \\Elabftw\\Elabftw\\Teams&#45;&gt;\\Elabftw\\Elabftw\\Panel -->
<g id="edge5" class="edge"><title>\\Elabftw\\Elabftw\\Teams&#45;&gt;\\Elabftw\\Elabftw\\Panel</title>
<path fill="none" stroke="black" d="M182.508,-1121.12C158.429,-1154.71 106.789,-1226.74 78.8606,-1265.69"/>
<polygon fill="none" stroke="black" points="75.9351,-1263.77 72.953,-1273.93 81.6241,-1267.84 75.9351,-1263.77"/>
</g>
<!-- \\Elabftw\\Elabftw\\Import -->
<g id="node10" class="node"><title>\\Elabftw\\Elabftw\\Import</title>
<polygon fill="none" stroke="black" points="235,-365 158,-365 158,-329 235,-329 235,-365"/>
<text text-anchor="start" x="166" y="-350.2" font-family="Courier,monospace" font-size="11.00">«abstract»</text>
<text text-anchor="start" x="178" y="-338.2" font-family="Courier,monospace" font-size="11.00">Import</text>
</g>
<!-- \\Elabftw\\Elabftw\\ExperimentsView -->
<g id="node11" class="node"><title>\\Elabftw\\Elabftw\\ExperimentsView</title>
<polygon fill="none" stroke="black" points="420,-1418 313,-1418 313,-1382 420,-1382 420,-1418"/>
<text text-anchor="middle" x="366.5" y="-1397.2" font-family="Courier,monospace" font-size="11.00">ExperimentsView</text>
</g>
<!-- \\Elabftw\\Elabftw\\EntityView -->
<g id="node43" class="node"><title>\\Elabftw\\Elabftw\\EntityView</title>
<polygon fill="none" stroke="black" points="235,-1445 158,-1445 158,-1409 235,-1409 235,-1445"/>
<text text-anchor="middle" x="196.5" y="-1424.2" font-family="Courier,monospace" font-size="11.00">EntityView</text>
</g>
<!-- \\Elabftw\\Elabftw\\ExperimentsView&#45;&gt;\\Elabftw\\Elabftw\\EntityView -->
<g id="edge6" class="edge"><title>\\Elabftw\\Elabftw\\ExperimentsView&#45;&gt;\\Elabftw\\Elabftw\\EntityView</title>
<path fill="none" stroke="black" d="M312.805,-1408.47C291.138,-1411.95 266.229,-1415.95 245.12,-1419.35"/>
<polygon fill="none" stroke="black" points="244.411,-1415.92 235.093,-1420.96 245.522,-1422.83 244.411,-1415.92"/>
</g>
<!-- \\Elabftw\\Elabftw\\Make -->
<g id="node12" class="node"><title>\\Elabftw\\Elabftw\\Make</title>
<polygon fill="none" stroke="black" points="235,-203 158,-203 158,-167 235,-167 235,-203"/>
<text text-anchor="start" x="166" y="-188.2" font-family="Courier,monospace" font-size="11.00">«abstract»</text>
<text text-anchor="start" x="184" y="-176.2" font-family="Courier,monospace" font-size="11.00">Make</text>
</g>
<!-- \\Elabftw\\Elabftw\\TeamGroupsView -->
<g id="node13" class="node"><title>\\Elabftw\\Elabftw\\TeamGroupsView</title>
<polygon fill="none" stroke="black" points="417,-1364 316,-1364 316,-1328 417,-1328 417,-1364"/>
<text text-anchor="middle" x="366.5" y="-1343.2" font-family="Courier,monospace" font-size="11.00">TeamGroupsView</text>
</g>
<!-- \\Elabftw\\Elabftw\\Templates -->
<g id="node15" class="node"><title>\\Elabftw\\Elabftw\\Templates</title>
<polygon fill="none" stroke="black" points="402,-1310 331,-1310 331,-1274 402,-1274 402,-1310"/>
<text text-anchor="middle" x="366.5" y="-1289.2" font-family="Courier,monospace" font-size="11.00">Templates</text>
</g>
<!-- \\Elabftw\\Elabftw\\Revisions -->
<g id="node16" class="node"><title>\\Elabftw\\Elabftw\\Revisions</title>
<polygon fill="none" stroke="black" points="402,-1256 331,-1256 331,-1220 402,-1220 402,-1256"/>
<text text-anchor="middle" x="366.5" y="-1235.2" font-family="Courier,monospace" font-size="11.00">Revisions</text>
</g>
<!-- \\Elabftw\\Elabftw\\CryptoWrapper -->
<g id="node17" class="node"><title>\\Elabftw\\Elabftw\\CryptoWrapper</title>
<polygon fill="none" stroke="black" points="414,-1202 319,-1202 319,-1166 414,-1166 414,-1202"/>
<text text-anchor="middle" x="366.5" y="-1181.2" font-family="Courier,monospace" font-size="11.00">CryptoWrapper</text>
</g>
<!-- \\Elabftw\\Elabftw\\ItemsTypesView -->
<g id="node18" class="node"><title>\\Elabftw\\Elabftw\\ItemsTypesView</title>
<polygon fill="none" stroke="black" points="417,-1148 316,-1148 316,-1112 417,-1112 417,-1148"/>
<text text-anchor="middle" x="366.5" y="-1127.2" font-family="Courier,monospace" font-size="11.00">ItemsTypesView</text>
</g>
<!-- \\Elabftw\\Elabftw\\StatusView -->
<g id="node19" class="node"><title>\\Elabftw\\Elabftw\\StatusView</title>
<polygon fill="none" stroke="black" points="405,-1094 328,-1094 328,-1058 405,-1058 405,-1094"/>
<text text-anchor="middle" x="366.5" y="-1073.2" font-family="Courier,monospace" font-size="11.00">StatusView</text>
</g>
<!-- \\Elabftw\\Elabftw\\UploadsView -->
<g id="node20" class="node"><title>\\Elabftw\\Elabftw\\UploadsView</title>
<polygon fill="none" stroke="black" points="408,-1634 325,-1634 325,-1598 408,-1598 408,-1634"/>
<text text-anchor="middle" x="366.5" y="-1613.2" font-family="Courier,monospace" font-size="11.00">UploadsView</text>
</g>
<!-- \\Elabftw\\Elabftw\\UploadsView&#45;&gt;\\Elabftw\\Elabftw\\EntityView -->
<g id="edge7" class="edge"><title>\\Elabftw\\Elabftw\\UploadsView&#45;&gt;\\Elabftw\\Elabftw\\EntityView</title>
<path fill="none" stroke="black" d="M324.925,-1601.51C318.465,-1598.06 312.206,-1593.91 307,-1589 257.553,-1542.32 279.755,-1505.2 235,-1454 234.399,-1453.31 233.778,-1452.63 233.139,-1451.96"/>
<polygon fill="none" stroke="black" points="235.472,-1449.35 225.756,-1445.13 230.716,-1454.49 235.472,-1449.35"/>
</g>
<!-- \\Elabftw\\Elabftw\\SysconfigView -->
<g id="node21" class="node"><title>\\Elabftw\\Elabftw\\SysconfigView</title>
<polygon fill="none" stroke="black" points="414,-986 319,-986 319,-950 414,-950 414,-986"/>
<text text-anchor="middle" x="366.5" y="-965.2" font-family="Courier,monospace" font-size="11.00">SysconfigView</text>
</g>
<!-- \\Elabftw\\Elabftw\\Formkey -->
<g id="node22" class="node"><title>\\Elabftw\\Elabftw\\Formkey</title>
<polygon fill="none" stroke="black" points="396,-932 337,-932 337,-896 396,-896 396,-932"/>
<text text-anchor="middle" x="366.5" y="-911.2" font-family="Courier,monospace" font-size="11.00">Formkey</text>
</g>
<!-- \\Elabftw\\Elabftw\\ItemsTypes -->
<g id="node24" class="node"><title>\\Elabftw\\Elabftw\\ItemsTypes</title>
<polygon fill="none" stroke="black" points="235,-1499 158,-1499 158,-1463 235,-1463 235,-1499"/>
<text text-anchor="middle" x="196.5" y="-1478.2" font-family="Courier,monospace" font-size="11.00">ItemsTypes</text>
</g>
<!-- \\Elabftw\\Elabftw\\ItemsTypes&#45;&gt;\\Elabftw\\Elabftw\\Panel -->
<g id="edge8" class="edge"><title>\\Elabftw\\Elabftw\\ItemsTypes&#45;&gt;\\Elabftw\\Elabftw\\Panel</title>
<path fill="none" stroke="black" d="M167.403,-1462.73C164.057,-1460 160.829,-1457.07 158,-1454 119.648,-1412.45 88.5883,-1353.59 72.3377,-1319.45"/>
<polygon fill="none" stroke="black" points="75.3723,-1317.68 67.9654,-1310.1 69.0315,-1320.64 75.3723,-1317.68"/>
</g>
<!-- \\Elabftw\\Elabftw\\Tools -->
<g id="node25" class="node"><title>\\Elabftw\\Elabftw\\Tools</title>
<polygon fill="none" stroke="black" points="393.5,-878 339.5,-878 339.5,-842 393.5,-842 393.5,-878"/>
<text text-anchor="middle" x="366.5" y="-857.2" font-family="Courier,monospace" font-size="11.00">Tools</text>
</g>
<!-- \\Elabftw\\Elabftw\\Db -->
<g id="node26" class="node"><title>\\Elabftw\\Elabftw\\Db</title>
<polygon fill="none" stroke="black" points="393.5,-824 339.5,-824 339.5,-788 393.5,-788 393.5,-824"/>
<text text-anchor="middle" x="366.5" y="-803.2" font-family="Courier,monospace" font-size="11.00">Db</text>
</g>
<!-- \\Elabftw\\Elabftw\\TeamsView -->
<g id="node27" class="node"><title>\\Elabftw\\Elabftw\\TeamsView</title>
<polygon fill="none" stroke="black" points="402,-1040 331,-1040 331,-1004 402,-1004 402,-1040"/>
<text text-anchor="middle" x="366.5" y="-1019.2" font-family="Courier,monospace" font-size="11.00">TeamsView</text>
</g>
<!-- \\Elabftw\\Elabftw\\TeamsView&#45;&gt;\\Elabftw\\Elabftw\\Teams -->
<g id="edge9" class="edge"><title>\\Elabftw\\Elabftw\\TeamsView&#45;&gt;\\Elabftw\\Elabftw\\Teams</title>
<path fill="none" stroke="black" d="M330.785,-1037.84C322.945,-1041.47 314.672,-1045.34 307,-1049 282.005,-1060.93 253.998,-1074.75 232.567,-1085.42"/>
<polygon fill="none" stroke="black" points="230.901,-1082.34 223.515,-1089.94 234.026,-1088.6 230.901,-1082.34"/>
</g>
<!-- \\Elabftw\\Elabftw\\Experiments -->
<g id="node28" class="node"><title>\\Elabftw\\Elabftw\\Experiments</title>
<polygon fill="none" stroke="black" points="408,-500 325,-500 325,-464 408,-464 408,-500"/>
<text text-anchor="middle" x="366.5" y="-479.2" font-family="Courier,monospace" font-size="11.00">Experiments</text>
</g>
<!-- \\Elabftw\\Elabftw\\Experiments&#45;&gt;\\Elabftw\\Elabftw\\Entity -->
<g id="edge10" class="edge"><title>\\Elabftw\\Elabftw\\Experiments&#45;&gt;\\Elabftw\\Elabftw\\Entity</title>
<path fill="none" stroke="black" d="M324.839,-498.529C318.664,-501.668 312.518,-505.18 307,-509 272.827,-532.653 239.73,-567.468 219.033,-591.128"/>
<polygon fill="none" stroke="black" points="216.129,-589.137 212.248,-598.995 221.43,-593.708 216.129,-589.137"/>
</g>
<!-- \\Elabftw\\Elabftw\\ImportZip -->
<g id="node29" class="node"><title>\\Elabftw\\Elabftw\\ImportZip</title>
<polygon fill="none" stroke="black" points="402,-392 331,-392 331,-356 402,-356 402,-392"/>
<text text-anchor="middle" x="366.5" y="-371.2" font-family="Courier,monospace" font-size="11.00">ImportZip</text>
</g>
<!-- \\Elabftw\\Elabftw\\ImportZip&#45;&gt;\\Elabftw\\Elabftw\\Import -->
<g id="edge11" class="edge"><title>\\Elabftw\\Elabftw\\ImportZip&#45;&gt;\\Elabftw\\Elabftw\\Import</title>
<path fill="none" stroke="black" d="M330.69,-368.406C305.976,-364.434 272.49,-359.052 245.277,-354.678"/>
<polygon fill="none" stroke="black" points="245.615,-351.188 235.186,-353.057 244.504,-358.099 245.615,-351.188"/>
</g>
<!-- \\Elabftw\\Elabftw\\MakeCsv -->
<g id="node30" class="node"><title>\\Elabftw\\Elabftw\\MakeCsv</title>
<polygon fill="none" stroke="black" points="396,-230 337,-230 337,-194 396,-194 396,-230"/>
<text text-anchor="middle" x="366.5" y="-209.2" font-family="Courier,monospace" font-size="11.00">MakeCsv</text>
</g>
<!-- \\Elabftw\\Elabftw\\MakeCsv&#45;&gt;\\Elabftw\\Elabftw\\Make -->
<g id="edge12" class="edge"><title>\\Elabftw\\Elabftw\\MakeCsv&#45;&gt;\\Elabftw\\Elabftw\\Make</title>
<path fill="none" stroke="black" d="M336.62,-207.359C311.527,-203.326 274.686,-197.405 245.219,-192.669"/>
<polygon fill="none" stroke="black" points="245.563,-189.18 235.135,-191.048 244.453,-196.091 245.563,-189.18"/>
</g>
<!-- \\Elabftw\\Elabftw\\BannedUsers -->
<g id="node31" class="node"><title>\\Elabftw\\Elabftw\\BannedUsers</title>
<polygon fill="none" stroke="black" points="408,-554 325,-554 325,-518 408,-518 408,-554"/>
<text text-anchor="middle" x="366.5" y="-533.2" font-family="Courier,monospace" font-size="11.00">BannedUsers</text>
</g>
<!-- \\Elabftw\\Elabftw\\Uploads -->
<g id="node32" class="node"><title>\\Elabftw\\Elabftw\\Uploads</title>
<polygon fill="none" stroke="black" points="396,-716 337,-716 337,-680 396,-680 396,-716"/>
<text text-anchor="middle" x="366.5" y="-695.2" font-family="Courier,monospace" font-size="11.00">Uploads</text>
</g>
<!-- \\Elabftw\\Elabftw\\Uploads&#45;&gt;\\Elabftw\\Elabftw\\Entity -->
<g id="edge13" class="edge"><title>\\Elabftw\\Elabftw\\Uploads&#45;&gt;\\Elabftw\\Elabftw\\Entity</title>
<path fill="none" stroke="black" d="M336.867,-684.963C327.341,-680.578 316.691,-675.625 307,-671 282.005,-659.071 253.998,-645.251 232.567,-634.579"/>
<polygon fill="none" stroke="black" points="234.026,-631.396 223.515,-630.064 230.901,-637.66 234.026,-631.396"/>
</g>
<!-- \\Elabftw\\Elabftw\\TeamGroups -->
<g id="node33" class="node"><title>\\Elabftw\\Elabftw\\TeamGroups</title>
<polygon fill="none" stroke="black" points="235,-1310 158,-1310 158,-1274 235,-1274 235,-1310"/>
<text text-anchor="middle" x="196.5" y="-1289.2" font-family="Courier,monospace" font-size="11.00">TeamGroups</text>
</g>
<!-- \\Elabftw\\Elabftw\\TeamGroups&#45;&gt;\\Elabftw\\Elabftw\\Panel -->
<g id="edge14" class="edge"><title>\\Elabftw\\Elabftw\\TeamGroups&#45;&gt;\\Elabftw\\Elabftw\\Panel</title>
<path fill="none" stroke="black" d="M157.756,-1292C138.595,-1292 115.421,-1292 96.4468,-1292"/>
<polygon fill="none" stroke="black" points="96.3896,-1288.5 86.3895,-1292 96.3895,-1295.5 96.3896,-1288.5"/>
</g>
<!-- \\Elabftw\\Elabftw\\MakeZip -->
<g id="node34" class="node"><title>\\Elabftw\\Elabftw\\MakeZip</title>
<polygon fill="none" stroke="black" points="396,-68 337,-68 337,-32 396,-32 396,-68"/>
<text text-anchor="middle" x="366.5" y="-47.2" font-family="Courier,monospace" font-size="11.00">MakeZip</text>
</g>
<!-- \\Elabftw\\Elabftw\\MakeZip&#45;&gt;\\Elabftw\\Elabftw\\Make -->
<g id="edge15" class="edge"><title>\\Elabftw\\Elabftw\\MakeZip&#45;&gt;\\Elabftw\\Elabftw\\Make</title>
<path fill="none" stroke="black" d="M336.813,-60.4345C326.875,-64.7576 315.984,-70.3353 307,-77 268.317,-105.698 270.761,-125.733 235,-158 234.062,-158.846 233.097,-159.691 232.113,-160.531"/>
<polygon fill="none" stroke="black" points="229.891,-157.826 224.294,-166.821 234.28,-163.279 229.891,-157.826"/>
</g>
<!-- \\Elabftw\\Elabftw\\DatabaseView -->
<g id="node35" class="node"><title>\\Elabftw\\Elabftw\\DatabaseView</title>
<polygon fill="none" stroke="black" points="411,-1472 322,-1472 322,-1436 411,-1436 411,-1472"/>
<text text-anchor="middle" x="366.5" y="-1451.2" font-family="Courier,monospace" font-size="11.00">DatabaseView</text>
</g>
<!-- \\Elabftw\\Elabftw\\DatabaseView&#45;&gt;\\Elabftw\\Elabftw\\EntityView -->
<g id="edge16" class="edge"><title>\\Elabftw\\Elabftw\\DatabaseView&#45;&gt;\\Elabftw\\Elabftw\\EntityView</title>
<path fill="none" stroke="black" d="M321.799,-1446.98C298.319,-1443.2 269.335,-1438.54 245.263,-1434.68"/>
<polygon fill="none" stroke="black" points="245.706,-1431.2 235.278,-1433.07 244.596,-1438.11 245.706,-1431.2"/>
</g>
<!-- \\Elabftw\\Elabftw\\ImportCsv -->
<g id="node36" class="node"><title>\\Elabftw\\Elabftw\\ImportCsv</title>
<polygon fill="none" stroke="black" points="402,-338 331,-338 331,-302 402,-302 402,-338"/>
<text text-anchor="middle" x="366.5" y="-317.2" font-family="Courier,monospace" font-size="11.00">ImportCsv</text>
</g>
<!-- \\Elabftw\\Elabftw\\ImportCsv&#45;&gt;\\Elabftw\\Elabftw\\Import -->
<g id="edge17" class="edge"><title>\\Elabftw\\Elabftw\\ImportCsv&#45;&gt;\\Elabftw\\Elabftw\\Import</title>
<path fill="none" stroke="black" d="M330.69,-325.594C305.976,-329.566 272.49,-334.948 245.277,-339.322"/>
<polygon fill="none" stroke="black" points="244.504,-335.901 235.186,-340.943 245.615,-342.812 244.504,-335.901"/>
</g>
<!-- \\Elabftw\\Elabftw\\Sysconfig -->
<g id="node37" class="node"><title>\\Elabftw\\Elabftw\\Sysconfig</title>
<polygon fill="none" stroke="black" points="402,-284 331,-284 331,-248 402,-248 402,-284"/>
<text text-anchor="middle" x="366.5" y="-263.2" font-family="Courier,monospace" font-size="11.00">Sysconfig</text>
</g>
<!-- \\Elabftw\\Elabftw\\Tags -->
<g id="node38" class="node"><title>\\Elabftw\\Elabftw\\Tags</title>
<polygon fill="none" stroke="black" points="393.5,-662 339.5,-662 339.5,-626 393.5,-626 393.5,-662"/>
<text text-anchor="middle" x="366.5" y="-641.2" font-family="Courier,monospace" font-size="11.00">Tags</text>
</g>
<!-- \\Elabftw\\Elabftw\\Tags&#45;&gt;\\Elabftw\\Elabftw\\Entity -->
<g id="edge18" class="edge"><title>\\Elabftw\\Elabftw\\Tags&#45;&gt;\\Elabftw\\Elabftw\\Entity</title>
<path fill="none" stroke="black" d="M339.25,-639.781C310.894,-635.224 265.521,-627.932 233.768,-622.829"/>
<polygon fill="none" stroke="black" points="233.994,-619.32 223.566,-621.189 232.884,-626.232 233.994,-619.32"/>
</g>
<!-- \\Elabftw\\Elabftw\\MakePdf -->
<g id="node39" class="node"><title>\\Elabftw\\Elabftw\\MakePdf</title>
<polygon fill="none" stroke="black" points="396,-176 337,-176 337,-140 396,-140 396,-176"/>
<text text-anchor="middle" x="366.5" y="-155.2" font-family="Courier,monospace" font-size="11.00">MakePdf</text>
</g>
<!-- \\Elabftw\\Elabftw\\MakePdf&#45;&gt;\\Elabftw\\Elabftw\\Make -->
<g id="edge19" class="edge"><title>\\Elabftw\\Elabftw\\MakePdf&#45;&gt;\\Elabftw\\Elabftw\\Make</title>
<path fill="none" stroke="black" d="M336.62,-162.641C311.527,-166.674 274.686,-172.595 245.219,-177.331"/>
<polygon fill="none" stroke="black" points="244.453,-173.909 235.135,-178.952 245.563,-180.82 244.453,-173.909"/>
</g>
<!-- \\Elabftw\\Elabftw\\Update -->
<g id="node40" class="node"><title>\\Elabftw\\Elabftw\\Update</title>
<polygon fill="none" stroke="black" points="393.5,-122 339.5,-122 339.5,-86 393.5,-86 393.5,-122"/>
<text text-anchor="middle" x="366.5" y="-101.2" font-family="Courier,monospace" font-size="11.00">Update</text>
</g>
<!-- \\Elabftw\\Elabftw\\TrustedTimestamps -->
<g id="node41" class="node"><title>\\Elabftw\\Elabftw\\TrustedTimestamps</title>
<polygon fill="none" stroke="black" points="426,-446 307,-446 307,-410 426,-410 426,-446"/>
<text text-anchor="middle" x="366.5" y="-425.2" font-family="Courier,monospace" font-size="11.00">TrustedTimestamps</text>
</g>
<!-- \\Elabftw\\Elabftw\\TrustedTimestamps&#45;&gt;\\Elabftw\\Elabftw\\Entity -->
<g id="edge20" class="edge"><title>\\Elabftw\\Elabftw\\TrustedTimestamps&#45;&gt;\\Elabftw\\Elabftw\\Entity</title>
<path fill="none" stroke="black" d="M319.604,-446.147C315.13,-448.792 310.836,-451.74 307,-455 261.957,-493.28 227.529,-554.435 210.114,-589.636"/>
<polygon fill="none" stroke="black" points="206.868,-588.31 205.659,-598.836 213.168,-591.361 206.868,-588.31"/>
</g>
<!-- \\Elabftw\\Elabftw\\Logs -->
<g id="node42" class="node"><title>\\Elabftw\\Elabftw\\Logs</title>
<polygon fill="none" stroke="black" points="223.5,-149 169.5,-149 169.5,-113 223.5,-113 223.5,-149"/>
<text text-anchor="middle" x="196.5" y="-128.2" font-family="Courier,monospace" font-size="11.00">Logs</text>
</g>
<!-- \\Elabftw\\Elabftw\\Logs&#45;&gt;\\Elabftw\\Elabftw\\Panel -->
<g id="edge21" class="edge"><title>\\Elabftw\\Elabftw\\Logs&#45;&gt;\\Elabftw\\Elabftw\\Panel</title>
<path fill="none" stroke="black" d="M169.27,-145.314C164.834,-148.885 160.773,-153.117 158,-158 101.778,-256.999 67.3618,-1096.73 61.0532,-1263.34"/>
<polygon fill="none" stroke="black" points="57.5405,-1263.61 60.663,-1273.74 64.5355,-1263.88 57.5405,-1263.61"/>
</g>
</g>
</svg>
