<?xml version="1.0" encoding="UTF-8" standalone="no"?>
<!DOCTYPE svg PUBLIC "-//W3C//DTD SVG 1.1//EN"
 "http://www.w3.org/Graphics/SVG/1.1/DTD/svg11.dtd">
<!-- Generated by graphviz version 2.38.0 (20140413.2041)
 -->
<!-- Title: G Pages: 1 -->
<svg width="485pt" height="1572pt"
 viewBox="0.00 0.00 485.00 1572.00" xmlns="http://www.w3.org/2000/svg" xmlns:xlink="http://www.w3.org/1999/xlink">
<g id="graph0" class="graph" transform="scale(1 1) rotate(0) translate(4 1568)">
<title>G</title>
<polygon fill="white" stroke="none" points="-4,4 -4,-1568 481,-1568 481,4 -4,4"/>
<g id="clust1" class="cluster"><title>cluster_Global</title>
<path fill="none" stroke="gray" d="M20,-8C20,-8 457,-8 457,-8 463,-8 469,-14 469,-20 469,-20 469,-1544 469,-1544 469,-1550 463,-1556 457,-1556 457,-1556 20,-1556 20,-1556 14,-1556 8,-1550 8,-1544 8,-1544 8,-20 8,-20 8,-14 14,-8 20,-8"/>
<text text-anchor="middle" x="238.5" y="-1543.2" font-family="Times,serif" font-size="11.00" fill="gray">Global</text>
</g>
<g id="clust2" class="cluster"><title>cluster_\Elabftw</title>
<path fill="none" stroke="gray" d="M28,-16C28,-16 449,-16 449,-16 455,-16 461,-22 461,-28 461,-28 461,-1516 461,-1516 461,-1522 455,-1528 449,-1528 449,-1528 28,-1528 28,-1528 22,-1528 16,-1522 16,-1516 16,-1516 16,-28 16,-28 16,-22 22,-16 28,-16"/>
<text text-anchor="middle" x="238.5" y="-1515.2" font-family="Times,serif" font-size="11.00" fill="gray">Elabftw</text>
</g>
<g id="clust3" class="cluster"><title>cluster_\Elabftw\Elabftw</title>
<path fill="none" stroke="gray" d="M36,-24C36,-24 441,-24 441,-24 447,-24 453,-30 453,-36 453,-36 453,-1488 453,-1488 453,-1494 447,-1500 441,-1500 441,-1500 36,-1500 36,-1500 30,-1500 24,-1494 24,-1488 24,-1488 24,-36 24,-36 24,-30 30,-24 36,-24"/>
<text text-anchor="middle" x="238.5" y="-1487.2" font-family="Times,serif" font-size="11.00" fill="gray">Elabftw</text>
</g>
<!-- \\Elabftw\\Elabftw\\Db -->
<g id="node1" class="node"><title>\\Elabftw\\Elabftw\\Db</title>
<polygon fill="none" stroke="black" points="406.5,-1472 352.5,-1472 352.5,-1436 406.5,-1436 406.5,-1472"/>
<text text-anchor="middle" x="379.5" y="-1451.2" font-family="Courier,monospace" font-size="11.00">Db</text>
</g>
<!-- \\Elabftw\\Elabftw\\ItemsTypes -->
<g id="node2" class="node"><title>\\Elabftw\\Elabftw\\ItemsTypes</title>
<polygon fill="none" stroke="black" points="242,-932 158,-932 158,-896 242,-896 242,-932"/>
<text text-anchor="middle" x="200" y="-911.2" font-family="Courier,monospace" font-size="11.00">ItemsTypes</text>
</g>
<!-- \\Elabftw\\Elabftw\\Panel -->
<g id="node31" class="node"><title>\\Elabftw\\Elabftw\\Panel</title>
<polygon fill="none" stroke="black" points="86,-797 32,-797 32,-761 86,-761 86,-797"/>
<text text-anchor="middle" x="59" y="-776.2" font-family="Courier,monospace" font-size="11.00">Panel</text>
</g>
<!-- \\Elabftw\\Elabftw\\ItemsTypes&#45;&gt;\\Elabftw\\Elabftw\\Panel -->
<g id="edge1" class="edge"><title>\\Elabftw\\Elabftw\\ItemsTypes&#45;&gt;\\Elabftw\\Elabftw\\Panel</title>
<path fill="none" stroke="black" d="M169.666,-895.995C165.626,-893.142 161.625,-890.104 158,-887 128.54,-861.774 99.246,-828.066 80.4684,-805.06"/>
<polygon fill="none" stroke="black" points="83.0503,-802.687 74.0453,-797.104 77.6037,-807.084 83.0503,-802.687"/>
</g>
<!-- \\Elabftw\\Elabftw\\StatusView -->
<g id="node3" class="node"><title>\\Elabftw\\Elabftw\\StatusView</title>
<polygon fill="none" stroke="black" points="421.5,-1418 337.5,-1418 337.5,-1382 421.5,-1382 421.5,-1418"/>
<text text-anchor="middle" x="379.5" y="-1397.2" font-family="Courier,monospace" font-size="11.00">StatusView</text>
</g>
<!-- \\Elabftw\\Elabftw\\TeamsView -->
<g id="node4" class="node"><title>\\Elabftw\\Elabftw\\TeamsView</title>
<polygon fill="none" stroke="black" points="418,-1364 341,-1364 341,-1328 418,-1328 418,-1364"/>
<text text-anchor="middle" x="379.5" y="-1343.2" font-family="Courier,monospace" font-size="11.00">TeamsView</text>
</g>
<!-- \\Elabftw\\Elabftw\\Teams -->
<g id="node11" class="node"><title>\\Elabftw\\Elabftw\\Teams</title>
<polygon fill="none" stroke="black" points="227,-878 173,-878 173,-842 227,-842 227,-878"/>
<text text-anchor="middle" x="200" y="-857.2" font-family="Courier,monospace" font-size="11.00">Teams</text>
</g>
<!-- \\Elabftw\\Elabftw\\TeamsView&#45;&gt;\\Elabftw\\Elabftw\\Teams -->
<g id="edge2" class="edge"><title>\\Elabftw\\Elabftw\\TeamsView&#45;&gt;\\Elabftw\\Elabftw\\Teams</title>
<path fill="none" stroke="black" d="M340.866,-1337.47C330.768,-1333.45 320.782,-1327.57 314,-1319 193.164,-1166.4 348.15,-1050.16 242,-887 240.141,-884.142 237.862,-881.519 235.339,-879.125"/>
<polygon fill="none" stroke="black" points="237.215,-876.144 227.218,-872.634 232.844,-881.612 237.215,-876.144"/>
</g>
<!-- \\Elabftw\\Elabftw\\LegacyCrypto -->
<g id="node5" class="node"><title>\\Elabftw\\Elabftw\\LegacyCrypto</title>
<polygon fill="none" stroke="black" points="428.5,-1310 330.5,-1310 330.5,-1274 428.5,-1274 428.5,-1310"/>
<text text-anchor="middle" x="379.5" y="-1289.2" font-family="Courier,monospace" font-size="11.00">LegacyCrypto</text>
</g>
<!-- \\Elabftw\\Elabftw\\ExperimentsView -->
<g id="node6" class="node"><title>\\Elabftw\\Elabftw\\ExperimentsView</title>
<polygon fill="none" stroke="black" points="438.5,-1256 320.5,-1256 320.5,-1220 438.5,-1220 438.5,-1256"/>
<text text-anchor="middle" x="379.5" y="-1235.2" font-family="Courier,monospace" font-size="11.00">ExperimentsView</text>
</g>
<!-- \\Elabftw\\Elabftw\\CryptoWrapper -->
<g id="node7" class="node"><title>\\Elabftw\\Elabftw\\CryptoWrapper</title>
<polygon fill="none" stroke="black" points="431.5,-1202 327.5,-1202 327.5,-1166 431.5,-1166 431.5,-1202"/>
<text text-anchor="middle" x="379.5" y="-1181.2" font-family="Courier,monospace" font-size="11.00">CryptoWrapper</text>
</g>
<!-- \\Elabftw\\Elabftw\\Update -->
<g id="node8" class="node"><title>\\Elabftw\\Elabftw\\Update</title>
<polygon fill="none" stroke="black" points="408,-1148 351,-1148 351,-1112 408,-1112 408,-1148"/>
<text text-anchor="middle" x="379.5" y="-1127.2" font-family="Courier,monospace" font-size="11.00">Update</text>
</g>
<!-- \\Elabftw\\Elabftw\\MolViewer -->
<g id="node9" class="node"><title>\\Elabftw\\Elabftw\\MolViewer</title>
<polygon fill="none" stroke="black" points="418,-1094 341,-1094 341,-1058 418,-1058 418,-1094"/>
<text text-anchor="middle" x="379.5" y="-1073.2" font-family="Courier,monospace" font-size="11.00">MolViewer</text>
</g>
<!-- \\Elabftw\\Elabftw\\Sysconfig -->
<g id="node10" class="node"><title>\\Elabftw\\Elabftw\\Sysconfig</title>
<polygon fill="none" stroke="black" points="418,-1040 341,-1040 341,-1004 418,-1004 418,-1040"/>
<text text-anchor="middle" x="379.5" y="-1019.2" font-family="Courier,monospace" font-size="11.00">Sysconfig</text>
</g>
<!-- \\Elabftw\\Elabftw\\Teams&#45;&gt;\\Elabftw\\Elabftw\\Panel -->
<g id="edge3" class="edge"><title>\\Elabftw\\Elabftw\\Teams&#45;&gt;\\Elabftw\\Elabftw\\Panel</title>
<path fill="none" stroke="black" d="M172.855,-844.765C150.819,-831.923 119.102,-813.441 94.8995,-799.337"/>
<polygon fill="none" stroke="black" points="96.4299,-796.178 86.0276,-794.167 92.9054,-802.226 96.4299,-796.178"/>
</g>
<!-- \\Elabftw\\Elabftw\\Import -->
<g id="node12" class="node"><title>\\Elabftw\\Elabftw\\Import</title>
<polygon fill="none" stroke="black" points="242,-311 158,-311 158,-275 242,-275 242,-311"/>
<text text-anchor="start" x="166" y="-296.2" font-family="Courier,monospace" font-size="11.00">«abstract»</text>
<text text-anchor="start" x="179.5" y="-284.2" font-family="Courier,monospace" font-size="11.00">Import</text>
</g>
<!-- \\Elabftw\\Elabftw\\SysconfigView -->
<g id="node13" class="node"><title>\\Elabftw\\Elabftw\\SysconfigView</title>
<polygon fill="none" stroke="black" points="431.5,-986 327.5,-986 327.5,-950 431.5,-950 431.5,-986"/>
<text text-anchor="middle" x="379.5" y="-965.2" font-family="Courier,monospace" font-size="11.00">SysconfigView</text>
</g>
<!-- \\Elabftw\\Elabftw\\Upload -->
<g id="node14" class="node"><title>\\Elabftw\\Elabftw\\Upload</title>
<polygon fill="none" stroke="black" points="408,-932 351,-932 351,-896 408,-896 408,-932"/>
<text text-anchor="middle" x="379.5" y="-911.2" font-family="Courier,monospace" font-size="11.00">Upload</text>
</g>
<!-- \\Elabftw\\Elabftw\\Make -->
<g id="node15" class="node"><title>\\Elabftw\\Elabftw\\Make</title>
<polygon fill="none" stroke="black" points="242,-716 158,-716 158,-680 242,-680 242,-716"/>
<text text-anchor="start" x="166" y="-701.2" font-family="Courier,monospace" font-size="11.00">«abstract»</text>
<text text-anchor="start" x="186" y="-689.2" font-family="Courier,monospace" font-size="11.00">Make</text>
</g>
<!-- \\Elabftw\\Elabftw\\Upload&#45;&gt;\\Elabftw\\Elabftw\\Make -->
<g id="edge4" class="edge"><title>\\Elabftw\\Elabftw\\Upload&#45;&gt;\\Elabftw\\Elabftw\\Make</title>
<path fill="none" stroke="black" d="M350.759,-907.443C338.252,-903.315 324.065,-896.848 314,-887 257.683,-831.897 292.959,-785.093 242,-725 241.504,-724.415 240.992,-723.838 240.466,-723.268"/>
<polygon fill="none" stroke="black" points="242.69,-720.558 232.976,-716.329 237.933,-725.693 242.69,-720.558"/>
</g>
<!-- \\Elabftw\\Elabftw\\Status -->
<g id="node16" class="node"><title>\\Elabftw\\Elabftw\\Status</title>
<polygon fill="none" stroke="black" points="228.5,-824 171.5,-824 171.5,-788 228.5,-788 228.5,-824"/>
<text text-anchor="middle" x="200" y="-803.2" font-family="Courier,monospace" font-size="11.00">Status</text>
</g>
<!-- \\Elabftw\\Elabftw\\Status&#45;&gt;\\Elabftw\\Elabftw\\Panel -->
<g id="edge5" class="edge"><title>\\Elabftw\\Elabftw\\Status&#45;&gt;\\Elabftw\\Elabftw\\Panel</title>
<path fill="none" stroke="black" d="M171.205,-800.601C149.673,-796.419 119.666,-790.59 96.2483,-786.041"/>
<polygon fill="none" stroke="black" points="96.8177,-782.586 86.3338,-784.115 95.4829,-789.458 96.8177,-782.586"/>
</g>
<!-- \\Elabftw\\Elabftw\\Formkey -->
<g id="node17" class="node"><title>\\Elabftw\\Elabftw\\Formkey</title>
<polygon fill="none" stroke="black" points="411.5,-878 347.5,-878 347.5,-842 411.5,-842 411.5,-878"/>
<text text-anchor="middle" x="379.5" y="-857.2" font-family="Courier,monospace" font-size="11.00">Formkey</text>
</g>
<!-- \\Elabftw\\Elabftw\\CommonTpl -->
<g id="node18" class="node"><title>\\Elabftw\\Elabftw\\CommonTpl</title>
<polygon fill="none" stroke="black" points="238.5,-770 161.5,-770 161.5,-734 238.5,-734 238.5,-770"/>
<text text-anchor="middle" x="200" y="-749.2" font-family="Courier,monospace" font-size="11.00">CommonTpl</text>
</g>
<!-- \\Elabftw\\Elabftw\\CommonTpl&#45;&gt;\\Elabftw\\Elabftw\\Panel -->
<g id="edge6" class="edge"><title>\\Elabftw\\Elabftw\\CommonTpl&#45;&gt;\\Elabftw\\Elabftw\\Panel</title>
<path fill="none" stroke="black" d="M161.385,-759.307C141.118,-763.243 116.234,-768.077 96.191,-771.97"/>
<polygon fill="none" stroke="black" points="95.3501,-768.568 86.201,-773.911 96.6849,-775.44 95.3501,-768.568"/>
</g>
<!-- \\Elabftw\\Elabftw\\Experiments -->
<g id="node19" class="node"><title>\\Elabftw\\Elabftw\\Experiments</title>
<polygon fill="none" stroke="black" points="425,-824 334,-824 334,-788 425,-788 425,-824"/>
<text text-anchor="middle" x="379.5" y="-803.2" font-family="Courier,monospace" font-size="11.00">Experiments</text>
</g>
<!-- \\Elabftw\\Elabftw\\TeamGroupsView -->
<g id="node20" class="node"><title>\\Elabftw\\Elabftw\\TeamGroupsView</title>
<polygon fill="none" stroke="black" points="435,-770 324,-770 324,-734 435,-734 435,-770"/>
<text text-anchor="middle" x="379.5" y="-749.2" font-family="Courier,monospace" font-size="11.00">TeamGroupsView</text>
</g>
<!-- \\Elabftw\\Elabftw\\MakeZip -->
<g id="node21" class="node"><title>\\Elabftw\\Elabftw\\MakeZip</title>
<polygon fill="none" stroke="black" points="411.5,-716 347.5,-716 347.5,-680 411.5,-680 411.5,-716"/>
<text text-anchor="middle" x="379.5" y="-695.2" font-family="Courier,monospace" font-size="11.00">MakeZip</text>
</g>
<!-- \\Elabftw\\Elabftw\\MakeZip&#45;&gt;\\Elabftw\\Elabftw\\Make -->
<g id="edge7" class="edge"><title>\\Elabftw\\Elabftw\\MakeZip&#45;&gt;\\Elabftw\\Elabftw\\Make</title>
<path fill="none" stroke="black" d="M347.175,-698C320.887,-698 282.818,-698 252.12,-698"/>
<polygon fill="none" stroke="black" points="252.02,-694.5 242.02,-698 252.02,-701.5 252.02,-694.5"/>
</g>
<!-- \\Elabftw\\Elabftw\\Users -->
<g id="node22" class="node"><title>\\Elabftw\\Elabftw\\Users</title>
<polygon fill="none" stroke="black" points="406.5,-662 352.5,-662 352.5,-626 406.5,-626 406.5,-662"/>
<text text-anchor="middle" x="379.5" y="-641.2" font-family="Courier,monospace" font-size="11.00">Users</text>
</g>
<!-- \\Elabftw\\Elabftw\\MakeCsv -->
<g id="node23" class="node"><title>\\Elabftw\\Elabftw\\MakeCsv</title>
<polygon fill="none" stroke="black" points="411.5,-608 347.5,-608 347.5,-572 411.5,-572 411.5,-608"/>
<text text-anchor="middle" x="379.5" y="-587.2" font-family="Courier,monospace" font-size="11.00">MakeCsv</text>
</g>
<!-- \\Elabftw\\Elabftw\\MakeCsv&#45;&gt;\\Elabftw\\Elabftw\\Make -->
<g id="edge8" class="edge"><title>\\Elabftw\\Elabftw\\MakeCsv&#45;&gt;\\Elabftw\\Elabftw\\Make</title>
<path fill="none" stroke="black" d="M347.246,-601.272C336.439,-605.638 324.43,-611.029 314,-617 279.287,-636.874 274.719,-647.989 242,-671 240.562,-672.011 239.09,-673.035 237.598,-674.062"/>
<polygon fill="none" stroke="black" points="235.258,-671.42 228.943,-679.927 239.185,-677.215 235.258,-671.42"/>
</g>
<!-- \\Elabftw\\Elabftw\\Tools -->
<g id="node24" class="node"><title>\\Elabftw\\Elabftw\\Tools</title>
<polygon fill="none" stroke="black" points="406.5,-554 352.5,-554 352.5,-518 406.5,-518 406.5,-554"/>
<text text-anchor="middle" x="379.5" y="-533.2" font-family="Courier,monospace" font-size="11.00">Tools</text>
</g>
<!-- \\Elabftw\\Elabftw\\ImportCsv -->
<g id="node25" class="node"><title>\\Elabftw\\Elabftw\\ImportCsv</title>
<polygon fill="none" stroke="black" points="418,-446 341,-446 341,-410 418,-410 418,-446"/>
<text text-anchor="middle" x="379.5" y="-425.2" font-family="Courier,monospace" font-size="11.00">ImportCsv</text>
</g>
<!-- \\Elabftw\\Elabftw\\ImportCsv&#45;&gt;\\Elabftw\\Elabftw\\Import -->
<g id="edge9" class="edge"><title>\\Elabftw\\Elabftw\\ImportCsv&#45;&gt;\\Elabftw\\Elabftw\\Import</title>
<path fill="none" stroke="black" d="M340.819,-414.949C331.705,-411.066 322.227,-406.385 314,-401 278.506,-377.765 244.223,-342.634 222.908,-318.8"/>
<polygon fill="none" stroke="black" points="225.432,-316.37 216.194,-311.184 220.181,-320.999 225.432,-316.37"/>
</g>
<!-- \\Elabftw\\Elabftw\\MakePdf -->
<g id="node26" class="node"><title>\\Elabftw\\Elabftw\\MakePdf</title>
<polygon fill="none" stroke="black" points="411.5,-500 347.5,-500 347.5,-464 411.5,-464 411.5,-500"/>
<text text-anchor="middle" x="379.5" y="-479.2" font-family="Courier,monospace" font-size="11.00">MakePdf</text>
</g>
<!-- \\Elabftw\\Elabftw\\MakePdf&#45;&gt;\\Elabftw\\Elabftw\\Make -->
<g id="edge10" class="edge"><title>\\Elabftw\\Elabftw\\MakePdf&#45;&gt;\\Elabftw\\Elabftw\\Make</title>
<path fill="none" stroke="black" d="M347.491,-489.677C335.837,-493.825 323.197,-500.001 314,-509 257.683,-564.103 292.959,-610.907 242,-671 241.504,-671.585 240.992,-672.162 240.466,-672.732"/>
<polygon fill="none" stroke="black" points="237.933,-670.307 232.976,-679.671 242.69,-675.442 237.933,-670.307"/>
</g>
<!-- \\Elabftw\\Elabftw\\Comments -->
<g id="node27" class="node"><title>\\Elabftw\\Elabftw\\Comments</title>
<polygon fill="none" stroke="black" points="415,-392 344,-392 344,-356 415,-356 415,-392"/>
<text text-anchor="middle" x="379.5" y="-371.2" font-family="Courier,monospace" font-size="11.00">Comments</text>
</g>
<!-- \\Elabftw\\Elabftw\\Logs -->
<g id="node28" class="node"><title>\\Elabftw\\Elabftw\\Logs</title>
<polygon fill="none" stroke="black" points="227,-662 173,-662 173,-626 227,-626 227,-662"/>
<text text-anchor="middle" x="200" y="-641.2" font-family="Courier,monospace" font-size="11.00">Logs</text>
</g>
<!-- \\Elabftw\\Elabftw\\Logs&#45;&gt;\\Elabftw\\Elabftw\\Panel -->
<g id="edge11" class="edge"><title>\\Elabftw\\Elabftw\\Logs&#45;&gt;\\Elabftw\\Elabftw\\Panel</title>
<path fill="none" stroke="black" d="M172.697,-659.903C167.651,-663.343 162.532,-667.12 158,-671 128.54,-696.226 99.246,-729.934 80.4684,-752.94"/>
<polygon fill="none" stroke="black" points="77.6037,-750.916 74.0453,-760.896 83.0503,-755.313 77.6037,-750.916"/>
</g>
<!-- \\Elabftw\\Elabftw\\TeamGroups -->
<g id="node29" class="node"><title>\\Elabftw\\Elabftw\\TeamGroups</title>
<polygon fill="none" stroke="black" points="242,-608 158,-608 158,-572 242,-572 242,-608"/>
<text text-anchor="middle" x="200" y="-587.2" font-family="Courier,monospace" font-size="11.00">TeamGroups</text>
</g>
<!-- \\Elabftw\\Elabftw\\TeamGroups&#45;&gt;\\Elabftw\\Elabftw\\Panel -->
<g id="edge12" class="edge"><title>\\Elabftw\\Elabftw\\TeamGroups&#45;&gt;\\Elabftw\\Elabftw\\Panel</title>
<path fill="none" stroke="black" d="M168.242,-608.027C164.59,-610.797 161.073,-613.807 158,-617 118.687,-657.849 87.8632,-717.189 71.9345,-751.563"/>
<polygon fill="none" stroke="black" points="68.6102,-750.418 67.659,-760.97 74.9829,-753.315 68.6102,-750.418"/>
</g>
<!-- \\Elabftw\\Elabftw\\TrustedTimestamps -->
<g id="node30" class="node"><title>\\Elabftw\\Elabftw\\TrustedTimestamps</title>
<polygon fill="none" stroke="black" points="445,-338 314,-338 314,-302 445,-302 445,-338"/>
<text text-anchor="middle" x="379.5" y="-317.2" font-family="Courier,monospace" font-size="11.00">TrustedTimestamps</text>
</g>
<!-- \\Elabftw\\Elabftw\\ItemsTypesView -->
<g id="node32" class="node"><title>\\Elabftw\\Elabftw\\ItemsTypesView</title>
<polygon fill="none" stroke="black" points="435,-284 324,-284 324,-248 435,-248 435,-284"/>
<text text-anchor="middle" x="379.5" y="-263.2" font-family="Courier,monospace" font-size="11.00">ItemsTypesView</text>
</g>
<!-- \\Elabftw\\Elabftw\\Create -->
<g id="node33" class="node"><title>\\Elabftw\\Elabftw\\Create</title>
<polygon fill="none" stroke="black" points="408,-230 351,-230 351,-194 408,-194 408,-230"/>
<text text-anchor="middle" x="379.5" y="-209.2" font-family="Courier,monospace" font-size="11.00">Create</text>
</g>
<!-- \\Elabftw\\Elabftw\\ImportZip -->
<g id="node34" class="node"><title>\\Elabftw\\Elabftw\\ImportZip</title>
<polygon fill="none" stroke="black" points="418,-176 341,-176 341,-140 418,-140 418,-176"/>
<text text-anchor="middle" x="379.5" y="-155.2" font-family="Courier,monospace" font-size="11.00">ImportZip</text>
</g>
<!-- \\Elabftw\\Elabftw\\ImportZip&#45;&gt;\\Elabftw\\Elabftw\\Import -->
<g id="edge13" class="edge"><title>\\Elabftw\\Elabftw\\ImportZip&#45;&gt;\\Elabftw\\Elabftw\\Import</title>
<path fill="none" stroke="black" d="M340.819,-171.051C331.705,-174.934 322.227,-179.615 314,-185 278.506,-208.235 244.223,-243.366 222.908,-267.2"/>
<polygon fill="none" stroke="black" points="220.181,-265.001 216.194,-274.816 225.432,-269.63 220.181,-265.001"/>
</g>
<!-- \\Elabftw\\Elabftw\\Auth -->
<g id="node35" class="node"><title>\\Elabftw\\Elabftw\\Auth</title>
<polygon fill="none" stroke="black" points="406.5,-122 352.5,-122 352.5,-86 406.5,-86 406.5,-122"/>
<text text-anchor="middle" x="379.5" y="-101.2" font-family="Courier,monospace" font-size="11.00">Auth</text>
</g>
<!-- \\Elabftw\\Elabftw\\Revisions -->
<g id="node36" class="node"><title>\\Elabftw\\Elabftw\\Revisions</title>
<polygon fill="none" stroke="black" points="418,-68 341,-68 341,-32 418,-32 418,-68"/>
<text text-anchor="middle" x="379.5" y="-47.2" font-family="Courier,monospace" font-size="11.00">Revisions</text>
</g>
</g>
</svg>
