<svg xmlns="http://www.w3.org/2000/svg" xml:space="preserve" id="Calque_1" width="1000" height="1000" x="0" y="0" version="1.1"><style id="style2033">@media (prefers-color-scheme:dark){#line2834,#path2830,#polygon2826{fill:#b2b2b2}}</style><g id="g2126" transform="translate(-43.629 -48.245)"><g id="g2828" transform="translate(-9.948 -5.084) scale(1.10537)"><path class="a" id="polygon2826" fill="#4d4d4d" d="m500.8 932.408.481-.279h-.962z"/></g><g id="g2832" transform="translate(-9.948 -5.084) scale(1.10537)"><path class="a" id="path2830" fill="#4d4d4d" d="M506.854 952.918h-12.106L94.41 721.789V252.532L446.027 49.518v287.3l-12.485 5.44c-60.576 26.389-99.718 86.099-99.718 152.115 0 91.461 74.408 165.868 165.868 165.868 91.458 0 165.865-74.407 165.865-165.868 0-66.022-39.141-125.732-99.715-152.115l-12.493-5.44V48.245l353.853 204.284v469.26zM135.987 697.787 500.8 908.405l364.825-210.618v-421.25l-270.699-156.28v189.82c68.596 35.455 112.209 106.356 112.209 184.296 0 114.384-93.056 207.445-207.442 207.445-114.386 0-207.445-93.062-207.445-207.445 0-77.934 43.61-148.835 112.203-184.296V121.533L135.987 276.534Z"/></g><g id="g2836" transform="translate(-9.948 -5.084) scale(1.10537)"><path class="a" id="line2834" fill="#4d4d4d" d="m868.926 719.881 17.488-10.093"/></g><g id="g2850" transform="translate(-9.948 -5.084) scale(1.10537)"><g id="g2846"><path id="path2844" fill="#29aeb9" d="M628.928 430.731H372.681c-9.808 19.42-15.368 41.345-15.368 64.593 0 79.245 64.243 143.49 143.493 143.49 79.249 0 143.493-64.245 143.493-143.49 0-23.247-5.557-45.173-15.371-64.593zm-191.03 56.427c-10.661 0-19.304-8.643-19.304-19.304 0-10.661 8.643-19.304 19.304-19.304 10.661 0 19.304 8.643 19.304 19.304 0 10.661-8.643 19.304-19.304 19.304zm67.273 45.121c-12.868 0-23.3-10.436-23.3-23.301 0-12.877 10.432-23.306 23.3-23.306 12.877 0 23.306 10.429 23.306 23.306 0 12.866-10.429 23.301-23.306 23.301zm61.913-40.667c-13.12 0-23.758-10.638-23.758-23.758s10.638-23.758 23.758-23.758c13.121 0 23.759 10.638 23.759 23.758s-10.638 23.758-23.759 23.758z"/></g></g><path id="path2852" fill="#29aeb9" d="M593.912 411.445c0 14.22-11.528 25.756-25.762 25.756-14.22 0-25.756-11.536-25.756-25.756 0-14.234 11.536-25.762 25.756-25.762 14.234.001 25.762 11.528 25.762 25.762z" style="stroke-width:1.10537"/><path id="path2856" fill="#29aeb9" d="M529.847 429.474c0 9.951-8.072 18.03-18.03 18.03-9.957 0-18.03-8.079-18.03-18.03 0-9.963 8.073-18.03 18.03-18.03 9.958 0 18.03 8.067 18.03 18.03z" style="stroke-width:1.10537"/></g></svg>
