<svg xmlns="http://www.w3.org/2000/svg" xml:space="preserve" id="Calque_1" width="898.6" height="1000.6" viewBox="0 0 898.6 1000.6" x="0" y="0" version="1.1"><style id="style2033">@media (prefers-color-scheme:dark){#line2834,#path2830,#polygon2826{fill:#b2b2b2}}</style><g id="g2126" transform="translate(-94.3 -48.2)"><g id="g2828" transform="translate(-10 -5)scale(1.10537)"><path id="polygon2826" fill="#4d4d4d" d="m500.8 932.4.5-.3h-1z" class="a"/></g><g id="g2832" transform="translate(-10 -5)scale(1.10537)"><path id="path2830" fill="#4d4d4d" d="M506.9 953h-12.2L94.4 721.7V252.5L446 49.5v287.3l-12.5 5.5a166 166 0 1 0 132.3 0l-12.5-5.5V48.2l353.9 204.3v469.3zm-371-255.2 364.9 210.6 364.8-210.6V276.5L595 120.3V310a207.5 207.5 0 1 1-190.4 0V121.5L136 276.5Z" class="a"/></g><g id="g2836" transform="translate(-10 -5)scale(1.10537)"><path id="line2834" fill="#4d4d4d" d="m869 719.9 17.4-10.1" class="a"/></g><g id="g2850" transform="translate(-10 -5)scale(1.10537)"><g id="g2846"><path id="path2844" fill="#29aeb9" d="M629 430.7H372.6a143.5 143.5 0 1 0 256.2 0m-191.1 56.5a19.3 19.3 0 1 1 0-38.7 19.3 19.3 0 0 1 0 38.7m67.3 45a23.3 23.3 0 1 1 0-46.5 23.3 23.3 0 0 1 0 46.6m61.9-40.6a23.8 23.8 0 1 1 0-47.5 23.8 23.8 0 0 1 0 47.5"/></g></g><path id="path2852" fill="#29aeb9" d="M594 411.4a25.8 25.8 0 1 1-51.6 0 25.8 25.8 0 0 1 51.5 0" style="stroke-width:1.10537"/><path id="path2856" fill="#29aeb9" d="M529.8 429.5a18 18 0 1 1-36 0 18 18 0 0 1 36 0" style="stroke-width:1.10537"/></g><path id="path1" d="M420.5 987.2A66959 66959 0 0 0 188.1 853l-70.2-40.6L30 761.8 0 744.5l.3-259.4.2-259.4 9.2-5.3 107.6-62.2 55.8-32.2L386.4 3l2.5-1.4v317.5l-3.8 1.4c-7.5 3-25.4 11.8-31.2 15.3a212 212 0 0 0-54.1 49.5 203 203 0 0 0-31.1 69.2c-1.6 6.6-3.8 27.7-4 37.4a184.6 184.6 0 0 0 135.7 178c17.7 4.9 24.2 5.6 48.9 5.6a138 138 0 0 0 35.5-2.6c38-8.5 66.4-24.2 93.6-51.6a181 181 0 0 0 49.8-161.6 185 185 0 0 0-114.3-137.9l-6-2.2-.2-159.5c-.2-87.7 0-159.5.2-159.5s8.6 4.7 18.7 10.5L882 216.3l16 9.4.3 259.4.3 259.4-37 21.3L752 829.1l-167.4 96.7-113.9 65.8c-21.8 12.6-20.4 12.8-50-4.4m78.3-64.9 167.4-96.6 155.6-89.9 30.8-17.7v-466l-19.2-11-24.4-14-45.6-26.2L554 79.9c-.2 0-.5 47.1-.5 104.6V289l10.1 6a230 230 0 0 1 106.8 254.5 228.9 228.9 0 0 1-276.8 166.1A233 233 0 0 1 256 618.3c-9.8-15-25.1-47.8-27.8-59.3l-2.2-8.4a252 252 0 0 1-7.5-57.5c0-64.1 28.3-127.4 76.4-170.5a271 271 0 0 1 42.7-30.4c2.3-1 4.4-2.6 4.7-3.3s.3-47.7.2-104.5l-.3-103.2-7.5 4.4-50 29a54379 54379 0 0 0-194 111.9L46.5 252l-.2 233-.3 233 8.9 5 23.3 13.5 166.3 96 194.4 112.3 10.3 6 4.7-2.7z" style="fill:none;fill-opacity:1;stroke-width:1.15075"/></svg>
