<svg xmlns="http://www.w3.org/2000/svg" xml:space="preserve" width="401" height="121" viewBox="0 0 1783.2 539.8"><path fill="#fff" d="M646 221c39 0 60 29 60 65v13h-95c3 24 20 37 41 37 22 0 39-16 39-16l14 24s-21 21-55 21c-46 0-74-33-74-72 0-42 28-72 70-72m25 54c0-16-11-27-25-27-18 0-30 10-34 27zm76-69c0-3-3-6-6-6h-12v-30h35c12 0 18 6 18 19v137q0 6 6 6h42c3 0 5-2 5-6v-12h33v29c0 13-6 19-19 19h-84c-13 0-18-6-18-19zm216 70h5v-2c0-19-8-26-26-26-6 0-18 1-18 9v7h-32v-15c0-25 36-28 51-28 45 0 59 24 59 55v51q0 6 6 6h11v29h-31c-13 0-18-7-18-15l1-6h-1s-10 24-41 24c-25 0-47-15-47-43 0-43 59-46 81-46m-26 62c18 0 31-19 31-36v-3h-6c-17 0-46 2-46 21 0 10 7 18 21 18m111-133c0-4-2-5-6-5h-11v-30h33c12 0 18 6 18 19v40l-1 11h1s12-19 41-19c37 0 61 29 61 72 0 44-27 72-63 72-29 0-41-19-41-19h-1l1 9v7h-32zm67 131c19 0 34-15 34-42s-14-44-34-44c-17 0-34 13-34 44 0 21 11 42 34 42m107-136h-17v-30h109c13 0 18 6 18 19v29h-32v-12c0-3-2-6-6-6h-37v55h62v29h-62v78h-35zm188 0h-29c-4 0-6 3-6 6v12h-31v-30c0-13 4-18 17-18h133c13 0 18 5 18 18v30h-31v-12c0-3-2-6-6-6h-30v162h-35zm128 6c-1-4-4-6-8-6h-5v-30h23c13 0 20 4 23 16l26 114 4 20 4-20 35-129h30l33 129c3 11 3 20 3 20h1l3-20 27-114c2-12 10-16 23-16h23v30h-5c-5 0-7 2-9 6l-39 156h-41l-29-109-5-23h-1s-1 11-5 23l-30 109h-41zM243 528h-1zm3 12h-7L0 402V122L210 1v171l-8 3a99 99 0 1 0 79 0l-7-3V0l211 122v280ZM25 388l217 125 218-125V136L299 43v113a124 124 0 1 1-114 0V44L25 136Zm437 13 11-6"/><path fill="#fff" d="M319 228H166a86 86 0 1 0 153 0m-114 34a12 12 0 1 1 0-23 12 12 0 0 1 0 23m40 27a14 14 0 1 1 0-28 14 14 0 0 1 0 28m37-24a14.5 14.5 0 1 1 0-29 14.5 14.5 0 0 1 0 29m-12-69a14 14 0 1 1-28 0 14 14 0 0 1 28 0m-35 10a10 10 0 1 1-19 0 10 10 0 0 1 19 0"/><path d="M223.525 350.243c-23.826-5.607-47.106-24.714-57.914-47.532-5.837-12.323-6.224-14.461-6.224-34.392 0-15.979.878-23.528 3.54-30.428l3.541-9.177h151.886l3.128 7.819c24.67 61.656-33.284 128.93-97.957 113.71m30.742-64.23c7.308-6.287 7.22-15.653-.207-22.042-4.217-3.627-6.832-4.44-11.431-3.552-14.79 2.852-17.355 20.6-4.032 27.887 5.921 3.239 9.919 2.654 15.67-2.293m39.25-25.682c5.08-6.457 5.114-14.242.088-19.637-5.425-5.824-11.989-7.05-18.824-3.515-9.228 4.772-10.977 14.493-4.165 23.152 3.088 3.926 5.707 5.09 11.451 5.09s8.363-1.164 11.452-5.09zm-82.933-.706c7.988-7.988 2.772-21.251-8.358-21.251-7.879 0-12.894 4.958-12.894 12.747 0 11.103 13.322 16.434 21.252 8.504" style="fill:#29aeb9;fill-opacity:1;stroke-width:1.93197"/><path d="M272.743 259.018c-5.553-5.91-5.308-11.985.727-18.019 3.806-3.806 6.113-4.647 10.142-3.694 11.372 2.69 15.422 14.548 7.507 21.984-5.801 5.45-13.103 5.342-18.376-.271M236.577 283.863c-5.137-5.137-5.847-8.903-2.765-14.66 4.938-9.228 17.42-9.107 22.242.215 3.48 6.732.918 13.813-6.169 17.042-6.623 3.018-7.952 2.758-13.308-2.597M194.462 258.024c-3.74-4.132-4.194-12.085-.88-15.4 5.727-5.726 18.934-.162 18.934 7.977 0 4.313-6.847 10.956-11.293 10.956-1.96 0-5.003-1.59-6.761-3.533" style="fill:#fff;fill-opacity:1;stroke-width:1.93197"/><path d="M629.82 361.297c-31.741-8.738-50.065-31.443-51.792-64.175-2.35-44.568 25.494-74.569 69.081-74.431 17.801.057 30.339 5.459 41.514 17.888 10.23 11.379 14.52 22.841 15.989 42.713l1.106 14.973h-95.701l1.229 6.146c3.7 18.502 20.98 32.493 40.132 32.493 10.005 0 26.824-5.597 34.39-11.445l4.752-3.672 6.422 10.662c7.378 12.248 7.162 12.856-7.392 20.777-18.877 10.275-40.912 13.252-59.73 8.071m42.492-87.665c-.046-6.21-4.977-16.54-9.854-20.644-4.764-4.009-7.924-4.954-16.556-4.954-16.93 0-26.636 5.943-32.457 19.873l-2.997 7.174h30.937c17.016 0 30.933-.652 30.927-1.449M760.91 360.655c-2.811-.432-6.723-2.565-8.693-4.741-3.323-3.67-3.652-9.432-4.548-79.585l-.966-75.628-8.21-.594-8.212-.595v-29.099l21.426.654c31.38.958 28.805-6.51 28.805 83.556 0 54.809.596 74.376 2.319 76.099 3.205 3.205 48.185 3.205 51.39 0 1.275-1.276 2.318-5.188 2.318-8.694v-6.376h31.284l-.67 18.288c-.756 20.676-2.266 23.428-14.403 26.243-7.267 1.686-81.459 2.067-91.84.472M911.32 360.99c-11.948-4.385-18.92-10.538-23.789-20.996-15.754-33.834 9.996-59.115 63.57-62.411 15.297-.941 18.725-1.694 17.87-3.923-.582-1.517-1.059-5.363-1.059-8.545 0-3.82-1.92-7.706-5.647-11.434-5.108-5.108-6.872-5.647-18.48-5.647-15.87 0-20.308 2.125-20.308 9.728v5.727h-30.911l.007-9.176c.018-21.926 16.079-31.677 52.044-31.598 24.878.055 40.593 7.738 49.812 24.353 5.224 9.413 5.385 10.62 6.326 47.333l.967 37.673 8.21.594 8.211.594v29.218l-18.073-.79c-22.155-.969-28.294-4.051-28.294-14.205 0-3.694-.31-6.717-.69-6.717s-4.944 4.249-10.143 9.442c-13.409 13.393-31.685 17.363-49.624 10.78zm39.17-26.27c10.531-6.42 15.603-14.546 18.231-29.21l1.298-7.245h-11.584c-16.341 0-30.248 3.402-36.946 9.037-10.181 8.567-6.895 25.51 5.852 30.17 6.438 2.353 16.795 1.122 23.15-2.752M1105.22 361.7c-7.553-2.169-23.322-12.466-23.322-15.23 0-1.01-.968-1.838-2.151-1.838-1.455 0-1.73 2.814-.848 8.694l1.304 8.693h-31.106l-.504-80.659-.504-80.66-8.211-.593-8.21-.595v-28.757h19.211c17.526 0 19.688.41 24.632 4.664l5.421 4.664v30.112c0 16.561.297 30.111.659 30.111s4.05-2.903 8.196-6.452c9.168-7.847 18.79-10.936 34.067-10.936 13.585 0 21.743 2.47 32.654 9.884 27.641 18.786 34.66 71.874 13.836 104.667-13.126 20.67-41.18 31.108-65.125 24.231zm29.396-31.113c9.237-7.045 13.632-17.205 14.54-33.61.858-15.492-1.627-25.506-8.672-34.939-6.424-8.601-13.993-12.072-26.327-12.072-12.993 0-21.588 5.292-28.362 17.462-4.048 7.273-4.803 11.19-4.83 25.087-.027 13.855.74 17.971 4.845 25.95 9.384 18.247 33.065 24.128 48.806 12.122M1222.931 280.877v-81.142h-17.387v-29.14l58.858.563c53.453.512 59.175.88 62.306 4.01 2.739 2.737 3.584 7.402 4.111 22.7l.664 19.254h-31.051l-.594-8.21-.594-8.211-21.735-.547-21.734-.546v56.153h61.822v27.048h-61.822v79.21h-32.844zM1410.332 280.877v-81.142h-17.181c-18.678 0-19.527.51-19.527 11.75v5.637h-28.98v-18.441c0-17.004.37-18.811 4.743-23.184l4.742-4.742h147.18l4.742 4.742c4.373 4.373 4.742 6.18 4.742 23.184v18.441h-28.757l-.594-8.21-.594-8.211-18.837-.553-18.836-.553v162.424h-32.844zM1559.184 284.258c-10.916-42.769-20.65-79.283-21.63-81.142-.98-1.86-3.924-3.381-6.543-3.381-4.644 0-4.762-.365-4.762-14.688v-14.688l16.379.681c24.799 1.031 23.4-1.39 39.46 68.343 7.337 31.854 14.424 63.441 15.75 70.195 2.53 12.895 4.18 12.722 6.575-.688.759-4.25 9.13-36.287 18.601-71.194 9.472-34.906 17.22-63.813 17.22-64.237 0-.425 6.46-.772 14.354-.772h14.352l2.884 10.143c8.89 31.264 32.166 125.87 32.166 130.737 0 8.999 3.384 8.773 4.806-.321.707-4.52 7.8-36.04 15.765-70.042 17.354-74.096 15.702-71.14 40.329-72.164l16.378-.681v14.688c0 14.177-.162 14.688-4.593 14.688-2.527 0-5.441 1.087-6.477 2.415s-9.877 34.582-19.647 73.897-18.634 74.773-19.697 78.794l-1.934 7.312-19.588-.55-19.587-.55-2.282-8.693c-13.808-52.608-29.752-114.107-30.7-118.412-1.238-5.63-4.995-5.481-4.857.193.05 1.797-7.563 31.304-16.904 65.571l-16.985 62.304-19.492.002-19.493.002zM120.748 470.423.966 401.174.47 262.276l-.495-138.898 103.07-59.386C159.733 31.33 206.685 4.607 207.383 4.607s1.269 37.368 1.269 83.041v83.042l-10.143 5.078c-41.66 20.859-63.982 65.274-54.765 108.973 4.314 20.45 13.004 36.91 26.979 51.1 52.12 52.924 141.656 31.85 165.67-38.994 6.04-17.82 6.018-44.378-.05-62.337-8.57-25.356-27.099-46.343-51.862-58.742l-10.143-5.078V86.682c0-46.204.479-84.007 1.064-84.007.927 0 30.303 16.886 179.104 102.958l30.441 17.608-.495 139.064-.496 139.063-119.782 69.17c-65.88 38.044-120.65 69.163-121.713 69.153s-55.834-31.18-121.714-69.268zm235.23-21.473 105.788-60.581-.497-126.657-.496-126.657-74.38-43.083c-40.91-23.695-77.641-44.805-81.626-46.91l-7.245-3.827.024 57.515.025 57.516 10.803 6.761c16.509 10.333 33.907 29.963 43.118 48.65 13.149 26.675 16.343 50.238 10.637 78.458-13.551 67.017-80.208 110.659-146.335 95.81-23.699-5.323-40.672-14.89-59.51-33.543-25.536-25.286-36.502-51.128-36.502-86.015 0-28.404 8.61-53.606 26.061-76.286 8.19-10.644 25.01-25.285 35.278-30.71l4.347-2.295V100.17c0-31.309-.312-56.925-.695-56.925s-36.678 20.7-80.659 46l-79.965 46.001-.496 126.473-.497 126.473 109.63 63.146c98.594 56.789 110.022 62.897 113.517 60.67 2.137-1.363 51.49-29.74 109.675-63.059" style="fill:#525456;fill-opacity:1;stroke-width:1.93197"/><path d="M248.518 205.39c-3.376-2.655-5.09-5.862-5.09-9.52 0-5.525 7.426-13.523 12.557-13.523 5.13 0 12.558 7.998 12.558 13.524s-7.428 13.523-12.558 13.523c-1.307 0-4.668-1.801-7.467-4.004M218.698 214.804c-3.432-3.432-2.821-8.22 1.553-12.178 3.2-2.896 4.71-3.123 8.694-1.307 8.35 3.805 5.411 15.803-3.872 15.803-2.231 0-5.1-1.043-6.375-2.318" style="fill:#29aeb9;fill-opacity:1;stroke-width:1.93197"/></svg>
