<svg xmlns="http://www.w3.org/2000/svg" xml:space="preserve" width="1783.2" height="539.8"><g fill="#fff"><path d="M646 221c39 0 60 29 60 65v13h-95c3 24 20 37 41 37 22 0 39-16 39-16l14 24s-21 21-55 21c-46 0-74-33-74-72 0-42 28-72 70-72zm25 54c0-16-11-27-25-27-18 0-30 10-34 27zM747 206c0-3-3-6-6-6h-12v-30h35c12 0 18 6 18 19v137c0 4 2 6 6 6h42c3 0 5-2 5-6v-12h33v29c0 13-6 19-19 19h-84c-13 0-18-6-18-19V206ZM963 276h5v-2c0-19-8-26-26-26-6 0-18 1-18 9v7h-32v-15c0-25 36-28 51-28 45 0 59 24 59 55v51c0 4 2 6 6 6h11v29h-31c-13 0-18-7-18-15l1-6h-1s-10 24-41 24c-25 0-47-15-47-43 0-43 59-46 81-46zm-26 62c18 0 31-19 31-36v-3h-6c-17 0-46 2-46 21 0 10 7 18 21 18zM1048 205c0-4-2-5-6-5h-11v-30h33c12 0 18 6 18 19v40l-1 11h1s12-19 41-19c37 0 61 29 61 72 0 44-27 72-63 72-29 0-41-19-41-19h-1l1 9v7h-32V205Zm67 131c19 0 34-15 34-42s-14-44-34-44c-17 0-34 13-34 44 0 21 11 42 34 42zM1222 200h-17v-30h109c13 0 18 6 18 19v29h-32v-12c0-3-2-6-6-6h-37v55h62v29h-62v78h-35V200ZM1410 200h-29c-4 0-6 3-6 6v12h-31v-30c0-13 4-18 17-18h133c13 0 18 5 18 18v30h-31v-12c0-3-2-6-6-6h-30v162h-35V200ZM1538 206c-1-4-4-6-8-6h-5v-30h23c13 0 20 4 23 16l26 114 4 20 4-20 35-129h30l33 129c3 11 3 20 3 20h1l3-20 27-114c2-12 10-16 23-16h23v30h-5c-5 0-7 2-9 6l-39 156h-41l-29-109-5-23h-1s-1 11-5 23l-30 109h-41z"/></g><path fill="#fff" d="M243 528h-1 1zM246 540h-7L0 402V122L210 1v171l-8 3a99 99 0 1 0 79 0l-7-3V0l211 122v280ZM25 388l217 125 218-125V136L299 43v113a124 124 0 1 1-114 0V44L25 136v252zM462 401l11-6"/><path fill="#fff" d="M319 228H166a86 86 0 1 0 153 0zm-114 34a12 12 0 1 1 0-23 12 12 0 0 1 0 23zm40 27a14 14 0 1 1 0-28 14 14 0 0 1 0 28zm37-24a14 14 0 1 1 0-29 14 14 0 0 1 0 29zM270 196a14 14 0 1 1-28 0 14 14 0 0 1 28 0zM235 206a10 10 0 1 1-19 0 10 10 0 0 1 19 0z"/></svg>
