<?xml version="1.0" encoding="UTF-8"?>
<!-- Generator: Adobe Illustrator 16.0.0, SVG Export Plug-In . SVG Version: 6.00 Build 0)  -->
<!DOCTYPE svg PUBLIC "-//W3C//DTD SVG 1.1//EN" "http://www.w3.org/Graphics/SVG/1.1/DTD/svg11.dtd">
<svg version="1.1" id="Calque_1" xmlns="http://www.w3.org/2000/svg" xmlns:xlink="http://www.w3.org/1999/xlink" x="0px" y="0px" width="1000px" height="1000px" viewBox="0 0 1000 1000" enable-background="new 0 0 1000 1000" xml:space="preserve">
<g>
	<g>
		<polygon fill="#4D4D4D" points="500.8,932.408 501.281,932.129 500.319,932.129   "/>
	</g>
	<g>
		<path fill="#4D4D4D" d="M506.854,952.918h-12.106L94.41,721.789V252.532L446.027,49.518v287.3l-12.485,5.44    c-60.576,26.389-99.718,86.099-99.718,152.115c0,91.461,74.408,165.868,165.868,165.868c91.458,0,165.865-74.407,165.865-165.868    c0-66.022-39.141-125.732-99.715-152.115l-12.493-5.44V48.245l353.853,204.284v469.26L506.854,952.918z M135.987,697.787    L500.8,908.405l364.825-210.618v-421.25l-270.699-156.28v189.82c68.596,35.455,112.209,106.356,112.209,184.296    c0,114.384-93.056,207.445-207.442,207.445s-207.445-93.062-207.445-207.445c0-77.934,43.61-148.835,112.203-184.296V121.533    L135.987,276.534V697.787z"/>
	</g>
	<g>
		<line fill="#4D4D4D" x1="868.926" y1="719.881" x2="886.414" y2="709.788"/>
	</g>
	<g>
		<path fill="#4D4D4D" d="M115.199,316.191"/>
	</g>
</g>
<g>
	<g>
		<g>
			<path fill="#29AEB9" d="M628.928,430.731H372.681c-9.808,19.42-15.368,41.345-15.368,64.593     c0,79.245,64.243,143.49,143.493,143.49c79.249,0,143.493-64.245,143.493-143.49     C644.299,472.077,638.742,450.151,628.928,430.731z M437.898,487.158c-10.661,0-19.304-8.643-19.304-19.304     s8.643-19.304,19.304-19.304s19.304,8.643,19.304,19.304S448.559,487.158,437.898,487.158z M505.171,532.279     c-12.868,0-23.3-10.436-23.3-23.301c0-12.877,10.432-23.306,23.3-23.306c12.877,0,23.306,10.429,23.306,23.306     C528.477,521.844,518.048,532.279,505.171,532.279z M567.084,491.612c-13.12,0-23.758-10.638-23.758-23.758     s10.638-23.758,23.758-23.758c13.121,0,23.759,10.638,23.759,23.758S580.205,491.612,567.084,491.612z"/>
		</g>
	</g>
</g>
<g>
	<path fill="#29AEB9" d="M546.296,376.822c0,12.865-10.429,23.301-23.306,23.301c-12.865,0-23.301-10.436-23.301-23.301   c0-12.877,10.436-23.306,23.301-23.306C535.867,353.517,546.296,363.945,546.296,376.822z"/>
</g>
<g>
	<path fill="#29AEB9" d="M488.338,393.133c0,9.002-7.302,16.311-16.311,16.311c-9.008,0-16.311-7.309-16.311-16.311   c0-9.014,7.303-16.311,16.311-16.311C481.036,376.822,488.338,384.119,488.338,393.133z"/>
</g>
</svg>